<svg id="Layer_1" data-name="Layer 1" xmlns="http://www.w3.org/2000/svg" viewBox="0 0 73.12 72.22"><defs><style>.cls-1{fill:#fff;stroke:#fff;stroke-miterlimit:10;}</style></defs><title>arculattervezes</title><rect class="cls-1" x="33.03" y="4.31" width="16.34" height="1.48"/><rect class="cls-1" x="8.19" y="4.31" width="16.26" height="1.48"/><path class="cls-1" d="M16.76,32.59l-1.46-.24c.86-5.22,3.19-9.17,6.93-11.74a18.19,18.19,0,0,1,10.14-3h.06v1.51h-.06a16.68,16.68,0,0,0-9.29,2.75C19.67,24.12,17.6,27.78,16.76,32.59Z" transform="translate(-7.47 -13.29)"/><path class="cls-1" d="M12.45,22.77A4.49,4.49,0,1,1,17,18.28a4.49,4.49,0,0,1-4.5,4.49Zm0-7.51a3,3,0,1,0,3,3A3,3,0,0,0,12.45,15.26Z" transform="translate(-7.47 -13.29)"/><path class="cls-1" d="M60.6,22.77a4.49,4.49,0,1,1,4.49-4.49h0A4.49,4.49,0,0,1,60.6,22.77Zm0-7.51a3,3,0,1,0,3,3A3,3,0,0,0,60.6,15.26Z" transform="translate(-7.47 -13.29)"/><path class="cls-1" d="M18,40.46H13.47a2.1,2.1,0,0,1-2.12-2.1h0v-4.5a2.14,2.14,0,0,1,2.12-2.11H18a2.12,2.12,0,0,1,2.12,2.11v4.5A2.1,2.1,0,0,1,18,40.46Zm-4.49-7.25a.64.64,0,0,0-.64.64v4.5a.64.64,0,0,0,.64.64H18a.65.65,0,0,0,.65-.64v-4.5a.65.65,0,0,0-.65-.64Z" transform="translate(-7.47 -13.29)"/><path class="cls-1" d="M38.43,23h-4.5a2.12,2.12,0,0,1-2.11-2.12V16.36a2.12,2.12,0,0,1,2.11-2.12h4.5a2.12,2.12,0,0,1,2.17,2.07v4.54A2.12,2.12,0,0,1,38.48,23Zm-4.5-7.25a.64.64,0,0,0-.64.64v4.49a.64.64,0,0,0,.64.64h4.5a.64.64,0,0,0,.64-.64V16.36a.64.64,0,0,0-.64-.64Z" transform="translate(-7.47 -13.29)"/><path class="cls-1" d="M58.73,41.12h-4.5A2.1,2.1,0,0,1,52.12,39h0v-4.5a2.1,2.1,0,0,1,2.11-2.11h4.5a2.12,2.12,0,0,1,2.12,2.11V39A2.12,2.12,0,0,1,58.73,41.12Zm-4.5-7.25a.64.64,0,0,0-.64.64V39a.64.64,0,0,0,.64.64h4.5a.64.64,0,0,0,.64-.64h0v-4.5a.64.64,0,0,0-.64-.64Z" transform="translate(-7.47 -13.29)"/><path class="cls-1" d="M78,58.91H73.48a2.12,2.12,0,0,1-2.12-2.11V52.3a2.12,2.12,0,0,1,2.12-2.12H78a2.12,2.12,0,0,1,2.12,2.12h0v4.5A2.12,2.12,0,0,1,78,58.91Zm-4.49-7.25a.64.64,0,0,0-.64.64h0v4.5a.64.64,0,0,0,.64.64H78a.65.65,0,0,0,.65-.64V52.3a.65.65,0,0,0-.65-.64Z" transform="translate(-7.47 -13.29)"/><path class="cls-1" d="M55.6,32.55c-.81-4.8-2.91-8.38-6.25-10.66a17.75,17.75,0,0,0-8.89-2.77l.14-1.51c5.29.31,14.47,2.63,16.48,14.69Z" transform="translate(-7.47 -13.29)"/><path class="cls-1" d="M72.6,55.32a19.31,19.31,0,0,1-10.46-2.94c-3.6-2.47-5.63-6.44-6.06-11.82l1.52-.12c.67,8.61,5.75,13.12,15.09,13.4Z" transform="translate(-7.47 -13.29)"/><path class="cls-1" d="M46,71.12H26.51a.73.73,0,0,1-.71-.57L20.73,49.18a.71.71,0,0,1,.24-.73A37.3,37.3,0,0,0,33.31,28.6a2.69,2.69,0,1,1,5.38,0A37.71,37.71,0,0,0,51,48.45a.76.76,0,0,1,.24.71L46.71,70.58A.73.73,0,0,1,46,71.12ZM27.1,69.68H45.39l4.34-20.39A40.86,40.86,0,0,1,39.6,35.76a30.92,30.92,0,0,1-2.37-6.94h0c0-.15-.2-1.42-1.23-1.42s-1.22,1.37-1.22,1.43h0a30.78,30.78,0,0,1-2.35,6.93A40.32,40.32,0,0,1,22.28,49.29Z" transform="translate(-7.47 -13.29)"/><path class="cls-1" d="M36,56a3.54,3.54,0,1,1,3.54-3.54A3.53,3.53,0,0,1,36,56Zm0-5.61a2.07,2.07,0,1,0,2.06,2.08h0A2.07,2.07,0,0,0,36,50.41Z" transform="translate(-7.47 -13.29)"/><rect class="cls-1" x="27.77" y="13.36" width="1.48" height="23.27"/><path class="cls-1" d="M43.9,85H28.6a2.83,2.83,0,0,1-2.83-2.83h0V70.42a.73.73,0,0,1,.82-.65.74.74,0,0,1,.65.65V82.18a1.34,1.34,0,0,0,1.35,1.35H43.9a1.36,1.36,0,0,0,1.36-1.35V70.42a.73.73,0,0,1,.82-.65.74.74,0,0,1,.65.65V82.18A2.83,2.83,0,0,1,43.9,85Z" transform="translate(-7.47 -13.29)"/><path class="cls-1" d="M46,75.71H26.51a.73.73,0,0,1-.65-.82.74.74,0,0,1,.65-.65H46a.74.74,0,0,1,.17,1.47A.49.49,0,0,1,46,75.71Z" transform="translate(-7.47 -13.29)"/><path class="cls-1" d="M46,80.29H26.51a.74.74,0,0,1,0-1.48H46a.74.74,0,1,1,0,1.48Z" transform="translate(-7.47 -13.29)"/></svg>