<svg id="Layer_1" data-name="Layer 1" xmlns="http://www.w3.org/2000/svg" viewBox="0 0 560 385"><title>email</title><path d="M630,157.5a70.06,70.06,0,0,0-70-70H140a70.06,70.06,0,0,0-70,70v245c0,1.39.33,2.7.41,4.07a17.24,17.24,0,0,0,.89,8.77A70,70,0,0,0,140,472.5H560a70,70,0,0,0,68.7-57.16,17.24,17.24,0,0,0,.89-8.77c.08-1.37.41-2.68.41-4.07ZM485.14,271.82,595,205.91V370ZM140,122.5H560a35.06,35.06,0,0,1,35,35v7.59l-200,120a87.24,87.24,0,0,1-90,0l-200-120V157.5a35,35,0,0,1,35-35Zm-35,83.41,109.86,65.91L105,370ZM560,437.5H140a35,35,0,0,1-32.65-22.7L246.29,290.68,287,315.09h0a122.24,122.24,0,0,0,126,0l40.68-24.41L592.65,414.8h0A35,35,0,0,1,560,437.5Z" transform="translate(-70 -87.5)"/></svg>