<svg id="Layer_1" data-name="Layer 1" xmlns="http://www.w3.org/2000/svg" viewBox="0 0 544.53 453.07"><defs><style>.cls-1{fill:#e7f3ff;}.cls-2{fill:#c0e5c0;}.cls-3{fill:#8ab887;}.cls-4{fill:#cce3ff;}</style></defs><title>foltocska2</title><path class="cls-1" d="M82.4,281.2c-5,4.2-13.9,12.2-14,22.5S77,315.9,79.3,327c3.1,14.9-10.7,20.4-12.3,38.4-1.6,18.2,10.8,32.6,14.8,37.2,12.5,14.5,23,12.9,47.2,26.9,31.2,18,7.4,35.9,30,45.7s75.7,4.6,97.2-11.1c13.3-9.6,6.5-15.6,28.4-48.7,16-24.1,24.2-28,26.9-43.9.7-4.1,4.1-24.4-8.5-38-11.1-12-24.2-7.5-30.5-18.5-6.6-11.5,5-21.1.8-34.7-4.6-15-24.5-21.8-38.2-26.3C171.5,233.1,106.6,260.5,82.4,281.2Z" transform="translate(-18.03 -27.1)"/><path class="cls-1" d="M315.17,138.46c-2.9,5.8-8.1,16.6-4.1,26.1s12.7,7.9,19.1,17.2c8.7,12.5-1.9,23,3.7,40.1,5.7,17.3,22.7,25.8,28.2,28.5,17.2,8.5,26.2,2.9,53.9,6.3,35.8,4.4,20.8,30.2,45.4,30.4s71.5-25.3,85.2-48.1c8.5-14-.1-16.9,7.2-55.9,5.3-28.4,11.4-35.2,7.6-50.9-1-4.1-5.8-24.1-22.7-31.7-14.9-6.7-25.2,2.5-35.3-5.1-10.5-8-3.7-21.4-12.8-32.2-10.1-12.1-31.1-10.5-45.5-9.3C378.37,59.36,329.37,109.86,315.17,138.46Z" transform="translate(-18.03 -27.1)"/><path class="cls-2" d="M502,87.66c4.2,1.9,7.4,5.6,9.6,9.6,1.2,2.2,2.2,4.6,1.8,7.1s-2.8,4.7-5.2,4.2a6.68,6.68,0,0,1-3.4-2.6c-2.2-2.8-4.1-6.3-7.6-7.3-2-.5-4.2-.1-5.9-1.3a4.73,4.73,0,0,1-1.4-5.4,7.5,7.5,0,0,1,4.2-4A8.8,8.8,0,0,1,502,87.66Z" transform="translate(-18.03 -27.1)"/><path class="cls-2" d="M510.47,69c-1.3,4.2,2.7,7.3,5.8,7.7s6.2-.8,9.1-2c6.7-2.7,13.6-5.6,18.2-11.1a12.4,12.4,0,0,0,2.9-5.7,6.29,6.29,0,0,0-2.1-5.8c-2-1.5-4.9-1.2-7.4-.7a50.79,50.79,0,0,0-20.2,9.5c-2.6,2.2-5.3,4.8-6.3,8.1" transform="translate(-18.03 -27.1)"/><path class="cls-2" d="M502.17,66.76c4.2.1,8.3-2.4,10.7-5.8a22.92,22.92,0,0,0,3.7-12,38.51,38.51,0,0,0-2-14.7,12.79,12.79,0,0,0-2.8-5.1,6.27,6.27,0,0,0-5.3-2c-2.8.5-4.5,3.5-5.6,6.1a91.24,91.24,0,0,0-4.8,14.5c-1,4-1.7,8.2-.5,12.1s3.8,6.9,7.1,6.9" transform="translate(-18.03 -27.1)"/><path class="cls-3" d="M467.77,102.36s.5-.3,1.4-.8,2.3-1.4,3.8-2.4a43.11,43.11,0,0,1,5.8-3.2,46.88,46.88,0,0,1,7.5-2.9,28.09,28.09,0,0,1,7.9-1.2,13.05,13.05,0,0,1,6.3,1.4,12.91,12.91,0,0,1,3.6,2.5c.7.8,1.2,1.2,1.2,1.1a10.24,10.24,0,0,0-1-1.3,12.82,12.82,0,0,0-3.6-2.7,14.18,14.18,0,0,0-6.5-1.5,26.53,26.53,0,0,0-8.1,1.2,37.62,37.62,0,0,0-7.6,3,53.6,53.6,0,0,0-5.7,3.4c-1.6,1.1-2.8,2-3.7,2.6C468.27,102,467.77,102.26,467.77,102.36Z" transform="translate(-18.03 -27.1)"/><path class="cls-3" d="M470.67,100.46a4.57,4.57,0,0,0,.6-.4,14.71,14.71,0,0,1,1.7-1.3q2.25-1.8,6.3-4.8c5.4-4,11.4-8,20.1-13.4,8.2-5.1,17.8-10.9,24.4-14.2,1.5-.8,2.9-1.4,4.1-2A25.55,25.55,0,0,1,531,63a15.87,15.87,0,0,1,2-.9c.4-.2.7-.3.7-.4s-.3.1-.7.2-1.2.5-2,.8-1.9.8-3.2,1.3-2.6,1.2-4.1,1.9a244.69,244.69,0,0,0-23,12.7c-8.7,5.4-16.3,10.8-21.6,14.9-2.7,2-4.8,3.8-6.2,5-.7.6-1.2,1.1-1.6,1.4Z" transform="translate(-18.03 -27.1)"/><path class="cls-3" d="M484.77,89.36s.7-.5,1.8-1.4,2.6-2.4,4.4-4.3a82.75,82.75,0,0,0,5.8-7.1,81.17,81.17,0,0,0,6-9.5,54.1,54.1,0,0,0,6.6-19.2c.2-1.3.2-2.5.3-3.5,0-.5.1-1,.1-1.4s-.1-.8-.1-1.2c-.1-1.5-.2-2.3-.2-2.2-.2,0,.3,3.2-.5,8.3a58.11,58.11,0,0,1-6.8,18.9,78.27,78.27,0,0,1-5.9,9.4,84.3,84.3,0,0,1-5.6,7.1c-1.7,1.9-3.2,3.4-4.2,4.5S484.77,89.36,484.77,89.36Z" transform="translate(-18.03 -27.1)"/><path class="cls-2" d="M451.37,108a13,13,0,0,0-6.8-4.4,6.37,6.37,0,0,0-4.3-.1c-1.4.6-2.4,2.2-1.8,3.5a4.18,4.18,0,0,0,2,1.7c1.9.9,4.2,1.6,5.2,3.5.6,1.1.6,2.4,1.5,3.3a2.7,2.7,0,0,0,3.3.1,4.5,4.5,0,0,0,1.8-3A5.68,5.68,0,0,0,451.37,108Z" transform="translate(-18.03 -27.1)"/><path class="cls-2" d="M461.07,100.66c-2.3,1.3-4.6-.6-5.2-2.4a11.37,11.37,0,0,1,0-5.5c.7-4.2,1.5-8.6,4.2-12a7.5,7.5,0,0,1,2.9-2.4,3.35,3.35,0,0,1,3.6.5c1.1,1,1.3,2.7,1.3,4.2a29.06,29.06,0,0,1-3,12.9,9.75,9.75,0,0,1-3.8,4.7" transform="translate(-18.03 -27.1)"/><path class="cls-2" d="M463.47,105.26a7.69,7.69,0,0,1,2-6.9,13.68,13.68,0,0,1,6.5-3.7,23.56,23.56,0,0,1,8.8-.7,7.49,7.49,0,0,1,3.3,1,3.39,3.39,0,0,1,1.8,2.8c.1,1.7-1.4,3-2.8,4a61.35,61.35,0,0,1-7.8,4.6,13.31,13.31,0,0,1-7,1.8c-2.4-.2-4.5-1.3-4.9-3.3" transform="translate(-18.03 -27.1)"/><path class="cls-2" d="M447.17,129.66l.3-.9c.2-.7.6-1.5.9-2.5s.8-2.3,1.2-3.7a22.11,22.11,0,0,0,.7-4.7,17.72,17.72,0,0,0-.3-4.7,8.72,8.72,0,0,0-1.6-3.5,10,10,0,0,0-1.9-1.8c-.5-.3-.8-.5-.8-.5a7.86,7.86,0,0,1,.9.4,9,9,0,0,1,2,1.7,8.63,8.63,0,0,1,1.7,3.6,15.6,15.6,0,0,1,.3,4.9,24.06,24.06,0,0,1-.8,4.8c-.4,1.4-.8,2.7-1.2,3.8s-.8,1.9-1,2.5Z" transform="translate(-18.03 -27.1)"/><path class="cls-3" d="M447.87,127.76s0-.1.2-.4a6.57,6.57,0,0,1,.6-1.2c.5-1,1.2-2.5,2-4.3,1.7-3.6,3.2-7.6,5.3-13.4,1.9-5.4,4-11.7,5.1-16a15.79,15.79,0,0,0,.6-2.6c.2-.8.3-1.4.4-2s.2-.9.3-1.3a1.58,1.58,0,0,0,.1-.4v.4c-.1.3-.1.8-.2,1.3s-.2,1.2-.4,2-.3,1.7-.6,2.6a134.13,134.13,0,0,1-4.5,15,154.23,154.23,0,0,1-5.9,14.4l-2.1,4.2a6.4,6.4,0,0,0-.6,1.1A2.16,2.16,0,0,1,447.87,127.76Z" transform="translate(-18.03 -27.1)"/><path class="cls-3" d="M454,117.66l.6-1.2a29.86,29.86,0,0,1,2-3.1,48.36,48.36,0,0,1,3.4-4.3,47.83,47.83,0,0,1,4.7-4.7,36.12,36.12,0,0,1,10.3-6.3c.7-.3,1.4-.4,2-.6a3.09,3.09,0,0,1,.8-.2c.3,0,.5-.1.7-.1a11.14,11.14,0,0,0,1.3-.2,44.46,44.46,0,0,0-4.8,1.4,34.17,34.17,0,0,0-10.1,6.3,52.09,52.09,0,0,0-4.7,4.6,36.93,36.93,0,0,0-3.4,4.2c-.9,1.2-1.6,2.3-2.1,3S454,117.66,454,117.66Z" transform="translate(-18.03 -27.1)"/><path class="cls-3" d="M23.5,257.8l1.1.3c.8.2,1.9.4,3.2.7s3.1.6,5.1,1.1,4.2,1,6.7,1.6c5,1.2,10.8,3,17.3,5.1s13.4,4.8,20.6,7.9,13.8,6.4,19.8,9.6,11.2,6.4,15.5,9.1c2.2,1.3,4.1,2.7,5.8,3.8s3.1,2.1,4.3,3,2,1.4,2.7,1.9a10.39,10.39,0,0,0,1,.6,6.41,6.41,0,0,0-.9-.7c-.7-.5-1.5-1.2-2.6-2s-2.5-1.9-4.2-3.1-3.6-2.5-5.7-3.9c-4.3-2.8-9.5-6-15.4-9.3s-12.6-6.6-19.8-9.7-14.2-5.7-20.7-7.8-12.4-3.7-17.4-4.9c-2.5-.6-4.8-1.1-6.8-1.5s-3.7-.8-5.1-1-2.4-.4-3.3-.5Z" transform="translate(-18.03 -27.1)"/><path class="cls-2" d="M58.7,267.9A19.11,19.11,0,0,0,45.9,270c-1.3.7-2.7,1.8-2.8,3.3-.1,2,2,3.4,4,3.8a14.44,14.44,0,0,0,9.8-1.2c3-1.6,5-3.4,6.2-6.6" transform="translate(-18.03 -27.1)"/><path class="cls-2" d="M82,276.8c-5.1-1.3-13.3-1.3-18,.9a5.71,5.71,0,0,0-2.1,1.3,2.49,2.49,0,0,0-.7,2.3c.3,1.1,1.5,1.7,2.7,2.1a20.36,20.36,0,0,0,20.6-5.8" transform="translate(-18.03 -27.1)"/><path class="cls-2" d="M102.3,287.2a29.33,29.33,0,0,0-15.2,2.5,4.77,4.77,0,0,0-2.7,2.3c-.6,1.8.9,3.6,2.6,4.3,3.5,1.6,7.6.5,11.1-1a39.33,39.33,0,0,0,8.3-5.5" transform="translate(-18.03 -27.1)"/><path class="cls-2" d="M115.6,295.2a27.73,27.73,0,0,0-12.1,2.6,6.91,6.91,0,0,0-2.2,1.6,2.53,2.53,0,0,0-.4,2.5c.7,1.3,2.5,1.4,3.9,1.2a24,24,0,0,0,13.2-6" transform="translate(-18.03 -27.1)"/><path class="cls-2" d="M109.1,289.7a91.44,91.44,0,0,1-4.7-16,2.45,2.45,0,0,1,.4-2.5,1.66,1.66,0,0,1,1.9-.2,4.71,4.71,0,0,1,1.5,1.3c4.2,5.2,5.4,12.9,3.7,19.3" transform="translate(-18.03 -27.1)"/><path class="cls-2" d="M91.4,280.2c-1.8-4.5-3.5-9-5.3-13.5a11.22,11.22,0,0,1-1-4,3.33,3.33,0,0,1,5.7-2.7,8.92,8.92,0,0,1,2.3,3.4,30.69,30.69,0,0,1,3,9.3c.3,3.3.2,6-1.8,8.6" transform="translate(-18.03 -27.1)"/><path class="cls-2" d="M71,270.3a31.36,31.36,0,0,1-7.6-14.8,6.62,6.62,0,0,1-.1-2.8c.6-1.8,2.8-2.6,4.6-2.2a7.63,7.63,0,0,1,4.9,3.7,15.63,15.63,0,0,1,1.9,6,34.76,34.76,0,0,1-.2,11.6" transform="translate(-18.03 -27.1)"/><path class="cls-2" d="M51.8,264.2c-5.2-3.9-8.3-9.5-11-15.5-.6-1.3-1-2.8-.2-3.9a2.63,2.63,0,0,1,2.4-.9,6.3,6.3,0,0,1,2.4.9,20,20,0,0,1,9.3,20.1" transform="translate(-18.03 -27.1)"/><path class="cls-2" d="M41.9,261.9a57.85,57.85,0,0,0-8.6-5.2,17.59,17.59,0,0,0-9.8-1.6,7.56,7.56,0,0,0-3.9,1.6,4,4,0,0,0-1.5,3.8,4.41,4.41,0,0,0,2.5,3,12.44,12.44,0,0,0,3.9,1c6.2.8,13.9.4,17.4-2.6" transform="translate(-18.03 -27.1)"/><path class="cls-3" d="M89.5,196.4l.5,1c.4.7,1,1.7,1.7,2.8s1.6,2.7,2.6,4.5,2.2,3.8,3.4,6c2.4,4.5,5.2,10,8,16.1s5.6,13.1,8.2,20.4,4.6,14.5,6.3,21.1,2.9,12.5,3.8,17.6c.5,2.5.8,4.8,1.1,6.8s.6,3.7.8,5.2.3,2.4.5,3.3c.1.7.2,1.1.2,1.1v-1.2q-.15-1.2-.3-3.3c-.1-1.4-.3-3.2-.6-5.2s-.6-4.3-1-6.9c-.8-5.1-2-11.1-3.6-17.7s-3.7-13.8-6.3-21.2-5.4-14.3-8.3-20.5-5.6-11.6-8.2-16.1c-1.2-2.3-2.4-4.2-3.5-6s-2-3.2-2.8-4.4-1.3-2.1-1.8-2.8A1.4,1.4,0,0,1,89.5,196.4Z" transform="translate(-18.03 -27.1)"/><path class="cls-2" d="M105.9,229.1a19.34,19.34,0,0,0-10.2-8c-1.4-.5-3.1-.7-4.3.2-1.5,1.3-1.1,3.8-.1,5.5a14.27,14.27,0,0,0,7.5,6.4c3.2,1.1,5.9,1.4,9,.1" transform="translate(-18.03 -27.1)"/><path class="cls-2" d="M115.2,252.3c-2.5-4.6-8.1-10.6-12.9-12.7a7.06,7.06,0,0,0-2.4-.6,2.39,2.39,0,0,0-2.1,1c-.6,1-.2,2.3.3,3.4a20.36,20.36,0,0,0,18.2,11.2" transform="translate(-18.03 -27.1)"/><path class="cls-2" d="M121.3,274.3a29.19,29.19,0,0,0-12.2-9.5,4.35,4.35,0,0,0-3.5-.4c-1.7.7-2,3.1-1.4,4.9,1.2,3.6,4.7,5.9,8.2,7.5,3.7,1.7,9.7,2.4,9.7,2.4" transform="translate(-18.03 -27.1)"/><path class="cls-2" d="M124.4,289.4a27.32,27.32,0,0,0-10.1-7.1,5.75,5.75,0,0,0-2.6-.5,2.41,2.41,0,0,0-2.1,1.5c-.5,1.4.6,2.8,1.8,3.7a23,23,0,0,0,13.4,5.6" transform="translate(-18.03 -27.1)"/><path class="cls-2" d="M124,281a90.4,90.4,0,0,1,8.6-14.3c.5-.7,1.2-1.5,2.1-1.4a1.71,1.71,0,0,1,1.4,1.3,4.5,4.5,0,0,1,0,2c-1,6.6-5.8,12.7-11.7,15.8" transform="translate(-18.03 -27.1)"/><path class="cls-2" d="M119,261.5c2.1-4.3,4.2-8.7,6.3-13a11.05,11.05,0,0,1,2.2-3.4,3.87,3.87,0,0,1,3.8-1,3.69,3.69,0,0,1,2.1,3.3,9.34,9.34,0,0,1-.9,4,29.65,29.65,0,0,1-4.8,8.5c-2.2,2.4-4.3,4.2-7.6,4.5" transform="translate(-18.03 -27.1)"/><path class="cls-2" d="M112.4,239.8a32.84,32.84,0,0,1,5.7-15.7,5.2,5.2,0,0,1,2-1.9c1.7-.8,3.8.3,4.8,1.9a7.64,7.64,0,0,1,.6,6.1,17.69,17.69,0,0,1-3.1,5.5,40.5,40.5,0,0,1-8.7,7.8" transform="translate(-18.03 -27.1)"/><path class="cls-2" d="M104,221.6c-.7-6.5,1.4-12.6,3.9-18.6.5-1.3,1.4-2.7,2.8-2.8a2.57,2.57,0,0,1,2.3,1.2,7.2,7.2,0,0,1,1,2.4,20.16,20.16,0,0,1-8.5,20.5" transform="translate(-18.03 -27.1)"/><path class="cls-2" d="M98.9,212.7a53.23,53.23,0,0,0-2-9.8,18,18,0,0,0-5.4-8.3,7.81,7.81,0,0,0-3.9-1.8,4.19,4.19,0,0,0-3.9,1.5,4.26,4.26,0,0,0-.5,3.8,11.91,11.91,0,0,0,1.9,3.5c3.8,5.1,9.3,10.5,13.8,11.1" transform="translate(-18.03 -27.1)"/><path class="cls-4" d="M120.9,299.1c-3.9,3.3-10.9,9.5-11,17.6s6.8,9.6,8.6,18.3c2.4,11.7-8.4,16-9.6,30.1-1.2,14.3,8.5,25.6,11.6,29.2,9.8,11.4,18,10.1,37,21.1,24.5,14.1,5.8,28.2,23.5,35.8s59.4,3.6,76.3-8.7c10.4-7.6,5.1-12.2,22.3-38.2,12.5-18.9,19-22,21.1-34.5.5-3.2,3.2-19.2-6.7-29.8-8.7-9.4-19-5.9-24-14.5-5.2-9,3.9-16.6.6-27.2-3.6-11.8-19.2-17.1-30-20.7C190.8,261.3,139.9,282.8,120.9,299.1Z" transform="translate(-18.03 -27.1)"/><path class="cls-4" d="M296.77,151.46c-2.3,4.6-6.3,13.1-3.2,20.5s10,6.2,15,13.5c6.8,9.8-1.5,18,2.9,31.5s17.8,20.2,22.1,22.4c13.5,6.7,20.6,2.3,42.3,5,28.1,3.4,16.3,23.7,35.6,23.8s56.1-19.9,66.9-37.8c6.6-11-.1-13.2,5.6-43.9,4.2-22.3,8.9-27.6,6-40-.8-3.2-4.5-18.9-17.8-24.9-11.7-5.3-19.8,2-27.7-4-8.3-6.3-2.9-16.8-10-25.3-7.9-9.5-24.4-8.3-35.7-7.3C346.37,89.36,307.87,129.06,296.77,151.46Z" transform="translate(-18.03 -27.1)"/></svg>