<svg id="Layer_1" data-name="Layer 1" xmlns="http://www.w3.org/2000/svg" xmlns:xlink="http://www.w3.org/1999/xlink" viewBox="0 0 463.32 478.73"><defs><style>.cls-1,.cls-10,.cls-11,.cls-12,.cls-13,.cls-14,.cls-15,.cls-16,.cls-17,.cls-18,.cls-19,.cls-20,.cls-21,.cls-22,.cls-23,.cls-24,.cls-25,.cls-26,.cls-27,.cls-28,.cls-29,.cls-30,.cls-31,.cls-32,.cls-33,.cls-34,.cls-35,.cls-36,.cls-37,.cls-38,.cls-39,.cls-4,.cls-40,.cls-41,.cls-42,.cls-43,.cls-44,.cls-5,.cls-6,.cls-7,.cls-8,.cls-9{fill:none;}.cls-2{clip-path:url(#clip-path);}.cls-3{fill:#effffc;}.cls-10,.cls-11,.cls-12,.cls-13,.cls-14,.cls-15,.cls-16,.cls-17,.cls-18,.cls-19,.cls-20,.cls-21,.cls-22,.cls-23,.cls-24,.cls-25,.cls-26,.cls-27,.cls-28,.cls-29,.cls-30,.cls-31,.cls-32,.cls-33,.cls-34,.cls-35,.cls-36,.cls-37,.cls-38,.cls-39,.cls-4,.cls-40,.cls-41,.cls-42,.cls-43,.cls-44,.cls-5,.cls-6,.cls-7,.cls-8,.cls-9{stroke:#fff;stroke-miterlimit:10;}.cls-4{stroke-width:0.71px;}.cls-5{stroke-width:0.71px;opacity:0.98;}.cls-6{stroke-width:0.7px;opacity:0.95;}.cls-7{stroke-width:0.69px;opacity:0.93;}.cls-8{stroke-width:0.69px;opacity:0.9;}.cls-9{stroke-width:0.68px;opacity:0.88;}.cls-10{stroke-width:0.68px;opacity:0.85;}.cls-11{stroke-width:0.67px;opacity:0.83;}.cls-12{stroke-width:0.67px;opacity:0.8;}.cls-13{stroke-width:0.66px;opacity:0.78;}.cls-14{stroke-width:0.65px;opacity:0.76;}.cls-15{stroke-width:0.65px;opacity:0.73;}.cls-16{stroke-width:0.64px;opacity:0.71;}.cls-17{stroke-width:0.64px;opacity:0.68;}.cls-18{stroke-width:0.63px;opacity:0.66;}.cls-19{stroke-width:0.63px;opacity:0.63;}.cls-20{stroke-width:0.62px;opacity:0.61;}.cls-21{stroke-width:0.61px;opacity:0.59;}.cls-22{stroke-width:0.61px;opacity:0.56;}.cls-23{stroke-width:0.6px;opacity:0.54;}.cls-24{stroke-width:0.6px;opacity:0.51;}.cls-25{stroke-width:0.59px;opacity:0.49;}.cls-26{stroke-width:0.58px;opacity:0.46;}.cls-27{stroke-width:0.58px;opacity:0.44;}.cls-28{stroke-width:0.57px;opacity:0.41;}.cls-29{stroke-width:0.57px;opacity:0.39;}.cls-30{stroke-width:0.56px;opacity:0.37;}.cls-31{stroke-width:0.56px;opacity:0.34;}.cls-32{stroke-width:0.55px;opacity:0.32;}.cls-33{stroke-width:0.54px;opacity:0.29;}.cls-34{stroke-width:0.54px;opacity:0.27;}.cls-35{stroke-width:0.53px;opacity:0.24;}.cls-36{stroke-width:0.53px;opacity:0.22;}.cls-37{stroke-width:0.52px;opacity:0.2;}.cls-38{stroke-width:0.52px;opacity:0.17;}.cls-39{stroke-width:0.51px;opacity:0.15;}.cls-40{stroke-width:0.5px;opacity:0.12;}.cls-41{stroke-width:0.49px;opacity:0.07;}.cls-42{stroke-width:0.49px;opacity:0.05;}.cls-43{stroke-width:0.48px;opacity:0.02;}.cls-44{stroke-width:0.47px;opacity:0;}</style><clipPath id="clip-path"><circle class="cls-1" cx="106.24" cy="111.13" r="106.24"/></clipPath><symbol id="New_Symbol" data-name="New Symbol" viewBox="0 0 212.48 219.22"><g class="cls-2"><path class="cls-3" d="M.24,1.11A64.76,64.76,0,0,1,13.64,2c2.22.4,4.39,1,6.56,1.42a52.21,52.21,0,0,0,6.55,1A80.17,80.17,0,0,0,40,4.7,58.78,58.78,0,0,0,53,2.42c2.15-.58,4.37-1.15,6.61-1.54A55.73,55.73,0,0,1,66.38.13,82.32,82.32,0,0,1,80,.46,56.11,56.11,0,0,1,86.7,1.68c2.21.52,4.34,1.1,6.48,1.53a63.91,63.91,0,0,0,13.06,1.15A63.27,63.27,0,0,0,119.3,3.21c2.14-.43,4.27-1,6.48-1.53A56.11,56.11,0,0,1,132.51.46,82.32,82.32,0,0,1,146.1.14a53.64,53.64,0,0,1,6.78.74c2.25.39,4.46,1,6.62,1.55a59.28,59.28,0,0,0,13,2.28,82.53,82.53,0,0,0,13.25-.19,54,54,0,0,0,6.54-1.06c2.17-.47,4.35-1,6.57-1.42a65.41,65.41,0,0,1,13.39-.93v.15a64.51,64.51,0,0,0-13.3,1.24c-2.18.45-4.34,1-6.51,1.57a52.72,52.72,0,0,1-6.59,1.23,81,81,0,0,1-13.4.39,59.79,59.79,0,0,1-13.22-2.13A59.53,59.53,0,0,0,146,1.43a81.67,81.67,0,0,0-13.36.38A54.65,54.65,0,0,0,126.1,3c-2.16.52-4.32,1.12-6.51,1.57a63.69,63.69,0,0,1-13.35,1.24A64.3,64.3,0,0,1,92.89,4.62C90.7,4.17,88.54,3.57,86.37,3a54.1,54.1,0,0,0-6.56-1.22,80.58,80.58,0,0,0-13.36-.39A60.1,60.1,0,0,0,53.27,3.55,59.8,59.8,0,0,1,40.05,5.69a81,81,0,0,1-13.4-.39,52.72,52.72,0,0,1-6.59-1.23C17.88,3.55,15.73,3,13.55,2.5A64.61,64.61,0,0,0,.24,1.26Z"/><path class="cls-3" d="M.24,7A64.75,64.75,0,0,1,13.64,8c2.22.41,4.39,1,6.56,1.43a54.11,54.11,0,0,0,6.55,1A80.17,80.17,0,0,0,40,10.63,58.78,58.78,0,0,0,53,8.35c2.15-.59,4.37-1.16,6.61-1.55a57.75,57.75,0,0,1,6.79-.74A81.24,81.24,0,0,1,80,6.39,56.09,56.09,0,0,1,86.7,7.6c2.21.53,4.34,1.11,6.48,1.54a63.21,63.21,0,0,0,13.06,1.14A62.59,62.59,0,0,0,119.3,9.14c2.14-.43,4.27-1,6.48-1.54a56.09,56.09,0,0,1,6.73-1.21,81.24,81.24,0,0,1,13.59-.33,55.56,55.56,0,0,1,6.78.75c2.25.39,4.46,1,6.62,1.55a59.28,59.28,0,0,0,13,2.28,81.39,81.39,0,0,0,13.25-.2,52.06,52.06,0,0,0,6.54-1c2.17-.47,4.35-1,6.57-1.43A64.7,64.7,0,0,1,212.23,7v.15a65.2,65.2,0,0,0-13.3,1.23c-2.18.45-4.34,1.05-6.51,1.58a54.61,54.61,0,0,1-6.59,1.23,81,81,0,0,1-13.4.38,59.79,59.79,0,0,1-13.22-2.13A60.1,60.1,0,0,0,146,7.36a81.67,81.67,0,0,0-13.36.38A54.62,54.62,0,0,0,126.1,9c-2.16.53-4.32,1.13-6.51,1.58a65.06,65.06,0,0,1-13.35,1.24,64.31,64.31,0,0,1-13.35-1.24c-2.19-.45-4.35-1-6.52-1.57a54.13,54.13,0,0,0-6.56-1.23,81.67,81.67,0,0,0-13.36-.38A59.52,59.52,0,0,0,53.27,9.48a59.79,59.79,0,0,1-13.22,2.13,81,81,0,0,1-13.4-.38A54.61,54.61,0,0,1,20.06,10c-2.18-.53-4.33-1.12-6.51-1.58A65.3,65.3,0,0,0,.24,7.19Z"/><path class="cls-3" d="M.24,13a64.75,64.75,0,0,1,13.4.92c2.22.4,4.39.95,6.56,1.42a54.14,54.14,0,0,0,6.55,1.06A82.42,82.42,0,0,0,40,16.56a59.37,59.37,0,0,0,13-2.28c2.15-.59,4.37-1.16,6.61-1.55A55.7,55.7,0,0,1,66.38,12,82.32,82.32,0,0,1,80,12.31a56.11,56.11,0,0,1,6.73,1.22c2.21.53,4.34,1.11,6.48,1.54a63.91,63.91,0,0,0,13.06,1.14,64,64,0,0,0,13.06-1.14c2.14-.43,4.27-1,6.48-1.54a56.11,56.11,0,0,1,6.73-1.22A82.32,82.32,0,0,1,146.1,12a55.56,55.56,0,0,1,6.78.75c2.25.39,4.46,1,6.62,1.54a58.7,58.7,0,0,0,13,2.28,81.39,81.39,0,0,0,13.25-.19,54,54,0,0,0,6.54-1.05c2.17-.48,4.35-1,6.57-1.43A64.7,64.7,0,0,1,212.23,13v.15a64.51,64.51,0,0,0-13.3,1.23c-2.18.45-4.34,1.05-6.51,1.58a54.58,54.58,0,0,1-6.59,1.22,81,81,0,0,1-13.4.39,59.79,59.79,0,0,1-13.22-2.13A60.12,60.12,0,0,0,146,13.28a80.58,80.58,0,0,0-13.36.39,54.62,54.62,0,0,0-6.57,1.22c-2.16.53-4.32,1.13-6.51,1.58a65.06,65.06,0,0,1-13.35,1.24,65,65,0,0,1-13.35-1.24c-2.19-.45-4.35-1-6.52-1.58a54.1,54.1,0,0,0-6.56-1.22,80.58,80.58,0,0,0-13.36-.39,60.12,60.12,0,0,0-13.18,2.13,59.79,59.79,0,0,1-13.22,2.13,81,81,0,0,1-13.4-.39,54.58,54.58,0,0,1-6.59-1.22c-2.18-.53-4.33-1.13-6.51-1.58A64.6,64.6,0,0,0,.24,13.12Z"/><path class="cls-3" d="M.24,18.89a64.76,64.76,0,0,1,13.4.93c2.22.4,4.39.95,6.56,1.42a52.21,52.21,0,0,0,6.55,1.05,81.29,81.29,0,0,0,13.24.2A58.8,58.8,0,0,0,53,20.2c2.15-.58,4.37-1.15,6.61-1.54a55.73,55.73,0,0,1,6.79-.75A82.32,82.32,0,0,1,80,18.24a56.11,56.11,0,0,1,6.73,1.22C88.91,20,91,20.56,93.18,21a63.91,63.91,0,0,0,13.06,1.15A63.27,63.27,0,0,0,119.3,21c2.14-.43,4.27-1,6.48-1.53a56.11,56.11,0,0,1,6.73-1.22,82.32,82.32,0,0,1,13.59-.32,53.64,53.64,0,0,1,6.78.74c2.25.39,4.46,1,6.62,1.55a58.7,58.7,0,0,0,13,2.28,82.53,82.53,0,0,0,13.25-.19,54,54,0,0,0,6.54-1.06c2.17-.47,4.35-1,6.57-1.42a65.41,65.41,0,0,1,13.39-.93V19a64.51,64.51,0,0,0-13.3,1.24c-2.18.45-4.34,1-6.51,1.57a52.72,52.72,0,0,1-6.59,1.23,81,81,0,0,1-13.4.39,59.79,59.79,0,0,1-13.22-2.13A59.53,59.53,0,0,0,146,19.21a81.67,81.67,0,0,0-13.36.38,54.65,54.65,0,0,0-6.57,1.23c-2.16.52-4.32,1.12-6.51,1.57a64.38,64.38,0,0,1-13.35,1.25A65,65,0,0,1,92.89,22.4c-2.19-.45-4.35-1-6.52-1.58a54.1,54.1,0,0,0-6.56-1.22,80.58,80.58,0,0,0-13.36-.39,59.53,59.53,0,0,0-13.18,2.13,60.38,60.38,0,0,1-13.22,2.13,81,81,0,0,1-13.4-.39,52.72,52.72,0,0,1-6.59-1.23c-2.18-.52-4.33-1.12-6.51-1.57A64.61,64.61,0,0,0,.24,19Z"/><path class="cls-3" d="M.24,24.82a64.75,64.75,0,0,1,13.4.92c2.22.41,4.39,1,6.56,1.43a54.11,54.11,0,0,0,6.55,1A80.17,80.17,0,0,0,40,28.41a58.78,58.78,0,0,0,13-2.28c2.15-.59,4.37-1.16,6.61-1.55a57.75,57.75,0,0,1,6.79-.74A81.24,81.24,0,0,1,80,24.17a56.09,56.09,0,0,1,6.73,1.21c2.21.53,4.34,1.11,6.48,1.54a63.21,63.21,0,0,0,13.06,1.14,62.59,62.59,0,0,0,13.06-1.14c2.14-.43,4.27-1,6.48-1.54a56.09,56.09,0,0,1,6.73-1.21,82.32,82.32,0,0,1,13.59-.33,55.56,55.56,0,0,1,6.78.75c2.25.39,4.46,1,6.62,1.55a59.28,59.28,0,0,0,13,2.28,81.39,81.39,0,0,0,13.25-.2,52.06,52.06,0,0,0,6.54-1c2.17-.47,4.35-1,6.57-1.43a64.7,64.7,0,0,1,13.39-.92V25a65.2,65.2,0,0,0-13.3,1.23c-2.18.45-4.34,1.05-6.51,1.58A54.61,54.61,0,0,1,185.83,29a81,81,0,0,1-13.4.38,59.79,59.79,0,0,1-13.22-2.13A60.1,60.1,0,0,0,146,25.14a81.67,81.67,0,0,0-13.36.38,54.62,54.62,0,0,0-6.57,1.22c-2.16.53-4.32,1.13-6.51,1.58a64.37,64.37,0,0,1-13.35,1.24,64.31,64.31,0,0,1-13.35-1.24c-2.19-.45-4.35-1.05-6.52-1.57a54.13,54.13,0,0,0-6.56-1.23,81.67,81.67,0,0,0-13.36-.38,59.52,59.52,0,0,0-13.18,2.12,59.79,59.79,0,0,1-13.22,2.13A81,81,0,0,1,26.65,29a54.61,54.61,0,0,1-6.59-1.23c-2.18-.53-4.33-1.12-6.51-1.58A65.3,65.3,0,0,0,.24,25Z"/><path class="cls-3" d="M.24,30.75a64.75,64.75,0,0,1,13.4.92c2.22.4,4.39.95,6.56,1.42a54.14,54.14,0,0,0,6.55,1.06A82.42,82.42,0,0,0,40,34.34a59.37,59.37,0,0,0,13-2.28c2.15-.59,4.37-1.16,6.61-1.55a55.7,55.7,0,0,1,6.79-.74A82.32,82.32,0,0,1,80,30.09a56.11,56.11,0,0,1,6.73,1.22c2.21.53,4.34,1.11,6.48,1.54A63.91,63.91,0,0,0,106.24,34a64,64,0,0,0,13.06-1.14c2.14-.43,4.27-1,6.48-1.54a56.11,56.11,0,0,1,6.73-1.22,82.32,82.32,0,0,1,13.59-.32,55.56,55.56,0,0,1,6.78.75c2.25.39,4.46,1,6.62,1.54a58.7,58.7,0,0,0,13,2.28,81.39,81.39,0,0,0,13.25-.19,54,54,0,0,0,6.54-1c2.17-.48,4.35-1,6.57-1.43a64.7,64.7,0,0,1,13.39-.92v.15a64.51,64.51,0,0,0-13.3,1.23c-2.18.45-4.34,1-6.51,1.58a54.58,54.58,0,0,1-6.59,1.22,81,81,0,0,1-13.4.39,59.79,59.79,0,0,1-13.22-2.13A60.12,60.12,0,0,0,146,31.06a80.58,80.58,0,0,0-13.36.39,54.62,54.62,0,0,0-6.57,1.22c-2.16.53-4.32,1.13-6.51,1.58a65.06,65.06,0,0,1-13.35,1.24,65,65,0,0,1-13.35-1.24c-2.19-.45-4.35-1-6.52-1.58a54.1,54.1,0,0,0-6.56-1.22,81.68,81.68,0,0,0-13.36-.39,60.12,60.12,0,0,0-13.18,2.13,59.79,59.79,0,0,1-13.22,2.13,82.13,82.13,0,0,1-13.4-.38,56.63,56.63,0,0,1-6.59-1.23c-2.18-.53-4.33-1.13-6.51-1.58A64.6,64.6,0,0,0,.24,30.9Z"/><path class="cls-3" d="M.24,36.67a64.76,64.76,0,0,1,13.4.93c2.22.4,4.39.95,6.56,1.42a52.21,52.21,0,0,0,6.55,1,81.29,81.29,0,0,0,13.24.2A58.8,58.8,0,0,0,53,38c2.15-.58,4.37-1.15,6.61-1.54a55.73,55.73,0,0,1,6.79-.75A82.32,82.32,0,0,1,80,36a56.11,56.11,0,0,1,6.73,1.22c2.21.52,4.34,1.1,6.48,1.53a63.91,63.91,0,0,0,13.06,1.15,63.27,63.27,0,0,0,13.06-1.15c2.14-.43,4.27-1,6.48-1.53A56.11,56.11,0,0,1,132.51,36a82.32,82.32,0,0,1,13.59-.32,53.64,53.64,0,0,1,6.78.74c2.25.39,4.46,1,6.62,1.55a58.7,58.7,0,0,0,13,2.28,82.53,82.53,0,0,0,13.25-.19A54,54,0,0,0,192.27,39c2.17-.47,4.35-1,6.57-1.42a65.41,65.41,0,0,1,13.39-.93v.15a64.51,64.51,0,0,0-13.3,1.24c-2.18.45-4.34,1-6.51,1.57a52.72,52.72,0,0,1-6.59,1.23,81,81,0,0,1-13.4.39,59.79,59.79,0,0,1-13.22-2.13A59.53,59.53,0,0,0,146,37a80.58,80.58,0,0,0-13.36.39,52.72,52.72,0,0,0-6.57,1.22c-2.16.52-4.32,1.12-6.51,1.57a64.38,64.38,0,0,1-13.35,1.25,65,65,0,0,1-13.35-1.24c-2.19-.45-4.35-1-6.52-1.58a54.1,54.1,0,0,0-6.56-1.22A80.58,80.58,0,0,0,66.45,37a59.53,59.53,0,0,0-13.18,2.13,60.38,60.38,0,0,1-13.22,2.13,81,81,0,0,1-13.4-.39,52.72,52.72,0,0,1-6.59-1.23c-2.18-.52-4.33-1.12-6.51-1.57A64.61,64.61,0,0,0,.24,36.82Z"/><path class="cls-3" d="M.24,42.6a64.75,64.75,0,0,1,13.4.92c2.22.41,4.39,1,6.56,1.43a54.11,54.11,0,0,0,6.55,1A80.17,80.17,0,0,0,40,46.19a58.78,58.78,0,0,0,13-2.28c2.15-.59,4.37-1.16,6.61-1.55a57.75,57.75,0,0,1,6.79-.74A81.24,81.24,0,0,1,80,42a54.2,54.2,0,0,1,6.73,1.22c2.21.52,4.34,1.1,6.48,1.53a63.21,63.21,0,0,0,13.06,1.14A62.59,62.59,0,0,0,119.3,44.7c2.14-.43,4.27-1,6.48-1.54A56.09,56.09,0,0,1,132.51,42a82.32,82.32,0,0,1,13.59-.33,55.56,55.56,0,0,1,6.78.75c2.25.39,4.46,1,6.62,1.55a59.28,59.28,0,0,0,13,2.28A82.53,82.53,0,0,0,185.73,46,54,54,0,0,0,192.27,45c2.17-.47,4.35-1,6.57-1.42a64,64,0,0,1,13.39-.93v.15A65.2,65.2,0,0,0,198.93,44c-2.18.45-4.34,1.05-6.51,1.58a54.61,54.61,0,0,1-6.59,1.23,81,81,0,0,1-13.4.38A59.79,59.79,0,0,1,159.21,45,60.1,60.1,0,0,0,146,42.92a81.67,81.67,0,0,0-13.36.38,54.62,54.62,0,0,0-6.57,1.22c-2.16.53-4.32,1.13-6.51,1.58a64.37,64.37,0,0,1-13.35,1.24A64.31,64.31,0,0,1,92.89,46.1c-2.19-.45-4.35-1.05-6.52-1.57a54.13,54.13,0,0,0-6.56-1.23,81.67,81.67,0,0,0-13.36-.38A59.52,59.52,0,0,0,53.27,45a59.79,59.79,0,0,1-13.22,2.13,81,81,0,0,1-13.4-.38,54.61,54.61,0,0,1-6.59-1.23C17.88,45,15.73,44.44,13.55,44A64.61,64.61,0,0,0,.24,42.75Z"/><path class="cls-3" d="M.24,48.53a64.75,64.75,0,0,1,13.4.92c2.22.4,4.39.95,6.56,1.42a54.14,54.14,0,0,0,6.55,1.06A82.42,82.42,0,0,0,40,52.12a59.37,59.37,0,0,0,13-2.28c2.15-.59,4.37-1.16,6.61-1.55a55.7,55.7,0,0,1,6.79-.74A82.32,82.32,0,0,1,80,47.87a56.11,56.11,0,0,1,6.73,1.22c2.21.53,4.34,1.11,6.48,1.54a63.91,63.91,0,0,0,13.06,1.14,64,64,0,0,0,13.06-1.14c2.14-.43,4.27-1,6.48-1.54a56.11,56.11,0,0,1,6.73-1.22,82.32,82.32,0,0,1,13.59-.32,55.56,55.56,0,0,1,6.78.75c2.25.39,4.46,1,6.62,1.54a58.7,58.7,0,0,0,13,2.28,80.28,80.28,0,0,0,13.25-.19,54,54,0,0,0,6.54-1c2.17-.48,4.35-1,6.57-1.43a64.7,64.7,0,0,1,13.39-.92v.15a64.51,64.51,0,0,0-13.3,1.23c-2.18.45-4.34,1.05-6.51,1.58a54.58,54.58,0,0,1-6.59,1.22,81,81,0,0,1-13.4.39A59.79,59.79,0,0,1,159.21,51,60.12,60.12,0,0,0,146,48.84a80.58,80.58,0,0,0-13.36.39,54.62,54.62,0,0,0-6.57,1.22c-2.16.53-4.32,1.13-6.51,1.58a65.06,65.06,0,0,1-13.35,1.24A65,65,0,0,1,92.89,52c-2.19-.45-4.35-1.05-6.52-1.58a54.1,54.1,0,0,0-6.56-1.22,81.68,81.68,0,0,0-13.36-.39A60.12,60.12,0,0,0,53.27,51,59.79,59.79,0,0,1,40.05,53.1a82.13,82.13,0,0,1-13.4-.38,56.63,56.63,0,0,1-6.59-1.23c-2.18-.53-4.33-1.13-6.51-1.58A64.6,64.6,0,0,0,.24,48.68Z"/><path class="cls-3" d="M.24,54.45a64.76,64.76,0,0,1,13.4.93c2.22.4,4.39.95,6.56,1.42a54.14,54.14,0,0,0,6.55,1.06A82.42,82.42,0,0,0,40,58.05a58.8,58.8,0,0,0,13-2.29c2.15-.58,4.37-1.15,6.61-1.54a55.73,55.73,0,0,1,6.79-.75A83.43,83.43,0,0,1,80,53.8,56.11,56.11,0,0,1,86.7,55c2.21.52,4.34,1.1,6.48,1.53a63.91,63.91,0,0,0,13.06,1.15,63.27,63.27,0,0,0,13.06-1.15c2.14-.43,4.27-1,6.48-1.53a56.11,56.11,0,0,1,6.73-1.22,82.32,82.32,0,0,1,13.59-.32,53.64,53.64,0,0,1,6.78.74c2.25.39,4.46,1,6.62,1.55a58.7,58.7,0,0,0,13,2.28,82.53,82.53,0,0,0,13.25-.19,54,54,0,0,0,6.54-1.06c2.17-.47,4.35-1,6.57-1.42a65.41,65.41,0,0,1,13.39-.93v.15a64.51,64.51,0,0,0-13.3,1.24c-2.18.45-4.34,1-6.51,1.57a52.72,52.72,0,0,1-6.59,1.23,81,81,0,0,1-13.4.39,59.79,59.79,0,0,1-13.22-2.13A59.53,59.53,0,0,0,146,54.77a80.58,80.58,0,0,0-13.36.39,52.72,52.72,0,0,0-6.57,1.22c-2.16.52-4.32,1.12-6.51,1.58a65.06,65.06,0,0,1-13.35,1.24A65,65,0,0,1,92.89,58c-2.19-.45-4.35-1.05-6.52-1.58a54.1,54.1,0,0,0-6.56-1.22,80.58,80.58,0,0,0-13.36-.39A59.53,59.53,0,0,0,53.27,56.9,60.38,60.38,0,0,1,40.05,59a81,81,0,0,1-13.4-.39,52.72,52.72,0,0,1-6.59-1.23c-2.18-.52-4.33-1.12-6.51-1.57A64.61,64.61,0,0,0,.24,54.6Z"/><path class="cls-3" d="M.24,60.38a64.75,64.75,0,0,1,13.4.92c2.22.41,4.39,1,6.56,1.43a54.11,54.11,0,0,0,6.55,1.05A80.17,80.17,0,0,0,40,64a58.78,58.78,0,0,0,13-2.28c2.15-.59,4.37-1.16,6.61-1.55a57.75,57.75,0,0,1,6.79-.74A81.24,81.24,0,0,1,80,59.73,54.2,54.2,0,0,1,86.7,61c2.21.52,4.34,1.1,6.48,1.53a63.21,63.21,0,0,0,13.06,1.14,62.59,62.59,0,0,0,13.06-1.14c2.14-.43,4.27-1,6.48-1.53a54.2,54.2,0,0,1,6.73-1.22,82.32,82.32,0,0,1,13.59-.33,55.56,55.56,0,0,1,6.78.75c2.25.39,4.46,1,6.62,1.55a59.28,59.28,0,0,0,13,2.28,82.53,82.53,0,0,0,13.25-.19,54,54,0,0,0,6.54-1.06c2.17-.47,4.35-1,6.57-1.42a64,64,0,0,1,13.39-.93v.15a65.2,65.2,0,0,0-13.3,1.23c-2.18.46-4.34,1.05-6.51,1.58a54.61,54.61,0,0,1-6.59,1.23,81,81,0,0,1-13.4.38,59.79,59.79,0,0,1-13.22-2.13A60.1,60.1,0,0,0,146,60.7a81.67,81.67,0,0,0-13.36.38,54.62,54.62,0,0,0-6.57,1.22c-2.16.53-4.32,1.13-6.51,1.58a64.37,64.37,0,0,1-13.35,1.24,64.31,64.31,0,0,1-13.35-1.24c-2.19-.45-4.35-1.05-6.52-1.57a54.13,54.13,0,0,0-6.56-1.23,81.67,81.67,0,0,0-13.36-.38,59.52,59.52,0,0,0-13.18,2.12A59.79,59.79,0,0,1,40.05,65a80,80,0,0,1-13.4-.38,54.61,54.61,0,0,1-6.59-1.23c-2.18-.53-4.33-1.12-6.51-1.57A64.61,64.61,0,0,0,.24,60.53Z"/><path class="cls-3" d="M.24,66.31a64.75,64.75,0,0,1,13.4.92c2.22.4,4.39,1,6.56,1.42a54.14,54.14,0,0,0,6.55,1.06A82.42,82.42,0,0,0,40,69.9a59.37,59.37,0,0,0,13-2.28c2.15-.59,4.37-1.16,6.61-1.55a55.7,55.7,0,0,1,6.79-.74A82.32,82.32,0,0,1,80,65.65a56.11,56.11,0,0,1,6.73,1.22c2.21.53,4.34,1.11,6.48,1.54a63.91,63.91,0,0,0,13.06,1.14,64,64,0,0,0,13.06-1.14c2.14-.43,4.27-1,6.48-1.54a56.11,56.11,0,0,1,6.73-1.22,82.32,82.32,0,0,1,13.59-.32,55.56,55.56,0,0,1,6.78.75c2.25.39,4.46,1,6.62,1.54a58.12,58.12,0,0,0,13,2.28,80.28,80.28,0,0,0,13.25-.19,54,54,0,0,0,6.54-1c2.17-.48,4.35-1,6.57-1.43a64.7,64.7,0,0,1,13.39-.92v.15a64.51,64.51,0,0,0-13.3,1.23c-2.18.45-4.34,1-6.51,1.58a54.58,54.58,0,0,1-6.59,1.22,81,81,0,0,1-13.4.39,59.79,59.79,0,0,1-13.22-2.13A59.52,59.52,0,0,0,146,66.63a80.58,80.58,0,0,0-13.36.38,54.62,54.62,0,0,0-6.57,1.22c-2.16.53-4.32,1.13-6.51,1.58a65.06,65.06,0,0,1-13.35,1.24,65,65,0,0,1-13.35-1.24c-2.19-.45-4.35-1-6.52-1.58A54.1,54.1,0,0,0,79.81,67a81.68,81.68,0,0,0-13.36-.39,60.12,60.12,0,0,0-13.18,2.13,59.79,59.79,0,0,1-13.22,2.13,82.13,82.13,0,0,1-13.4-.38,56.63,56.63,0,0,1-6.59-1.23c-2.18-.53-4.33-1.13-6.51-1.58A64.6,64.6,0,0,0,.24,66.46Z"/><path class="cls-3" d="M.24,72.23a64.76,64.76,0,0,1,13.4.93c2.22.4,4.39,1,6.56,1.42a54.14,54.14,0,0,0,6.55,1.06A82.42,82.42,0,0,0,40,75.83a58.8,58.8,0,0,0,13-2.29c2.15-.58,4.37-1.15,6.61-1.54a55.73,55.73,0,0,1,6.79-.75A83.43,83.43,0,0,1,80,71.58,56.11,56.11,0,0,1,86.7,72.8c2.21.52,4.34,1.1,6.48,1.53a63.91,63.91,0,0,0,13.06,1.15,63.27,63.27,0,0,0,13.06-1.15c2.14-.43,4.27-1,6.48-1.53a56.11,56.11,0,0,1,6.73-1.22,82.32,82.32,0,0,1,13.59-.32,53.64,53.64,0,0,1,6.78.74c2.25.39,4.46,1,6.62,1.55a58.7,58.7,0,0,0,13,2.28,82.53,82.53,0,0,0,13.25-.19,54,54,0,0,0,6.54-1.06c2.17-.47,4.35-1,6.57-1.42a65.41,65.41,0,0,1,13.39-.93v.15a64.51,64.51,0,0,0-13.3,1.24c-2.18.45-4.34,1-6.51,1.57a52.72,52.72,0,0,1-6.59,1.23,81,81,0,0,1-13.4.39,59.79,59.79,0,0,1-13.22-2.13A59.53,59.53,0,0,0,146,72.55a80.58,80.58,0,0,0-13.36.39,52.72,52.72,0,0,0-6.57,1.22c-2.16.52-4.32,1.12-6.51,1.58A65.06,65.06,0,0,1,106.24,77a65,65,0,0,1-13.35-1.24c-2.19-.45-4.35-1-6.52-1.58a54.1,54.1,0,0,0-6.56-1.22,80.58,80.58,0,0,0-13.36-.39,59.53,59.53,0,0,0-13.18,2.13,60.38,60.38,0,0,1-13.22,2.13,81,81,0,0,1-13.4-.39,54.58,54.58,0,0,1-6.59-1.22c-2.18-.53-4.33-1.13-6.51-1.58A64.61,64.61,0,0,0,.24,72.38Z"/><path class="cls-3" d="M.24,78.16a64.75,64.75,0,0,1,13.4.92c2.22.41,4.39,1,6.56,1.43a54.11,54.11,0,0,0,6.55,1A80.17,80.17,0,0,0,40,81.75a58.78,58.78,0,0,0,13-2.28c2.15-.59,4.37-1.16,6.61-1.55a57.75,57.75,0,0,1,6.79-.74A81.24,81.24,0,0,1,80,77.51a54.2,54.2,0,0,1,6.73,1.22c2.21.52,4.34,1.1,6.48,1.53a63.21,63.21,0,0,0,13.06,1.14,62.59,62.59,0,0,0,13.06-1.14c2.14-.43,4.27-1,6.48-1.53a54.2,54.2,0,0,1,6.73-1.22,82.32,82.32,0,0,1,13.59-.33,55.56,55.56,0,0,1,6.78.75c2.25.39,4.46,1,6.62,1.55a59.28,59.28,0,0,0,13,2.28,82.53,82.53,0,0,0,13.25-.19,54,54,0,0,0,6.54-1.06c2.17-.47,4.35-1,6.57-1.42a64,64,0,0,1,13.39-.93v.15a64.51,64.51,0,0,0-13.3,1.24c-2.18.45-4.34,1-6.51,1.57a54.61,54.61,0,0,1-6.59,1.23,80,80,0,0,1-13.4.38,59.79,59.79,0,0,1-13.22-2.13A60.1,60.1,0,0,0,146,78.48a81.67,81.67,0,0,0-13.36.38,56.66,56.66,0,0,0-6.57,1.22c-2.16.53-4.32,1.13-6.51,1.58a64.37,64.37,0,0,1-13.35,1.24,64.31,64.31,0,0,1-13.35-1.24c-2.19-.45-4.35-1-6.52-1.57a54.13,54.13,0,0,0-6.56-1.23,81.67,81.67,0,0,0-13.36-.38A60.1,60.1,0,0,0,53.27,80.6a59.79,59.79,0,0,1-13.22,2.13,80,80,0,0,1-13.4-.38,54.61,54.61,0,0,1-6.59-1.23c-2.18-.53-4.33-1.12-6.51-1.57A64.61,64.61,0,0,0,.24,78.31Z"/><path class="cls-3" d="M.24,84.09a64.75,64.75,0,0,1,13.4.92c2.22.4,4.39.95,6.56,1.42a54.14,54.14,0,0,0,6.55,1.06A82.42,82.42,0,0,0,40,87.68,58.78,58.78,0,0,0,53,85.4c2.15-.59,4.37-1.16,6.61-1.55a55.7,55.7,0,0,1,6.79-.74A82.32,82.32,0,0,1,80,83.43a56.11,56.11,0,0,1,6.73,1.22c2.21.53,4.34,1.11,6.48,1.54a63.91,63.91,0,0,0,13.06,1.14,64,64,0,0,0,13.06-1.14c2.14-.43,4.27-1,6.48-1.54a54.18,54.18,0,0,1,6.73-1.21,81.24,81.24,0,0,1,13.59-.33,55.56,55.56,0,0,1,6.78.75c2.25.39,4.46,1,6.62,1.54a58.12,58.12,0,0,0,13,2.28,80.28,80.28,0,0,0,13.25-.19,54,54,0,0,0,6.54-1c2.17-.48,4.35-1,6.57-1.43a64.7,64.7,0,0,1,13.39-.92v.15a64.51,64.51,0,0,0-13.3,1.23c-2.18.45-4.34,1-6.51,1.58a54.58,54.58,0,0,1-6.59,1.22,81,81,0,0,1-13.4.39,59.79,59.79,0,0,1-13.22-2.13A59.52,59.52,0,0,0,146,84.41a80.58,80.58,0,0,0-13.36.38A54.62,54.62,0,0,0,126.1,86c-2.16.53-4.32,1.13-6.51,1.58a65.06,65.06,0,0,1-13.35,1.24,65,65,0,0,1-13.35-1.24c-2.19-.45-4.35-1-6.52-1.58a54.1,54.1,0,0,0-6.56-1.22,80.58,80.58,0,0,0-13.36-.38,59.52,59.52,0,0,0-13.18,2.12,59.79,59.79,0,0,1-13.22,2.13,82.13,82.13,0,0,1-13.4-.38,56.63,56.63,0,0,1-6.59-1.23c-2.18-.53-4.33-1.13-6.51-1.58A64.6,64.6,0,0,0,.24,84.24Z"/><path class="cls-3" d="M.24,90a65.46,65.46,0,0,1,13.4.93c2.22.4,4.39,1,6.56,1.42a54.14,54.14,0,0,0,6.55,1.06A82.42,82.42,0,0,0,40,93.61a58.8,58.8,0,0,0,13-2.29c2.15-.58,4.37-1.15,6.61-1.54A57.78,57.78,0,0,1,66.38,89,83.43,83.43,0,0,1,80,89.36a56.11,56.11,0,0,1,6.73,1.22c2.21.52,4.34,1.1,6.48,1.53a63.91,63.91,0,0,0,13.06,1.15,63.27,63.27,0,0,0,13.06-1.15c2.14-.43,4.27-1,6.48-1.53a56.11,56.11,0,0,1,6.73-1.22A82.32,82.32,0,0,1,146.1,89a55.54,55.54,0,0,1,6.78.74c2.25.39,4.46,1,6.62,1.55a58.7,58.7,0,0,0,13,2.28,82.53,82.53,0,0,0,13.25-.19,54,54,0,0,0,6.54-1.06c2.17-.47,4.35-1,6.57-1.42A65.41,65.41,0,0,1,212.23,90v.15a64.51,64.51,0,0,0-13.3,1.24c-2.18.45-4.34,1-6.51,1.57a52.72,52.72,0,0,1-6.59,1.23,81,81,0,0,1-13.4.39,59.79,59.79,0,0,1-13.22-2.13A59.53,59.53,0,0,0,146,90.33a80.58,80.58,0,0,0-13.36.39,52.72,52.72,0,0,0-6.57,1.22c-2.16.52-4.32,1.12-6.51,1.58a65.06,65.06,0,0,1-13.35,1.24,65,65,0,0,1-13.35-1.24c-2.19-.45-4.35-1-6.52-1.58a54.1,54.1,0,0,0-6.56-1.22,80.58,80.58,0,0,0-13.36-.39,59.53,59.53,0,0,0-13.18,2.13,60.38,60.38,0,0,1-13.22,2.13,81,81,0,0,1-13.4-.39A54.58,54.58,0,0,1,20.06,93c-2.18-.53-4.33-1.13-6.51-1.58A64.61,64.61,0,0,0,.24,90.16Z"/><path class="cls-3" d="M.24,95.94a64.75,64.75,0,0,1,13.4.92c2.22.41,4.39,1,6.56,1.43a52.21,52.21,0,0,0,6.55,1A80.17,80.17,0,0,0,40,99.53a58.78,58.78,0,0,0,13-2.28c2.15-.59,4.37-1.16,6.61-1.55A57.75,57.75,0,0,1,66.38,95,81.24,81.24,0,0,1,80,95.29a54.2,54.2,0,0,1,6.73,1.22C88.91,97,91,97.61,93.18,98a63.21,63.21,0,0,0,13.06,1.14A62.59,62.59,0,0,0,119.3,98c2.14-.43,4.27-1,6.48-1.53a54.2,54.2,0,0,1,6.73-1.22A82.32,82.32,0,0,1,146.1,95a55.56,55.56,0,0,1,6.78.75c2.25.39,4.46,1,6.62,1.55a59.28,59.28,0,0,0,13,2.28,82.53,82.53,0,0,0,13.25-.19,54,54,0,0,0,6.54-1.06c2.17-.47,4.35-1,6.57-1.42a64,64,0,0,1,13.39-.93v.15a64.51,64.51,0,0,0-13.3,1.24c-2.18.45-4.34,1-6.51,1.57a54.61,54.61,0,0,1-6.59,1.23,81,81,0,0,1-13.4.39,60.39,60.39,0,0,1-13.22-2.14A60.1,60.1,0,0,0,146,96.26a81.67,81.67,0,0,0-13.36.38,56.66,56.66,0,0,0-6.57,1.22c-2.16.53-4.32,1.13-6.51,1.58a64.37,64.37,0,0,1-13.35,1.24,64.31,64.31,0,0,1-13.35-1.24c-2.19-.45-4.35-1-6.52-1.57a54.13,54.13,0,0,0-6.56-1.23,81.67,81.67,0,0,0-13.36-.38,60.1,60.1,0,0,0-13.18,2.12,59.79,59.79,0,0,1-13.22,2.13,80,80,0,0,1-13.4-.38,54.61,54.61,0,0,1-6.59-1.23c-2.18-.52-4.33-1.12-6.51-1.57A64.61,64.61,0,0,0,.24,96.09Z"/><path class="cls-3" d="M.24,101.87a64.75,64.75,0,0,1,13.4.92c2.22.4,4.39.95,6.56,1.42a54.14,54.14,0,0,0,6.55,1.06,82.42,82.42,0,0,0,13.24.19,58.78,58.78,0,0,0,13-2.28c2.15-.59,4.37-1.16,6.61-1.55a55.7,55.7,0,0,1,6.79-.74,82.32,82.32,0,0,1,13.59.32,56.11,56.11,0,0,1,6.73,1.22c2.21.53,4.34,1.11,6.48,1.54a63.91,63.91,0,0,0,13.06,1.14A64,64,0,0,0,119.3,104c2.14-.43,4.27-1,6.48-1.54a54.18,54.18,0,0,1,6.73-1.21,81.24,81.24,0,0,1,13.59-.33,55.56,55.56,0,0,1,6.78.75c2.25.39,4.46,1,6.62,1.54a58.12,58.12,0,0,0,13,2.28,80.28,80.28,0,0,0,13.25-.19,54,54,0,0,0,6.54-1c2.17-.47,4.35-1,6.57-1.43a64.7,64.7,0,0,1,13.39-.92V102a64.51,64.51,0,0,0-13.3,1.23c-2.18.45-4.34,1-6.51,1.58a56.63,56.63,0,0,1-6.59,1.23,82.13,82.13,0,0,1-13.4.38,59.79,59.79,0,0,1-13.22-2.13A59.52,59.52,0,0,0,146,102.19a80.58,80.58,0,0,0-13.36.38,54.62,54.62,0,0,0-6.57,1.22c-2.16.53-4.32,1.13-6.51,1.58a65.06,65.06,0,0,1-13.35,1.24,65,65,0,0,1-13.35-1.24c-2.19-.45-4.35-1.05-6.52-1.58a54.1,54.1,0,0,0-6.56-1.22,80.58,80.58,0,0,0-13.36-.38,59.52,59.52,0,0,0-13.18,2.12,59.79,59.79,0,0,1-13.22,2.13,82.13,82.13,0,0,1-13.4-.38,56.63,56.63,0,0,1-6.59-1.23c-2.18-.53-4.33-1.13-6.51-1.58A64.6,64.6,0,0,0,.24,102Z"/><path class="cls-3" d="M.24,107.79a65.46,65.46,0,0,1,13.4.93c2.22.4,4.39,1,6.56,1.42a54.14,54.14,0,0,0,6.55,1.06,82.42,82.42,0,0,0,13.24.19,58.8,58.8,0,0,0,13-2.29c2.15-.58,4.37-1.15,6.61-1.54a57.78,57.78,0,0,1,6.79-.75,83.43,83.43,0,0,1,13.59.33,56.11,56.11,0,0,1,6.73,1.22c2.21.52,4.34,1.1,6.48,1.53A63.91,63.91,0,0,0,106.24,111a63.27,63.27,0,0,0,13.06-1.15c2.14-.43,4.27-1,6.48-1.53a56.11,56.11,0,0,1,6.73-1.22,82.32,82.32,0,0,1,13.59-.32,55.54,55.54,0,0,1,6.78.74c2.25.39,4.46,1,6.62,1.55a58.7,58.7,0,0,0,13,2.28,82.53,82.53,0,0,0,13.25-.19,54,54,0,0,0,6.54-1.06c2.17-.47,4.35-1,6.57-1.42a65.41,65.41,0,0,1,13.39-.93v.15a64.51,64.51,0,0,0-13.3,1.24c-2.18.45-4.34,1-6.51,1.57a52.72,52.72,0,0,1-6.59,1.23,81,81,0,0,1-13.4.39,59.79,59.79,0,0,1-13.22-2.13A59.53,59.53,0,0,0,146,108.11a80.58,80.58,0,0,0-13.36.39,52.72,52.72,0,0,0-6.57,1.22c-2.16.52-4.32,1.12-6.51,1.58a65.06,65.06,0,0,1-13.35,1.24,65,65,0,0,1-13.35-1.24c-2.19-.45-4.35-1-6.52-1.58a54.1,54.1,0,0,0-6.56-1.22,80.58,80.58,0,0,0-13.36-.39,59.53,59.53,0,0,0-13.18,2.13,60.38,60.38,0,0,1-13.22,2.13,81,81,0,0,1-13.4-.39,54.58,54.58,0,0,1-6.59-1.22c-2.18-.53-4.33-1.13-6.51-1.58A64.61,64.61,0,0,0,.24,107.94Z"/><path class="cls-3" d="M.24,113.72a64.75,64.75,0,0,1,13.4.92c2.22.41,4.39,1,6.56,1.43a52.21,52.21,0,0,0,6.55,1.05,80.17,80.17,0,0,0,13.24.19A58.78,58.78,0,0,0,53,115c2.15-.59,4.37-1.16,6.61-1.55a57.75,57.75,0,0,1,6.79-.74,81.24,81.24,0,0,1,13.59.33,54.2,54.2,0,0,1,6.73,1.22c2.21.52,4.34,1.1,6.48,1.53A63.21,63.21,0,0,0,106.24,117a62.59,62.59,0,0,0,13.06-1.14c2.14-.43,4.27-1,6.48-1.53a54.2,54.2,0,0,1,6.73-1.22,82.32,82.32,0,0,1,13.59-.33,55.56,55.56,0,0,1,6.78.75c2.25.39,4.46,1,6.62,1.55a59.28,59.28,0,0,0,13,2.28,82.53,82.53,0,0,0,13.25-.19,54,54,0,0,0,6.54-1.06c2.17-.47,4.35-1,6.57-1.42a64,64,0,0,1,13.39-.93v.15a64.51,64.51,0,0,0-13.3,1.24c-2.18.45-4.34,1-6.51,1.57a54.61,54.61,0,0,1-6.59,1.23,81,81,0,0,1-13.4.39,60.39,60.39,0,0,1-13.22-2.14A60.1,60.1,0,0,0,146,114a81.67,81.67,0,0,0-13.36.38,56.66,56.66,0,0,0-6.57,1.22c-2.16.53-4.32,1.13-6.51,1.58a64.37,64.37,0,0,1-13.35,1.24,64.3,64.3,0,0,1-13.35-1.23c-2.19-.46-4.35-1.06-6.52-1.58a54.13,54.13,0,0,0-6.56-1.23A81.67,81.67,0,0,0,66.45,114a60.1,60.1,0,0,0-13.18,2.12,60.39,60.39,0,0,1-13.22,2.14,81,81,0,0,1-13.4-.39,52.72,52.72,0,0,1-6.59-1.23c-2.18-.52-4.33-1.12-6.51-1.57A64.61,64.61,0,0,0,.24,113.87Z"/><path class="cls-3" d="M.24,119.65a64.75,64.75,0,0,1,13.4.92c2.22.4,4.39,1,6.56,1.42a54.14,54.14,0,0,0,6.55,1.06,81.28,81.28,0,0,0,13.24.19A58.78,58.78,0,0,0,53,121c2.15-.59,4.37-1.16,6.61-1.55a55.7,55.7,0,0,1,6.79-.74A82.32,82.32,0,0,1,80,119a56.11,56.11,0,0,1,6.73,1.22c2.21.53,4.34,1.11,6.48,1.54a63.91,63.91,0,0,0,13.06,1.14,64,64,0,0,0,13.06-1.14c2.14-.43,4.27-1,6.48-1.54a54.18,54.18,0,0,1,6.73-1.21,81.24,81.24,0,0,1,13.59-.33,55.56,55.56,0,0,1,6.78.75c2.25.39,4.46,1,6.62,1.54a58.12,58.12,0,0,0,13,2.28,80.28,80.28,0,0,0,13.25-.19,54,54,0,0,0,6.54-1c2.17-.47,4.35-1,6.57-1.43a64.7,64.7,0,0,1,13.39-.92v.15a64.51,64.51,0,0,0-13.3,1.23c-2.18.45-4.34,1-6.51,1.58a56.63,56.63,0,0,1-6.59,1.23,82.13,82.13,0,0,1-13.4.38,59.79,59.79,0,0,1-13.22-2.13A59.52,59.52,0,0,0,146,120a80.58,80.58,0,0,0-13.36.38,54.62,54.62,0,0,0-6.57,1.22c-2.16.53-4.32,1.13-6.51,1.58a65.06,65.06,0,0,1-13.35,1.24,65,65,0,0,1-13.35-1.24c-2.19-.45-4.35-1.05-6.52-1.58a54.1,54.1,0,0,0-6.56-1.22A80.58,80.58,0,0,0,66.45,120a59.52,59.52,0,0,0-13.18,2.12,59.79,59.79,0,0,1-13.22,2.13,82.13,82.13,0,0,1-13.4-.38,56.63,56.63,0,0,1-6.59-1.23c-2.18-.53-4.33-1.13-6.51-1.58A64.6,64.6,0,0,0,.24,119.8Z"/><path class="cls-3" d="M.24,125.57a65.46,65.46,0,0,1,13.4.93c2.22.4,4.39,1,6.56,1.42A54.14,54.14,0,0,0,26.75,129a82.42,82.42,0,0,0,13.24.19,58.8,58.8,0,0,0,13-2.29c2.15-.58,4.37-1.15,6.61-1.54a57.78,57.78,0,0,1,6.79-.75,83.43,83.43,0,0,1,13.59.33,56.11,56.11,0,0,1,6.73,1.22c2.21.52,4.34,1.11,6.48,1.53a63.21,63.21,0,0,0,13.06,1.15,63.27,63.27,0,0,0,13.06-1.15c2.14-.42,4.27-1,6.48-1.53a56.11,56.11,0,0,1,6.73-1.22,82.32,82.32,0,0,1,13.59-.32,55.54,55.54,0,0,1,6.78.74c2.25.39,4.46,1,6.62,1.55a58.7,58.7,0,0,0,13,2.28,82.53,82.53,0,0,0,13.25-.19,54,54,0,0,0,6.54-1.06c2.17-.47,4.35-1,6.57-1.42a65.41,65.41,0,0,1,13.39-.93v.15a64.51,64.51,0,0,0-13.3,1.24c-2.18.45-4.34,1-6.51,1.58a54.58,54.58,0,0,1-6.59,1.22,81,81,0,0,1-13.4.39A59.79,59.79,0,0,1,159.21,128,59.53,59.53,0,0,0,146,125.89a80.58,80.58,0,0,0-13.36.39,52.72,52.72,0,0,0-6.57,1.22c-2.16.52-4.32,1.12-6.51,1.58a65.06,65.06,0,0,1-13.35,1.24,65,65,0,0,1-13.35-1.24c-2.19-.45-4.35-1.05-6.52-1.58a54.1,54.1,0,0,0-6.56-1.22,80.58,80.58,0,0,0-13.36-.39A59.53,59.53,0,0,0,53.27,128a60.38,60.38,0,0,1-13.22,2.13,81,81,0,0,1-13.4-.39,54.58,54.58,0,0,1-6.59-1.22c-2.18-.53-4.33-1.13-6.51-1.58A64.61,64.61,0,0,0,.24,125.72Z"/><path class="cls-3" d="M.24,131.5a64.75,64.75,0,0,1,13.4.92c2.22.41,4.39,1,6.56,1.43a52.21,52.21,0,0,0,6.55,1.05,80.17,80.17,0,0,0,13.24.19,58.78,58.78,0,0,0,13-2.28c2.15-.59,4.37-1.16,6.61-1.55a57.75,57.75,0,0,1,6.79-.74,81.24,81.24,0,0,1,13.59.33,54.2,54.2,0,0,1,6.73,1.22c2.21.52,4.34,1.1,6.48,1.53a63.91,63.91,0,0,0,13.06,1.15,63.27,63.27,0,0,0,13.06-1.15c2.14-.43,4.27-1,6.48-1.53a56.11,56.11,0,0,1,6.73-1.22,82.32,82.32,0,0,1,13.59-.33,55.56,55.56,0,0,1,6.78.75c2.25.39,4.46,1,6.62,1.55a59.28,59.28,0,0,0,13,2.28,82.53,82.53,0,0,0,13.25-.19,54,54,0,0,0,6.54-1.06c2.17-.47,4.35-1,6.57-1.42a64,64,0,0,1,13.39-.93v.15a64.51,64.51,0,0,0-13.3,1.24c-2.18.45-4.34,1-6.51,1.57a54.61,54.61,0,0,1-6.59,1.23,81,81,0,0,1-13.4.39A61,61,0,0,1,159.21,134,59.53,59.53,0,0,0,146,131.82a81.67,81.67,0,0,0-13.36.38,56.66,56.66,0,0,0-6.57,1.22c-2.16.53-4.32,1.13-6.51,1.58a64.37,64.37,0,0,1-13.35,1.24A64.3,64.3,0,0,1,92.89,135c-2.19-.46-4.35-1.06-6.52-1.58a54.13,54.13,0,0,0-6.56-1.23,81.67,81.67,0,0,0-13.36-.38,60.1,60.1,0,0,0-13.18,2.12,60.39,60.39,0,0,1-13.22,2.14,81,81,0,0,1-13.4-.39,52.72,52.72,0,0,1-6.59-1.23c-2.18-.52-4.33-1.12-6.51-1.57A64.61,64.61,0,0,0,.24,131.65Z"/><path class="cls-3" d="M.24,137.43a64.75,64.75,0,0,1,13.4.92c2.22.4,4.39,1,6.56,1.42a54.14,54.14,0,0,0,6.55,1.06A81.28,81.28,0,0,0,40,141a58.78,58.78,0,0,0,13-2.28c2.15-.59,4.37-1.16,6.61-1.55a55.7,55.7,0,0,1,6.79-.74,82.32,82.32,0,0,1,13.59.32A56.11,56.11,0,0,1,86.7,138c2.21.53,4.34,1.11,6.48,1.54a63.91,63.91,0,0,0,13.06,1.14,64,64,0,0,0,13.06-1.14c2.14-.43,4.27-1,6.48-1.54a54.18,54.18,0,0,1,6.73-1.21,81.24,81.24,0,0,1,13.59-.33,55.56,55.56,0,0,1,6.78.75c2.25.39,4.46,1,6.62,1.54a58.12,58.12,0,0,0,13,2.28,80.28,80.28,0,0,0,13.25-.19,52.06,52.06,0,0,0,6.54-1.05c2.17-.47,4.35-1,6.57-1.43a64.7,64.7,0,0,1,13.39-.92v.15a64.51,64.51,0,0,0-13.3,1.23c-2.18.45-4.34,1.05-6.51,1.58a56.63,56.63,0,0,1-6.59,1.23,82.13,82.13,0,0,1-13.4.38,59.79,59.79,0,0,1-13.22-2.13A59.52,59.52,0,0,0,146,137.75a80.58,80.58,0,0,0-13.36.38,54.62,54.62,0,0,0-6.57,1.22c-2.16.53-4.32,1.13-6.51,1.58a65.06,65.06,0,0,1-13.35,1.24,65,65,0,0,1-13.35-1.24c-2.19-.45-4.35-1.05-6.52-1.58a56.1,56.1,0,0,0-6.56-1.22,80.58,80.58,0,0,0-13.36-.38,59.52,59.52,0,0,0-13.18,2.12A59.79,59.79,0,0,1,40.05,142a82.13,82.13,0,0,1-13.4-.38,56.63,56.63,0,0,1-6.59-1.23c-2.18-.53-4.33-1.13-6.51-1.58A64.6,64.6,0,0,0,.24,137.58Z"/><path class="cls-3" d="M.24,143.35a65.46,65.46,0,0,1,13.4.93c2.22.4,4.39.95,6.56,1.42a54.14,54.14,0,0,0,6.55,1.06A82.42,82.42,0,0,0,40,147a58.8,58.8,0,0,0,13-2.29c2.15-.58,4.37-1.15,6.61-1.54a57.78,57.78,0,0,1,6.79-.75A83.43,83.43,0,0,1,80,142.7a56.11,56.11,0,0,1,6.73,1.22c2.21.52,4.34,1.11,6.48,1.53a63.21,63.21,0,0,0,13.06,1.15,64,64,0,0,0,13.06-1.14c2.14-.43,4.27-1,6.48-1.54a56.11,56.11,0,0,1,6.73-1.22,82.32,82.32,0,0,1,13.59-.32,57.59,57.59,0,0,1,6.78.74c2.25.39,4.46,1,6.62,1.55a58.7,58.7,0,0,0,13,2.28,81.39,81.39,0,0,0,13.25-.19,54,54,0,0,0,6.54-1.06c2.17-.47,4.35-1,6.57-1.42a65.41,65.41,0,0,1,13.39-.93v.15a64.51,64.51,0,0,0-13.3,1.24c-2.18.45-4.34,1-6.51,1.58a54.58,54.58,0,0,1-6.59,1.22,81,81,0,0,1-13.4.39,59.79,59.79,0,0,1-13.22-2.13A59.53,59.53,0,0,0,146,143.67a80.58,80.58,0,0,0-13.36.39,52.72,52.72,0,0,0-6.57,1.22c-2.16.52-4.32,1.12-6.51,1.58a65.06,65.06,0,0,1-13.35,1.24,65,65,0,0,1-13.35-1.24c-2.19-.45-4.35-1.05-6.52-1.58a54.1,54.1,0,0,0-6.56-1.22,80.58,80.58,0,0,0-13.36-.39,59.53,59.53,0,0,0-13.18,2.13,60.38,60.38,0,0,1-13.22,2.13,81,81,0,0,1-13.4-.39,54.58,54.58,0,0,1-6.59-1.22c-2.18-.53-4.33-1.13-6.51-1.58A64.61,64.61,0,0,0,.24,143.5Z"/><path class="cls-3" d="M.24,149.28a64.75,64.75,0,0,1,13.4.92c2.22.41,4.39,1,6.56,1.43a52.21,52.21,0,0,0,6.55,1.05,80.17,80.17,0,0,0,13.24.19,58.78,58.78,0,0,0,13-2.28c2.15-.59,4.37-1.16,6.61-1.55a57.75,57.75,0,0,1,6.79-.74,81.24,81.24,0,0,1,13.59.33,54.2,54.2,0,0,1,6.73,1.22c2.21.52,4.34,1.1,6.48,1.53a63.91,63.91,0,0,0,13.06,1.15,63.27,63.27,0,0,0,13.06-1.15c2.14-.43,4.27-1,6.48-1.53a56.11,56.11,0,0,1,6.73-1.22,83.43,83.43,0,0,1,13.59-.33,55.56,55.56,0,0,1,6.78.75c2.25.39,4.46,1,6.62,1.55a59.28,59.28,0,0,0,13,2.28,82.53,82.53,0,0,0,13.25-.19,54,54,0,0,0,6.54-1.06c2.17-.47,4.35-1,6.57-1.42a64,64,0,0,1,13.39-.93v.15a64.51,64.51,0,0,0-13.3,1.24c-2.18.45-4.34,1-6.51,1.57a54.61,54.61,0,0,1-6.59,1.23,81,81,0,0,1-13.4.39,60.38,60.38,0,0,1-13.22-2.13A59.53,59.53,0,0,0,146,149.6a81.67,81.67,0,0,0-13.36.38,54.65,54.65,0,0,0-6.57,1.23c-2.16.52-4.32,1.12-6.51,1.57A64.37,64.37,0,0,1,106.24,154a64.3,64.3,0,0,1-13.35-1.23c-2.19-.46-4.35-1.06-6.52-1.58A54.13,54.13,0,0,0,79.81,150a81.67,81.67,0,0,0-13.36-.38,60.1,60.1,0,0,0-13.18,2.12,59.8,59.8,0,0,1-13.22,2.14,81,81,0,0,1-13.4-.39,52.72,52.72,0,0,1-6.59-1.23c-2.18-.52-4.33-1.12-6.51-1.57A64.61,64.61,0,0,0,.24,149.43Z"/><path class="cls-3" d="M.24,155.21a64.75,64.75,0,0,1,13.4.92c2.22.4,4.39,1,6.56,1.43a56.15,56.15,0,0,0,6.55,1.05A81.28,81.28,0,0,0,40,158.8a58.78,58.78,0,0,0,13-2.28c2.15-.59,4.37-1.16,6.61-1.55a55.7,55.7,0,0,1,6.79-.74,81.24,81.24,0,0,1,13.59.33,54.18,54.18,0,0,1,6.73,1.21c2.21.53,4.34,1.11,6.48,1.54a63.91,63.91,0,0,0,13.06,1.14,63.27,63.27,0,0,0,13.06-1.14c2.14-.43,4.27-1,6.48-1.54a54.18,54.18,0,0,1,6.73-1.21,81.24,81.24,0,0,1,13.59-.33,55.56,55.56,0,0,1,6.78.75c2.25.39,4.46,1,6.62,1.54a58.12,58.12,0,0,0,13,2.28,80.28,80.28,0,0,0,13.25-.19,52.06,52.06,0,0,0,6.54-1.05c2.17-.47,4.35-1,6.57-1.43a64.7,64.7,0,0,1,13.39-.92v.15a64.51,64.51,0,0,0-13.3,1.23c-2.18.45-4.34,1-6.51,1.58a56.63,56.63,0,0,1-6.59,1.23,82.13,82.13,0,0,1-13.4.38,59.79,59.79,0,0,1-13.22-2.13A60.1,60.1,0,0,0,146,155.53a80.58,80.58,0,0,0-13.36.38,54.62,54.62,0,0,0-6.57,1.22c-2.16.53-4.32,1.13-6.51,1.58A65.06,65.06,0,0,1,106.24,160a65,65,0,0,1-13.35-1.24c-2.19-.45-4.35-1.05-6.52-1.58a56.1,56.1,0,0,0-6.56-1.22,80.58,80.58,0,0,0-13.36-.38,59.52,59.52,0,0,0-13.18,2.12,59.79,59.79,0,0,1-13.22,2.13,81,81,0,0,1-13.4-.38,56.63,56.63,0,0,1-6.59-1.23c-2.18-.53-4.33-1.13-6.51-1.58A64.6,64.6,0,0,0,.24,155.36Z"/><path class="cls-3" d="M.24,161.14a64.75,64.75,0,0,1,13.4.92c2.22.4,4.39.95,6.56,1.42a54.14,54.14,0,0,0,6.55,1.06,82.42,82.42,0,0,0,13.24.19,58.8,58.8,0,0,0,13-2.29c2.15-.58,4.37-1.15,6.61-1.54a55.7,55.7,0,0,1,6.79-.74,82.32,82.32,0,0,1,13.59.32,56.11,56.11,0,0,1,6.73,1.22c2.21.52,4.34,1.11,6.48,1.53a63.21,63.21,0,0,0,13.06,1.15,64,64,0,0,0,13.06-1.14c2.14-.43,4.27-1,6.48-1.54a56.11,56.11,0,0,1,6.73-1.22,82.32,82.32,0,0,1,13.59-.32,57.59,57.59,0,0,1,6.78.74c2.25.39,4.46,1,6.62,1.55a58.7,58.7,0,0,0,13,2.28,81.39,81.39,0,0,0,13.25-.19,54,54,0,0,0,6.54-1.06c2.17-.47,4.35-1,6.57-1.42a64.7,64.7,0,0,1,13.39-.92v.15a63.82,63.82,0,0,0-13.3,1.23c-2.18.45-4.34,1-6.51,1.58a54.58,54.58,0,0,1-6.59,1.22,81,81,0,0,1-13.4.39,59.79,59.79,0,0,1-13.22-2.13A59.53,59.53,0,0,0,146,161.45a80.58,80.58,0,0,0-13.36.39,52.72,52.72,0,0,0-6.57,1.22c-2.16.52-4.32,1.12-6.51,1.58a65.06,65.06,0,0,1-13.35,1.24,65,65,0,0,1-13.35-1.24c-2.19-.45-4.35-1-6.52-1.58a54.1,54.1,0,0,0-6.56-1.22,80.58,80.58,0,0,0-13.36-.39,59.53,59.53,0,0,0-13.18,2.13,59.79,59.79,0,0,1-13.22,2.13,81,81,0,0,1-13.4-.39,54.58,54.58,0,0,1-6.59-1.22c-2.18-.53-4.33-1.13-6.51-1.58A63.92,63.92,0,0,0,.24,161.29Z"/><path class="cls-3" d="M.24,167.06a64.07,64.07,0,0,1,13.4.93c2.22.4,4.39.95,6.56,1.42a52.21,52.21,0,0,0,6.55,1.05,80.17,80.17,0,0,0,13.24.19,58.78,58.78,0,0,0,13-2.28c2.15-.59,4.37-1.16,6.61-1.55a57.75,57.75,0,0,1,6.79-.74,82.32,82.32,0,0,1,13.59.33,56.11,56.11,0,0,1,6.73,1.22c2.21.52,4.34,1.1,6.48,1.53a63.91,63.91,0,0,0,13.06,1.15,63.27,63.27,0,0,0,13.06-1.15c2.14-.43,4.27-1,6.48-1.53a56.11,56.11,0,0,1,6.73-1.22,83.43,83.43,0,0,1,13.59-.33,55.56,55.56,0,0,1,6.78.75c2.25.39,4.46,1,6.62,1.55a59.28,59.28,0,0,0,13,2.28,82.53,82.53,0,0,0,13.25-.19,54,54,0,0,0,6.54-1.06c2.17-.47,4.35-1,6.57-1.42a64.71,64.71,0,0,1,13.39-.93v.15a64.51,64.51,0,0,0-13.3,1.24c-2.18.45-4.34,1.05-6.51,1.57a52.72,52.72,0,0,1-6.59,1.23,81,81,0,0,1-13.4.39,60.38,60.38,0,0,1-13.22-2.13A59.53,59.53,0,0,0,146,167.38a81.67,81.67,0,0,0-13.36.38A54.65,54.65,0,0,0,126.1,169c-2.16.52-4.32,1.12-6.51,1.57a64.37,64.37,0,0,1-13.35,1.24,64.3,64.3,0,0,1-13.35-1.23c-2.19-.46-4.35-1.06-6.52-1.58a52.23,52.23,0,0,0-6.56-1.22,80.58,80.58,0,0,0-13.36-.39,60.1,60.1,0,0,0-13.18,2.12,59.8,59.8,0,0,1-13.22,2.14,81,81,0,0,1-13.4-.39A52.72,52.72,0,0,1,20.06,170c-2.18-.52-4.33-1.12-6.51-1.57A64.61,64.61,0,0,0,.24,167.21Z"/><path class="cls-3" d="M.24,173a64.75,64.75,0,0,1,13.4.92c2.22.4,4.39,1,6.56,1.43a54.11,54.11,0,0,0,6.55,1,80.17,80.17,0,0,0,13.24.19,58.78,58.78,0,0,0,13-2.28c2.15-.59,4.37-1.16,6.61-1.55a57.75,57.75,0,0,1,6.79-.74,81.24,81.24,0,0,1,13.59.33,54.18,54.18,0,0,1,6.73,1.21c2.21.53,4.34,1.11,6.48,1.54a63.91,63.91,0,0,0,13.06,1.14,63.27,63.27,0,0,0,13.06-1.14c2.14-.43,4.27-1,6.48-1.54a54.18,54.18,0,0,1,6.73-1.21A81.24,81.24,0,0,1,146.1,172a55.56,55.56,0,0,1,6.78.75c2.25.39,4.46,1,6.62,1.54a58.12,58.12,0,0,0,13,2.28,80.28,80.28,0,0,0,13.25-.19,52.06,52.06,0,0,0,6.54-1c2.17-.47,4.35-1,6.57-1.43a64.7,64.7,0,0,1,13.39-.92v.15a64.51,64.51,0,0,0-13.3,1.23c-2.18.45-4.34,1-6.51,1.58a56.63,56.63,0,0,1-6.59,1.23,81,81,0,0,1-13.4.38,59.79,59.79,0,0,1-13.22-2.13A60.1,60.1,0,0,0,146,173.31a80.58,80.58,0,0,0-13.36.38,54.62,54.62,0,0,0-6.57,1.22c-2.16.53-4.32,1.13-6.51,1.58a65.06,65.06,0,0,1-13.35,1.24,65,65,0,0,1-13.35-1.24c-2.19-.45-4.35-1.05-6.52-1.58a56.1,56.1,0,0,0-6.56-1.22,80.58,80.58,0,0,0-13.36-.38,59.52,59.52,0,0,0-13.18,2.12,59.79,59.79,0,0,1-13.22,2.13,81,81,0,0,1-13.4-.38A54.61,54.61,0,0,1,20.06,176c-2.18-.53-4.33-1.13-6.51-1.58A64.6,64.6,0,0,0,.24,173.14Z"/><path class="cls-3" d="M.24,178.92a64.75,64.75,0,0,1,13.4.92c2.22.4,4.39.95,6.56,1.42a54.14,54.14,0,0,0,6.55,1.06,82.42,82.42,0,0,0,13.24.19,59.37,59.37,0,0,0,13-2.28c2.15-.59,4.37-1.16,6.61-1.55a55.7,55.7,0,0,1,6.79-.74,82.32,82.32,0,0,1,13.59.32,56.11,56.11,0,0,1,6.73,1.22c2.21.52,4.34,1.11,6.48,1.54a63.91,63.91,0,0,0,13.06,1.14A64,64,0,0,0,119.3,181c2.14-.43,4.27-1,6.48-1.54a56.11,56.11,0,0,1,6.73-1.22,82.32,82.32,0,0,1,13.59-.32,57.59,57.59,0,0,1,6.78.74c2.25.39,4.46,1,6.62,1.55a58.7,58.7,0,0,0,13,2.28,81.39,81.39,0,0,0,13.25-.19,54,54,0,0,0,6.54-1.06c2.17-.47,4.35-1,6.57-1.42a64.7,64.7,0,0,1,13.39-.92v.15a63.82,63.82,0,0,0-13.3,1.23c-2.18.45-4.34,1-6.51,1.58a54.58,54.58,0,0,1-6.59,1.22,81,81,0,0,1-13.4.39,59.79,59.79,0,0,1-13.22-2.13A59.53,59.53,0,0,0,146,179.23a80.58,80.58,0,0,0-13.36.39,54.62,54.62,0,0,0-6.57,1.22c-2.16.52-4.32,1.12-6.51,1.58a65.06,65.06,0,0,1-13.35,1.24,65,65,0,0,1-13.35-1.24c-2.19-.45-4.35-1-6.52-1.58a54.1,54.1,0,0,0-6.56-1.22,80.58,80.58,0,0,0-13.36-.39,59.53,59.53,0,0,0-13.18,2.13,59.79,59.79,0,0,1-13.22,2.13,81,81,0,0,1-13.4-.39,54.58,54.58,0,0,1-6.59-1.22c-2.18-.53-4.33-1.13-6.51-1.58A64.6,64.6,0,0,0,.24,179.07Z"/><path class="cls-3" d="M.24,184.84a64.07,64.07,0,0,1,13.4.93c2.22.4,4.39.95,6.56,1.42a52.21,52.21,0,0,0,6.55,1.05,80.17,80.17,0,0,0,13.24.19,58.78,58.78,0,0,0,13-2.28c2.15-.59,4.37-1.16,6.61-1.55a57.75,57.75,0,0,1,6.79-.74,82.32,82.32,0,0,1,13.59.33,56.11,56.11,0,0,1,6.73,1.22c2.21.52,4.34,1.1,6.48,1.53a63.91,63.91,0,0,0,13.06,1.15,63.27,63.27,0,0,0,13.06-1.15c2.14-.43,4.27-1,6.48-1.53a56.11,56.11,0,0,1,6.73-1.22,83.43,83.43,0,0,1,13.59-.33,55.56,55.56,0,0,1,6.78.75c2.25.39,4.46,1,6.62,1.55a59.28,59.28,0,0,0,13,2.28,82.53,82.53,0,0,0,13.25-.19,54,54,0,0,0,6.54-1.06c2.17-.47,4.35-1,6.57-1.42a64.71,64.71,0,0,1,13.39-.93V185a64.51,64.51,0,0,0-13.3,1.24c-2.18.45-4.34,1.05-6.51,1.57a52.72,52.72,0,0,1-6.59,1.23,81,81,0,0,1-13.4.39,60.38,60.38,0,0,1-13.22-2.13A59.53,59.53,0,0,0,146,185.16a81.67,81.67,0,0,0-13.36.38,54.65,54.65,0,0,0-6.57,1.23c-2.16.52-4.32,1.12-6.51,1.57a64.37,64.37,0,0,1-13.35,1.24,64.3,64.3,0,0,1-13.35-1.23c-2.19-.46-4.35-1.06-6.52-1.58a52.23,52.23,0,0,0-6.56-1.22,80.58,80.58,0,0,0-13.36-.39,60.1,60.1,0,0,0-13.18,2.12,59.8,59.8,0,0,1-13.22,2.14,81,81,0,0,1-13.4-.39,52.72,52.72,0,0,1-6.59-1.23c-2.18-.52-4.33-1.12-6.51-1.57A64.61,64.61,0,0,0,.24,185Z"/><path class="cls-3" d="M.24,190.77a64.75,64.75,0,0,1,13.4.92c2.22.4,4.39.95,6.56,1.43a54.11,54.11,0,0,0,6.55,1,80.17,80.17,0,0,0,13.24.19,58.78,58.78,0,0,0,13-2.28c2.15-.59,4.37-1.16,6.61-1.55a57.75,57.75,0,0,1,6.79-.74,81.24,81.24,0,0,1,13.59.33,54.18,54.18,0,0,1,6.73,1.21c2.21.53,4.34,1.11,6.48,1.54A63.91,63.91,0,0,0,106.24,194a63.27,63.27,0,0,0,13.06-1.14c2.14-.43,4.27-1,6.48-1.54a54.18,54.18,0,0,1,6.73-1.21,81.24,81.24,0,0,1,13.59-.33,55.56,55.56,0,0,1,6.78.75c2.25.39,4.46,1,6.62,1.55a58.68,58.68,0,0,0,13,2.27,80.28,80.28,0,0,0,13.25-.19,52.06,52.06,0,0,0,6.54-1c2.17-.47,4.35-1,6.57-1.43a64.7,64.7,0,0,1,13.39-.92v.15a64.51,64.51,0,0,0-13.3,1.23c-2.18.45-4.34,1-6.51,1.58a56.63,56.63,0,0,1-6.59,1.23,81,81,0,0,1-13.4.38,59.79,59.79,0,0,1-13.22-2.13A60.1,60.1,0,0,0,146,191.09a80.58,80.58,0,0,0-13.36.38,54.62,54.62,0,0,0-6.57,1.22c-2.16.53-4.32,1.13-6.51,1.58a65.06,65.06,0,0,1-13.35,1.24,65,65,0,0,1-13.35-1.24c-2.19-.45-4.35-1.05-6.52-1.57a54.13,54.13,0,0,0-6.56-1.23,80.58,80.58,0,0,0-13.36-.38,59.52,59.52,0,0,0-13.18,2.12,59.79,59.79,0,0,1-13.22,2.13,81,81,0,0,1-13.4-.38,54.61,54.61,0,0,1-6.59-1.23c-2.18-.53-4.33-1.13-6.51-1.58A64.6,64.6,0,0,0,.24,190.92Z"/><path class="cls-3" d="M.24,196.7a64.75,64.75,0,0,1,13.4.92c2.22.4,4.39.95,6.56,1.42a54.14,54.14,0,0,0,6.55,1.06,82.42,82.42,0,0,0,13.24.19A59.37,59.37,0,0,0,53,198c2.15-.59,4.37-1.16,6.61-1.55a55.7,55.7,0,0,1,6.79-.74A82.32,82.32,0,0,1,80,196a56.11,56.11,0,0,1,6.73,1.22c2.21.52,4.34,1.11,6.48,1.54a63.91,63.91,0,0,0,13.06,1.14,64,64,0,0,0,13.06-1.14c2.14-.43,4.27-1,6.48-1.54a56.11,56.11,0,0,1,6.73-1.22,82.32,82.32,0,0,1,13.59-.32,57.59,57.59,0,0,1,6.78.74c2.25.39,4.46,1,6.62,1.55a58.7,58.7,0,0,0,13,2.28,81.39,81.39,0,0,0,13.25-.19,54,54,0,0,0,6.54-1.06c2.17-.47,4.35-1,6.57-1.42a64.7,64.7,0,0,1,13.39-.92v.15a64.51,64.51,0,0,0-13.3,1.23c-2.18.45-4.34,1-6.51,1.58a54.58,54.58,0,0,1-6.59,1.22,81,81,0,0,1-13.4.39,59.79,59.79,0,0,1-13.22-2.13A59.53,59.53,0,0,0,146,197a80.58,80.58,0,0,0-13.36.39,54.62,54.62,0,0,0-6.57,1.22c-2.16.52-4.32,1.12-6.51,1.58a65.06,65.06,0,0,1-13.35,1.24,65,65,0,0,1-13.35-1.24c-2.19-.45-4.35-1-6.52-1.58a54.1,54.1,0,0,0-6.56-1.22A80.58,80.58,0,0,0,66.45,197a59.53,59.53,0,0,0-13.18,2.13,59.79,59.79,0,0,1-13.22,2.13,81,81,0,0,1-13.4-.39,54.58,54.58,0,0,1-6.59-1.22c-2.18-.53-4.33-1.13-6.51-1.58A64.6,64.6,0,0,0,.24,196.85Z"/><path class="cls-3" d="M.24,202.62a64.76,64.76,0,0,1,13.4.93c2.22.4,4.39.95,6.56,1.42A52.21,52.21,0,0,0,26.75,206a80.17,80.17,0,0,0,13.24.19,58.78,58.78,0,0,0,13-2.28c2.15-.58,4.37-1.16,6.61-1.55a57.75,57.75,0,0,1,6.79-.74A82.32,82.32,0,0,1,80,202a56.11,56.11,0,0,1,6.73,1.22c2.21.52,4.34,1.1,6.48,1.53a63.91,63.91,0,0,0,13.06,1.15,63.27,63.27,0,0,0,13.06-1.15c2.14-.43,4.27-1,6.48-1.53a56.11,56.11,0,0,1,6.73-1.22,83.43,83.43,0,0,1,13.59-.33,55.56,55.56,0,0,1,6.78.75c2.25.39,4.46,1,6.62,1.55a59.28,59.28,0,0,0,13,2.28,82.53,82.53,0,0,0,13.25-.19,54,54,0,0,0,6.54-1.06c2.17-.47,4.35-1,6.57-1.42a64.71,64.71,0,0,1,13.39-.93v.15a64.51,64.51,0,0,0-13.3,1.24c-2.18.45-4.34,1.05-6.51,1.57a52.72,52.72,0,0,1-6.59,1.23,81,81,0,0,1-13.4.39,60.38,60.38,0,0,1-13.22-2.13A59.53,59.53,0,0,0,146,202.94a81.67,81.67,0,0,0-13.36.38,54.65,54.65,0,0,0-6.57,1.23c-2.16.52-4.32,1.12-6.51,1.57a64.37,64.37,0,0,1-13.35,1.24,64.3,64.3,0,0,1-13.35-1.23c-2.19-.46-4.35-1.06-6.52-1.58a52.23,52.23,0,0,0-6.56-1.22,80.58,80.58,0,0,0-13.36-.39,60.1,60.1,0,0,0-13.18,2.12,59.8,59.8,0,0,1-13.22,2.14,81,81,0,0,1-13.4-.39,52.72,52.72,0,0,1-6.59-1.23c-2.18-.52-4.33-1.12-6.51-1.57A64.61,64.61,0,0,0,.24,202.77Z"/><path class="cls-3" d="M.24,208.55a64.75,64.75,0,0,1,13.4.92c2.22.4,4.39.95,6.56,1.43a54.11,54.11,0,0,0,6.55,1,80.17,80.17,0,0,0,13.24.19,58.78,58.78,0,0,0,13-2.28c2.15-.59,4.37-1.16,6.61-1.55a57.75,57.75,0,0,1,6.79-.74A81.24,81.24,0,0,1,80,207.9a54.18,54.18,0,0,1,6.73,1.21c2.21.53,4.34,1.11,6.48,1.54a63.21,63.21,0,0,0,13.06,1.14,63.27,63.27,0,0,0,13.06-1.14c2.14-.43,4.27-1,6.48-1.54a54.18,54.18,0,0,1,6.73-1.21,81.24,81.24,0,0,1,13.59-.33,55.56,55.56,0,0,1,6.78.75c2.25.39,4.46,1,6.62,1.55a58.68,58.68,0,0,0,13,2.27,80.28,80.28,0,0,0,13.25-.19,52.06,52.06,0,0,0,6.54-1c2.17-.47,4.35-1,6.57-1.43a64.7,64.7,0,0,1,13.39-.92v.15a64.51,64.51,0,0,0-13.3,1.23c-2.18.45-4.34,1-6.51,1.58a56.63,56.63,0,0,1-6.59,1.23,81,81,0,0,1-13.4.38A59.79,59.79,0,0,1,159.21,211,60.1,60.1,0,0,0,146,208.87a80.58,80.58,0,0,0-13.36.38,54.62,54.62,0,0,0-6.57,1.22c-2.16.53-4.32,1.13-6.51,1.58a65.06,65.06,0,0,1-13.35,1.24,64.31,64.31,0,0,1-13.35-1.24c-2.19-.45-4.35-1.05-6.52-1.57a54.13,54.13,0,0,0-6.56-1.23,80.58,80.58,0,0,0-13.36-.38A59.52,59.52,0,0,0,53.27,211a59.79,59.79,0,0,1-13.22,2.13,81,81,0,0,1-13.4-.38,54.61,54.61,0,0,1-6.59-1.23c-2.18-.53-4.33-1.13-6.51-1.58A64.6,64.6,0,0,0,.24,208.7Z"/><path class="cls-3" d="M.24,214.48a64.75,64.75,0,0,1,13.4.92c2.22.4,4.39.95,6.56,1.42a54.14,54.14,0,0,0,6.55,1.06,82.42,82.42,0,0,0,13.24.19,59.37,59.37,0,0,0,13-2.28c2.15-.59,4.37-1.16,6.61-1.55a55.7,55.7,0,0,1,6.79-.74,82.32,82.32,0,0,1,13.59.32A56.11,56.11,0,0,1,86.7,215c2.21.52,4.34,1.11,6.48,1.54a63.91,63.91,0,0,0,13.06,1.14,64,64,0,0,0,13.06-1.14c2.14-.43,4.27-1,6.48-1.54a56.11,56.11,0,0,1,6.73-1.22,82.32,82.32,0,0,1,13.59-.32,57.59,57.59,0,0,1,6.78.74c2.25.39,4.46,1,6.62,1.55a58.7,58.7,0,0,0,13,2.28,81.39,81.39,0,0,0,13.25-.19,54,54,0,0,0,6.54-1.06c2.17-.47,4.35-1,6.57-1.42a64.7,64.7,0,0,1,13.39-.92v.15a64.51,64.51,0,0,0-13.3,1.23c-2.18.45-4.34,1-6.51,1.58a54.58,54.58,0,0,1-6.59,1.22,81,81,0,0,1-13.4.39,59.79,59.79,0,0,1-13.22-2.13A59.53,59.53,0,0,0,146,214.79a80.58,80.58,0,0,0-13.36.39,54.62,54.62,0,0,0-6.57,1.22c-2.16.52-4.32,1.12-6.51,1.58a65.06,65.06,0,0,1-13.35,1.24A65,65,0,0,1,92.89,218c-2.19-.45-4.35-1-6.52-1.58a54.1,54.1,0,0,0-6.56-1.22,80.58,80.58,0,0,0-13.36-.39,59.53,59.53,0,0,0-13.18,2.13,59.79,59.79,0,0,1-13.22,2.13,81,81,0,0,1-13.4-.39,54.58,54.58,0,0,1-6.59-1.22c-2.18-.53-4.33-1.13-6.51-1.58A64.6,64.6,0,0,0,.24,214.63Z"/></g></symbol></defs><title>hullamok</title><path class="cls-4" d="M302.44,37.33c5.28-4,13.06-3.76,19-.83S331.9,44.58,335.57,50c9.4,13.85,14.65,29.86,22.1,44.77s18,29.47,33.73,36.18c24.58,10.47,52.57-1.1,77.75-10.16,6.59-2.37,13.59-4.61,20.53-3.54,8.9,1.37,16.1,8.07,20.24,15.74s5.75,16.34,7.5,24.83c5.61,27.31,13.73,55.29,32.72,76.33s60.81,40.2,106.75,23.22" transform="translate(-302.23 -12.05)"/><path class="cls-5" d="M656.17,258.93a96,96,0,0,1-69.91-2.59c-14.08-6-25.75-14.64-33.64-23.62a120.59,120.59,0,0,1-17.85-27.36c-1.84-3.8-3.52-7.68-5.08-11.59a241.39,241.39,0,0,1-9.06-28.05q-1.08-4.12-2.06-8.25a129.32,129.32,0,0,0-4.84-17.14,46.76,46.76,0,0,0-3.15-6.59,37.68,37.68,0,0,0-8.06-9.57A26.88,26.88,0,0,0,490.36,118a23.5,23.5,0,0,0-5.21-.38c-4.95.16-9.87,1.65-14.57,3.21s-9.47,3.2-14.32,4.76c-12.32,4-25,7.41-37.61,7.45a58.26,58.26,0,0,1-23.85-4.66,56.23,56.23,0,0,1-13.75-8.68c-8.72-7.36-15.4-17-20.7-26.79s-9.67-20.24-15-30.2a125.17,125.17,0,0,0-8.15-13.36c-3.77-5.32-8.3-10.45-14.32-13.4s-13.8-3.29-19.12.48" transform="translate(-302.23 -12.05)"/><path class="cls-6" d="M656,260.27c-24.8,8-48.19,4.1-67.37-4.81-13.66-6.35-25.11-15.2-33-24.38a133.42,133.42,0,0,1-18-27.54c-1.9-3.79-3.66-7.65-5.31-11.51a253.11,253.11,0,0,1-9.79-27.2c-.79-2.64-1.54-5.28-2.26-7.9a126.22,126.22,0,0,0-5.22-16.37,43.7,43.7,0,0,0-3.28-6.28,40.61,40.61,0,0,0-8.25-9.29,28.91,28.91,0,0,0-11.95-6.42,22.54,22.54,0,0,0-5-.54c-4.76,0-9.49,1.29-14,2.65s-9.09,2.81-13.75,4.17c-11.83,3.48-24,6.39-36.39,6a59.64,59.64,0,0,1-37.54-13.93c-8.86-7.28-15.75-16.61-21.29-26s-10.16-19.53-15.72-29.25a135.76,135.76,0,0,0-8.46-13.11c-3.88-5.25-8.5-10.34-14.56-13.32s-13.83-3.44-19.2.12" transform="translate(-302.23 -12.05)"/><path class="cls-7" d="M656.4,261.42c-23.81,7-46.19,2.39-64.84-7.05a104.18,104.18,0,0,1-32.29-25.12,151.92,151.92,0,0,1-18.18-27.73c-2-3.78-3.79-7.62-5.54-11.42A273.75,273.75,0,0,1,525,163.74q-1.29-3.8-2.47-7.56A124,124,0,0,0,517,140.59a42,42,0,0,0-3.4-6,45.8,45.8,0,0,0-8.44-9c-3.66-3-7.55-5.57-11.74-6.69a21.24,21.24,0,0,0-4.82-.69c-4.57-.16-9.11.93-13.44,2.1s-8.72,2.4-13.18,3.57c-11.36,3-23.06,5.33-35.18,4.55a66.26,66.26,0,0,1-23.47-5.8,67.87,67.87,0,0,1-14-8.73c-9-7.19-16.11-16.2-21.89-25.3S356.75,69.8,351,60.31a148.14,148.14,0,0,0-8.75-12.86c-4-5.17-8.7-10.22-14.8-13.24s-13.87-3.57-19.29-.22" transform="translate(-302.23 -12.05)"/><path class="cls-8" d="M657.29,262.39c-22.81,6.06-44.19.69-62.3-9.28a110.08,110.08,0,0,1-31.61-25.88A171.93,171.93,0,0,1,545,199.33c-2-3.78-3.93-7.6-5.77-11.34-4.35-8.87-8.09-17.25-11.25-25.51q-1.39-3.63-2.67-7.22a120.12,120.12,0,0,0-6-14.82,39,39,0,0,0-3.52-5.66,52.15,52.15,0,0,0-8.63-8.73c-3.7-3.06-7.48-5.69-11.52-7a20.75,20.75,0,0,0-4.64-.85c-4.38-.31-8.72.58-12.86,1.55s-8.35,2-12.62,3c-10.87,2.47-22.07,4.31-34,3.1a71.68,71.68,0,0,1-23.28-6.36,75.44,75.44,0,0,1-14.13-8.76,107.22,107.22,0,0,1-22.48-24.56c-6.06-8.85-11.15-18.11-17.19-27.35-2.79-4.24-5.75-8.49-9.06-12.61-4.11-5.11-8.9-10.12-15-13.16s-13.9-3.72-19.37-.58" transform="translate(-302.23 -12.05)"/><path class="cls-9" d="M658.66,263.22c-21.82,5.1-42.19-1-59.77-11.51A117.34,117.34,0,0,1,568,225.08,198.79,198.79,0,0,1,549.44,197c-2.08-3.77-4.07-7.58-6-11.26-4.57-8.74-8.58-16.79-12-24.66-1-2.32-2-4.61-2.87-6.89a118.35,118.35,0,0,0-6.35-14,37.82,37.82,0,0,0-3.65-5.35,61.81,61.81,0,0,0-8.82-8.45c-3.75-3.07-7.42-5.82-11.31-7.21a19.13,19.13,0,0,0-4.45-1,40.6,40.6,0,0,0-12.29,1c-3.94.77-8,1.61-12.06,2.38-10.39,2-21.09,3.28-32.74,1.65a78.55,78.55,0,0,1-23.09-6.92,84.54,84.54,0,0,1-14.25-8.79A114.87,114.87,0,0,1,376.5,83.62c-6.29-8.5-11.64-17.4-17.92-26.4-2.9-4.13-6-8.3-9.37-12.36-4.22-5-9.09-10-15.27-13.08s-13.94-3.86-19.46-.94" transform="translate(-302.23 -12.05)"/><path class="cls-10" d="M660.47,263.93c-20.83,4.14-40.18-2.69-57.24-13.73A126.2,126.2,0,0,1,573,222.81a233.59,233.59,0,0,1-18.68-28.26c-2.15-3.76-4.21-7.55-6.23-11.18-4.8-8.6-9.08-16.31-12.71-23.81-1.07-2.2-2.09-4.39-3.08-6.54a113.86,113.86,0,0,0-6.73-13.27,37.53,37.53,0,0,0-3.76-5.05,79.88,79.88,0,0,0-9-8.17c-3.79-3.07-7.36-5.94-11.1-7.46a18.89,18.89,0,0,0-4.26-1.18,38.19,38.19,0,0,0-11.72.45c-3.76.56-7.6,1.21-11.49,1.78-9.91,1.47-20.11,2.25-31.53.19a86.8,86.8,0,0,1-22.89-7.48A96.46,96.46,0,0,1,405.39,104a125.28,125.28,0,0,1-23.67-23.08c-6.52-8.16-12.13-16.69-18.65-25.45-3-4-6.18-8.11-9.67-12.11-4.33-5-9.29-9.9-15.51-13s-14-4-19.54-1.28" transform="translate(-302.23 -12.05)"/><path class="cls-11" d="M662.69,264.57c-19.84,3.17-38.17-4.37-54.71-16a137.17,137.17,0,0,1-29.57-28.15A283.4,283.4,0,0,1,559.56,192c-2.2-3.76-4.34-7.52-6.46-11.1-5-8.47-9.57-15.84-13.44-23-1.13-2.09-2.23-4.16-3.28-6.2a111.07,111.07,0,0,0-7.11-12.5,36.93,36.93,0,0,0-3.88-4.73,107.67,107.67,0,0,0-9.21-7.89c-3.84-3.09-7.31-6.07-10.89-7.73a18.06,18.06,0,0,0-4.07-1.33,36,36,0,0,0-11.15-.11c-3.57.37-7.22.81-10.93,1.19-9.42,1-19.12,1.22-30.31-1.26a98.28,98.28,0,0,1-22.7-8.05,110.93,110.93,0,0,1-14.51-8.84,137.65,137.65,0,0,1-24.27-22.34c-6.76-7.81-12.61-16-19.38-24.5-3.12-3.92-6.4-7.91-10-11.86-4.44-4.89-9.48-9.79-15.74-12.92s-14-4.14-19.63-1.64" transform="translate(-302.23 -12.05)"/><path class="cls-12" d="M665.28,265.15c-18.84,2.22-36.16-6-52.17-18.19a150.35,150.35,0,0,1-28.9-28.9c-6.89-9.21-13.12-18.92-19-28.62-2.27-3.75-4.48-7.49-6.7-11-5.23-8.34-10.06-15.37-14.16-22.12q-1.8-3-3.49-5.86a107.26,107.26,0,0,0-7.48-11.71,35.45,35.45,0,0,0-4-4.43c-2.57-2.39-5.86-4.79-9.39-7.61-3.89-3.1-7.25-6.2-10.68-8a18.14,18.14,0,0,0-3.88-1.49,34.18,34.18,0,0,0-10.59-.66c-3.38.18-6.84.41-10.36.59a90.09,90.09,0,0,1-29.09-2.71,113.34,113.34,0,0,1-22.51-8.61A130.05,130.05,0,0,1,418.22,97a154,154,0,0,1-24.86-21.59c-7-7.47-13.1-15.29-20.12-23.55C370,48,366.63,44.08,363,40.19c-4.55-4.82-9.67-9.68-16-12.84s-14.05-4.28-19.71-2" transform="translate(-302.23 -12.05)"/><path class="cls-13" d="M668.22,265.71c-17.85,1.25-34.15-7.72-49.64-20.42a167.07,167.07,0,0,1-28.22-29.66c-6.83-9.33-13.13-19.11-19.18-28.8-2.33-3.74-4.62-7.46-6.93-10.93-5.45-8.21-10.56-14.9-14.89-21.27q-1.9-2.81-3.69-5.52a105,105,0,0,0-7.86-10.94,35.71,35.71,0,0,0-4.13-4.12c-2.65-2.23-6-4.51-9.59-7.33-3.93-3.11-7.18-6.32-10.46-8.25a17.94,17.94,0,0,0-3.69-1.65,32.64,32.64,0,0,0-10-1.21c-3.2,0-6.47,0-9.8,0a90.45,90.45,0,0,1-27.87-4.16,134.45,134.45,0,0,1-22.32-9.18,156,156,0,0,1-14.76-8.89,176.19,176.19,0,0,1-25.46-20.85c-7.23-7.13-13.59-14.58-20.85-22.6-3.34-3.71-6.83-7.53-10.58-11.37-4.66-4.74-9.87-9.57-16.22-12.76s-14.09-4.42-19.8-2.34" transform="translate(-302.23 -12.05)"/><path class="cls-14" d="M671.47,266.27c-16.87.3-32.14-9.37-47.11-22.65a187.5,187.5,0,0,1-27.55-30.41c-6.77-9.45-13.13-19.3-19.34-29-2.39-3.74-4.75-7.44-7.16-10.86-5.68-8.08-11-14.43-15.62-20.42q-2-2.64-3.89-5.18a103,103,0,0,0-8.24-10.17,37.4,37.4,0,0,0-4.25-3.8c-2.74-2.08-6.17-4.22-9.78-7.06-4-3.12-7.13-6.44-10.26-8.51a17.93,17.93,0,0,0-3.5-1.8,31.48,31.48,0,0,0-9.44-1.77c-3-.21-6.1-.38-9.23-.6a94.15,94.15,0,0,1-26.66-5.61,166.9,166.9,0,0,1-22.13-9.75c-5.15-2.73-10.13-5.81-14.89-8.92a206.16,206.16,0,0,1-26.06-20.1C398.9,62.9,392.28,55.82,384.79,48c-3.46-3.59-7.05-7.33-10.89-11.11-4.77-4.68-10.07-9.46-16.46-12.68s-14.12-4.57-19.88-2.7" transform="translate(-302.23 -12.05)"/><path class="cls-15" d="M675,266.89c-15.87-.66-30.12-11-44.57-24.88a216.3,216.3,0,0,1-26.88-31.16c-6.71-9.58-13.13-19.5-19.51-29.16-2.44-3.72-4.89-7.41-7.38-10.77-5.9-7.95-11.55-14-16.35-19.58q-2.12-2.47-4.1-4.83a101.44,101.44,0,0,0-8.62-9.4,38.17,38.17,0,0,0-4.37-3.49c-2.81-1.92-6.32-3.93-10-6.78-4-3.13-7.07-6.56-10-8.77a19,19,0,0,0-3.31-2,30.6,30.6,0,0,0-8.88-2.32c-2.83-.41-5.72-.78-8.67-1.2a101.05,101.05,0,0,1-25.43-7.06A223.06,223.06,0,0,1,455,95.22c-5.16-2.79-10.19-5.88-15-9A251.14,251.14,0,0,1,413.3,66.91C405.6,60.47,398.73,53.75,391,46.2c-3.57-3.48-7.26-7.14-11.19-10.86-4.89-4.6-10.27-9.35-16.7-12.6s-14.15-4.71-20-3" transform="translate(-302.23 -12.05)"/><path class="cls-16" d="M678.75,267.64c-14.88-1.62-28.11-12.67-42-27.1a254,254,0,0,1-26.2-31.92c-6.66-9.71-13.14-19.69-19.68-29.34-2.5-3.72-5-7.38-7.61-10.69-6.13-7.82-12.05-13.49-17.08-18.73l-4.31-4.49a97.27,97.27,0,0,0-9-8.62,40.93,40.93,0,0,0-4.5-3.19,97.68,97.68,0,0,1-10.15-6.49c-4.07-3.15-7-6.69-9.84-9a19.61,19.61,0,0,0-3.12-2.12,30.81,30.81,0,0,0-8.31-2.87c-2.64-.61-5.34-1.18-8.1-1.8a114.74,114.74,0,0,1-24.21-8.51c-6.34-2.92-13.83-6.49-21.76-10.87-5.16-2.85-10.23-6-15.13-9a321.32,321.32,0,0,1-27.26-18.62c-7.92-6.09-15.06-12.45-23-19.75-3.69-3.38-7.48-7-11.5-10.61-5-4.54-10.46-9.24-16.94-12.53S354.82,16.53,349,18" transform="translate(-302.23 -12.05)"/><path class="cls-17" d="M682.73,268.56c-13.89-2.58-26.1-14.31-39.51-29.33a310.39,310.39,0,0,1-25.52-32.67c-6.6-9.84-13.14-19.89-19.84-29.52-2.57-3.71-5.16-7.35-7.85-10.61-6.34-7.69-12.53-13-17.8-17.88l-4.51-4.15a98.87,98.87,0,0,0-9.37-7.85,44.22,44.22,0,0,0-4.62-2.87,69.75,69.75,0,0,1-10.35-6.22c-4.11-3.16-7-6.81-9.62-9.3a21.4,21.4,0,0,0-2.93-2.27,31.45,31.45,0,0,0-7.74-3.43c-2.46-.81-5-1.58-7.54-2.39-6.52-2.06-13.21-4.92-23-10-6.18-3.18-13.62-7-21.56-11.43-5.17-2.91-10.29-6-15.26-9C445.19,73.35,436,67.55,427.86,61.79S412.3,50,404.09,43c-3.8-3.26-7.7-6.76-11.8-10.36-5.11-4.46-10.66-9.13-17.17-12.45s-14.23-5-20.14-3.75" transform="translate(-302.23 -12.05)"/><path class="cls-18" d="M686.88,269.69c-12.9-3.54-24.1-15.95-37-31.56a395.83,395.83,0,0,1-24.85-33.43c-6.54-10-13.14-20.08-20-29.7-2.62-3.7-5.3-7.33-8.07-10.52-6.57-7.56-13-12.56-18.54-17l-4.71-3.81a93.88,93.88,0,0,0-9.75-7.07,49.5,49.5,0,0,0-4.74-2.57,53.67,53.67,0,0,1-10.54-5.94c-4.16-3.17-6.88-6.93-9.41-9.55a23.89,23.89,0,0,0-2.74-2.44,33.6,33.6,0,0,0-7.17-4c-2.27-1-4.6-2-7-3-6-2.56-12.23-5.94-21.78-11.42-6-3.45-13.42-7.43-21.37-12-5.18-3-10.35-6.09-15.39-9-10.67-6.23-20-11.71-28.45-17.14a277.44,277.44,0,0,1-24.5-17.85C407,38.5,403,35.09,398.81,31.55c-5.21-4.39-10.84-9-17.4-12.37s-14.26-5.13-20.22-4.1" transform="translate(-302.23 -12.05)"/><path class="cls-19" d="M691.17,271.05c-11.9-4.5-22.09-17.57-34.44-33.79-8-10.54-16.65-22.5-24.16-34.19-6.49-10.08-13.15-20.27-20.18-29.87a119.37,119.37,0,0,0-8.31-10.44c-6.78-7.44-13.52-12.09-19.26-16.2-1.69-1.2-3.32-2.36-4.91-3.47a95,95,0,0,0-10.13-6.29c-1.43-.74-3-1.51-4.86-2.26a44.22,44.22,0,0,1-10.73-5.66c-4.21-3.18-6.83-7-9.2-9.82a27.4,27.4,0,0,0-2.56-2.59,36.68,36.68,0,0,0-6.6-4.53c-2.08-1.2-4.22-2.37-6.4-3.58-5.55-3.06-11.24-7-20.56-12.87-5.87-3.72-13.21-7.91-21.18-12.56-5.19-3-10.41-6.17-15.52-9.07-10.81-6.13-20.39-11.3-29-16.38A253.12,253.12,0,0,1,417.9,40.57c-4-3-8.13-6.38-12.42-9.86-5.32-4.32-11-8.91-17.64-12.29S373.55,13.15,367.53,14" transform="translate(-302.23 -12.05)"/><path class="cls-20" d="M695.58,272.67c-10.91-5.46-20.1-19.19-31.91-36-7.59-10.83-16-23.06-23.49-34.94-6.43-10.21-13.15-20.47-20.34-30.06a109,109,0,0,0-8.54-10.36c-7-7.3-14-11.61-20-15.35-1.76-1.09-3.46-2.13-5.12-3.12a93.25,93.25,0,0,0-10.5-5.52c-1.47-.64-3.12-1.3-5-1.95A37.59,37.59,0,0,1,559.78,130c-4.25-3.19-6.76-7.18-9-10.08a31.38,31.38,0,0,0-2.36-2.75,42.6,42.6,0,0,0-6-5.08c-1.9-1.4-3.85-2.78-5.84-4.19-5.07-3.56-10.26-8-19.35-14.31-5.7-4-13-8.38-21-13.13-5.19-3.09-10.46-6.23-15.64-9.09-11-6-20.74-10.89-29.63-15.65a230.54,230.54,0,0,1-26-16c-4.14-2.94-8.34-6.19-12.72-9.61-5.43-4.25-11.24-8.81-17.88-12.21S380.05,12.52,374,13.12" transform="translate(-302.23 -12.05)"/><path class="cls-21" d="M700.06,274.6c-9.92-6.42-18.11-20.81-29.37-38.25-7.18-11.11-15.36-23.61-22.82-35.69a359.82,359.82,0,0,0-20.51-30.24,98.1,98.1,0,0,0-8.76-10.27c-7.24-7.18-14.51-11.15-20.73-14.5q-2.73-1.49-5.32-2.79a89.58,89.58,0,0,0-10.88-4.74c-1.5-.53-3.2-1.09-5.11-1.64a32.82,32.82,0,0,1-11.11-5.1c-4.29-3.21-6.7-7.3-8.77-10.35-.78-1.14-1.52-2.09-2.18-2.9a52.3,52.3,0,0,0-5.46-5.64c-1.72-1.6-3.47-3.17-5.27-4.78-4.59-4.06-9.27-9-18.13-15.77a243.28,243.28,0,0,0-20.8-13.69c-5.21-3.14-10.51-6.3-15.77-9.12C478,63.18,468,58.65,458.84,54.23a215.43,215.43,0,0,1-26.69-15c-4.26-2.83-8.57-6-13-9.37-5.55-4.17-11.43-8.69-18.12-12.12s-14.36-5.55-20.47-5.17" transform="translate(-302.23 -12.05)"/><path class="cls-22" d="M704.58,276.86c-8.92-7.38-16.12-22.42-26.83-40.48C671,225,663,212.21,655.61,199.94a301.28,301.28,0,0,0-20.68-30.42,92.58,92.58,0,0,0-9-10.2c-7.46-7-15-10.67-21.46-13.65-1.89-.87-3.73-1.69-5.52-2.44a89.79,89.79,0,0,0-11.26-4c-1.54-.42-3.28-.87-5.23-1.33a29.26,29.26,0,0,1-11.3-4.82c-4.34-3.22-6.65-7.42-8.57-10.61-.71-1.19-1.39-2.2-2-3.06a69.21,69.21,0,0,0-4.89-6.19c-1.54-1.8-3.1-3.57-4.71-5.38-4.1-4.57-8.29-10-16.91-17.22A182.52,182.52,0,0,0,513.5,76.4c-5.22-3.2-10.57-6.37-15.9-9.15-11.26-5.87-21.44-10.08-30.82-14.16A202.45,202.45,0,0,1,439.35,39c-4.37-2.72-8.78-5.81-13.33-9.12-5.66-4.1-11.63-8.58-18.35-12s-14.4-5.7-20.56-5.52" transform="translate(-302.23 -12.05)"/><path class="cls-23" d="M709.12,279.48c-7.93-8.34-14.15-24-24.3-42.7-6.35-11.67-14.08-24.73-21.47-37.2A260.06,260.06,0,0,0,642.51,169a85.07,85.07,0,0,0-9.23-10.11c-7.67-6.91-15.49-10.21-22.17-12.81q-3-1.14-5.73-2.1a91.08,91.08,0,0,0-11.64-3.2q-2.37-.47-5.35-1a26.49,26.49,0,0,1-11.5-4.55c-4.38-3.23-6.58-7.53-8.35-10.86-.66-1.24-1.27-2.31-1.79-3.23-1.56-2.71-3-4.75-4.33-6.74s-2.72-4-4.14-6c-3.62-5.07-7.3-11-15.69-18.67-5.23-4.77-12.39-9.8-20.42-14.82-5.23-3.26-10.63-6.44-16-9.17-11.41-5.78-21.79-9.68-31.43-13.42a190.9,190.9,0,0,1-28.15-13.1c-4.48-2.61-9-5.62-13.63-8.87-5.77-4-11.83-8.47-18.59-12s-14.44-5.83-20.65-5.86" transform="translate(-302.23 -12.05)"/><path class="cls-24" d="M713.63,282.5c-6.94-9.3-12.17-25.63-21.77-44.93-5.94-12-13.42-25.29-20.78-38a231.17,231.17,0,0,0-21-30.78,79.66,79.66,0,0,0-9.46-10c-7.9-6.78-16-9.73-22.91-12-2-.65-4-1.24-5.93-1.76a89,89,0,0,0-12-2.42l-5.48-.71a24.23,24.23,0,0,1-11.68-4.26c-4.43-3.24-6.53-7.66-8.14-11.13-.6-1.29-1.15-2.41-1.61-3.38-1.36-2.89-2.6-5.11-3.75-7.3s-2.35-4.36-3.58-6.56c-3.14-5.58-6.32-12-14.47-20.12-5.08-5-12.18-10.28-20.23-15.39a174.27,174.27,0,0,0-16.15-9.2c-11.56-5.69-22.14-9.27-32-12.67s-19-6.78-28.88-12.16c-4.6-2.5-9.22-5.42-13.94-8.61-5.89-4-12-8.37-18.83-11.89s-14.47-6-20.73-6.22" transform="translate(-302.23 -12.05)"/><path class="cls-25" d="M718.09,285.93c-6-10.26-10.21-27.23-19.23-47.16-5.54-12.23-12.79-25.85-20.11-38.72a207.79,207.79,0,0,0-21.18-31,74.43,74.43,0,0,0-9.69-9.95c-8.12-6.65-16.48-9.27-23.63-11.11-2.1-.55-4.15-1-6.14-1.43A91.07,91.07,0,0,0,605.72,145c-1.65-.1-3.53-.22-5.6-.4a22.38,22.38,0,0,1-11.87-4c-4.47-3.25-6.48-7.78-7.93-11.39-.54-1.34-1-2.52-1.42-3.54-1.17-3-2.22-5.47-3.18-7.85s-2-4.76-3-7.16c-2.66-6.08-5.34-13.06-13.26-21.57-4.92-5.3-12-10.75-20-16a149.11,149.11,0,0,0-16.27-9.23C511.43,58.29,500.64,55,490.52,52S471,45.9,460.9,40.77a156.24,156.24,0,0,1-14.24-8.37c-6-3.89-12.22-8.26-19.06-11.81S413.09,14.47,406.78,14" transform="translate(-302.23 -12.05)"/><path class="cls-26" d="M722.46,289.8c-5-11.22-8.25-28.83-16.7-49.38A383.72,383.72,0,0,0,686.33,201,190.1,190.1,0,0,0,665,169.81a70.47,70.47,0,0,0-9.92-9.86c-8.34-6.52-17-8.8-24.37-10.27q-3.26-.65-6.34-1.08a90.35,90.35,0,0,0-12.77-.87c-1.68,0-3.61,0-5.72-.09a20.94,20.94,0,0,1-12.06-3.71c-4.52-3.26-6.42-7.89-7.72-11.64-.48-1.39-.9-2.63-1.23-3.7-1-3.22-1.83-5.83-2.61-8.4s-1.6-5.16-2.45-7.76c-2.17-6.58-4.36-14.07-12-23C563,83.85,556,78.19,547.91,72.89a132.1,132.1,0,0,0-16.39-9.25c-11.86-5.52-22.85-8.47-33.22-11.19s-20-5.36-30.34-10.25a141.2,141.2,0,0,1-14.55-8.12c-6.11-3.82-12.42-8.15-19.3-11.73s-14.55-6.26-20.91-6.93" transform="translate(-302.23 -12.05)"/><path class="cls-27" d="M726.71,294.16c-4-12.18-6.3-30.43-14.17-51.62a317.61,317.61,0,0,0-18.75-40.22A174.44,174.44,0,0,0,672.28,171a67.19,67.19,0,0,0-10.15-9.79c-8.56-6.39-17.47-8.32-25.09-9.42q-3.36-.48-6.55-.74a91.57,91.57,0,0,0-13.14-.09c-1.73.11-3.71.21-5.85.22-3.8,0-8.14-.47-12.25-3.43-4.56-3.27-6.37-8-7.51-11.91-.42-1.43-.78-2.73-1-3.85-.78-3.39-1.45-6.19-2-9s-1.22-5.57-1.88-8.36C585.09,107.6,583.4,99.6,576,90.21c-4.6-5.81-11.56-11.69-19.65-17.07a118.09,118.09,0,0,0-16.53-9.29c-12-5.43-23.2-8.06-33.81-10.44-10.45-2.35-20.48-4.65-31.07-9.3A131.19,131.19,0,0,1,460,36.24c-6.21-3.75-12.61-8-19.54-11.65s-14.58-6.4-21-7.28" transform="translate(-302.23 -12.05)"/><path class="cls-28" d="M730.81,299c-3-13.14-4.37-32-11.64-53.85a271.56,271.56,0,0,0-18.08-41,161.58,161.58,0,0,0-21.67-31.5A64.64,64.64,0,0,0,669,163c-8.79-6.26-18-7.86-25.83-8.57-2.3-.21-4.55-.35-6.74-.4a92,92,0,0,0-13.53.68c-1.76.21-3.78.42-6,.53-3.89.2-8.3-.19-12.45-3.15-4.61-3.28-6.31-8.13-7.3-12.17-.36-1.48-.65-2.84-.84-4-.59-3.54-1.07-6.54-1.48-9.5s-.84-6-1.31-9c-1.21-7.59-2.4-16.1-9.61-25.93-4.45-6.07-11.36-12.16-19.47-17.64a107.15,107.15,0,0,0-16.64-9.31c-12.16-5.34-23.55-7.66-34.41-9.7-10.69-2-21-3.94-31.81-8.35a121.48,121.48,0,0,1-15.16-7.62c-6.32-3.68-12.8-7.93-19.77-11.58s-14.62-6.53-21.08-7.62" transform="translate(-302.23 -12.05)"/><path class="cls-29" d="M734.71,304.44c-2-14.1-2.43-33.63-9.1-56.07a240,240,0,0,0-17.41-41.74A150.92,150.92,0,0,0,686.37,175a61.72,61.72,0,0,0-10.62-9.62c-9-6.13-18.46-7.39-26.55-7.73q-3.56-.15-7-.06a95.45,95.45,0,0,0-13.9,1.46c-1.8.32-3.87.64-6.09.84-4,.37-8.45.1-12.64-2.87-4.64-3.29-6.25-8.25-7.08-12.43-.3-1.53-.53-2.94-.66-4.17-.39-3.72-.68-6.9-.9-10.06s-.47-6.36-.75-9.55c-.72-8.09-1.42-17.11-8.39-27.38-4.3-6.33-11.15-12.64-19.28-18.2a98.11,98.11,0,0,0-16.77-9.34c-12.31-5.25-23.9-7.26-35-9-10.92-1.67-21.48-3.23-32.54-7.4a114.25,114.25,0,0,1-15.47-7.37c-6.43-3.6-13-7.82-20-11.49a83.17,83.17,0,0,0-21.16-8" transform="translate(-302.23 -12.05)"/><path class="cls-30" d="M738.4,310.42c-1-15.06-.5-35.23-6.57-58.3a215.9,215.9,0,0,0-16.73-42.49,142.28,142.28,0,0,0-22-31.85,59.45,59.45,0,0,0-10.84-9.54c-9.23-6-19-6.91-27.28-6.88-2.44,0-4.83.11-7.15.29a95,95,0,0,0-14.28,2.23c-1.84.42-3.95.86-6.21,1.15-4.05.53-8.6.39-12.83-2.59-4.69-3.31-6.2-8.37-6.87-12.7a43,43,0,0,1-.47-4.33c-.2-3.87-.3-7.25-.34-10.61s-.09-6.75-.18-10.14c-.24-8.59-.45-18.13-7.17-28.83-4.15-6.6-11-13.11-19.09-18.77a91.59,91.59,0,0,0-16.9-9.37c-12.46-5.16-24.25-6.85-35.59-8.21-11.15-1.33-22-2.52-33.28-6.45a108.66,108.66,0,0,1-15.77-7.12c-6.54-3.53-13.19-7.71-20.25-11.42a93.09,93.09,0,0,0-21.24-8.33" transform="translate(-302.23 -12.05)"/><path class="cls-31" d="M741.74,317c0-16,1.43-36.84-4-60.54a196.9,196.9,0,0,0-16.06-43.24,133.94,133.94,0,0,0-22.17-32,57.46,57.46,0,0,0-11.07-9.46c-9.45-5.87-19.45-6.44-28-6q-3.76.18-7.36.63a98.05,98.05,0,0,0-14.65,3,57.87,57.87,0,0,1-6.33,1.46c-4.14.7-8.76.68-13-2.31-4.74-3.32-6.15-8.49-6.66-13a39.22,39.22,0,0,1-.28-4.48c0-4,.09-7.62.23-11.17s.28-7.15.38-10.74c.25-9.09.53-19.14-6-30.28-4-6.86-10.74-13.58-18.9-19.33a85,85,0,0,0-17-9.4c-12.61-5.07-24.61-6.45-36.2-7.46-11.37-1-22.46-1.81-34-5.51a102.15,102.15,0,0,1-16.07-6.87c-6.66-3.46-13.39-7.6-20.49-11.33a105.16,105.16,0,0,0-21.33-8.69" transform="translate(-302.23 -12.05)"/><path class="cls-32" d="M744.24,324.24c1-17,3.35-38.43-1.5-62.76a182,182,0,0,0-15.37-44A127.57,127.57,0,0,0,705,185.27a56,56,0,0,0-11.3-9.37c-9.67-5.74-20-6-28.74-5.19q-3.87.36-7.56,1a102.46,102.46,0,0,0-15,3.78,55.58,55.58,0,0,1-6.45,1.77c-4.22.87-8.91,1-13.21-2-4.79-3.33-6.09-8.61-6.45-13.22a38.93,38.93,0,0,1-.09-4.64c.19-4.21.47-8,.8-11.72s.66-7.55,1-11.34c.73-9.59,1.51-20.15-4.73-31.73-3.84-7.12-10.54-14.06-18.71-19.9a80.5,80.5,0,0,0-17.15-9.42c-12.76-5-25-6-36.79-6.72-11.61-.66-23-1.1-34.74-4.56a98.76,98.76,0,0,1-16.38-6.62c-6.76-3.39-13.58-7.49-20.72-11.25a119.66,119.66,0,0,0-21.41-9" transform="translate(-302.23 -12.05)"/><path class="cls-33" d="M746.25,332.14c2-17.94,5.25-40,1-65a170.19,170.19,0,0,0-14.7-44.75A121.5,121.5,0,0,0,710.08,190a54.12,54.12,0,0,0-11.54-9.29c-9.89-5.61-20.43-5.51-29.46-4.34q-4,.51-7.77,1.31a102.79,102.79,0,0,0-15.41,4.56,58.19,58.19,0,0,1-6.58,2.08c-4.29,1-9.06,1.25-13.4-1.76-4.83-3.34-6-8.73-6.24-13.48a39.11,39.11,0,0,1,.1-4.8c.39-4.37.86-8.33,1.38-12.27s1-8,1.51-11.94c1.21-10.1,2.48-21.17-3.52-33.18-3.69-7.38-10.33-14.53-18.52-20.46A75.75,75.75,0,0,0,583.36,77c-12.91-4.9-25.31-5.65-37.39-6-11.83-.33-23.45-.39-35.46-3.61A94.92,94.92,0,0,1,493.82,61c-6.88-3.31-13.78-7.38-21-11.17a137.37,137.37,0,0,0-21.49-9.39" transform="translate(-302.23 -12.05)"/><path class="cls-34" d="M747.78,340.74c3-18.9,7.17-41.65,3.57-67.21a160.78,160.78,0,0,0-14-45.51,116.34,116.34,0,0,0-22.67-32.57,53,53,0,0,0-11.77-9.21c-10.11-5.48-20.93-5-30.19-3.5q-4.08.69-8,1.65a106.62,106.62,0,0,0-15.79,5.34,55.36,55.36,0,0,1-6.7,2.39c-4.38,1.2-9.21,1.54-13.59-1.48-4.88-3.36-6-8.85-6-13.74a38,38,0,0,1,.29-5c.58-4.53,1.25-8.68,1.94-12.82s1.41-8.35,2.08-12.53c1.7-10.61,3.46-22.19-2.3-34.64-3.53-7.64-10.12-15-18.32-21a71.61,71.61,0,0,0-17.41-9.48c-13.06-4.81-25.66-5.25-38-5.24-12.07,0-23.94.33-36.2-2.66a91.93,91.93,0,0,1-17-6.12c-7-3.24-14-7.27-21.19-11.09A162.87,162.87,0,0,0,455,46.59" transform="translate(-302.23 -12.05)"/><path class="cls-35" d="M748.85,350.08c4-19.87,9.07-43.27,6.1-69.45a152.47,152.47,0,0,0-13.35-46.26,111.58,111.58,0,0,0-22.83-32.75,51.26,51.26,0,0,0-12-9.13c-10.34-5.35-21.42-4.57-30.92-2.65q-4.19.85-8.18,2a110.11,110.11,0,0,0-16.16,6.11,53.55,53.55,0,0,1-6.82,2.7c-4.46,1.38-9.37,1.83-13.79-1.2-4.91-3.36-5.93-9-5.81-14a36,36,0,0,1,.48-5.12c.78-4.69,1.63-9,2.51-13.37s1.78-8.75,2.64-13.13c2.18-11.11,4.44-23.2-1.08-36.08-3.38-7.91-9.92-15.48-18.13-21.59A68.2,68.2,0,0,0,594,86.64c-13.21-4.72-26-4.85-38.58-4.5-12.3.35-24.45,1.07-36.93-1.7a89.07,89.07,0,0,1-17.29-5.87c-7.1-3.17-14.17-7.16-21.44-11a194.92,194.92,0,0,0-21.66-10.09" transform="translate(-302.23 -12.05)"/><path class="cls-36" d="M749.43,360.17c5-20.82,11-44.88,8.63-71.67a145.18,145.18,0,0,0-12.67-47,107.34,107.34,0,0,0-23-32.93,50.11,50.11,0,0,0-12.23-9c-10.55-5.22-21.91-4.1-31.64-1.81-2.86.68-5.66,1.46-8.38,2.34a112.45,112.45,0,0,0-16.55,6.88,53.21,53.21,0,0,1-6.94,3c-4.54,1.55-9.52,2.12-14-.92-5-3.38-5.87-9.09-5.6-14.26a37.25,37.25,0,0,1,.67-5.28c1-4.85,2-9.39,3.08-13.93S633,166.4,634,161.82c2.66-11.61,5.41-24.22.14-37.54-3.24-8.16-9.72-16-17.95-22.15a65.14,65.14,0,0,0-17.65-9.53c-13.36-4.64-26.37-4.45-39.18-3.76-12.53.69-24.94,1.78-37.66-.75a87,87,0,0,1-17.6-5.62c-7.21-3.1-14.36-7-21.67-10.94a240.65,240.65,0,0,0-21.75-10.45" transform="translate(-302.23 -12.05)"/><path class="cls-37" d="M749.5,371.07c6-21.79,12.87-46.51,11.17-73.91a139.72,139.72,0,0,0-12-47.77,103.65,103.65,0,0,0-23.16-33.11,49.36,49.36,0,0,0-12.46-9c-10.78-5.09-22.41-3.63-32.38-1-2.92.79-5.79,1.68-8.58,2.68a114.18,114.18,0,0,0-16.92,7.66A54.56,54.56,0,0,1,648.1,220c-4.61,1.72-9.67,2.41-14.16-.64-5-3.38-5.83-9.21-5.39-14.52a37.59,37.59,0,0,1,.85-5.44c1.17-5,2.4-9.75,3.65-14.47s2.53-9.55,3.78-14.32c3.14-12.12,6.38-25.23,1.35-39-3.08-8.43-9.51-16.43-17.76-22.72a62.32,62.32,0,0,0-17.77-9.56c-13.51-4.55-26.73-4-39.77-3-12.77,1-25.43,2.48-38.4.19a84.08,84.08,0,0,1-17.9-5.37c-7.32-3-14.56-6.94-21.91-10.86s-14.93-7.8-21.83-10.8" transform="translate(-302.23 -12.05)"/><path class="cls-38" d="M749,382.79c7-22.74,14.76-48.13,13.7-76.13a134.77,134.77,0,0,0-11.32-48.53,100.27,100.27,0,0,0-23.33-33.29A48.53,48.53,0,0,0,715.4,216c-11-5-22.9-3.16-33.1-.11q-4.5,1.35-8.79,3a120.35,120.35,0,0,0-17.3,8.44,54.82,54.82,0,0,1-7.19,3.63c-4.69,1.88-9.82,2.69-14.36-.36-5-3.4-5.77-9.34-5.17-14.79a37.55,37.55,0,0,1,1-5.59c1.37-5.18,2.79-10.11,4.22-15s2.91-9.94,4.34-14.92c3.63-12.62,7.36-26.25,2.57-40.44-2.93-8.69-9.3-16.9-17.56-23.28a60,60,0,0,0-17.91-9.59c-13.66-4.46-27.07-3.65-40.36-2.27-13,1.36-25.93,3.2-39.13,1.15a83.63,83.63,0,0,1-18.2-5.12,224.13,224.13,0,0,1-22.15-10.78c-7.43-4-15-8-21.92-11.16" transform="translate(-302.23 -12.05)"/><path class="cls-39" d="M748,395.37c7.94-23.7,16.65-49.75,16.23-78.36a130.68,130.68,0,0,0-10.64-49.28,97.11,97.11,0,0,0-23.5-33.47,47.5,47.5,0,0,0-12.92-8.8c-11.22-4.83-23.4-2.69-33.83.74q-4.61,1.5-9,3.35a123.47,123.47,0,0,0-17.68,9.21,54.16,54.16,0,0,1-7.31,3.94c-4.77,2.05-10,3-14.55-.08-5.09-3.41-5.72-9.46-5-15.05a38.32,38.32,0,0,1,1.23-5.75c1.56-5.34,3.17-10.46,4.79-15.58s3.28-10.34,4.91-15.52c4.11-13.12,8.33-27.26,3.79-41.89-2.78-9-9.1-17.37-17.38-23.84a57.74,57.74,0,0,0-18-9.62c-13.81-4.37-27.43-3.28-41-1.52-13.23,1.66-26.42,3.9-39.86,2.09a81.44,81.44,0,0,1-18.51-4.87,198.32,198.32,0,0,1-22.38-10.7c-7.48-4-15-8.09-22-11.51" transform="translate(-302.23 -12.05)"/><path class="cls-40" d="M746.41,408.84c8.93-24.66,18.54-51.38,18.77-80.59a127.21,127.21,0,0,0-10-50,94.06,94.06,0,0,0-23.67-33.65,46.81,46.81,0,0,0-13.14-8.72c-11.45-4.7-23.9-2.22-34.57,1.58q-4.7,1.68-9.19,3.7a126.79,126.79,0,0,0-18.06,10,55.47,55.47,0,0,1-7.43,4.24c-4.85,2.23-10.12,3.27-14.74.2-5.14-3.42-5.66-9.58-4.75-15.31a40.26,40.26,0,0,1,1.42-5.91c1.76-5.5,3.56-10.82,5.36-16.13s3.66-10.74,5.47-16.11c4.6-13.62,9.3-28.28,5-43.34-2.63-9.22-8.89-17.85-17.19-24.41a56.08,56.08,0,0,0-18.15-9.65c-14-4.28-27.79-2.87-41.56-.78-13.46,2-26.91,4.62-40.59,3a80.33,80.33,0,0,1-18.81-4.62A178.57,178.57,0,0,1,488,111.72c-7.52-4-15-8.23-22.09-11.85" transform="translate(-302.23 -12.05)"/><path class="cls-41" d="M741.32,438.59c10.91-26.59,22.31-54.65,23.83-85A122,122,0,0,0,756.54,302a89.69,89.69,0,0,0-24-34,45.82,45.82,0,0,0-13.61-8.55c-11.89-4.43-24.88-1.28-36,3.28-3.27,1.34-6.48,2.8-9.6,4.38a133.1,133.1,0,0,0-18.81,11.54,58.8,58.8,0,0,1-7.68,4.86c-5,2.56-10.43,3.85-15.12.76-5.23-3.45-5.57-9.83-4.33-15.83a42.32,42.32,0,0,1,1.8-6.23c2.16-5.82,4.32-11.53,6.5-17.24s4.41-11.53,6.6-17.3c5.56-14.63,11.23-30.31,7.44-46.25-2.34-9.73-8.47-18.79-16.8-25.54a52.79,52.79,0,0,0-18.41-9.7c-14.26-4.1-28.49-2.06-42.75.71-13.92,2.68-27.89,6-42,4.94a78.39,78.39,0,0,1-19.42-4.12,152.11,152.11,0,0,1-23.1-10.46c-7.6-4.1-15.11-8.51-22.26-12.56" transform="translate(-302.23 -12.05)"/><path class="cls-42" d="M737.77,454.92c11.91-27.54,24.2-56.28,26.37-87.27a119.59,119.59,0,0,0-7.94-52.3A87.26,87.26,0,0,0,732,281.16a45.3,45.3,0,0,0-13.84-8.47c-12.11-4.31-25.38-.81-36.75,4.12q-5,2.18-9.81,4.72a138.44,138.44,0,0,0-19.18,12.31,58.66,58.66,0,0,1-7.8,5.18c-5.08,2.74-10.58,4.13-15.31,1-5.28-3.45-5.52-9.95-4.12-16.09a43.24,43.24,0,0,1,2-6.38c2.35-6,4.7-11.89,7.07-17.8s4.78-11.93,7.16-17.9c6-15.12,12.21-31.32,8.66-47.69-2.18-10-8.27-19.27-16.61-26.1A51.05,51.05,0,0,0,615,158.36c-14.41-4-28.85-1.66-43.35,1.45-14.16,3-28.39,6.75-42.78,5.89a77.88,77.88,0,0,1-19.73-3.87,142.05,142.05,0,0,1-23.33-10.38c-7.65-4.13-15.15-8.65-22.35-12.92" transform="translate(-302.23 -12.05)"/><path class="cls-43" d="M733.52,472.28c12.9-28.51,26.09-57.93,28.9-89.51,1.58-17.69-.65-36.38-7.26-53a85.2,85.2,0,0,0-24.33-34.37A44.73,44.73,0,0,0,716.76,287c-12.33-4.17-25.87-.34-37.48,5q-5.12,2.34-10,5.07a142.73,142.73,0,0,0-19.56,13.08,61.63,61.63,0,0,1-7.92,5.49c-5.16,2.9-10.74,4.42-15.51,1.31-5.32-3.47-5.45-10.08-3.9-16.35a46.15,46.15,0,0,1,2.18-6.55q3.81-9.19,7.64-18.34l7.73-18.5c6.52-15.63,13.18-32.34,9.88-49.14-2-10.27-8.07-19.74-16.43-26.67a49.79,49.79,0,0,0-18.66-9.76c-14.56-3.93-29.2-1.25-43.94,2.2-14.39,3.36-28.88,7.45-43.51,6.84a78,78,0,0,1-20-3.62,133.57,133.57,0,0,1-23.56-10.31c-7.69-4.15-15.19-8.79-22.44-13.26" transform="translate(-302.23 -12.05)"/><path class="cls-44" d="M728.53,490.68c13.89-29.46,28-59.57,31.44-91.73s-5.48-67.33-31.09-88.36a44.2,44.2,0,0,0-14.3-8.3c-12.55-4.05-26.36.12-38.2,5.81a148.09,148.09,0,0,0-30.16,19.27c-6.81,5.62-16.29,12.22-23.73,7.38s-4.73-15.49-1.33-23.31l16.5-38c7-16.14,14.17-33.37,11.1-50.6s-17.33-32.39-35-37c-29.06-7.6-58.67,11.48-88.78,10.73-24.48-.62-46.3-14.15-66.66-27.22" transform="translate(-302.23 -12.05)"/><use width="212.48" height="219.22" transform="translate(264.21 149.88) scale(0.91)" xlink:href="#New_Symbol"/></svg>