<svg id="Layer_1" data-name="Layer 1" xmlns="http://www.w3.org/2000/svg" viewBox="0 0 839.76 761.22"><defs><style>.cls-1{fill:#eef;}.cls-2{fill:#2b444e;}.cls-3{fill:#e1e1e1;}.cls-4{fill:#9696d6;}.cls-5{fill:#16282d;}.cls-6{fill:#dcdcdc;}.cls-7{fill:#e23359;}.cls-8{fill:#ff4e6c;}.cls-9{fill:#b4b4ef;}.cls-10,.cls-22,.cls-23,.cls-39{fill:none;}.cls-10,.cls-23,.cls-24,.cls-39{stroke:#fff;}.cls-10,.cls-22,.cls-23,.cls-24,.cls-39{stroke-miterlimit:10;}.cls-11{fill:#fff;}.cls-12{fill:#1a2e36;}.cls-13{fill:#5252ba;}.cls-14{fill:#f4f8fc;}.cls-15{fill:#c26358;}.cls-16{fill:#1a2e35;}.cls-17{fill:#ffbf9d;}.cls-18{fill:#ffaba1;}.cls-19{fill:#00448e;}.cls-20{fill:#203391;}.cls-21{fill:#fa7166;}.cls-22{stroke:#1a2e36;}.cls-23{stroke-width:0.75px;}.cls-24{fill:#223c44;}.cls-25{fill:#385b64;}.cls-26{fill:#333;}.cls-27{fill:#d1945d;}.cls-28{fill:#c18859;}.cls-29{fill:#2d2d2d;}.cls-30{fill:#260e08;}.cls-31{fill:#ea476a;}.cls-32{fill:#dd9373;}.cls-33{fill:#89705d;}.cls-34{fill:#c17e67;}.cls-35{fill:#385962;}.cls-36,.cls-37{fill:#152428;}.cls-37{opacity:0.74;isolation:isolate;}.cls-38{fill:#91b3fa;}.cls-39{stroke-width:3px;}.cls-40{fill:#ffb93e;}.cls-41{fill:#375a64;}.cls-42{fill:#3d6a75;}.cls-43{fill:#ff8772;}</style></defs><title>illusztraciologouj2</title><path class="cls-1" d="M662,645.31c16.5-10.9,46.5-31.2,50.6-62.2,4-30.5-21.2-40-23.9-74.1-3.6-45.9,40-57.2,51.5-110.7,11.6-54-20.2-102-30.4-117.5-32-48.4-64.1-47.6-131.6-98.8-86.8-65.9-8.5-110.6-72.5-148.6S280-9.09,209.4,29.71c-43.5,23.9-25.5,44.3-104,135.4C48.3,231.31,22,240,7.9,286.91c-3.6,12.1-21.6,71.8,11,117.5,28.8,40.2,69.9,31.9,84.6,67.3,15.5,36.9-22.9,61.6-15.6,103.9,8.1,47,65.3,74.9,104.9,93.7C376.2,755.91,581.5,698.41,662,645.31Z" transform="translate(0.29 -2.68)"/><rect class="cls-2" x="354.39" y="588.32" width="86" height="6.3"/><path class="cls-3" d="M448.1,117.9h24a11.5,11.5,0,0,1,11.5,11.5v157a11.5,11.5,0,0,1-11.5,11.5h-24a11.5,11.5,0,0,1-11.5-11.5v-157A11.57,11.57,0,0,1,448.1,117.9Z" transform="translate(0.29 -2.68)"/><path class="cls-4" d="M820.1,88.9h-301a20.53,20.53,0,0,0-20.5,20.5V398.2a24.75,24.75,0,0,0,24.7,24.7H814a24.75,24.75,0,0,0,24.7-24.7h0V107.4a18.54,18.54,0,0,0-18.6-18.5Z" transform="translate(0.29 -2.68)"/><path class="cls-5" d="M176.4,390.3s2.5,10.2,4.6,20.9,11.4,32.7,12.3,32.9-3.9-23.7-7.2-33.9-7.4-20.4-7.4-20.4Z" transform="translate(0.29 -2.68)"/><polygon class="cls-6" points="176.49 387.42 177.89 394.62 181.69 393.42 179.09 386.82 176.49 387.42"/><path class="cls-5" d="M176.2,390.1c-2.7-4.8-1.5-11-1.5-11s5.1,4.4,4.1,10.3Z" transform="translate(0.29 -2.68)"/><path class="cls-7" d="M17.5,523.6a6.39,6.39,0,0,0,1.5,1.3l4.4,3.4c1.9,1.5,4.3,3.3,7,5.5s5.8,4.6,9.1,7.4c6.7,5.5,14.4,12.4,22.7,20.4s17,17.1,25.8,27.1,16.5,20,23.3,29.3,12.5,17.9,17,25.3c2.4,3.7,4.3,7.1,6.1,10s3.3,5.5,4.4,7.7l2.8,4.9a16.29,16.29,0,0,0,1.1,1.7,14.17,14.17,0,0,0-.8-1.8c-.6-1.3-1.5-2.9-2.5-5s-2.5-4.8-4.2-7.8-3.6-6.5-5.9-10.2c-4.5-7.5-10.2-16.2-16.8-25.6S97.7,597.7,89,587.6s-17.6-19.1-25.9-27.1-16.2-14.8-23-20.2c-3.3-2.8-6.5-5.2-9.2-7.3s-5.1-3.9-7.1-5.3l-4.6-3.2C18.6,524.2,18,523.8,17.5,523.6Z" transform="translate(0.29 -2.68)"/><path class="cls-7" d="M158.9,480.1a13.4,13.4,0,0,0,.1,2c.1,1.4.3,3.3.5,5.6s.5,5.4.7,8.8.6,7.4.7,11.7c.5,8.7.6,19,.4,30.5s-1,24.1-2.5,37.3-3.5,25.7-5.7,36.9-4.7,21.3-7.1,29.7c-1.1,4.2-2.3,8-3.3,11.3s-1.9,6.2-2.6,8.5-1.3,4-1.7,5.3a13.32,13.32,0,0,0-.5,1.9,14.17,14.17,0,0,0,.8-1.8c.5-1.3,1.1-3.1,1.9-5.3s1.8-5.1,2.9-8.4,2.3-7,3.5-11.2c2.5-8.4,5-18.4,7.4-29.7s4.4-23.8,5.9-37,2.1-25.9,2.4-37.4-.1-21.9-.7-30.6c-.2-4.3-.6-8.3-.9-11.7s-.6-6.4-1-8.8-.6-4.1-.8-5.6A11.8,11.8,0,0,0,158.9,480.1Z" transform="translate(0.29 -2.68)"/><path class="cls-8" d="M63.9,564.7a33,33,0,0,0-21.1-6.2c-2.6.2-5.4.8-6.6,3.1-1.6,3,.6,6.6,3.3,8.8a24.07,24.07,0,0,0,15.9,5.3c5.7-.2,10.2-1.6,14.3-5.5" transform="translate(0.29 -2.68)"/><path class="cls-8" d="M93.2,595.3c-6.8-5.7-19.4-11.7-28.2-11.9a11.28,11.28,0,0,0-4.1.5,4.09,4.09,0,0,0-2.7,3c-.4,2,1.1,3.8,2.6,5.1a34.45,34.45,0,0,0,35.8,6.2" transform="translate(0.29 -2.68)"/><path class="cls-8" d="M116.6,626.2a49.86,49.86,0,0,0-25.2-7.3c-2.1,0-4.4.2-5.8,1.6-2.2,2.3-1.2,6.2.9,8.5,4.2,4.9,11.2,6.3,17.7,6.6,7,.4,16.8-2.4,16.8-2.4" transform="translate(0.29 -2.68)"/><path class="cls-8" d="M131.1,648c-6.4-2.9-13.4-5-20.5-4.9a10.08,10.08,0,0,0-4.5.9,4.18,4.18,0,0,0-2.4,3.6c.1,2.5,2.7,4,5.1,4.7a39.77,39.77,0,0,0,24.6.4" transform="translate(0.29 -2.68)"/><path class="cls-8" d="M125.2,635a147.25,147.25,0,0,1,4.5-28c.4-1.4,1-3.1,2.4-3.5a3.13,3.13,0,0,1,3,1.1,7.1,7.1,0,0,1,1.3,3.1c2.5,11.1-1.1,23.7-8.4,32.3" transform="translate(0.29 -2.68)"/><path class="cls-8" d="M104.9,607.5c.6-8.2,1.1-16.3,1.7-24.5a17.6,17.6,0,0,1,1.4-6.8c1-2.1,3.1-3.9,5.4-3.9s4.4,1.8,5.4,3.9a16.16,16.16,0,0,1,1.1,6.9c0,5.6-.4,11.2-2.3,16.4s-4.1,9.3-9.1,11.8" transform="translate(0.29 -2.68)"/><path class="cls-8" d="M81,577.4a53.34,53.34,0,0,1-.8-28.3,9.48,9.48,0,0,1,2-4.3c2.2-2.3,6.2-1.9,8.7,0a12.92,12.92,0,0,1,4.8,9.3,27.28,27.28,0,0,1-1.5,10.6,64.81,64.81,0,0,1-8.7,17.7" transform="translate(0.29 -2.68)"/><path class="cls-8" d="M56.1,554c-5.1-9.9-5.8-20.7-5.5-31.8.1-2.3.5-5.1,2.6-6.2a4.42,4.42,0,0,1,4.3.4,13.43,13.43,0,0,1,3.1,3.2,34.23,34.23,0,0,1-.4,37.6" transform="translate(0.29 -2.68)"/><path class="cls-8" d="M42.5,543.3a89.57,89.57,0,0,0-9.4-14.2c-3.7-4.3-8.4-8-13.8-9.7a12.61,12.61,0,0,0-7.2-.4A7.07,7.07,0,0,0,7,523.8a7.42,7.42,0,0,0,1.6,6.4,19.58,19.58,0,0,0,5.2,4.3c9.2,5.6,21.2,10.7,28.7,8.8" transform="translate(0.29 -2.68)"/><path class="cls-8" d="M160.1,542.1a32.09,32.09,0,0,0-9.8-19.6c-1.8-1.8-4.3-3.4-6.8-2.8-3.3.8-4.4,5-4.2,8.4a24.08,24.08,0,0,0,6.9,15.2c4,4,8.1,6.4,13.8,6.8" transform="translate(0.29 -2.68)"/><path class="cls-8" d="M157.5,584.4c-.4-8.8-4.6-22.2-10.4-28.8a11.8,11.8,0,0,0-3.2-2.7,4.07,4.07,0,0,0-4,0c-1.7,1.1-2,3.4-2,5.4a34.4,34.4,0,0,0,19.7,30.5" transform="translate(0.29 -2.68)"/><path class="cls-8" d="M150.7,622.5A50.26,50.26,0,0,0,139,599c-1.4-1.5-3.1-3.1-5.1-3.2-3.1-.1-5.3,3.3-5.7,6.4-.8,6.4,3,12.5,7.1,17.5,4.5,5.4,13.2,10.7,13.2,10.7" transform="translate(0.29 -2.68)"/><path class="cls-8" d="M144.5,648c-2.2-6.7-5.4-13.2-10.3-18.3a9.84,9.84,0,0,0-3.7-2.7,4.19,4.19,0,0,0-4.3.7c-1.8,1.7-1.1,4.7,0,6.9,3.6,7.7,8.9,14.1,16.4,18.3" transform="translate(0.29 -2.68)"/><path class="cls-8" d="M150,634.8a161.25,161.25,0,0,1,23.6-15.7c1.3-.7,2.9-1.4,4.2-.6a2.92,2.92,0,0,1,1.2,3,7.27,7.27,0,0,1-1.4,3.1c-6.4,9.4-18.1,15.3-29.5,15.7" transform="translate(0.29 -2.68)"/><path class="cls-8" d="M156.5,601.3l19.2-15.4a19.46,19.46,0,0,1,6-3.7,6.39,6.39,0,0,1,6.5,1.3c1.6,1.7,1.7,4.4.8,6.6a16.44,16.44,0,0,1-4.3,5.5,45.39,45.39,0,0,1-13.6,9.4c-5.1,2.1-9.6,3.3-14.8,1.3" transform="translate(0.29 -2.68)"/><path class="cls-8" d="M162.4,563.2a54.33,54.33,0,0,1,20.3-19.8,8.94,8.94,0,0,1,4.5-1.5c3.2.1,5.6,3.2,6,6.4a12.7,12.7,0,0,1-3.5,9.8,28.36,28.36,0,0,1-8.8,6.1,66.32,66.32,0,0,1-18.9,5.6" transform="translate(0.29 -2.68)"/><path class="cls-8" d="M162.7,529.2c3.8-10.5,11.3-18.3,19.6-25.6,1.8-1.5,4.1-3.1,6.3-2.3a4.35,4.35,0,0,1,2.6,3.4,10.82,10.82,0,0,1-.3,4.4,34.21,34.21,0,0,1-28,25.2" transform="translate(0.29 -2.68)"/><path class="cls-8" d="M161.4,511.9a94.77,94.77,0,0,0,4.1-16.5,30.72,30.72,0,0,0-2.2-16.7,13.28,13.28,0,0,0-4.6-5.6,7,7,0,0,0-7-.5,7.49,7.49,0,0,0-3.6,5.5,17.38,17.38,0,0,0,.4,6.8c1.9,10.5,6.4,22.7,12.9,27" transform="translate(0.29 -2.68)"/><path class="cls-8" d="M727.7,540c8.8-.2,17.3,3.3,24.4,8.4,3.8,2.7,7.6,6.1,8.9,10.6s-.8,10.3-5.4,11.4c-2.7.7-5.6-.4-8.1-1.7-6.1-3-12.3-7.4-19-6.1-3.8.7-7.3,3.3-11.2,2.7s-6.5-4.3-6.8-8.1,1.4-7.5,3.8-10.4A18.17,18.17,0,0,1,727.7,540Z" transform="translate(0.29 -2.68)"/><path class="cls-8" d="M726.8,501.2c1.3,8.2,10.6,10.3,16.3,8.4s10-6.5,14-10.9c9.2-10.2,18.6-20.9,21.9-34.1,1-4,1.4-8.2.2-12.1s-4.3-7.4-8.3-8.2c-4.7-.9-9.4,1.9-13.2,4.9a96.45,96.45,0,0,0-26.6,32.9c-2.9,5.9-5.2,12.5-4.3,19.1" transform="translate(0.29 -2.68)"/><path class="cls-8" d="M710.7,504.2c7.3-3.3,12.2-10.9,13.5-18.8s-.5-16.1-3.6-23.5a73.51,73.51,0,0,0-15.5-23.4c-2.6-2.6-5.5-5.1-9-6.4s-7.6-1.2-10.6,1c-4.4,3.3-4.8,9.6-4.5,15.1a183.19,183.19,0,0,0,3.7,28.7c1.6,7.6,3.8,15.4,9.2,21.1s12.2,8.7,17.9,5.8" transform="translate(0.29 -2.68)"/><path class="cls-7" d="M681.5,593.5a15.1,15.1,0,0,0,1.8-2.6l4.4-7.2a125.1,125.1,0,0,1,7.1-10.3,100.91,100.91,0,0,1,10.5-11.2,51.86,51.86,0,0,1,12.5-8.7,26.13,26.13,0,0,1,11.9-2.9,25.14,25.14,0,0,1,8.2,1.3,17.6,17.6,0,0,0,3,1,10.49,10.49,0,0,0-2.8-1.4,24.2,24.2,0,0,0-8.4-1.7,28.11,28.11,0,0,0-12.4,2.8,53.59,53.59,0,0,0-12.9,8.8,87.08,87.08,0,0,0-10.5,11.4,107.86,107.86,0,0,0-7,10.6c-1.8,3.1-3.2,5.7-4.1,7.5A7.9,7.9,0,0,0,681.5,593.5Z" transform="translate(0.29 -2.68)"/><path class="cls-7" d="M684.9,587.9a5.39,5.39,0,0,0,.7-1.3l1.8-3.7c1.5-3.2,3.8-7.8,6.8-13.5,5.9-11.3,12.9-23.2,23.2-39.6,9.8-15.5,21.5-33.3,30-44.4,1.9-2.5,3.7-4.8,5.3-6.8s2.9-3.7,4.1-5l2.6-3.2a3.6,3.6,0,0,0,.8-1.2,4.74,4.74,0,0,0-1,1l-2.8,3c-1.2,1.3-2.6,3-4.3,4.9s-3.5,4.2-5.5,6.7a460.57,460.57,0,0,0-28.7,40.8A480.44,480.44,0,0,0,693.3,569c-2.9,5.7-5,10.4-6.4,13.7l-1.6,3.7A4.19,4.19,0,0,0,684.9,587.9Z" transform="translate(0.29 -2.68)"/><path class="cls-7" d="M699.8,557.3a23.22,23.22,0,0,0,1.8-3.9,110.7,110.7,0,0,0,3.9-11,165.77,165.77,0,0,0,4-16.9,149.78,149.78,0,0,0,2.4-21.1c.8-15.1-1.4-28.8-4.5-38.2A66.22,66.22,0,0,0,705,460c-.4-.9-.7-1.8-1.1-2.5l-1.1-2a27.74,27.74,0,0,0-2.2-3.7c-.3.2,3.1,5.3,6,14.7s4.9,22.9,4.1,37.9a164.45,164.45,0,0,1-2.3,21c-1.1,6.4-2.5,12.1-3.7,16.8s-2.6,8.5-3.5,11.1A27,27,0,0,0,699.8,557.3Z" transform="translate(0.29 -2.68)"/><path class="cls-9" d="M516.3,83.9H806.9a24.75,24.75,0,0,1,24.7,24.7V393.2a24.75,24.75,0,0,1-24.7,24.7H516.3a24.75,24.75,0,0,1-24.7-24.7V108.6A24.75,24.75,0,0,1,516.3,83.9Z" transform="translate(0.29 -2.68)"/><line class="cls-10" x1="499.69" y1="280.12" x2="581.29" y2="399.42"/><rect class="cls-11" x="497.73" y="281.07" width="4.7" height="4.5" transform="translate(-72.33 329.21) rotate(-34.38)"/><rect class="cls-11" x="579.7" y="400.96" width="4.7" height="4.5" transform="translate(-125.71 396.45) rotate(-34.38)"/><rect class="cls-11" x="538.49" y="339.89" width="9.6" height="9.3" transform="translate(-99.35 364.31) rotate(-34.38)"/><path class="cls-12" d="M512.1,83.9h301a18.52,18.52,0,0,1,18.5,18.5h0v11.5h-340v-9.5a20.53,20.53,0,0,1,20.5-20.5Z" transform="translate(0.29 -2.68)"/><circle class="cls-13" cx="520.39" cy="95.72" r="8.5"/><circle class="cls-3" cx="546.59" cy="96.02" r="6.2"/><circle class="cls-14" cx="591.99" cy="96.42" r="6.2"/><circle class="cls-13" cx="569.99" cy="96.42" r="6.2"/><path class="cls-15" d="M475.6,340.6s17-3.6,17.9-3.5.8,1.4.7,2.4a8.65,8.65,0,0,1-.7,1.7c-1.2,2.6-3.1,7.3.4,8.1,4.6,1.1,9-9.4,9.4-11.1a5,5,0,0,0-.3-2.4c-.8-2.8-2.9-6.8-6.3-7.6-4.6-1.2-9.8-.3-14.3.2Z" transform="translate(0.29 -2.68)"/><path class="cls-16" d="M475.6,340.6s17-3.6,17.9-3.5.8,1.4.7,2.4a8.65,8.65,0,0,1-.7,1.7c3.4-1.9,7.2-4,9.6-5.4-.8-2.8-2.9-6.8-6.3-7.6-4.6-1.2-9.8-.3-14.3.2Z" transform="translate(0.29 -2.68)"/><path class="cls-17" d="M472.6,364.5c.9-.5,9-3.9,15.1-6.4,1.4-4.9,5.4-14.4,6.4-16.9.7-3,3.8-9,4.1-8.9.5.2,2.4,1,4.7,1.8,3,1,6.9,2,9.6,1.7a3.43,3.43,0,0,0,3.1-1.9c.9-2-3.5-4.1-8.5-7.1-6.8-4-15.4-8.5-19.4-7.1-5.9,2.1-11.5,9.8-13.4,11.9s-11.3,9.2-11.3,9.2C461,356,471.4,365.2,472.6,364.5Z" transform="translate(0.29 -2.68)"/><path class="cls-18" d="M393.7,363.9c8.2,7.1,40.6,27.9,50.2,24.4,15.2-5.5,29.5-17.5,37.4-23.8,2.5-2-17.7-26-22.2-21.6-5.7,5.7-18.2,15.1-22.1,16.9-2.7,1.2-23.8-4.5-38.5-8.3C386.3,348.2,383.3,354.9,393.7,363.9Z" transform="translate(0.29 -2.68)"/><path class="cls-8" d="M433.3,357.5s3.7,4.3,12.1-3.2l14.7-12.5L482.8,363,446,372.9Z" transform="translate(0.29 -2.68)"/><path class="cls-8" d="M416.7,382.1s24.1,24.7,66.2-19.5l-8.1-7Z" transform="translate(0.29 -2.68)"/><polygon class="cls-13" points="541.09 343.62 526.79 348.52 521.79 343.42 523.69 335.32 530.49 333.02 541.09 343.62"/><rect class="cls-19" x="517.17" y="340.63" width="8.3" height="2.3" transform="translate(68.57 767.28) rotate(-76.63)"/><rect class="cls-19" x="527.59" y="342.38" width="2.3" height="2.3" transform="translate(72.57 775.84) rotate(-76.63)"/><path class="cls-13" d="M521.3,337.5l-44.1-8.4s-4.3,1.1-1.1,3.8,43.3,12.8,43.3,12.8" transform="translate(0.29 -2.68)"/><path class="cls-17" d="M487.7,358.2c2.1-.9,4-1.6,5.3-2a16.47,16.47,0,0,0,9.2-7.6c1.9-3.1,12.2-6.9,6.9-9.8s-14,5.4-15,4.1a2,2,0,0,1,0-1.5C493.1,343.8,489.1,353.2,487.7,358.2Z" transform="translate(0.29 -2.68)"/><path class="cls-17" d="M494.7,339.4c.1-.1.2-.1,0,0-.1.6-.7,2.7-.2,2.9.8.4,5.5-2.5,7.7-3.4.1,0,.2.1.1.1-1.1.5-2.1,1.1-3.2,1.7s-3.9,2.5-4.9,2C493.5,342.6,494.5,339.9,494.7,339.4Z" transform="translate(0.29 -2.68)"/><line class="cls-10" x1="530.19" y1="341.02" x2="541.69" y2="343.82"/><ellipse class="cls-9" cx="413.39" cy="712.22" rx="309.5" ry="49"/><path class="cls-20" d="M615.9,508.2" transform="translate(0.29 -2.68)"/><path class="cls-21" d="M485.6,638.9v0Z" transform="translate(0.29 -2.68)"/><path class="cls-12" d="M444.1,114.9h24a11.5,11.5,0,0,1,11.5,11.5v157a11.5,11.5,0,0,1-11.5,11.5h-24a11.5,11.5,0,0,1-11.5-11.5v-157A11.57,11.57,0,0,1,444.1,114.9Z" transform="translate(0.29 -2.68)"/><polygon class="cls-11" points="453.49 157.22 452.89 172.22 457.69 168.42 463.69 167.92 453.49 157.22"/><polygon class="cls-10" points="453.49 132.02 452.99 146.02 457.39 142.42 462.99 142.02 453.49 132.02"/><polygon class="cls-11" points="452.79 195.62 462.89 192.02 463.49 186.92 458.79 183.22 453.99 185.02 452.79 195.62"/><rect class="cls-12" x="457.18" y="190.55" width="1.6" height="1.6" transform="translate(24.81 430.48) rotate(-51.83)"/><line class="cls-22" x1="457.79" y1="189.32" x2="452.59" y2="195.92"/><rect class="cls-11" x="461.52" y="182.89" width="2.4" height="5.7" transform="translate(31.03 432.06) rotate(-51.83)"/><polygon class="cls-11" points="452.69 219.42 462.69 215.82 463.29 210.72 458.59 207.12 453.79 208.82 452.69 219.42"/><rect class="cls-12" x="457.11" y="214.36" width="1.6" height="1.6" transform="translate(6.07 439.52) rotate(-51.83)"/><line class="cls-22" x1="457.59" y1="213.12" x2="452.39" y2="219.72"/><rect class="cls-11" x="461.3" y="206.71" width="2.4" height="5.7" transform="translate(12.22 440.99) rotate(-51.83)"/><path class="cls-23" d="M443.6,208.9s5-1,5,3-2,6,3,10" transform="translate(0.29 -2.68)"/><rect class="cls-24" x="450.39" y="231.72" width="16" height="13"/><path class="cls-11" d="M452.6,268.9l7.4-9.3a2.43,2.43,0,0,1,2.1-.9,1.64,1.64,0,0,1,1.2.8,1.84,1.84,0,0,1-.2,2l-7.5,9.3-3-1.9" transform="translate(0.29 -2.68)"/><path class="cls-11" d="M451.6,270.9s-2,0-3,3a3.1,3.1,0,0,1-3.9,2h-.1a11,11,0,0,0,8.1-.6,2.32,2.32,0,0,0,.9-3.2,2.16,2.16,0,0,0-2-1.2Z" transform="translate(0.29 -2.68)"/><polygon class="cls-25" points="376.69 535.52 373.39 556.12 341.69 725.12 332.39 725.12 357.39 557.12 360.09 535.52 376.69 535.52"/><path class="cls-25" d="M464.1,727.8h-9.3L423.1,562.2c-.4-2.3-.7-5.1-1-7.4l-2.3-16.5h16.6l2.7,20.5Z" transform="translate(0.29 -2.68)"/><polygon class="cls-2" points="356.39 564.12 371.39 566.12 376.89 535.52 360.39 535.12 356.39 564.12"/><polygon class="cls-2" points="440.39 564.12 424.39 564.12 419.99 535.52 436.39 535.12 440.39 564.12"/><rect class="cls-25" x="349.49" y="514.62" width="101.8" height="21.1"/><path class="cls-17" d="M619.9,681.4c-3.2,1.4-97.1,9.6-100.9,7.6-1.4-.7-3.4-14.3-5.4-30.9-.4-3.6-.8-7.3-1.2-11-2.6-24.3-4.8-50.2-4.8-50.2l62.8-5.7,3.1,50.3.7,11s37.4,13,41.3,15.5S623.1,680,619.9,681.4Z" transform="translate(0.29 -2.68)"/><path class="cls-11" d="M619.9,681.4c-3.2,1.4-97.1,9.6-100.9,7.6-1.8-.9-4.3-20.8-6.6-41.9l61.1-5.5.7,11s37.4,13,41.3,15.5S623.1,680,619.9,681.4Z" transform="translate(0.29 -2.68)"/><path class="cls-26" d="M619.9,681.4c-3.2,1.4-98,8.3-101.8,6.4-1.4-.7-2.5-13.1-4.5-29.6l60.6-5.5s37.4,13,41.3,15.5S623.1,680,619.9,681.4Z" transform="translate(0.29 -2.68)"/><path class="cls-16" d="M618.3,677.7c-15.8,1-79.3,6.4-94.9,8.6-.1,0-.1.1,0,.1,15.7-.6,79.2-6.6,94.9-8.5C618.6,678,618.6,677.7,618.3,677.7Z" transform="translate(0.29 -2.68)"/><path class="cls-11" d="M609.2,665.4a12.76,12.76,0,0,0-9.1,4.7,12.49,12.49,0,0,0-2.8,8.7c0,.1.2.1.2,0a14.66,14.66,0,0,1,11.7-13.2.1.1,0,0,0,.1-.1l-.1-.1Z" transform="translate(0.29 -2.68)"/><path class="cls-11" d="M580.5,653.7c-6.3.5-13.4,3.3-16.9,8.8-.1.2.2.4.3.3a90.07,90.07,0,0,1,16.7-8.4c.2-.1.3-.4.2-.5S580.6,653.7,580.5,653.7Z" transform="translate(0.29 -2.68)"/><path class="cls-11" d="M585.5,655.2c-6.3.5-13.4,3.3-16.9,8.8-.1.2.2.4.3.3a83.86,83.86,0,0,1,16.7-8.3c.2,0,.3-.3.3-.5s-.2-.4-.4-.3Z" transform="translate(0.29 -2.68)"/><path class="cls-11" d="M590.5,656.7c-6.3.5-13.4,3.3-16.9,8.8-.1.2.2.4.3.3a89.61,89.61,0,0,1,16.7-8.3.38.38,0,0,0,.3-.5C590.8,656.8,590.7,656.6,590.5,656.7Z" transform="translate(0.29 -2.68)"/><path class="cls-11" d="M595.6,658.1c-6.3.5-13.4,3.3-16.9,8.8-.1.2.2.4.3.3a83.86,83.86,0,0,1,16.7-8.3.37.37,0,0,0,.2-.5A.32.32,0,0,0,595.6,658.1Z" transform="translate(0.29 -2.68)"/><path class="cls-17" d="M504.9,724.8c-3.5.2-94.5-24.3-97.4-27.4-1.1-1.2,1.7-14.7,5.5-30.8.8-3.5,1.7-7.1,2.6-10.8,5.9-23.7,12.7-48.8,12.7-48.8l61,16.2-14.4,48.3-3.1,10.6s30.7,25,33.5,28.7S508.3,724.6,504.9,724.8Z" transform="translate(0.29 -2.68)"/><path class="cls-11" d="M504.9,724.8c-3.5.2-94.5-24.3-97.4-27.4-1.3-1.5,3.1-21,8.2-41.6L475,671.6l-3.1,10.6s30.7,25,33.5,28.7S508.3,724.6,504.9,724.8Z" transform="translate(0.29 -2.68)"/><path class="cls-27" d="M368.1,249.9s-20-3.8-24.7,15.2-26.6,57.1-26.6,57.1l23.8-19" transform="translate(0.29 -2.68)"/><path class="cls-27" d="M365.2,250.8s12.4-3.8,19,1.9,12.7,19.5,9.2,43.1" transform="translate(0.29 -2.68)"/><path class="cls-27" d="M387,264.7s4.8,30.9,20.1,48.9,8.7,35.8,8.7,35.8l-1.2-1.2s5.8-16.6-8.5-33.7-18.3-44.3-18.3-44.3" transform="translate(0.29 -2.68)"/><path class="cls-28" d="M384.3,359.3s9.5,4.8,24.7-9.5-35.1-13-35.1-13Z" transform="translate(0.29 -2.68)"/><polygon class="cls-27" points="348.39 268.12 335.09 311.92 394.99 324.32 395.99 301.42 393.09 282.42 388.39 258.62 377.89 252.92 371.19 250.12 349.29 262.42 348.39 268.12"/><path class="cls-29" d="M317.9,435.4c-10.8,23.4-6.2,51.2,12.5,69,.5.5,1.1,1,1.7,1.6,34.3,31.4,110.4,21.9,110.4,21.9s-2.8,20.9-4.7,37.1-29.5,82.7-29.5,82.7L483.5,661s39-79.9,22.8-121.8-102.8-65.7-102.8-65.7,3.8-20.9-4.8-37.1c0,0-29.5,9.5-78-9.5A32.61,32.61,0,0,1,317.9,435.4Z" transform="translate(0.29 -2.68)"/><path class="cls-29" d="M398.8,436.5l104.3,25a44,44,0,0,1,21,11.5,31.74,31.74,0,0,1,8.9,14.9c3.8,16.2,53.3,148.5,53.3,148.5l-76.1,6.7s-23.8-77.1-20.9-119l-85.6-50.4C403.5,473.5,387.3,451.6,398.8,436.5Z" transform="translate(0.29 -2.68)"/><path class="cls-30" d="M510.1,642.9s-29.5-98-23.8-124.7c0,0-106.6,32.3-151.4-9.5,0,0,48.5,39,155.2,1.9,0,0-5.8,35.1,31.4,131.3Z" transform="translate(0.29 -2.68)"/><path class="cls-16" d="M519.6,668.6" transform="translate(0.29 -2.68)"/><path class="cls-16" d="M521.5,627.7s20.9,4.8,51.4-1.9c0,0-20,10.5-48.5,7.6Z" transform="translate(0.29 -2.68)"/><path class="cls-16" d="M540.6,663.9" transform="translate(0.29 -2.68)"/><path class="cls-16" d="M442.5,527.8s-18.1,79-34.3,119.9l10.5,1.9s28.4-72.7,29.4-122.9Z" transform="translate(0.29 -2.68)"/><path class="cls-30" d="M481.7,519.6s4.6,86.3-29.7,133.8l-1,1.9,32.4,5.8s15.7-35.8,18.3-47.9c0,0-18.3-62.5-15.5-94.8Z" transform="translate(0.29 -2.68)"/><path class="cls-16" d="M419.8,629.8s18.2,11.3,49.2,15c0,0-22.3,3.4-48.4-8.6Z" transform="translate(0.29 -2.68)"/><path class="cls-18" d="M380.5,317.1c29,22.4,55.4,48,58.4,63,2,9.5-5.3,24.7-10.6,33.7-2.6,4.4-43.5-21.8-39.1-25,10.8-8,13-11.6,12.3-13.7-.4-1.4-29.9-38-37.3-53.5C354,300,367.8,307.3,380.5,317.1Z" transform="translate(0.29 -2.68)"/><path class="cls-8" d="M314.8,407.9c5.7-1.9,75.8,13.3,76.8,12.5,1.3-1.2-7.3-88.4-20.7-110-3.4-5.4-19.1-9.4-26.2-2.1C317.3,336.6,313.7,408.2,314.8,407.9Z" transform="translate(0.29 -2.68)"/><path class="cls-18" d="M364.7,429c3.8,3.1,10.6-6.8,10.6-6.8a8.76,8.76,0,0,0,1.5,5.9c2.2,3,7.8.8,7.8.8a10.5,10.5,0,0,0,2.6,6c2.4,2.6,8.4,1.3,8.4,1.3a9.78,9.78,0,0,0,5.6,3.9c6.1,1.3,12.7-5.5,17-9.9s12.3-20.5,14.1-23.4l-27.5-27.5S380.3,393.2,376,399C372.3,403.8,359,424.3,364.7,429Z" transform="translate(0.29 -2.68)"/><path class="cls-16" d="M375.2,422.1c2.6-6.1,6.6-11.6,10.6-16.8.1-.1.3,0,.2.1-4,5.2-6.7,11.5-10.5,16.8,0,.1-.1.1-.2.1s-.1-.2-.1-.2Z" transform="translate(0.29 -2.68)"/><path class="cls-16" d="M384.3,428.5a13.59,13.59,0,0,1,2.7-3.6c1-1.2,2.1-2.4,3.1-3.6,2.1-2.4,4.3-4.7,6.6-7,.1-.1.3,0,.2.1-2.1,2.4-4.2,4.8-6.2,7.3-1,1.2-2,2.5-3,3.7a24.33,24.33,0,0,1-3,3.4.19.19,0,0,1-.3-.1C384.3,428.6,384.3,428.6,384.3,428.5Z" transform="translate(0.29 -2.68)"/><path class="cls-16" d="M395.6,436.1a9.79,9.79,0,0,1,2.6-3.1c1-1.1,2-2.1,3-3.2,2-2.1,3.9-4.3,5.8-6.5.1-.1.3,0,.2.1-1.9,2.3-3.8,4.6-5.7,6.8-.9,1.1-1.9,2.2-2.9,3.3a12.4,12.4,0,0,1-2.8,2.8A.22.22,0,0,1,395.6,436.1Z" transform="translate(0.29 -2.68)"/><path class="cls-18" d="M338.9,310.6c-44.7,22.5-86.2,57.4-85.3,71,1,14.4,29.7,29.3,53.1,36.8,4.8,1.5,22.3-26.5,17.6-29-3.7-2-20.6-10.3-22.3-13.1-1.2-2,33.6-36,46.3-54.7C361.6,301.9,350.9,304.6,338.9,310.6Z" transform="translate(0.29 -2.68)"/><path class="cls-17" d="M314.5,386.5s14.8,4.2,24.3,7.4c5.3,1.8,14.1,5.7,17.4,8.8,4.9,4.6,22.6,27.2,17.2,31.6-4.9,4-9.6-4.6-9.6-4.6s6,8.9,0,11.3-11.2-9.2-11.2-9.2,7.1,9,.4,11c-5.8,1.8-13.1-11.1-13.1-11.1s8.5,8.6,2.7,11c-4.4,1.8-12.1-6.1-16.5-11.2a35.61,35.61,0,0,0-8.4-7.1c-10.2-6.1-18.1-11.6-23.7-17.1C292.7,405.9,314.5,386.5,314.5,386.5Z" transform="translate(0.29 -2.68)"/><path class="cls-8" d="M329.3,389.5s-5.6,22.3-21.3,28.8c-12.2,5.1-41.4-16.4-53.2-25.6-7.3-5.7-7.8-15-2.4-22.4.4-.5.8-1.1,1.3-1.7,2.3-2.7,8.1-7.6,15.8-13.5,4.4-3.4,9.4-7.1,14.7-10.9,24.5-17.6,55.9-37.6,66.2-39.2,0,0,2.9-1.1,2.9,8.6,0,13.8-48.1,58.3-48.1,58.3S298,377.8,329.3,389.5Z" transform="translate(0.29 -2.68)"/><path class="cls-8" d="M437.5,375.7l-35.9-.7-19.4-24s-4.6-24.3-11-40.3c.4.3,11.5,7.8,24.7,18.4,4.8,3.9,9.9,8.2,14.9,12.7C422.8,352.9,433.9,365.2,437.5,375.7Z" transform="translate(0.29 -2.68)"/><path class="cls-31" d="M308.8,368.5s-10.7,6-17.4,4.1a13.24,13.24,0,0,0,14.8,4.7C306.3,377.3,302.4,372.9,308.8,368.5Z" transform="translate(0.29 -2.68)"/><path class="cls-31" d="M314.7,362.8s17.7-10.7,23.4-24Z" transform="translate(0.29 -2.68)"/><path class="cls-31" d="M351.4,304s5.6,8.9-2.9,21.1-9.9,12.3-8.7,11.3,12-18.4,7.8-30.5l3.8-1.9" transform="translate(0.29 -2.68)"/><path class="cls-31" d="M338.1,338.8s-21.9,30.9-8.6,50.9c0,0-8.9-2.5-12.9-5.6L314.2,363Z" transform="translate(0.29 -2.68)"/><path class="cls-31" d="M258.1,393.8c3.2,2.3,12.7,6.4,33.4-3.2,0,0-9.1,13.3-25.2,10.6L253,390.7l.8.4A50.75,50.75,0,0,1,258.1,393.8Z" transform="translate(0.29 -2.68)"/><path class="cls-31" d="M401.4,367.9s7.1,9.4,20.5.8l-7.3,6.6-12.7.1Z" transform="translate(0.29 -2.68)"/><path class="cls-31" d="M371.2,311.5c7.4,12.2,12.2,41,12.2,41s13.8,17.1,14.7,18.1,6.3,2,6.3,2c-5.2-9.5-22.9-29.3-22.9-29.3" transform="translate(0.29 -2.68)"/><path class="cls-5" d="M380.6,333.5" transform="translate(0.29 -2.68)"/><path class="cls-31" d="M331.9,353.6s9.5,11.4,22.8,2.9c0,0-6.6,13.1-26.6-1l-1.9-1,4.7-7.1C330.9,347.5,330,351.7,331.9,353.6Z" transform="translate(0.29 -2.68)"/><path class="cls-31" d="M326.9,358.7s18.4,12.1,27.9-2.2c0,0-9.6,12.3-26.6-1.9Z" transform="translate(0.29 -2.68)"/><path class="cls-17" d="M363.2,321.8c-3.9-.5-10.8-9.2-12.9-15.9-.1-.5,1.4-4.7,3-9.9,1-3.2,1.9-6.7,2.6-10.1l19.8,9.2a54.36,54.36,0,0,0-4.6,12.4,6.6,6.6,0,0,0-.1,1.4v.2C370.9,311.7,369.3,322.6,363.2,321.8Z" transform="translate(0.29 -2.68)"/><path class="cls-32" d="M371,308.8v.2l-2.2-.3c-12-2.7-12-18.1-11.8-22.3l18.7,8.7a54.36,54.36,0,0,0-4.6,12.4A5.7,5.7,0,0,0,371,308.8Z" transform="translate(0.29 -2.68)"/><path class="cls-17" d="M354.1,263.5c-2.5,7.5.9,29.3,6.1,34.3,7.6,7.2,20.2,8.3,26.5-.9,6-8.9,1.1-37.3-4.7-41.8C373.3,248.4,357.8,252.5,354.1,263.5Z" transform="translate(0.29 -2.68)"/><path class="cls-16" d="M373.7,277.2l-.1.1c.3,1.5.5,3.2-.8,3.9m0,.2c1.6-.5,1.4-2.8.9-4.1Z" transform="translate(0.29 -2.68)"/><path class="cls-16" d="M372.1,275.9c-2.4.3-1.6,5,.5,4.8S374.1,275.7,372.1,275.9Z" transform="translate(0.29 -2.68)"/><path class="cls-16" d="M381.9,275.7c0-.1.1,0,.1.1.2,1.5.6,3.1,2,3.4,0,0,.1.1,0,.1C382.4,279.3,381.8,277.1,381.9,275.7Z" transform="translate(0.29 -2.68)"/><path class="cls-16" d="M383,273.9c2.3-.5,3.3,4.2,1.1,4.7S381,274.4,383,273.9Z" transform="translate(0.29 -2.68)"/><path class="cls-17" d="M358.3,281.4c.1,0-4.4-7.2-8.1-5.3-3.2,1.7.4,11.9,4.2,13.4a3.79,3.79,0,0,0,5.1-1.9.1.1,0,0,1,.1-.1Z" transform="translate(0.29 -2.68)"/><path class="cls-32" d="M351.3,278h0v.1c2.6,1.1,4,3.5,4.9,6.1a2.14,2.14,0,0,0-2.9-.8c-.1.1-.2.1-.3.2v.1h.1a2.38,2.38,0,0,1,2.6.8,11.25,11.25,0,0,1,1.2,2.1c.1.2.5.1.5-.2v-.1C357.5,283.1,354.9,278.4,351.3,278Z" transform="translate(0.29 -2.68)"/><path class="cls-17" d="M385.4,294.3a2,2,0,0,0-1.8-2.2h-4.4c-3,0-8.7.8-8.8,1.5-.3,1.6-.3,7.7,11.9,4.6A4.54,4.54,0,0,0,385.4,294.3Z" transform="translate(0.29 -2.68)"/><path class="cls-16" d="M381.1,292.2s-3.9,2.5-8,.6C373.1,292.8,377.5,297.8,381.1,292.2Z" transform="translate(0.29 -2.68)"/><path class="cls-27" d="M354.1,276.8l4.4,4.5S355.9,262.2,369,258a9.48,9.48,0,0,0,3.8-2.4h0a22.62,22.62,0,0,0,6.5,4.6,17.81,17.81,0,0,1,9.4,11.2c3,12,6.8,33.7.7,52.6l16.3,13.7,7,5.9s-2.8-21.5-11.3-34.8c-4.3-6.7-9.1-30.2-10.1-40.4a21.35,21.35,0,0,0-6.7-13.8,18.73,18.73,0,0,0-16.6-4.8s-23.8,0-23.8,23.8-27.9,48.8-27.9,48.8,19.6-12.5,30-16.3c0,0,3.3-.6,4.4-2.2s4-14,4-14a14.49,14.49,0,0,1-5.8-11.5s.2-3.4,3.2-2.6A4.21,4.21,0,0,1,354.1,276.8Z" transform="translate(0.29 -2.68)"/><path class="cls-20" d="M425,276.5" transform="translate(0.29 -2.68)"/><path class="cls-20" d="M386.2,262.3" transform="translate(0.29 -2.68)"/><path class="cls-28" d="M372.1,303.5a31.43,31.43,0,0,0-1.3,6.8s20.2,14.9,24.4,18.6c0,0-11.2-18.2-6.8-36.3C388.5,292.7,386.7,303.9,372.1,303.5Z" transform="translate(0.29 -2.68)"/><path class="cls-33" d="M373.6,271.9a1.93,1.93,0,0,1,1,2.6.1.1,0,0,1-.1.1s-5.6-1.9-8.4.9l-1.9.9a11,11,0,0,1,4.6-3.7A26.73,26.73,0,0,1,373.6,271.9Z" transform="translate(0.29 -2.68)"/><path class="cls-33" d="M380,271a1.69,1.69,0,0,0,0,2.3h.1s3.6-3,6.5-1.6l1.7.2a8.94,8.94,0,0,0-4.5-1.5A12.09,12.09,0,0,0,380,271Z" transform="translate(0.29 -2.68)"/><path class="cls-33" d="M378.6,279.5s2.9,3.8,2.9,6.7-4.8,1.9-4.8,1.9,4.8,0,3.8-2.9Z" transform="translate(0.29 -2.68)"/><path class="cls-27" d="M372.8,255.6a55.73,55.73,0,0,1-10.5,9.5c-5.7,3.8-3.9,15.6-3.9,15.6l-1.6-20Z" transform="translate(0.29 -2.68)"/><path class="cls-28" d="M349,279.5s1.7,20.6-15.6,33c0,0,10.9-4.8,16.8-6.6l4.9-16.1C355,289.7,350.1,287.8,349,279.5Z" transform="translate(0.29 -2.68)"/><path class="cls-34" d="M344.5,438.1s-4.3-11.3-10.3-16.3c0,0,8.6,13.8,10.3,17.4Z" transform="translate(0.29 -2.68)"/><path class="cls-34" d="M356.1,437.3S351.8,426,345.8,421c0,0,8.6,13.8,10.3,17.4Z" transform="translate(0.29 -2.68)"/><path class="cls-34" d="M363.1,429.3S358.8,418,352.8,413c0,0,8.6,13.8,10.3,17.4Z" transform="translate(0.29 -2.68)"/><rect class="cls-35" x="319.99" y="437.92" width="108" height="4.8"/><polygon class="cls-35" points="362.99 442.82 468.19 442.82 476.89 371.32 371.69 371.32 362.99 442.82"/><path class="cls-36" d="M371.1,373.8a3.63,3.63,0,0,1,3.5,2.8c1,3-8.2,69-8.2,69l-6.6-.1" transform="translate(0.29 -2.68)"/><path class="cls-31" d="M329.3,389.5s-4.5-24.4,12.2-26c0,0-6.3-.7-14.3-5.7C327.1,357.8,320.5,375.2,329.3,389.5Z" transform="translate(0.29 -2.68)"/><path class="cls-8" d="M424.7,355.9s2.5,5.1,12.5,0l17.4-8.4,16.6,26.3-38.1.3Z" transform="translate(0.29 -2.68)"/><path class="cls-31" d="M425.6,357s6.5,3.8,6.5,9.8c0,0,3.1-3.5,1-9.2C433.2,357.5,428,359.2,425.6,357Z" transform="translate(0.29 -2.68)"/><polygon class="cls-31" points="401.19 371.32 397.29 366.72 400.39 367.12 403.99 369.72 404.99 371.32 401.19 371.32"/><path class="cls-16" d="M371,276.4a4.13,4.13,0,0,1-1.1.7c-.4.1-.8-.4-1.2-.8h-.1c0,.8.3,1.5,1.1,1.6a1.34,1.34,0,0,0,1.4-1.3C371.3,276.5,371.2,276.3,371,276.4Z" transform="translate(0.29 -2.68)"/><path class="cls-16" d="M383.9,274.4a4.13,4.13,0,0,0,1.1.7c.4.1.8-.4,1.2-.8h.1c0,.8-.3,1.5-1.1,1.6a1.34,1.34,0,0,1-1.4-1.3C383.7,274.5,383.8,274.3,383.9,274.4Z" transform="translate(0.29 -2.68)"/><polygon class="cls-37" points="468.39 443.12 476.79 372.72 439.59 442.82 468.39 443.12"/><polygon class="cls-36" points="468.39 438.12 468.39 442.82 354.59 442.82 360.29 437.92 468.39 438.12"/><path class="cls-8" d="M658.1,616.7c-4.6-2.4-10.1-2.7-15.2-1.8-2.8.5-5.7,1.3-7.5,3.4s-2.2,5.7-.1,7.5a7.37,7.37,0,0,0,4.8,1.2c4,0,8.5-.8,11.7,1.7,1.8,1.4,3.1,3.7,5.3,4.4a5.18,5.18,0,0,0,5.7-2.5,8.66,8.66,0,0,0,.6-6.5A10.34,10.34,0,0,0,658.1,616.7Z" transform="translate(0.29 -2.68)"/><path class="cls-8" d="M668.7,596.2c-2.8,4-8.3,2.7-10.9.2s-3.6-6-4.6-9.5c-2.2-7.8-4.5-16-2.8-23.9a13.14,13.14,0,0,1,3.1-6.5,7.16,7.16,0,0,1,6.6-2.2c2.8.7,4.5,3.5,5.8,6a56.33,56.33,0,0,1,5.6,24.5c-.2,4-.6,8.1-2.8,11.4" transform="translate(0.29 -2.68)"/><path class="cls-8" d="M676.5,602c-3.1-3.7-3.7-9-2.3-13.5s4.5-8.5,8-11.7a44.58,44.58,0,0,1,14.4-8.5,16.19,16.19,0,0,1,6.5-1.1,6.72,6.72,0,0,1,5.4,3.3c1.5,2.9.1,6.4-1.5,9.2a111.87,111.87,0,0,1-9.5,14.4c-2.8,3.7-6.1,7.3-10.4,8.9s-8.8,1.4-11-1.6" transform="translate(0.29 -2.68)"/><path class="cls-7" d="M668.9,657.2a11.27,11.27,0,0,1-.3-1.8c-.1-1.3-.3-3-.5-5A62.93,62.93,0,0,0,667,643a51.63,51.63,0,0,0-2.7-8.7,34,34,0,0,0-4.4-7.9,17,17,0,0,0-5.6-4.7,19.79,19.79,0,0,0-4.7-1.5,5.66,5.66,0,0,1-1.8-.3,6,6,0,0,1,1.9,0,13.69,13.69,0,0,1,4.9,1.3,16.85,16.85,0,0,1,5.9,4.7,30.29,30.29,0,0,1,4.6,8,68.67,68.67,0,0,1,2.7,8.8,64.23,64.23,0,0,1,1,7.5c.2,2.1.2,3.9.3,5C669,656,669,656.6,668.9,657.2Z" transform="translate(0.29 -2.68)"/><path class="cls-7" d="M668.5,653.4a2.72,2.72,0,0,1,0-.9v-2.4c0-2.1,0-5.2-.1-9-.2-7.6-.8-15.7-2.1-27.2-1.2-10.8-2.8-23.4-4.5-31.5-.4-1.9-.7-3.5-1.1-5s-.6-2.7-.9-3.8l-.6-2.4c-.1-.3-.1-.6-.2-.8.1.3.2.5.3.8l.7,2.3c.3,1,.6,2.3,1,3.7s.8,3.1,1.2,5a262.8,262.8,0,0,1,4.7,29.3c1.3,11.5,1.8,22,1.9,29.6,0,3.8,0,6.9-.1,9-.1,1-.1,1.8-.2,2.4A1.39,1.39,0,0,1,668.5,653.4Z" transform="translate(0.29 -2.68)"/><path class="cls-7" d="M668.5,633.2a10.45,10.45,0,0,1,0-2.5,63.65,63.65,0,0,1,.8-6.9,86.84,86.84,0,0,1,2.3-10.1,79.87,79.87,0,0,1,4.2-11.9,62.52,62.52,0,0,1,12.4-19.3,24.43,24.43,0,0,1,2.9-2.7,9,9,0,0,1,1.2-1l1.1-.8a16.44,16.44,0,0,1,2.2-1.4c.1.2-3,2-7,6.3a66,66,0,0,0-12,19.2,82.82,82.82,0,0,0-4.2,11.8,85.58,85.58,0,0,0-2.4,10c-.5,2.9-.8,5.2-1,6.8C668.8,631.5,668.7,632.3,668.5,633.2Z" transform="translate(0.29 -2.68)"/><polygon class="cls-8" points="688.29 666.12 686.29 693.92 650.59 693.92 648.59 666.12 688.29 666.12"/><rect class="cls-7" x="644.39" y="655.22" width="47.4" height="10.9"/><polygon class="cls-7" points="691.79 690.82 691.79 693.82 689.49 693.82 645.09 693.82 645.09 690.82 691.79 690.82"/><polygon class="cls-7" points="687.29 701.22 689.49 695.82 646.79 695.82 649.39 701.22 687.29 701.22"/><path class="cls-38" d="M646,698.8c0,.1,9.7.2,21.7.2s21.7-.1,21.7-.2-9.7-.2-21.7-.2S646,698.7,646,698.8Z" transform="translate(0.29 -2.68)"/><path class="cls-11" d="M518.1,688.8s-3-4-3-14c0,0,69,5,106,1,0,0,1.1,3,0,5S540.3,688.8,518.1,688.8Z" transform="translate(0.29 -2.68)"/><path class="cls-11" d="M609.1,665.8s-10,3-9,12h-2.6C597.6,677.8,598.1,665.8,609.1,665.8Z" transform="translate(0.29 -2.68)"/><path class="cls-26" d="M505,724.8c-3.5.2-94.5-24.5-97.3-27.6-1.1-1.2,1.7-14.7,5.6-30.8L472,682.2s30.6,25,33.4,28.8S508.5,724.6,505,724.8Z" transform="translate(0.29 -2.68)"/><path class="cls-11" d="M500.4,706.1a12.36,12.36,0,0,0-10.1,1.3,12.59,12.59,0,0,0-5.6,7.2c0,.1.1.1.2,0a14.7,14.7,0,0,1,15.5-8.3c.1,0,.1,0,.1-.1a.1.1,0,0,0-.1-.1Z" transform="translate(0.29 -2.68)"/><path class="cls-11" d="M477.5,685.3c-6.1-1.7-13.7-1.5-18.9,2.5-.2.2,0,.4.2.4a89.11,89.11,0,0,1,18.6-2.1.43.43,0,0,0,.4-.4C477.7,685.4,477.6,685.3,477.5,685.3Z" transform="translate(0.29 -2.68)"/><path class="cls-11" d="M481.7,688.4c-6.1-1.8-13.8-1.5-18.9,2.5-.2.2,0,.4.2.4a96.36,96.36,0,0,1,18.6-2.1.43.43,0,0,0,.4-.4C481.9,688.6,481.8,688.4,481.7,688.4Z" transform="translate(0.29 -2.68)"/><path class="cls-11" d="M485.9,691.5c-6.1-1.7-13.7-1.5-18.9,2.5-.2.2,0,.4.2.4a96.36,96.36,0,0,1,18.6-2.1.43.43,0,0,0,.4-.4C486.2,691.6,486,691.5,485.9,691.5Z" transform="translate(0.29 -2.68)"/><path class="cls-11" d="M490.1,694.6c-6.1-1.7-13.8-1.5-18.9,2.5-.2.2,0,.4.2.4a89.11,89.11,0,0,1,18.6-2.1.43.43,0,0,0,.4-.4C490.4,694.8,490.3,694.7,490.1,694.6Z" transform="translate(0.29 -2.68)"/><path class="cls-11" d="M407.1,697.8s-.8-5.5,2.7-14.9c0,0,62.2,27.9,98.3,36.9,0,0-.3,3.5-2,5S428,705.5,407.1,697.8Z" transform="translate(0.29 -2.68)"/><path class="cls-11" d="M500.2,706.5s-10.4-.6-12.6,8.2l-2.4-.9C485.2,713.7,489.9,702.7,500.2,706.5Z" transform="translate(0.29 -2.68)"/><rect class="cls-2" x="150.89" y="443.22" width="470" height="10"/><rect class="cls-25" x="162.89" y="453.22" width="446" height="10"/><polygon class="cls-25" points="232.69 463.42 228.09 492.22 183.59 729.22 170.59 729.22 205.69 493.62 209.39 463.42 232.69 463.42"/><polygon class="cls-2" points="204.29 503.42 225.29 506.22 232.89 463.42 209.89 462.82 204.29 503.42"/><polygon class="cls-25" points="543.79 463.22 548.39 492.02 592.89 729.22 605.89 729.02 570.89 493.42 567.19 463.22 543.79 463.22"/><polygon class="cls-2" points="572.29 503.22 551.29 506.02 543.59 463.22 566.69 462.52 572.29 503.22"/><path class="cls-11" d="M710.4,253.2H684.7a2.92,2.92,0,0,0-.9.2h0a2.18,2.18,0,0,0-.8.5h0a2.18,2.18,0,0,0-.5.8h0a2.92,2.92,0,0,0-.2.9V283a2.62,2.62,0,0,0,2.4,2.6h25.7a2.92,2.92,0,0,0,.9-.2h0a2.18,2.18,0,0,0,.8-.5h0a5.55,5.55,0,0,0,.6-.8h0a2.92,2.92,0,0,0,.2-.9h0V255.9A2.65,2.65,0,0,0,710.4,253.2Zm-22.7,26.9V261.8l17.8,18.3Zm21.6-3.2-17.7-18.3h17.7Z" transform="translate(0.29 -2.68)"/><path class="cls-11" d="M640.2,247.8h-27a2.58,2.58,0,0,0-2.6,2.6h0v27.2a2.65,2.65,0,0,0,2.6,2.6h27.1a2.65,2.65,0,0,0,2.6-2.6V250.5a2.69,2.69,0,0,0-2.7-2.7Zm-2.7,27H616V253.3h21.5Z" transform="translate(0.29 -2.68)"/><path class="cls-11" d="M712,289.1H685a2.73,2.73,0,0,0-2.7,2.6v27.2a2.67,2.67,0,0,0,2.7,2.6h27a2.58,2.58,0,0,0,2.6-2.6h0V291.7a2.58,2.58,0,0,0-2.6-2.6ZM709.3,316H687.8v-9h21.5Zm0-12.5H687.8v-9h21.5Z" transform="translate(0.29 -2.68)"/><path class="cls-11" d="M640.2,287.3h-27a2.58,2.58,0,0,0-2.6,2.6v27.2a2.65,2.65,0,0,0,2.6,2.6h27.1a2.73,2.73,0,0,0,2.7-2.6V290A2.84,2.84,0,0,0,640.2,287.3Zm-2.7,26.9H616V292.7h21.5Z" transform="translate(0.29 -2.68)"/><path class="cls-11" d="M663.3,287.8A17.2,17.2,0,0,0,646.1,305v.4a17.42,17.42,0,0,0,16.7,16.7,17.21,17.21,0,0,0,17.7-16.7v-.5h0A17.18,17.18,0,0,0,663.3,287.8Zm-.2,29.2a12,12,0,1,1,12-12h0a12,12,0,0,1-12,12Z" transform="translate(0.29 -2.68)"/><path class="cls-11" d="M649.1,240.7h27a2.72,2.72,0,0,0,2.7-2.5h0V211a2.56,2.56,0,0,0-2.5-2.6H649.2a2.58,2.58,0,0,0-2.6,2.6h0v27.2a2.41,2.41,0,0,0,2.5,2.5Zm17.1-27h9v21.5h-9Zm-12.6,0h7.2v21.5h-7.2Z" transform="translate(0.29 -2.68)"/><path class="cls-11" d="M712,208.4H685.1a2.67,2.67,0,0,0-2.8,2.5v27.2a2.65,2.65,0,0,0,2.6,2.6h27a2.58,2.58,0,0,0,2.6-2.6h0V210.9a2.36,2.36,0,0,0-2.5-2.5Zm-2.7,26.9H687.8v-9h21.5Zm0-12.6H687.8v-9h21.5Z" transform="translate(0.29 -2.68)"/><path class="cls-11" d="M625.7,207.3a17.2,17.2,0,0,0-17.2,17.2v.5a17.21,17.21,0,0,0,34.4,0v-.5h0A17.33,17.33,0,0,0,625.7,207.3Zm.6,29.3a12,12,0,1,1,12-12,12,12,0,0,1-12,12Z" transform="translate(0.29 -2.68)"/><path class="cls-11" d="M663.1,248.6a17.2,17.2,0,1,0,17.2,17.2h0A17.2,17.2,0,0,0,663.1,248.6Zm-.5,29.7a12,12,0,0,1-12-12v-.2a12.27,12.27,0,0,1,11.9-11.9A12,12,0,0,1,674.7,266v.2h0a12.21,12.21,0,0,1-12.1,12.1Z" transform="translate(0.29 -2.68)"/><path class="cls-39" d="M831.6,232.7c2.2-4.3,4.4-8.7,6.5-13.3" transform="translate(0.29 -2.68)"/><path class="cls-39" d="M494.1,418.5S504.6,332,581.6,341c74.4,8.7,185.8,15,250-108.2" transform="translate(0.29 -2.68)"/><path class="cls-39" d="M484.1,129.4" transform="translate(0.29 -2.68)"/><path class="cls-39" d="M489,108s10.5,86.5,87.5,77.5S770,170.1,833,307" transform="translate(0.29 -2.68)"/><path class="cls-13" d="M201.2,383.5s-3.5,9.9-7.7,20-8.6,33.6-7.9,34.2,9.8-21.9,12.7-32.2,5-21.1,5-21.1Z" transform="translate(0.29 -2.68)"/><polygon class="cls-6" points="201.49 380.52 198.69 387.22 202.49 388.42 203.99 381.42 201.49 380.52"/><path class="cls-5" d="M201.2,383.2c.4-5.5,4.8-10,4.8-10s1.8,6.5-2.3,10.9Z" transform="translate(0.29 -2.68)"/><path class="cls-40" d="M190.3,370.5s1.4,10.4,3.3,21.2,1.4,34.6.6,35.1-5-23.5-5.6-34.2-.6-21.7-.6-21.7Z" transform="translate(0.29 -2.68)"/><polygon class="cls-6" points="190.69 367.52 191.99 374.72 188.09 375.02 188.09 367.82 190.69 367.52"/><path class="cls-5" d="M187.8,370.5s2.5-.3,2.6-.3a58.75,58.75,0,0,0,1.9-7.5c-.1-.2-8.4,1-8.4,1.8S187.8,370.5,187.8,370.5Z" transform="translate(0.29 -2.68)"/><path class="cls-41" d="M178.3,410h20.5a4.44,4.44,0,0,1,4.4,4.4v28a4.44,4.44,0,0,1-4.4,4.4H178.3a4.44,4.44,0,0,1-4.4-4.4v-28A4.44,4.44,0,0,1,178.3,410Z" transform="translate(0.29 -2.68)"/><rect class="cls-41" x="177.89" y="401.52" width="21.9" height="5.8"/><polygon class="cls-8" points="123.69 706.22 161.89 706.22 165.99 668.82 119.59 668.82 123.69 706.22"/><rect class="cls-7" x="117.49" y="664.22" width="50.5" height="9.2"/><polygon class="cls-7" points="161.99 713.82 164.19 708.52 121.49 708.52 123.99 713.82 161.99 713.82"/><polygon class="cls-7" points="166.09 703.22 166.09 706.32 163.89 706.32 119.49 706.32 119.49 703.22 166.09 703.22"/><path class="cls-16" d="M177.6,409.9s11,4,22,0C199.6,409.9,189.6,417.9,177.6,409.9Z" transform="translate(0.29 -2.68)"/><path class="cls-42" d="M178.6,417.9h0a2,2,0,0,1,2,2v15a2,2,0,0,1-2,2h0a2,2,0,0,1-2-2v-15A2,2,0,0,1,178.6,417.9Z" transform="translate(0.29 -2.68)"/><path class="cls-42" d="M178.6,438.9h0a2,2,0,0,1,2,2v1a2,2,0,0,1-2,2h0a2,2,0,0,1-2-2v-1A2,2,0,0,1,178.6,438.9Z" transform="translate(0.29 -2.68)"/><path class="cls-2" d="M176.1,410.6a27.24,27.24,0,0,0,25,.1,5.58,5.58,0,0,0-1.6-.7s-6.8,2.9-21.8-.1Z" transform="translate(0.29 -2.68)"/><rect class="cls-4" x="832.39" y="207.72" width="6.5" height="102"/><path class="cls-11" d="M208.5,251.9l1.2,1.8a13.39,13.39,0,0,0,5.5,4.5l2,.8-1.8,1.2a12.78,12.78,0,0,0-4.5,5.5l-.8,2-1.2-1.8a13.39,13.39,0,0,0-5.5-4.5l-2-.8,1.8-1.2a12.78,12.78,0,0,0,4.5-5.5Z" transform="translate(0.29 -2.68)"/><path class="cls-11" d="M233.1,123.4l2.2,3.2a23.49,23.49,0,0,0,10,8.2l3.6,1.5-3.2,2.2a23.49,23.49,0,0,0-8.2,10l-1.5,3.6-2.2-3.2a23.49,23.49,0,0,0-10-8.2l-3.6-1.5,3.2-2.2a23.49,23.49,0,0,0,8.2-10Z" transform="translate(0.29 -2.68)"/><path class="cls-11" d="M262.7,168.1l3,4.4a30.87,30.87,0,0,0,13.5,11l4.9,2.1-4.4,3a30.32,30.32,0,0,0-11,13.5l-2,4.9-3-4.4a30.87,30.87,0,0,0-13.5-11l-4.9-2.1,4.4-3a30.87,30.87,0,0,0,11-13.5Z" transform="translate(0.29 -2.68)"/><path class="cls-43" d="M324.4,328.2c.2,0,2.7.6,3.4,2.4.8,2.3-2.5,3.6-3.1,8-.3,2.5.4,3.7-.7,5.2-.8,1-2.3,1.9-3.3,1.5-1.4-.7-.1-3.4-1.8-5.2-1.5-1.6-3.5-.4-5.2-2.2a4.23,4.23,0,0,1-1-4.5c.5-1.1,1.4-1.2,4.6-2.6C321.9,328.8,322.6,327.9,324.4,328.2Z" transform="translate(0.29 -2.68)"/><path class="cls-43" d="M270.2,386.7c-4.3-.3-6.1-1.9-6.6-2.4s-2.4-2.3-2.2-4.3,1.9-2.1,4.8-5.4c2.3-2.7,1.9-3.3,3.4-4.4,2.6-1.8,6.8-2.2,8.7-.3,1.4,1.4.2,3,1.5,6.6,1.4,4,3.6,4.4,3.2,6.1C282.4,385.7,275.2,387.1,270.2,386.7Z" transform="translate(0.29 -2.68)"/><path class="cls-43" d="M347,378.2a5.62,5.62,0,0,1,4.1-3.2c1.7-.3,3.3.6,6.6,2.6,3.5,2,3.5,2.7,5.8,3.4,1.5.4,2.3.4,3.2,1.2s2,2.6,1.5,3.9c-.6,1.7-2.9,1-5.4,3.4a27.38,27.38,0,0,0-2.7,3.9c-1.8,2.9-1.8,3.4-2.7,3.9a5,5,0,0,1-5.4-.3c-1.4-1.2-.6-2.5-2-4.3-1.4-1.6-2.5-1.1-4.9-2.9-.6-.4-3.7-2.8-3.2-4.6.4-1.6,3.4-1,4.6-3.2C347.1,380.6,346.2,379.9,347,378.2Z" transform="translate(0.29 -2.68)"/><path class="cls-43" d="M291.3,350.4c-.6,1.7-2.9,1-5.4,3.4a27.38,27.38,0,0,0-2.7,3.9c-1.8,2.9-1.8,3.4-2.7,3.9a5.2,5.2,0,0,1-5.5-.3c-1.4-1.2-.6-2.5-2-4.3-1-1.3-2-1.2-3.4-2,4.4-3.4,9.4-7.1,14.7-10.9a7,7,0,0,0,2.3,1.1c1.5.4,2.3.4,3.2,1.2S291.8,349,291.3,350.4Z" transform="translate(0.29 -2.68)"/><path class="cls-43" d="M352,336.1c0-.2.5-3.4,2.7-4.3,2.7-1.2,4.5,2.7,10,3.1,3,.2,4.5-.8,6.3.4,1.3.9,2.5,2.7,2,3.9-.7,1.7-4.1.4-6.1,2.7-1.9,2-.2,4.3-2.3,6.6-1.3,1.4-3.6,2.3-5.3,1.6-1.4-.5-1.5-1.6-3.5-5.3C353,339.1,351.7,338.4,352,336.1Z" transform="translate(0.29 -2.68)"/><path class="cls-43" d="M410.7,341.8c-.1.1-.2.1-.2.2a27.38,27.38,0,0,0-2.7,3.9c-1.8,2.9-1.8,3.4-2.7,3.9a5,5,0,0,1-5.4-.3c-1.4-1.2-.6-2.5-2-4.3-1.4-1.6-2.5-1-4.9-2.9-.5-.4-3.7-2.8-3.2-4.6.4-1.6,3.4-1,4.6-3.2.8-1.4-.1-2.1.7-3.8a6.57,6.57,0,0,1,1.2-1.7C400.6,333,405.7,337.3,410.7,341.8Z" transform="translate(0.29 -2.68)"/><path class="cls-43" d="M454.2,366.8c-4.3-.3-6.1-1.9-6.6-2.4s-2.4-2.3-2.2-4.3,1.9-2.1,4.8-5.4c2.3-2.7,1.9-3.3,3.4-4.4,2.6-1.8,6.8-2.2,8.7-.3,1.4,1.4.2,3,1.5,6.6,1.4,4,3.6,4.4,3.2,6.1C466.4,365.8,459.1,367.2,454.2,366.8Z" transform="translate(0.29 -2.68)"/><circle class="cls-11" cx="113.94" cy="331.73" r="9.47"/><circle class="cls-11" cx="138.17" cy="248.11" r="3.38"/><path class="cls-11" d="M375.81,131.64a3.21,3.21,0,1,1-3.2-3.2A3.21,3.21,0,0,1,375.81,131.64Z" transform="translate(0.29 -2.68)"/><path class="cls-11" d="M308.52,227.6a5.25,5.25,0,1,1-5.25-5.25A5.26,5.26,0,0,1,308.52,227.6Z" transform="translate(0.29 -2.68)"/></svg>