<svg id="Layer_1" data-name="Layer 1" xmlns="http://www.w3.org/2000/svg" viewBox="0 0 1025.6 775.16"><defs><style>.cls-1{fill:#ff4e6c;}.cls-2{fill:#e23359;}.cls-3{fill:#f2f2f2;}.cls-4{fill:#c0e5c0;}.cls-5{fill:#8ab887;}.cls-6{fill:#eef;}.cls-7{fill:#b4b4ef;}.cls-8{fill:#2b444e;}.cls-9{fill:#666;}.cls-10,.cls-28{opacity:0.1;}.cls-10{isolation:isolate;}.cls-11{fill:#385b64;}.cls-12{fill:#ffbf9d;}.cls-13{fill:#fff;}.cls-14{fill:#333;}.cls-15{fill:#1a2e35;}.cls-16{fill:#d1945d;}.cls-17{fill:#dd9373;}.cls-18{fill:#203391;}.cls-19{fill:#c18859;}.cls-20{fill:#89705d;}.cls-21{fill:#2d2d2d;}.cls-22{fill:#260e08;}.cls-23{fill:#ea476a;}.cls-24{fill:#7676c4;}.cls-25{fill:#8a8adb;}.cls-26{fill:#4d4d4d;}.cls-27{fill:#ffaba1;}.cls-29{fill:#6666c9;}.cls-30{fill:#c17e67;}.cls-31{fill:#5252ba;}.cls-32{fill:#16282d;}.cls-33{fill:none;stroke:#fff;stroke-miterlimit:10;stroke-width:2px;}.cls-34{fill:#ff8772;}.cls-35{fill:#8f8fcc;}</style></defs><title>kapcsolat22</title><path class="cls-1" d="M106.3,186.5c.1-8.5,3.8-16.6,8.9-23.4,2.8-3.6,6.1-7.2,10.6-8.3s10,1.1,10.9,5.6c.6,2.7-.6,5.4-1.9,7.8-3.1,5.8-7.5,11.7-6.5,18.2.6,3.7,3,7.2,2.3,10.9s-4.3,6.1-8,6.3-7.2-1.6-9.9-4A16.53,16.53,0,0,1,106.3,186.5Z" transform="translate(-0.02 -0.04)"/><path class="cls-2" d="M156.6,232.8a18.76,18.76,0,0,0-2.4-1.8l-6.9-4.5a111.92,111.92,0,0,1-9.8-7.2A93.79,93.79,0,0,1,127,208.9a53.7,53.7,0,0,1-8-12.4,27.21,27.21,0,0,1-2.5-11.6,26.8,26.8,0,0,1,1.4-7.9,15.68,15.68,0,0,0,1-2.8,8.67,8.67,0,0,0-1.4,2.7,25.2,25.2,0,0,0-1.9,8.1,26.41,26.41,0,0,0,2.3,12.1,52.72,52.72,0,0,0,8.1,12.7,96.38,96.38,0,0,0,10.7,10.5,100.4,100.4,0,0,0,10,7.1c3,1.8,5.4,3.2,7.1,4.2A23.58,23.58,0,0,0,156.6,232.8Z" transform="translate(-0.02 -0.04)"/><path class="cls-1" d="M68.7,186.3c8-1,10.2-10,8.6-15.5s-6-9.8-10.2-13.8c-9.5-9.1-19.6-18.6-32.3-22.2-3.8-1.1-7.9-1.6-11.7-.5s-7.3,4-8.1,7.8c-1,4.6,1.6,9.1,4.4,12.9a92.67,92.67,0,0,0,31,26.7c5.6,2.9,11.9,5.3,18.3,4.6" transform="translate(-0.02 -0.04)"/><path class="cls-1" d="M71.2,201.9c-2.9-7.2-10.2-12.1-17.8-13.6s-15.6,0-22.9,2.8A70,70,0,0,0,7.4,205.4,24.48,24.48,0,0,0,1,213.9c-1.4,3.3-1.4,7.4.6,10.3,3,4.4,9.1,4.9,14.5,4.8A185.65,185.65,0,0,0,44,226.3c7.4-1.3,15-3.3,20.7-8.2s8.8-11.6,6.2-17.1" transform="translate(-0.02 -0.04)"/><path class="cls-2" d="M151.3,229.4a7.46,7.46,0,0,0-1.2-.7l-3.5-1.8c-3.1-1.6-7.5-3.9-12.9-6.9-10.8-6-22-13.1-37.6-23.6C81.4,186.5,64.5,174.7,54,166c-2.4-1.9-4.5-3.7-6.4-5.3s-3.5-2.9-4.8-4.1l-3-2.6a10.63,10.63,0,0,0-1.1-.9,9,9,0,0,0,.9,1,36.56,36.56,0,0,1,2.8,2.8c1.1,1.2,2.8,2.6,4.6,4.3s3.9,3.5,6.3,5.5a457.35,457.35,0,0,0,38.6,29c15.6,10.5,30.3,19.3,41.2,25.1,5.4,2.9,9.9,5.1,13.1,6.6,1.5.7,2.7,1.2,3.6,1.6C150.4,229.1,150.8,229.3,151.3,229.4Z" transform="translate(-0.02 -0.04)"/><path class="cls-2" d="M122.2,214.1a25.83,25.83,0,0,0-3.7-1.9,100.31,100.31,0,0,0-10.6-4.1,148.88,148.88,0,0,0-16.2-4.4,126.89,126.89,0,0,0-20.4-2.9c-14.6-1.2-27.9.5-37.1,3.2a62.63,62.63,0,0,0-6.1,2.1c-.9.4-1.7.6-2.5,1l-2,1a21.22,21.22,0,0,0-3.6,2.1c.1.3,5.2-2.9,14.4-5.4a110.3,110.3,0,0,1,36.8-2.9,153.31,153.31,0,0,1,20.2,2.8,158.11,158.11,0,0,1,16.2,4.1c4.6,1.4,8.2,2.8,10.6,3.7A41.64,41.64,0,0,0,122.2,214.1Z" transform="translate(-0.02 -0.04)"/><path class="cls-1" d="M893.4,562.5c-3.5,3.3-8.4,1-10.4-1.8s-2.3-6.4-2.6-9.9c-.7-7.8-1.3-16,1.8-23.2a13.39,13.39,0,0,1,4.1-5.6,6.73,6.73,0,0,1,6.7-.8c2.5,1.2,3.6,4.1,4.3,6.8a55.33,55.33,0,0,1,.7,24.3c-.6,3.7-1.9,7.5-4.6,10.2" transform="translate(-0.02 -0.04)"/><path class="cls-1" d="M899.7,569.5c-2.2-4-1.8-9.2.4-13.3a24.87,24.87,0,0,1,9.8-9.5,41.8,41.8,0,0,1,15.2-5.3,14.84,14.84,0,0,1,6.3.2,6.34,6.34,0,0,1,4.5,4.2c.9,3-1.2,6.1-3.2,8.5A108.63,108.63,0,0,1,921,566.1c-3.4,2.9-7.1,5.7-11.5,6.5s-8.6-.3-10.2-3.6" transform="translate(-0.02 -0.04)"/><path class="cls-3" d="M750,658.7c16-10.5,45-30.2,49-60.1,3.9-29.5-20.5-38.7-23.1-71.7-3.5-44.4,38.7-55.4,49.8-107.1,11.2-52.3-19.5-98.7-29.4-113.7-31-46.9-62-46-127.3-95.5-84.1-63.8-8.3-107.1-70.3-143.8S380.4,25.6,312.1,63.2C270,86.3,287.5,106,211.5,194.2c-55.2,64.1-80.7,72.5-94.3,117.8-3.5,11.7-20.9,69.5,10.7,113.7,27.8,38.9,67.6,30.9,81.9,65.1,14.9,35.7-22.2,59.6-15.1,100.5,7.8,45.4,63.2,72.5,101.5,90.6C473.5,765.7,672.1,710.1,750,658.7Z" transform="translate(-0.02 -0.04)"/><path class="cls-4" d="M178.4,256.1c-2.4,4.4-2.9,9.7-2.2,14.7.4,2.7,1.1,5.5,3,7.4s5.5,2.3,7.3.3a7.2,7.2,0,0,0,1.3-4.5c.1-3.9-.5-8.2,2-11.3,1.4-1.7,3.6-2.9,4.4-5a5,5,0,0,0-2.3-5.6,8.17,8.17,0,0,0-6.3-.8A9.52,9.52,0,0,0,178.4,256.1Z" transform="translate(-0.02 -0.04)"/><path class="cls-4" d="M218,246.9a11,11,0,0,1-1.8.2l-4.9.3c-2.4.2-4.8.5-7.1.9a62.78,62.78,0,0,0-8.5,2.3,27.13,27.13,0,0,0-7.7,4.1,17.11,17.11,0,0,0-4.7,5.3,14.23,14.23,0,0,0-1.6,4.5,5.66,5.66,0,0,1-.3,1.8,5.44,5.44,0,0,1,0-1.8,15.06,15.06,0,0,1,6.1-10.3,30,30,0,0,1,7.9-4.2,52,52,0,0,1,8.6-2.3,58.47,58.47,0,0,1,7.2-.7c2.1-.1,3.7-.1,4.9-.1A4.07,4.07,0,0,1,218,246.9Z" transform="translate(-0.02 -0.04)"/><path class="cls-5" d="M214.2,247.1h-.8L211,247c-2-.1-5-.1-8.7-.2-7.3,0-15.2.4-26.4,1.2-10.5.8-22.7,2-30.6,3.4-1.8.3-3.4.6-4.9.9s-2.7.5-3.7.7l-2.3.5a2.2,2.2,0,0,1-.8.1c.3-.1.5-.2.8-.3l2.3-.6q1.5-.45,3.6-.9c1.4-.3,3.1-.7,4.9-1a272.37,272.37,0,0,1,28.4-3.7,277.72,277.72,0,0,1,28.7-.9c3.7.1,6.6.2,8.7.4l2.4.2C213.6,247,213.9,247,214.2,247.1Z" transform="translate(-0.02 -0.04)"/><path class="cls-5" d="M192.8,244.6a20.9,20.9,0,0,1-2.5-.1,47.73,47.73,0,0,1-6.6-1,80.8,80.8,0,0,1-9.7-2.4,92.53,92.53,0,0,1-11.4-4.4,60.27,60.27,0,0,1-18.2-12.5,34.67,34.67,0,0,1-2.5-2.9,10.59,10.59,0,0,1-1-1.2l-.7-1.1a23.92,23.92,0,0,1-1.3-2.1c.2-.1,1.9,3,5.9,7A63.88,63.88,0,0,0,163,236.1a91.13,91.13,0,0,0,11.3,4.4,96.51,96.51,0,0,0,9.6,2.6q4.2.9,6.6,1.2A11.15,11.15,0,0,1,192.8,244.6Z" transform="translate(-0.02 -0.04)"/><path class="cls-2" d="M916.9,336.8a10.62,10.62,0,0,0-.4,1.9c-.2,1.3-.5,3.1-.8,5.4s-.7,5.2-1.3,8.5-1.1,7.1-1.9,11.2c-1.5,8.3-3.6,18.1-6.4,28.8s-6.3,22.5-10.6,34.6-9,23.4-13.6,33.5-9.2,19-13.2,26.4c-2,3.7-3.9,7-5.6,9.9s-3.1,5.4-4.3,7.4l-2.8,4.7c-.3.5-.6,1.1-.9,1.7a14.31,14.31,0,0,0,1.1-1.5l3-4.5c1.3-2,2.9-4.4,4.6-7.3s3.7-6.1,5.8-9.8c4.2-7.3,8.8-16.3,13.5-26.3s9.4-21.5,13.7-33.6,7.7-23.9,10.5-34.7,4.7-20.6,6.1-29c.8-4.1,1.3-7.9,1.7-11.3s.8-6.2,1-8.5.4-4,.5-5.4A9.54,9.54,0,0,0,916.9,336.8Z" transform="translate(-0.02 -0.04)"/><path class="cls-2" d="M906.1,562.3a13.89,13.89,0,0,0,2.1-2.1l5.6-6a114.33,114.33,0,0,1,8.7-8.4,90.74,90.74,0,0,1,12-8.6,52,52,0,0,1,13.5-5.8,28.09,28.09,0,0,1,11.9-.5,23.24,23.24,0,0,1,7.6,2.8,13.5,13.5,0,0,0,2.6,1.5,15.45,15.45,0,0,0-2.4-1.9,22.85,22.85,0,0,0-7.7-3.2,25.58,25.58,0,0,0-12.3.3,52.47,52.47,0,0,0-13.8,5.8,87.84,87.84,0,0,0-12.2,8.8,101,101,0,0,0-8.6,8.7c-2.3,2.6-4.1,4.8-5.3,6.3A10.56,10.56,0,0,0,906.1,562.3Z" transform="translate(-0.02 -0.04)"/><path class="cls-4" d="M879.5,579.9c-3.9-3.2-9.1-4.5-14.1-4.7-2.7-.1-5.6.2-7.8,1.8s-3.2,5-1.5,7.1a7.49,7.49,0,0,0,4.3,2c3.8.7,8.2.9,10.8,3.8,1.5,1.7,2.2,4.1,4.2,5.1a5.09,5.09,0,0,0,5.9-1.3,8.9,8.9,0,0,0,1.9-6.1A10.18,10.18,0,0,0,879.5,579.9Z" transform="translate(-0.02 -0.04)"/><path class="cls-4" d="M882,620.4a10.87,10.87,0,0,1,.1-1.8c.1-1.3.3-3,.5-4.9a57.81,57.81,0,0,0,.3-7.2,65.62,65.62,0,0,0-.9-8.8,29.91,29.91,0,0,0-2.7-8.3,15.55,15.55,0,0,0-4.4-5.5,14.4,14.4,0,0,0-4.2-2.3,5.78,5.78,0,0,1-1.7-.6,11.27,11.27,0,0,1,1.8.3,12.15,12.15,0,0,1,4.4,2.2,15.85,15.85,0,0,1,4.7,5.6,28.32,28.32,0,0,1,2.8,8.5,52.6,52.6,0,0,1,.8,8.9,59.68,59.68,0,0,1-.5,7.3c-.3,2-.5,3.7-.7,4.8A3.43,3.43,0,0,1,882,620.4Z" transform="translate(-0.02 -0.04)"/><path class="cls-2" d="M882.4,616.7c0-.3.1-.6.1-.8.1-.6.3-1.4.5-2.3.4-2,1-4.9,1.6-8.5,1.3-7.2,2.2-15.1,3.2-26.2.9-10.5,1.8-22.7,1.7-30.8,0-1.8,0-3.5-.1-4.9s0-2.7-.1-3.7a21.82,21.82,0,0,1-.1-2.4v-.8a2.2,2.2,0,0,1,.1.8c.1.6.1,1.4.2,2.3a35.75,35.75,0,0,1,.2,3.7c0,1.4.2,3.1.2,5a275.36,275.36,0,0,1-1.1,28.7c-1,11.2-2.4,21.2-3.8,28.4-.7,3.6-1.3,6.5-1.8,8.5l-.6,2.3A1,1,0,0,1,882.4,616.7Z" transform="translate(-0.02 -0.04)"/><path class="cls-2" d="M888.5,596a20.48,20.48,0,0,1,.5-2.4c.4-1.5,1.1-3.7,2-6.4a92.81,92.81,0,0,1,4-9.1,69.52,69.52,0,0,1,6.3-10.5,59.72,59.72,0,0,1,15.4-15.9,26.26,26.26,0,0,1,3.3-2,10,10,0,0,1,1.4-.8l1.2-.5a15.71,15.71,0,0,1,2.3-.9c.1.2-3.3,1.3-7.9,4.6A64.79,64.79,0,0,0,902,568a99.14,99.14,0,0,0-6.3,10.4q-2.25,4.35-4.2,9c-1,2.6-1.8,4.8-2.3,6.3A8.78,8.78,0,0,1,888.5,596Z" transform="translate(-0.02 -0.04)"/><path class="cls-2" d="M101.8,107a12.09,12.09,0,0,0,1.8.5l5.3,1.2,8.4,1.8c3.3.7,7,1.6,11,2.7,8.2,2,17.8,4.8,28.3,8.3s22,7.8,33.8,12.9,22.7,10.6,32.5,15.9,18.4,10.4,25.4,15c3.6,2.2,6.7,4.4,9.5,6.2s5.2,3.5,7.1,4.9l4.5,3.1a8.64,8.64,0,0,0,1.6,1,4.43,4.43,0,0,0-1.5-1.2l-4.3-3.3c-1.9-1.4-4.2-3.1-6.9-5s-5.8-4.1-9.4-6.4c-7-4.7-15.6-9.9-25.4-15.3s-20.8-10.8-32.6-16S167.6,124,157,120.5s-20.3-6.1-28.5-8.1c-4.1-1.1-7.8-1.8-11.1-2.5s-6.1-1.2-8.4-1.6l-5.3-.9A4.06,4.06,0,0,0,101.8,107Z" transform="translate(-0.02 -0.04)"/><path class="cls-4" d="M253,168.2c-6.8.1-13.8,1.2-19.9,4.3a9.19,9.19,0,0,0-3.5,2.6,4,4,0,0,0-.6,4.2c1.1,2.1,4,2.3,6.4,2a37.87,37.87,0,0,0,21.6-9.9" transform="translate(-0.02 -0.04)"/><path class="cls-2" d="M210.1,6.2a5.56,5.56,0,0,0,.9,1.7l2.8,4.7c1.2,2,2.7,4.5,4.3,7.4s3.6,6.2,5.5,9.9c4,7.4,8.5,16.4,13.1,26.5s9.1,21.5,13.4,33.6,7.6,23.9,10.4,34.6,4.8,20.6,6.2,28.9c.8,4.1,1.3,7.9,1.9,11.2s.9,6.1,1.2,8.5.6,4,.8,5.4a12.86,12.86,0,0,0,.4,1.9,12.1,12.1,0,0,0-.1-1.9c-.1-1.4-.3-3.2-.5-5.4s-.5-5.2-1-8.5-.9-7.1-1.7-11.3c-1.3-8.3-3.3-18.2-6-29s-6.1-22.6-10.3-34.8-9-23.5-13.6-33.6-9.2-19.1-13.4-26.4c-2-3.7-4-7-5.7-9.9s-3.2-5.3-4.5-7.3l-3-4.5A7.12,7.12,0,0,0,210.1,6.2Z" transform="translate(-0.02 -0.04)"/><path class="cls-4" d="M267.5,158.8c-4.8-4.9-10.2-9.3-16.6-11.7a9.39,9.39,0,0,0-4.3-.8,4.09,4.09,0,0,0-3.5,2.4c-.9,2.2,1,4.5,2.9,6.1a38.33,38.33,0,0,0,21.9,9.2" transform="translate(-0.02 -0.04)"/><path class="cls-4" d="M266.8,144.9a150.81,150.81,0,0,1,14.1-23.5c.8-1.2,2-2.4,3.4-2.3a2.91,2.91,0,0,1,2.3,2.1,6.16,6.16,0,0,1,0,3.3c-1.7,10.8-9.5,20.9-19.2,26" transform="translate(-0.02 -0.04)"/><path class="cls-1" d="M158.9,245.3c3.8,2.9,2.4,8.1-.1,10.6s-6,3.3-9.3,4.2c-7.6,1.9-15.6,3.9-23.2,2a13,13,0,0,1-6.2-3.1,6.63,6.63,0,0,1-1.9-6.4c.8-2.7,3.5-4.3,6-5.4a55.63,55.63,0,0,1,23.8-4.7c3.8-.1,7.8.5,10.9,2.8" transform="translate(-0.02 -0.04)"/><path class="cls-1" d="M164.7,237.9c-3.6,2.9-8.8,3.3-13.2,1.8a25.35,25.35,0,0,1-11-8.1,43.42,43.42,0,0,1-7.8-14.1,16.9,16.9,0,0,1-.9-6.3,6.31,6.31,0,0,1,3.3-5.1c2.8-1.4,6.2.1,8.9,1.7a98.25,98.25,0,0,1,13.6,9.6c3.4,2.8,6.8,6.1,8.3,10.3s1.1,8.6-1.8,10.7" transform="translate(-0.02 -0.04)"/><path class="cls-1" d="M904.3,395.4a32.09,32.09,0,0,0-4.8-20.7c-1.3-2.1-3.3-4.1-5.8-4.1-3.3,0-5.3,3.7-5.8,6.9a23.26,23.26,0,0,0,3.1,15.9c2.9,4.7,6.2,7.8,11.5,9.4" transform="translate(-0.02 -0.04)"/><path class="cls-1" d="M892.4,434.7c1.5-8.4.6-21.9-3.4-29.4a10.76,10.76,0,0,0-2.4-3.2,4.34,4.34,0,0,0-3.8-.9c-1.8.6-2.7,2.7-3.1,4.6a33.42,33.42,0,0,0,11.7,33.1" transform="translate(-0.02 -0.04)"/><path class="cls-1" d="M877.6,469.1a48.4,48.4,0,0,0-5.8-24.7c-1-1.8-2.2-3.6-4.1-4.1-2.9-.8-5.7,2-6.8,4.8-2.2,5.9,0,12.4,2.8,18,3,6,10,13,10,13" transform="translate(-0.02 -0.04)"/><path class="cls-1" d="M866,491.7c-.6-6.8-2.2-13.7-5.6-19.6a10.52,10.52,0,0,0-2.9-3.4,4,4,0,0,0-4.2-.3c-2.1,1.2-2,4.2-1.5,6.5,1.7,8.1,5.3,15.3,11.3,20.9" transform="translate(-0.02 -0.04)"/><path class="cls-1" d="M874.2,480.5A156.32,156.32,0,0,1,900,471c1.4-.4,3-.7,4.1.3a2.75,2.75,0,0,1,.5,3.1,7.27,7.27,0,0,1-2,2.6c-8.1,7.4-20.5,10.4-31.2,8.3" transform="translate(-0.02 -0.04)"/><path class="cls-1" d="M887.7,450.4l21.5-10.2a18.54,18.54,0,0,1,6.4-2.1c2.3-.1,4.7.7,5.8,2.7a6.17,6.17,0,0,1-.7,6.4,15.09,15.09,0,0,1-5.2,4.2c-4.7,2.7-9.6,5-14.9,5.9s-9.8.9-14.3-2" transform="translate(-0.02 -0.04)"/><path class="cls-1" d="M901.7,415.9a51.61,51.61,0,0,1,23.5-14.1,9,9,0,0,1,4.6-.4c3,.8,4.5,4.3,4.2,7.4a13,13,0,0,1-5.5,8.5,27.58,27.58,0,0,1-9.6,3.8,60.63,60.63,0,0,1-19,1" transform="translate(-0.02 -0.04)"/><path class="cls-1" d="M909.6,383.9c5.9-9,14.7-14.7,24.2-19.7,2-1.1,4.5-2,6.4-.7a4.3,4.3,0,0,1,1.7,3.8,10.35,10.35,0,0,1-1.3,4.1,33,33,0,0,1-31.9,17.5" transform="translate(-0.02 -0.04)"/><path class="cls-1" d="M912.2,367.3c2.8-4.7,5.7-9.5,7.5-14.7s2.8-10.8,1.6-16.2a12.91,12.91,0,0,0-3.1-6.3,6.79,6.79,0,0,0-6.5-2,7.43,7.43,0,0,0-4.6,4.4,17.71,17.71,0,0,0-1.2,6.4c-.4,10.4,1.1,22.9,6.3,28.4" transform="translate(-0.02 -0.04)"/><path class="cls-1" d="M960.1,520.4c8.4,1.5,15.8,6.5,21.6,12.6,3.1,3.3,6,7.2,6.4,11.8s-2.8,9.6-7.3,9.8c-2.7.1-5.2-1.5-7.3-3.1-5.2-4-10.3-9.4-16.8-9.4-3.7,0-7.6,1.8-11.1.5s-5.3-5.3-4.9-8.9,2.8-6.8,5.6-9.1A16.28,16.28,0,0,1,960.1,520.4Z" transform="translate(-0.02 -0.04)"/><path class="cls-1" d="M966.6,483.4c-.3,8,8.1,11.7,13.9,11.1s10.7-4.3,15.3-7.7c10.6-7.9,21.6-16.3,27.3-28.2,1.7-3.6,2.9-7.5,2.4-11.5s-2.7-7.8-6.4-9.3c-4.3-1.8-9.3,0-13.4,2.2a92.42,92.42,0,0,0-31.4,26.2c-3.9,4.9-7.4,10.8-7.7,17.2" transform="translate(-0.02 -0.04)"/><path class="cls-1" d="M950.8,483.2c7.6-1.7,13.6-8,16.3-15.3s2.6-15.4,1.1-23A70.13,70.13,0,0,0,958,419.7a23.68,23.68,0,0,0-7.3-7.8,11.12,11.12,0,0,0-10.3-1.1c-4.8,2.3-6.4,8.2-7.2,13.5a175,175,0,0,0-2,28c.1,7.5.7,15.4,4.7,21.8s10,10.6,15.9,8.9" transform="translate(-0.02 -0.04)"/><path class="cls-1" d="M159.5,123.5a31.91,31.91,0,0,0-21,3.4c-2.1,1.2-4.4,3-4.5,5.5-.2,3.3,3.3,5.5,6.5,6.3a23.12,23.12,0,0,0,16.1-2c4.9-2.6,8.2-5.6,10.2-10.8" transform="translate(-0.02 -0.04)"/><path class="cls-1" d="M197.8,138.1c-8.3-2.1-21.8-2.1-29.6,1.4a9.49,9.49,0,0,0-3.4,2.2,4,4,0,0,0-1.1,3.7c.5,1.9,2.5,2.9,4.4,3.4a33.4,33.4,0,0,0,33.8-9.5" transform="translate(-0.02 -0.04)"/><path class="cls-1" d="M231.2,155.2a48.68,48.68,0,0,0-25,4.1c-1.8.8-3.8,1.9-4.4,3.9-1,2.9,1.5,5.9,4.3,7.1,5.7,2.6,12.4.8,18.2-1.6,6.2-2.6,13.7-9.1,13.7-9.1" transform="translate(-0.02 -0.04)"/><path class="cls-1" d="M242.3,159.3a141.6,141.6,0,0,1-7.7-26.3c-.3-1.4-.4-3.1.6-4.1a2.91,2.91,0,0,1,3.1-.3,6.36,6.36,0,0,1,2.4,2.2c6.8,8.6,8.9,21.1,6.1,31.7" transform="translate(-0.02 -0.04)"/><path class="cls-1" d="M213.2,143.8l-8.7-22.1a19,19,0,0,1-1.7-6.5c0-2.3,1-4.7,3.1-5.7a6.05,6.05,0,0,1,6.3,1.2,16.42,16.42,0,0,1,3.8,5.5,45.7,45.7,0,0,1,4.9,15.3c.6,5.4.3,9.8-3,14.1" transform="translate(-0.02 -0.04)"/><path class="cls-1" d="M179.7,127.5a51.85,51.85,0,0,1-12.5-24.4,9,9,0,0,1-.1-4.6c1-2.9,4.6-4.3,7.6-3.7a12.77,12.77,0,0,1,8.1,6.1,26.15,26.15,0,0,1,3.1,9.8,61.2,61.2,0,0,1-.3,19.1" transform="translate(-0.02 -0.04)"/><path class="cls-1" d="M148.3,117.4c-8.6-6.5-13.6-15.6-18-25.5-.9-2.1-1.7-4.7-.3-6.4a4.13,4.13,0,0,1,3.9-1.4,9.92,9.92,0,0,1,4,1.6,33,33,0,0,1,15.3,33" transform="translate(-0.02 -0.04)"/><path class="cls-1" d="M132,113.7a88,88,0,0,0-14.1-8.5c-5-2.2-10.6-3.5-16.1-2.7a13,13,0,0,0-6.5,2.7,6.89,6.89,0,0,0-2.5,6.3,7.09,7.09,0,0,0,4,4.9,19.49,19.49,0,0,0,6.3,1.6c10.4,1.1,23,.5,28.9-4.3" transform="translate(-0.02 -0.04)"/><path class="cls-1" d="M237,59.8a31.44,31.44,0,0,0-16.7-13.1c-2.4-.8-5.2-1.2-7.1.4-2.5,2.1-1.8,6.2-.2,9.1a22.91,22.91,0,0,0,12.4,10.5c5.2,1.8,9.7,2.2,14.9.2" transform="translate(-0.02 -0.04)"/><path class="cls-1" d="M252.3,97.8c-4.1-7.5-13.2-17.4-21.1-20.8a10.22,10.22,0,0,0-3.9-1,4,4,0,0,0-3.5,1.7c-1.1,1.6-.4,3.8.5,5.5a33.4,33.4,0,0,0,29.9,18.4" transform="translate(-0.02 -0.04)"/><path class="cls-1" d="M262.3,133.9a48.51,48.51,0,0,0-20-15.6c-1.9-.8-4-1.4-5.8-.6-2.8,1.2-3.3,5.1-2.3,8,2,6,7.8,9.7,13.5,12.3,6.1,2.8,15.9,3.9,15.9,3.9" transform="translate(-0.02 -0.04)"/><path class="cls-1" d="M258.5,113l10.4-21.4a19.27,19.27,0,0,1,3.7-5.7c1.7-1.5,4.1-2.4,6.2-1.6a6,6,0,0,1,3.4,5.4,16.63,16.63,0,0,1-1.4,6.6c-2,5-4.4,9.9-8,13.9s-7,6.9-12.4,7.3" transform="translate(-0.02 -0.04)"/><path class="cls-1" d="M247.8,77.3a52.8,52.8,0,0,1,9.4-25.7,9.21,9.21,0,0,1,3.3-3.2c2.8-1.3,6.2.5,7.9,3.1a12.48,12.48,0,0,1,1,10,25.94,25.94,0,0,1-5.1,9,57.3,57.3,0,0,1-14.2,12.7" transform="translate(-0.02 -0.04)"/><path class="cls-1" d="M233.9,47.4c-1.1-10.7,2.3-20.6,6.5-30.5.9-2.1,2.3-4.4,4.5-4.6a4.42,4.42,0,0,1,3.7,1.9,11.59,11.59,0,0,1,1.6,4,33.07,33.07,0,0,1-13.9,33.6" transform="translate(-0.02 -0.04)"/><path class="cls-1" d="M225.5,32.9a89.53,89.53,0,0,0-3.3-16.2c-1.8-5.2-4.6-10.2-8.9-13.6a12.74,12.74,0,0,0-6.3-3,7.06,7.06,0,0,0-6.3,2.4,7.8,7.8,0,0,0-.9,6.3,19.14,19.14,0,0,0,3.1,5.8c6.2,8.4,15.2,17.2,22.6,18.3" transform="translate(-0.02 -0.04)"/><path class="cls-6" d="M750,658.7c16-10.5,45-30.2,49-60.1,3.9-29.5-20.5-38.7-23.1-71.7-3.5-44.4,38.7-55.4,49.8-107.1,11.2-52.3-19.5-98.7-29.4-113.7-31-46.9-62-46-127.3-95.5-84.1-63.8-8.3-107.1-70.3-143.8S380.4,25.6,312.1,63.2C270,86.3,287.5,106,211.5,194.2c-55.2,64.1-80.7,72.5-94.3,117.8-3.5,11.7-20.9,69.5,10.7,113.7,27.8,38.9,67.6,30.9,81.9,65.1,14.9,35.7-22.2,59.6-15.1,100.5,7.8,45.4,63.2,72.5,101.5,90.6C473.5,765.7,672.1,710.1,750,658.7Z" transform="translate(-0.02 -0.04)"/><ellipse class="cls-7" cx="498.68" cy="705.06" rx="451.3" ry="70.1"/><polygon class="cls-8" points="246.09 506.06 302.79 705.66 295.38 705.66 238.69 506.56 246.09 506.06"/><polygon class="cls-8" points="160.38 506.06 217.19 705.66 209.78 705.66 153.09 506.56 160.38 506.06"/><polygon class="cls-9" points="161.88 537.46 168.88 535.96 159.69 503.86 157.19 521.16 161.88 537.46"/><polygon class="cls-10" points="247.19 536.06 254.28 534.56 245.09 502.46 242.59 519.76 247.19 536.06"/><polygon class="cls-11" points="159.99 506.36 155.88 529.26 114.08 717.96 105.28 717.76 136.19 530.36 139.38 506.36 159.99 506.36"/><path class="cls-11" d="M210.3,719.1h-8.6l19.2-190.9c.3-2.6.9-5.7,1.4-8.3l2.9-18.5,19.7,5.1-3.8,22.8Z" transform="translate(-0.02 -0.04)"/><polygon class="cls-10" points="135.09 539.56 153.38 540.46 160.09 506.36 139.88 505.86 135.09 539.56"/><polygon class="cls-10" points="239.49 538.26 220.19 537.26 224.99 501.36 244.59 505.96 239.49 538.26"/><rect class="cls-11" x="126.38" y="483.06" width="125.6" height="23.5"/><rect class="cls-11" x="119.18" y="657.46" width="98.6" height="7.1"/><rect class="cls-11" x="125.28" y="605.06" width="98.6" height="7.1"/><rect class="cls-11" x="136.38" y="550.46" width="98.6" height="7.1"/><path class="cls-12" d="M201.8,590.6c-3.3.5-92.3-15.3-95.3-18-1.2-1,.4-14.3,2.8-30.2.5-3.4,1-7,1.6-10.6,3.7-23.4,24.5-42,24.5-42l43.1,4.3-9.8,47.8-2.1,10.5s31.4,21.4,34.3,24.8S205.1,590.1,201.8,590.6Z" transform="translate(-0.02 -0.04)"/><path class="cls-13" d="M201.8,590.6c-3.3.5-92.3-15.3-95.3-18-1.4-1.3,1.2-20.5,4.4-40.8l57.9,10.1-2.1,10.5s31.4,21.4,34.3,24.8S205.1,590.1,201.8,590.6Z" transform="translate(-0.02 -0.04)"/><path class="cls-14" d="M201.8,590.6c-3.3.5-92.8-16.6-95.8-19.4-1.2-1,.9-12.9,3.3-28.8l57.4,10s31.4,21.4,34.3,24.8S205.1,590.1,201.8,590.6Z" transform="translate(-0.02 -0.04)"/><path class="cls-15" d="M201.2,586.8c-14.9-3-75.1-13.8-90-15.6-.1,0-.1.1,0,.1,14.7,3.3,75,13.5,90,15.7C201.5,587,201.5,586.8,201.2,586.8Z" transform="translate(-0.02 -0.04)"/><path class="cls-13" d="M195.9,573a12.24,12.24,0,0,0-9.6,2.1,12,12,0,0,0-4.8,7.4.1.1,0,0,0,.2,0c1.9-5.8,8.1-10,14.1-9.4a.1.1,0,0,0,.1-.1Z" transform="translate(-0.02 -0.04)"/><path class="cls-13" d="M172.2,554.9c-6-1.1-13.3-.2-17.8,4-.2.2.1.4.3.4a80.9,80.9,0,0,1,17.6-3.6.55.55,0,0,0,.3-.5,1.38,1.38,0,0,1-.4-.3Z" transform="translate(-0.02 -0.04)"/><path class="cls-13" d="M176.5,557.5c-6-1.1-13.3-.2-17.8,4-.2.2.1.4.3.4a80.9,80.9,0,0,1,17.6-3.6.55.55,0,0,0,.3-.5,1.38,1.38,0,0,1-.4-.3Z" transform="translate(-0.02 -0.04)"/><path class="cls-13" d="M180.8,560.2c-6-1.1-13.3-.2-17.8,4-.2.2.1.4.3.4a80.9,80.9,0,0,1,17.6-3.6.55.55,0,0,0,.3-.5c-.2-.2-.3-.3-.4-.3Z" transform="translate(-0.02 -0.04)"/><path class="cls-13" d="M185.1,562.8c-6-1.1-13.3-.2-17.8,4-.2.2,0,.4.3.4a80.9,80.9,0,0,1,17.6-3.6.55.55,0,0,0,.3-.5c-.2-.2-.3-.3-.4-.3Z" transform="translate(-0.02 -0.04)"/><path class="cls-15" d="M112.2,553.7" transform="translate(-0.02 -0.04)"/><path class="cls-15" d="M132.7,554.5" transform="translate(-0.02 -0.04)"/><path class="cls-13" d="M105.7,572.1s-1.8-4.5.7-13.8c0,0,62.6,21.9,97.9,27.3,0,0,.2,3.1-1.3,4.7S126.3,577.7,105.7,572.1Z" transform="translate(-0.02 -0.04)"/><path class="cls-13" d="M195.7,573.3s-10,.3-11.3,9l-2.4-.6S185.6,570.6,195.7,573.3Z" transform="translate(-0.02 -0.04)"/><path class="cls-12" d="M260.8,655.2c-3.1,1.1-93.5,2.1-97-.1-1.3-.8-2.2-14.1-2.9-30.2-.1-3.5-.3-7.1-.4-10.7-.7-23.6-.9-48.7-.9-48.7l60.5-.8-.8,48.8-.2,10.7s34.8,15.3,38.3,18S264,654,260.8,655.2Z" transform="translate(-0.02 -0.04)"/><path class="cls-13" d="M260.8,655.2c-3.1,1.1-93.5,2.1-97-.1-1.6-1-2.6-20.4-3.2-40.9l58.8-.8-.2,10.7s34.8,15.3,38.3,18S264,654,260.8,655.2Z" transform="translate(-0.02 -0.04)"/><path class="cls-14" d="M260.8,655.2c-3.1,1.1-94.3.8-97.8-1.3-1.3-.8-1.5-12.8-2.1-28.9l58.3-.8s34.8,15.3,38.3,18S264,654,260.8,655.2Z" transform="translate(-0.02 -0.04)"/><path class="cls-15" d="M259.4,651.5c-15.2-.2-76.3.4-91.3,1.3-.1,0-.1.1,0,.1,15,.5,76.2-.5,91.3-1.2C259.8,651.8,259.8,651.6,259.4,651.5Z" transform="translate(-0.02 -0.04)"/><path class="cls-13" d="M251.6,639a12.16,12.16,0,0,0-12.3,12c0,.1.2.1.2,0,.8-6,6.1-11.3,12.1-11.8.1-.1.1-.2,0-.2Z" transform="translate(-0.02 -0.04)"/><path class="cls-13" d="M225.1,625.6c-6.1,0-13.1,2.2-16.8,7.3a.22.22,0,0,0,.3.3,82.76,82.76,0,0,1,16.6-6.8c.2,0,.3-.2.3-.5A.54.54,0,0,0,225.1,625.6Z" transform="translate(-0.02 -0.04)"/><path class="cls-13" d="M229.8,627.4c-6.1,0-13.1,2.2-16.8,7.3a.22.22,0,0,0,.3.3,82.76,82.76,0,0,1,16.6-6.8c.2,0,.3-.2.3-.5A.54.54,0,0,0,229.8,627.4Z" transform="translate(-0.02 -0.04)"/><path class="cls-13" d="M234.5,629.2c-6.1,0-13.1,2.2-16.8,7.3a.22.22,0,0,0,.3.3,82.76,82.76,0,0,1,16.6-6.8c.2,0,.3-.2.3-.5A.54.54,0,0,0,234.5,629.2Z" transform="translate(-0.02 -0.04)"/><path class="cls-13" d="M239.2,631c-6.1,0-13.1,2.2-16.8,7.3a.22.22,0,0,0,.3.3,82.76,82.76,0,0,1,16.6-6.8c.2,0,.3-.2.3-.5A.54.54,0,0,0,239.2,631Z" transform="translate(-0.02 -0.04)"/><path class="cls-15" d="M165.8,635.5" transform="translate(-0.02 -0.04)"/><path class="cls-15" d="M186.2,632.5" transform="translate(-0.02 -0.04)"/><path class="cls-13" d="M163,654.8s-2.6-4.1-1.9-13.7c0,0,65.6,9.9,101.2,8.8,0,0,.8,3-.4,4.8S184.2,656.5,163,654.8Z" transform="translate(-0.02 -0.04)"/><path class="cls-13" d="M251.6,639.3s-9.8,2.2-9.5,10.9l-2.5-.2C239.7,650,241.1,638.5,251.6,639.3Z" transform="translate(-0.02 -0.04)"/><path class="cls-16" d="M133.5,278s-13.8,14.2-9.8,26.5c0,0,65.9,13.2,83.3,5.5s-24.2-25.1-24.2-25.1l-29-21.3Z" transform="translate(-0.02 -0.04)"/><path class="cls-16" d="M183.1,208.2s-19.3-3.7-23.9,14.7-25.8,55.2-25.8,55.2l23-18.4" transform="translate(-0.02 -0.04)"/><path class="cls-16" d="M180.3,209.1s12-3.7,18.4,1.8,12.3,18.9,8.9,41.6" transform="translate(-0.02 -0.04)"/><path class="cls-16" d="M201.4,222.5s4.7,29.8,19.4,47.3,8.4,34.6,8.4,34.6l-1.1-1.1s5.6-16-8.2-32.6-17.7-42.8-17.7-42.8" transform="translate(-0.02 -0.04)"/><polygon class="cls-16" points="163.69 228.36 150.78 270.76 208.78 282.66 209.78 260.56 206.99 242.16 202.38 219.16 192.28 213.66 185.78 210.86 164.59 222.86 163.69 228.36"/><path class="cls-12" d="M178.3,277.7c-3.8-.5-10.4-8.9-12.4-15.4-.1-.5,1.3-4.5,2.9-9.6.9-3.1,1.9-6.5,2.5-9.7l19.1,8.9a51.69,51.69,0,0,0-4.4,11.9,5.7,5.7,0,0,0-.1,1.3v.2C185.7,268,184.3,278.5,178.3,277.7Z" transform="translate(-0.02 -0.04)"/><path class="cls-17" d="M185.8,265.1v.2a15.17,15.17,0,0,1-2.1-.3c-11.6-2.6-11.6-17.5-11.4-21.6l18.1,8.4a47.45,47.45,0,0,0-4.4,11.9A7.84,7.84,0,0,0,185.8,265.1Z" transform="translate(-0.02 -0.04)"/><path class="cls-12" d="M169.5,221.4c-2.4,7.2.9,28.3,5.9,33.2,7.3,7,19.6,8,25.6-.9,5.8-8.6,1.1-36-4.6-40.5C188.1,206.7,173.1,210.7,169.5,221.4Z" transform="translate(-0.02 -0.04)"/><path class="cls-15" d="M188.5,234.6l-.1.1c.3,1.4.4,3.1-.7,3.8v.1C189.2,238.1,189,235.9,188.5,234.6Z" transform="translate(-0.02 -0.04)"/><path class="cls-15" d="M186.9,233.4c-2.3.3-1.6,4.9.5,4.6S188.8,233.1,186.9,233.4Z" transform="translate(-0.02 -0.04)"/><path class="cls-15" d="M196.4,233.1l.1.1c.2,1.4.6,3,2,3.3,0,0,.1.1,0,.1C196.9,236.6,196.3,234.5,196.4,233.1Z" transform="translate(-0.02 -0.04)"/><path class="cls-15" d="M197.4,231.4c2.3-.5,3.1,4,1.1,4.5S195.6,231.8,197.4,231.4Z" transform="translate(-0.02 -0.04)"/><path class="cls-12" d="M173.6,238.6c.1-.1-4.3-7-7.8-5.2-3.1,1.6.4,11.6,4,12.9a3.64,3.64,0,0,0,4.9-1.8l.1-.1Z" transform="translate(-0.02 -0.04)"/><path class="cls-17" d="M166.8,235.3c-.1,0-.1.1,0,.1,2.5,1,3.9,3.4,4.8,5.9a2,2,0,0,0-2.7-.8l-.3.2c-.1,0,0,.1.1.1a2.23,2.23,0,0,1,2.5.8,13.24,13.24,0,0,1,1.2,2c.1.2.5.1.4-.1v-.1C172.8,240.2,170.3,235.7,166.8,235.3Z" transform="translate(-0.02 -0.04)"/><path class="cls-12" d="M199.8,251.1a2,2,0,0,0-1.9-2.1h-4.1c-2.9,0-8.4.8-8.5,1.4-.3,1.5-.3,7.4,11.5,4.5A4.55,4.55,0,0,0,199.8,251.1Z" transform="translate(-0.02 -0.04)"/><path class="cls-15" d="M195.7,249.1a8.9,8.9,0,0,1-7.8.6C188,249.7,192.2,254.5,195.7,249.1Z" transform="translate(-0.02 -0.04)"/><path class="cls-16" d="M169.6,234.1l4.3,4.4S171.4,220,184,215.9a8.91,8.91,0,0,0,3.7-2.3h0A19.88,19.88,0,0,0,194,218a16.42,16.42,0,0,1,9,10.9c2.9,11.6,6.6,32.6.7,50.9L219.4,293l6.8,5.7s-2.7-20.8-10.9-33.6c-4.2-6.5-8.8-29.2-9.8-39.1a20.73,20.73,0,0,0-6.4-13.4,18.09,18.09,0,0,0-16-4.6s-23,0-23,23-27,47.1-27,47.1,19-12,29-15.8c0,0,3.2-.6,4.3-2.2s3.9-13.5,3.9-13.5a14.16,14.16,0,0,1-5.6-11.2s.2-3.3,3.1-2.5Z" transform="translate(-0.02 -0.04)"/><path class="cls-18" d="M200.5,220.1" transform="translate(-0.02 -0.04)"/><path class="cls-19" d="M187,260a24.78,24.78,0,0,0-1.2,6.6s19.5,14.4,23.6,18c0,0-10.8-17.6-6.6-35.1C202.8,249.6,201,260.3,187,260Z" transform="translate(-0.02 -0.04)"/><path class="cls-20" d="M188.4,229.4a2,2,0,0,1,.9,2.7h0s-5.4-1.8-8.1.9l-1.8.9a10.62,10.62,0,0,1,4.5-3.6A16.35,16.35,0,0,1,188.4,229.4Z" transform="translate(-0.02 -0.04)"/><path class="cls-20" d="M194.6,228.6a1.57,1.57,0,0,0,0,2.2h0s3.5-2.9,6.3-1.6l1.6.2a7.67,7.67,0,0,0-4.4-1.4A10.3,10.3,0,0,0,194.6,228.6Z" transform="translate(-0.02 -0.04)"/><path class="cls-20" d="M193.2,236.7s2.8,3.7,2.8,6.4-4.6,1.9-4.6,1.9,4.6,0,3.7-2.8Z" transform="translate(-0.02 -0.04)"/><path class="cls-16" d="M187.7,213.7a54.94,54.94,0,0,1-10.1,9.2c-5.5,3.7-3.7,15.1-3.7,15.1l-1.5-19.4Z" transform="translate(-0.02 -0.04)"/><path class="cls-19" d="M164.6,236.7s1.6,19.9-15.1,31.9c0,0,10.6-4.7,16.2-6.4l4.7-15.6S165.7,244.8,164.6,236.7Z" transform="translate(-0.02 -0.04)"/><path class="cls-15" d="M185.9,233.8c-.3.2-.6.6-1.1.6a1.36,1.36,0,0,1-1.1-.7h-.1a1.44,1.44,0,0,0,1.1,1.6c.8.1,1.2-.6,1.4-1.3C186.2,233.9,186,233.7,185.9,233.8Z" transform="translate(-0.02 -0.04)"/><path class="cls-15" d="M198.4,231.8c.3.2.6.6,1,.6s.8-.4,1.1-.7a.1.1,0,0,1,.1.1,1.44,1.44,0,0,1-1.1,1.6c-.8.1-1.2-.6-1.4-1.3C198.1,231.9,198.3,231.7,198.4,231.8Z" transform="translate(-0.02 -0.04)"/><path class="cls-2" d="M385.1,450.5v.4l29.7-.3A25.18,25.18,0,0,0,439.7,425l-.3-36.9a36.54,36.54,0,1,0-.5-59.9l-.3-36.1a25.27,25.27,0,0,0-25.4-25.2h0L281.5,268a25.27,25.27,0,0,0-25,25.6h0l1.2,132.9a25.33,25.33,0,0,0,25.4,25.2l29.7-.3V451a36.17,36.17,0,1,1,72.3-2.1v1.6Z" transform="translate(-0.02 -0.04)"/><path class="cls-1" d="M385.8,443v.4l29.7-.3a25.25,25.25,0,0,0,24.9-25.6l-.3-36.9a36.54,36.54,0,1,0-.5-59.9l-.3-36.1a25.33,25.33,0,0,0-25.4-25.2l-131.7,1.1a25.4,25.4,0,0,0-25,25.6L258.4,419a25.33,25.33,0,0,0,25.4,25.2l29.7-.3v-.4a36.17,36.17,0,1,1,72.3-2.1V443Z" transform="translate(-0.02 -0.04)"/><path class="cls-21" d="M109.5,524.4l61.1,7s64.8-99.6,58.3-134.1c-3.6-18.9-68-48.7-68-48.7l-6.5-13.1H109s-18.5,27.3-5.2,53c9,17.4,58.7,30.7,60.5,36.3C166.6,432.3,109.5,524.4,109.5,524.4Z" transform="translate(-0.02 -0.04)"/><path class="cls-22" d="M165.3,515.5c5.4-8.3,34.4-60.7,38.8-69.5,2.2-4.4,4.3-8.9,6.2-13.4a133.53,133.53,0,0,0,5-13.8c1.3-4.7,2.5-9.6,1.5-14.2A20.23,20.23,0,0,0,214,398a29.77,29.77,0,0,0-2-2.9c-.8-.9-1.6-1.9-2.4-2.7-6.8-7-15.3-12.2-23.9-17s-17.6-8.9-26.5-13c-2.2-1.1-4.4-2.1-6.6-3.3l-3.3-1.8a7.47,7.47,0,0,1-2.8-2.5c-2.5-4.3-3.5-9.3-4-14.2.6,4.9,1.7,9.8,4.3,14a6.67,6.67,0,0,0,2.7,2.3c1.1.6,2.2,1.2,3.3,1.7,2.2,1.1,4.5,2.1,6.7,3.1,9,4,18,8,26.8,12.7a138.94,138.94,0,0,1,12.8,7.6,69.42,69.42,0,0,1,11.5,9.4c.9.9,1.7,1.9,2.5,2.8a34.57,34.57,0,0,1,2.2,3.1,19.85,19.85,0,0,1,3.1,14.6c-.2,1.2-.4,2.5-.7,3.7l-.9,3.6a117.17,117.17,0,0,1-5.1,14c-1.9,4.5-4,9-6.3,13.4C200.9,455.4,170.9,507.4,165.3,515.5Z" transform="translate(-0.02 -0.04)"/><path class="cls-21" d="M135.2,393.8s24.9,78.6,25.4,93c.4,12.3-1.2,120.9-1.2,120.9l63.1.4s-5.3-111.1-6.3-124c-1.9-24-22.9-89.9-37.9-148.5h-68s.6,30.7,14.6,53C124.9,388.6,131.2,391.5,135.2,393.8Z" transform="translate(-0.02 -0.04)"/><path class="cls-22" d="M176.6,372.7c2.3,7.5,4.1,15.1,6.2,22.7s4,15.3,6.1,22.9c3.9,14.8,7.7,29.6,10.6,44.6a270.79,270.79,0,0,1,5,45.7c.3,15.6,0,31.3-.1,47s-.2,13.8-.5,29.5c0,2,0,3.9-.1,5.9,0,.1-.1.1-.2.1a.1.1,0,0,1-.1-.1c-.4-15.6-.2-13.6-.1-29.3s.3-31.3.1-47a289.74,289.74,0,0,0-4-46.4c-2.6-15.1-6.4-29.9-10.2-44.7-2.2-8.4-4.4-16.9-6.6-25.3s-4.6-17-6.5-25.5c0-.1,0-.3.1-.3h0c.1-.1.2,0,.3.2Z" transform="translate(-0.02 -0.04)"/><path class="cls-22" d="M211.2,457.1c-2.3-8.2-4.6-16.3-6.8-24.5l-6.5-24.5-6.4-24.6q-1.5-6.15-3.3-12.3c-1.1-4.1-2.2-8.2-3.7-12.2,3.4,7.8,5.6,16,8.1,24.1s4.6,16.3,6.8,24.5,4.2,16.4,6.2,24.7S209.4,448.8,211.2,457.1Z" transform="translate(-0.02 -0.04)"/><path class="cls-1" d="M180.5,322.5l-2.2,13.2H108.9s22.5-56.2,45-69.7c11.3-6.7,21.1-3,25.5,5.3,1.1,2.1,11.6,25.3,10.7,35.6C189.4,316,180.5,322.5,180.5,322.5Z" transform="translate(-0.02 -0.04)"/><path class="cls-23" d="M179.1,330.9l-.3,1.9H110.1c.3-.6.5-1.2.8-1.9Z" transform="translate(-0.02 -0.04)"/><path class="cls-23" d="M179.8,326.6l-.3,1.9H112c.3-.6.5-1.2.8-1.9Z" transform="translate(-0.02 -0.04)"/><path class="cls-12" d="M168.7,281c7.3,10.7,38.5,44.7,50.8,43.6,19.3-1.7,39.5-11.3,50.7-16.2,3.5-1.6-12.6-35.6-19.1-31.8-8.4,4.9-25.7,12-30.7,12.8-3.4.5-26.2-12.4-42.1-21.3C164.9,260.6,159.4,267.5,168.7,281Z" transform="translate(-0.02 -0.04)"/><path class="cls-12" d="M302.7,271.1c-5.4-1-9.4-2.1-11.9-2.4-.4,0-.8-.1-1.1-.1h-.6l.2.2c.9,1.1,5.3,6.6,5.5,11.5v.5a3.75,3.75,0,0,1-.1,1.1v.1a.6.6,0,0,1-.1.4c-.4,1.6-1.2,4.8-2.3,8.2-.1.2-.1.5-.2.7a.37.37,0,0,1-.1.3c-.1.3-.2.7-.3,1-.6,1.7-1.2,3.5-1.9,5-1-.2-2-.4-2.9-.6a11.11,11.11,0,0,1-1.3,2.7,12.49,12.49,0,0,1-9.3,5.9l-6.1,2.7-1.1.5-1.9.8-21.9-29.4,5.6-3.6.1-.1a25.63,25.63,0,0,0,4.8-4.5c5.7-6.4,23.7-18.3,46.3-9.9C310.8,265.4,312.3,272.9,302.7,271.1Z" transform="translate(-0.02 -0.04)"/><path class="cls-12" d="M308.2,282.2c-.7,2.8-3.1,3.3-5,3.3a9.86,9.86,0,0,1-2.4-.3l-.2-.1h0c.1.1.5.3,1,.7h0c1.7,1.4,4.8,4.4,3.3,7.4a4.31,4.31,0,0,1-4.3,2.4,6.72,6.72,0,0,1-2.4-.4H298l.1.1a5.83,5.83,0,0,1,1.1,1.5h0a4.21,4.21,0,0,1-.2,4.9c-2.5,3.4-7.8-1.5-13.3-2a8.17,8.17,0,0,0-2.7.1c-1.4.3-20.5-33-20.5-33,4.5-.5,13.9-1.6,22,.3.7.2,1.4.4,2.2.6,1,.3,2.1.6,3.2,1h0c.6.2,1.3.4,1.9.6h0C300,272.3,309.4,277.2,308.2,282.2Z" transform="translate(-0.02 -0.04)"/><path class="cls-12" d="M280.5,276.2c4.3.2,13.9,3,19.9,8.7.1.1.1.3,0,.2a96,96,0,0,0-19.9-8.9Z" transform="translate(-0.02 -0.04)"/><path class="cls-12" d="M298,295.4h0c-2.1-1.4-4.1-2.6-6-3.7l-.5-.3a99.46,99.46,0,0,0-12.8-6m0-.1a42.1,42.1,0,0,1,13.6,5.4,15.26,15.26,0,0,1,1.6,1.1,22.46,22.46,0,0,1,4.1,3.4c0,.1.1.1,0,.2Z" transform="translate(-0.02 -0.04)"/><path class="cls-1" d="M211.1,285.4l-12.8,31.5s-7-7.1-14.9-16c-3.6-4-7.3-8.3-10.6-12.4-1.9-2.4-3.7-4.7-5.2-6.8-10.2-14.4-4.5-21.4,10.9-15S211.1,285.4,211.1,285.4Z" transform="translate(-0.02 -0.04)"/><path class="cls-16" d="M291.5,269.3c-.1,0-1-.2-2.3-.4-2.8-.4-7.4-.9-10.7.4a15.19,15.19,0,0,1,7.9-1.6,25,25,0,0,1,3.8.6l.6.4c-.4,0-.8-.1-1.1-.1A9.62,9.62,0,0,1,291.5,269.3Z" transform="translate(-0.02 -0.04)"/><path class="cls-16" d="M303.1,285.5a9.86,9.86,0,0,1-2.4-.3c-.1-.1-.2-.2-.3-.2a19.05,19.05,0,0,0-5.5-2.8l-.3-.1a28.2,28.2,0,0,0-11.2-1.1,19.63,19.63,0,0,1,9.9-.8l1.4.3A15.5,15.5,0,0,1,303.1,285.5Z" transform="translate(-0.02 -0.04)"/><path class="cls-16" d="M298,295.4a5.83,5.83,0,0,1,1.1,1.5,18,18,0,0,0-7.5-4.2,15.93,15.93,0,0,0-7.2-.2,15.18,15.18,0,0,1,7-1.1l.6.1a14.22,14.22,0,0,1,8.5,4.3h0a6.72,6.72,0,0,1-2.4-.4v.1a.1.1,0,0,1-.1-.1Z" transform="translate(-0.02 -0.04)"/><path class="cls-12" d="M671.2,340c2.3-.4,2.1-1.6-1.5-3.6s-19.8-6.7-17.6-12.2,24.8,1.5,30.6,5.3,13.9,11.9,13.9,11.9C691.9,340.9,680.4,340.9,671.2,340Z" transform="translate(-0.02 -0.04)"/><path class="cls-2" d="M516.3,532.5v-.4l-29.9.1a25.48,25.48,0,0,0-25.3,25.7l.1,37.2a36.73,36.73,0,1,0,.3,60.2l.1,36.4A25.46,25.46,0,0,0,487,717.2h0l132.6-.5a25.46,25.46,0,0,0,25.3-25.6h0l-.5-133.8A25.39,25.39,0,0,0,619,531.8h0l-29.9.1v.4a36.4,36.4,0,1,1-72.8.2Z" transform="translate(-0.02 -0.04)"/><rect class="cls-24" x="448.98" y="589.46" width="7.6" height="79.6"/><path class="cls-24" d="M456.3,590h.4V560.2a25.39,25.39,0,0,0-25.6-25.3H394a36.77,36.77,0,1,0-60.3,0H297.3a25.46,25.46,0,0,0-25.6,25.3V692.8a25.39,25.39,0,0,0,25.6,25.3H431.1a25.46,25.46,0,0,0,25.6-25.3h0V662.9h-.4a36.45,36.45,0,1,1,0-72.9Z" transform="translate(-0.02 -0.04)"/><path class="cls-25" d="M448.6,589.3c.1,0,.2,3.9.4,3.9V559.4a25.39,25.39,0,0,0-25.6-25.3H386.3a36.77,36.77,0,1,0-60.3,0H289.6A25.46,25.46,0,0,0,264,559.4h0V692a25.39,25.39,0,0,0,25.6,25.3H423.4A25.46,25.46,0,0,0,449,692V662.1c-.1,0,.1-3,0-3-20.3,0-37.1-13.3-37.1-33.5A36.58,36.58,0,0,1,448.6,589.3Z" transform="translate(-0.02 -0.04)"/><path class="cls-1" d="M511.3,531.9v-.4l-29.9.1a25.48,25.48,0,0,0-25.3,25.7l.1,37.1a36.8,36.8,0,1,0,.2,60.3l.1,36.4a25.46,25.46,0,0,0,25.4,25.5h0l132.6-.5a25.33,25.33,0,0,0,25.2-25.7l-.5-133.8a25.46,25.46,0,0,0-25.4-25.5h0l-29.9.1v.4a36.3,36.3,0,1,1-72.6.3Z" transform="translate(-0.02 -0.04)"/><path class="cls-12" d="M673.2,709c3.2,1,94.5.2,98-2,1.3-.8,2-14.1,2.3-30.2.1-3.5.1-7.1.2-10.7.3-23.7,0-48.8,0-48.8l-61.1.4,1.7,48.8.4,10.7s-34.8,15.9-38.3,18.8S670,708,673.2,709Z" transform="translate(-0.02 -0.04)"/><path class="cls-13" d="M673.2,709c3.2,1,94.5.2,98-2,1.6-1,2.3-20.5,2.5-41l-59.4.3.4,10.7s-34.8,15.9-38.3,18.8S670,708,673.2,709Z" transform="translate(-0.02 -0.04)"/><path class="cls-26" d="M668.7,708.9c3.4,1.2,100,2.3,103.7,0,1.4-.9,2.4-14.9,3.1-31.9l-62.3-.9s-37.2,16.1-41,19.1S665.4,707.7,668.7,708.9Z" transform="translate(-0.02 -0.04)"/><path class="cls-15" d="M678.9,690.8a12.64,12.64,0,0,1,9.6,4.1,12.16,12.16,0,0,1,3.5,8.7c0,.1-.2.1-.2,0a15,15,0,0,0-13-12.5.1.1,0,0,1-.1-.1l.2-.2Z" transform="translate(-0.02 -0.04)"/><path class="cls-15" d="M707.3,676.7c6.5,0,14,2.4,17.9,7.7.2.2-.2.4-.3.3a87.66,87.66,0,0,0-17.7-7.2.37.37,0,0,1-.2-.5A.32.32,0,0,1,707.3,676.7Z" transform="translate(-0.02 -0.04)"/><path class="cls-15" d="M702.3,678.6c6.5,0,14,2.4,17.9,7.7.2.2-.1.4-.3.3a87.66,87.66,0,0,0-17.7-7.2.35.35,0,0,1-.3-.5h0C701.9,678.7,702.1,678.6,702.3,678.6Z" transform="translate(-0.02 -0.04)"/><path class="cls-15" d="M697.3,680.5c6.5,0,14,2.4,17.9,7.7.2.2-.1.4-.3.3a87.66,87.66,0,0,0-17.7-7.2.55.55,0,0,1-.3-.5h0C696.9,680.6,697.1,680.5,697.3,680.5Z" transform="translate(-0.02 -0.04)"/><path class="cls-15" d="M692.2,682.4c6.5,0,14,2.4,17.9,7.7.2.2-.2.4-.3.3a87.66,87.66,0,0,0-17.7-7.2.55.55,0,0,1-.3-.5h0A.54.54,0,0,1,692.2,682.4Z" transform="translate(-0.02 -0.04)"/><path class="cls-15" d="M772.3,709s3.2-5.4,2.4-15.7c0,0-69,10.2-107.1,8.9,0,0-.9,4.2.3,6.2S749.6,710.7,772.3,709Z" transform="translate(-0.02 -0.04)"/><path class="cls-15" d="M679,691.3s10.5,2.3,10.1,11.6l2.6-.2C691.7,702.6,690.2,690.4,679,691.3Z" transform="translate(-0.02 -0.04)"/><path class="cls-12" d="M837.1,708.8c3.3-.3,86.6-37.8,88.9-41.2.9-1.3-3.9-13.7-10-28.6q-1.95-4.8-4.2-9.9c-9.3-21.8-19.6-44.7-19.6-44.7l-55.8,24.9,21.2,44,4.6,9.7s-25.5,28.6-27.6,32.6S833.8,709.1,837.1,708.8Z" transform="translate(-0.02 -0.04)"/><path class="cls-13" d="M837.1,708.8c3.3-.3,86.6-37.8,88.9-41.2,1-1.6-6.2-19.6-14.2-38.5l-54.2,24.2,4.6,9.7s-25.5,28.6-27.6,32.6S833.8,709.1,837.1,708.8Z" transform="translate(-0.02 -0.04)"/><path class="cls-26" d="M833,710.4c3.5-.3,92.5-38.1,94.9-41.7,1-1.3-3.8-14.6-10-30.5l-57.4,24.2s-27.5,29.7-29.8,33.9S829.4,710.7,833,710.4Z" transform="translate(-0.02 -0.04)"/><path class="cls-15" d="M835,689.8a13.21,13.21,0,0,1,10.5-.2,12.53,12.53,0,0,1,6.7,6.5c0,.1-.1.2-.2.1a14.86,14.86,0,0,0-16.9-6.2h-.2c0-.1,0-.1.1-.2Z" transform="translate(-0.02 -0.04)"/><path class="cls-15" d="M855.4,665.5c5.9-2.6,13.7-3.5,19.5-.2.2.1,0,.4-.2.4a87,87,0,0,0-19.1.5.37.37,0,0,1-.4-.4c-.1-.1,0-.3.2-.3Z" transform="translate(-0.02 -0.04)"/><path class="cls-15" d="M851.5,669.2c5.9-2.6,13.7-3.5,19.5-.2.2.1,0,.5-.2.4a87,87,0,0,0-19.1.5.37.37,0,0,1-.4-.4c0-.1.1-.2.2-.3Z" transform="translate(-0.02 -0.04)"/><path class="cls-15" d="M847.7,673c5.9-2.6,13.7-3.5,19.5-.2.2.1,0,.4-.2.4a93.69,93.69,0,0,0-19.1.5.37.37,0,0,1-.4-.4c-.1-.1,0-.3.2-.3Z" transform="translate(-0.02 -0.04)"/><path class="cls-15" d="M843.9,676.7c5.9-2.6,13.8-3.5,19.5-.2.2.1,0,.4-.2.4a87,87,0,0,0-19.1.5.37.37,0,0,1-.4-.4c-.1,0,0-.2.2-.3Z" transform="translate(-0.02 -0.04)"/><path class="cls-15" d="M927.8,668.9s.7-6.3-4.1-15.3c0,0-59.1,37-94.5,51.2,0,0,.8,4.2,2.8,5.5S907.7,679.5,927.8,668.9Z" transform="translate(-0.02 -0.04)"/><path class="cls-15" d="M835.2,690.2s10.5-2.1,13.9,6.5l2.3-1.2C851.5,695.5,845.2,684.9,835.2,690.2Z" transform="translate(-0.02 -0.04)"/><path class="cls-27" d="M766.7,290c-10,4.8-45.2,13.8-59.8,4.1-13.1-8.7-14.2-71.5-8.7-91.6,1.9-7,29.7,6.5,32.7,12.5,2.5,5.1-1.6,52.4.4,53.5,3.4,1.7,14.5,3.1,32.1,5.5C780,276.3,773.8,286.7,766.7,290Z" transform="translate(-0.02 -0.04)"/><path class="cls-15" d="M731.7,235.7l-37.3-17.6s-6.4,63.8,11.8,77.3c4.2,3.1,32.1,8.3,58.4-3,8.1-3.5,20.8-15.5-3.4-19.3s-28.6-5.2-29-5.8S731.7,235.7,731.7,235.7Z" transform="translate(-0.02 -0.04)"/><g class="cls-28"><path class="cls-15" d="M713.7,249.6a3.15,3.15,0,0,0,4.4-.4c2.1-2.4,1.1-6.5,0-9.3s-3-5.7-6.2-6.2a2.56,2.56,0,0,0-2.8,3.3c.4,2.1,1.5,4,2.1,6.1S711.7,248.1,713.7,249.6Z" transform="translate(-0.02 -0.04)"/><path class="cls-15" d="M717.4,262.5c1.9-1,2.2-3.7,2.2-5.6a6,6,0,0,0-.8-2.9c-.8-1.1-2.4-1.9-3.7-1a3.6,3.6,0,0,0-1.3,2.3c-.1.5-.1.9-.2,1.4v.3c-.2,1.4-.7,2.8-.2,4.2a2.66,2.66,0,0,0,3.5,1.6A2.19,2.19,0,0,1,717.4,262.5Z" transform="translate(-0.02 -0.04)"/><path class="cls-15" d="M727.5,258.1a17.09,17.09,0,0,0,.8-10.5c-.5-2.8-1.6-7.3-4.8-8.1a1.75,1.75,0,0,0-1.8.9c-1.3,2.1,0,5.7.2,8,.3,2.9,0,5.8.3,8.7a2.82,2.82,0,0,0,5.3,1Z" transform="translate(-0.02 -0.04)"/><path class="cls-15" d="M709.8,272.5a3.48,3.48,0,0,0,1.5.7,4,4,0,0,0,2.4-.5,4.47,4.47,0,0,0,1.6-2,4.94,4.94,0,0,0,.5-2.4c-.1-.2-.1-.5-.2-.7l-.3-.7a3.27,3.27,0,0,0-1.5-1.1,2.81,2.81,0,0,0-3.1.9,11.6,11.6,0,0,0-1.6,2.1c-.1.3-.2.5-.3.8a2.44,2.44,0,0,0,0,1.2A2.38,2.38,0,0,0,709.8,272.5Z" transform="translate(-0.02 -0.04)"/><path class="cls-15" d="M719.6,271.6a2.62,2.62,0,0,0,3.1-.7,6.09,6.09,0,0,0,1.3-3.1,5.46,5.46,0,0,0-.1-3.1,2.07,2.07,0,0,0-2.7-1.2,1.56,1.56,0,0,0-.8.6,10.08,10.08,0,0,0-1.2,2.3,16.44,16.44,0,0,0-1.1,2.5A2.86,2.86,0,0,0,719.6,271.6Z" transform="translate(-0.02 -0.04)"/></g><path class="cls-15" d="M695.4,227.7a89.35,89.35,0,0,1,9,3.7c2.9,1.3,5.9,2.6,8.8,3.9,5.9,2.6,11.9,5.1,17.6,8.1v.2h0l-.1.1a190.67,190.67,0,0,1-18.1-7.4c-3-1.3-6-2.7-8.9-4s-5.7-2.7-8.5-4.3C695.2,227.8,695.3,227.6,695.4,227.7Z" transform="translate(-0.02 -0.04)"/><path class="cls-29" d="M764.6,292.4c-26.3,11.3-54.3,6.1-58.4,3-8.4-6.3-11.6-23.3-12.5-39.9l38.3,8.6c0,1,.1,2.1.2,3.1.1.2.5.4,1.5.7a140.26,140.26,0,0,0,15.4,3.1c3.3.6,7.3,1.2,12.1,2C785.3,276.8,772.8,288.9,764.6,292.4Z" transform="translate(-0.02 -0.04)"/><path class="cls-21" d="M794.2,378.7s-15.9,157-16.2,158.9c0,.3-.2,3.3-.3,8.2-.9,27-3,111.3-3,111.3H710s4.2-99.8,6.7-123.1c3.1-29.7,22.6-155.4,22.6-155.4Z" transform="translate(-0.02 -0.04)"/><path class="cls-22" d="M794.2,378.7s-15.9,157-16.2,158.9c0,.3-.2,3.3-.3,8.2L747.2,378.7Z" transform="translate(-0.02 -0.04)"/><path class="cls-21" d="M739.1,378.7s4.3,22.7,20.1,34.2c0,0,34.9,116.7,39.4,130.1,7.8,23.1,49.8,101.2,49.8,101.2l64.8-27.8s-49.4-87-54.8-93.7c-3.5-4.5-29.8-99-29.8-101.5-.5-27.8-9.9-42.6-9.9-42.6Z" transform="translate(-0.02 -0.04)"/><path class="cls-22" d="M791.5,386.9a21.4,21.4,0,0,0,7.9,11.4c4.2,3.2,9.2,4.5,14.4,4.9a.71.71,0,0,1,0,1.4c-10.5.1-21.2-6.7-22.8-17.6,0-.1.1-.2.3-.2S791.5,386.8,791.5,386.9Z" transform="translate(-0.02 -0.04)"/><path class="cls-22" d="M749.1,405.7a57,57,0,0,1,10.9,5.8c3.6,2.3,7,4.9,10.5,7.3.1.1,0,.3-.1.2-3.7-2.1-7.5-3.9-11.1-6.1A71.18,71.18,0,0,1,749,406C748.8,405.9,748.9,405.6,749.1,405.7Z" transform="translate(-0.02 -0.04)"/><path class="cls-22" d="M747.6,383.7c.6,2.4,1.3,4.8,1.9,7.2s1.1,4.5,1.8,6.8a11.39,11.39,0,0,0,3.5,5.6c.9.8,2,1.5,2.9,2.2a9.91,9.91,0,0,0,1.7,1.1,3,3,0,0,1-.2-1l-.6-2.8c-.4-2-.9-4.1-1.3-6.1-.8-4-1.6-8.1-2.6-12,0-.2.2-.2.3-.1,1.2,3.9,2.5,7.8,3.5,11.8.5,1.9,2.5,11.6,2.6,12.3l.3,2.1a8.13,8.13,0,0,1,.1,2.2c0,.1-.1.1-.2.1h0l-.1-.1h0a8.64,8.64,0,0,1-.7-2.1l-.6-2.1c-.1-.3-.1-.5-.2-.8a27.5,27.5,0,0,1-2.8-1.9c-.9-.6-2-1.3-3-2a11.64,11.64,0,0,1-3.7-5.3,42.59,42.59,0,0,1-1.5-6.9c-.4-2.7-.8-5.5-1.3-8.2C747.3,383.6,747.5,383.5,747.6,383.7Z" transform="translate(-0.02 -0.04)"/><path class="cls-22" d="M814.5,381.3a54.13,54.13,0,0,1,9,28.9,49.93,49.93,0,0,1-.6,7.7c-.1.6-.2,1.3-.3,1.9l-.2.9a2.2,2.2,0,0,0-.1.8c.2,1.2.5,2.5.7,3.7,1.2,4.9,2.5,9.9,3.8,14.8,5.3,19.6,10.6,39.3,16.2,58.8l4.2,14.6c.7,2.4,1.5,4.9,2.2,7.3.4,1.2.8,2.4,1.2,3.5a34.12,34.12,0,0,0,1.7,3.3c4.8,8.9,10,17.7,15,26.6,0,0,25.5,42.9,30.8,52.8.2.5.1.8-.3.1-4.6-6-21.2-34.8-31.6-52.3-5.2-8.8-10.3-17.5-15.2-26.5-.6-1.1-1.2-2.3-1.8-3.5a23.15,23.15,0,0,1-1.3-3.7c-.8-2.4-1.5-4.9-2.3-7.3-1.5-4.9-2.9-9.8-4.3-14.7-5.5-19.6-10.9-39.2-15.8-59-1.2-4.9-2.5-9.9-3.6-14.9-.3-1.3-.5-2.5-.7-3.8a2.15,2.15,0,0,1,.2-1.1l.2-.9a10.79,10.79,0,0,0,.3-1.9,63.37,63.37,0,0,0,.7-7.5A52.6,52.6,0,0,0,814.5,381.3Z" transform="translate(-0.02 -0.04)"/><path class="cls-29" d="M824,387.5l-90.1.6c.2-1.7,5.1-71.6,27.7-113.3,1.6-2.9,15.7-6.1,22-.4,5.2,4.7,9.9,11.8,14,20,2.3,4.6,4.5,9.5,6.5,14.7C817.3,343.4,823.7,386.7,824,387.5Z" transform="translate(-0.02 -0.04)"/><path class="cls-12" d="M770.2,288.7c3.7-.5,10.2-8.7,12.1-15,.1-.4-1.3-4.4-2.8-9.4-.9-3-1.8-6.3-2.5-9.5l-18.6,8.7a54,54,0,0,1,4.3,11.6,5.7,5.7,0,0,1,.1,1.3v.2C763,279.2,764.4,289.4,770.2,288.7Z" transform="translate(-0.02 -0.04)"/><path class="cls-17" d="M762.9,276.5v.2l2-.3c11.3-2.5,11.3-17,11.1-21l-17.6,8.2a54,54,0,0,1,4.3,11.6A5.07,5.07,0,0,1,762.9,276.5Z" transform="translate(-0.02 -0.04)"/><path class="cls-12" d="M778.8,233.9c2.3,7-.8,27.6-5.7,32.3-7.1,6.8-19,7.8-24.9-.9-5.7-8.4-1.1-35.1,4.5-39.4C760.7,219.6,775.3,223.5,778.8,233.9Z" transform="translate(-0.02 -0.04)"/><path class="cls-15" d="M760.4,246.7c0-.1.1.1.1.1-.3,1.4-.4,3,.7,3.7v.1C759.7,250.1,759.8,248,760.4,246.7Z" transform="translate(-0.02 -0.04)"/><path class="cls-15" d="M761.9,245.5c2.2.3,1.5,4.7-.5,4.5S760,245.3,761.9,245.5Z" transform="translate(-0.02 -0.04)"/><path class="cls-15" d="M752.6,245.3a.1.1,0,0,0-.1.1c-.2,1.4-.6,3-1.9,3.2v.1C752.1,248.7,752.7,246.6,752.6,245.3Z" transform="translate(-0.02 -0.04)"/><path class="cls-15" d="M751.6,243.6c-2.2-.5-3.1,3.9-1,4.4S753.5,244.1,751.6,243.6Z" transform="translate(-0.02 -0.04)"/><path class="cls-15" d="M759.6,259.9c-.4.3-.8.7-1.3.6a3.51,3.51,0,0,1-1.4-.6m-.1.1a1.9,1.9,0,0,0,1.6,1,1.63,1.63,0,0,0,1.3-1.1l-.1-.1Z" transform="translate(-0.02 -0.04)"/><path class="cls-12" d="M774.8,250.7s4.6-6.6,7.6-5-.4,11.2-3.9,12.6a3.7,3.7,0,0,1-4.8-1.8l-.1-.1Z" transform="translate(-0.02 -0.04)"/><path class="cls-30" d="M781.4,247.5h0c-2.5,1.1-3.8,3.4-4.6,5.8a2,2,0,0,1,2.7-.8h0l.3.2c.1,0,0,.1-.1.1a2,2,0,0,0-2.4.8,13.24,13.24,0,0,0-1.2,2c-.1.2-.5.1-.4-.1v-.1C775.6,252.2,778,247.8,781.4,247.5Z" transform="translate(-0.02 -0.04)"/><path class="cls-20" d="M767.1,241.2a5.85,5.85,0,0,0-3.8-1.3,5.85,5.85,0,0,1-3.8-1.3s0,2.5,1.3,2.5S764.6,239.9,767.1,241.2Z" transform="translate(-0.02 -0.04)"/><path class="cls-16" d="M775.2,253.3s-.1-.7-3.2,2.8c-1.4,1.6-3,4.1-5,3.5-2.3-.7-5.2-2.8-8.6-2-5.9,1.5-11.6-4.1-12.8-.7-.9,2.7,2.7,10.2,4.9,13.5a5.09,5.09,0,0,0,4.5,2.3c3.2-.1,8.3-.5,10.8-1.5,3.9-1.5,8.8-3,10.7-7.6S775.2,259.4,775.2,253.3Z" transform="translate(-0.02 -0.04)"/><path class="cls-12" d="M749.3,262.8a1.89,1.89,0,0,1,1.8-2h4.1c2.9,0,8.2.8,8.3,1.4.3,1.5.3,7.2-11.2,4.4A4.72,4.72,0,0,1,749.3,262.8Z" transform="translate(-0.02 -0.04)"/><path class="cls-15" d="M752.3,260.9a10.36,10.36,0,0,0,8.6.5S756.2,266,752.3,260.9Z" transform="translate(-0.02 -0.04)"/><path class="cls-30" d="M754.3,249.5s-3.2,4.9-2.2,5.9,7,0,7,0,1.6-1.1-2.7-.5-3.8-.5-3.8-.5A13.6,13.6,0,0,1,754.3,249.5Z" transform="translate(-0.02 -0.04)"/><path class="cls-19" d="M775.2,253.3s-1-1-5.4,5.3-2.6,7.2-5.3,10.8c-1.9,2.6-.9,1.9-7.6,3.2a29.57,29.57,0,0,0,17.6-5.9s3.7-3.7,2.7-6.3S775.2,256.9,775.2,253.3Z" transform="translate(-0.02 -0.04)"/><path class="cls-20" d="M759.7,239.5s0,2,1.5,1.6c1.1-.2,2.1-.4,3.2-.5C764.4,240.6,761.1,240.9,759.7,239.5Z" transform="translate(-0.02 -0.04)"/><path class="cls-20" d="M747.4,241.1a5.85,5.85,0,0,1,3.8-1.3,5.35,5.35,0,0,0,3.8-1.3s0,2.5-1.3,2.5S749.9,239.9,747.4,241.1Z" transform="translate(-0.02 -0.04)"/><path class="cls-20" d="M754.8,239.5s0,2-1.5,1.6c-1.1-.2-2.1-.4-3.2-.5C750.1,240.6,753.4,240.9,754.8,239.5Z" transform="translate(-0.02 -0.04)"/><path class="cls-31" d="M725.2,292.4v7.1s22.4-1.4,26.7-2.8c0,0,4.3-8.5,8.6-11.3,0,0-22.4,5.6-35.3,1.4Z" transform="translate(-0.02 -0.04)"/><path class="cls-32" d="M722,334s13.5-.1,15.6,8.1a18.47,18.47,0,0,0-9.2-13.7C728.3,328.5,725.6,332.7,722,334Z" transform="translate(-0.02 -0.04)"/><polyline class="cls-22" points="773.18 515.46 766.28 657.06 774.59 656.66 778.18 535.06"/><path class="cls-12" d="M775.7,299.5c-2.8,13-17.9,63.4-34.5,69-20.2,6.8-47.5,8.1-60.2,5.1-7.1-1.7,3.1-32.5,9.7-31.8,10.4,1.1,28.9-5.8,32.7-6.4s25.4-26.2,37.5-40.3C771.8,282.4,777.4,291.9,775.7,299.5Z" transform="translate(-0.02 -0.04)"/><path class="cls-29" d="M698,335.9l-5.3,42s39.7-3.1,53.2-11.9,25.1-39.6,30.5-58.5-4.3-27.6-22.1-7.9c-20.8,23-29.2,34-30.8,34.7S698,335.9,698,335.9Z" transform="translate(-0.02 -0.04)"/><path class="cls-31" d="M697.7,335.6c3.7-.5,18.9-.9,22.6-1.3a8.39,8.39,0,0,0,4.5-2c1.4-1.2,23.5-25.4,25.9-28.2,0-.1.1-.1.2-.1s.1.1.1.2h0c-2.6,2.9-19.4,22.9-22.1,25.8a33.21,33.21,0,0,1-3.7,3.8,6.63,6.63,0,0,1-4.5,1.5c-3.6.1-17.6.6-22.5.8-.1,0-.4,1.9-.5,1.9h-.2A6.17,6.17,0,0,1,697.7,335.6Z" transform="translate(-0.02 -0.04)"/><path class="cls-24" d="M545.4,260.8H545v28.9a24.67,24.67,0,0,0,24.8,24.5h36a35.62,35.62,0,1,0,58.4,0h35.2a24.67,24.67,0,0,0,24.8-24.5V161.3a24.67,24.67,0,0,0-24.8-24.5H569.8A24.67,24.67,0,0,0,545,161.3v28.9h.4a35.3,35.3,0,1,1,0,70.6Z" transform="translate(-0.02 -0.04)"/><path class="cls-25" d="M552.8,261.5h-.4v28.9a24.67,24.67,0,0,0,24.8,24.5h36.1a35.7,35.7,0,1,0,58.6,0h35.3A24.67,24.67,0,0,0,732,290.4V162.1a24.67,24.67,0,0,0-24.8-24.5H577.3a24.67,24.67,0,0,0-24.8,24.5V191h.4a35.31,35.31,0,1,1,1.4,70.6h-.2l-1.3-.1Z" transform="translate(-0.02 -0.04)"/><path class="cls-12" d="M736.4,223.3c1-5.7,5.3-13.7,4.7-17.9a5,5,0,0,0-4-4.3s3.6-3.2,2.3-7c-.6-2-4.3-2.6-4.3-2.6s2.7-2.7,1.5-6c-1-2.6-4.5-2.9-4.5-2.9s1.4-3.8-.5-6.1c-3.9-4.7-27.2,1.7-28.4,11.3-.6,4.5,5,2.6,5,2.6s-7.4,4.6-6.2,9.5,8.3,2,8.3,2-7.2,4.6-5.4,9.5c1.8,5.1,8.5,1,8.5,1s-4.2,4.9-2,8.4c3.6,5.7,11.3-4.8,16.8-5l5.2,7.7Z" transform="translate(-0.02 -0.04)"/><path class="cls-12" d="M739.1,214.7c-.5,5.5,7.4,10,7.7,15.3.4,7.2-9.1,2.6-13.5-6.8l-2.2-7.9Z" transform="translate(-0.02 -0.04)"/><path class="cls-12" d="M731.5,182.3h0c.1-.1,0-.1,0-.1h0a41.61,41.61,0,0,0-23.6,8c-.2.2,0,.6.2.4A84.84,84.84,0,0,1,731.5,182.3Z" transform="translate(-0.02 -0.04)"/><path class="cls-12" d="M735.2,191.4c.1,0,.1-.2,0-.2-8.4.3-18.4,3.7-25.2,10.4-.2.2-.2.7.1.4C714.9,197.9,727.5,192.8,735.2,191.4Z" transform="translate(-0.02 -0.04)"/><path class="cls-12" d="M713,212.8c6.8-6.1,14.9-9.5,23.7-11.8.1,0,.1-.2,0-.2-4.6-.1-10.1,1.9-14.2,3.9a23.86,23.86,0,0,0-9.7,7.8C712.7,212.7,712.9,212.9,713,212.8Z" transform="translate(-0.02 -0.04)"/><path class="cls-17" d="M733.4,182.9s-10.5,1-15.8,4.9c0,0,3-4.9,14.7-6.4" transform="translate(-0.02 -0.04)"/><path class="cls-17" d="M736.6,191.9s-11,2.5-15,6.5c0,0,5.8-6.2,14.2-7.7" transform="translate(-0.02 -0.04)"/><path class="cls-17" d="M738.4,201.5s-7.6.8-12.8,4.8c0,0,3.7-4.7,12.4-6.3" transform="translate(-0.02 -0.04)"/><path class="cls-17" d="M739.9,212.3s-7.7,4.6-11.7,3.3l.7,1.1s6.2,1.8,10.1-1Z" transform="translate(-0.02 -0.04)"/><path class="cls-12" d="M696.5,341.4l-6.7,33.7c-13.5-1.5-30.2-3.2-41.9-12.5a7.33,7.33,0,0,1-2.5-3.5.76.76,0,0,1-.1-.4v-.1h0l-.7-.6h0a11.57,11.57,0,0,1-4.1-5.9,5.07,5.07,0,0,1-.2-1.3,2.09,2.09,0,0,1-.4-.6,14.93,14.93,0,0,1-2.6-6.7,4.3,4.3,0,0,1,0-1.6v-.1a16.61,16.61,0,0,1-1.4-1.3c-1.7-1.7-4.1-4.9-2.5-7.8,2.6-4.8,10.8,3,17.9,4.5a176.92,176.92,0,0,0,20.5,2.7h0c7.1.6,13.8.9,18.6,1.1h3l1.3.1H696Z" transform="translate(-0.02 -0.04)"/><path class="cls-12" d="M665.8,353a59.26,59.26,0,0,1-22.1-6.8,44.06,44.06,0,0,1-6.4-4.2l-.1-.1v-.1h.2c3.3,1.9,6.6,3.8,10.1,5.4a37.89,37.89,0,0,0,4.2,1.8,97.79,97.79,0,0,0,14.1,3.8C666.1,352.8,666.1,353,665.8,353Z" transform="translate(-0.02 -0.04)"/><path class="cls-12" d="M665.2,362.9c-4.6-1.3-12.6-3.7-24.9-12.2a.1.1,0,0,0-.1.1,51,51,0,0,0,24.9,12.3C665.5,363.2,665.5,363,665.2,362.9Z" transform="translate(-0.02 -0.04)"/><path class="cls-12" d="M664.8,368.3c-7.7-2.6-12.3-5.1-19.5-9.7a.1.1,0,0,0-.1.1c7.7,6,11.1,7.3,19.5,9.9C665,368.7,665.1,368.4,664.8,368.3Z" transform="translate(-0.02 -0.04)"/><path class="cls-17" d="M661.8,347.1s-5.7,1.8-14.3,0c-1.3-.3-2.6-.6-3.8-1a51.81,51.81,0,0,1-6.5-2.6h0a4.3,4.3,0,0,1,0-1.6v-.1a16.61,16.61,0,0,1-1.4-1.3C635.9,340.5,647.8,349,661.8,347.1Z" transform="translate(-0.02 -0.04)"/><path class="cls-17" d="M659.7,353.1s-4.1,4.4-12.8,1.8h0c-.9-.3-1.9-.6-2.8-1a33.66,33.66,0,0,1-3.8-1.9,5.07,5.07,0,0,1-.2-1.3,2.09,2.09,0,0,1-.4-.6C639.8,350.2,648.9,357.4,659.7,353.1Z" transform="translate(-0.02 -0.04)"/><path class="cls-17" d="M660.6,360.1a6.38,6.38,0,0,1-1.4.8,5.94,5.94,0,0,1-.8.4,13.31,13.31,0,0,1-6.5,1.3,11.63,11.63,0,0,1-1.8-.4,10,10,0,0,1-4.7-3.1.76.76,0,0,1-.1-.4c.3.3.7.5,1,.8l.1.1a22.56,22.56,0,0,0,2.2,1.1,14.57,14.57,0,0,0,9,.3l1.2-.3Z" transform="translate(-0.02 -0.04)"/><path class="cls-31" d="M756.8,299.2s14.1-10.1,25.4-10.1c0,0-11.4,2.4-31.8,14.6Z" transform="translate(-0.02 -0.04)"/><path class="cls-31" d="M736,372.2a203.63,203.63,0,0,0,42.3-47.9s-.6,20.1-43.8,57.6Z" transform="translate(-0.02 -0.04)"/><path class="cls-31" d="M727.3,329.9s9.3,1.8,10.1,10.8c0,0-3.8-7.1-18-6.3C722.1,333,724.7,331.5,727.3,329.9Z" transform="translate(-0.02 -0.04)"/><path class="cls-22" d="M112.2,381.5s8.7,13.5,31.9,9.7C144.1,391.2,125.8,390.2,112.2,381.5Z" transform="translate(-0.02 -0.04)"/><path class="cls-15" d="M47.4,363.1" transform="translate(-0.02 -0.04)"/><path class="cls-22" d="M152.5,451.4l6.3,27.7a65.05,65.05,0,0,1,1.6,15.9l-.8,34.6H153s3.4-49.3-6.6-67.2Z" transform="translate(-0.02 -0.04)"/><path class="cls-13" d="M529.8,650a8.3,8.3,0,1,1-8.3,8.3,8.28,8.28,0,0,1,8.3-8.3Zm16.6-24.7a2,2,0,0,1,2.7,0,1.9,1.9,0,0,1,0,2.7h0l-6.3,6.3,6.3,6.3a2,2,0,0,1,0,2.7,1.9,1.9,0,0,1-2.7,0h0l-7.6-7.6a1.87,1.87,0,0,1,0-2.6h0Zm-21.7-10.6h-1.4a1.22,1.22,0,0,0-1.2,1.2v26.7l2.3,2.2v-4.1a2,2,0,0,1,.3-1.1V614.7Zm-6.4,27.6V614.2a3.16,3.16,0,0,1,3.2-3.2h3.1v-3.2a3.22,3.22,0,0,1,3.2-3.2H531v-1.3a5,5,0,0,1,5-5h27.6a1.82,1.82,0,0,1,1.4.6L580.6,614a1.61,1.61,0,0,1,.6,1.3v37.3a5,5,0,0,1-5,5H575V659a5,5,0,0,1-5,5h-1.5v1.3a5,5,0,0,1-5,5H545.2l-4.2,4.2a2,2,0,0,1-2.7,0l-2.9-2.9v4.2a1.9,1.9,0,0,1-1.9,1.9h-7.3a1.9,1.9,0,0,1-1.9-1.9h0v-4.1l-2.9,2.9a1.87,1.87,0,0,1-2.6,0h0l-5.1-5.2a2,2,0,0,1,0-2.7l2.9-2.9h-4.2a1.9,1.9,0,0,1-1.9-1.9h0v-7.4a1.9,1.9,0,0,1,1.9-1.9h4.1l-2.9-2.9a2,2,0,0,1,0-2.7l4.7-4.7ZM546,666.5h17.5a1.22,1.22,0,0,0,1.2-1.2v-1.4H543.3Zm3.1-6.4H570a1.3,1.3,0,0,0,1.3-1.2v-1.4H549.2l-.1,2.6Zm-.1-6.4h27.3a1.22,1.22,0,0,0,1.2-1.2V617.2H566.8a5,5,0,0,1-5-5V601.9H536a1.22,1.22,0,0,0-1.2,1.2v36.3a3.1,3.1,0,0,1,.6,1.3v4.1l2.9-2.9a2,2,0,0,1,2.7,0l5.1,5.2a2,2,0,0,1,0,2.7h0l-2.9,2.9h4.1c.7,0,1.7,1,1.7,1ZM531,639V608.4h-1.4a1.22,1.22,0,0,0-1.2,1.2V639Zm10.8-30.4a2.35,2.35,0,1,0-2.4,2.3h0a2.35,2.35,0,0,0,2.4-2.3Zm15.7-2.4a2.42,2.42,0,0,0-2.4,2.3,2.35,2.35,0,1,0,4.7.1h0a2.29,2.29,0,0,0-2.3-2.4Zm-9,0a2.42,2.42,0,0,0-2.4,2.3,2.35,2.35,0,1,0,4.7.1h0a2.29,2.29,0,0,0-2.3-2.4Zm18.4,7.3h8l-9.2-9v7.7a1.3,1.3,0,0,0,1.2,1.3Zm-9.4,8.3a1.83,1.83,0,0,1,2.3-1.4,1.8,1.8,0,0,1,1.4,2.3c0,.1,0,.1-.1.2h0l-6.4,23.9a1.9,1.9,0,0,1-2.4,1.2,2,2,0,0,1-1.3-2.2h0Zm5.8,6.2a2,2,0,0,1,0-2.7,1.9,1.9,0,0,1,2.7,0h0l7.6,7.6a2,2,0,0,1,0,2.7l-7.6,7.6a2,2,0,0,1-2.7,0,1.9,1.9,0,0,1,0-2.7h0l6.3-6.3Zm-31.7,18.1v-3.4h-3.5V646c0,1.8-4.3,3.6-5.5,2.3l-2.5-2.5-2.5,2.5,2.5,2.5c1.3,1.3-.5,5.5-2.3,5.5h-3.6v3.5h3.5c1.8,0,3.6,4.3,2.3,5.5l-2.5,2.6,2.5,2.5,2.5-2.5c1.3-1.3,5.5.5,5.5,2.3v3.6h3.5v-3.5c0-1.8,4.2-3.6,5.5-2.3l2.5,2.5L542,668l-2.5-2.5c-1.3-1.3.5-5.5,2.3-5.5h3.5v-3.5h-3.5c-1.8,0-3.5-4.3-2.3-5.5l2.5-2.5-2.5-2.5-2.5,2.5c-1.2,1.1-5.4-.6-5.4-2.4Zm-1.8,7.7a4.5,4.5,0,1,0,4.5,4.5h0a4.48,4.48,0,0,0-4.5-4.5Z" transform="translate(-0.02 -0.04)"/><path class="cls-13" d="M630.3,189.1l.5-2.8a30.27,30.27,0,0,0-6-.4c-4.4.2-8,1.6-10.6,4.2a14.47,14.47,0,0,0-3.8,7.1h0a20.19,20.19,0,0,0-.4,6.5l2.8-.3a18.24,18.24,0,0,1,.3-5.7,11.27,11.27,0,0,1,3-5.7,12.87,12.87,0,0,1,8.7-3.4A48.86,48.86,0,0,1,630.3,189.1Z" transform="translate(-0.02 -0.04)"/><path class="cls-13" d="M618.8,221.1c-.8-1.6-1.6-3.1-2.3-4.6l-2.6,1.1q1.05,2.4,2.4,4.8Z" transform="translate(-0.02 -0.04)"/><path class="cls-13" d="M610.8,208.8c.3,1.3.7,2.6,1.1,3.9l2.7-.9c-.4-1.2-.7-2.4-1-3.6Z" transform="translate(-0.02 -0.04)"/><path class="cls-13" d="M620.2,228.8c.9,1.3,1.8,2.6,2.8,3.9l.3.4,2.3-1.7-.3-.4a44.44,44.44,0,0,1-2.7-3.8Z" transform="translate(-0.02 -0.04)"/><path class="cls-13" d="M631.5,238.2c-.7-.8-1.4-1.5-2.1-2.3l-.5-.6-2.1,1.8.5.6c.7.8,1.4,1.6,2.1,2.3l1,1,2-2Z" transform="translate(-0.02 -0.04)"/><path class="cls-13" d="M685.1,232.9l-2.6,1.1a42.37,42.37,0,0,1,3.2,10.3c1,6-.1,10.7-3.1,13.7a11.69,11.69,0,0,1-5.7,3,22.24,22.24,0,0,1-6.3.3c-.6-.1-1.2-.1-1.8-.2l-.4,2.8a12.25,12.25,0,0,0,1.9.2,23.48,23.48,0,0,0,2.6.1,24,24,0,0,0,4.6-.5,14,14,0,0,0,7.1-3.7c3.7-3.6,5-9.2,3.9-16.1A42.52,42.52,0,0,0,685.1,232.9Z" transform="translate(-0.02 -0.04)"/><path class="cls-13" d="M682,226.6l-2.5,1.4a27.93,27.93,0,0,1,1.8,3.4l2.5-1.2C683.3,229.1,682.6,227.8,682,226.6Z" transform="translate(-0.02 -0.04)"/><path class="cls-13" d="M679,221.8l-3-4.2-2.3,1.7c1,1.3,2,2.7,3,4.1Z" transform="translate(-0.02 -0.04)"/><path class="cls-13" d="M668.9,209.4l-2,1.9c1.2,1.3,2.4,2.5,3.5,3.9l2.2-1.8C671.3,212.1,670.1,210.7,668.9,209.4Z" transform="translate(-0.02 -0.04)"/><path class="cls-13" d="M665.3,255.2a1.43,1.43,0,0,0-1.8-1,1.45,1.45,0,0,0-1,1.7h0l1.1,3.9a53.87,53.87,0,0,1-9.3-3.9,84.86,84.86,0,0,1-11.8-7.6,101.27,101.27,0,0,1-7.9-6.8l-2,2a106.85,106.85,0,0,0,8.1,7,82.1,82.1,0,0,0,12.2,7.9,73.49,73.49,0,0,0,7.6,3.4l-2.3.7a1.38,1.38,0,0,0-.9,1.8,1.43,1.43,0,0,0,1.6,1h0l7-2a1.45,1.45,0,0,0,1-1.7h0Z" transform="translate(-0.02 -0.04)"/><path class="cls-13" d="M643.6,187.1a1.47,1.47,0,0,0-1.7-1.1h0l-7.1,1.5a1.39,1.39,0,0,0-1.1,1.7h0l1.4,6.4a1.43,1.43,0,0,0,2.8-.6l-.9-4a57.82,57.82,0,0,1,7.2,3.1,72.55,72.55,0,0,1,11.7,7.5c1.7,1.3,3.5,2.8,5.2,4.3.9.8,1.9,1.7,2.8,2.6l1.2,1.2,2-2-1.3-1.2c-1-.9-1.9-1.8-2.9-2.7-1.8-1.6-3.5-3-5.3-4.4a56.64,56.64,0,0,0-5.3-3.7c1-.6,2-1.1,3-1.6l-1.3-2.5c-1.2.6-2.5,1.3-3.7,2l.8,1.4q-2.85-1.8-5.7-3.3a49,49,0,0,0-5.2-2.4l2.2-.5a1.67,1.67,0,0,0,1.2-1.7Z" transform="translate(-0.02 -0.04)"/><path class="cls-13" d="M621.5,261.5a11.58,11.58,0,0,1-5.8-3,12.44,12.44,0,0,1-3.4-8.6,23.25,23.25,0,0,1,.4-5.3l-2.8-.5a28.8,28.8,0,0,0-.4,5.9,14.12,14.12,0,0,0,11.4,14.3h0a23.15,23.15,0,0,0,4.6.5,13.4,13.4,0,0,0,2-.1l-.3-2.8A21.91,21.91,0,0,1,621.5,261.5Z" transform="translate(-0.02 -0.04)"/><path class="cls-13" d="M631.8,261l.6,2.7c1.3-.3,2.6-.7,3.9-1.1l-.9-2.7A10.79,10.79,0,0,1,631.8,261Z" transform="translate(-0.02 -0.04)"/><path class="cls-13" d="M640.3,258.2l1.2,2.6c1.6-.7,3.2-1.5,4.9-2.4l-1.3-2.5C643.4,256.8,641.8,257.5,640.3,258.2Z" transform="translate(-0.02 -0.04)"/><path class="cls-13" d="M654.9,249.5c-1.2.9-2.4,1.8-3.7,2.6l1.6,2.3c1.3-.9,2.5-1.8,3.8-2.7l.4-.3-1.7-2.2Z" transform="translate(-0.02 -0.04)"/><path class="cls-13" d="M661.8,247.5l2.4-2.1,1-1-2-2-1,1c-.8.7-1.5,1.4-2.3,2.1l-.6.5,1.8,2.1Z" transform="translate(-0.02 -0.04)"/><path class="cls-13" d="M685.3,206.3l2.8.4c.1-.6.2-1.3.3-1.9a21.11,21.11,0,0,0-.4-7.1,14.6,14.6,0,0,0-3.8-7c-3.7-3.6-9.3-4.9-16.3-3.8a47.55,47.55,0,0,0-11.1,3.4l1.1,2.6a41.79,41.79,0,0,1,10.4-3.2c6.1-1,10.8.1,13.8,3.1a11.38,11.38,0,0,1,3,5.6,22.24,22.24,0,0,1,.3,6.3C685.4,205.1,685.3,205.7,685.3,206.3Z" transform="translate(-0.02 -0.04)"/><path class="cls-13" d="M643.1,201.6c1.3-1,2.7-2,4.1-2.9l-1.6-2.3c-1.4,1-2.9,2-4.3,3Z" transform="translate(-0.02 -0.04)"/><path class="cls-13" d="M635.1,208.3c1.3-1.2,2.6-2.4,3.9-3.5l-1.8-2.1c-1.4,1.1-2.7,2.4-4,3.6Z" transform="translate(-0.02 -0.04)"/><path class="cls-13" d="M687.7,208.7a1.45,1.45,0,0,0-1.7-1h0l-6.5,2.1a1.4,1.4,0,0,0-.8,1.8,1.38,1.38,0,0,0,1.7.8l3.7-1.2a51.14,51.14,0,0,1-4,9.3,81.42,81.42,0,0,1-7.7,11.7,83.73,83.73,0,0,1-6.9,7.8l2,2a90.13,90.13,0,0,0,7.1-8,87.33,87.33,0,0,0,8-12.1,59.94,59.94,0,0,0,3.6-8.2l.8,2.9a1.43,1.43,0,0,0,1.8,1,1.45,1.45,0,0,0,1-1.7h0Z" transform="translate(-0.02 -0.04)"/><path class="cls-13" d="M612.4,241.2h.3l6.4-1.4a1.3,1.3,0,0,0,1.1-1.6,1.34,1.34,0,0,0-1.5-1.1h-.2l-4,.9a49.9,49.9,0,0,1,3.2-7.1,88.35,88.35,0,0,1,7.5-11.6c1.3-1.7,2.8-3.4,4.3-5.1.8-.9,1.7-1.9,2.6-2.8l1.2-1.2-2-2a15.38,15.38,0,0,0-1.2,1.3c-.9,1-1.8,1.9-2.7,2.9a53.72,53.72,0,0,0-4.4,5.3,94.83,94.83,0,0,0-7.8,12,49,49,0,0,0-2.4,5.2l-.5-2.2a1.43,1.43,0,1,0-2.8.6h0l1.5,7A1.5,1.5,0,0,0,612.4,241.2Z" transform="translate(-0.02 -0.04)"/><path class="cls-13" d="M661.7,228.1a11.13,11.13,0,0,0-3.6-8.2,12.31,12.31,0,0,0-9.1-3.2,11.87,11.87,0,0,0-7.9,3.6,11.12,11.12,0,0,0-3.3,7.9,11.41,11.41,0,0,0,6.2,10v6.6a1.32,1.32,0,0,0,1.3,1.3h8.9a1.47,1.47,0,0,0,1.5-1.5h0v-6.4A12.26,12.26,0,0,0,661.7,228.1Zm-21.2,0a8.34,8.34,0,0,1,2.5-5.9,9.27,9.27,0,0,1,6.1-2.7,9.09,9.09,0,0,1,7,2.5,8.42,8.42,0,0,1,2.7,6.1,8.87,8.87,0,0,1-5.3,7.9,1.34,1.34,0,0,0-.8,1.3v.1h-6v-.2a1.34,1.34,0,0,0-.8-1.3,8.41,8.41,0,0,1-5.4-7.8Zm6.2,15.1v-3h6v3Z" transform="translate(-0.02 -0.04)"/><path class="cls-13" d="M648.3,208.3v5.1a1.4,1.4,0,0,0,1.2,1.4,1.38,1.38,0,0,0,1.6-1.2h0v-5.3a1.4,1.4,0,0,0-1.2-1.4,1.38,1.38,0,0,0-1.6,1.2h0C648.2,208.2,648.2,208.2,648.3,208.3Z" transform="translate(-0.02 -0.04)"/><path class="cls-13" d="M629.4,226.1a1.45,1.45,0,0,0-1.4,1.5v.1a1.4,1.4,0,0,0,1.4,1.2h5.3a1.59,1.59,0,0,0,1.5-1.2,1.38,1.38,0,0,0-1.2-1.6h-5.6Z" transform="translate(-0.02 -0.04)"/><path class="cls-13" d="M669.8,226.1h-5.4a1.4,1.4,0,0,0-1.4,1.2,1.38,1.38,0,0,0,1.2,1.6h5.6a1.37,1.37,0,0,0,1.4-1.4h0a1.43,1.43,0,0,0-1.4-1.4Z" transform="translate(-0.02 -0.04)"/><path class="cls-13" d="M639.2,219a1.37,1.37,0,0,0,1.4-1.4,1.78,1.78,0,0,0-.4-1l-3.8-3.6a1.52,1.52,0,0,0-2,0,1.34,1.34,0,0,0,0,2h0l3.8,3.6A1.53,1.53,0,0,0,639.2,219Z" transform="translate(-0.02 -0.04)"/><path class="cls-13" d="M662.9,212.9l-3.8,3.6a1.34,1.34,0,0,0,0,2h0a1.52,1.52,0,0,0,2,0l3.8-3.6a1.52,1.52,0,0,0,0-2h0a1.52,1.52,0,0,0-2,0Z" transform="translate(-0.02 -0.04)"/><path class="cls-33" d="M356.3,364c0-10.3,10.5-15.1,10.5-15.1l-12-27.1h-3.4" transform="translate(-0.02 -0.04)"/><path class="cls-33" d="M347.2,364c0-10.3-10.5-15.1-10.5-15.1l12-27.1h2.6" transform="translate(-0.02 -0.04)"/><line class="cls-33" x1="351.28" y1="321.86" x2="351.28" y2="338.46"/><rect class="cls-33" x="334.68" y="364.06" width="33.1" height="10.5"/><circle class="cls-33" cx="351.68" cy="342.06" r="3"/><rect class="cls-33" x="370.88" y="330.86" width="6" height="6"/><rect class="cls-33" x="348.28" y="305.26" width="6" height="6"/><rect class="cls-33" x="325.68" y="330.86" width="6" height="6"/><path class="cls-33" d="M348.7,309.1a22.73,22.73,0,0,0-19.6,22.5" transform="translate(-0.02 -0.04)"/><path class="cls-33" d="M374.3,331.6a22.81,22.81,0,0,0-19.6-22.5" transform="translate(-0.02 -0.04)"/><line class="cls-33" x1="354.28" y1="308.26" x2="379.88" y2="308.26"/><rect class="cls-33" x="379.88" y="305.26" width="6" height="6"/><line class="cls-33" x1="348.28" y1="308.26" x2="322.68" y2="308.26"/><rect class="cls-33" x="316.58" y="305.26" width="6" height="6"/><path class="cls-13" d="M394.6,586.4,385.1,609a1.11,1.11,0,0,1-1.4.6.78.78,0,0,1-.4-.4l-5.6-7.1L362.6,615a1.07,1.07,0,0,1-1.4-.1c0-.1-.1-.1-.1-.2l-4-6.7-26.7,24a1,1,0,0,1-1.4,0h0c-.1-.1-.2-.2-.2-.3l-3.1-5.9-14.1,12.1a1,1,0,0,1-1.4,0l-2.7-2.7a1,1,0,0,1,0-1.4h0l19.2-16.5a1,1,0,0,1,1.4,0h0a.22.22,0,0,0,.2.2l3.1,5.9,26.7-24a1,1,0,0,1,1.4.1c.1,0,.1.1.2.2l4,6.7,10.5-8.9-5.4-6.8a1.1,1.1,0,0,1,.2-1.5c.2-.1.3-.1.5-.2l24.2-4a1.1,1.1,0,0,1,1.2.8h0C394.7,586,394.7,586.2,394.6,586.4Z" transform="translate(-0.02 -0.04)"/><path class="cls-13" d="M320.6,640.4h5a.94.94,0,0,1,1,1v16.2a.94.94,0,0,1-1,1h-5a.94.94,0,0,1-1-1V641.4a1,1,0,0,1,1-1Z" transform="translate(-0.02 -0.04)"/><path class="cls-13" d="M348.5,624.5h5a.92.92,0,0,1,1,.9h0v32a.94.94,0,0,1-1,1h-5a.92.92,0,0,1-1-.9V625.4A1,1,0,0,1,348.5,624.5Z" transform="translate(-0.02 -0.04)"/><path class="cls-13" d="M377.1,621.3h5a.94.94,0,0,1,1,1v35.3a.94.94,0,0,1-1,1h-5a.94.94,0,0,1-1-1V622.3A1.08,1.08,0,0,1,377.1,621.3Z" transform="translate(-0.02 -0.04)"/><path class="cls-13" d="M335,635.4h5a.94.94,0,0,1,1,1v21.2a.94.94,0,0,1-1,1h-5a.94.94,0,0,1-1-1V636.4a.94.94,0,0,1,1-1Z" transform="translate(-0.02 -0.04)"/><path class="cls-13" d="M361.3,633.5h5a.94.94,0,0,1,1,1v23.1a.94.94,0,0,1-1,1h-5a.94.94,0,0,1-1-1V634.5A1,1,0,0,1,361.3,633.5Z" transform="translate(-0.02 -0.04)"/><path class="cls-13" d="M418.2,196.1l1.2,1.7a11.81,11.81,0,0,0,5.3,4.3l1.9.8-1.7,1.2a11.81,11.81,0,0,0-4.3,5.3l-.8,1.9-1.2-1.7a11.81,11.81,0,0,0-5.3-4.3l-1.9-.8,1.7-1.2a11.81,11.81,0,0,0,4.3-5.3Z" transform="translate(-0.02 -0.04)"/><path class="cls-13" d="M442,71.8l2.1,3.1a22.7,22.7,0,0,0,9.7,7.9l3.5,1.5-3.1,2.1a22,22,0,0,0-7.9,9.7l-1.5,3.5-2.1-3.1a22.43,22.43,0,0,0-9.6-7.9l-3.5-1.5,3.1-2.1a22,22,0,0,0,7.9-9.7Z" transform="translate(-0.02 -0.04)"/><path class="cls-13" d="M470.5,115.1l2.9,4.2a30.24,30.24,0,0,0,13,10.7l4.7,2-4.2,2.8a30.24,30.24,0,0,0-10.7,13l-2,4.7-2.9-4.2a30.24,30.24,0,0,0-13-10.7l-4.7-2,4.2-2.9a30.24,30.24,0,0,0,10.7-13Z" transform="translate(-0.02 -0.04)"/><path class="cls-13" d="M501.6,471.8l1.2,1.7a11.81,11.81,0,0,0,5.3,4.3l1.9.8-1.7,1.2a11.81,11.81,0,0,0-4.3,5.3l-.8,1.9-1.2-1.7a11.81,11.81,0,0,0-5.3-4.3l-1.9-.8,1.7-1.2a11.81,11.81,0,0,0,4.3-5.3Z" transform="translate(-0.02 -0.04)"/><path class="cls-13" d="M554,390.8l2.9,4.3a30.24,30.24,0,0,0,13,10.7l4.7,2-4.2,2.9a30.24,30.24,0,0,0-10.7,13l-2,4.7-2.8-4.2a30.24,30.24,0,0,0-13-10.7l-4.7-2,4.2-2.9a30.24,30.24,0,0,0,10.7-13Z" transform="translate(-0.02 -0.04)"/><path class="cls-23" d="M190,308.2l-17.2-19.7s16.2,23.2,15.9,23.8A11,11,0,0,0,190,308.2Z" transform="translate(-0.02 -0.04)"/><path class="cls-34" d="M138.1,286.4c0-.2.6-4.2,3.3-5.4,3.4-1.5,5.7,3.4,12.5,3.8,3.8.3,5.6-1,7.9.5,1.7,1.1,3.1,3.4,2.6,4.9-.9,2.2-5.1.5-7.7,3.3-2.3,2.5-.3,5.4-2.8,8.2-1.6,1.8-4.5,2.8-6.6,2-1.7-.6-1.9-2-4.3-6.6C139.3,290.1,137.8,289.2,138.1,286.4Z" transform="translate(-0.02 -0.04)"/><path class="cls-34" d="M131.7,322.5c-4.3-.3-6.1-1.9-6.6-2.4s-2.4-2.3-2.2-4.3,1.9-2.1,4.8-5.5c2.3-2.7,1.9-3.3,3.4-4.4,2.6-1.8,6.8-2.2,8.7-.3,1.4,1.5.2,3,1.5,6.6,1.4,4,3.6,4.4,3.2,6.1C143.9,321.5,136.7,322.9,131.7,322.5Z" transform="translate(-0.02 -0.04)"/><path class="cls-34" d="M161.8,304.7a6.07,6.07,0,0,1,4.1-3.2c1.7-.3,3.3.6,6.6,2.5,3.5,2,3.5,2.8,5.8,3.4,1.5.4,2.3.4,3.2,1.2s2,2.5,1.5,3.9c-.6,1.7-2.9,1-5.4,3.4a27,27,0,0,0-2.7,3.9c-1.8,2.9-1.8,3.4-2.7,3.9a5,5,0,0,1-5.4-.3c-1.4-1.2-.6-2.5-2-4.3s-2.5-1-4.9-2.9c-.6-.4-3.7-2.8-3.2-4.6.4-1.6,3.4-1,4.6-3.2C161.8,307,161,306.4,161.8,304.7Z" transform="translate(-0.02 -0.04)"/><path class="cls-23" d="M183.4,300.9A65.16,65.16,0,0,1,173,289.1c-.1-.2-.1-.4-.2-.6C176.1,292.7,179.8,297,183.4,300.9Z" transform="translate(-0.02 -0.04)"/><path class="cls-34" d="M196.5,297.9c-1.3,1.3-3.1-.3-6.4.7a28.63,28.63,0,0,0-4.2,2.4c-.6.4-1,.6-1.4.9a10.59,10.59,0,0,1-1.2-1c-3.6-4-7.3-8.3-10.6-12.4a3.07,3.07,0,0,1,.2-2.8c1.1-1.2,3.5.5,5.5-.9,1.3-.9.8-1.9,2.2-3.1a5.81,5.81,0,0,1,5.1-1.1c1.7.4,2.7,2,4.9,5.2s2,4,3.7,5.6c1.1,1,1.9,1.3,2.4,2.5S197.5,296.9,196.5,297.9Z" transform="translate(-0.02 -0.04)"/><circle class="cls-35" cx="705.78" cy="362.66" r="4"/><circle class="cls-35" cx="758.28" cy="306.46" r="4.3"/><circle class="cls-35" cx="724.78" cy="350.26" r="8.4"/><circle class="cls-35" cx="755.68" cy="377.96" r="5.7"/><circle class="cls-35" cx="782.28" cy="306.46" r="7"/><circle class="cls-35" cx="753.98" cy="331.16" r="5.1"/><path class="cls-35" d="M804,309.1a8.21,8.21,0,0,1-4.9-.2,8.07,8.07,0,0,1-4.8-10.4,7.67,7.67,0,0,1,3.3-4C799.9,299,802,304,804,309.1Z" transform="translate(-0.02 -0.04)"/><path class="cls-35" d="M801,327.6a7.14,7.14,0,0,1,3.1-9.6h0a7.42,7.42,0,0,1,2.8-.8c1.5,4.3,2.9,8.7,4.3,13.1-.2.1-.4.3-.6.4a7.14,7.14,0,0,1-9.6-3.1Z" transform="translate(-0.02 -0.04)"/><circle class="cls-35" cx="802.08" cy="349.06" r="5.1"/><circle class="cls-35" cx="775.18" cy="365.36" r="6.2"/><circle class="cls-35" cx="793.68" cy="374.96" r="5.2"/><path class="cls-35" d="M749.1,271a8.25,8.25,0,0,1-11,3.6,7.67,7.67,0,0,1-3.5-3.4,7.49,7.49,0,0,1-1-3.3C735.6,268.6,740,269.5,749.1,271Z" transform="translate(-0.02 -0.04)"/><path class="cls-2" d="M910.4,557.6a10.63,10.63,0,0,0,.9-1.1l2.4-3.2c2.1-2.8,5.1-6.7,9-11.5,7.7-9.6,16.6-19.5,29.5-33.2,12.2-12.8,26.7-27.5,36.9-36.5,2.3-2,4.4-3.9,6.3-5.4s3.5-2.9,4.8-4l3.1-2.5a4.74,4.74,0,0,0,1-1,8.34,8.34,0,0,0-1.2.8l-3.2,2.3c-1.4,1-3.1,2.3-5,3.9s-4.1,3.3-6.5,5.3a458.88,458.88,0,0,0-35,33.3,479.23,479.23,0,0,0-31.6,36.5c-3.8,4.9-6.7,8.9-8.7,11.8l-2.2,3.3A6.12,6.12,0,0,0,910.4,557.6Z" transform="translate(-0.02 -0.04)"/><path class="cls-2" d="M930.4,531.5a20.44,20.44,0,0,0,2.5-3.3c1.5-2.2,3.5-5.5,5.8-9.7a132.66,132.66,0,0,0,7-15.3,135.55,135.55,0,0,0,6.3-19.6c3.7-14.2,4.2-27.6,3-37.1a47.6,47.6,0,0,0-1.1-6.4,19.8,19.8,0,0,0-.6-2.6c-.3-.8-.5-1.5-.7-2.1a30.44,30.44,0,0,0-1.4-3.9c-.3.1,2,5.6,2.9,15.1a108.07,108.07,0,0,1-3.3,36.7,152.15,152.15,0,0,1-6.2,19.5,159.76,159.76,0,0,1-6.8,15.2c-2.2,4.2-4.1,7.6-5.4,9.9C931.7,529.1,931,530.3,930.4,531.5Z" transform="translate(-0.02 -0.04)"/><circle class="cls-13" cx="308.28" cy="206.96" r="9.5"/><circle class="cls-13" cx="332.48" cy="123.36" r="3.4"/><path class="cls-13" d="M503.2,100.2a5.3,5.3,0,1,1-5.3-5.3A5.34,5.34,0,0,1,503.2,100.2Z" transform="translate(-0.02 -0.04)"/><circle class="cls-13" cx="458.08" cy="502.86" r="9.5"/><circle class="cls-13" cx="482.38" cy="419.26" r="3.4"/><path class="cls-13" d="M653,396.1a5.3,5.3,0,1,1-5.3-5.3A5.34,5.34,0,0,1,653,396.1Z" transform="translate(-0.02 -0.04)"/></svg>