<svg id="Default" xmlns="http://www.w3.org/2000/svg" viewBox="0 0 62.54 88.5"><defs><style>.cls-1{fill:#8140ff;}.cls-2{fill:#a68efe;}.cls-3{fill:#d0b8ff;}</style></defs><title>keresoikon</title><path class="cls-1" d="M163.46,107.7v26c0,9.1-6.38,20.15-14.25,24.7l-3.33,1.92L138,179.34l-7.91-9.91c-1.11.64-2.22,1.28-3.32,1.93l-1,.51c-3.56,1.78-6.75,1.85-9.13.48l-.18-.11c-2.47-1.53-4-4.68-4-9.12v-26c0-9.1,6.39-20.16,14.26-24.71l22.47-13c3.86-2.23,7.36-2.48,9.92-1.08l.16.08C161.87,100,163.46,103.16,163.46,107.7Z" transform="translate(-100.92 -90.85)"/><path class="cls-2" d="M105.1,165.67c-2.58-1.49-4.18-4.69-4.18-9.23v-26c0-9.09,6.38-20.15,14.25-24.69l22.48-13c3.94-2.27,7.5-2.48,10.07-1q5.72,3.28,11.41,6.59c-2.56-1.4-6.06-1.15-9.92,1.08l-22.47,13c-7.87,4.55-14.26,15.61-14.26,24.71v26c0,4.44,1.52,7.59,4,9.12Z" transform="translate(-100.92 -90.85)"/><path class="cls-2" d="M130.06,169.43l7.91,9.91-11.56-6.68-.63-.79,1-.51C127.84,170.71,129,170.07,130.06,169.43Z" transform="translate(-100.92 -90.85)"/><path class="cls-3" d="M146.08,124.92c-3-2.7-8.9-.56-13.15,4.79s-5.26,11.87-2.25,14.57c2.61,2.33,7.37,1,11.36-2.82l5.46,4.89c.62.55,1.87.07,2.79-1.08s1.16-2.55.54-3.11l-5.46-4.88C148.28,132.45,148.69,127.25,146.08,124.92Zm-3.56,13.39c-3.23,4.05-7.7,5.68-10,3.63s-1.53-7,1.7-11.05,7.7-5.69,10-3.64S145.75,134.25,142.52,138.31Z" transform="translate(-100.92 -90.85)"/></svg>