<svg id="Layer_1" data-name="Layer 1" xmlns="http://www.w3.org/2000/svg" viewBox="0 0 56.64 56.64"><defs><style>.cls-1{fill:#fff;}</style></defs><title>kivitelezes</title><path class="cls-1" d="M9.61,10V19.4H11.5V10a1.88,1.88,0,0,1,.55-1.33,1.93,1.93,0,0,1,1.34-.55H51.15a1.88,1.88,0,0,1,1.33.55A1.85,1.85,0,0,1,53,10h1.89a3.77,3.77,0,0,0-3.78-3.77H13.39A3.77,3.77,0,0,0,9.61,10Z" transform="translate(-3.95 -6.18)"/><path class="cls-1" d="M7.72,62.82H51.15a3.77,3.77,0,0,0,3.78-3.77V55.27H53v3.78a1.88,1.88,0,0,1-.95,1.63,1.86,1.86,0,0,1-1.88,0,1.88,1.88,0,0,1-1-1.63V56.21a.94.94,0,0,0-.94-.94H11.5V36.39H9.61V55.27H4.89a.94.94,0,0,0-.94.94v2.84a3.77,3.77,0,0,0,1.1,2.67A3.81,3.81,0,0,0,7.72,62.82ZM5.83,57.16H47.37v1.89a3.76,3.76,0,0,0,.51,1.88H7.72a1.88,1.88,0,0,1-1.33-.55,1.85,1.85,0,0,1-.56-1.33Z" transform="translate(-3.95 -6.18)"/><path class="cls-1" d="M4.89,34.5H23.77a1,1,0,0,0,.67-.28.91.91,0,0,0,.28-.66V22.23a1,1,0,0,0-.95-.95H4.89a1,1,0,0,0-.94.95V33.56a.94.94,0,0,0,.94.94Zm.94-11.33h17v9.44h-17Z" transform="translate(-3.95 -6.18)"/><path class="cls-1" d="M9.89,25.34,8,27.22a1,1,0,0,0,0,1.34l1.89,1.89,1.33-1.34L10,27.89l1.22-1.22Z" transform="translate(-3.95 -6.18)"/><path class="cls-1" d="M18.78,25.34l-1.34,1.33,1.22,1.22-1.22,1.22,1.34,1.34,1.88-1.89h0a1,1,0,0,0,0-1.34Z" transform="translate(-3.95 -6.18)"/><path class="cls-1" d="M12.49,30.42l1.89-5.66,1.79.6L14.28,31Z" transform="translate(-3.95 -6.18)"/><path class="cls-1" d="M59.65,11.84H27.55a1,1,0,0,0-.95.95V31.67a1,1,0,0,0,.28.67,1,1,0,0,0,.67.27h32.1a.94.94,0,0,0,.94-.94V12.79a1,1,0,0,0-.28-.67A.91.91,0,0,0,59.65,11.84ZM58.7,30.72H28.49V28.43L37,23.34l8.26,5.34a1,1,0,0,0,1,.05L53,25.19l5.69,3.25Zm0-4.46-5.19-3h0a.93.93,0,0,0-.9,0L45.8,26.8l-8.29-5.37h0a1,1,0,0,0-1,0l-8,4.8V13.73H58.7Z" transform="translate(-3.95 -6.18)"/><path class="cls-1" d="M48.79,22.23a3.31,3.31,0,1,0-2.34-1A3.31,3.31,0,0,0,48.79,22.23Zm0-4.72a1.42,1.42,0,0,1,1.31.87,1.42,1.42,0,0,1-1.85,1.85,1.41,1.41,0,0,1,.54-2.72Z" transform="translate(-3.95 -6.18)"/><path class="cls-1" d="M13.39,37.33V48.66a1,1,0,0,0,.27.67.94.94,0,0,0,.67.27h23.6a.94.94,0,0,0,.67-.27,1,1,0,0,0,.28-.67V37.33a1,1,0,0,0-.28-.67,1,1,0,0,0-.67-.27H14.33A.94.94,0,0,0,13.39,37.33Zm1.89,1H37v9.44H15.28Z" transform="translate(-3.95 -6.18)"/><path class="cls-1" d="M17.16,40.16h3.78v1.89H17.16Z" transform="translate(-3.95 -6.18)"/><path class="cls-1" d="M22.83,40.16h8.49v1.89H22.83Z" transform="translate(-3.95 -6.18)"/><path class="cls-1" d="M33.21,40.16H35.1v1.89H33.21Z" transform="translate(-3.95 -6.18)"/><path class="cls-1" d="M17.16,43.94H28.49v1.89H17.16Z" transform="translate(-3.95 -6.18)"/><path class="cls-1" d="M30.38,43.94H35.1v1.89H30.38Z" transform="translate(-3.95 -6.18)"/><path class="cls-1" d="M13.39,10h1.89v1.89H13.39Z" transform="translate(-3.95 -6.18)"/><path class="cls-1" d="M17.16,10h1.89v1.89H17.16Z" transform="translate(-3.95 -6.18)"/><path class="cls-1" d="M20.94,10h1.89v1.89H20.94Z" transform="translate(-3.95 -6.18)"/><path class="cls-1" d="M13.39,13.73H24.72v1.89H13.39Z" transform="translate(-3.95 -6.18)"/><path class="cls-1" d="M59.65,40.16H41.71a1,1,0,0,0-1,1V52.44a.91.91,0,0,0,.28.66,1,1,0,0,0,.67.28H59.65a1,1,0,0,0,.94-.94V41.11a1,1,0,0,0-.28-.67A.91.91,0,0,0,59.65,40.16ZM58.7,51.49H42.65V42.05H58.7Z" transform="translate(-3.95 -6.18)"/><path class="cls-1" d="M44.54,43.94h1.89v1.89H44.54Z" transform="translate(-3.95 -6.18)"/><path class="cls-1" d="M44.54,47.72h1.89V49.6H44.54Z" transform="translate(-3.95 -6.18)"/><path class="cls-1" d="M48.32,43.94h8.49v1.89H48.32Z" transform="translate(-3.95 -6.18)"/><path class="cls-1" d="M48.32,47.72h8.49V49.6H48.32Z" transform="translate(-3.95 -6.18)"/><path class="cls-1" d="M53,34.5h1.89v3.78H53Z" transform="translate(-3.95 -6.18)"/></svg>