<svg id="Layer_1" data-name="Layer 1" xmlns="http://www.w3.org/2000/svg" xmlns:xlink="http://www.w3.org/1999/xlink" viewBox="0 0 193.7 199.84"><defs><style>.cls-1{fill:none;}.cls-2{clip-path:url(#clip-path);}.cls-3{fill:#effffc;}</style><clipPath id="clip-path"><circle class="cls-1" cx="106.24" cy="111.13" r="106.24"/></clipPath><symbol id="New_Symbol" data-name="New Symbol" viewBox="0 0 212.48 219.22"><g class="cls-2"><path class="cls-3" d="M.24,1.11A64.76,64.76,0,0,1,13.64,2c2.22.4,4.39,1,6.56,1.42a52.21,52.21,0,0,0,6.55,1A80.17,80.17,0,0,0,40,4.7,58.78,58.78,0,0,0,53,2.42c2.15-.58,4.37-1.15,6.61-1.54A55.73,55.73,0,0,1,66.38.13,82.32,82.32,0,0,1,80,.46,56.11,56.11,0,0,1,86.7,1.68c2.21.52,4.34,1.1,6.48,1.53a63.91,63.91,0,0,0,13.06,1.15A63.27,63.27,0,0,0,119.3,3.21c2.14-.43,4.27-1,6.48-1.53A56.11,56.11,0,0,1,132.51.46,82.32,82.32,0,0,1,146.1.14a53.64,53.64,0,0,1,6.78.74c2.25.39,4.46,1,6.62,1.55a59.28,59.28,0,0,0,13,2.28,82.53,82.53,0,0,0,13.25-.19,54,54,0,0,0,6.54-1.06c2.17-.47,4.35-1,6.57-1.42a65.41,65.41,0,0,1,13.39-.93v.15a64.51,64.51,0,0,0-13.3,1.24c-2.18.45-4.34,1-6.51,1.57a52.72,52.72,0,0,1-6.59,1.23,81,81,0,0,1-13.4.39,59.79,59.79,0,0,1-13.22-2.13A59.53,59.53,0,0,0,146,1.43a81.67,81.67,0,0,0-13.36.38A54.65,54.65,0,0,0,126.1,3c-2.16.52-4.32,1.12-6.51,1.57a63.69,63.69,0,0,1-13.35,1.24A64.3,64.3,0,0,1,92.89,4.62C90.7,4.17,88.54,3.57,86.37,3a54.1,54.1,0,0,0-6.56-1.22,80.58,80.58,0,0,0-13.36-.39A60.1,60.1,0,0,0,53.27,3.55,59.8,59.8,0,0,1,40.05,5.69a81,81,0,0,1-13.4-.39,52.72,52.72,0,0,1-6.59-1.23C17.88,3.55,15.73,3,13.55,2.5A64.61,64.61,0,0,0,.24,1.26Z"/><path class="cls-3" d="M.24,7A64.75,64.75,0,0,1,13.64,8c2.22.41,4.39,1,6.56,1.43a54.11,54.11,0,0,0,6.55,1A80.17,80.17,0,0,0,40,10.63,58.78,58.78,0,0,0,53,8.35c2.15-.59,4.37-1.16,6.61-1.55a57.75,57.75,0,0,1,6.79-.74A81.24,81.24,0,0,1,80,6.39,56.09,56.09,0,0,1,86.7,7.6c2.21.53,4.34,1.11,6.48,1.54a63.21,63.21,0,0,0,13.06,1.14A62.59,62.59,0,0,0,119.3,9.14c2.14-.43,4.27-1,6.48-1.54a56.09,56.09,0,0,1,6.73-1.21,81.24,81.24,0,0,1,13.59-.33,55.56,55.56,0,0,1,6.78.75c2.25.39,4.46,1,6.62,1.55a59.28,59.28,0,0,0,13,2.28,81.39,81.39,0,0,0,13.25-.2,52.06,52.06,0,0,0,6.54-1c2.17-.47,4.35-1,6.57-1.43A64.7,64.7,0,0,1,212.23,7v.15a65.2,65.2,0,0,0-13.3,1.23c-2.18.45-4.34,1.05-6.51,1.58a54.61,54.61,0,0,1-6.59,1.23,81,81,0,0,1-13.4.38,59.79,59.79,0,0,1-13.22-2.13A60.1,60.1,0,0,0,146,7.36a81.67,81.67,0,0,0-13.36.38A54.62,54.62,0,0,0,126.1,9c-2.16.53-4.32,1.13-6.51,1.58a65.06,65.06,0,0,1-13.35,1.24,64.31,64.31,0,0,1-13.35-1.24c-2.19-.45-4.35-1-6.52-1.57a54.13,54.13,0,0,0-6.56-1.23,81.67,81.67,0,0,0-13.36-.38A59.52,59.52,0,0,0,53.27,9.48a59.79,59.79,0,0,1-13.22,2.13,81,81,0,0,1-13.4-.38A54.61,54.61,0,0,1,20.06,10c-2.18-.53-4.33-1.12-6.51-1.58A65.3,65.3,0,0,0,.24,7.19Z"/><path class="cls-3" d="M.24,13a64.75,64.75,0,0,1,13.4.92c2.22.4,4.39.95,6.56,1.42a54.14,54.14,0,0,0,6.55,1.06A82.42,82.42,0,0,0,40,16.56a59.37,59.37,0,0,0,13-2.28c2.15-.59,4.37-1.16,6.61-1.55A55.7,55.7,0,0,1,66.38,12,82.32,82.32,0,0,1,80,12.31a56.11,56.11,0,0,1,6.73,1.22c2.21.53,4.34,1.11,6.48,1.54a63.91,63.91,0,0,0,13.06,1.14,64,64,0,0,0,13.06-1.14c2.14-.43,4.27-1,6.48-1.54a56.11,56.11,0,0,1,6.73-1.22A82.32,82.32,0,0,1,146.1,12a55.56,55.56,0,0,1,6.78.75c2.25.39,4.46,1,6.62,1.54a58.7,58.7,0,0,0,13,2.28,81.39,81.39,0,0,0,13.25-.19,54,54,0,0,0,6.54-1.05c2.17-.48,4.35-1,6.57-1.43A64.7,64.7,0,0,1,212.23,13v.15a64.51,64.51,0,0,0-13.3,1.23c-2.18.45-4.34,1.05-6.51,1.58a54.58,54.58,0,0,1-6.59,1.22,81,81,0,0,1-13.4.39,59.79,59.79,0,0,1-13.22-2.13A60.12,60.12,0,0,0,146,13.28a80.58,80.58,0,0,0-13.36.39,54.62,54.62,0,0,0-6.57,1.22c-2.16.53-4.32,1.13-6.51,1.58a65.06,65.06,0,0,1-13.35,1.24,65,65,0,0,1-13.35-1.24c-2.19-.45-4.35-1-6.52-1.58a54.1,54.1,0,0,0-6.56-1.22,80.58,80.58,0,0,0-13.36-.39,60.12,60.12,0,0,0-13.18,2.13,59.79,59.79,0,0,1-13.22,2.13,81,81,0,0,1-13.4-.39,54.58,54.58,0,0,1-6.59-1.22c-2.18-.53-4.33-1.13-6.51-1.58A64.6,64.6,0,0,0,.24,13.12Z"/><path class="cls-3" d="M.24,18.89a64.76,64.76,0,0,1,13.4.93c2.22.4,4.39.95,6.56,1.42a52.21,52.21,0,0,0,6.55,1.05,81.29,81.29,0,0,0,13.24.2A58.8,58.8,0,0,0,53,20.2c2.15-.58,4.37-1.15,6.61-1.54a55.73,55.73,0,0,1,6.79-.75A82.32,82.32,0,0,1,80,18.24a56.11,56.11,0,0,1,6.73,1.22C88.91,20,91,20.56,93.18,21a63.91,63.91,0,0,0,13.06,1.15A63.27,63.27,0,0,0,119.3,21c2.14-.43,4.27-1,6.48-1.53a56.11,56.11,0,0,1,6.73-1.22,82.32,82.32,0,0,1,13.59-.32,53.64,53.64,0,0,1,6.78.74c2.25.39,4.46,1,6.62,1.55a58.7,58.7,0,0,0,13,2.28,82.53,82.53,0,0,0,13.25-.19,54,54,0,0,0,6.54-1.06c2.17-.47,4.35-1,6.57-1.42a65.41,65.41,0,0,1,13.39-.93V19a64.51,64.51,0,0,0-13.3,1.24c-2.18.45-4.34,1-6.51,1.57a52.72,52.72,0,0,1-6.59,1.23,81,81,0,0,1-13.4.39,59.79,59.79,0,0,1-13.22-2.13A59.53,59.53,0,0,0,146,19.21a81.67,81.67,0,0,0-13.36.38,54.65,54.65,0,0,0-6.57,1.23c-2.16.52-4.32,1.12-6.51,1.57a64.38,64.38,0,0,1-13.35,1.25A65,65,0,0,1,92.89,22.4c-2.19-.45-4.35-1-6.52-1.58a54.1,54.1,0,0,0-6.56-1.22,80.58,80.58,0,0,0-13.36-.39,59.53,59.53,0,0,0-13.18,2.13,60.38,60.38,0,0,1-13.22,2.13,81,81,0,0,1-13.4-.39,52.72,52.72,0,0,1-6.59-1.23c-2.18-.52-4.33-1.12-6.51-1.57A64.61,64.61,0,0,0,.24,19Z"/><path class="cls-3" d="M.24,24.82a64.75,64.75,0,0,1,13.4.92c2.22.41,4.39,1,6.56,1.43a54.11,54.11,0,0,0,6.55,1A80.17,80.17,0,0,0,40,28.41a58.78,58.78,0,0,0,13-2.28c2.15-.59,4.37-1.16,6.61-1.55a57.75,57.75,0,0,1,6.79-.74A81.24,81.24,0,0,1,80,24.17a56.09,56.09,0,0,1,6.73,1.21c2.21.53,4.34,1.11,6.48,1.54a63.21,63.21,0,0,0,13.06,1.14,62.59,62.59,0,0,0,13.06-1.14c2.14-.43,4.27-1,6.48-1.54a56.09,56.09,0,0,1,6.73-1.21,82.32,82.32,0,0,1,13.59-.33,55.56,55.56,0,0,1,6.78.75c2.25.39,4.46,1,6.62,1.55a59.28,59.28,0,0,0,13,2.28,81.39,81.39,0,0,0,13.25-.2,52.06,52.06,0,0,0,6.54-1c2.17-.47,4.35-1,6.57-1.43a64.7,64.7,0,0,1,13.39-.92V25a65.2,65.2,0,0,0-13.3,1.23c-2.18.45-4.34,1.05-6.51,1.58A54.61,54.61,0,0,1,185.83,29a81,81,0,0,1-13.4.38,59.79,59.79,0,0,1-13.22-2.13A60.1,60.1,0,0,0,146,25.14a81.67,81.67,0,0,0-13.36.38,54.62,54.62,0,0,0-6.57,1.22c-2.16.53-4.32,1.13-6.51,1.58a64.37,64.37,0,0,1-13.35,1.24,64.31,64.31,0,0,1-13.35-1.24c-2.19-.45-4.35-1.05-6.52-1.57a54.13,54.13,0,0,0-6.56-1.23,81.67,81.67,0,0,0-13.36-.38,59.52,59.52,0,0,0-13.18,2.12,59.79,59.79,0,0,1-13.22,2.13A81,81,0,0,1,26.65,29a54.61,54.61,0,0,1-6.59-1.23c-2.18-.53-4.33-1.12-6.51-1.58A65.3,65.3,0,0,0,.24,25Z"/><path class="cls-3" d="M.24,30.75a64.75,64.75,0,0,1,13.4.92c2.22.4,4.39.95,6.56,1.42a54.14,54.14,0,0,0,6.55,1.06A82.42,82.42,0,0,0,40,34.34a59.37,59.37,0,0,0,13-2.28c2.15-.59,4.37-1.16,6.61-1.55a55.7,55.7,0,0,1,6.79-.74A82.32,82.32,0,0,1,80,30.09a56.11,56.11,0,0,1,6.73,1.22c2.21.53,4.34,1.11,6.48,1.54A63.91,63.91,0,0,0,106.24,34a64,64,0,0,0,13.06-1.14c2.14-.43,4.27-1,6.48-1.54a56.11,56.11,0,0,1,6.73-1.22,82.32,82.32,0,0,1,13.59-.32,55.56,55.56,0,0,1,6.78.75c2.25.39,4.46,1,6.62,1.54a58.7,58.7,0,0,0,13,2.28,81.39,81.39,0,0,0,13.25-.19,54,54,0,0,0,6.54-1c2.17-.48,4.35-1,6.57-1.43a64.7,64.7,0,0,1,13.39-.92v.15a64.51,64.51,0,0,0-13.3,1.23c-2.18.45-4.34,1-6.51,1.58a54.58,54.58,0,0,1-6.59,1.22,81,81,0,0,1-13.4.39,59.79,59.79,0,0,1-13.22-2.13A60.12,60.12,0,0,0,146,31.06a80.58,80.58,0,0,0-13.36.39,54.62,54.62,0,0,0-6.57,1.22c-2.16.53-4.32,1.13-6.51,1.58a65.06,65.06,0,0,1-13.35,1.24,65,65,0,0,1-13.35-1.24c-2.19-.45-4.35-1-6.52-1.58a54.1,54.1,0,0,0-6.56-1.22,81.68,81.68,0,0,0-13.36-.39,60.12,60.12,0,0,0-13.18,2.13,59.79,59.79,0,0,1-13.22,2.13,82.13,82.13,0,0,1-13.4-.38,56.63,56.63,0,0,1-6.59-1.23c-2.18-.53-4.33-1.13-6.51-1.58A64.6,64.6,0,0,0,.24,30.9Z"/><path class="cls-3" d="M.24,36.67a64.76,64.76,0,0,1,13.4.93c2.22.4,4.39.95,6.56,1.42a52.21,52.21,0,0,0,6.55,1,81.29,81.29,0,0,0,13.24.2A58.8,58.8,0,0,0,53,38c2.15-.58,4.37-1.15,6.61-1.54a55.73,55.73,0,0,1,6.79-.75A82.32,82.32,0,0,1,80,36a56.11,56.11,0,0,1,6.73,1.22c2.21.52,4.34,1.1,6.48,1.53a63.91,63.91,0,0,0,13.06,1.15,63.27,63.27,0,0,0,13.06-1.15c2.14-.43,4.27-1,6.48-1.53A56.11,56.11,0,0,1,132.51,36a82.32,82.32,0,0,1,13.59-.32,53.64,53.64,0,0,1,6.78.74c2.25.39,4.46,1,6.62,1.55a58.7,58.7,0,0,0,13,2.28,82.53,82.53,0,0,0,13.25-.19A54,54,0,0,0,192.27,39c2.17-.47,4.35-1,6.57-1.42a65.41,65.41,0,0,1,13.39-.93v.15a64.51,64.51,0,0,0-13.3,1.24c-2.18.45-4.34,1-6.51,1.57a52.72,52.72,0,0,1-6.59,1.23,81,81,0,0,1-13.4.39,59.79,59.79,0,0,1-13.22-2.13A59.53,59.53,0,0,0,146,37a80.58,80.58,0,0,0-13.36.39,52.72,52.72,0,0,0-6.57,1.22c-2.16.52-4.32,1.12-6.51,1.57a64.38,64.38,0,0,1-13.35,1.25,65,65,0,0,1-13.35-1.24c-2.19-.45-4.35-1-6.52-1.58a54.1,54.1,0,0,0-6.56-1.22A80.58,80.58,0,0,0,66.45,37a59.53,59.53,0,0,0-13.18,2.13,60.38,60.38,0,0,1-13.22,2.13,81,81,0,0,1-13.4-.39,52.72,52.72,0,0,1-6.59-1.23c-2.18-.52-4.33-1.12-6.51-1.57A64.61,64.61,0,0,0,.24,36.82Z"/><path class="cls-3" d="M.24,42.6a64.75,64.75,0,0,1,13.4.92c2.22.41,4.39,1,6.56,1.43a54.11,54.11,0,0,0,6.55,1A80.17,80.17,0,0,0,40,46.19a58.78,58.78,0,0,0,13-2.28c2.15-.59,4.37-1.16,6.61-1.55a57.75,57.75,0,0,1,6.79-.74A81.24,81.24,0,0,1,80,42a54.2,54.2,0,0,1,6.73,1.22c2.21.52,4.34,1.1,6.48,1.53a63.21,63.21,0,0,0,13.06,1.14A62.59,62.59,0,0,0,119.3,44.7c2.14-.43,4.27-1,6.48-1.54A56.09,56.09,0,0,1,132.51,42a82.32,82.32,0,0,1,13.59-.33,55.56,55.56,0,0,1,6.78.75c2.25.39,4.46,1,6.62,1.55a59.28,59.28,0,0,0,13,2.28A82.53,82.53,0,0,0,185.73,46,54,54,0,0,0,192.27,45c2.17-.47,4.35-1,6.57-1.42a64,64,0,0,1,13.39-.93v.15A65.2,65.2,0,0,0,198.93,44c-2.18.45-4.34,1.05-6.51,1.58a54.61,54.61,0,0,1-6.59,1.23,81,81,0,0,1-13.4.38A59.79,59.79,0,0,1,159.21,45,60.1,60.1,0,0,0,146,42.92a81.67,81.67,0,0,0-13.36.38,54.62,54.62,0,0,0-6.57,1.22c-2.16.53-4.32,1.13-6.51,1.58a64.37,64.37,0,0,1-13.35,1.24A64.31,64.31,0,0,1,92.89,46.1c-2.19-.45-4.35-1.05-6.52-1.57a54.13,54.13,0,0,0-6.56-1.23,81.67,81.67,0,0,0-13.36-.38A59.52,59.52,0,0,0,53.27,45a59.79,59.79,0,0,1-13.22,2.13,81,81,0,0,1-13.4-.38,54.61,54.61,0,0,1-6.59-1.23C17.88,45,15.73,44.44,13.55,44A64.61,64.61,0,0,0,.24,42.75Z"/><path class="cls-3" d="M.24,48.53a64.75,64.75,0,0,1,13.4.92c2.22.4,4.39.95,6.56,1.42a54.14,54.14,0,0,0,6.55,1.06A82.42,82.42,0,0,0,40,52.12a59.37,59.37,0,0,0,13-2.28c2.15-.59,4.37-1.16,6.61-1.55a55.7,55.7,0,0,1,6.79-.74A82.32,82.32,0,0,1,80,47.87a56.11,56.11,0,0,1,6.73,1.22c2.21.53,4.34,1.11,6.48,1.54a63.91,63.91,0,0,0,13.06,1.14,64,64,0,0,0,13.06-1.14c2.14-.43,4.27-1,6.48-1.54a56.11,56.11,0,0,1,6.73-1.22,82.32,82.32,0,0,1,13.59-.32,55.56,55.56,0,0,1,6.78.75c2.25.39,4.46,1,6.62,1.54a58.7,58.7,0,0,0,13,2.28,80.28,80.28,0,0,0,13.25-.19,54,54,0,0,0,6.54-1c2.17-.48,4.35-1,6.57-1.43a64.7,64.7,0,0,1,13.39-.92v.15a64.51,64.51,0,0,0-13.3,1.23c-2.18.45-4.34,1.05-6.51,1.58a54.58,54.58,0,0,1-6.59,1.22,81,81,0,0,1-13.4.39A59.79,59.79,0,0,1,159.21,51,60.12,60.12,0,0,0,146,48.84a80.58,80.58,0,0,0-13.36.39,54.62,54.62,0,0,0-6.57,1.22c-2.16.53-4.32,1.13-6.51,1.58a65.06,65.06,0,0,1-13.35,1.24A65,65,0,0,1,92.89,52c-2.19-.45-4.35-1.05-6.52-1.58a54.1,54.1,0,0,0-6.56-1.22,81.68,81.68,0,0,0-13.36-.39A60.12,60.12,0,0,0,53.27,51,59.79,59.79,0,0,1,40.05,53.1a82.13,82.13,0,0,1-13.4-.38,56.63,56.63,0,0,1-6.59-1.23c-2.18-.53-4.33-1.13-6.51-1.58A64.6,64.6,0,0,0,.24,48.68Z"/><path class="cls-3" d="M.24,54.45a64.76,64.76,0,0,1,13.4.93c2.22.4,4.39.95,6.56,1.42a54.14,54.14,0,0,0,6.55,1.06A82.42,82.42,0,0,0,40,58.05a58.8,58.8,0,0,0,13-2.29c2.15-.58,4.37-1.15,6.61-1.54a55.73,55.73,0,0,1,6.79-.75A83.43,83.43,0,0,1,80,53.8,56.11,56.11,0,0,1,86.7,55c2.21.52,4.34,1.1,6.48,1.53a63.91,63.91,0,0,0,13.06,1.15,63.27,63.27,0,0,0,13.06-1.15c2.14-.43,4.27-1,6.48-1.53a56.11,56.11,0,0,1,6.73-1.22,82.32,82.32,0,0,1,13.59-.32,53.64,53.64,0,0,1,6.78.74c2.25.39,4.46,1,6.62,1.55a58.7,58.7,0,0,0,13,2.28,82.53,82.53,0,0,0,13.25-.19,54,54,0,0,0,6.54-1.06c2.17-.47,4.35-1,6.57-1.42a65.41,65.41,0,0,1,13.39-.93v.15a64.51,64.51,0,0,0-13.3,1.24c-2.18.45-4.34,1-6.51,1.57a52.72,52.72,0,0,1-6.59,1.23,81,81,0,0,1-13.4.39,59.79,59.79,0,0,1-13.22-2.13A59.53,59.53,0,0,0,146,54.77a80.58,80.58,0,0,0-13.36.39,52.72,52.72,0,0,0-6.57,1.22c-2.16.52-4.32,1.12-6.51,1.58a65.06,65.06,0,0,1-13.35,1.24A65,65,0,0,1,92.89,58c-2.19-.45-4.35-1.05-6.52-1.58a54.1,54.1,0,0,0-6.56-1.22,80.58,80.58,0,0,0-13.36-.39A59.53,59.53,0,0,0,53.27,56.9,60.38,60.38,0,0,1,40.05,59a81,81,0,0,1-13.4-.39,52.72,52.72,0,0,1-6.59-1.23c-2.18-.52-4.33-1.12-6.51-1.57A64.61,64.61,0,0,0,.24,54.6Z"/><path class="cls-3" d="M.24,60.38a64.75,64.75,0,0,1,13.4.92c2.22.41,4.39,1,6.56,1.43a54.11,54.11,0,0,0,6.55,1.05A80.17,80.17,0,0,0,40,64a58.78,58.78,0,0,0,13-2.28c2.15-.59,4.37-1.16,6.61-1.55a57.75,57.75,0,0,1,6.79-.74A81.24,81.24,0,0,1,80,59.73,54.2,54.2,0,0,1,86.7,61c2.21.52,4.34,1.1,6.48,1.53a63.21,63.21,0,0,0,13.06,1.14,62.59,62.59,0,0,0,13.06-1.14c2.14-.43,4.27-1,6.48-1.53a54.2,54.2,0,0,1,6.73-1.22,82.32,82.32,0,0,1,13.59-.33,55.56,55.56,0,0,1,6.78.75c2.25.39,4.46,1,6.62,1.55a59.28,59.28,0,0,0,13,2.28,82.53,82.53,0,0,0,13.25-.19,54,54,0,0,0,6.54-1.06c2.17-.47,4.35-1,6.57-1.42a64,64,0,0,1,13.39-.93v.15a65.2,65.2,0,0,0-13.3,1.23c-2.18.46-4.34,1.05-6.51,1.58a54.61,54.61,0,0,1-6.59,1.23,81,81,0,0,1-13.4.38,59.79,59.79,0,0,1-13.22-2.13A60.1,60.1,0,0,0,146,60.7a81.67,81.67,0,0,0-13.36.38,54.62,54.62,0,0,0-6.57,1.22c-2.16.53-4.32,1.13-6.51,1.58a64.37,64.37,0,0,1-13.35,1.24,64.31,64.31,0,0,1-13.35-1.24c-2.19-.45-4.35-1.05-6.52-1.57a54.13,54.13,0,0,0-6.56-1.23,81.67,81.67,0,0,0-13.36-.38,59.52,59.52,0,0,0-13.18,2.12A59.79,59.79,0,0,1,40.05,65a80,80,0,0,1-13.4-.38,54.61,54.61,0,0,1-6.59-1.23c-2.18-.53-4.33-1.12-6.51-1.57A64.61,64.61,0,0,0,.24,60.53Z"/><path class="cls-3" d="M.24,66.31a64.75,64.75,0,0,1,13.4.92c2.22.4,4.39,1,6.56,1.42a54.14,54.14,0,0,0,6.55,1.06A82.42,82.42,0,0,0,40,69.9a59.37,59.37,0,0,0,13-2.28c2.15-.59,4.37-1.16,6.61-1.55a55.7,55.7,0,0,1,6.79-.74A82.32,82.32,0,0,1,80,65.65a56.11,56.11,0,0,1,6.73,1.22c2.21.53,4.34,1.11,6.48,1.54a63.91,63.91,0,0,0,13.06,1.14,64,64,0,0,0,13.06-1.14c2.14-.43,4.27-1,6.48-1.54a56.11,56.11,0,0,1,6.73-1.22,82.32,82.32,0,0,1,13.59-.32,55.56,55.56,0,0,1,6.78.75c2.25.39,4.46,1,6.62,1.54a58.12,58.12,0,0,0,13,2.28,80.28,80.28,0,0,0,13.25-.19,54,54,0,0,0,6.54-1c2.17-.48,4.35-1,6.57-1.43a64.7,64.7,0,0,1,13.39-.92v.15a64.51,64.51,0,0,0-13.3,1.23c-2.18.45-4.34,1-6.51,1.58a54.58,54.58,0,0,1-6.59,1.22,81,81,0,0,1-13.4.39,59.79,59.79,0,0,1-13.22-2.13A59.52,59.52,0,0,0,146,66.63a80.58,80.58,0,0,0-13.36.38,54.62,54.62,0,0,0-6.57,1.22c-2.16.53-4.32,1.13-6.51,1.58a65.06,65.06,0,0,1-13.35,1.24,65,65,0,0,1-13.35-1.24c-2.19-.45-4.35-1-6.52-1.58A54.1,54.1,0,0,0,79.81,67a81.68,81.68,0,0,0-13.36-.39,60.12,60.12,0,0,0-13.18,2.13,59.79,59.79,0,0,1-13.22,2.13,82.13,82.13,0,0,1-13.4-.38,56.63,56.63,0,0,1-6.59-1.23c-2.18-.53-4.33-1.13-6.51-1.58A64.6,64.6,0,0,0,.24,66.46Z"/><path class="cls-3" d="M.24,72.23a64.76,64.76,0,0,1,13.4.93c2.22.4,4.39,1,6.56,1.42a54.14,54.14,0,0,0,6.55,1.06A82.42,82.42,0,0,0,40,75.83a58.8,58.8,0,0,0,13-2.29c2.15-.58,4.37-1.15,6.61-1.54a55.73,55.73,0,0,1,6.79-.75A83.43,83.43,0,0,1,80,71.58,56.11,56.11,0,0,1,86.7,72.8c2.21.52,4.34,1.1,6.48,1.53a63.91,63.91,0,0,0,13.06,1.15,63.27,63.27,0,0,0,13.06-1.15c2.14-.43,4.27-1,6.48-1.53a56.11,56.11,0,0,1,6.73-1.22,82.32,82.32,0,0,1,13.59-.32,53.64,53.64,0,0,1,6.78.74c2.25.39,4.46,1,6.62,1.55a58.7,58.7,0,0,0,13,2.28,82.53,82.53,0,0,0,13.25-.19,54,54,0,0,0,6.54-1.06c2.17-.47,4.35-1,6.57-1.42a65.41,65.41,0,0,1,13.39-.93v.15a64.51,64.51,0,0,0-13.3,1.24c-2.18.45-4.34,1-6.51,1.57a52.72,52.72,0,0,1-6.59,1.23,81,81,0,0,1-13.4.39,59.79,59.79,0,0,1-13.22-2.13A59.53,59.53,0,0,0,146,72.55a80.58,80.58,0,0,0-13.36.39,52.72,52.72,0,0,0-6.57,1.22c-2.16.52-4.32,1.12-6.51,1.58A65.06,65.06,0,0,1,106.24,77a65,65,0,0,1-13.35-1.24c-2.19-.45-4.35-1-6.52-1.58a54.1,54.1,0,0,0-6.56-1.22,80.58,80.58,0,0,0-13.36-.39,59.53,59.53,0,0,0-13.18,2.13,60.38,60.38,0,0,1-13.22,2.13,81,81,0,0,1-13.4-.39,54.58,54.58,0,0,1-6.59-1.22c-2.18-.53-4.33-1.13-6.51-1.58A64.61,64.61,0,0,0,.24,72.38Z"/><path class="cls-3" d="M.24,78.16a64.75,64.75,0,0,1,13.4.92c2.22.41,4.39,1,6.56,1.43a54.11,54.11,0,0,0,6.55,1A80.17,80.17,0,0,0,40,81.75a58.78,58.78,0,0,0,13-2.28c2.15-.59,4.37-1.16,6.61-1.55a57.75,57.75,0,0,1,6.79-.74A81.24,81.24,0,0,1,80,77.51a54.2,54.2,0,0,1,6.73,1.22c2.21.52,4.34,1.1,6.48,1.53a63.21,63.21,0,0,0,13.06,1.14,62.59,62.59,0,0,0,13.06-1.14c2.14-.43,4.27-1,6.48-1.53a54.2,54.2,0,0,1,6.73-1.22,82.32,82.32,0,0,1,13.59-.33,55.56,55.56,0,0,1,6.78.75c2.25.39,4.46,1,6.62,1.55a59.28,59.28,0,0,0,13,2.28,82.53,82.53,0,0,0,13.25-.19,54,54,0,0,0,6.54-1.06c2.17-.47,4.35-1,6.57-1.42a64,64,0,0,1,13.39-.93v.15a64.51,64.51,0,0,0-13.3,1.24c-2.18.45-4.34,1-6.51,1.57a54.61,54.61,0,0,1-6.59,1.23,80,80,0,0,1-13.4.38,59.79,59.79,0,0,1-13.22-2.13A60.1,60.1,0,0,0,146,78.48a81.67,81.67,0,0,0-13.36.38,56.66,56.66,0,0,0-6.57,1.22c-2.16.53-4.32,1.13-6.51,1.58a64.37,64.37,0,0,1-13.35,1.24,64.31,64.31,0,0,1-13.35-1.24c-2.19-.45-4.35-1-6.52-1.57a54.13,54.13,0,0,0-6.56-1.23,81.67,81.67,0,0,0-13.36-.38A60.1,60.1,0,0,0,53.27,80.6a59.79,59.79,0,0,1-13.22,2.13,80,80,0,0,1-13.4-.38,54.61,54.61,0,0,1-6.59-1.23c-2.18-.53-4.33-1.12-6.51-1.57A64.61,64.61,0,0,0,.24,78.31Z"/><path class="cls-3" d="M.24,84.09a64.75,64.75,0,0,1,13.4.92c2.22.4,4.39.95,6.56,1.42a54.14,54.14,0,0,0,6.55,1.06A82.42,82.42,0,0,0,40,87.68,58.78,58.78,0,0,0,53,85.4c2.15-.59,4.37-1.16,6.61-1.55a55.7,55.7,0,0,1,6.79-.74A82.32,82.32,0,0,1,80,83.43a56.11,56.11,0,0,1,6.73,1.22c2.21.53,4.34,1.11,6.48,1.54a63.91,63.91,0,0,0,13.06,1.14,64,64,0,0,0,13.06-1.14c2.14-.43,4.27-1,6.48-1.54a54.18,54.18,0,0,1,6.73-1.21,81.24,81.24,0,0,1,13.59-.33,55.56,55.56,0,0,1,6.78.75c2.25.39,4.46,1,6.62,1.54a58.12,58.12,0,0,0,13,2.28,80.28,80.28,0,0,0,13.25-.19,54,54,0,0,0,6.54-1c2.17-.48,4.35-1,6.57-1.43a64.7,64.7,0,0,1,13.39-.92v.15a64.51,64.51,0,0,0-13.3,1.23c-2.18.45-4.34,1-6.51,1.58a54.58,54.58,0,0,1-6.59,1.22,81,81,0,0,1-13.4.39,59.79,59.79,0,0,1-13.22-2.13A59.52,59.52,0,0,0,146,84.41a80.58,80.58,0,0,0-13.36.38A54.62,54.62,0,0,0,126.1,86c-2.16.53-4.32,1.13-6.51,1.58a65.06,65.06,0,0,1-13.35,1.24,65,65,0,0,1-13.35-1.24c-2.19-.45-4.35-1-6.52-1.58a54.1,54.1,0,0,0-6.56-1.22,80.58,80.58,0,0,0-13.36-.38,59.52,59.52,0,0,0-13.18,2.12,59.79,59.79,0,0,1-13.22,2.13,82.13,82.13,0,0,1-13.4-.38,56.63,56.63,0,0,1-6.59-1.23c-2.18-.53-4.33-1.13-6.51-1.58A64.6,64.6,0,0,0,.24,84.24Z"/><path class="cls-3" d="M.24,90a65.46,65.46,0,0,1,13.4.93c2.22.4,4.39,1,6.56,1.42a54.14,54.14,0,0,0,6.55,1.06A82.42,82.42,0,0,0,40,93.61a58.8,58.8,0,0,0,13-2.29c2.15-.58,4.37-1.15,6.61-1.54A57.78,57.78,0,0,1,66.38,89,83.43,83.43,0,0,1,80,89.36a56.11,56.11,0,0,1,6.73,1.22c2.21.52,4.34,1.1,6.48,1.53a63.91,63.91,0,0,0,13.06,1.15,63.27,63.27,0,0,0,13.06-1.15c2.14-.43,4.27-1,6.48-1.53a56.11,56.11,0,0,1,6.73-1.22A82.32,82.32,0,0,1,146.1,89a55.54,55.54,0,0,1,6.78.74c2.25.39,4.46,1,6.62,1.55a58.7,58.7,0,0,0,13,2.28,82.53,82.53,0,0,0,13.25-.19,54,54,0,0,0,6.54-1.06c2.17-.47,4.35-1,6.57-1.42A65.41,65.41,0,0,1,212.23,90v.15a64.51,64.51,0,0,0-13.3,1.24c-2.18.45-4.34,1-6.51,1.57a52.72,52.72,0,0,1-6.59,1.23,81,81,0,0,1-13.4.39,59.79,59.79,0,0,1-13.22-2.13A59.53,59.53,0,0,0,146,90.33a80.58,80.58,0,0,0-13.36.39,52.72,52.72,0,0,0-6.57,1.22c-2.16.52-4.32,1.12-6.51,1.58a65.06,65.06,0,0,1-13.35,1.24,65,65,0,0,1-13.35-1.24c-2.19-.45-4.35-1-6.52-1.58a54.1,54.1,0,0,0-6.56-1.22,80.58,80.58,0,0,0-13.36-.39,59.53,59.53,0,0,0-13.18,2.13,60.38,60.38,0,0,1-13.22,2.13,81,81,0,0,1-13.4-.39A54.58,54.58,0,0,1,20.06,93c-2.18-.53-4.33-1.13-6.51-1.58A64.61,64.61,0,0,0,.24,90.16Z"/><path class="cls-3" d="M.24,95.94a64.75,64.75,0,0,1,13.4.92c2.22.41,4.39,1,6.56,1.43a52.21,52.21,0,0,0,6.55,1A80.17,80.17,0,0,0,40,99.53a58.78,58.78,0,0,0,13-2.28c2.15-.59,4.37-1.16,6.61-1.55A57.75,57.75,0,0,1,66.38,95,81.24,81.24,0,0,1,80,95.29a54.2,54.2,0,0,1,6.73,1.22C88.91,97,91,97.61,93.18,98a63.21,63.21,0,0,0,13.06,1.14A62.59,62.59,0,0,0,119.3,98c2.14-.43,4.27-1,6.48-1.53a54.2,54.2,0,0,1,6.73-1.22A82.32,82.32,0,0,1,146.1,95a55.56,55.56,0,0,1,6.78.75c2.25.39,4.46,1,6.62,1.55a59.28,59.28,0,0,0,13,2.28,82.53,82.53,0,0,0,13.25-.19,54,54,0,0,0,6.54-1.06c2.17-.47,4.35-1,6.57-1.42a64,64,0,0,1,13.39-.93v.15a64.51,64.51,0,0,0-13.3,1.24c-2.18.45-4.34,1-6.51,1.57a54.61,54.61,0,0,1-6.59,1.23,81,81,0,0,1-13.4.39,60.39,60.39,0,0,1-13.22-2.14A60.1,60.1,0,0,0,146,96.26a81.67,81.67,0,0,0-13.36.38,56.66,56.66,0,0,0-6.57,1.22c-2.16.53-4.32,1.13-6.51,1.58a64.37,64.37,0,0,1-13.35,1.24,64.31,64.31,0,0,1-13.35-1.24c-2.19-.45-4.35-1-6.52-1.57a54.13,54.13,0,0,0-6.56-1.23,81.67,81.67,0,0,0-13.36-.38,60.1,60.1,0,0,0-13.18,2.12,59.79,59.79,0,0,1-13.22,2.13,80,80,0,0,1-13.4-.38,54.61,54.61,0,0,1-6.59-1.23c-2.18-.52-4.33-1.12-6.51-1.57A64.61,64.61,0,0,0,.24,96.09Z"/><path class="cls-3" d="M.24,101.87a64.75,64.75,0,0,1,13.4.92c2.22.4,4.39.95,6.56,1.42a54.14,54.14,0,0,0,6.55,1.06,82.42,82.42,0,0,0,13.24.19,58.78,58.78,0,0,0,13-2.28c2.15-.59,4.37-1.16,6.61-1.55a55.7,55.7,0,0,1,6.79-.74,82.32,82.32,0,0,1,13.59.32,56.11,56.11,0,0,1,6.73,1.22c2.21.53,4.34,1.11,6.48,1.54a63.91,63.91,0,0,0,13.06,1.14A64,64,0,0,0,119.3,104c2.14-.43,4.27-1,6.48-1.54a54.18,54.18,0,0,1,6.73-1.21,81.24,81.24,0,0,1,13.59-.33,55.56,55.56,0,0,1,6.78.75c2.25.39,4.46,1,6.62,1.54a58.12,58.12,0,0,0,13,2.28,80.28,80.28,0,0,0,13.25-.19,54,54,0,0,0,6.54-1c2.17-.47,4.35-1,6.57-1.43a64.7,64.7,0,0,1,13.39-.92V102a64.51,64.51,0,0,0-13.3,1.23c-2.18.45-4.34,1-6.51,1.58a56.63,56.63,0,0,1-6.59,1.23,82.13,82.13,0,0,1-13.4.38,59.79,59.79,0,0,1-13.22-2.13A59.52,59.52,0,0,0,146,102.19a80.58,80.58,0,0,0-13.36.38,54.62,54.62,0,0,0-6.57,1.22c-2.16.53-4.32,1.13-6.51,1.58a65.06,65.06,0,0,1-13.35,1.24,65,65,0,0,1-13.35-1.24c-2.19-.45-4.35-1.05-6.52-1.58a54.1,54.1,0,0,0-6.56-1.22,80.58,80.58,0,0,0-13.36-.38,59.52,59.52,0,0,0-13.18,2.12,59.79,59.79,0,0,1-13.22,2.13,82.13,82.13,0,0,1-13.4-.38,56.63,56.63,0,0,1-6.59-1.23c-2.18-.53-4.33-1.13-6.51-1.58A64.6,64.6,0,0,0,.24,102Z"/><path class="cls-3" d="M.24,107.79a65.46,65.46,0,0,1,13.4.93c2.22.4,4.39,1,6.56,1.42a54.14,54.14,0,0,0,6.55,1.06,82.42,82.42,0,0,0,13.24.19,58.8,58.8,0,0,0,13-2.29c2.15-.58,4.37-1.15,6.61-1.54a57.78,57.78,0,0,1,6.79-.75,83.43,83.43,0,0,1,13.59.33,56.11,56.11,0,0,1,6.73,1.22c2.21.52,4.34,1.1,6.48,1.53A63.91,63.91,0,0,0,106.24,111a63.27,63.27,0,0,0,13.06-1.15c2.14-.43,4.27-1,6.48-1.53a56.11,56.11,0,0,1,6.73-1.22,82.32,82.32,0,0,1,13.59-.32,55.54,55.54,0,0,1,6.78.74c2.25.39,4.46,1,6.62,1.55a58.7,58.7,0,0,0,13,2.28,82.53,82.53,0,0,0,13.25-.19,54,54,0,0,0,6.54-1.06c2.17-.47,4.35-1,6.57-1.42a65.41,65.41,0,0,1,13.39-.93v.15a64.51,64.51,0,0,0-13.3,1.24c-2.18.45-4.34,1-6.51,1.57a52.72,52.72,0,0,1-6.59,1.23,81,81,0,0,1-13.4.39,59.79,59.79,0,0,1-13.22-2.13A59.53,59.53,0,0,0,146,108.11a80.58,80.58,0,0,0-13.36.39,52.72,52.72,0,0,0-6.57,1.22c-2.16.52-4.32,1.12-6.51,1.58a65.06,65.06,0,0,1-13.35,1.24,65,65,0,0,1-13.35-1.24c-2.19-.45-4.35-1-6.52-1.58a54.1,54.1,0,0,0-6.56-1.22,80.58,80.58,0,0,0-13.36-.39,59.53,59.53,0,0,0-13.18,2.13,60.38,60.38,0,0,1-13.22,2.13,81,81,0,0,1-13.4-.39,54.58,54.58,0,0,1-6.59-1.22c-2.18-.53-4.33-1.13-6.51-1.58A64.61,64.61,0,0,0,.24,107.94Z"/><path class="cls-3" d="M.24,113.72a64.75,64.75,0,0,1,13.4.92c2.22.41,4.39,1,6.56,1.43a52.21,52.21,0,0,0,6.55,1.05,80.17,80.17,0,0,0,13.24.19A58.78,58.78,0,0,0,53,115c2.15-.59,4.37-1.16,6.61-1.55a57.75,57.75,0,0,1,6.79-.74,81.24,81.24,0,0,1,13.59.33,54.2,54.2,0,0,1,6.73,1.22c2.21.52,4.34,1.1,6.48,1.53A63.21,63.21,0,0,0,106.24,117a62.59,62.59,0,0,0,13.06-1.14c2.14-.43,4.27-1,6.48-1.53a54.2,54.2,0,0,1,6.73-1.22,82.32,82.32,0,0,1,13.59-.33,55.56,55.56,0,0,1,6.78.75c2.25.39,4.46,1,6.62,1.55a59.28,59.28,0,0,0,13,2.28,82.53,82.53,0,0,0,13.25-.19,54,54,0,0,0,6.54-1.06c2.17-.47,4.35-1,6.57-1.42a64,64,0,0,1,13.39-.93v.15a64.51,64.51,0,0,0-13.3,1.24c-2.18.45-4.34,1-6.51,1.57a54.61,54.61,0,0,1-6.59,1.23,81,81,0,0,1-13.4.39,60.39,60.39,0,0,1-13.22-2.14A60.1,60.1,0,0,0,146,114a81.67,81.67,0,0,0-13.36.38,56.66,56.66,0,0,0-6.57,1.22c-2.16.53-4.32,1.13-6.51,1.58a64.37,64.37,0,0,1-13.35,1.24,64.3,64.3,0,0,1-13.35-1.23c-2.19-.46-4.35-1.06-6.52-1.58a54.13,54.13,0,0,0-6.56-1.23A81.67,81.67,0,0,0,66.45,114a60.1,60.1,0,0,0-13.18,2.12,60.39,60.39,0,0,1-13.22,2.14,81,81,0,0,1-13.4-.39,52.72,52.72,0,0,1-6.59-1.23c-2.18-.52-4.33-1.12-6.51-1.57A64.61,64.61,0,0,0,.24,113.87Z"/><path class="cls-3" d="M.24,119.65a64.75,64.75,0,0,1,13.4.92c2.22.4,4.39,1,6.56,1.42a54.14,54.14,0,0,0,6.55,1.06,81.28,81.28,0,0,0,13.24.19A58.78,58.78,0,0,0,53,121c2.15-.59,4.37-1.16,6.61-1.55a55.7,55.7,0,0,1,6.79-.74A82.32,82.32,0,0,1,80,119a56.11,56.11,0,0,1,6.73,1.22c2.21.53,4.34,1.11,6.48,1.54a63.91,63.91,0,0,0,13.06,1.14,64,64,0,0,0,13.06-1.14c2.14-.43,4.27-1,6.48-1.54a54.18,54.18,0,0,1,6.73-1.21,81.24,81.24,0,0,1,13.59-.33,55.56,55.56,0,0,1,6.78.75c2.25.39,4.46,1,6.62,1.54a58.12,58.12,0,0,0,13,2.28,80.28,80.28,0,0,0,13.25-.19,54,54,0,0,0,6.54-1c2.17-.47,4.35-1,6.57-1.43a64.7,64.7,0,0,1,13.39-.92v.15a64.51,64.51,0,0,0-13.3,1.23c-2.18.45-4.34,1-6.51,1.58a56.63,56.63,0,0,1-6.59,1.23,82.13,82.13,0,0,1-13.4.38,59.79,59.79,0,0,1-13.22-2.13A59.52,59.52,0,0,0,146,120a80.58,80.58,0,0,0-13.36.38,54.62,54.62,0,0,0-6.57,1.22c-2.16.53-4.32,1.13-6.51,1.58a65.06,65.06,0,0,1-13.35,1.24,65,65,0,0,1-13.35-1.24c-2.19-.45-4.35-1.05-6.52-1.58a54.1,54.1,0,0,0-6.56-1.22A80.58,80.58,0,0,0,66.45,120a59.52,59.52,0,0,0-13.18,2.12,59.79,59.79,0,0,1-13.22,2.13,82.13,82.13,0,0,1-13.4-.38,56.63,56.63,0,0,1-6.59-1.23c-2.18-.53-4.33-1.13-6.51-1.58A64.6,64.6,0,0,0,.24,119.8Z"/><path class="cls-3" d="M.24,125.57a65.46,65.46,0,0,1,13.4.93c2.22.4,4.39,1,6.56,1.42A54.14,54.14,0,0,0,26.75,129a82.42,82.42,0,0,0,13.24.19,58.8,58.8,0,0,0,13-2.29c2.15-.58,4.37-1.15,6.61-1.54a57.78,57.78,0,0,1,6.79-.75,83.43,83.43,0,0,1,13.59.33,56.11,56.11,0,0,1,6.73,1.22c2.21.52,4.34,1.11,6.48,1.53a63.21,63.21,0,0,0,13.06,1.15,63.27,63.27,0,0,0,13.06-1.15c2.14-.42,4.27-1,6.48-1.53a56.11,56.11,0,0,1,6.73-1.22,82.32,82.32,0,0,1,13.59-.32,55.54,55.54,0,0,1,6.78.74c2.25.39,4.46,1,6.62,1.55a58.7,58.7,0,0,0,13,2.28,82.53,82.53,0,0,0,13.25-.19,54,54,0,0,0,6.54-1.06c2.17-.47,4.35-1,6.57-1.42a65.41,65.41,0,0,1,13.39-.93v.15a64.51,64.51,0,0,0-13.3,1.24c-2.18.45-4.34,1-6.51,1.58a54.58,54.58,0,0,1-6.59,1.22,81,81,0,0,1-13.4.39A59.79,59.79,0,0,1,159.21,128,59.53,59.53,0,0,0,146,125.89a80.58,80.58,0,0,0-13.36.39,52.72,52.72,0,0,0-6.57,1.22c-2.16.52-4.32,1.12-6.51,1.58a65.06,65.06,0,0,1-13.35,1.24,65,65,0,0,1-13.35-1.24c-2.19-.45-4.35-1.05-6.52-1.58a54.1,54.1,0,0,0-6.56-1.22,80.58,80.58,0,0,0-13.36-.39A59.53,59.53,0,0,0,53.27,128a60.38,60.38,0,0,1-13.22,2.13,81,81,0,0,1-13.4-.39,54.58,54.58,0,0,1-6.59-1.22c-2.18-.53-4.33-1.13-6.51-1.58A64.61,64.61,0,0,0,.24,125.72Z"/><path class="cls-3" d="M.24,131.5a64.75,64.75,0,0,1,13.4.92c2.22.41,4.39,1,6.56,1.43a52.21,52.21,0,0,0,6.55,1.05,80.17,80.17,0,0,0,13.24.19,58.78,58.78,0,0,0,13-2.28c2.15-.59,4.37-1.16,6.61-1.55a57.75,57.75,0,0,1,6.79-.74,81.24,81.24,0,0,1,13.59.33,54.2,54.2,0,0,1,6.73,1.22c2.21.52,4.34,1.1,6.48,1.53a63.91,63.91,0,0,0,13.06,1.15,63.27,63.27,0,0,0,13.06-1.15c2.14-.43,4.27-1,6.48-1.53a56.11,56.11,0,0,1,6.73-1.22,82.32,82.32,0,0,1,13.59-.33,55.56,55.56,0,0,1,6.78.75c2.25.39,4.46,1,6.62,1.55a59.28,59.28,0,0,0,13,2.28,82.53,82.53,0,0,0,13.25-.19,54,54,0,0,0,6.54-1.06c2.17-.47,4.35-1,6.57-1.42a64,64,0,0,1,13.39-.93v.15a64.51,64.51,0,0,0-13.3,1.24c-2.18.45-4.34,1-6.51,1.57a54.61,54.61,0,0,1-6.59,1.23,81,81,0,0,1-13.4.39A61,61,0,0,1,159.21,134,59.53,59.53,0,0,0,146,131.82a81.67,81.67,0,0,0-13.36.38,56.66,56.66,0,0,0-6.57,1.22c-2.16.53-4.32,1.13-6.51,1.58a64.37,64.37,0,0,1-13.35,1.24A64.3,64.3,0,0,1,92.89,135c-2.19-.46-4.35-1.06-6.52-1.58a54.13,54.13,0,0,0-6.56-1.23,81.67,81.67,0,0,0-13.36-.38,60.1,60.1,0,0,0-13.18,2.12,60.39,60.39,0,0,1-13.22,2.14,81,81,0,0,1-13.4-.39,52.72,52.72,0,0,1-6.59-1.23c-2.18-.52-4.33-1.12-6.51-1.57A64.61,64.61,0,0,0,.24,131.65Z"/><path class="cls-3" d="M.24,137.43a64.75,64.75,0,0,1,13.4.92c2.22.4,4.39,1,6.56,1.42a54.14,54.14,0,0,0,6.55,1.06A81.28,81.28,0,0,0,40,141a58.78,58.78,0,0,0,13-2.28c2.15-.59,4.37-1.16,6.61-1.55a55.7,55.7,0,0,1,6.79-.74,82.32,82.32,0,0,1,13.59.32A56.11,56.11,0,0,1,86.7,138c2.21.53,4.34,1.11,6.48,1.54a63.91,63.91,0,0,0,13.06,1.14,64,64,0,0,0,13.06-1.14c2.14-.43,4.27-1,6.48-1.54a54.18,54.18,0,0,1,6.73-1.21,81.24,81.24,0,0,1,13.59-.33,55.56,55.56,0,0,1,6.78.75c2.25.39,4.46,1,6.62,1.54a58.12,58.12,0,0,0,13,2.28,80.28,80.28,0,0,0,13.25-.19,52.06,52.06,0,0,0,6.54-1.05c2.17-.47,4.35-1,6.57-1.43a64.7,64.7,0,0,1,13.39-.92v.15a64.51,64.51,0,0,0-13.3,1.23c-2.18.45-4.34,1.05-6.51,1.58a56.63,56.63,0,0,1-6.59,1.23,82.13,82.13,0,0,1-13.4.38,59.79,59.79,0,0,1-13.22-2.13A59.52,59.52,0,0,0,146,137.75a80.58,80.58,0,0,0-13.36.38,54.62,54.62,0,0,0-6.57,1.22c-2.16.53-4.32,1.13-6.51,1.58a65.06,65.06,0,0,1-13.35,1.24,65,65,0,0,1-13.35-1.24c-2.19-.45-4.35-1.05-6.52-1.58a56.1,56.1,0,0,0-6.56-1.22,80.58,80.58,0,0,0-13.36-.38,59.52,59.52,0,0,0-13.18,2.12A59.79,59.79,0,0,1,40.05,142a82.13,82.13,0,0,1-13.4-.38,56.63,56.63,0,0,1-6.59-1.23c-2.18-.53-4.33-1.13-6.51-1.58A64.6,64.6,0,0,0,.24,137.58Z"/><path class="cls-3" d="M.24,143.35a65.46,65.46,0,0,1,13.4.93c2.22.4,4.39.95,6.56,1.42a54.14,54.14,0,0,0,6.55,1.06A82.42,82.42,0,0,0,40,147a58.8,58.8,0,0,0,13-2.29c2.15-.58,4.37-1.15,6.61-1.54a57.78,57.78,0,0,1,6.79-.75A83.43,83.43,0,0,1,80,142.7a56.11,56.11,0,0,1,6.73,1.22c2.21.52,4.34,1.11,6.48,1.53a63.21,63.21,0,0,0,13.06,1.15,64,64,0,0,0,13.06-1.14c2.14-.43,4.27-1,6.48-1.54a56.11,56.11,0,0,1,6.73-1.22,82.32,82.32,0,0,1,13.59-.32,57.59,57.59,0,0,1,6.78.74c2.25.39,4.46,1,6.62,1.55a58.7,58.7,0,0,0,13,2.28,81.39,81.39,0,0,0,13.25-.19,54,54,0,0,0,6.54-1.06c2.17-.47,4.35-1,6.57-1.42a65.41,65.41,0,0,1,13.39-.93v.15a64.51,64.51,0,0,0-13.3,1.24c-2.18.45-4.34,1-6.51,1.58a54.58,54.58,0,0,1-6.59,1.22,81,81,0,0,1-13.4.39,59.79,59.79,0,0,1-13.22-2.13A59.53,59.53,0,0,0,146,143.67a80.58,80.58,0,0,0-13.36.39,52.72,52.72,0,0,0-6.57,1.22c-2.16.52-4.32,1.12-6.51,1.58a65.06,65.06,0,0,1-13.35,1.24,65,65,0,0,1-13.35-1.24c-2.19-.45-4.35-1.05-6.52-1.58a54.1,54.1,0,0,0-6.56-1.22,80.58,80.58,0,0,0-13.36-.39,59.53,59.53,0,0,0-13.18,2.13,60.38,60.38,0,0,1-13.22,2.13,81,81,0,0,1-13.4-.39,54.58,54.58,0,0,1-6.59-1.22c-2.18-.53-4.33-1.13-6.51-1.58A64.61,64.61,0,0,0,.24,143.5Z"/><path class="cls-3" d="M.24,149.28a64.75,64.75,0,0,1,13.4.92c2.22.41,4.39,1,6.56,1.43a52.21,52.21,0,0,0,6.55,1.05,80.17,80.17,0,0,0,13.24.19,58.78,58.78,0,0,0,13-2.28c2.15-.59,4.37-1.16,6.61-1.55a57.75,57.75,0,0,1,6.79-.74,81.24,81.24,0,0,1,13.59.33,54.2,54.2,0,0,1,6.73,1.22c2.21.52,4.34,1.1,6.48,1.53a63.91,63.91,0,0,0,13.06,1.15,63.27,63.27,0,0,0,13.06-1.15c2.14-.43,4.27-1,6.48-1.53a56.11,56.11,0,0,1,6.73-1.22,83.43,83.43,0,0,1,13.59-.33,55.56,55.56,0,0,1,6.78.75c2.25.39,4.46,1,6.62,1.55a59.28,59.28,0,0,0,13,2.28,82.53,82.53,0,0,0,13.25-.19,54,54,0,0,0,6.54-1.06c2.17-.47,4.35-1,6.57-1.42a64,64,0,0,1,13.39-.93v.15a64.51,64.51,0,0,0-13.3,1.24c-2.18.45-4.34,1-6.51,1.57a54.61,54.61,0,0,1-6.59,1.23,81,81,0,0,1-13.4.39,60.38,60.38,0,0,1-13.22-2.13A59.53,59.53,0,0,0,146,149.6a81.67,81.67,0,0,0-13.36.38,54.65,54.65,0,0,0-6.57,1.23c-2.16.52-4.32,1.12-6.51,1.57A64.37,64.37,0,0,1,106.24,154a64.3,64.3,0,0,1-13.35-1.23c-2.19-.46-4.35-1.06-6.52-1.58A54.13,54.13,0,0,0,79.81,150a81.67,81.67,0,0,0-13.36-.38,60.1,60.1,0,0,0-13.18,2.12,59.8,59.8,0,0,1-13.22,2.14,81,81,0,0,1-13.4-.39,52.72,52.72,0,0,1-6.59-1.23c-2.18-.52-4.33-1.12-6.51-1.57A64.61,64.61,0,0,0,.24,149.43Z"/><path class="cls-3" d="M.24,155.21a64.75,64.75,0,0,1,13.4.92c2.22.4,4.39,1,6.56,1.43a56.15,56.15,0,0,0,6.55,1.05A81.28,81.28,0,0,0,40,158.8a58.78,58.78,0,0,0,13-2.28c2.15-.59,4.37-1.16,6.61-1.55a55.7,55.7,0,0,1,6.79-.74,81.24,81.24,0,0,1,13.59.33,54.18,54.18,0,0,1,6.73,1.21c2.21.53,4.34,1.11,6.48,1.54a63.91,63.91,0,0,0,13.06,1.14,63.27,63.27,0,0,0,13.06-1.14c2.14-.43,4.27-1,6.48-1.54a54.18,54.18,0,0,1,6.73-1.21,81.24,81.24,0,0,1,13.59-.33,55.56,55.56,0,0,1,6.78.75c2.25.39,4.46,1,6.62,1.54a58.12,58.12,0,0,0,13,2.28,80.28,80.28,0,0,0,13.25-.19,52.06,52.06,0,0,0,6.54-1.05c2.17-.47,4.35-1,6.57-1.43a64.7,64.7,0,0,1,13.39-.92v.15a64.51,64.51,0,0,0-13.3,1.23c-2.18.45-4.34,1-6.51,1.58a56.63,56.63,0,0,1-6.59,1.23,82.13,82.13,0,0,1-13.4.38,59.79,59.79,0,0,1-13.22-2.13A60.1,60.1,0,0,0,146,155.53a80.58,80.58,0,0,0-13.36.38,54.62,54.62,0,0,0-6.57,1.22c-2.16.53-4.32,1.13-6.51,1.58A65.06,65.06,0,0,1,106.24,160a65,65,0,0,1-13.35-1.24c-2.19-.45-4.35-1.05-6.52-1.58a56.1,56.1,0,0,0-6.56-1.22,80.58,80.58,0,0,0-13.36-.38,59.52,59.52,0,0,0-13.18,2.12,59.79,59.79,0,0,1-13.22,2.13,81,81,0,0,1-13.4-.38,56.63,56.63,0,0,1-6.59-1.23c-2.18-.53-4.33-1.13-6.51-1.58A64.6,64.6,0,0,0,.24,155.36Z"/><path class="cls-3" d="M.24,161.14a64.75,64.75,0,0,1,13.4.92c2.22.4,4.39.95,6.56,1.42a54.14,54.14,0,0,0,6.55,1.06,82.42,82.42,0,0,0,13.24.19,58.8,58.8,0,0,0,13-2.29c2.15-.58,4.37-1.15,6.61-1.54a55.7,55.7,0,0,1,6.79-.74,82.32,82.32,0,0,1,13.59.32,56.11,56.11,0,0,1,6.73,1.22c2.21.52,4.34,1.11,6.48,1.53a63.21,63.21,0,0,0,13.06,1.15,64,64,0,0,0,13.06-1.14c2.14-.43,4.27-1,6.48-1.54a56.11,56.11,0,0,1,6.73-1.22,82.32,82.32,0,0,1,13.59-.32,57.59,57.59,0,0,1,6.78.74c2.25.39,4.46,1,6.62,1.55a58.7,58.7,0,0,0,13,2.28,81.39,81.39,0,0,0,13.25-.19,54,54,0,0,0,6.54-1.06c2.17-.47,4.35-1,6.57-1.42a64.7,64.7,0,0,1,13.39-.92v.15a63.82,63.82,0,0,0-13.3,1.23c-2.18.45-4.34,1-6.51,1.58a54.58,54.58,0,0,1-6.59,1.22,81,81,0,0,1-13.4.39,59.79,59.79,0,0,1-13.22-2.13A59.53,59.53,0,0,0,146,161.45a80.58,80.58,0,0,0-13.36.39,52.72,52.72,0,0,0-6.57,1.22c-2.16.52-4.32,1.12-6.51,1.58a65.06,65.06,0,0,1-13.35,1.24,65,65,0,0,1-13.35-1.24c-2.19-.45-4.35-1-6.52-1.58a54.1,54.1,0,0,0-6.56-1.22,80.58,80.58,0,0,0-13.36-.39,59.53,59.53,0,0,0-13.18,2.13,59.79,59.79,0,0,1-13.22,2.13,81,81,0,0,1-13.4-.39,54.58,54.58,0,0,1-6.59-1.22c-2.18-.53-4.33-1.13-6.51-1.58A63.92,63.92,0,0,0,.24,161.29Z"/><path class="cls-3" d="M.24,167.06a64.07,64.07,0,0,1,13.4.93c2.22.4,4.39.95,6.56,1.42a52.21,52.21,0,0,0,6.55,1.05,80.17,80.17,0,0,0,13.24.19,58.78,58.78,0,0,0,13-2.28c2.15-.59,4.37-1.16,6.61-1.55a57.75,57.75,0,0,1,6.79-.74,82.32,82.32,0,0,1,13.59.33,56.11,56.11,0,0,1,6.73,1.22c2.21.52,4.34,1.1,6.48,1.53a63.91,63.91,0,0,0,13.06,1.15,63.27,63.27,0,0,0,13.06-1.15c2.14-.43,4.27-1,6.48-1.53a56.11,56.11,0,0,1,6.73-1.22,83.43,83.43,0,0,1,13.59-.33,55.56,55.56,0,0,1,6.78.75c2.25.39,4.46,1,6.62,1.55a59.28,59.28,0,0,0,13,2.28,82.53,82.53,0,0,0,13.25-.19,54,54,0,0,0,6.54-1.06c2.17-.47,4.35-1,6.57-1.42a64.71,64.71,0,0,1,13.39-.93v.15a64.51,64.51,0,0,0-13.3,1.24c-2.18.45-4.34,1.05-6.51,1.57a52.72,52.72,0,0,1-6.59,1.23,81,81,0,0,1-13.4.39,60.38,60.38,0,0,1-13.22-2.13A59.53,59.53,0,0,0,146,167.38a81.67,81.67,0,0,0-13.36.38A54.65,54.65,0,0,0,126.1,169c-2.16.52-4.32,1.12-6.51,1.57a64.37,64.37,0,0,1-13.35,1.24,64.3,64.3,0,0,1-13.35-1.23c-2.19-.46-4.35-1.06-6.52-1.58a52.23,52.23,0,0,0-6.56-1.22,80.58,80.58,0,0,0-13.36-.39,60.1,60.1,0,0,0-13.18,2.12,59.8,59.8,0,0,1-13.22,2.14,81,81,0,0,1-13.4-.39A52.72,52.72,0,0,1,20.06,170c-2.18-.52-4.33-1.12-6.51-1.57A64.61,64.61,0,0,0,.24,167.21Z"/><path class="cls-3" d="M.24,173a64.75,64.75,0,0,1,13.4.92c2.22.4,4.39,1,6.56,1.43a54.11,54.11,0,0,0,6.55,1,80.17,80.17,0,0,0,13.24.19,58.78,58.78,0,0,0,13-2.28c2.15-.59,4.37-1.16,6.61-1.55a57.75,57.75,0,0,1,6.79-.74,81.24,81.24,0,0,1,13.59.33,54.18,54.18,0,0,1,6.73,1.21c2.21.53,4.34,1.11,6.48,1.54a63.91,63.91,0,0,0,13.06,1.14,63.27,63.27,0,0,0,13.06-1.14c2.14-.43,4.27-1,6.48-1.54a54.18,54.18,0,0,1,6.73-1.21A81.24,81.24,0,0,1,146.1,172a55.56,55.56,0,0,1,6.78.75c2.25.39,4.46,1,6.62,1.54a58.12,58.12,0,0,0,13,2.28,80.28,80.28,0,0,0,13.25-.19,52.06,52.06,0,0,0,6.54-1c2.17-.47,4.35-1,6.57-1.43a64.7,64.7,0,0,1,13.39-.92v.15a64.51,64.51,0,0,0-13.3,1.23c-2.18.45-4.34,1-6.51,1.58a56.63,56.63,0,0,1-6.59,1.23,81,81,0,0,1-13.4.38,59.79,59.79,0,0,1-13.22-2.13A60.1,60.1,0,0,0,146,173.31a80.58,80.58,0,0,0-13.36.38,54.62,54.62,0,0,0-6.57,1.22c-2.16.53-4.32,1.13-6.51,1.58a65.06,65.06,0,0,1-13.35,1.24,65,65,0,0,1-13.35-1.24c-2.19-.45-4.35-1.05-6.52-1.58a56.1,56.1,0,0,0-6.56-1.22,80.58,80.58,0,0,0-13.36-.38,59.52,59.52,0,0,0-13.18,2.12,59.79,59.79,0,0,1-13.22,2.13,81,81,0,0,1-13.4-.38A54.61,54.61,0,0,1,20.06,176c-2.18-.53-4.33-1.13-6.51-1.58A64.6,64.6,0,0,0,.24,173.14Z"/><path class="cls-3" d="M.24,178.92a64.75,64.75,0,0,1,13.4.92c2.22.4,4.39.95,6.56,1.42a54.14,54.14,0,0,0,6.55,1.06,82.42,82.42,0,0,0,13.24.19,59.37,59.37,0,0,0,13-2.28c2.15-.59,4.37-1.16,6.61-1.55a55.7,55.7,0,0,1,6.79-.74,82.32,82.32,0,0,1,13.59.32,56.11,56.11,0,0,1,6.73,1.22c2.21.52,4.34,1.11,6.48,1.54a63.91,63.91,0,0,0,13.06,1.14A64,64,0,0,0,119.3,181c2.14-.43,4.27-1,6.48-1.54a56.11,56.11,0,0,1,6.73-1.22,82.32,82.32,0,0,1,13.59-.32,57.59,57.59,0,0,1,6.78.74c2.25.39,4.46,1,6.62,1.55a58.7,58.7,0,0,0,13,2.28,81.39,81.39,0,0,0,13.25-.19,54,54,0,0,0,6.54-1.06c2.17-.47,4.35-1,6.57-1.42a64.7,64.7,0,0,1,13.39-.92v.15a63.82,63.82,0,0,0-13.3,1.23c-2.18.45-4.34,1-6.51,1.58a54.58,54.58,0,0,1-6.59,1.22,81,81,0,0,1-13.4.39,59.79,59.79,0,0,1-13.22-2.13A59.53,59.53,0,0,0,146,179.23a80.58,80.58,0,0,0-13.36.39,54.62,54.62,0,0,0-6.57,1.22c-2.16.52-4.32,1.12-6.51,1.58a65.06,65.06,0,0,1-13.35,1.24,65,65,0,0,1-13.35-1.24c-2.19-.45-4.35-1-6.52-1.58a54.1,54.1,0,0,0-6.56-1.22,80.58,80.58,0,0,0-13.36-.39,59.53,59.53,0,0,0-13.18,2.13,59.79,59.79,0,0,1-13.22,2.13,81,81,0,0,1-13.4-.39,54.58,54.58,0,0,1-6.59-1.22c-2.18-.53-4.33-1.13-6.51-1.58A64.6,64.6,0,0,0,.24,179.07Z"/><path class="cls-3" d="M.24,184.84a64.07,64.07,0,0,1,13.4.93c2.22.4,4.39.95,6.56,1.42a52.21,52.21,0,0,0,6.55,1.05,80.17,80.17,0,0,0,13.24.19,58.78,58.78,0,0,0,13-2.28c2.15-.59,4.37-1.16,6.61-1.55a57.75,57.75,0,0,1,6.79-.74,82.32,82.32,0,0,1,13.59.33,56.11,56.11,0,0,1,6.73,1.22c2.21.52,4.34,1.1,6.48,1.53a63.91,63.91,0,0,0,13.06,1.15,63.27,63.27,0,0,0,13.06-1.15c2.14-.43,4.27-1,6.48-1.53a56.11,56.11,0,0,1,6.73-1.22,83.43,83.43,0,0,1,13.59-.33,55.56,55.56,0,0,1,6.78.75c2.25.39,4.46,1,6.62,1.55a59.28,59.28,0,0,0,13,2.28,82.53,82.53,0,0,0,13.25-.19,54,54,0,0,0,6.54-1.06c2.17-.47,4.35-1,6.57-1.42a64.71,64.71,0,0,1,13.39-.93V185a64.51,64.51,0,0,0-13.3,1.24c-2.18.45-4.34,1.05-6.51,1.57a52.72,52.72,0,0,1-6.59,1.23,81,81,0,0,1-13.4.39,60.38,60.38,0,0,1-13.22-2.13A59.53,59.53,0,0,0,146,185.16a81.67,81.67,0,0,0-13.36.38,54.65,54.65,0,0,0-6.57,1.23c-2.16.52-4.32,1.12-6.51,1.57a64.37,64.37,0,0,1-13.35,1.24,64.3,64.3,0,0,1-13.35-1.23c-2.19-.46-4.35-1.06-6.52-1.58a52.23,52.23,0,0,0-6.56-1.22,80.58,80.58,0,0,0-13.36-.39,60.1,60.1,0,0,0-13.18,2.12,59.8,59.8,0,0,1-13.22,2.14,81,81,0,0,1-13.4-.39,52.72,52.72,0,0,1-6.59-1.23c-2.18-.52-4.33-1.12-6.51-1.57A64.61,64.61,0,0,0,.24,185Z"/><path class="cls-3" d="M.24,190.77a64.75,64.75,0,0,1,13.4.92c2.22.4,4.39.95,6.56,1.43a54.11,54.11,0,0,0,6.55,1,80.17,80.17,0,0,0,13.24.19,58.78,58.78,0,0,0,13-2.28c2.15-.59,4.37-1.16,6.61-1.55a57.75,57.75,0,0,1,6.79-.74,81.24,81.24,0,0,1,13.59.33,54.18,54.18,0,0,1,6.73,1.21c2.21.53,4.34,1.11,6.48,1.54A63.91,63.91,0,0,0,106.24,194a63.27,63.27,0,0,0,13.06-1.14c2.14-.43,4.27-1,6.48-1.54a54.18,54.18,0,0,1,6.73-1.21,81.24,81.24,0,0,1,13.59-.33,55.56,55.56,0,0,1,6.78.75c2.25.39,4.46,1,6.62,1.55a58.68,58.68,0,0,0,13,2.27,80.28,80.28,0,0,0,13.25-.19,52.06,52.06,0,0,0,6.54-1c2.17-.47,4.35-1,6.57-1.43a64.7,64.7,0,0,1,13.39-.92v.15a64.51,64.51,0,0,0-13.3,1.23c-2.18.45-4.34,1-6.51,1.58a56.63,56.63,0,0,1-6.59,1.23,81,81,0,0,1-13.4.38,59.79,59.79,0,0,1-13.22-2.13A60.1,60.1,0,0,0,146,191.09a80.58,80.58,0,0,0-13.36.38,54.62,54.62,0,0,0-6.57,1.22c-2.16.53-4.32,1.13-6.51,1.58a65.06,65.06,0,0,1-13.35,1.24,65,65,0,0,1-13.35-1.24c-2.19-.45-4.35-1.05-6.52-1.57a54.13,54.13,0,0,0-6.56-1.23,80.58,80.58,0,0,0-13.36-.38,59.52,59.52,0,0,0-13.18,2.12,59.79,59.79,0,0,1-13.22,2.13,81,81,0,0,1-13.4-.38,54.61,54.61,0,0,1-6.59-1.23c-2.18-.53-4.33-1.13-6.51-1.58A64.6,64.6,0,0,0,.24,190.92Z"/><path class="cls-3" d="M.24,196.7a64.75,64.75,0,0,1,13.4.92c2.22.4,4.39.95,6.56,1.42a54.14,54.14,0,0,0,6.55,1.06,82.42,82.42,0,0,0,13.24.19A59.37,59.37,0,0,0,53,198c2.15-.59,4.37-1.16,6.61-1.55a55.7,55.7,0,0,1,6.79-.74A82.32,82.32,0,0,1,80,196a56.11,56.11,0,0,1,6.73,1.22c2.21.52,4.34,1.11,6.48,1.54a63.91,63.91,0,0,0,13.06,1.14,64,64,0,0,0,13.06-1.14c2.14-.43,4.27-1,6.48-1.54a56.11,56.11,0,0,1,6.73-1.22,82.32,82.32,0,0,1,13.59-.32,57.59,57.59,0,0,1,6.78.74c2.25.39,4.46,1,6.62,1.55a58.7,58.7,0,0,0,13,2.28,81.39,81.39,0,0,0,13.25-.19,54,54,0,0,0,6.54-1.06c2.17-.47,4.35-1,6.57-1.42a64.7,64.7,0,0,1,13.39-.92v.15a64.51,64.51,0,0,0-13.3,1.23c-2.18.45-4.34,1-6.51,1.58a54.58,54.58,0,0,1-6.59,1.22,81,81,0,0,1-13.4.39,59.79,59.79,0,0,1-13.22-2.13A59.53,59.53,0,0,0,146,197a80.58,80.58,0,0,0-13.36.39,54.62,54.62,0,0,0-6.57,1.22c-2.16.52-4.32,1.12-6.51,1.58a65.06,65.06,0,0,1-13.35,1.24,65,65,0,0,1-13.35-1.24c-2.19-.45-4.35-1-6.52-1.58a54.1,54.1,0,0,0-6.56-1.22A80.58,80.58,0,0,0,66.45,197a59.53,59.53,0,0,0-13.18,2.13,59.79,59.79,0,0,1-13.22,2.13,81,81,0,0,1-13.4-.39,54.58,54.58,0,0,1-6.59-1.22c-2.18-.53-4.33-1.13-6.51-1.58A64.6,64.6,0,0,0,.24,196.85Z"/><path class="cls-3" d="M.24,202.62a64.76,64.76,0,0,1,13.4.93c2.22.4,4.39.95,6.56,1.42A52.21,52.21,0,0,0,26.75,206a80.17,80.17,0,0,0,13.24.19,58.78,58.78,0,0,0,13-2.28c2.15-.58,4.37-1.16,6.61-1.55a57.75,57.75,0,0,1,6.79-.74A82.32,82.32,0,0,1,80,202a56.11,56.11,0,0,1,6.73,1.22c2.21.52,4.34,1.1,6.48,1.53a63.91,63.91,0,0,0,13.06,1.15,63.27,63.27,0,0,0,13.06-1.15c2.14-.43,4.27-1,6.48-1.53a56.11,56.11,0,0,1,6.73-1.22,83.43,83.43,0,0,1,13.59-.33,55.56,55.56,0,0,1,6.78.75c2.25.39,4.46,1,6.62,1.55a59.28,59.28,0,0,0,13,2.28,82.53,82.53,0,0,0,13.25-.19,54,54,0,0,0,6.54-1.06c2.17-.47,4.35-1,6.57-1.42a64.71,64.71,0,0,1,13.39-.93v.15a64.51,64.51,0,0,0-13.3,1.24c-2.18.45-4.34,1.05-6.51,1.57a52.72,52.72,0,0,1-6.59,1.23,81,81,0,0,1-13.4.39,60.38,60.38,0,0,1-13.22-2.13A59.53,59.53,0,0,0,146,202.94a81.67,81.67,0,0,0-13.36.38,54.65,54.65,0,0,0-6.57,1.23c-2.16.52-4.32,1.12-6.51,1.57a64.37,64.37,0,0,1-13.35,1.24,64.3,64.3,0,0,1-13.35-1.23c-2.19-.46-4.35-1.06-6.52-1.58a52.23,52.23,0,0,0-6.56-1.22,80.58,80.58,0,0,0-13.36-.39,60.1,60.1,0,0,0-13.18,2.12,59.8,59.8,0,0,1-13.22,2.14,81,81,0,0,1-13.4-.39,52.72,52.72,0,0,1-6.59-1.23c-2.18-.52-4.33-1.12-6.51-1.57A64.61,64.61,0,0,0,.24,202.77Z"/><path class="cls-3" d="M.24,208.55a64.75,64.75,0,0,1,13.4.92c2.22.4,4.39.95,6.56,1.43a54.11,54.11,0,0,0,6.55,1,80.17,80.17,0,0,0,13.24.19,58.78,58.78,0,0,0,13-2.28c2.15-.59,4.37-1.16,6.61-1.55a57.75,57.75,0,0,1,6.79-.74A81.24,81.24,0,0,1,80,207.9a54.18,54.18,0,0,1,6.73,1.21c2.21.53,4.34,1.11,6.48,1.54a63.21,63.21,0,0,0,13.06,1.14,63.27,63.27,0,0,0,13.06-1.14c2.14-.43,4.27-1,6.48-1.54a54.18,54.18,0,0,1,6.73-1.21,81.24,81.24,0,0,1,13.59-.33,55.56,55.56,0,0,1,6.78.75c2.25.39,4.46,1,6.62,1.55a58.68,58.68,0,0,0,13,2.27,80.28,80.28,0,0,0,13.25-.19,52.06,52.06,0,0,0,6.54-1c2.17-.47,4.35-1,6.57-1.43a64.7,64.7,0,0,1,13.39-.92v.15a64.51,64.51,0,0,0-13.3,1.23c-2.18.45-4.34,1-6.51,1.58a56.63,56.63,0,0,1-6.59,1.23,81,81,0,0,1-13.4.38A59.79,59.79,0,0,1,159.21,211,60.1,60.1,0,0,0,146,208.87a80.58,80.58,0,0,0-13.36.38,54.62,54.62,0,0,0-6.57,1.22c-2.16.53-4.32,1.13-6.51,1.58a65.06,65.06,0,0,1-13.35,1.24,64.31,64.31,0,0,1-13.35-1.24c-2.19-.45-4.35-1.05-6.52-1.57a54.13,54.13,0,0,0-6.56-1.23,80.58,80.58,0,0,0-13.36-.38A59.52,59.52,0,0,0,53.27,211a59.79,59.79,0,0,1-13.22,2.13,81,81,0,0,1-13.4-.38,54.61,54.61,0,0,1-6.59-1.23c-2.18-.53-4.33-1.13-6.51-1.58A64.6,64.6,0,0,0,.24,208.7Z"/><path class="cls-3" d="M.24,214.48a64.75,64.75,0,0,1,13.4.92c2.22.4,4.39.95,6.56,1.42a54.14,54.14,0,0,0,6.55,1.06,82.42,82.42,0,0,0,13.24.19,59.37,59.37,0,0,0,13-2.28c2.15-.59,4.37-1.16,6.61-1.55a55.7,55.7,0,0,1,6.79-.74,82.32,82.32,0,0,1,13.59.32A56.11,56.11,0,0,1,86.7,215c2.21.52,4.34,1.11,6.48,1.54a63.91,63.91,0,0,0,13.06,1.14,64,64,0,0,0,13.06-1.14c2.14-.43,4.27-1,6.48-1.54a56.11,56.11,0,0,1,6.73-1.22,82.32,82.32,0,0,1,13.59-.32,57.59,57.59,0,0,1,6.78.74c2.25.39,4.46,1,6.62,1.55a58.7,58.7,0,0,0,13,2.28,81.39,81.39,0,0,0,13.25-.19,54,54,0,0,0,6.54-1.06c2.17-.47,4.35-1,6.57-1.42a64.7,64.7,0,0,1,13.39-.92v.15a64.51,64.51,0,0,0-13.3,1.23c-2.18.45-4.34,1-6.51,1.58a54.58,54.58,0,0,1-6.59,1.22,81,81,0,0,1-13.4.39,59.79,59.79,0,0,1-13.22-2.13A59.53,59.53,0,0,0,146,214.79a80.58,80.58,0,0,0-13.36.39,54.62,54.62,0,0,0-6.57,1.22c-2.16.52-4.32,1.12-6.51,1.58a65.06,65.06,0,0,1-13.35,1.24A65,65,0,0,1,92.89,218c-2.19-.45-4.35-1-6.52-1.58a54.1,54.1,0,0,0-6.56-1.22,80.58,80.58,0,0,0-13.36-.39,59.53,59.53,0,0,0-13.18,2.13,59.79,59.79,0,0,1-13.22,2.13,81,81,0,0,1-13.4-.39,54.58,54.58,0,0,1-6.59-1.22c-2.18-.53-4.33-1.13-6.51-1.58A64.6,64.6,0,0,0,.24,214.63Z"/></g></symbol></defs><title>kor</title><use width="212.48" height="219.22" transform="translate(0 0) scale(0.91)" xlink:href="#New_Symbol"/></svg>