<svg id="Default" xmlns="http://www.w3.org/2000/svg" viewBox="0 0 51.71 73.18"><defs><style>.cls-1{fill:#ff73b5;}.cls-2{fill:#d2448d;}.cls-3{fill:#fbfafc;}</style></defs><title>kosar</title><path class="cls-1" d="M100.14,79v21.48c0,7.52,5.27,16.66,11.78,20.42l2.75,1.59,6.54,15.76,6.54-8.2,2.75,1.59c.27.15.54.3.8.42,2.94,1.48,5.58,1.54,7.54.4l.16-.09c2-1.27,3.29-3.87,3.29-7.54V103.32c0-7.52-5.28-16.67-11.79-20.43L111.92,72.16c-3.19-1.84-6.09-2-8.2-.9l-.13.07C101.45,72.56,100.14,75.2,100.14,79Z" transform="translate(-100.14 -65.02)"/><path class="cls-2" d="M148.4,126.9c2.13-1.23,3.45-3.88,3.45-7.63V97.79c0-7.52-5.27-16.66-11.78-20.42L121.48,66.63c-3.25-1.88-6.2-2-8.33-.82q-4.73,2.72-9.43,5.45c2.11-1.15,5-.94,8.2.9L130.5,82.89c6.51,3.76,11.79,12.91,11.79,20.43v21.47c0,3.67-1.25,6.27-3.29,7.54Z" transform="translate(-100.14 -65.02)"/><path class="cls-2" d="M127.75,130l-6.54,8.2,9.57-5.53.52-.66c-.26-.12-.53-.27-.8-.42Z" transform="translate(-100.14 -65.02)"/><path class="cls-3" d="M119.66,93.44a.61.61,0,0,0-.55-.09l-.55.23-3-1.73c-1.15-.66-2.14-.38-2.31.67L113,94.25l1.57.9.24-1.52c0-.35.39-.45.77-.23l3.31,1.92a.62.62,0,0,0,.54.09l.55-.24,2.46,1.42.55.87a1.57,1.57,0,0,0,.55.54l3.31,1.92a1.68,1.68,0,0,1,.77,1.11l.23,1.79,1.57.91-.27-2a5,5,0,0,0-2.3-3.33l-3-1.72-.55-.87a1.58,1.58,0,0,0-.55-.54Zm-7.76,1.72c-.42-.24-.77-.1-.77.33V97a1.64,1.64,0,0,0,.77,1.23l.14.07,1.2,7.94a3.36,3.36,0,0,0,1.53,2.18l12.88,7.44c.76.44,1.41.27,1.54-.41l1.2-6.54.13.07c.43.25.78.1.78-.33v-1.55a1.59,1.59,0,0,0-.78-1.22Zm13.19,11.5a1.62,1.62,0,0,1,.78,1.23v3.88c0,.42-.35.57-.78.32a1.58,1.58,0,0,1-.77-1.22V107c0-.43.34-.58.77-.33Zm-3.88-2.24a1.62,1.62,0,0,1,.78,1.23v3.88c0,.42-.35.57-.78.32a1.6,1.6,0,0,1-.77-1.22v-3.88c0-.43.35-.58.77-.33Zm-3.88-2.24a1.62,1.62,0,0,1,.78,1.22v3.89c0,.42-.35.57-.78.32a1.6,1.6,0,0,1-.77-1.22v-3.88c0-.43.35-.58.77-.33Z" transform="translate(-100.14 -65.02)"/></svg>