<svg id="Layer_1" data-name="Layer 1" xmlns="http://www.w3.org/2000/svg" viewBox="0 0 709.26 645.2"><defs><style>.cls-1{fill:#e7f3ff;}.cls-2{fill:#2b444e;}.cls-3{fill:#e1e1e1;}.cls-4{fill:#9fc9ff;}.cls-5{fill:#16282d;}.cls-6{fill:#dcdcdc;}.cls-7{fill:#8ab887;}.cls-8{fill:#c0e5c0;}.cls-9{fill:#cce3ff;}.cls-10,.cls-23,.cls-24,.cls-39{fill:none;}.cls-10,.cls-24,.cls-25,.cls-39{stroke:#fff;}.cls-10,.cls-23,.cls-24,.cls-25,.cls-39{stroke-miterlimit:10;}.cls-11{fill:#fff;}.cls-12{fill:#1a2e36;}.cls-13{fill:#f96755;}.cls-14{fill:#f4f8fc;}.cls-15{fill:#c26358;}.cls-16{fill:#1a2e35;}.cls-17{fill:#ffbf9d;}.cls-18{fill:#ffaba1;}.cls-19{fill:#0b0950;}.cls-20{fill:#6f7be4;}.cls-21{fill:#203391;}.cls-22{fill:#fa7166;}.cls-23{stroke:#1a2e36;}.cls-24{stroke-width:0.75px;}.cls-25{fill:#223c44;}.cls-26{fill:#385b64;}.cls-27{fill:#333;}.cls-28{fill:#d1945d;}.cls-29{fill:#c18859;}.cls-30{fill:#2b454e;}.cls-31{fill:#1d343a;}.cls-32{fill:#dd9373;}.cls-33{fill:#89705d;}.cls-34{fill:#c17e67;}.cls-35{fill:#385962;}.cls-36,.cls-37{fill:#152428;}.cls-37{opacity:0.74;}.cls-38{fill:#91b3fa;}.cls-39{stroke-width:3px;}.cls-40{fill:#a8a8a8;}.cls-41{fill:#375a64;}.cls-42{fill:#3d6a75;}</style></defs><title>logoillusztracio2</title><path class="cls-1" d="M645.12,641.46c13.93-9.18,39.27-26.37,42.74-52.49,3.41-25.76-17.93-33.78-20.21-62.57-3.06-38.79,33.81-48.34,43.52-93.48,9.81-45.62-17-86.19-25.65-99.24-27-40.92-54.15-40.21-111.12-83.42C501,194.57,567.15,156.78,513,124.72S322.45,88.78,262.8,121.53c-36.75,20.18-21.49,37.41-87.81,114.34-48.22,55.94-70.45,63.27-82.37,102.84C89.54,348.93,74.35,399.38,102,438c24.3,34,59,26.94,71.49,56.81,13,31.18-19.36,52-13.21,87.73,6.82,39.66,55.17,63.29,88.58,79.11C403.64,734.89,577.05,686.33,645.12,641.46Z" transform="translate(-85.68 -98.75)"/><rect class="cls-2" x="299.11" y="499.13" width="72.64" height="5.35"/><rect class="cls-3" x="368.79" y="99.59" width="39.7" height="152.03" rx="11.49"/><path class="cls-4" d="M778.37,173.84H524.12a17.29,17.29,0,0,0-17.29,17.29v244a20.86,20.86,0,0,0,20.87,20.86H773.14A20.86,20.86,0,0,0,794,435.08V189.48A15.63,15.63,0,0,0,778.37,173.84Z" transform="translate(-85.68 -98.75)"/><path class="cls-5" d="M234.66,428.44s2.11,8.64,3.9,17.68,9.6,27.65,10.35,27.81-3.29-20-6.11-28.66-6.24-17.21-6.24-17.21Z" transform="translate(-85.68 -98.75)"/><polygon class="cls-6" points="148.83 329.52 150.01 335.54 153.19 334.58 151.01 328.95 148.83 329.52"/><path class="cls-5" d="M234.51,428.27c-2.29-4.08-1.3-9.3-1.3-9.3s4.29,3.74,3.48,8.73Z" transform="translate(-85.68 -98.75)"/><path class="cls-7" d="M100.43,541a9.63,9.63,0,0,0,1.26,1.08l3.74,2.9c1.64,1.23,3.64,2.76,5.9,4.61s4.9,3.86,7.68,6.26c5.65,4.68,12.17,10.51,19.18,17.22s14.38,14.44,21.75,22.87,13.91,16.88,19.64,24.71S190.12,635.75,194,642c2,3.08,3.64,6,5.14,8.47s2.75,4.68,3.75,6.47l2.35,4.11a9,9,0,0,0,.9,1.4,9.33,9.33,0,0,0-.68-1.51l-2.15-4.22c-.94-1.84-2.12-4.06-3.58-6.59s-3-5.47-5-8.58c-3.77-6.33-8.58-13.66-14.22-21.6s-12.28-16.35-19.63-24.85S146,579,139,572.22s-13.68-12.46-19.42-17.07c-2.82-2.37-5.49-4.35-7.81-6.14s-4.34-3.27-6-4.45l-3.88-2.72A7.53,7.53,0,0,0,100.43,541Z" transform="translate(-85.68 -98.75)"/><path class="cls-8" d="M139.63,575.68a27.51,27.51,0,0,0-17.8-5.21c-2.15.14-4.57.72-5.61,2.61-1.39,2.51.54,5.6,2.77,7.41A20.26,20.26,0,0,0,132.43,585c4.82-.19,8.6-1.35,12.09-4.68" transform="translate(-85.68 -98.75)"/><path class="cls-8" d="M164.38,601.57c-5.74-4.79-16.38-9.84-23.86-10A8.75,8.75,0,0,0,137,592a3.6,3.6,0,0,0-2.29,2.51c-.32,1.66.91,3.2,2.16,4.34a29.13,29.13,0,0,0,30.2,5.25" transform="translate(-85.68 -98.75)"/><path class="cls-8" d="M184.19,627.61a42.27,42.27,0,0,0-21.27-6.17c-1.75,0-3.69.13-4.91,1.38-1.86,1.9-1,5.19.73,7.22,3.54,4.17,9.47,5.33,14.93,5.61,5.89.3,14.19-2,14.19-2" transform="translate(-85.68 -98.75)"/><path class="cls-8" d="M196.43,646.09c-5.44-2.45-11.32-4.23-17.29-4.12a8.55,8.55,0,0,0-3.78.75,3.6,3.6,0,0,0-2.06,3.07c0,2.09,2.3,3.35,4.3,4a33.46,33.46,0,0,0,20.75.34" transform="translate(-85.68 -98.75)"/><path class="cls-8" d="M191.41,635.05a131.19,131.19,0,0,1,3.81-23.64c.31-1.21.81-2.6,2-3a2.53,2.53,0,0,1,2.56.95,6.44,6.44,0,0,1,1.09,2.66c2.13,9.35-.9,20-7.11,27.31" transform="translate(-85.68 -98.75)"/><path class="cls-8" d="M174.31,611.83q.74-10.37,1.46-20.72a15.92,15.92,0,0,1,1.15-5.78,5.41,5.41,0,0,1,4.54-3.31,5.33,5.33,0,0,1,4.54,3.29,13.85,13.85,0,0,1,.95,5.79A38.87,38.87,0,0,1,185,605c-1.62,4.41-3.49,7.86-7.67,10" transform="translate(-85.68 -98.75)"/><path class="cls-8" d="M154.05,586.41a45.86,45.86,0,0,1-.69-23.91,7.73,7.73,0,0,1,1.65-3.64c1.86-1.94,5.22-1.62,7.39,0a10.9,10.9,0,0,1,4.06,7.81,23.1,23.1,0,0,1-1.27,8.93,53.2,53.2,0,0,1-7.38,14.93" transform="translate(-85.68 -98.75)"/><path class="cls-8" d="M133.09,566.68c-4.34-8.33-4.86-17.46-4.64-26.85.05-2,.42-4.31,2.19-5.2a3.79,3.79,0,0,1,3.61.33,8.89,8.89,0,0,1,2.58,2.74,28.76,28.76,0,0,1-.37,31.76" transform="translate(-85.68 -98.75)"/><path class="cls-8" d="M121.61,557.6a77.19,77.19,0,0,0-7.93-12A25.7,25.7,0,0,0,102,537.4a11.08,11.08,0,0,0-6.11-.35,6.05,6.05,0,0,0-4.34,4,6.38,6.38,0,0,0,1.35,5.38,16.48,16.48,0,0,0,4.4,3.64c7.75,4.86,17.93,9.1,24.28,7.5" transform="translate(-85.68 -98.75)"/><path class="cls-7" d="M219.89,504.23a8.68,8.68,0,0,0,.06,1.66c.11,1.2.24,2.77.41,4.72s.43,4.54.6,7.46.49,6.22.61,9.89c.39,7.33.52,16.07.35,25.78s-.88,20.35-2.08,31.49-3,21.66-4.84,31.19-4,18-6,25.08c-.91,3.56-1.92,6.72-2.74,9.52s-1.58,5.2-2.22,7.15l-1.42,4.51a8,8,0,0,0-.42,1.6,7.91,7.91,0,0,0,.65-1.52c.41-1.13,1-2.6,1.64-4.44s1.55-4.3,2.42-7.09,1.95-5.94,2.92-9.5c2.09-7.05,4.22-15.56,6.24-25.09s3.69-20.11,5-31.28,1.79-21.87,2-31.6-.11-18.51-.62-25.85c-.16-3.68-.53-7-.78-9.9s-.54-5.42-.81-7.45-.47-3.51-.63-4.7A8.58,8.58,0,0,0,219.89,504.23Z" transform="translate(-85.68 -98.75)"/><path class="cls-8" d="M220.94,556.59A27.44,27.44,0,0,0,212.7,540c-1.56-1.5-3.63-2.88-5.72-2.36-2.79.68-3.75,4.19-3.57,7a20.32,20.32,0,0,0,5.82,12.91c3.41,3.42,6.83,5.41,11.64,5.72" transform="translate(-85.68 -98.75)"/><path class="cls-8" d="M218.68,592.33c-.37-7.46-3.87-18.71-8.8-24.33a8.71,8.71,0,0,0-2.69-2.26,3.62,3.62,0,0,0-3.4,0c-1.44.89-1.73,2.84-1.72,4.54A29.12,29.12,0,0,0,218.67,596" transform="translate(-85.68 -98.75)"/><path class="cls-8" d="M213,624.55a42.23,42.23,0,0,0-9.88-19.82c-1.17-1.31-2.6-2.62-4.35-2.68-2.65-.08-4.48,2.8-4.8,5.44-.67,5.43,2.49,10.57,6,14.78,3.77,4.53,11.11,9.06,11.11,9.06" transform="translate(-85.68 -98.75)"/><path class="cls-8" d="M207.69,646.08c-1.89-5.67-4.57-11.19-8.7-15.5a8.48,8.48,0,0,0-3.11-2.28,3.58,3.58,0,0,0-3.65.57c-1.51,1.45-.9,4,0,5.85A33.42,33.42,0,0,0,206,650.21" transform="translate(-85.68 -98.75)"/><path class="cls-8" d="M212.4,634.9a130.74,130.74,0,0,1,20-13.22c1.1-.59,2.45-1.17,3.53-.55a2.5,2.5,0,0,1,1,2.53,6.36,6.36,0,0,1-1.21,2.61c-5.43,7.9-15.32,12.89-24.9,13.28" transform="translate(-85.68 -98.75)"/><path class="cls-8" d="M217.87,606.59l16.23-13a15.69,15.69,0,0,1,5-3.08,5.39,5.39,0,0,1,5.51,1.1,5.33,5.33,0,0,1,.66,5.56,14,14,0,0,1-3.61,4.63,38.84,38.84,0,0,1-11.52,8c-4.33,1.8-8.13,2.76-12.53,1.13" transform="translate(-85.68 -98.75)"/><path class="cls-8" d="M222.83,574.46a45.93,45.93,0,0,1,17.1-16.71,7.66,7.66,0,0,1,3.8-1.25c2.69,0,4.73,2.73,5,5.4a10.89,10.89,0,0,1-3,8.29,22.79,22.79,0,0,1-7.42,5.11,52.81,52.81,0,0,1-16,4.7" transform="translate(-85.68 -98.75)"/><path class="cls-8" d="M223.12,545.68c3.19-8.84,9.54-15.41,16.6-21.61,1.49-1.31,3.45-2.62,5.31-1.92a3.82,3.82,0,0,1,2.2,2.88,8.83,8.83,0,0,1-.27,3.75A28.75,28.75,0,0,1,223.36,550" transform="translate(-85.68 -98.75)"/><path class="cls-8" d="M222,531.09a76.28,76.28,0,0,0,3.46-14A25.68,25.68,0,0,0,223.59,503a11.06,11.06,0,0,0-3.88-4.72,6,6,0,0,0-5.9-.46,6.34,6.34,0,0,0-3,4.64,16.12,16.12,0,0,0,.3,5.7c1.68,9,5.46,19.35,11,22.94" transform="translate(-85.68 -98.75)"/><path class="cls-8" d="M700.34,554.86c7.41-.17,14.58,2.83,20.63,7.12,3.25,2.31,6.42,5.16,7.53,9s-.71,8.72-4.58,9.66c-2.31.55-4.7-.36-6.82-1.42-5.12-2.57-10.39-6.26-16-5.16-3.21.62-6.2,2.8-9.43,2.3s-5.47-3.61-5.72-6.8a12.59,12.59,0,0,1,3.25-8.77A14.21,14.21,0,0,1,700.34,554.86Z" transform="translate(-85.68 -98.75)"/><path class="cls-8" d="M699.52,522.05c1.11,6.93,9,8.65,13.79,7.08s8.41-5.47,11.79-9.22c7.73-8.58,15.72-17.63,18.53-28.83a18.88,18.88,0,0,0,.14-10.22c-1-3.29-3.66-6.23-7-6.9-4-.79-7.91,1.61-11.11,4.14a81.09,81.09,0,0,0-22.45,27.79c-2.47,5-4.45,10.61-3.64,16.16" transform="translate(-85.68 -98.75)"/><path class="cls-8" d="M686,524.62c6.21-2.75,10.27-9.19,11.37-15.89s-.44-13.61-3-19.89a61.48,61.48,0,0,0-13.09-19.79,21.82,21.82,0,0,0-7.58-5.43c-2.94-1.1-6.46-1-9,.82-3.73,2.75-4.06,8.12-3.83,12.75A156,156,0,0,0,664,501.45c1.35,6.42,3.25,13,7.74,17.83s10.33,7.34,15.12,4.94" transform="translate(-85.68 -98.75)"/><path class="cls-7" d="M661.26,600a12.08,12.08,0,0,0,1.48-2.19c1-1.63,2.25-3.68,3.75-6.11a101.45,101.45,0,0,1,6-8.71,80.47,80.47,0,0,1,8.83-9.44,45.47,45.47,0,0,1,10.57-7.29A23.46,23.46,0,0,1,702,563.77a22.23,22.23,0,0,1,7,1.06,12.91,12.91,0,0,0,2.51.8,11.9,11.9,0,0,0-2.37-1.2A20.51,20.51,0,0,0,702,563a23.65,23.65,0,0,0-10.5,2.33,44.84,44.84,0,0,0-10.87,7.39,75.36,75.36,0,0,0-8.89,9.64,87.6,87.6,0,0,0-5.9,8.92c-1.53,2.63-2.68,4.8-3.46,6.3A12.41,12.41,0,0,0,661.26,600Z" transform="translate(-85.68 -98.75)"/><path class="cls-7" d="M664.11,595.26a5,5,0,0,0,.6-1.06c.39-.82.89-1.86,1.51-3.13,1.31-2.71,3.22-6.62,5.72-11.39,4.95-9.56,10.86-19.57,19.62-33.47,8.24-13.06,18.11-28.13,25.36-37.53,1.62-2.15,3.13-4.06,4.48-5.72s2.48-3.11,3.46-4.26l2.2-2.67a4.72,4.72,0,0,0,.72-1,5.6,5.6,0,0,0-.88.84l-2.36,2.55c-1,1.1-2.23,2.51-3.61,4.15s-2.95,3.51-4.61,5.63a392.53,392.53,0,0,0-24.24,34.48c-8.78,13.93-16,27-20.82,36.64-2.42,4.82-4.23,8.8-5.43,11.57-.54,1.3-1,2.37-1.32,3.21A5,5,0,0,0,664.11,595.26Z" transform="translate(-85.68 -98.75)"/><path class="cls-7" d="M676.76,569.45a22.54,22.54,0,0,0,1.56-3.27c.9-2.15,2.09-5.32,3.31-9.31A131.17,131.17,0,0,0,685,542.6a116,116,0,0,0,2-17.84c.7-12.76-1.15-24.36-3.81-32.29a46.33,46.33,0,0,0-2-5.27c-.33-.76-.6-1.48-.93-2.11s-.66-1.18-1-1.7a22.35,22.35,0,0,0-1.89-3.09c-.26.13,2.63,4.48,5.09,12.4a95.32,95.32,0,0,1,3.47,32A134.51,134.51,0,0,1,684,542.43a143.58,143.58,0,0,1-3.15,14.22c-1.11,4-2.18,7.19-3,9.38A22.48,22.48,0,0,0,676.76,569.45Z" transform="translate(-85.68 -98.75)"/><rect class="cls-9" x="415.24" y="70.87" width="287.17" height="282.1" rx="24.7"/><line class="cls-10" x1="421.81" y1="238.85" x2="490.73" y2="339.6"/><rect class="cls-11" x="506.1" y="336.05" width="3.8" height="3.95" transform="translate(414.47 -370.86) rotate(55.62)"/><rect class="cls-11" x="575.3" y="437.36" width="3.8" height="3.95" transform="translate(528.21 -383.87) rotate(55.62)"/><rect class="cls-11" x="540.6" y="385.7" width="7.84" height="8.15" transform="translate(473.08 -378.47) rotate(55.62)"/><path class="cls-12" d="M435.71,70.87H683.9a18.51,18.51,0,0,1,18.51,18.51v6.83a0,0,0,0,1,0,0H415.24a0,0,0,0,1,0,0V91.34A20.47,20.47,0,0,1,435.71,70.87Z"/><circle class="cls-13" cx="439.31" cy="83.12" r="7.18"/><circle class="cls-3" cx="461.44" cy="83.39" r="5.22"/><circle class="cls-14" cx="499.72" cy="83.66" r="5.22"/><circle class="cls-13" cx="481.14" cy="83.66" r="5.22"/><path class="cls-15" d="M487.34,386.45s14.4-3,15.16-2.93.65,1.18.6,2a7.65,7.65,0,0,1-.55,1.44c-1,2.21-2.62,6.16.36,6.88,3.91.94,7.6-7.93,8-9.41a4.76,4.76,0,0,0-.22-2c-.65-2.34-2.48-5.7-5.33-6.44-3.9-1-8.25-.25-12.07.15Z" transform="translate(-85.68 -98.75)"/><path class="cls-16" d="M487.34,386.45s14.4-3,15.16-2.93.65,1.18.6,2a7.65,7.65,0,0,1-.55,1.44c2.88-1.6,6.07-3.38,8.1-4.53-.65-2.34-2.48-5.7-5.33-6.44-3.9-1-8.25-.25-12.07.15Z" transform="translate(-85.68 -98.75)"/><path class="cls-17" d="M484.81,406.62c.73-.45,7.6-3.26,12.78-5.37,1.2-4.15,4.56-12.15,5.44-14.27.57-2.52,3.24-7.59,3.48-7.49.43.18,2,.83,3.93,1.47,2.57.84,5.83,1.68,8.11,1.41a2.93,2.93,0,0,0,2.6-1.58c.74-1.73-3-3.5-7.21-6-5.76-3.37-13-7.2-16.39-6-5,1.77-9.68,8.25-11.29,10s-9.58,7.77-9.58,7.77C475,399.43,483.82,407.2,484.81,406.62Z" transform="translate(-85.68 -98.75)"/><path class="cls-18" d="M418.22,406.08c6.9,6,34.25,23.56,42.43,20.61,12.81-4.63,24.87-14.77,31.61-20.14,2.15-1.7-15-22-18.72-18.25-4.83,4.84-15.36,12.79-18.65,14.23-2.25,1-20.1-3.77-32.54-7C412,392.86,409.47,398.53,418.22,406.08Z" transform="translate(-85.68 -98.75)"/><path class="cls-16" d="M451.61,400.74s3.12,3.66,10.19-2.68l12.44-10.6,19.17,17.91-31.05,8.38Z" transform="translate(-85.68 -98.75)"/><path class="cls-16" d="M437.64,421.47S458,442.32,493.58,405l-6.83-5.88Z" transform="translate(-85.68 -98.75)"/><polygon class="cls-19" points="456.77 292.51 444.7 296.6 440.46 292.3 442.09 285.44 447.81 283.51 456.77 292.51"/><rect class="cls-20" x="522.49" y="386.44" width="7.05" height="1.92" transform="translate(938.89 -133.51) rotate(103.37)"/><rect class="cls-20" x="531.29" y="387.92" width="1.92" height="1.92" transform="translate(948.01 -137.75) rotate(103.37)"/><path class="cls-19" d="M526,383.77l-37.24-7s-3.59.95-.91,3.24,36.54,10.78,36.54,10.78" transform="translate(-85.68 -98.75)"/><path class="cls-17" d="M497.59,401.25c1.77-.72,3.36-1.34,4.45-1.73a13.66,13.66,0,0,0,7.78-6.42c1.59-2.65,10.32-5.86,5.86-8.31s-11.84,4.53-12.65,3.44c-.16-.2-.14-.65,0-1.25C502.15,389.1,498.79,397.1,497.59,401.25Z" transform="translate(-85.68 -98.75)"/><path class="cls-17" d="M503.52,385.41c.06-.11.12-.06.08.07-.13.41-.66,2.23-.26,2.4.7.31,4.64-2.11,6.48-2.83.1,0,.16.1.06.13a29.69,29.69,0,0,0-2.67,1.45c-.83.48-3.26,2.09-4.14,1.71C502.48,388.09,503.3,385.82,503.52,385.41Z" transform="translate(-85.68 -98.75)"/><line class="cls-10" x1="447.52" y1="290.31" x2="457.24" y2="292.62"/><ellipse class="cls-9" cx="348.94" cy="603.82" rx="261.41" ry="41.39"/><path class="cls-21" d="M605.9,528" transform="translate(-85.68 -98.75)"/><polygon class="cls-22" points="410.17 539.63 410.17 542.1 410.16 539.63 410.17 539.63"/><rect class="cls-12" x="365.41" y="97.05" width="39.7" height="152.03" rx="11.49"/><polygon class="cls-11" points="382.75 135.06 382.3 147.73 386.34 144.48 391.35 144.11 382.75 135.06"/><polygon class="cls-10" points="382.76 113.75 382.34 125.57 386.11 122.54 390.78 122.19 382.76 113.75"/><polygon class="cls-11" points="382.21 167.47 390.74 164.41 391.2 160.14 387.26 157.04 383.21 158.5 382.21 167.47"/><rect class="cls-12" x="471.83" y="259.7" width="1.37" height="1.37" transform="translate(176.31 -335.11) rotate(38.17)"/><line class="cls-23" x1="386.39" y1="162.16" x2="381.99" y2="167.74"/><rect class="cls-11" x="474.06" y="254.63" width="4.78" height="2.05" transform="translate(174.22 -338.55) rotate(38.17)"/><polygon class="cls-11" points="382.06 187.6 390.58 184.54 391.04 180.27 387.1 177.17 383.06 178.63 382.06 187.6"/><rect class="cls-12" x="471.68" y="279.83" width="1.37" height="1.37" transform="translate(188.72 -330.7) rotate(38.17)"/><line class="cls-23" x1="386.23" y1="182.28" x2="381.84" y2="187.87"/><rect class="cls-11" x="473.91" y="274.76" width="4.78" height="2.05" transform="translate(186.63 -334.15) rotate(38.17)"/><path class="cls-24" d="M460.38,275.2s4.22-.85,4.22,2.53-1.69,5.07,2.54,8.45" transform="translate(-85.68 -98.75)"/><rect class="cls-25" x="380.19" y="197.98" width="13.51" height="10.98"/><path class="cls-11" d="M468,325.87l6.25-7.81a1.93,1.93,0,0,1,1.78-.74,1.38,1.38,0,0,1,1,.65,1.52,1.52,0,0,1-.19,1.71l-6.3,7.88L468,325.87" transform="translate(-85.68 -98.75)"/><path class="cls-11" d="M467.14,327.56s-1.69,0-2.54,2.54a2.61,2.61,0,0,1-3.37,1.69,9.59,9.59,0,0,0,6.82-.49,2,2,0,0,0-.84-3.74Z" transform="translate(-85.68 -98.75)"/><polygon class="cls-26" points="317.93 454.58 315.16 471.94 288.36 614.68 280.53 614.68 301.64 472.78 303.88 454.58 317.93 454.58"/><path class="cls-26" d="M477.7,713.43h-7.84l-26.8-139.84c-.37-1.94-.59-4.32-.84-6.28l-1.94-14h14.05l2.25,17.36Z" transform="translate(-85.68 -98.75)"/><polygon class="cls-2" points="300.8 478.69 313.47 480.38 318.05 454.58 304.18 454.2 300.8 478.69"/><polygon class="cls-2" points="371.75 478.69 358.23 478.69 354.52 454.58 368.37 454.2 371.75 478.69"/><rect class="cls-26" x="294.96" y="436.91" width="86.02" height="17.82"/><path class="cls-17" d="M609.28,674.24c-2.69,1.17-82,8.08-85.23,6.43-1.21-.62-2.89-12.11-4.53-26.06-.35-3-.7-6.13-1-9.29-2.19-20.54-4-42.38-4-42.38l53.06-4.77,2.58,42.5.58,9.33s31.56,11,34.87,13.13S612,673.07,609.28,674.24Z" transform="translate(-85.68 -98.75)"/><path class="cls-11" d="M609.28,674.24c-2.69,1.17-82,8.08-85.23,6.43-1.47-.76-3.65-17.57-5.56-35.35l51.6-4.65.58,9.33s31.56,11,34.87,13.13S612,673.07,609.28,674.24Z" transform="translate(-85.68 -98.75)"/><path class="cls-27" d="M609.28,674.24c-2.69,1.17-82.78,7-86,5.4-1.22-.62-2.15-11.08-3.79-25L570.67,650s31.56,11,34.87,13.13S612,673.07,609.28,674.24Z" transform="translate(-85.68 -98.75)"/><path class="cls-16" d="M607.87,671.17c-13.33.83-67,5.44-80.12,7.28-.11,0-.11.08,0,.08,13.23-.54,66.88-5.58,80.14-7.14C608.17,671.35,608.15,671.15,607.87,671.17Z" transform="translate(-85.68 -98.75)"/><path class="cls-11" d="M600.19,660.72a10.74,10.74,0,0,0-7.68,3.94,10.38,10.38,0,0,0-2.35,7.36c0,.08.15.07.16,0a12.38,12.38,0,0,1,9.88-11.12A.09.09,0,0,0,600.19,660.72Z" transform="translate(-85.68 -98.75)"/><path class="cls-11" d="M575.94,650.88c-5.33.39-11.34,2.8-14.26,7.44-.12.18.14.34.29.25a74.18,74.18,0,0,1,14.12-7.05A.33.33,0,0,0,575.94,650.88Z" transform="translate(-85.68 -98.75)"/><path class="cls-11" d="M580.19,652.12c-5.33.39-11.34,2.81-14.27,7.45-.11.18.15.34.3.24a74.13,74.13,0,0,1,14.12-7A.34.34,0,0,0,580.19,652.12Z" transform="translate(-85.68 -98.75)"/><path class="cls-11" d="M584.44,653.37c-5.33.39-11.34,2.8-14.27,7.44-.11.18.15.34.3.25a73.88,73.88,0,0,1,14.12-7A.33.33,0,0,0,584.44,653.37Z" transform="translate(-85.68 -98.75)"/><path class="cls-11" d="M588.69,654.61c-5.33.39-11.34,2.81-14.27,7.45-.11.18.15.34.3.24a73.26,73.26,0,0,1,14.12-7A.34.34,0,0,0,588.69,654.61Z" transform="translate(-85.68 -98.75)"/><path class="cls-17" d="M512.11,711c-2.93.18-79.85-20.5-82.28-23.14-.93-1,1.43-12.38,4.67-26,.7-3,1.44-6,2.2-9.08,5-20,10.71-41.2,10.71-41.2l51.49,13.69L486.78,666l-2.66,9S510,696,512.39,699.22,515,710.77,512.11,711Z" transform="translate(-85.68 -98.75)"/><path class="cls-11" d="M512.11,711c-2.93.18-79.85-20.5-82.28-23.14-1.13-1.22,2.59-17.77,6.87-35.13L486.78,666l-2.66,9S510,696,512.39,699.22,515,710.77,512.11,711Z" transform="translate(-85.68 -98.75)"/><path class="cls-28" d="M396.56,309.82s-16.88-3.22-20.89,12.86-22.51,48.22-22.51,48.22l20.09-16.07" transform="translate(-85.68 -98.75)"/><path class="cls-28" d="M394.15,310.62s10.45-3.21,16.08,1.61,10.69,16.45,7.76,36.36" transform="translate(-85.68 -98.75)"/><path class="cls-28" d="M412.58,322.34s4.08,26.06,16.94,41.33,7.33,30.24,7.33,30.24l-1-1s4.89-14-7.17-28.46-15.47-37.41-15.47-37.41" transform="translate(-85.68 -98.75)"/><path class="cls-29" d="M410.23,402.25s8,4,20.9-8-29.62-11-29.62-11Z" transform="translate(-85.68 -98.75)"/><polygon class="cls-28" points="294 228.75 282.75 265.72 333.39 276.17 334.19 256.88 331.78 240.81 327.76 220.71 318.92 215.89 313.29 213.48 294.81 223.93 294 228.75"/><path class="cls-30" d="M354.2,466.46c-9.12,19.78-5.23,43.24,10.57,58.25.46.44.93.88,1.42,1.32,28.93,26.53,93.23,18.49,93.23,18.49s-2.38,17.68-4,31.34-24.92,69.93-24.92,69.93L494,657s33-67.51,19.29-102.88S426.5,498.7,426.5,498.7s3.22-17.68-4-31.34c0,0-24.91,8-65.91-8A29.67,29.67,0,0,1,354.2,466.46Z" transform="translate(-85.68 -98.75)"/><path class="cls-30" d="M422.48,467.36l88.08,21.07a37.56,37.56,0,0,1,17.74,9.71,26.76,26.76,0,0,1,7.51,12.62c3.22,13.66,45,125.39,45,125.39l-64.3,5.62s-20.09-65.1-17.68-100.47L426.5,498.7S412.84,480.22,422.48,467.36Z" transform="translate(-85.68 -98.75)"/><path class="cls-16" d="M516.52,641.77S491.61,559,496.43,536.48c0,0-90.06,27.33-127.83-8,0,0,41,33,131,1.61,0,0-4.89,29.67,26.49,110.88Z" transform="translate(-85.68 -98.75)"/><path class="cls-16" d="M524.56,663.47" transform="translate(-85.68 -98.75)"/><path class="cls-16" d="M526.17,628.91s17.68,4,43.4-1.6c0,0-16.88,8.84-41,6.43Z" transform="translate(-85.68 -98.75)"/><path class="cls-16" d="M542.24,659.46" transform="translate(-85.68 -98.75)"/><path class="cls-16" d="M459.42,544.52s-15.27,66.71-28.93,101.27l8.91,1.58s24-61.4,24.8-103.83Z" transform="translate(-85.68 -98.75)"/><path class="cls-31" d="M492.51,537.58s3.89,72.85-25.05,113l-.84,1.58L494,657s13.3-30.27,15.49-40.45c0,0-15.49-52.78-13.07-80.11Z" transform="translate(-85.68 -98.75)"/><path class="cls-16" d="M440.22,630.72s15.4,9.56,41.55,12.63c0,0-18.84,2.85-40.85-7.29Z" transform="translate(-85.68 -98.75)"/><path class="cls-18" d="M407,366.55c24.48,18.89,46.75,40.51,49.38,53.22,1.65,8-4.48,20.84-9,28.43-2.18,3.7-36.74-18.44-33.05-21.16,9.14-6.73,10.94-9.77,10.42-11.56-.34-1.14-25.26-32.11-31.47-45.17C384.71,352.12,396.33,358.28,407,366.55Z" transform="translate(-85.68 -98.75)"/><path class="cls-16" d="M351.55,443.24c4.82-1.6,64,11.27,64.83,10.52,1.11-1.05-6.13-74.68-17.47-92.9-2.83-4.55-16.17-7.94-22.14-1.75C353.67,383,350.61,443.56,351.55,443.24Z" transform="translate(-85.68 -98.75)"/><path class="cls-18" d="M393.7,461.12c3.17,2.62,8.95-5.74,8.95-5.74a7.55,7.55,0,0,0,1.25,5c1.86,2.5,6.61.68,6.61.68a9.37,9.37,0,0,0,2.16,5.07c2,2.22,7.07,1.07,7.07,1.07a8.24,8.24,0,0,0,4.71,3.25c5.15,1.1,10.73-4.69,14.32-8.33s10.35-17.32,11.91-19.8l-23.17-23.23s-20.73,11.75-24.34,16.63C400.13,439.83,388.85,457.13,393.7,461.12Z" transform="translate(-85.68 -98.75)"/><path class="cls-16" d="M402.61,455.24c2.19-5.15,5.6-9.76,8.94-14.18a.1.1,0,0,1,.16.12c-3.38,4.35-5.67,9.71-8.87,14.19C402.76,455.49,402.56,455.38,402.61,455.24Z" transform="translate(-85.68 -98.75)"/><path class="cls-16" d="M410.28,460.69a15,15,0,0,1,2.24-3.09c.87-1,1.76-2.05,2.66-3.06q2.7-3,5.56-5.9c.09-.08.24,0,.15.12-1.79,2-3.56,4-5.27,6.13-.85,1-1.7,2.09-2.54,3.15a17.17,17.17,0,0,1-2.51,2.87A.19.19,0,0,1,410.28,460.69Z" transform="translate(-85.68 -98.75)"/><path class="cls-16" d="M419.82,467.11a10.23,10.23,0,0,1,2.16-2.67c.85-.9,1.68-1.8,2.51-2.71,1.67-1.82,3.33-3.64,4.93-5.52.08-.09.23,0,.15.12-1.62,1.91-3.2,3.85-4.84,5.75-.8.93-1.6,1.86-2.41,2.78a9.73,9.73,0,0,1-2.41,2.34A.07.07,0,0,1,419.82,467.11Z" transform="translate(-85.68 -98.75)"/><path class="cls-18" d="M372,361.08c-37.77,19-72.78,48.52-72,60,.83,12.14,25.05,24.75,44.87,31.06,4.06,1.29,18.86-22.36,14.85-24.53-3.12-1.69-17.44-8.7-18.87-11.09-1-1.67,28.36-30.39,39.08-46.22C391.09,353.73,382.06,356,372,361.08Z" transform="translate(-85.68 -98.75)"/><path class="cls-17" d="M351.27,425.14s12.46,3.57,20.5,6.28c4.49,1.51,12,4.79,14.73,7.41,4.17,3.92,19.1,23,14.56,26.69-4.11,3.37-8.1-3.85-8.1-3.85s5.1,7.48,0,9.57-9.43-7.81-9.43-7.81,6,7.57.3,9.28c-4.91,1.48-11.08-9.4-11.08-9.4s7.14,7.26,2.25,9.27c-3.71,1.53-10.21-5.16-13.91-9.48a28.2,28.2,0,0,0-7.13-6c-8.64-5.14-15.32-9.82-20-14.49C332.91,441.59,351.27,425.14,351.27,425.14Z" transform="translate(-85.68 -98.75)"/><path class="cls-16" d="M381.69,356.31s2.42-.91,2.42,7.23c0,11.68-40.65,49.24-40.65,49.24s-6.11,5,20.37,14.93c0,0-4.73,18.8-18,24.33-10.31,4.31-35-13.85-44.93-21.66-6.14-4.79-6.61-12.62-2-18.9.34-.47.71-.94,1.12-1.42C308.17,400.56,367.66,358.42,381.69,356.31Z" transform="translate(-85.68 -98.75)"/><path class="cls-16" d="M399.12,361.19s48.41,32.48,56.1,54.93l-30.31-.63-16.46-20.21S404.55,374.77,399.12,361.19Z" transform="translate(-85.68 -98.75)"/><path class="cls-5" d="M346.52,409.93s-9,5.06-14.66,3.45a11.26,11.26,0,0,0,12.57,4S341.08,413.72,346.52,409.93Z" transform="translate(-85.68 -98.75)"/><path class="cls-5" d="M351.51,405.16s14.94-9,19.77-20.28Z" transform="translate(-85.68 -98.75)"/><path class="cls-5" d="M382.5,355.51s4.74,7.52-2.45,17.82-8.34,10.43-7.37,9.56,10.13-15.51,6.6-25.78l3.22-1.6" transform="translate(-85.68 -98.75)"/><path class="cls-5" d="M371.28,384.88s-18.52,26.09-7.27,43c0,0-7.48-2.08-10.85-4.7l-2-17.81Z" transform="translate(-85.68 -98.75)"/><path class="cls-5" d="M303.63,431.37c2.7,1.94,10.73,5.41,28.23-2.72,0,0-7.72,11.26-21.3,9l-11.25-8.84.66.33A27.1,27.1,0,0,1,303.63,431.37Z" transform="translate(-85.68 -98.75)"/><path class="cls-5" d="M424.7,409.49s6,7.91,17.28.67l-6.14,5.56-10.74.07Z" transform="translate(-85.68 -98.75)"/><path class="cls-5" d="M399.17,361.83c6.22,10.34,10.27,34.67,10.27,34.67s11.64,14.47,12.44,15.27,5.29,1.66,5.29,1.66c-4.35-8-19.3-24.77-19.3-24.77" transform="translate(-85.68 -98.75)"/><path class="cls-5" d="M407.16,380.42" transform="translate(-85.68 -98.75)"/><path class="cls-5" d="M366,397.43s8,9.64,19.29,2.41c0,0-5.55,11-22.5-.8l-1.61-.81,3.94-6S364.41,395.82,366,397.43Z" transform="translate(-85.68 -98.75)"/><path class="cls-5" d="M361.75,401.67s15.52,10.23,23.56-1.83c0,0-8.12,10.37-22.5-1.61Z" transform="translate(-85.68 -98.75)"/><path class="cls-17" d="M392.42,370.53c-3.32-.42-9.1-7.78-10.87-13.44-.12-.39,1.15-4,2.5-8.39.8-2.68,1.63-5.69,2.19-8.49L403,348a45.73,45.73,0,0,0-3.85,10.42,7,7,0,0,0-.11,1.18,1.34,1.34,0,0,1,0,.19C398.91,362,397.63,371.2,392.42,370.53Z" transform="translate(-85.68 -98.75)"/><path class="cls-32" d="M399,359.59a1.15,1.15,0,0,0,0,.2,13.07,13.07,0,0,1-1.83-.27c-10.14-2.27-10.16-15.31-10-18.86L403,348a45.53,45.53,0,0,0-3.86,10.42A7.1,7.1,0,0,0,399,359.59Z" transform="translate(-85.68 -98.75)"/><path class="cls-17" d="M384.76,321.34c-2.11,6.3.75,24.74,5.15,29,6.39,6.11,17.1,7,22.35-.77,5.1-7.5.95-31.47-4-35.32C401,308.53,387.88,312,384.76,321.34Z" transform="translate(-85.68 -98.75)"/><path class="cls-16" d="M401.27,332.89s-.08.08-.07.13c.28,1.23.39,2.68-.64,3.3,0,0,0,.08,0,.07C401.91,335.93,401.74,334,401.27,332.89Z" transform="translate(-85.68 -98.75)"/><path class="cls-16" d="M399.92,331.82c-2,.23-1.39,4.24.47,4S401.61,331.62,399.92,331.82Z" transform="translate(-85.68 -98.75)"/><path class="cls-16" d="M408.22,331.59s.1,0,.11.09c.15,1.25.54,2.65,1.72,2.89,0,0,.05.07,0,.07C408.65,334.66,408.16,332.79,408.22,331.59Z" transform="translate(-85.68 -98.75)"/><path class="cls-16" d="M409.13,330.12c2-.46,2.75,3.52.92,3.95S407.47,330.5,409.13,330.12Z" transform="translate(-85.68 -98.75)"/><path class="cls-17" d="M388.28,336.41c.12-.05-3.72-6.11-6.81-4.51-2.74,1.41.35,10.09,3.51,11.29a3.22,3.22,0,0,0,4.32-1.7Z" transform="translate(-85.68 -98.75)"/><path class="cls-32" d="M382.4,333.55s-.06.06,0,.08c2.21.92,3.36,3,4.16,5.12a1.77,1.77,0,0,0-2.65-.51c-.06,0,0,.14.06.12a2,2,0,0,1,2.17.71,9.74,9.74,0,0,1,1,1.77c.1.2.46.09.39-.14,0,0,0,0,0-.05C387.61,337.83,385.44,333.85,382.4,333.55Z" transform="translate(-85.68 -98.75)"/><path class="cls-17" d="M411.18,347.29a1.69,1.69,0,0,0-1.7-1.82h-3.56c-2.57,0-7.33.7-7.44,1.24-.27,1.33-.27,6.47,10,3.9A3.79,3.79,0,0,0,411.18,347.29Z" transform="translate(-85.68 -98.75)"/><path class="cls-16" d="M407.59,345.57a7.5,7.5,0,0,1-6.77.48S404.52,350.25,407.59,345.57Z" transform="translate(-85.68 -98.75)"/><path class="cls-28" d="M384.79,332.51l3.74,3.83s-2.21-16.15,8.83-19.69a8,8,0,0,0,3.22-2h0a18.81,18.81,0,0,0,5.51,3.89,14.67,14.67,0,0,1,7.9,9.53c2.57,10.1,5.77,28.48.6,44.4L428.32,384l5.93,5s-2.32-18.13-9.55-29.38C421,354,417,334.14,416.18,325.54a18.45,18.45,0,0,0-5.62-11.69,15.78,15.78,0,0,0-14-4s-20.09,0-20.09,20.09-23.56,41.15-23.56,41.15,16.59-10.52,25.3-13.78c0,0,2.78-.53,3.74-1.89s3.36-11.81,3.36-11.81a12.38,12.38,0,0,1-4.89-9.75s.17-2.86,2.68-2.16A4,4,0,0,1,384.79,332.51Z" transform="translate(-85.68 -98.75)"/><path class="cls-21" d="M444.6,332.29" transform="translate(-85.68 -98.75)"/><path class="cls-21" d="M411.83,320.27" transform="translate(-85.68 -98.75)"/><path class="cls-29" d="M400,355.11a25.07,25.07,0,0,0-1.08,5.75s17,12.61,20.61,15.75c0,0-9.45-15.34-5.76-30.62C413.76,346,412.25,355.39,400,355.11Z" transform="translate(-85.68 -98.75)"/><path class="cls-33" d="M401.19,328.41a1.72,1.72,0,0,1,.78,2.35s-4.7-1.57-7.05.78l-1.57.78a8.81,8.81,0,0,1,3.92-3.13A13.77,13.77,0,0,1,401.19,328.41Z" transform="translate(-85.68 -98.75)"/><path class="cls-33" d="M406.65,327.64a1.38,1.38,0,0,0,.07,2s3.08-2.49,5.5-1.39l1.39.14a7,7,0,0,0-3.81-1.24A10.86,10.86,0,0,0,406.65,327.64Z" transform="translate(-85.68 -98.75)"/><path class="cls-33" d="M405.4,334.74s2.42,3.21,2.42,5.62-4,1.61-4,1.61,4,0,3.21-2.41Z" transform="translate(-85.68 -98.75)"/><path class="cls-28" d="M400.58,314.64a48.33,48.33,0,0,1-8.84,8c-4.82,3.21-3.27,13.17-3.27,13.17l-1.33-16.93Z" transform="translate(-85.68 -98.75)"/><path class="cls-29" d="M380.42,334.74s1.41,17.38-13.16,27.84c0,0,9.21-4.06,14.15-5.58l4.12-13.64S381.41,341.8,380.42,334.74Z" transform="translate(-85.68 -98.75)"/><path class="cls-34" d="M376.61,468.75S373,459.2,367.9,455c0,0,7.28,11.66,8.71,14.7Z" transform="translate(-85.68 -98.75)"/><path class="cls-34" d="M386.48,468.12s-3.64-9.55-8.71-13.77c0,0,7.28,11.66,8.71,14.7Z" transform="translate(-85.68 -98.75)"/><path class="cls-34" d="M392.39,461.36s-3.64-9.54-8.71-13.77c0,0,7.29,11.67,8.71,14.7Z" transform="translate(-85.68 -98.75)"/><rect class="cls-35" x="270.04" y="372.18" width="91.2" height="4.08"/><polygon class="cls-35" points="306.3 376.26 395.18 376.26 402.58 315.9 313.7 315.9 306.3 376.26"/><path class="cls-36" d="M399.15,414.44a3.07,3.07,0,0,1,3,2.4c.85,2.53-6.9,58.3-6.9,58.3l-5.6-.13" transform="translate(-85.68 -98.75)"/><path class="cls-5" d="M363.83,427.71s-3.8-20.59,10.27-22c0,0-5.36-.56-12.11-4.79C362,400.92,356.38,415.64,363.83,427.71Z" transform="translate(-85.68 -98.75)"/><path class="cls-16" d="M444.35,399.34s2.09,4.33,10.54,0l14.72-7.1,14,22.2-32.17.21Z" transform="translate(-85.68 -98.75)"/><path class="cls-5" d="M445.14,400.25s5.53,3.21,5.53,8.28c0,0,2.6-2.92.88-7.8C451.55,400.73,447.21,402.11,445.14,400.25Z" transform="translate(-85.68 -98.75)"/><polygon class="cls-5" points="338.6 315.9 335.34 312.01 337.96 312.31 340.93 314.57 341.78 315.9 338.6 315.9"/><path class="cls-16" d="M399.05,332.17c-.29.19-.57.53-.92.57s-.71-.3-1-.63c0,0-.06,0-.06,0,0,.64.25,1.29.93,1.38s1.07-.49,1.22-1.13C399.27,332.27,399.16,332.09,399.05,332.17Z" transform="translate(-85.68 -98.75)"/><path class="cls-16" d="M410,330.48c.28.19.57.53.91.57s.72-.3,1-.63c0,0,.05,0,.05,0,0,.63-.25,1.28-.93,1.37s-1.06-.49-1.22-1.13C409.74,330.58,409.84,330.41,410,330.48Z" transform="translate(-85.68 -98.75)"/><polygon class="cls-37" points="395.39 376.5 402.44 317.04 371 376.26 395.39 376.5"/><polygon class="cls-36" points="395.39 372.27 395.39 376.26 299.24 376.26 304.09 372.18 395.39 372.27"/><path class="cls-8" d="M641.49,619.6A20.74,20.74,0,0,0,628.62,618c-2.34.38-4.77,1.08-6.36,2.84s-1.89,4.84-.07,6.34a6.06,6.06,0,0,0,4,1c3.4,0,7.18-.64,9.9,1.41,1.55,1.17,2.58,3.11,4.43,3.68a4.37,4.37,0,0,0,4.83-2.14,7.5,7.5,0,0,0,.54-5.53A8.45,8.45,0,0,0,641.49,619.6Z" transform="translate(-85.68 -98.75)"/><path class="cls-8" d="M650.46,602.29c-2.4,3.42-7.05,2.28-9.21.2s-3.07-5.12-3.9-8c-1.89-6.59-3.81-13.5-2.4-20.22a11.33,11.33,0,0,1,2.59-5.49,5.84,5.84,0,0,1,5.56-1.85c2.34.62,3.8,2.92,4.85,5.1a48.27,48.27,0,0,1,4.77,20.68c0,3.33-.38,6.83-2.26,9.58" transform="translate(-85.68 -98.75)"/><path class="cls-8" d="M657,607.19c-2.6-3.08-3.09-7.58-1.94-11.45a22,22,0,0,1,6.79-9.83A36.49,36.49,0,0,1,674,578.74a13.16,13.16,0,0,1,5.46-.93,5.74,5.74,0,0,1,4.58,2.78c1.28,2.43.06,5.39-1.27,7.8a91.16,91.16,0,0,1-8,12.15c-2.39,3.08-5.12,6.12-8.77,7.51s-7.43,1.23-9.36-1.29" transform="translate(-85.68 -98.75)"/><path class="cls-7" d="M650.62,653.86a6.81,6.81,0,0,1-.22-1.55c-.11-1.13-.25-2.55-.41-4.24s-.46-3.91-1-6.22a48.38,48.38,0,0,0-2.27-7.34,26.91,26.91,0,0,0-3.74-6.64,14.08,14.08,0,0,0-4.74-3.94,13.35,13.35,0,0,0-4-1.24,7.42,7.42,0,0,1-1.55-.23,7.64,7.64,0,0,1,1.57,0,12.22,12.22,0,0,1,4.17,1.08,13.91,13.91,0,0,1,5,4,26.55,26.55,0,0,1,3.89,6.77,44.86,44.86,0,0,1,2.24,7.46,52.51,52.51,0,0,1,.83,6.3c.14,1.8.19,3.26.21,4.27A7.91,7.91,0,0,1,650.62,653.86Z" transform="translate(-85.68 -98.75)"/><path class="cls-7" d="M650.33,650.6a2.54,2.54,0,0,1-.05-.72c0-.54,0-1.22,0-2.06,0-1.79,0-4.38-.09-7.58-.16-6.39-.71-13.27-1.77-23-1-9.13-2.36-19.74-3.79-26.65-.3-1.57-.61-3-.9-4.22s-.52-2.31-.74-3.17-.36-1.48-.49-2a3.11,3.11,0,0,1-.12-.72,3.17,3.17,0,0,1,.25.68c.16.52.35,1.17.6,2s.54,1.91.85,3.15.66,2.64,1,4.21a230.73,230.73,0,0,1,4,24.72c1.07,9.72,1.55,18.58,1.59,25,0,3.2,0,5.8-.11,7.59,0,.83-.09,1.51-.13,2.06A3,3,0,0,1,650.33,650.6Z" transform="translate(-85.68 -98.75)"/><path class="cls-7" d="M650.28,633.53a15.49,15.49,0,0,1,0-2.16c.08-1.38.27-3.38.66-5.83a75.62,75.62,0,0,1,1.9-8.5A68.69,68.69,0,0,1,656.41,607a53.51,53.51,0,0,1,10.44-16.25,27.56,27.56,0,0,1,2.46-2.29c.37-.32.71-.63,1-.89l1-.65a12.5,12.5,0,0,1,1.81-1.16,63.13,63.13,0,0,0-5.94,5.3A56.31,56.31,0,0,0,657,607.24a80.07,80.07,0,0,0-3.58,10c-.93,3.12-1.55,6-2,8.42s-.7,4.4-.85,5.77A12.82,12.82,0,0,1,650.28,633.53Z" transform="translate(-85.68 -98.75)"/><polygon class="cls-4" points="581.11 564.89 579.39 588.33 549.28 588.33 547.57 564.89 581.11 564.89"/><rect class="cls-38" x="543.98" y="555.66" width="40.03" height="9.24"/><polygon class="cls-38" points="584.01 585.75 584.01 588.31 582.13 588.31 544.64 588.31 544.64 585.75 584.01 585.75"/><polygon class="cls-38" points="580.29 594.5 582.13 590 546.08 590 548.23 594.5 580.29 594.5"/><path class="cls-38" d="M631.31,689c0,.1,8.2.19,18.32.19s18.31-.09,18.31-.19-8.2-.19-18.31-.19S631.31,688.9,631.31,689Z" transform="translate(-85.68 -98.75)"/><path class="cls-11" d="M523.31,680.49s-2.54-3.38-2.54-11.83c0,0,58.27,4.23,89.53.85,0,0,.89,2.53,0,4.22S542.06,680.49,523.31,680.49Z" transform="translate(-85.68 -98.75)"/><path class="cls-11" d="M600.16,661.06s-8.44,2.54-7.6,10.14H590.4S590.87,661.06,600.16,661.06Z" transform="translate(-85.68 -98.75)"/><path class="cls-27" d="M512.2,711c-2.93.17-79.8-20.68-82.23-23.33-.92-1,1.46-12.37,4.73-26l49.6,13.3s25.86,21.15,28.21,24.34S515.13,710.78,512.2,711Z" transform="translate(-85.68 -98.75)"/><path class="cls-11" d="M508.32,695.12a10.74,10.74,0,0,0-8.57,1.06,10.37,10.37,0,0,0-4.74,6.1c0,.07.12.11.15,0a12.42,12.42,0,0,1,13.11-7A.08.08,0,0,0,508.32,695.12Z" transform="translate(-85.68 -98.75)"/><path class="cls-11" d="M489,677.53c-5.14-1.47-11.61-1.27-16,2.08-.17.13,0,.36.19.33a73.82,73.82,0,0,1,15.69-1.75A.34.34,0,0,0,489,677.53Z" transform="translate(-85.68 -98.75)"/><path class="cls-11" d="M492.51,680.16c-5.14-1.47-11.61-1.27-16,2.08-.17.13,0,.37.19.33a73.82,73.82,0,0,1,15.69-1.75A.34.34,0,0,0,492.51,680.16Z" transform="translate(-85.68 -98.75)"/><path class="cls-11" d="M496.07,682.79c-5.14-1.47-11.61-1.27-16,2.08-.17.13,0,.37.19.33A73.82,73.82,0,0,1,496,683.45.34.34,0,0,0,496.07,682.79Z" transform="translate(-85.68 -98.75)"/><path class="cls-11" d="M499.63,685.43c-5.14-1.47-11.61-1.28-16,2.07-.17.13,0,.37.19.33a73.82,73.82,0,0,1,15.69-1.75A.33.33,0,0,0,499.63,685.43Z" transform="translate(-85.68 -98.75)"/><path class="cls-11" d="M429.55,688.09s-.64-4.65,2.27-12.58c0,0,52.53,23.56,83,31.16,0,0-.27,3-1.69,4.22S447.16,694.55,429.55,688.09Z" transform="translate(-85.68 -98.75)"/><path class="cls-11" d="M508.18,695.44s-8.8-.53-10.63,6.89l-2-.74S499.46,692.24,508.18,695.44Z" transform="translate(-85.68 -98.75)"/><rect class="cls-2" x="127.23" y="376.62" width="396.97" height="8.45"/><rect class="cls-26" x="137.36" y="385.06" width="376.69" height="8.45"/><polygon class="cls-26" points="196.32 393.66 192.43 418 154.85 618.17 143.87 618.17 173.48 419.19 176.62 393.66 196.32 393.66"/><polygon class="cls-2" points="172.3 427.48 190.06 429.85 196.49 393.66 177.03 393.13 172.3 427.48"/><polygon class="cls-26" points="459.07 393.47 462.96 417.82 500.55 618.17 511.53 617.99 481.92 419 478.78 393.47 459.07 393.47"/><polygon class="cls-2" points="483.1 427.29 465.33 429.66 458.91 393.47 478.36 392.94 483.1 427.29"/><path class="cls-11" d="M685.71,312.63H664a1.88,1.88,0,0,0-.74.15h0a2.15,2.15,0,0,0-.68.44h0a2.23,2.23,0,0,0-.46.71h0a2,2,0,0,0-.16.79v23a2.15,2.15,0,0,0,2,2.17h21.68a1.85,1.85,0,0,0,.74-.15h0a2,2,0,0,0,.67-.44h0a2.77,2.77,0,0,0,.47-.7h0a2.58,2.58,0,0,0,.16-.77h0v-23A2.16,2.16,0,0,0,685.71,312.63Zm-19.18,22.73V320l15,15.41Zm18.19-2.76-15-15.43h15Z" transform="translate(-85.68 -98.75)"/><path class="cls-11" d="M626.41,308.08H603.58a2.2,2.2,0,0,0-2.22,2.17h0v22.93a2.19,2.19,0,0,0,2.21,2.18h22.89a2.18,2.18,0,0,0,2.18-2.18V310.25A2.2,2.2,0,0,0,626.41,308.08Zm-2.31,22.73H605.91V312.63H624.1Z" transform="translate(-85.68 -98.75)"/><path class="cls-11" d="M687,342.94H664.23a2.22,2.22,0,0,0-2.24,2.17v22.94a2.22,2.22,0,0,0,2.24,2.17H687a2.2,2.2,0,0,0,2.23-2.17h0V345.11a2.2,2.2,0,0,0-2.23-2.17Zm-2.32,22.73H666.53V358.1h18.19Zm0-10.61H666.53v-7.57h18.19Z" transform="translate(-85.68 -98.75)"/><path class="cls-11" d="M626.41,341.42H603.58a2.22,2.22,0,0,0-2.22,2.19v22.93a2.17,2.17,0,0,0,2.17,2.17h22.88a2.2,2.2,0,0,0,2.23-2.17V343.61A2.22,2.22,0,0,0,626.41,341.42Zm-2.31,22.74H605.91V346H624.1Z" transform="translate(-85.68 -98.75)"/><path class="cls-11" d="M646,341.84a14.52,14.52,0,0,0-14.51,14.94,14.68,14.68,0,0,0,14.1,14.1,14.52,14.52,0,0,0,14.93-14.52h0A14.54,14.54,0,0,0,646,341.84Zm-.18,24.68a10.17,10.17,0,1,1,10.17-10.17h0A10.19,10.19,0,0,1,645.77,366.52Z" transform="translate(-85.68 -98.75)"/><path class="cls-11" d="M633.89,302h22.83a2.2,2.2,0,0,0,2.24-2.15v-23a2.15,2.15,0,0,0-2.17-2.16h-22.9a2.19,2.19,0,0,0-2.21,2.16h0v23a2.19,2.19,0,0,0,2.21,2.17Zm14.46-22.74h7.58v18.19h-7.58Zm-10.61,0h6.06v18.19h-6.06Z" transform="translate(-85.68 -98.75)"/><path class="cls-11" d="M687.05,274.74H664.3a2.21,2.21,0,0,0-2.31,2.1v23a2.21,2.21,0,0,0,2.25,2.17h22.81a2.19,2.19,0,0,0,2.22-2.17h0v-23a2.19,2.19,0,0,0-2.22-2.16Zm-2.33,22.73H666.53v-7.58h18.19Zm0-10.61H666.53v-7.58h18.19Z" transform="translate(-85.68 -98.75)"/><path class="cls-11" d="M614.14,273.87a14.51,14.51,0,0,0-14.53,14.91A14.68,14.68,0,0,0,613.7,302.9a14.51,14.51,0,0,0,14.94-14.5h0A14.53,14.53,0,0,0,614.14,273.87Zm.54,24.69a10.17,10.17,0,1,1,10.17-10.17A10.18,10.18,0,0,1,614.68,298.56Z" transform="translate(-85.68 -98.75)"/><path class="cls-11" d="M645.77,308.73a14.52,14.52,0,1,0,14.52,14.52A14.52,14.52,0,0,0,645.77,308.73Zm-.45,25.06a10.17,10.17,0,0,1-10.17-10.32,10.29,10.29,0,0,1,10-10,10.17,10.17,0,0,1,10.32,10.17v0a10.2,10.2,0,0,1-10.17,10.2h0Z" transform="translate(-85.68 -98.75)"/><path class="cls-39" d="M788.09,295.27q2.82-5.4,5.49-11.2" transform="translate(-85.68 -98.75)"/><path class="cls-39" d="M503,452.14s8.87-73.06,73.91-65.45c62.86,7.34,156.88,12.63,211.15-91.42" transform="translate(-85.68 -98.75)"/><path class="cls-39" d="M494.59,208.05" transform="translate(-85.68 -98.75)"/><path class="cls-39" d="M498.68,190s8.87,73,73.91,65.45S736,242.43,789.23,358" transform="translate(-85.68 -98.75)"/><path class="cls-40" d="M255.65,422.64s-3,8.38-6.49,16.91-7.23,28.36-6.69,28.91,8.28-18.51,10.69-27.28,4.28-17.8,4.28-17.8Z" transform="translate(-85.68 -98.75)"/><polygon class="cls-6" points="169.94 323.67 167.61 329.35 170.79 330.3 172.07 324.39 169.94 323.67"/><path class="cls-5" d="M255.62,422.42c.33-4.67,4-8.47,4-8.47s1.51,5.48-1.91,9.2Z" transform="translate(-85.68 -98.75)"/><path class="cls-13" d="M246.42,411.66s1.18,8.81,2.81,17.89,1.15,29.24.51,29.67S245.5,439.38,245,430.3s-.47-18.3-.47-18.3Z" transform="translate(-85.68 -98.75)"/><polygon class="cls-6" points="160.81 312.7 161.91 318.73 158.6 319 158.58 312.96 160.81 312.7"/><path class="cls-5" d="M244.26,411.71s2.12-.21,2.24-.26a53.54,53.54,0,0,0,1.57-6.29c-.14-.17-7.14.81-7.1,1.47S244.26,411.71,244.26,411.71Z" transform="translate(-85.68 -98.75)"/><rect class="cls-41" x="146.88" y="346.31" width="24.68" height="31.08" rx="4.38"/><rect class="cls-41" x="150" y="341.4" width="18.45" height="4.91"/><polygon class="cls-4" points="104.2 598.75 136.46 598.75 139.94 567.18 100.72 567.18 104.2 598.75"/><rect class="cls-38" x="184.68" y="662.04" width="42.67" height="7.79" transform="translate(326.35 1233.12) rotate(180)"/><polygon class="cls-38" points="136.55 605.15 138.39 600.65 102.34 600.65 104.49 605.15 136.55 605.15"/><polygon class="cls-38" points="140.05 596.23 140.05 598.79 138.17 598.79 100.68 598.79 100.68 596.23 140.05 596.23"/><path class="cls-16" d="M235.72,445s9.29,3.38,18.58,0A15.9,15.9,0,0,1,235.72,445Z" transform="translate(-85.68 -98.75)"/><rect class="cls-42" x="149.19" y="352.97" width="3.38" height="16.05" rx="1.69"/><rect class="cls-42" x="149.19" y="370.7" width="3.38" height="4.22" rx="1.69"/><path class="cls-2" d="M234.41,445.56a23,23,0,0,0,21.11.07,3.87,3.87,0,0,0-1.39-.57s-5.75,2.44-18.41-.1Z" transform="translate(-85.68 -98.75)"/><rect class="cls-4" x="702.83" y="177.71" width="5.49" height="86.15"/><path class="cls-11" d="M261.8,311.55l1,1.49a10.67,10.67,0,0,0,4.61,3.77l1.67.71-1.49,1a10.51,10.51,0,0,0-3.78,4.61l-.7,1.66-1-1.49a10.67,10.67,0,0,0-4.61-3.77l-1.67-.71,1.49-1a10.51,10.51,0,0,0,3.78-4.61Z" transform="translate(-85.68 -98.75)"/><path class="cls-11" d="M282.6,203.06l1.87,2.73a19.38,19.38,0,0,0,8.44,6.91l3,1.29-2.73,1.86a19.38,19.38,0,0,0-6.9,8.45l-1.29,3-1.87-2.73a19.5,19.5,0,0,0-8.44-6.91l-3.05-1.29,2.73-1.86a19.47,19.47,0,0,0,6.91-8.45Z" transform="translate(-85.68 -98.75)"/><path class="cls-11" d="M307.53,240.77l2.51,3.68a26.19,26.19,0,0,0,11.38,9.31l4.11,1.74L321.85,258a26.13,26.13,0,0,0-9.31,11.38l-1.74,4.11-2.52-3.68a26.17,26.17,0,0,0-11.38-9.32l-4.11-1.74,3.68-2.51a26.28,26.28,0,0,0,9.32-11.38Z" transform="translate(-85.68 -98.75)"/></svg>