<svg id="Layer_1" data-name="Layer 1" xmlns="http://www.w3.org/2000/svg" viewBox="0 0 160.72 80.89"><defs><style>.cls-1{fill:#f96755;}</style></defs><title>logotervuj</title><path d="M8.54,72.52h2.63l4.5,12.73-.4-.14,3.3-8.55,1,3L15.18,89.9Zm8.05,0H18.8l4.91,12.57-.48-.1,4.29-12.47h2.39L23.37,89.86Z" transform="translate(-8.54 -9.01)"/><path d="M37.87,72.45H48.7V74.6H40.1v5.07h7.68v2.16H40.1V87H49v2.14H37.87Z" transform="translate(-8.54 -9.01)"/><path d="M61.8,72.45a6.66,6.66,0,0,1,4,1,3.62,3.62,0,0,1,1.44,3.17,4.26,4.26,0,0,1-.6,2.3,4,4,0,0,1-1.67,1.52,6.24,6.24,0,0,1-2.52.65l-.32-1.18a8.68,8.68,0,0,1,3,.6,5.23,5.23,0,0,1,2.12,1.55A3.68,3.68,0,0,1,68,84.44a4.65,4.65,0,0,1-.45,2.13A3.88,3.88,0,0,1,66.31,88a5.38,5.38,0,0,1-1.78.83,7.7,7.7,0,0,1-2.06.27h-5V72.45Zm.46,7.29a2.49,2.49,0,0,0,2-.76,2.87,2.87,0,0,0,.62-1.85,2.26,2.26,0,0,0-.81-1.94,3.62,3.62,0,0,0-2.17-.59H59.75v5.14Zm.09,7.3a5.11,5.11,0,0,0,1.71-.27,2.58,2.58,0,0,0,1.21-.87,2.29,2.29,0,0,0,.45-1.44,2.13,2.13,0,0,0-.52-1.52,2.92,2.92,0,0,0-1.33-.79,5.43,5.43,0,0,0-1.66-.25H59.75V87Z" transform="translate(-8.54 -9.01)"/><path class="cls-1" d="M89.47,72.45,95,86.24,93.68,86l5.19-13.53h2.65L94.17,89.9,86.79,72.45Z" transform="translate(-8.54 -9.01)"/><path class="cls-1" d="M109.45,72.45h2.24V89.12h-2.24Z" transform="translate(-8.54 -9.01)"/><path class="cls-1" d="M125.38,72.45a6.67,6.67,0,0,1,4,1,3.62,3.62,0,0,1,1.44,3.17,4.26,4.26,0,0,1-.6,2.3,4.1,4.1,0,0,1-1.67,1.52,6.33,6.33,0,0,1-2.53.65l-.32-1.18a8.63,8.63,0,0,1,3,.6,5.16,5.16,0,0,1,2.12,1.55,3.63,3.63,0,0,1,.79,2.35,4.65,4.65,0,0,1-.45,2.13A3.9,3.9,0,0,1,129.89,88a5.33,5.33,0,0,1-1.77.83,7.78,7.78,0,0,1-2.07.27h-5V72.45Zm.47,7.29a2.45,2.45,0,0,0,2-.76,2.81,2.81,0,0,0,.62-1.85,2.25,2.25,0,0,0-.8-1.94,3.62,3.62,0,0,0-2.17-.59h-2.17v5.14Zm.09,7.3a5,5,0,0,0,1.7-.27,2.58,2.58,0,0,0,1.21-.87,2.29,2.29,0,0,0,.45-1.44,2.17,2.17,0,0,0-.51-1.52,2.92,2.92,0,0,0-1.33-.79,5.48,5.48,0,0,0-1.66-.25h-2.47V87Z" transform="translate(-8.54 -9.01)"/><path class="cls-1" d="M140,72.45h10.83V74.6h-8.6v5.07h7.68v2.16h-7.68V87h8.92v2.14H140Z" transform="translate(-8.54 -9.01)"/><path class="cls-1" d="M168.22,75.43a11.78,11.78,0,0,0-1.87-.77,6.61,6.61,0,0,0-2-.32,3.39,3.39,0,0,0-2.13.62,2,2,0,0,0-.8,1.66A1.87,1.87,0,0,0,162,78a4.55,4.55,0,0,0,1.34.93c.54.26,1.12.51,1.74.74a14.27,14.27,0,0,1,1.52.66,5.7,5.7,0,0,1,1.37.93,4,4,0,0,1,1,1.36,4.88,4.88,0,0,1,.36,2A4.58,4.58,0,0,1,168.6,87a4.51,4.51,0,0,1-1.88,1.7,6.31,6.31,0,0,1-2.93.62,8.9,8.9,0,0,1-2.08-.24,9.48,9.48,0,0,1-1.86-.65,15,15,0,0,1-1.52-.86l1-1.75a9.91,9.91,0,0,0,1.27.75,7.32,7.32,0,0,0,1.5.56,5.85,5.85,0,0,0,1.52.21,4.44,4.44,0,0,0,1.57-.28,2.9,2.9,0,0,0,1.27-.87,2.42,2.42,0,0,0,.5-1.59,2.22,2.22,0,0,0-.45-1.41,3.92,3.92,0,0,0-1.17-1,11.46,11.46,0,0,0-1.58-.72,16.76,16.76,0,0,1-1.6-.65,7.86,7.86,0,0,1-1.48-.89,4.16,4.16,0,0,1-1.11-1.28,3.74,3.74,0,0,1-.42-1.84,4.18,4.18,0,0,1,.63-2.3A4.42,4.42,0,0,1,161.51,73a5.87,5.87,0,0,1,2.54-.61,9.53,9.53,0,0,1,2.85.39,10.59,10.59,0,0,1,2.17,1Z" transform="translate(-8.54 -9.01)"/><path d="M88.67,17.39" transform="translate(-8.54 -9.01)"/><path d="M122.1,33.21l.2,10.88-12.52.26a13.32,13.32,0,0,0,0-8.45,14,14,0,0,1-.25-3.17v9.15Z" transform="translate(-8.54 -9.01)"/><path d="M122.31,43.51c0,.2,0,1.06,0,1.25-.15,7.06-4.66,11.24-11.79,11.39-3.78.08-8-.83-10.83-3a13.25,13.25,0,0,0,10.14-8.77,11.24,11.24,0,0,0,.5-4.2,15.84,15.84,0,0,0-.44-4.17,3.52,3.52,0,0,1-.28-1.63l.27-1a5.7,5.7,0,0,1,.21-2.78,13.26,13.26,0,0,1,12.27,13Z" transform="translate(-8.54 -9.01)"/><path d="M109.56,32.73s1.94,14.7-5.22,18.55C104.34,51.28,118.54,45.6,109.56,32.73Z" transform="translate(-8.54 -9.01)"/><polygon points="113.53 23.72 113.72 32.71 110.83 27.13 113.53 23.72"/><path d="M103.36,41.76a6.36,6.36,0,0,0-1.44-4.16,6.28,6.28,0,0,0-4.77-2.33,6.36,6.36,0,0,0-6.48,6.23,6.21,6.21,0,0,0,.65,2.91,6.34,6.34,0,0,0,12-2.65Z" transform="translate(-8.54 -9.01)"/><path d="M103.5,32,103.66,21l-12.48-.19a13.32,13.32,0,0,1,0,8.45,7.78,7.78,0,0,0-.41,2.34v.09Z" transform="translate(-8.54 -9.01)"/><path d="M103.62,25.1c0-.19,0-4.62,0-4.81C103.5,13.23,99,9.17,91.87,9c-3.79-.08-8,.83-10.83,3a13.26,13.26,0,0,1,10.14,8.77,11.24,11.24,0,0,1,.49,4.2,15.84,15.84,0,0,1-.43,4.17,8,8,0,0,0-.19,2.49l.38.36c0,1-.43,1.69,0,2.57a13.2,13.2,0,0,0,10.62-6.81C103.07,26,103.57,27.34,103.62,25.1Z" transform="translate(-8.54 -9.01)"/><path d="M90.81,32.32s2.08-14.58-5.07-18.43C85.74,13.89,99.8,19.46,90.81,32.32Z" transform="translate(-8.54 -9.01)"/><polygon points="94.93 23.42 95.1 13.35 92.23 20.02 94.93 23.42"/><polygon points="94.82 32.58 82.13 32.38 82.45 12.05 95.12 12 94.82 32.58"/><path d="M106.72,47.64" transform="translate(-8.54 -9.01)"/><path d="M66,41.09a5.31,5.31,0,0,0-1.5-3.71,6.6,6.6,0,0,0-4.81-2c-3.5,0-6.36,2.53-6.38,5.69A5.26,5.26,0,0,0,54,43.65a6.42,6.42,0,0,0,5.63,3.13C63.16,46.79,66,44.25,66,41.09Z" transform="translate(-8.54 -9.01)"/><path d="M66.05,34.09l0-9.71-12.47-.14a10.84,10.84,0,0,1,.16,7.6A6.61,6.61,0,0,0,53.34,34V34Z" transform="translate(-8.54 -9.01)"/><polygon points="57.49 26.33 57.49 12.68 54.77 23.09 57.49 26.33"/><polygon points="57.49 32.08 44.8 32.18 44.8 17.68 57.49 17.68 57.49 32.08"/><path d="M53.34,21.63v-9.7a18.25,18.25,0,0,1,5.95.15A8.18,8.18,0,0,1,66.11,20l0,2.87Z" transform="translate(-8.54 -9.01)"/><polygon points="44.8 19.74 57.49 30.94 57.53 10.62 44.8 10.62 44.8 19.74"/><path d="M122.25,41.94a6.4,6.4,0,0,0-1.5-4.13,6.34,6.34,0,0,0-11.19,4.07,6.17,6.17,0,0,0,.68,2.9,6.34,6.34,0,0,0,12-2.84Z" transform="translate(-8.54 -9.01)"/><path d="M122.26,33.87V23.08l-12.48-.16a13.11,13.11,0,0,1,.77,4.53,13.29,13.29,0,0,1-.61,3.92,7.8,7.8,0,0,0-.37,2.35v.09Z" transform="translate(-8.54 -9.01)"/><polygon points="113.7 25.33 113.75 16.34 110.95 21.97 113.7 25.33"/><polygon points="113.77 34.42 101.02 32.76 101.02 16.63 113.7 16.63 113.77 34.42"/><path d="M109.56,20V9.23a16.36,16.36,0,0,1,6,.18,8.85,8.85,0,0,1,6.81,8.76l0,3.19Z" transform="translate(-8.54 -9.01)"/><rect x="101.02" y="8.78" width="12.73" height="10.14"/><path d="M69.94,46.3" transform="translate(-8.54 -9.01)"/><path d="M84.63,22.83a5.93,5.93,0,0,1-1.43,4,6.41,6.41,0,0,1-4.78,2.25,6.24,6.24,0,0,1-6.47-6,5.81,5.81,0,0,1,.64-2.81,6.35,6.35,0,0,1,5.57-3.43A6.24,6.24,0,0,1,84.63,22.83Z" transform="translate(-8.54 -9.01)"/><path d="M84.77,32.27l.16,10.54L72.46,43a12.47,12.47,0,0,0,0-8.14,7.58,7.58,0,0,1-.41-2.26v-.08Z" transform="translate(-8.54 -9.01)"/><path d="M84.89,38.87c0,.19,0,4.45,0,4.64-.15,6.8-4.66,10.71-11.79,10.85-3.78.08-8-.8-10.83-2.91A13.14,13.14,0,0,0,72.46,43,10.65,10.65,0,0,0,73,39a14.65,14.65,0,0,0-.44-4,8,8,0,0,1-.19-2.4l.38-.35c0-1-.42-1.63,0-2.48a13.57,13.57,0,0,1,7.16,2.65,13,13,0,0,1,3.47,3.91C84.34,38,84.84,36.72,84.89,38.87Z" transform="translate(-8.54 -9.01)"/><path d="M72.09,31.92S74.17,46,67,49.67C67,49.67,81.07,44.31,72.09,31.92Z" transform="translate(-8.54 -9.01)"/><polygon points="76.2 22.8 76.37 32.5 73.5 26.07 76.2 22.8"/><polygon points="76.1 13.98 63.41 14.16 63.72 33.74 76.39 33.8 76.1 13.98"/></svg>