<svg id="Layer_1" data-name="Layer 1" xmlns="http://www.w3.org/2000/svg" viewBox="0 0 450 475.01"><title>logo</title><circle cx="226" cy="376" r="10"/><path d="M90,72.5a20,20,0,1,0-20-20A20,20,0,0,0,90,72.5Zm0-30a10,10,0,1,1-10,10A10,10,0,0,1,90,42.5Z" transform="translate(-35 -22.5)"/><path d="M445,92.5a30,30,0,1,0-30-30A30,30,0,0,0,445,92.5Zm0-50a20,20,0,1,1-20,20A20,20,0,0,1,445,42.5Z" transform="translate(-35 -22.5)"/><circle cx="142.5" cy="27.5" r="7.5"/><circle cx="352.5" cy="57.5" r="7.5"/><circle cx="202.5" cy="52.5" r="7.5"/><path d="M449.5,102.5H332.18l33.19-33.18a19.3,19.3,0,0,0,0-27.31L351.52,28.16a19.3,19.3,0,0,0-27.31,0L249.86,102.5H70.5A35.54,35.54,0,0,0,35,138V397a35.53,35.53,0,0,0,35.5,35.5H85v15a5,5,0,0,0,5,5H190a5,5,0,0,0,5-5v-15h10v55H192a5,5,0,0,0,0,10H330a5,5,0,0,0,0-10H316v-55h9v15a5,5,0,0,0,5,5H430a5,5,0,0,0,5-5v-15h14.5A35.53,35.53,0,0,0,485,397V138A35.54,35.54,0,0,0,449.5,102.5ZM295,71.52l10.25,10.25-94.91,94.9-16-4.48ZM314.47,52l27,27L329.08,91.47l-27-27ZM207.7,186.32l5,18.78-31.09,7.29,6.9-31.45Zm-27.46-13.77a4.77,4.77,0,0,0-.26.66.78.78,0,0,0,0,.14s0,.07,0,.11c-.22.85-9.84,44.8-9.82,44.7a5.56,5.56,0,0,0-.08.81s0,.07,0,.11,0,0,0,.06a5.15,5.15,0,0,0,1.48,3.5c.08.08.18.13.26.2a2.78,2.78,0,0,0,.84.59,2.82,2.82,0,0,0,.94.4c1.34.41-10.05.21,212.26.24a9.22,9.22,0,0,1,0,18.43H275a20,20,0,0,0,0,40h35a5,5,0,0,0,0-10H275a10,10,0,0,1,0-20H385.79a19.22,19.22,0,0,0,0-38.43H218.18l1.93-.45.13-.05a5,5,0,0,0,2.13-1.25l69.82-69.82H445v220H75v-220H209.87C178.48,173.91,180.81,171.34,180.24,172.55Zm41.2,26.56-4.07-15.33,94.94-94.94,9.7,9.7ZM331.28,35.23a9.31,9.31,0,0,1,13.17,0L358.3,49.08a9.31,9.31,0,0,1,0,13.17L348.56,72l-27-27ZM185,442.5H95v-10h90Zm121,45H215v-55h91Zm119-45H335v-10h90ZM475,397a25.53,25.53,0,0,1-25.5,25.5H70.5A25.53,25.53,0,0,1,45,397V138a25.53,25.53,0,0,1,25.5-25.5H239.87l-20,20H70a5,5,0,0,0-5,5v230a5,5,0,0,0,5,5H450a5,5,0,0,0,5-5v-230a5,5,0,0,0-5-5H302.18l20-20H449.5A25.53,25.53,0,0,1,475,138Z" transform="translate(-35 -22.5)"/><circle cx="290" cy="255" r="5"/><circle cx="305" cy="255" r="5"/><path d="M90,352.5H235a5,5,0,0,0,5-5v-100a5,5,0,0,0-5-5H90a5,5,0,0,0-5,5v100A5,5,0,0,0,90,352.5Zm5-100H230v90H95Z" transform="translate(-35 -22.5)"/><path d="M215,262.5H110a5,5,0,0,0,0,10H215a5,5,0,0,0,0-10Z" transform="translate(-35 -22.5)"/><path d="M215,282.5H110a5,5,0,0,0,0,10H215a5,5,0,0,0,0-10Z" transform="translate(-35 -22.5)"/><path d="M215,302.5H110a5,5,0,0,0,0,10H215a5,5,0,0,0,0-10Z" transform="translate(-35 -22.5)"/><path d="M150,322.5H110a5,5,0,0,0,0,10h40a5,5,0,0,0,0-10Z" transform="translate(-35 -22.5)"/></svg>