<svg id="Layer_1" data-name="Layer 1" xmlns="http://www.w3.org/2000/svg" viewBox="0 0 839.5 763.91"><defs><style>.cls-1{fill:#e7f3ff;}.cls-2{fill:#2b444e;}.cls-3{fill:#e1e1e1;}.cls-4{fill:#9fc9ff;}.cls-5{fill:#16282d;}.cls-6{fill:#dcdcdc;}.cls-7{fill:#8ab887;}.cls-8{fill:#c0e5c0;}.cls-9{fill:#cce3ff;}.cls-10,.cls-23,.cls-24,.cls-39{fill:none;}.cls-10,.cls-24,.cls-25,.cls-39{stroke:#fff;}.cls-10,.cls-23,.cls-24,.cls-25,.cls-39{stroke-miterlimit:10;}.cls-11{fill:#fff;}.cls-12{fill:#1a2e36;}.cls-13{fill:#f96755;}.cls-14{fill:#f4f8fc;}.cls-15{fill:#c26358;}.cls-16{fill:#1a2e35;}.cls-17{fill:#ffbf9d;}.cls-18{fill:#ffaba1;}.cls-19{fill:#0b0950;}.cls-20{fill:#6f7be4;}.cls-21{fill:#203391;}.cls-22{fill:#fa7166;}.cls-23{stroke:#1a2e36;}.cls-24{stroke-width:0.75px;}.cls-25{fill:#223c44;}.cls-26{fill:#385b64;}.cls-27{fill:#333;}.cls-28{fill:#d1945d;}.cls-29{fill:#c18859;}.cls-30{fill:#2b454e;}.cls-31{fill:#1d343a;}.cls-32{fill:#dd9373;}.cls-33{fill:#89705d;}.cls-34{fill:#c17e67;}.cls-35{fill:#385962;}.cls-36,.cls-37{fill:#152428;}.cls-37{opacity:0.74;}.cls-38{fill:#91b3fa;}.cls-39{stroke-width:3px;}.cls-40{fill:#a8a8a8;}.cls-41{fill:#375a64;}.cls-42{fill:#3d6a75;}</style></defs><title>logoillusztracio</title><path class="cls-1" d="M693,666.88c16.5-10.87,46.5-31.22,50.61-62.15,4-30.5-21.23-40-23.93-74.08-3.62-45.93,40-57.23,51.53-110.68,11.61-54-20.15-102.05-30.36-117.5-32-48.44-64.12-47.6-131.57-98.77C522.4,137.77,600.73,93,536.65,55.07S311,12.52,240.39,51.3c-43.51,23.89-25.45,44.28-104,135.37C79.33,252.91,53,261.58,38.9,308.43c-3.64,12.1-21.64,71.83,11,117.5,28.77,40.21,69.9,31.89,84.64,67.26,15.39,36.92-22.92,61.57-15.64,103.87C127,644,184.27,672,223.83,690.72,407.13,777.5,612.45,720,693,666.88Z" transform="translate(-30.68 -24.32)"/><rect class="cls-2" x="354.14" y="590.96" width="86" height="6.33"/><rect class="cls-3" x="436.64" y="117.91" width="47" height="180" rx="11.49"/><path class="cls-4" d="M850.81,113.23h-301a20.47,20.47,0,0,0-20.47,20.47V422.53a24.7,24.7,0,0,0,24.7,24.7h290.6a24.7,24.7,0,0,0,24.7-24.7V131.74A18.51,18.51,0,0,0,850.81,113.23Z" transform="translate(-30.68 -24.32)"/><path class="cls-5" d="M207.06,414.66s2.51,10.23,4.63,20.94,11.37,32.74,12.25,32.93-3.89-23.7-7.23-33.93-7.39-20.38-7.39-20.38Z" transform="translate(-30.68 -24.32)"/><polygon class="cls-6" points="176.21 390.14 177.61 397.27 181.38 396.14 178.79 389.47 176.21 390.14"/><path class="cls-5" d="M206.89,414.47c-2.71-4.84-1.53-11-1.53-11s5.07,4.43,4.11,10.33Z" transform="translate(-30.68 -24.32)"/><path class="cls-7" d="M48.15,547.89a9.84,9.84,0,0,0,1.48,1.28l4.43,3.43c1.95,1.46,4.31,3.27,7,5.46s5.81,4.57,9.1,7.41c6.69,5.55,14.41,12.45,22.71,20.39s17,17.1,25.75,27.08,16.47,20,23.26,29.25,12.48,17.93,17,25.32c2.37,3.65,4.31,7.08,6.09,10s3.26,5.55,4.44,7.67l2.79,4.87a9.79,9.79,0,0,0,1.06,1.65,10.49,10.49,0,0,0-.81-1.79l-2.55-5c-1.1-2.17-2.5-4.8-4.23-7.8s-3.6-6.47-5.92-10.16c-4.46-7.48-10.16-16.17-16.83-25.57S128.4,622.06,119.69,612s-17.6-19.11-25.92-27.09-16.19-14.75-23-20.21c-3.33-2.81-6.5-5.15-9.24-7.27s-5.14-3.88-7.14-5.27l-4.6-3.22A10.87,10.87,0,0,0,48.15,547.89Z" transform="translate(-30.68 -24.32)"/><path class="cls-8" d="M94.55,589a32.61,32.61,0,0,0-21.07-6.17c-2.55.16-5.41.86-6.64,3.09-1.64,3,.64,6.63,3.28,8.77A24,24,0,0,0,86,600c5.7-.23,10.18-1.6,14.31-5.55" transform="translate(-30.68 -24.32)"/><path class="cls-8" d="M123.85,619.65C117.06,614,104.46,608,95.61,607.78a10.48,10.48,0,0,0-4.13.53,4.28,4.28,0,0,0-2.72,3c-.38,2,1.09,3.79,2.57,5.14a34.49,34.49,0,0,0,35.75,6.22" transform="translate(-30.68 -24.32)"/><path class="cls-8" d="M147.32,650.48a50.23,50.23,0,0,0-25.19-7.31c-2.07,0-4.37.16-5.82,1.64-2.2,2.25-1.16,6.15.88,8.55,4.19,4.94,11.2,6.31,17.67,6.64,7,.35,16.81-2.4,16.81-2.4" transform="translate(-30.68 -24.32)"/><path class="cls-8" d="M161.81,672.36c-6.45-2.9-13.4-5-20.47-4.87a10,10,0,0,0-4.48.89,4.23,4.23,0,0,0-2.44,3.63c.05,2.47,2.73,4,5.09,4.71,8.15,2.58,16.43,3,24.57.4" transform="translate(-30.68 -24.32)"/><path class="cls-8" d="M155.87,659.29a154.93,154.93,0,0,1,4.5-28c.37-1.43,1-3.07,2.37-3.51a3,3,0,0,1,3,1.13,7.55,7.55,0,0,1,1.3,3.14c2.52,11.07-1.07,23.68-8.43,32.33" transform="translate(-30.68 -24.32)"/><path class="cls-8" d="M135.62,631.8q.85-12.27,1.73-24.54a18.65,18.65,0,0,1,1.35-6.84c1-2.11,3.05-3.9,5.39-3.91s4.38,1.77,5.37,3.89a16.55,16.55,0,0,1,1.13,6.86c0,5.55-.38,11.2-2.3,16.42s-4.12,9.3-9.08,11.82" transform="translate(-30.68 -24.32)"/><path class="cls-8" d="M111.63,601.7a54.35,54.35,0,0,1-.82-28.3,9.1,9.1,0,0,1,2-4.32c2.2-2.3,6.17-1.91,8.74,0a12.86,12.86,0,0,1,4.81,9.25,27.24,27.24,0,0,1-1.5,10.56,62.74,62.74,0,0,1-8.74,17.68" transform="translate(-30.68 -24.32)"/><path class="cls-8" d="M86.82,578.34c-5.14-9.86-5.77-20.67-5.5-31.79.06-2.35.5-5.1,2.6-6.16a4.5,4.5,0,0,1,4.27.4,10.5,10.5,0,0,1,3,3.24,34.06,34.06,0,0,1-.44,37.6" transform="translate(-30.68 -24.32)"/><path class="cls-8" d="M73.22,567.59c-2.83-4.94-5.68-9.91-9.39-14.24s-8.35-8-13.79-9.68a13.15,13.15,0,0,0-7.24-.41A7.13,7.13,0,0,0,37.67,548a7.57,7.57,0,0,0,1.59,6.37,19.23,19.23,0,0,0,5.21,4.31c9.17,5.76,21.23,10.78,28.75,8.88" transform="translate(-30.68 -24.32)"/><path class="cls-7" d="M189.59,504.41a9.37,9.37,0,0,0,.07,2c.12,1.42.28,3.27.48,5.58s.51,5.38.71,8.83.58,7.37.72,11.71c.46,8.68.62,19,.41,30.53s-1,24.1-2.45,37.28S186,626,183.79,637.23s-4.72,21.33-7.06,29.7c-1.08,4.21-2.28,8-3.25,11.27s-1.87,6.15-2.63,8.46-1.26,4-1.68,5.35a10.06,10.06,0,0,0-.5,1.89,9.45,9.45,0,0,0,.77-1.8q.74-2,1.94-5.26c.85-2.28,1.84-5.09,2.87-8.4s2.31-7,3.46-11.24c2.47-8.35,5-18.43,7.38-29.71s4.37-23.81,5.87-37,2.12-25.9,2.35-37.42-.13-21.91-.73-30.6c-.2-4.36-.62-8.28-.92-11.72s-.64-6.41-1-8.83-.56-4.14-.75-5.56A9.49,9.49,0,0,0,189.59,504.41Z" transform="translate(-30.68 -24.32)"/><path class="cls-8" d="M190.82,566.39a32.52,32.52,0,0,0-9.75-19.67c-1.84-1.76-4.29-3.4-6.77-2.79-3.3.81-4.44,5-4.23,8.36a24,24,0,0,0,6.9,15.28c4,4,8.08,6.4,13.78,6.77" transform="translate(-30.68 -24.32)"/><path class="cls-8" d="M188.15,608.72c-.43-8.84-4.58-22.16-10.41-28.81a10.45,10.45,0,0,0-3.2-2.69,4.27,4.27,0,0,0-4,0c-1.7,1-2.05,3.37-2,5.37a34.51,34.51,0,0,0,19.66,30.5" transform="translate(-30.68 -24.32)"/><path class="cls-8" d="M181.39,646.86a50.11,50.11,0,0,0-11.7-23.47c-1.38-1.54-3.07-3.1-5.15-3.17-3.14-.09-5.3,3.32-5.69,6.44-.79,6.43,3,12.52,7.1,17.5,4.47,5.36,13.16,10.72,13.16,10.72" transform="translate(-30.68 -24.32)"/><path class="cls-8" d="M175.13,672.35c-2.23-6.71-5.4-13.25-10.29-18.36a10.25,10.25,0,0,0-3.69-2.69,4.25,4.25,0,0,0-4.32.67c-1.79,1.72-1.07,4.69,0,6.93,3.63,7.75,8.92,14.14,16.36,18.34" transform="translate(-30.68 -24.32)"/><path class="cls-8" d="M180.72,659.12a153.88,153.88,0,0,1,23.63-15.66c1.3-.7,2.9-1.38,4.18-.65a3,3,0,0,1,1.23,3,7.66,7.66,0,0,1-1.43,3.09c-6.43,9.36-18.14,15.27-29.48,15.72" transform="translate(-30.68 -24.32)"/><path class="cls-8" d="M187.19,625.6l19.22-15.36a18.64,18.64,0,0,1,6-3.65c2.23-.69,4.93-.41,6.52,1.31s1.67,4.42.79,6.58a16.58,16.58,0,0,1-4.28,5.48c-4,3.81-8.5,7.32-13.63,9.45s-9.63,3.27-14.84,1.33" transform="translate(-30.68 -24.32)"/><path class="cls-8" d="M193.06,587.56a54.32,54.32,0,0,1,20.25-19.79,9.16,9.16,0,0,1,4.5-1.49c3.19.06,5.59,3.24,6,6.41a12.91,12.91,0,0,1-3.54,9.8,27.27,27.27,0,0,1-8.79,6.06,62.84,62.84,0,0,1-18.92,5.56" transform="translate(-30.68 -24.32)"/><path class="cls-8" d="M193.41,553.48c3.77-10.47,11.29-18.25,19.65-25.59,1.76-1.55,4.09-3.1,6.28-2.27A4.52,4.52,0,0,1,222,529a10.44,10.44,0,0,1-.31,4.44,34.06,34.06,0,0,1-27.95,25.17" transform="translate(-30.68 -24.32)"/><path class="cls-8" d="M192.1,536.2c1.72-5.43,3.44-10.9,4.1-16.56s.23-11.57-2.23-16.7a13.15,13.15,0,0,0-4.6-5.6,7.15,7.15,0,0,0-7-.54,7.54,7.54,0,0,0-3.6,5.49,19.21,19.21,0,0,0,.36,6.75c2,10.65,6.47,22.92,13,27.16" transform="translate(-30.68 -24.32)"/><path class="cls-8" d="M758.42,564.35c8.78-.21,17.27,3.35,24.43,8.43,3.85,2.73,7.6,6.1,8.92,10.63s-.84,10.32-5.43,11.43c-2.73.66-5.56-.42-8.07-1.67-6.06-3-12.3-7.41-19-6.12-3.8.74-7.34,3.32-11.16,2.73s-6.48-4.28-6.77-8,1.43-7.47,3.84-10.38A16.82,16.82,0,0,1,758.42,564.35Z" transform="translate(-30.68 -24.32)"/><path class="cls-8" d="M757.46,525.5c1.31,8.21,10.63,10.24,16.32,8.39s10-6.48,14-10.93c9.15-10.15,18.61-20.87,21.94-34.13,1-4,1.4-8.2.17-12.1s-4.34-7.37-8.35-8.17c-4.74-.93-9.36,1.91-13.16,4.91a96,96,0,0,0-26.57,32.9c-2.93,6-5.28,12.56-4.31,19.13" transform="translate(-30.68 -24.32)"/><path class="cls-8" d="M741.4,528.55c7.35-3.26,12.16-10.89,13.46-18.82s-.51-16.11-3.57-23.55a72.76,72.76,0,0,0-15.5-23.43c-2.61-2.64-5.5-5.13-9-6.43s-7.64-1.23-10.63,1c-4.41,3.25-4.8,9.62-4.53,15.1a185.13,185.13,0,0,0,3.69,28.72c1.6,7.61,3.85,15.44,9.16,21.12s12.24,8.68,17.9,5.84" transform="translate(-30.68 -24.32)"/><path class="cls-7" d="M712.16,617.77a15.43,15.43,0,0,0,1.75-2.6l4.44-7.23a122.06,122.06,0,0,1,7.13-10.31,94.94,94.94,0,0,1,10.46-11.18,53.61,53.61,0,0,1,12.51-8.63,27.9,27.9,0,0,1,11.93-2.93,26.2,26.2,0,0,1,8.23,1.26,15.14,15.14,0,0,0,3,1,14.25,14.25,0,0,0-2.8-1.42,24.17,24.17,0,0,0-8.4-1.69A27.81,27.81,0,0,0,748,576.75a52.89,52.89,0,0,0-12.87,8.75,89.35,89.35,0,0,0-10.53,11.41,103.31,103.31,0,0,0-7,10.56c-1.81,3.11-3.17,5.68-4.1,7.46A15.16,15.16,0,0,0,712.16,617.77Z" transform="translate(-30.68 -24.32)"/><path class="cls-7" d="M715.53,612.18a6.47,6.47,0,0,0,.71-1.26l1.79-3.7c1.55-3.21,3.81-7.84,6.77-13.49,5.86-11.32,12.86-23.17,23.23-39.62,9.76-15.47,21.45-33.31,30-44.44,1.92-2.54,3.7-4.81,5.3-6.77s2.93-3.69,4.1-5l2.61-3.17a5.72,5.72,0,0,0,.84-1.16,5.83,5.83,0,0,0-1,1l-2.8,3c-1.22,1.3-2.64,3-4.27,4.91s-3.5,4.15-5.46,6.67a464.19,464.19,0,0,0-28.71,40.82c-10.39,16.49-19,31.93-24.64,43.38-2.87,5.71-5,10.42-6.43,13.7l-1.57,3.8A5.83,5.83,0,0,0,715.53,612.18Z" transform="translate(-30.68 -24.32)"/><path class="cls-7" d="M730.51,581.62a27.66,27.66,0,0,0,1.85-3.87c1.07-2.55,2.47-6.3,3.91-11a154.57,154.57,0,0,0,4-16.88,140.18,140.18,0,0,0,2.41-21.13c.82-15.1-1.37-28.85-4.52-38.23a55,55,0,0,0-2.41-6.24c-.4-.9-.72-1.76-1.11-2.5l-1.13-2a25.6,25.6,0,0,0-2.24-3.66c-.3.16,3.11,5.31,6,14.68s4.91,22.92,4.1,37.9a158.43,158.43,0,0,1-2.29,21c-1.06,6.41-2.46,12.1-3.73,16.84s-2.58,8.51-3.5,11.1A27.93,27.93,0,0,0,730.51,581.62Z" transform="translate(-30.68 -24.32)"/><rect class="cls-9" x="491.64" y="83.91" width="340" height="334" rx="24.7"/><line class="cls-10" x1="499.41" y1="282.8" x2="581.02" y2="402.08"/><rect class="cls-11" x="528.45" y="305.28" width="4.5" height="4.68" transform="translate(454.25 -328.4) rotate(55.62)"/><rect class="cls-11" x="610.39" y="425.23" width="4.5" height="4.68" transform="translate(588.93 -343.81) rotate(55.62)"/><rect class="cls-11" x="569.3" y="364.06" width="9.28" height="9.65" transform="translate(523.65 -337.41) rotate(55.62)"/><path class="cls-12" d="M512.11,83.91h301a18.51,18.51,0,0,1,18.51,18.51v11.49a0,0,0,0,1,0,0h-340a0,0,0,0,1,0,0v-9.53A20.47,20.47,0,0,1,512.11,83.91Z"/><circle class="cls-13" cx="520.14" cy="98.41" r="8.5"/><circle class="cls-3" cx="546.33" cy="98.73" r="6.18"/><circle class="cls-14" cx="591.66" cy="99.06" r="6.18"/><circle class="cls-13" cx="569.66" cy="99.06" r="6.18"/><path class="cls-15" d="M506.24,365s17-3.58,17.94-3.47.78,1.4.72,2.4a8.84,8.84,0,0,1-.66,1.69c-1.15,2.63-3.09,7.31.43,8.15,4.63,1.12,9-9.39,9.43-11.14a5.5,5.5,0,0,0-.27-2.36c-.77-2.77-2.93-6.76-6.3-7.63-4.62-1.21-9.77-.3-14.3.17Z" transform="translate(-30.68 -24.32)"/><path class="cls-16" d="M506.24,365s17-3.58,17.94-3.47.78,1.4.72,2.4a8.84,8.84,0,0,1-.66,1.69c3.42-1.89,7.19-4,9.59-5.35-.77-2.77-2.93-6.76-6.3-7.63-4.62-1.21-9.77-.3-14.3.17Z" transform="translate(-30.68 -24.32)"/><path class="cls-17" d="M503.24,388.83c.87-.53,9-3.86,15.14-6.36,1.42-4.91,5.39-14.37,6.43-16.88.68-3,3.84-9,4.12-8.88.52.21,2.36,1,4.66,1.74,3,1,6.9,2,9.61,1.67a3.46,3.46,0,0,0,3.07-1.87c.87-2.05-3.54-4.14-8.54-7.06-6.81-4-15.4-8.53-19.4-7.11-5.92,2.09-11.46,9.76-13.37,11.86s-11.34,9.2-11.34,9.2C491.67,380.32,502.07,389.53,503.24,388.83Z" transform="translate(-30.68 -24.32)"/><path class="cls-18" d="M424.4,388.2c8.17,7.05,40.56,27.89,50.23,24.4,15.18-5.48,29.45-17.49,37.44-23.85,2.54-2-17.74-26-22.17-21.6-5.72,5.72-18.18,15.14-22.08,16.84-2.66,1.17-23.8-4.46-38.52-8.27C417,372.54,414,379.26,424.4,388.2Z" transform="translate(-30.68 -24.32)"/><path class="cls-16" d="M463.93,381.87s3.7,4.33,12.07-3.17l14.73-12.56,22.7,21.21-36.77,9.92Z" transform="translate(-30.68 -24.32)"/><path class="cls-16" d="M447.4,406.41s24.06,24.7,66.22-19.47l-8.08-7Z" transform="translate(-30.68 -24.32)"/><polygon class="cls-19" points="540.8 346.33 526.52 351.17 521.49 346.08 523.42 337.96 530.21 335.67 540.8 346.33"/><rect class="cls-20" x="547.86" y="364.94" width="8.34" height="2.28" transform="translate(1005.18 -110.65) rotate(103.37)"/><rect class="cls-20" x="558.28" y="366.69" width="2.28" height="2.28" transform="translate(1015.97 -115.67) rotate(103.37)"/><path class="cls-19" d="M552,361.79l-44.09-8.36s-4.26,1.13-1.08,3.84S550.07,370,550.07,370" transform="translate(-30.68 -24.32)"/><path class="cls-17" d="M518.38,382.47c2.1-.84,4-1.58,5.26-2a16.16,16.16,0,0,0,9.21-7.61c1.89-3.13,12.22-6.93,6.94-9.83s-14,5.36-15,4.07a2.08,2.08,0,0,1,0-1.47C523.77,368.1,519.8,377.56,518.38,382.47Z" transform="translate(-30.68 -24.32)"/><path class="cls-17" d="M525.39,363.72c.07-.13.14-.07.1.08-.15.49-.78,2.65-.31,2.85.83.36,5.5-2.5,7.67-3.35.12-.05.19.11.08.15a33,33,0,0,0-3.16,1.72c-1,.56-3.87,2.47-4.91,2C524.17,366.9,525.13,364.21,525.39,363.72Z" transform="translate(-30.68 -24.32)"/><line class="cls-10" x1="529.86" y1="343.72" x2="541.37" y2="346.46"/><ellipse class="cls-9" cx="413.14" cy="714.91" rx="309.5" ry="49"/><path class="cls-21" d="M646.61,532.53" transform="translate(-30.68 -24.32)"/><polygon class="cls-22" points="485.64 638.91 485.64 641.84 485.63 638.91 485.64 638.91"/><rect class="cls-12" x="432.64" y="114.91" width="47" height="180" rx="11.49"/><polygon class="cls-11" points="453.17 159.91 452.64 174.91 457.42 171.06 463.35 170.62 453.17 159.91"/><polygon class="cls-10" points="453.18 134.67 452.68 148.67 457.15 145.08 462.68 144.67 453.18 134.67"/><polygon class="cls-11" points="452.53 198.28 462.63 194.66 463.18 189.6 458.51 185.93 453.72 187.66 452.53 198.28"/><rect class="cls-12" x="487.88" y="214.89" width="1.62" height="1.62" transform="translate(207.14 -280.23) rotate(38.17)"/><line class="cls-23" x1="457.48" y1="191.99" x2="452.27" y2="198.61"/><rect class="cls-11" x="490.52" y="208.88" width="5.65" height="2.42" transform="translate(204.68 -284.31) rotate(38.17)"/><polygon class="cls-11" points="452.35 222.12 462.44 218.5 462.99 213.43 458.32 209.77 453.53 211.49 452.35 222.12"/><rect class="cls-12" x="487.69" y="238.72" width="1.62" height="1.62" transform="translate(221.84 -275.02) rotate(38.17)"/><line class="cls-23" x1="457.29" y1="215.82" x2="452.09" y2="222.44"/><rect class="cls-11" x="490.33" y="232.71" width="5.65" height="2.42" transform="translate(219.37 -279.1) rotate(38.17)"/><path class="cls-24" d="M474.32,233.23s5-1,5,3-2,6,3,10" transform="translate(-30.68 -24.32)"/><rect class="cls-25" x="450.14" y="234.41" width="16" height="13"/><path class="cls-11" d="M483.32,293.23l7.4-9.25a2.25,2.25,0,0,1,2.1-.87,1.62,1.62,0,0,1,1.19.76,1.81,1.81,0,0,1-.22,2l-7.47,9.33-3-2" transform="translate(-30.68 -24.32)"/><path class="cls-11" d="M482.32,295.23s-2,0-3,3a3.1,3.1,0,0,1-4,2s4.33,1.44,8.08-.57a2.36,2.36,0,0,0-1-4.43Z" transform="translate(-30.68 -24.32)"/><polygon class="cls-26" points="376.43 538.21 373.14 558.77 341.41 727.77 332.14 727.77 357.14 559.77 359.79 538.21 376.43 538.21"/><path class="cls-26" d="M494.82,752.09h-9.28L453.81,586.52c-.44-2.3-.69-5.11-1-7.43l-2.3-16.56h16.64l2.66,20.56Z" transform="translate(-30.68 -24.32)"/><polygon class="cls-2" points="356.14 566.77 371.14 568.77 376.56 538.21 360.14 537.77 356.14 566.77"/><polygon class="cls-2" points="440.14 566.77 424.14 566.77 419.74 538.21 436.14 537.77 440.14 566.77"/><rect class="cls-26" x="349.23" y="517.29" width="101.84" height="21.1"/><path class="cls-17" d="M650.62,705.69c-3.19,1.39-97.13,9.57-100.91,7.62-1.44-.74-3.43-14.35-5.37-30.87-.41-3.56-.82-7.25-1.22-11-2.6-24.32-4.79-50.17-4.79-50.17l62.83-5.66L604.22,666l.68,11s37.37,13,41.28,15.54S653.8,704.31,650.62,705.69Z" transform="translate(-30.68 -24.32)"/><path class="cls-11" d="M650.62,705.69c-3.19,1.39-97.13,9.57-100.91,7.62-1.75-.9-4.32-20.81-6.59-41.86l61.1-5.5.68,11s37.37,13,41.28,15.54S653.8,704.31,650.62,705.69Z" transform="translate(-30.68 -24.32)"/><path class="cls-27" d="M650.62,705.69c-3.19,1.39-98,8.35-101.8,6.4-1.44-.73-2.54-13.13-4.48-29.65L604.9,677s37.37,13,41.28,15.54S653.8,704.31,650.62,705.69Z" transform="translate(-30.68 -24.32)"/><path class="cls-16" d="M648.94,702.05c-15.78,1-79.34,6.45-94.86,8.62-.13,0-.12.11,0,.1,15.66-.63,79.17-6.61,94.88-8.46C649.3,702.27,649.28,702,648.94,702.05Z" transform="translate(-30.68 -24.32)"/><path class="cls-11" d="M639.85,689.68a12.73,12.73,0,0,0-9.09,4.67,12.33,12.33,0,0,0-2.79,8.71c0,.1.19.09.19,0a14.7,14.7,0,0,1,11.7-13.17A.1.1,0,0,0,639.85,689.68Z" transform="translate(-30.68 -24.32)"/><path class="cls-11" d="M611.14,678c-6.31.46-13.42,3.32-16.89,8.82-.13.21.17.4.35.29a86.7,86.7,0,0,1,16.72-8.34A.4.4,0,0,0,611.14,678Z" transform="translate(-30.68 -24.32)"/><path class="cls-11" d="M616.17,679.5c-6.31.46-13.42,3.33-16.89,8.82-.13.21.17.4.35.29a87.86,87.86,0,0,1,16.72-8.34A.4.4,0,0,0,616.17,679.5Z" transform="translate(-30.68 -24.32)"/><path class="cls-11" d="M621.2,681c-6.31.46-13.42,3.32-16.89,8.81-.13.22.17.41.35.29a87.86,87.86,0,0,1,16.72-8.34A.39.39,0,0,0,621.2,681Z" transform="translate(-30.68 -24.32)"/><path class="cls-11" d="M626.24,682.45c-6.32.46-13.43,3.32-16.9,8.82-.13.21.17.4.35.29a86.7,86.7,0,0,1,16.72-8.34A.4.4,0,0,0,626.24,682.45Z" transform="translate(-30.68 -24.32)"/><path class="cls-17" d="M535.56,749.15c-3.47.21-94.53-24.27-97.42-27.4-1.1-1.18,1.7-14.65,5.53-30.83.83-3.49,1.71-7.1,2.62-10.75,5.88-23.74,12.68-48.78,12.68-48.78l61,16.2-14.36,48.33-3.14,10.61s30.68,25,33.47,28.74S539,748.94,535.56,749.15Z" transform="translate(-30.68 -24.32)"/><path class="cls-11" d="M535.56,749.15c-3.47.21-94.53-24.27-97.42-27.4-1.33-1.44,3.07-21,8.15-41.58l59.28,15.75-3.14,10.61s30.68,25,33.47,28.74S539,748.94,535.56,749.15Z" transform="translate(-30.68 -24.32)"/><path class="cls-28" d="M398.76,274.22s-20-3.8-24.74,15.23-26.65,57.1-26.65,57.1l23.79-19" transform="translate(-30.68 -24.32)"/><path class="cls-28" d="M395.91,275.17s12.37-3.8,19,1.91,12.66,19.48,9.18,43" transform="translate(-30.68 -24.32)"/><path class="cls-28" d="M417.72,289.05s4.83,30.85,20.06,48.93,8.68,35.81,8.68,35.81l-1.15-1.17s5.79-16.56-8.48-33.69-18.32-44.29-18.32-44.29" transform="translate(-30.68 -24.32)"/><path class="cls-29" d="M414.94,383.66s9.51,4.76,24.74-9.51-35.06-13-35.06-13Z" transform="translate(-30.68 -24.32)"/><polygon class="cls-28" points="348.1 270.84 334.77 314.61 394.73 326.98 395.68 304.14 392.82 285.11 388.06 261.32 377.6 255.61 370.93 252.75 349.05 265.13 348.1 270.84"/><path class="cls-30" d="M348.6,459.68c-10.8,23.43-6.18,51.2,12.52,69,.54.52,1.1,1,1.67,1.56,34.26,31.41,110.39,21.89,110.39,21.89s-2.81,20.94-4.71,37.12S439,672,439,672l75.18,13.32s39-79.94,22.84-121.81-102.77-65.66-102.77-65.66,3.8-20.94-4.76-37.12c0,0-29.5,9.52-78-9.51A34.78,34.78,0,0,1,348.6,459.68Z" transform="translate(-30.68 -24.32)"/><path class="cls-30" d="M429.45,460.74l104.27,25a44.32,44.32,0,0,1,21,11.5,31.64,31.64,0,0,1,8.9,14.93c3.81,16.18,53.29,148.46,53.29,148.46l-76.13,6.66s-23.79-77.08-20.94-119l-85.64-50.44S418,476,429.45,460.74Z" transform="translate(-30.68 -24.32)"/><path class="cls-16" d="M540.79,667.25s-29.5-98-23.79-124.66c0,0-106.62,32.35-151.35-9.52,0,0,48.53,39,155.16,1.9,0,0-5.8,35.13,31.36,131.29Z" transform="translate(-30.68 -24.32)"/><path class="cls-16" d="M550.31,693" transform="translate(-30.68 -24.32)"/><path class="cls-16" d="M552.21,652s20.94,4.76,51.39-1.9c0,0-20,10.47-48.54,7.61Z" transform="translate(-30.68 -24.32)"/><path class="cls-16" d="M571.24,688.19" transform="translate(-30.68 -24.32)"/><path class="cls-16" d="M473.18,552.1s-18.08,79-34.25,119.91l10.54,1.86S477.84,601.18,478.84,551Z" transform="translate(-30.68 -24.32)"/><path class="cls-31" d="M512.36,543.89s4.6,86.25-29.66,133.83l-1,1.86,32.4,5.75s15.73-35.84,18.33-47.9c0,0-18.33-62.49-15.48-94.84Z" transform="translate(-30.68 -24.32)"/><path class="cls-16" d="M450.45,654.16s18.24,11.33,49.2,15c0,0-22.31,3.38-48.37-8.63Z" transform="translate(-30.68 -24.32)"/><path class="cls-18" d="M411.16,341.39c29,22.37,55.35,48,58.45,63,2,9.47-5.3,24.68-10.6,33.67-2.58,4.37-43.5-21.83-39.13-25.06,10.81-8,12.95-11.56,12.33-13.68-.39-1.36-29.9-38-37.25-53.48C384.72,324.31,398.48,331.6,411.16,341.39Z" transform="translate(-30.68 -24.32)"/><path class="cls-16" d="M345.47,432.2c5.71-1.91,75.82,13.34,76.76,12.45,1.31-1.25-7.27-88.43-20.69-110-3.35-5.39-19.14-9.4-26.22-2.07C348,360.91,344.35,432.57,345.47,432.2Z" transform="translate(-30.68 -24.32)"/><path class="cls-18" d="M395.37,453.36c3.75,3.1,10.6-6.8,10.6-6.8a8.94,8.94,0,0,0,1.48,5.92c2.2,3,7.82.81,7.82.81a11.08,11.08,0,0,0,2.56,6c2.39,2.63,8.38,1.26,8.38,1.26a9.7,9.7,0,0,0,5.56,3.86c6.1,1.3,12.71-5.55,17-9.86S461,434,462.83,431.1L435.4,403.6s-24.54,13.91-28.82,19.69C403,428.15,389.63,448.63,395.37,453.36Z" transform="translate(-30.68 -24.32)"/><path class="cls-16" d="M405.92,446.39c2.59-6.09,6.63-11.55,10.59-16.78.09-.11.27,0,.18.14-4,5.16-6.71,11.5-10.49,16.8A.16.16,0,0,1,405.92,446.39Z" transform="translate(-30.68 -24.32)"/><path class="cls-16" d="M415,452.85a17.23,17.23,0,0,1,2.66-3.65c1-1.23,2.07-2.43,3.14-3.63,2.14-2.38,4.33-4.72,6.59-7,.1-.11.28,0,.18.13-2.13,2.38-4.22,4.8-6.24,7.26-1,1.24-2,2.48-3,3.73a20.07,20.07,0,0,1-3,3.4A.23.23,0,0,1,415,452.85Z" transform="translate(-30.68 -24.32)"/><path class="cls-16" d="M426.29,460.45a12.14,12.14,0,0,1,2.57-3.16c1-1.06,2-2.13,3-3.21,2-2.16,3.93-4.31,5.83-6.53.09-.11.27,0,.18.14-1.91,2.26-3.79,4.56-5.73,6.81-.94,1.1-1.9,2.2-2.86,3.29a11.15,11.15,0,0,1-2.85,2.76C426.33,460.59,426.27,460.51,426.29,460.45Z" transform="translate(-30.68 -24.32)"/><path class="cls-18" d="M369.62,334.92c-44.72,22.5-86.18,57.44-85.25,71,1,14.37,29.66,29.31,53.13,36.78,4.81,1.53,22.32-26.47,17.58-29-3.7-2-20.65-10.3-22.34-13.14-1.18-2,33.57-36,46.27-54.72C392.29,326.22,381.59,328.89,369.62,334.92Z" transform="translate(-30.68 -24.32)"/><path class="cls-17" d="M345.13,410.76s14.76,4.22,24.28,7.44c5.31,1.79,14.14,5.67,17.44,8.77,4.93,4.64,22.61,27.2,17.24,31.6-4.87,4-9.59-4.56-9.59-4.56s6,8.86,0,11.33-11.16-9.24-11.16-9.24,7.06,9,.36,11c-5.82,1.76-13.12-11.12-13.12-11.12s8.45,8.59,2.66,11c-4.39,1.81-12.09-6.11-16.47-11.23a33.9,33.9,0,0,0-8.44-7.07c-10.23-6.08-18.14-11.62-23.68-17.15C323.4,430.24,345.13,410.76,345.13,410.76Z" transform="translate(-30.68 -24.32)"/><path class="cls-16" d="M381.16,329.27s2.85-1.08,2.85,8.56c0,13.83-48.12,58.29-48.12,58.29s-7.23,6,24.11,17.68c0,0-5.6,22.26-21.28,28.81-12.21,5.1-41.39-16.4-53.2-25.64-7.26-5.68-7.82-15-2.38-22.39.4-.55.84-1.11,1.32-1.67C294.11,381.66,364.54,331.76,381.16,329.27Z" transform="translate(-30.68 -24.32)"/><path class="cls-16" d="M401.79,335.05s57.32,38.45,66.42,65l-35.89-.74-19.49-23.93S408.21,351.12,401.79,335.05Z" transform="translate(-30.68 -24.32)"/><path class="cls-5" d="M339.51,392.76s-10.69,6-17.36,4.07A13.32,13.32,0,0,0,337,401.59S333.07,397.24,339.51,392.76Z" transform="translate(-30.68 -24.32)"/><path class="cls-5" d="M345.42,387.1s17.69-10.69,23.4-24Z" transform="translate(-30.68 -24.32)"/><path class="cls-5" d="M382.11,328.32s5.61,8.9-2.91,21.1-9.87,12.34-8.71,11.32,12-18.36,7.81-30.52l3.81-1.9" transform="translate(-30.68 -24.32)"/><path class="cls-5" d="M368.82,363.09S346.9,394,360.22,414c0,0-8.85-2.45-12.85-5.56L345,387.32Z" transform="translate(-30.68 -24.32)"/><path class="cls-5" d="M288.73,418.14c3.2,2.29,12.7,6.4,33.42-3.22,0,0-9.14,13.33-25.22,10.61l-13.32-10.46.78.39A30.7,30.7,0,0,1,288.73,418.14Z" transform="translate(-30.68 -24.32)"/><path class="cls-5" d="M432.07,392.23s7.14,9.36,20.46.8l-7.27,6.57-12.72.09Z" transform="translate(-30.68 -24.32)"/><path class="cls-5" d="M401.84,335.8c7.37,12.25,12.16,41.05,12.16,41.05s13.79,17.13,14.74,18.08,6.26,2,6.26,2c-5.16-9.45-22.85-29.33-22.85-29.33" transform="translate(-30.68 -24.32)"/><path class="cls-5" d="M411.31,357.82" transform="translate(-30.68 -24.32)"/><path class="cls-5" d="M362.6,378s9.51,11.42,22.84,2.86c0,0-6.57,13.05-26.65-1l-1.9-1,4.67-7.09S360.69,376.05,362.6,378Z" transform="translate(-30.68 -24.32)"/><path class="cls-5" d="M357.55,383s18.37,12.1,27.89-2.17c0,0-9.62,12.28-26.65-1.91Z" transform="translate(-30.68 -24.32)"/><path class="cls-17" d="M393.86,346.11c-3.93-.51-10.78-9.21-12.88-15.92-.14-.46,1.37-4.69,3-9.93.95-3.18,1.94-6.74,2.6-10.06l19.8,9.22a53.69,53.69,0,0,0-4.56,12.34,6.73,6.73,0,0,0-.13,1.39c0,.06,0,.14,0,.23C401.53,336.05,400,346.9,393.86,346.11Z" transform="translate(-30.68 -24.32)"/><path class="cls-32" d="M401.64,333.15a1.75,1.75,0,0,0,0,.23,13.05,13.05,0,0,1-2.18-.32c-12-2.68-12-18.12-11.8-22.33l18.68,8.69a54.27,54.27,0,0,0-4.57,12.33A10.13,10.13,0,0,0,401.64,333.15Z" transform="translate(-30.68 -24.32)"/><path class="cls-17" d="M384.79,287.87c-2.5,7.46.88,29.29,6.1,34.28,7.56,7.23,20.24,8.25,26.46-.91,6-8.88,1.12-37.25-4.74-41.82C404,272.7,388.48,276.85,384.79,287.87Z" transform="translate(-30.68 -24.32)"/><path class="cls-16" d="M404.34,301.54c0-.05-.1.09-.09.15.33,1.45.47,3.17-.76,3.91,0,0,0,.1,0,.08C405.09,305.14,404.88,302.86,404.34,301.54Z" transform="translate(-30.68 -24.32)"/><path class="cls-16" d="M402.74,300.27c-2.39.28-1.65,5,.55,4.77S404.73,300,402.74,300.27Z" transform="translate(-30.68 -24.32)"/><path class="cls-16" d="M412.56,300c0-.06.13.05.13.11.18,1.48.64,3.14,2,3.42,0,0,.06.08,0,.08C413.08,303.64,412.49,301.42,412.56,300Z" transform="translate(-30.68 -24.32)"/><path class="cls-16" d="M413.64,298.26c2.33-.55,3.25,4.17,1.09,4.67S411.68,298.71,413.64,298.26Z" transform="translate(-30.68 -24.32)"/><path class="cls-17" d="M389,305.7c.15-.05-4.4-7.22-8.07-5.33-3.23,1.67.43,11.94,4.16,13.36a3.81,3.81,0,0,0,5.12-2Z" transform="translate(-30.68 -24.32)"/><path class="cls-32" d="M382,302.32a.05.05,0,0,0,0,.1c2.61,1.08,4,3.52,4.93,6.05a2.11,2.11,0,0,0-3.14-.59c-.07.05,0,.15.07.14a2.35,2.35,0,0,1,2.57.83,11.86,11.86,0,0,1,1.22,2.1c.12.23.54.11.46-.16a.14.14,0,0,1,0-.06C388.16,307.38,385.59,302.68,382,302.32Z" transform="translate(-30.68 -24.32)"/><path class="cls-17" d="M416.07,318.59a2,2,0,0,0-2-2.16h-4.21c-3,0-8.68.83-8.81,1.47-.32,1.57-.32,7.67,11.86,4.62A4.49,4.49,0,0,0,416.07,318.59Z" transform="translate(-30.68 -24.32)"/><path class="cls-16" d="M411.82,316.56s-3.91,2.51-8,.56C403.8,317.12,408.18,322.1,411.82,316.56Z" transform="translate(-30.68 -24.32)"/><path class="cls-28" d="M384.82,301.09l4.42,4.54s-2.6-19.13,10.46-23.31a9.62,9.62,0,0,0,3.82-2.39h0a22.14,22.14,0,0,0,6.52,4.6,17.4,17.4,0,0,1,9.36,11.29c3,12,6.82,33.72.71,52.57l16.25,13.69,7,5.93s-2.76-21.46-11.32-34.79C427.74,326.49,423,303,422,292.84A21.83,21.83,0,0,0,415.33,279a18.65,18.65,0,0,0-16.57-4.78S375,274.22,375,298s-27.9,48.72-27.9,48.72,19.64-12.45,30-16.31c0,0,3.3-.63,4.42-2.25s4-14,4-14a14.64,14.64,0,0,1-5.79-11.54s.19-3.39,3.17-2.56A4.73,4.73,0,0,1,384.82,301.09Z" transform="translate(-30.68 -24.32)"/><path class="cls-21" d="M455.64,300.83" transform="translate(-30.68 -24.32)"/><path class="cls-21" d="M416.84,286.59" transform="translate(-30.68 -24.32)"/><path class="cls-29" d="M402.81,327.84a30,30,0,0,0-1.27,6.82s20.17,14.93,24.4,18.64c0,0-11.19-18.16-6.81-36.25C419.13,317.05,417.33,328.17,402.81,327.84Z" transform="translate(-30.68 -24.32)"/><path class="cls-33" d="M404.23,296.23a2,2,0,0,1,.93,2.78s-5.57-1.85-8.35.93l-1.86.93a10.41,10.41,0,0,1,4.64-3.71A16.24,16.24,0,0,1,404.23,296.23Z" transform="translate(-30.68 -24.32)"/><path class="cls-33" d="M410.7,295.33a1.62,1.62,0,0,0,.09,2.34s3.64-2.95,6.51-1.65l1.65.17a8.34,8.34,0,0,0-4.52-1.47A13.06,13.06,0,0,0,410.7,295.33Z" transform="translate(-30.68 -24.32)"/><path class="cls-33" d="M409.23,303.72s2.85,3.81,2.85,6.67-4.75,1.9-4.75,1.9,4.75,0,3.8-2.86Z" transform="translate(-30.68 -24.32)"/><path class="cls-28" d="M403.52,279.93a57.08,57.08,0,0,1-10.47,9.52c-5.71,3.81-3.87,15.6-3.87,15.6L387.61,285Z" transform="translate(-30.68 -24.32)"/><path class="cls-29" d="M379.65,303.72s1.66,20.58-15.58,33c0,0,10.9-4.82,16.75-6.61l4.87-16.15S380.82,312.09,379.65,303.72Z" transform="translate(-30.68 -24.32)"/><path class="cls-34" d="M375.13,462.39s-4.31-11.3-10.31-16.3c0,0,8.63,13.81,10.31,17.4Z" transform="translate(-30.68 -24.32)"/><path class="cls-34" d="M386.82,461.65s-4.31-11.31-10.31-16.31c0,0,8.62,13.81,10.31,17.41Z" transform="translate(-30.68 -24.32)"/><path class="cls-34" d="M393.82,453.65s-4.31-11.31-10.31-16.31c0,0,8.62,13.81,10.31,17.41Z" transform="translate(-30.68 -24.32)"/><rect class="cls-35" x="319.72" y="440.65" width="107.98" height="4.84"/><polygon class="cls-35" points="362.66 445.49 467.89 445.49 476.65 374.02 371.42 374.02 362.66 445.49"/><path class="cls-36" d="M401.82,398.09a3.66,3.66,0,0,1,3.5,2.84c1,3-8.17,69-8.17,69l-6.64-.15" transform="translate(-30.68 -24.32)"/><path class="cls-5" d="M360,413.8s-4.5-24.37,12.16-26c0,0-6.34-.67-14.34-5.67C357.82,382.09,351.18,399.51,360,413.8Z" transform="translate(-30.68 -24.32)"/><path class="cls-16" d="M455.34,380.21s2.47,5.13,12.48,0l17.43-8.4,16.57,26.28-38.08.25Z" transform="translate(-30.68 -24.32)"/><path class="cls-5" d="M456.28,381.29s6.54,3.8,6.54,9.8c0,0,3.08-3.46,1-9.23C463.86,381.86,458.73,383.49,456.28,381.29Z" transform="translate(-30.68 -24.32)"/><polygon class="cls-5" points="400.89 374.02 397.03 369.42 400.14 369.77 403.66 372.44 404.66 374.02 400.89 374.02"/><path class="cls-16" d="M401.7,300.69c-.34.22-.67.62-1.09.67s-.84-.36-1.16-.75c0,0-.06,0-.06.05,0,.75.29,1.52,1.1,1.62s1.26-.58,1.44-1.34C402,300.8,401.84,300.6,401.7,300.69Z" transform="translate(-30.68 -24.32)"/><path class="cls-16" d="M414.62,298.69c.34.22.67.62,1.08.67s.85-.36,1.17-.75c0,0,.06,0,.06.05,0,.75-.29,1.52-1.1,1.62s-1.26-.58-1.44-1.34C414.36,298.8,414.48,298.6,414.62,298.69Z" transform="translate(-30.68 -24.32)"/><polygon class="cls-37" points="468.14 445.77 476.49 375.37 439.26 445.49 468.14 445.77"/><polygon class="cls-36" points="468.14 440.77 468.14 445.49 354.3 445.49 360.04 440.65 468.14 440.77"/><path class="cls-8" d="M688.75,641c-4.64-2.39-10.1-2.7-15.24-1.85-2.77.46-5.65,1.28-7.53,3.36s-2.24,5.73-.08,7.51a7.18,7.18,0,0,0,4.75,1.21c4-.05,8.5-.76,11.71,1.67,1.84,1.38,3.06,3.68,5.26,4.36a5.19,5.19,0,0,0,5.71-2.54,8.88,8.88,0,0,0,.64-6.55A10,10,0,0,0,688.75,641Z" transform="translate(-30.68 -24.32)"/><path class="cls-8" d="M699.37,620.5c-2.84,4-8.35,2.71-10.9.24s-3.64-6.06-4.62-9.47c-2.24-7.8-4.51-16-2.84-23.94a13.3,13.3,0,0,1,3.06-6.5,6.9,6.9,0,0,1,6.58-2.19c2.78.73,4.51,3.45,5.75,6A57,57,0,0,1,702,609.16c0,4-.45,8.08-2.67,11.34" transform="translate(-30.68 -24.32)"/><path class="cls-8" d="M707.15,626.31c-3.08-3.65-3.66-9-2.29-13.56s4.46-8.47,8-11.64a43.21,43.21,0,0,1,14.37-8.49,15.5,15.5,0,0,1,6.47-1.1,6.79,6.79,0,0,1,5.42,3.29c1.52,2.88.07,6.38-1.5,9.24a110.33,110.33,0,0,1-9.45,14.38c-2.83,3.65-6.07,7.25-10.38,8.9s-8.8,1.45-11.08-1.54" transform="translate(-30.68 -24.32)"/><path class="cls-7" d="M699.56,681.57a8.47,8.47,0,0,1-.26-1.84c-.13-1.34-.29-3-.49-5a70.49,70.49,0,0,0-1.13-7.37,56.86,56.86,0,0,0-2.67-8.69,32.36,32.36,0,0,0-4.44-7.86,16.59,16.59,0,0,0-5.61-4.67,16,16,0,0,0-4.73-1.47,9.3,9.3,0,0,1-1.83-.26,9,9,0,0,1,1.87,0,14.31,14.31,0,0,1,4.92,1.28,16.47,16.47,0,0,1,5.92,4.71,31.24,31.24,0,0,1,4.6,8,52.75,52.75,0,0,1,2.66,8.83,62.5,62.5,0,0,1,1,7.46c.16,2.13.22,3.86.25,5.05A9.4,9.4,0,0,1,699.56,681.57Z" transform="translate(-30.68 -24.32)"/><path class="cls-7" d="M699.21,677.7a4.29,4.29,0,0,1-.05-.85c0-.64,0-1.45,0-2.44,0-2.12,0-5.18-.11-9-.19-7.57-.84-15.72-2.1-27.21-1.19-10.8-2.79-23.37-4.48-31.54-.36-1.86-.73-3.53-1.07-5s-.61-2.73-.88-3.75l-.57-2.38a4.2,4.2,0,0,1-.15-.84,3.19,3.19,0,0,1,.3.8l.71,2.34c.31,1,.64,2.27,1,3.73s.79,3.13,1.19,5a276.5,276.5,0,0,1,4.71,29.27c1.26,11.51,1.83,22,1.88,29.58,0,3.8,0,6.87-.14,9-.06,1-.11,1.8-.15,2.44A3.22,3.22,0,0,1,699.21,677.7Z" transform="translate(-30.68 -24.32)"/><path class="cls-7" d="M699.16,657.49a17.15,17.15,0,0,1,0-2.55c.09-1.64.32-4,.78-6.91A89.91,89.91,0,0,1,702.21,638a82.32,82.32,0,0,1,4.2-11.91,63.72,63.72,0,0,1,12.36-19.25,32.8,32.8,0,0,1,2.91-2.7c.45-.38.84-.75,1.24-1.05l1.13-.78a14.86,14.86,0,0,1,2.15-1.37c.12.16-3,2-7,6.27a66.8,66.8,0,0,0-12,19.18,93.35,93.35,0,0,0-4.23,11.8c-1.1,3.7-1.84,7.1-2.39,10s-.83,5.22-1,6.84A16.88,16.88,0,0,1,699.16,657.49Z" transform="translate(-30.68 -24.32)"/><polygon class="cls-4" points="688.02 668.83 685.99 696.58 650.34 696.58 648.32 668.83 688.02 668.83"/><rect class="cls-38" x="644.06" y="657.89" width="47.4" height="10.94"/><polygon class="cls-38" points="691.46 693.51 691.46 696.55 689.24 696.55 644.85 696.55 644.85 693.51 691.46 693.51"/><polygon class="cls-38" points="687.05 703.88 689.24 698.55 646.54 698.55 649.09 703.88 687.05 703.88"/><path class="cls-38" d="M676.7,723.17c0,.12,9.71.22,21.68.22s21.69-.1,21.69-.22-9.71-.22-21.69-.22S676.7,723.05,676.7,723.17Z" transform="translate(-30.68 -24.32)"/><path class="cls-11" d="M548.82,713.09s-3-4-3-14c0,0,69,5,106,1,0,0,1.06,3,0,5S571,713.09,548.82,713.09Z" transform="translate(-30.68 -24.32)"/><path class="cls-11" d="M639.82,690.09s-10,3-9,12h-2.56S628.82,690.09,639.82,690.09Z" transform="translate(-30.68 -24.32)"/><path class="cls-27" d="M535.67,749.16c-3.47.2-94.48-24.49-97.35-27.62-1.1-1.19,1.72-14.65,5.6-30.82l58.72,15.74s30.61,25,33.4,28.82S539.14,749,535.67,749.16Z" transform="translate(-30.68 -24.32)"/><path class="cls-11" d="M531.07,730.42a12.67,12.67,0,0,0-10.13,1.25,12.25,12.25,0,0,0-5.62,7.22c0,.09.14.14.18.05A14.66,14.66,0,0,1,531,730.61C531.15,730.63,531.2,730.45,531.07,730.42Z" transform="translate(-30.68 -24.32)"/><path class="cls-11" d="M508.14,709.59c-6.08-1.75-13.74-1.51-18.89,2.45-.2.16,0,.44.23.39a87.69,87.69,0,0,1,18.57-2.06A.4.4,0,0,0,508.14,709.59Z" transform="translate(-30.68 -24.32)"/><path class="cls-11" d="M512.36,712.7c-6.08-1.74-13.75-1.5-18.9,2.46-.2.15,0,.44.23.39a87.78,87.78,0,0,1,18.57-2.07A.4.4,0,0,0,512.36,712.7Z" transform="translate(-30.68 -24.32)"/><path class="cls-11" d="M516.57,715.82c-6.08-1.74-13.74-1.51-18.89,2.46-.2.15,0,.43.23.39a87.06,87.06,0,0,1,18.57-2.07A.4.4,0,0,0,516.57,715.82Z" transform="translate(-30.68 -24.32)"/><path class="cls-11" d="M520.79,718.94c-6.08-1.75-13.75-1.51-18.9,2.45-.2.16,0,.44.23.39a87.77,87.77,0,0,1,18.57-2.06A.4.4,0,0,0,520.79,718.94Z" transform="translate(-30.68 -24.32)"/><path class="cls-11" d="M437.82,722.09s-.76-5.51,2.68-14.9c0,0,62.19,27.9,98.32,36.9,0,0-.32,3.49-2,5S458.67,729.74,437.82,722.09Z" transform="translate(-30.68 -24.32)"/><path class="cls-11" d="M530.91,730.79s-10.42-.63-12.58,8.16l-2.41-.88S520.58,727,530.91,730.79Z" transform="translate(-30.68 -24.32)"/><rect class="cls-2" x="150.64" y="445.91" width="470" height="10"/><rect class="cls-26" x="162.64" y="455.91" width="446" height="10"/><polygon class="cls-26" points="232.45 466.09 227.84 494.91 183.34 731.91 170.34 731.91 205.4 496.31 209.11 466.09 232.45 466.09"/><polygon class="cls-2" points="204 506.13 225.03 508.93 232.64 466.09 209.6 465.46 204 506.13"/><polygon class="cls-26" points="543.53 465.86 548.14 494.69 592.64 731.91 605.64 731.68 570.58 496.09 566.87 465.86 543.53 465.86"/><polygon class="cls-2" points="571.98 505.91 550.95 508.71 543.34 465.86 566.37 465.24 571.98 505.91"/><path class="cls-11" d="M741.11,277.55H715.44a2.23,2.23,0,0,0-.88.18h0a2.67,2.67,0,0,0-.81.52h0a2.75,2.75,0,0,0-.54.84h0a2.28,2.28,0,0,0-.19.93v27.26a2.56,2.56,0,0,0,2.42,2.57h25.67a2.15,2.15,0,0,0,.87-.18h0a2.09,2.09,0,0,0,.79-.52h0a3,3,0,0,0,.56-.83h0a2.84,2.84,0,0,0,.19-.91h0V280.13A2.55,2.55,0,0,0,741.11,277.55ZM718.4,304.46V286.22l17.75,18.24Zm21.54-3.26-17.73-18.27h17.73Z" transform="translate(-30.68 -24.32)"/><path class="cls-11" d="M670.89,272.16h-27a2.6,2.6,0,0,0-2.63,2.57h0v27.15a2.59,2.59,0,0,0,2.61,2.58H671a2.58,2.58,0,0,0,2.58-2.58V274.73A2.62,2.62,0,0,0,670.89,272.16Zm-2.73,26.92H646.62V277.55h21.54Z" transform="translate(-30.68 -24.32)"/><path class="cls-11" d="M742.68,313.44h-27A2.61,2.61,0,0,0,713,316v27.17a2.62,2.62,0,0,0,2.65,2.57h27a2.6,2.6,0,0,0,2.64-2.57h0V316a2.6,2.6,0,0,0-2.64-2.56Zm-2.74,26.91H718.4v-9h21.54Zm0-12.56H718.4v-9h21.54Z" transform="translate(-30.68 -24.32)"/><path class="cls-11" d="M670.89,311.64h-27a2.62,2.62,0,0,0-2.63,2.59v27.15a2.57,2.57,0,0,0,2.57,2.56h27.08a2.61,2.61,0,0,0,2.65-2.56V314.23A2.64,2.64,0,0,0,670.89,311.64Zm-2.73,26.92H646.62V317h21.54Z" transform="translate(-30.68 -24.32)"/><path class="cls-11" d="M694,312.14a17.19,17.19,0,0,0-17.18,17.68,17.37,17.37,0,0,0,16.7,16.69,17.18,17.18,0,0,0,17.67-17.18v0A17.2,17.2,0,0,0,694,312.14Zm-.21,29.21a12,12,0,1,1,12-12h0A12.06,12.06,0,0,1,693.82,341.35Z" transform="translate(-30.68 -24.32)"/><path class="cls-11" d="M679.76,265h27a2.6,2.6,0,0,0,2.65-2.55v-27.2a2.55,2.55,0,0,0-2.57-2.55h-27.1a2.59,2.59,0,0,0-2.63,2.56h0v27.17a2.6,2.6,0,0,0,2.63,2.57Zm17.11-26.92h9V259.6h-9Zm-12.56,0h7.18V259.6h-7.18Z" transform="translate(-30.68 -24.32)"/><path class="cls-11" d="M742.69,232.69H715.76a2.62,2.62,0,0,0-2.74,2.49v27.24a2.61,2.61,0,0,0,2.66,2.57h27a2.6,2.6,0,0,0,2.63-2.57h0V235.25a2.59,2.59,0,0,0-2.63-2.56Zm-2.75,26.91H718.4v-9h21.54Zm0-12.56H718.4v-9h21.54Z" transform="translate(-30.68 -24.32)"/><path class="cls-11" d="M656.37,231.66a17.19,17.19,0,1,0,17.17,17.21v0A17.21,17.21,0,0,0,656.37,231.66Zm.64,29.23a12,12,0,1,1,12-12A12,12,0,0,1,657,260.89Z" transform="translate(-30.68 -24.32)"/><path class="cls-11" d="M693.82,272.93A17.19,17.19,0,1,0,711,290.12,17.2,17.2,0,0,0,693.82,272.93Zm-.54,29.67a12,12,0,0,1-12-12.21,12.2,12.2,0,0,1,11.87-11.87,12,12,0,0,1,12.21,12v0a12.07,12.07,0,0,1-12,12.08h0Z" transform="translate(-30.68 -24.32)"/><path class="cls-39" d="M862.32,257q3.33-6.39,6.5-13.26" transform="translate(-30.68 -24.32)"/><path class="cls-39" d="M524.82,442.73s10.5-86.5,87.5-77.5c74.42,8.7,185.75,15,250-108.24" transform="translate(-30.68 -24.32)"/><path class="cls-39" d="M514.82,153.73" transform="translate(-30.68 -24.32)"/><path class="cls-39" d="M519.67,132.32s10.5,86.5,87.5,77.5,193.5-15.39,256.5,121.5" transform="translate(-30.68 -24.32)"/><path class="cls-40" d="M231.92,407.8s-3.55,9.92-7.68,20-8.56,33.58-7.93,34.23,9.82-21.92,12.67-32.3S234,408.68,234,408.68Z" transform="translate(-30.68 -24.32)"/><polygon class="cls-6" points="201.2 383.22 198.44 389.94 202.21 391.07 203.73 384.08 201.2 383.22"/><path class="cls-5" d="M231.88,407.55c.4-5.54,4.79-10,4.79-10s1.79,6.49-2.26,10.89Z" transform="translate(-30.68 -24.32)"/><path class="cls-13" d="M221,394.79s1.4,10.45,3.33,21.19,1.36,34.63.61,35.13-5-23.49-5.64-34.24-.56-21.66-.56-21.66Z" transform="translate(-30.68 -24.32)"/><polygon class="cls-6" points="190.4 370.23 191.7 377.38 187.78 377.69 187.75 370.54 190.4 370.23"/><path class="cls-5" d="M218.43,394.86s2.51-.25,2.65-.31a60.54,60.54,0,0,0,1.86-7.45c-.15-.2-8.44,1-8.4,1.74S218.43,394.86,218.43,394.86Z" transform="translate(-30.68 -24.32)"/><rect class="cls-41" x="173.9" y="410.02" width="29.22" height="36.79" rx="4.38"/><rect class="cls-41" x="177.59" y="404.21" width="21.85" height="5.81"/><polygon class="cls-4" points="123.37 708.91 161.57 708.91 165.69 671.54 119.25 671.54 123.37 708.91"/><rect class="cls-38" x="147.89" y="691.24" width="50.52" height="9.23" transform="translate(315.62 1367.4) rotate(180)"/><polygon class="cls-38" points="161.67 716.49 163.85 711.15 121.17 711.15 123.71 716.49 161.67 716.49"/><polygon class="cls-38" points="165.82 705.92 165.82 708.96 163.59 708.96 119.2 708.96 119.2 705.92 165.82 705.92"/><path class="cls-16" d="M208.32,434.23s11,4,22,0C230.32,434.23,220.32,442.23,208.32,434.23Z" transform="translate(-30.68 -24.32)"/><rect class="cls-42" x="176.64" y="417.91" width="4" height="19" rx="2"/><rect class="cls-42" x="176.64" y="438.91" width="4" height="5" rx="2"/><path class="cls-2" d="M206.78,434.93a27.18,27.18,0,0,0,25,.09,4.71,4.71,0,0,0-1.65-.68s-6.8,2.89-21.8-.11Z" transform="translate(-30.68 -24.32)"/><rect class="cls-4" x="832.14" y="210.41" width="6.5" height="102"/><path class="cls-11" d="M239.21,276.27l1.2,1.76a12.54,12.54,0,0,0,5.46,4.47l2,.84-1.76,1.2a12.58,12.58,0,0,0-4.47,5.47l-.83,2-1.21-1.76a12.61,12.61,0,0,0-5.46-4.47l-2-.83,1.76-1.21a12.61,12.61,0,0,0,4.47-5.46Z" transform="translate(-30.68 -24.32)"/><path class="cls-11" d="M263.83,147.82l2.21,3.23a22.93,22.93,0,0,0,10,8.18l3.61,1.53L276.41,163a22.93,22.93,0,0,0-8.18,10l-1.53,3.61-2.21-3.23a22.93,22.93,0,0,0-10-8.18l-3.61-1.53,3.23-2.21a22.93,22.93,0,0,0,8.18-10Z" transform="translate(-30.68 -24.32)"/><path class="cls-11" d="M293.34,192.47l3,4.36a30.94,30.94,0,0,0,13.48,11l4.86,2.06-4.36,3a31.09,31.09,0,0,0-11,13.48l-2,4.86-3-4.36a31,31,0,0,0-13.48-11l-4.86-2.06,4.36-3a31.07,31.07,0,0,0,11-13.48Z" transform="translate(-30.68 -24.32)"/></svg>