<svg id="Layer_1" data-name="Layer 1" xmlns="http://www.w3.org/2000/svg" viewBox="0 0 131.87 138.54"><defs><style>.cls-1{font-size:21.61px;font-family:Oxygen-Bold, Oxygen;font-weight:700;letter-spacing:0.09em;}.cls-1,.cls-3{fill:#f96755;}.cls-2{letter-spacing:0.1em;}</style></defs><title>logo3</title><text class="cls-1" transform="translate(0 131.6)">W<tspan class="cls-2" x="23.59" y="0">EB VIBES</tspan></text><path class="cls-3" d="M40.49,76.39a8.46,8.46,0,1,0-16.91-.09,8.24,8.24,0,0,0,.91,3.87,8.45,8.45,0,0,0,16-3.78Z" transform="translate(-6.67 -9.38)"/><path class="cls-3" d="M40.52,65.63l.07-14.51L23.87,51a17.87,17.87,0,0,1,.21,11.27,10.34,10.34,0,0,0-.5,3.12v.12Z" transform="translate(-6.67 -9.38)"/><path class="cls-3" d="M40.59,51.89c0-.26,0-.51,0-.77a17.67,17.67,0,0,0-30.4-11.57A17.67,17.67,0,0,1,23.87,51a15.23,15.23,0,0,1,.74,5.6,20.77,20.77,0,0,1-.5,5.56,11.5,11.5,0,0,0-.53,3.35h0a8.39,8.39,0,0,0,.91,3.87,17.68,17.68,0,0,0,16.1-17.52Z" transform="translate(-6.67 -9.38)"/><path class="cls-3" d="M23.58,65.54s1.88-18.23-7.11-23.63C16.47,41.91,34.74,48.43,23.58,65.54Z" transform="translate(-6.67 -9.38)"/><polygon class="cls-3" points="33.82 56.88 33.88 44.9 30.15 52.4 33.82 56.88"/><rect class="cls-3" x="16.91" y="45.28" width="16.91" height="21.5"/><path class="cls-3" d="M64.08,54.47A8.52,8.52,0,0,1,62.2,60a8.45,8.45,0,0,1-15-5.09A8.23,8.23,0,0,1,48,51a8.45,8.45,0,0,1,16.08,3.43Z" transform="translate(-6.67 -9.38)"/><path class="cls-3" d="M64.34,65.22l.4,14.51L48,80.19a17.78,17.78,0,0,0,0-11.27,10.61,10.61,0,0,1-.57-3.11v-.12Z" transform="translate(-6.67 -9.38)"/><path class="cls-3" d="M64.72,79c0,.25,0,.51,0,.77A17.67,17.67,0,0,1,34.58,92,17.67,17.67,0,0,0,48,80.19a15.08,15.08,0,0,0,.62-5.61A21.05,21.05,0,0,0,48,69a11.52,11.52,0,0,1-.61-3.34h0a8.23,8.23,0,0,1,.83-3.89A17.68,17.68,0,0,1,64.72,79Z" transform="translate(-6.67 -9.38)"/><path class="cls-3" d="M47.41,65.69s2.29,18.19-6.58,23.78C40.83,89.47,59,82.55,47.41,65.69Z" transform="translate(-6.67 -9.38)"/><polygon class="cls-3" points="57.63 55.21 57.96 67.19 54.06 59.77 57.63 55.21"/><rect class="cls-3" x="47.41" y="54.88" width="16.91" height="21.5" transform="translate(-8.13 -8.12) rotate(-1.28)"/><path class="cls-3" d="M91.06,78.44a9.67,9.67,0,1,0-9.71,9.63A9.61,9.61,0,0,0,91.06,78.44Z" transform="translate(-6.67 -9.38)"/><path class="cls-3" d="M91.09,66.14l.08-16.58-19.11-.1a20.34,20.34,0,0,1,.24,12.88,11.64,11.64,0,0,0-.57,3.57V66Z" transform="translate(-6.67 -9.38)"/><path class="cls-3" d="M91.17,50.44c0-.29,0-.59,0-.88A20.19,20.19,0,0,0,56.4,36.33,20.22,20.22,0,0,1,72.06,49.46a17.3,17.3,0,0,1,.85,6.39,23.75,23.75,0,0,1-.57,6.36A12.78,12.78,0,0,0,71.73,66h0a9.49,9.49,0,0,0,1,4.43,20.21,20.21,0,0,0,18.39-20Z" transform="translate(-6.67 -9.38)"/><path class="cls-3" d="M71.73,66s2.15-20.84-8.12-27C63.61,39,84.49,46.48,71.73,66Z" transform="translate(-6.67 -9.38)"/><polygon class="cls-3" points="84.39 57.48 84.46 43.79 80.19 52.36 84.39 57.48"/><rect class="cls-3" x="65.06" y="44.23" width="19.34" height="24.57"/><path class="cls-3" d="M118,52.49A9.66,9.66,0,1,1,98.7,53a9.46,9.46,0,0,1,.94-4.44A9.66,9.66,0,0,1,118,52.49Z" transform="translate(-6.67 -9.38)"/><path class="cls-3" d="M118.33,64.79l.45,16.58-19.1.52A20.38,20.38,0,0,0,99.63,69,11.72,11.72,0,0,1,99,65.46v-.14Z" transform="translate(-6.67 -9.38)"/><path class="cls-3" d="M118.76,80.48a8.81,8.81,0,0,1,0,.89,20.19,20.19,0,0,1-34.44,14A20.21,20.21,0,0,0,99.68,81.89a17.41,17.41,0,0,0,.7-6.41,24,24,0,0,0-.71-6.34,13.42,13.42,0,0,1-.7-3.82h0a9.59,9.59,0,0,1,1-4.44,20.2,20.2,0,0,1,18.84,19.6Z" transform="translate(-6.67 -9.38)"/><path class="cls-3" d="M99,65.32s2.62,20.79-7.51,27.19C91.46,92.51,112.17,84.59,99,65.32Z" transform="translate(-6.67 -9.38)"/><polygon class="cls-3" points="111.61 54.68 111.99 68.37 107.53 59.9 111.61 54.68"/><rect class="cls-3" x="98.7" y="28.57" width="19.34" height="48.97" transform="translate(-7.83 -6.94) rotate(-1.28)"/><path class="cls-3" d="M98.06,29.37c0-.29,0-.57,0-.86a19.87,19.87,0,0,1,34.19-13,19.89,19.89,0,0,0-15.41,12.92A16.77,16.77,0,0,0,116,34.7a23.38,23.38,0,0,0,.55,6.25,13.1,13.1,0,0,1,.61,3.77h0a9.41,9.41,0,0,1-1,4.36A19.86,19.86,0,0,1,98.06,29.37Z" transform="translate(-6.67 -9.38)"/><path class="cls-3" d="M117.19,44.72s-2.12-20.5,8-26.57C125.18,18.15,104.63,25.48,117.19,44.72Z" transform="translate(-6.67 -9.38)"/></svg>