<svg id="Layer_1" data-name="Layer 1" xmlns="http://www.w3.org/2000/svg" viewBox="0 0 127.32 127.3"><defs><style>.cls-1{fill:#f96755;}</style></defs><title>logotrv2</title><path d="M52.78,97.46a11.72,11.72,0,1,0-23.44-.13,11.55,11.55,0,0,0,1.27,5.37,11.71,11.71,0,0,0,22.17-5.24Z" transform="translate(-29.34 -37.17)"/><path d="M52.81,83.07l0-19.92-23-.3a24.62,24.62,0,0,1,1.41,8.36A24,24,0,0,1,30,78.45a14.86,14.86,0,0,0-.69,4.34V83Z" transform="translate(-29.34 -37.17)"/><polygon points="23.43 46.78 23.51 30.18 18.34 40.57 23.43 46.78"/><rect y="30.71" width="23.43" height="29.78"/><path d="M86.67,66.94a11.72,11.72,0,1,1-23.43.48A11.45,11.45,0,0,1,64.43,62a11.71,11.71,0,0,1,22.24,4.9Z" transform="translate(-29.34 -37.17)"/><path d="M86.93,81.84l.41,20.1-23.16.47a24.59,24.59,0,0,0,0-15.6,14.8,14.8,0,0,1-.76-4.32v-.16Z" transform="translate(-29.34 -37.17)"/><path d="M87.32,100.87c0,.36-.08,1.95-.09,2.3-.29,13-8.62,20.77-21.78,21-7,.14-14.69-1.53-20-5.59a24.5,24.5,0,0,0,18.73-16.21,21,21,0,0,0,.91-7.76A28.54,28.54,0,0,0,64.28,87a15.92,15.92,0,0,1-.81-4.63h0a11.52,11.52,0,0,1,1.19-5.39,24.49,24.49,0,0,1,22.66,23.93Z" transform="translate(-29.34 -37.17)"/><path d="M63.47,82.33s3.87,25.78-9.34,32.88C54.13,115.21,80.06,106.09,63.47,82.33Z" transform="translate(-29.34 -37.17)"/><polygon points="57.54 43.8 57.88 60.39 52.55 50.09 57.54 43.8"/><rect x="63.47" y="67.43" width="23.43" height="29.78" transform="translate(-30.6 -36) rotate(-0.88)"/><path d="M94.5,52.63" transform="translate(-29.34 -37.17)"/><path d="M29.34,57.49V37.57a30.36,30.36,0,0,1,11,.32A16.36,16.36,0,0,1,52.91,54.08L52.84,60Z" transform="translate(-29.34 -37.17)"/><path d="M156.24,81.85l.42,20.09-23.16.48A24.76,24.76,0,0,0,134.78,94a24.31,24.31,0,0,0-1.24-7.23,26.38,26.38,0,0,1-.46-5.84V97.86Z" transform="translate(-29.34 -37.17)"/><path d="M156.64,100.88c0,.35-.08,1.94-.1,2.3-.28,13-8.61,20.76-21.78,21-7,.15-14.69-1.53-20-5.59a24.48,24.48,0,0,0,18.74-16.2,21.18,21.18,0,0,0,.9-7.76,28.5,28.5,0,0,0-.81-7.69,7,7,0,0,1-.51-3l.5-1.86c0-1.93-.41-3.51.39-5.14a24.48,24.48,0,0,1,22.67,23.93Z" transform="translate(-29.34 -37.17)"/><path d="M133.08,81s3.58,27.14-9.64,34.24C123.44,115.21,149.67,104.73,133.08,81Z" transform="translate(-29.34 -37.17)"/><polygon points="126.85 43.8 127.19 60.4 121.86 50.09 126.85 43.8"/><path d="M121.63,97.64a11.71,11.71,0,1,0-11.95,11.49A11.7,11.7,0,0,0,121.63,97.64Z" transform="translate(-29.34 -37.17)"/><path d="M121.89,79.54l.41-20.1L99.14,59a24.62,24.62,0,0,1,0,15.61,14.69,14.69,0,0,0-.76,4.32v.16Z" transform="translate(-29.34 -37.17)"/><path d="M122.28,60.51c0-.35-.08-1.94-.09-2.3-.29-13-8.62-20.76-21.78-21-7-.15-14.69,1.52-20,5.59A24.47,24.47,0,0,1,99.14,59a21,21,0,0,1,.91,7.76,28.54,28.54,0,0,1-.81,7.69,15.93,15.93,0,0,0-.81,4.64h0a11.48,11.48,0,0,0,1.19,5.38,24.49,24.49,0,0,0,22.66-23.93Z" transform="translate(-29.34 -37.17)"/><path d="M98.43,79.06s3.87-25.78-9.34-32.88C89.09,46.18,115,55.3,98.43,79.06Z" transform="translate(-29.34 -37.17)"/><polygon points="92.5 43.25 92.84 26.65 87.51 36.96 92.5 43.25"/><rect x="98.48" y="61.67" width="23.43" height="35.47" transform="translate(-28.11 -38.85) rotate(0.88)"/><path d="M127.83,108.5" transform="translate(-29.34 -37.17)"/><rect y="16.22" width="23.51" height="18.73"/><path d="M156.51,98a11.72,11.72,0,1,0-23.43-.12,11.72,11.72,0,1,0,23.43.12Z" transform="translate(-29.34 -37.17)"/><path d="M156.54,83.07l0-19.92-23-.3a24.76,24.76,0,0,1,.29,15.6,14.22,14.22,0,0,0-.69,4.34V83Z" transform="translate(-29.34 -37.17)"/><polygon points="127.16 46.78 127.25 30.18 122.08 40.57 127.16 46.78"/><rect x="103.73" y="30.71" width="23.43" height="29.78"/><path d="M133.08,57.49V37.57a30.3,30.3,0,0,1,11,.32,16.35,16.35,0,0,1,12.58,16.19L156.58,60Z" transform="translate(-29.34 -37.17)"/><rect x="103.73" y="16.22" width="23.51" height="18.73"/><path d="M30.05,151.26h2l3.42,9.67-.3-.11,2.5-6.49.79,2.29-3.36,7.85Zm6.11,0h1.68l3.73,9.55-.37-.07,3.26-9.48h1.82l-5,13.17Z" transform="translate(-29.34 -37.17)"/><path d="M52.32,151.21h8.23v1.63H54v3.85h5.83v1.65H54v3.9H60.8v1.63H52.32Z" transform="translate(-29.34 -37.17)"/><path d="M70.5,151.21a5.09,5.09,0,0,1,3,.78,2.76,2.76,0,0,1,1.1,2.41,3.31,3.31,0,0,1-.46,1.75,3.15,3.15,0,0,1-1.27,1.15,4.68,4.68,0,0,1-1.92.49l-.24-.89a6.31,6.31,0,0,1,2.29.46,3.85,3.85,0,0,1,1.61,1.17,2.78,2.78,0,0,1,.6,1.79,3.52,3.52,0,0,1-.34,1.62,3,3,0,0,1-1,1.1,4.4,4.4,0,0,1-1.35.63,6.06,6.06,0,0,1-1.56.2H67.24V151.21Zm.35,5.53a1.86,1.86,0,0,0,1.52-.57,2.15,2.15,0,0,0,.48-1.41,1.73,1.73,0,0,0-.62-1.47,2.7,2.7,0,0,0-1.64-.45H68.94v3.9Zm.07,5.55a3.81,3.81,0,0,0,1.3-.21,1.91,1.91,0,0,0,.91-.65,1.74,1.74,0,0,0,.35-1.1,1.62,1.62,0,0,0-.4-1.15,2.31,2.31,0,0,0-1-.61,4.48,4.48,0,0,0-1.27-.18H68.94v3.9Z" transform="translate(-29.34 -37.17)"/><path class="cls-1" d="M91.51,151.21l4.17,10.47-1-.19,3.94-10.28h2l-5.58,13.26-5.61-13.26Z" transform="translate(-29.34 -37.17)"/><path class="cls-1" d="M106.7,151.21h1.69v12.66H106.7Z" transform="translate(-29.34 -37.17)"/><path class="cls-1" d="M118.8,151.21a5.09,5.09,0,0,1,3,.78,2.75,2.75,0,0,1,1.09,2.41,3.3,3.3,0,0,1-.45,1.75,3.15,3.15,0,0,1-1.27,1.15,4.68,4.68,0,0,1-1.92.49l-.24-.89a6.35,6.35,0,0,1,2.29.46,3.91,3.91,0,0,1,1.61,1.17,2.78,2.78,0,0,1,.6,1.79,3.66,3.66,0,0,1-.34,1.62,3.06,3.06,0,0,1-1,1.1,4.4,4.4,0,0,1-1.35.63,6.14,6.14,0,0,1-1.57.2h-3.76V151.21Zm.35,5.53a1.86,1.86,0,0,0,1.52-.57,2.14,2.14,0,0,0,.47-1.41,1.72,1.72,0,0,0-.61-1.47,2.74,2.74,0,0,0-1.65-.45h-1.64v3.9Zm.07,5.55a3.71,3.71,0,0,0,1.29-.21,1.94,1.94,0,0,0,.92-.65,1.74,1.74,0,0,0,.34-1.1,1.62,1.62,0,0,0-.39-1.15,2.29,2.29,0,0,0-1-.61,4.46,4.46,0,0,0-1.26-.18h-1.87v3.9Z" transform="translate(-29.34 -37.17)"/><path class="cls-1" d="M129.86,151.21h8.24v1.63h-6.54v3.85h5.83v1.65h-5.83v3.9h6.78v1.63h-8.48Z" transform="translate(-29.34 -37.17)"/><path class="cls-1" d="M151.33,153.47a9,9,0,0,0-1.41-.58,5.11,5.11,0,0,0-1.51-.24,2.52,2.52,0,0,0-1.62.47,1.51,1.51,0,0,0-.6,1.26,1.42,1.42,0,0,0,.39,1,3.48,3.48,0,0,0,1,.71c.41.19.85.38,1.32.56a11.33,11.33,0,0,1,1.15.49,4.84,4.84,0,0,1,1.05.71,3.14,3.14,0,0,1,.73,1,3.72,3.72,0,0,1,.27,1.5,3.41,3.41,0,0,1-.5,1.84,3.51,3.51,0,0,1-1.42,1.3A4.93,4.93,0,0,1,148,164a6.77,6.77,0,0,1-1.58-.18,7.32,7.32,0,0,1-1.41-.5,11.17,11.17,0,0,1-1.16-.65l.75-1.33a7.3,7.3,0,0,0,1,.57,6.23,6.23,0,0,0,1.14.43,4.66,4.66,0,0,0,1.15.15,3.21,3.21,0,0,0,1.19-.21,2.27,2.27,0,0,0,1-.66,1.84,1.84,0,0,0,.38-1.21,1.67,1.67,0,0,0-.34-1.07,3,3,0,0,0-.89-.74,8.25,8.25,0,0,0-1.2-.55c-.41-.14-.82-.31-1.22-.49a6.31,6.31,0,0,1-1.12-.68,2.91,2.91,0,0,1-.84-1,2.79,2.79,0,0,1-.33-1.4,3,3,0,0,1,.49-1.74,3.36,3.36,0,0,1,1.32-1.18,4.53,4.53,0,0,1,1.92-.46,7.16,7.16,0,0,1,2.17.3,8.36,8.36,0,0,1,1.65.71Z" transform="translate(-29.34 -37.17)"/></svg>