<svg id="Layer_1" data-name="Layer 1" xmlns="http://www.w3.org/2000/svg" viewBox="0 0 56.84 59.07"><defs><style>.cls-1{fill:#fff;}</style></defs><title>meeteng</title><path class="cls-1" d="M49.26,23.85a5.58,5.58,0,1,0,5.59-5.57h0A5.58,5.58,0,0,0,49.26,23.85Zm9.16,0a3.58,3.58,0,1,1-3.59-3.57h0A3.59,3.59,0,0,1,58.42,23.85Z" transform="translate(-3.58 -2.93)"/><path class="cls-1" d="M56.69,31.81a5.73,5.73,0,0,0-2.36-.29,5.66,5.66,0,0,0-5,4.88,5.5,5.5,0,0,0-.08.91v5.38H45.18a3,3,0,0,0-3,3V58.26A3.66,3.66,0,0,0,45.37,62h.31a3.53,3.53,0,0,0,3.55-3.53h0V51.81h8.15a3,3,0,0,0,3-3V37.08A5.6,5.6,0,0,0,56.69,31.81Zm1.73,17a1,1,0,0,1-1,1H48.27a1.06,1.06,0,0,0-1,1V58.4a1.56,1.56,0,0,1-.5,1.14,1.52,1.52,0,0,1-1.19.4,1.69,1.69,0,0,1-1.4-1.72V45.72a1,1,0,0,1,1-1h5a1.06,1.06,0,0,0,1-1V37.31a3.92,3.92,0,0,1,0-.59,3.66,3.66,0,0,1,3.19-3.2A3.86,3.86,0,0,1,56,33.7a3.59,3.59,0,0,1,2.39,3.38Z" transform="translate(-3.58 -2.93)"/><path class="cls-1" d="M9.16,29.43a5.58,5.58,0,1,0-5.58-5.58,5.58,5.58,0,0,0,5.58,5.58Zm0-9.15a3.58,3.58,0,1,1-3.58,3.58h0A3.59,3.59,0,0,1,9.16,20.28Z" transform="translate(-3.58 -2.93)"/><path class="cls-1" d="M18.82,42.69H14.74V37.31a5.74,5.74,0,0,0-5.08-5.79A5.52,5.52,0,0,0,5.39,33a5.6,5.6,0,0,0-1.81,4.12v11.7a3,3,0,0,0,3,3h8.15v6.63A3.53,3.53,0,0,0,18.26,62h.37a3.68,3.68,0,0,0,3.23-3.71V45.72a3,3,0,0,0-3-3Zm1,15.57A1.68,1.68,0,0,1,18.46,60a1.54,1.54,0,0,1-1.68-1.38.86.86,0,0,1,0-.16V50.85a1.06,1.06,0,0,0-1-1H6.62a1,1,0,0,1-1-1V37.08a3.59,3.59,0,0,1,1.16-2.64A3.55,3.55,0,0,1,9.2,33.5h.33a3.73,3.73,0,0,1,3.25,3.8v6.34a1.06,1.06,0,0,0,1,1h5a1,1,0,0,1,1,1Z" transform="translate(-3.58 -2.93)"/><path class="cls-1" d="M17.71,41H45.18V39H39.42V33.5a6.5,6.5,0,0,0-13,0V39H17.71Zm10.71-7.5a4.5,4.5,0,0,1,9,0V39h-9Z" transform="translate(-3.58 -2.93)"/><path class="cls-1" d="M32.92,25a5.5,5.5,0,1,0-5.5-5.5A5.5,5.5,0,0,0,32.92,25Zm0-9a3.5,3.5,0,1,1-3.5,3.5A3.5,3.5,0,0,1,32.92,16Z" transform="translate(-3.58 -2.93)"/><path class="cls-1" d="M29.42,42a3,3,0,0,0-3,3V59a3,3,0,0,0,6,0V45A3,3,0,0,0,29.42,42Zm1,17a1,1,0,0,1-2,0V45a1,1,0,0,1,2,0Z" transform="translate(-3.58 -2.93)"/><path class="cls-1" d="M36.42,42a3,3,0,0,0-3,3V59a3,3,0,0,0,6,0V45A3,3,0,0,0,36.42,42Zm1,17a1,1,0,0,1-2,0V45a1,1,0,0,1,2,0Z" transform="translate(-3.58 -2.93)"/><path class="cls-1" d="M45.49,13.07h7.72L57,16.84a1,1,0,0,0,.7.3,1,1,0,0,0,.39-.08,1,1,0,0,0,.61-.92V8a5.08,5.08,0,0,0-5.07-5.07H45.49a5.07,5.07,0,1,0,0,10.14Zm0-8.14h8.13A3.06,3.06,0,0,1,56.69,8v5.72l-2.36-2.36a1,1,0,0,0-.71-.29H45.49a3.07,3.07,0,1,1,0-6.14Z" transform="translate(-3.58 -2.93)"/><rect class="cls-1" x="40.89" y="4.07" width="10.17" height="2"/><path class="cls-1" d="M5,17.13a1,1,0,0,0,.38.08,1,1,0,0,0,.7-.3L9.9,13.14h7.72A5.11,5.11,0,0,0,17.62,3H9.49A5.07,5.07,0,0,0,4.42,8.07v8.14A1,1,0,0,0,5,17.13ZM6.42,8.07A3.06,3.06,0,0,1,9.49,5h8.13a3.07,3.07,0,0,1,0,6.14H9.49a1,1,0,0,0-.71.29L6.42,13.79Z" transform="translate(-3.58 -2.93)"/><rect class="cls-1" x="4.89" y="4.14" width="10.17" height="2"/></svg>