<svg xmlns="http://www.w3.org/2000/svg" xmlns:xlink="http://www.w3.org/1999/xlink" viewBox="0 0 705.8 629.44"><defs><style>.cls-1,.cls-19{isolation:isolate;}.cls-2{fill:#eef;}.cls-3{fill:#7676c4;}.cls-4{fill:#dcdcdc;}.cls-5{fill:#16282d;}.cls-6{fill:#ff4e6c;}.cls-7{fill:#e23359;}.cls-8{fill:#edb62b;}.cls-9{opacity:0.67;mix-blend-mode:multiply;}.cls-10{fill:#a87d1d;}.cls-11{fill:#fff6e7;opacity:0.52;mix-blend-mode:overlay;}.cls-12,.cls-16{fill:none;stroke-miterlimit:10;}.cls-12{stroke:#151516;stroke-width:3px;}.cls-13{fill:#e1e1e1;}.cls-14{fill:#1a2e35;}.cls-15{fill:#5276ac;}.cls-16{stroke:#757575;}.cls-17{opacity:0.3;}.cls-18{fill:url(#linear-gradient);}.cls-19{fill:#ffa800;opacity:0.35;}.cls-20{fill:#fff;}.cls-21{fill:#e52b07;}.cls-22{fill:#ff5454;}.cls-23{fill:#1d3d59;}.cls-24{fill:#c6ddf7;}.cls-25{fill:#8a8adb;}.cls-26{fill:#7474af;}.cls-27{fill:#b4b4ef;}.cls-28{fill:#a7c9ea;}.cls-29{fill:#608dd0;}.cls-30{fill:#85b7e0;}.cls-31{fill:#dce9fa;}.cls-32{fill:#fcfcfc;}.cls-33{fill:#fe5d7a;}.cls-34{fill:#ffdd2a;}</style><linearGradient id="linear-gradient" x1="-2721.48" y1="-581.65" x2="-2650.94" y2="-684.59" gradientTransform="matrix(-0.84, -0.55, -0.55, 0.84, -1931.69, -758.71)" gradientUnits="userSpaceOnUse"><stop offset="0" stop-color="#444b8c"/><stop offset="1" stop-color="#26264f"/></linearGradient></defs><title>offer</title><g class="cls-1"><g id="Layer_1" data-name="Layer 1"><path class="cls-2" d="M802.75,505.08c7.22-14,20.2-40,11.68-67.11-8.43-26.7-29.17-27.11-43.46-54.81-19.3-37.38,6.22-59.87-5.52-108-12-48.68-51.17-79.36-63.85-89.25-39.57-31-61.11-20.65-125.88-43.35-83.44-29.2-46.47-90.08-104.06-102.68S302.33,71.68,268.41,125.2c-20.83,33-1,44.69-21.12,144.36-14.61,72.47-29.37,87.6-21.77,131.06,1.94,11.2,11.63,66.56,50.65,95,34.39,25.07,59.34,5.8,82.37,30.93,24.07,26.29,7,58.42,27.5,91.61,22.76,36.89,72,43.14,105.84,47C648.64,683.08,767.41,573.65,802.75,505.08Z" transform="translate(-151.95 -37.68)"/><path class="cls-3" d="M319.26,170.51s13.24,19.94,27.9,40,37.27,69.47,36.23,71.27-33.67-43.06-45.59-64.46-22.72-43.77-22.72-43.77Z" transform="translate(-151.95 -37.68)"/><polygon class="cls-4" points="167.22 132.23 177 145.54 169.3 150.1 162.13 135.49 167.22 132.23"/><path class="cls-5" d="M314.08,173.17s4.89-3,5.12-3.27a146,146,0,0,0-3.61-17.08c-.54-.25-16.34,10.38-15.47,11.93S314.08,173.17,314.08,173.17Z" transform="translate(-151.95 -37.68)"/><path class="cls-6" d="M235.2,502.71c-5-5.15-7.7-12.23-8.66-19.5-.55-3.88-.57-8,1.44-11.34s6.72-5.29,10-3.15c1.9,1.27,2.87,3.58,3.49,5.85,1.51,5.3,2.5,11.55,7,14.84,2.54,1.84,6.08,2.59,7.91,5.24s1,6.34-1,8.65a12.46,12.46,0,0,1-8.45,3.48A13.61,13.61,0,0,1,235.2,502.71Z" transform="translate(-151.95 -37.68)"/><path class="cls-6" d="M212.33,525.06c4.21-5.34.22-12.17-4.16-14.51s-9.47-2.41-14.48-2.29c-11.27.22-23.07.48-33,6a17.78,17.78,0,0,0-7.37,6.64c-1.66,2.88-2,6.78-.21,9.57,2.1,3.41,6.42,4.56,10.36,5.21a79.6,79.6,0,0,0,34.76-2.49c5.26-1.38,10.59-3.7,14.06-8.09" transform="translate(-151.95 -37.68)"/><path class="cls-6" d="M223.23,533c-6.08-2.59-13.35-1.19-18.89,2.48s-9.42,9.4-12.2,15.34a60.75,60.75,0,0,0-5.43,22.54,21.82,21.82,0,0,0,1.17,9,9.32,9.32,0,0,0,6.53,5.85c4.48.83,8.5-2.5,11.67-5.72a146.64,146.64,0,0,0,15.25-18.39c3.67-5.29,7.12-11,7.51-17.42s-1.61-12.24-6.51-14.08" transform="translate(-151.95 -37.68)"/><path class="cls-7" d="M293.36,500.58a10.54,10.54,0,0,0-2.5.4l-6.82,1.4c-3.39.63-6.83,1.17-10.27,1.49a78.07,78.07,0,0,1-12.61,0A43.44,43.44,0,0,1,249,501.21a22.7,22.7,0,0,1-8.49-5.51,22.4,22.4,0,0,1-3.84-5.67,11.35,11.35,0,0,0-1.11-2.35,11,11,0,0,0,.71,2.45,20.7,20.7,0,0,0,3.67,6,23.9,23.9,0,0,0,8.63,6A43.71,43.71,0,0,0,261,505,78.67,78.67,0,0,0,274,504.9a87.85,87.85,0,0,0,10.26-1.72c2.94-.63,5.21-1.24,6.77-1.71A20.84,20.84,0,0,0,293.36,500.58Z" transform="translate(-151.95 -37.68)"/><path class="cls-7" d="M289.85,505.11c-.4.09-.8.19-1.12.24l-3.2,1c-2.81.9-6.9,2.12-11.93,3.49-10.16,2.8-21.17,5.24-37,8.26-14.76,2.81-32.16,5.76-43.64,6.87-2.59.22-4.95.44-7,.6s-3.89.33-5.32.39l-3.39.19a5.33,5.33,0,0,0-1.16.15,8.12,8.12,0,0,0,1.16.07l3.35-.05c1.48,0,3.22-.09,5.32-.17s4.52-.2,7.11-.42a384.53,384.53,0,0,0,40.71-5.58c15.78-3,29.86-6.49,40-9.5,5.07-1.51,9.12-2.83,11.88-3.81l3.2-1.21A2.09,2.09,0,0,0,289.85,505.11Z" transform="translate(-151.95 -37.68)"/><path class="cls-7" d="M263.09,513.25a19.19,19.19,0,0,0-3.38,1.08,93.37,93.37,0,0,0-8.84,3.8,135.37,135.37,0,0,0-12.47,7,113.88,113.88,0,0,0-14.06,10.46,88.65,88.65,0,0,0-20.48,24.15,45.15,45.15,0,0,0-2.38,5c-.31.72-.61,1.44-.87,2l-.51,1.84a19.66,19.66,0,0,0-.93,3.41c.27.09,1.4-4.89,5.46-11.84a93.73,93.73,0,0,1,20.52-23.84,126.09,126.09,0,0,1,14-10.41c4.43-3,8.64-5.27,12.24-7.25s6.57-3.19,8.65-4.16A11.28,11.28,0,0,0,263.09,513.25Z" transform="translate(-151.95 -37.68)"/><path class="cls-6" d="M302.22,506.8c4-.51,6.31,3.48,6.27,6.43s-1.62,5.57-3.1,8.14c-3.45,5.74-7.11,11.7-12.87,15.14a10.55,10.55,0,0,1-5.61,1.78,5.72,5.72,0,0,1-5-2.69c-1.1-2.13-.38-4.65.39-6.85a47,47,0,0,1,11.59-17.18c2.38-2.36,5.08-4.32,8.34-4.77" transform="translate(-151.95 -37.68)"/><path class="cls-6" d="M301.34,498.8c-.43,3.95-3.34,7.26-6.93,9a20.81,20.81,0,0,1-11.52,1.69,34.37,34.37,0,0,1-13.16-3.87,12.22,12.22,0,0,1-4.3-3.29,5.42,5.42,0,0,1-1.06-5.08c.95-2.52,3.84-3.68,6.47-4.26a92.37,92.37,0,0,1,14-2.4c3.75-.37,7.77-.43,11.24,1.26s5.84,4.52,5.26,7.53" transform="translate(-151.95 -37.68)"/><path class="cls-7" d="M338.51,478.16a1.6,1.6,0,0,1-.53.5L336.52,480c-1.28,1.23-3.09,2.95-5.33,5.13-4.5,4.37-9,9.4-15.18,16.56-5.85,6.75-12.48,14.81-16.47,20.37-.92,1.27-1.66,2.45-2.36,3.48s-1.27,1.9-1.79,2.63l-1.14,1.71-.4.55a2.27,2.27,0,0,1,.35-.64,19.57,19.57,0,0,1,1-1.76c.44-.67,1.05-1.67,1.66-2.66s1.45-2.21,2.37-3.48a222.73,222.73,0,0,1,15-19.28c6.29-7.21,12.28-13.47,16.82-17.74,2.25-2.18,4.1-3.82,5.51-5l1.59-1.27A2,2,0,0,0,338.51,478.16Z" transform="translate(-151.95 -37.68)"/><path class="cls-7" d="M324.1,489.47a15.35,15.35,0,0,1-1.55,1.37c-1,.86-2.65,2.05-4.55,3.37a61.55,61.55,0,0,1-7.36,4.28,71.93,71.93,0,0,1-9.56,4.16,51.46,51.46,0,0,1-18.51,3.42,29.43,29.43,0,0,1-3.27-.22,11.46,11.46,0,0,1-1.34-.21l-1.12-.2a11.18,11.18,0,0,1-2.07-.51c2.56.37,5.16.59,7.71.73a53.4,53.4,0,0,0,18.33-3.54,91.58,91.58,0,0,0,9.51-4,71.39,71.39,0,0,0,7.31-4.14c1.95-1.24,3.59-2.42,4.74-3.25Z" transform="translate(-151.95 -37.68)"/><path class="cls-6" d="M184.82,457.32a8.42,8.42,0,0,0,1.38-.83l3.9-2.47c1.68-1.1,3.72-2.39,6.2-3.9s5.18-3.25,8.33-5c6.12-3.63,13.66-7.77,22.1-11.92s18-8.46,28.12-12.46,20.06-7.14,29.1-9.92,17.37-4.73,24.42-6.14c3.52-.81,6.73-1.35,9.45-2s5.22-1,7.18-1.36l4.55-.79a7,7,0,0,0,1.6-.38,4.61,4.61,0,0,0-1.6.16l-4.56.56q-3,.38-7.23,1.05c-2.81.44-6,1-9.54,1.8-7.05,1.4-15.38,3.36-24.51,6s-19.1,6-29.28,9.79a281.53,281.53,0,0,0-28.17,12.59c-8.48,4.29-16,8.52-22,12.23-3.11,1.84-5.81,3.58-8.24,5.18s-4.43,3-6.11,4.07l-3.81,2.65A7.9,7.9,0,0,0,184.82,457.32Z" transform="translate(-151.95 -37.68)"/><path class="cls-6" d="M228.14,432.51a26.52,26.52,0,0,0-10.64,14.66c-.55,2-.87,4.39.54,6,1.86,2.07,5.29,1.3,7.73-.08a20.07,20.07,0,0,0,8.56-10.86c1.41-4.45,1.62-8.39-.37-12.65" transform="translate(-151.95 -37.68)"/><path class="cls-6" d="M264.72,417.39c-6.29,3.72-14.49,11.8-17.07,18.55a7.74,7.74,0,0,0-.75,3.32,3.21,3.21,0,0,0,1.52,2.93c1.44.83,3.26.22,4.68-.52a28.25,28.25,0,0,0,14.77-26" transform="translate(-151.95 -37.68)"/><path class="cls-6" d="M294.75,406.82a41.78,41.78,0,0,0-12.66,17.5c-.64,1.58-1.15,3.42-.32,5,1.11,2.35,4.42,2.66,6.87,1.73,5-1.91,8-7,10.06-11.87,2.2-5.31,2.79-13.73,2.79-13.73" transform="translate(-151.95 -37.68)"/><path class="cls-6" d="M274.14,412.76c-6.17-2.77-12.38-5.4-18.55-8.17a15.42,15.42,0,0,1-4.92-3,5.13,5.13,0,0,1-1.51-5.3,5.26,5.26,0,0,1,4.47-3.11,12.91,12.91,0,0,1,5.6,1,36.43,36.43,0,0,1,12.09,6.35c3.53,2.9,6,5.77,6.59,10.32" transform="translate(-151.95 -37.68)"/><path class="cls-6" d="M244.19,423a45.53,45.53,0,0,1-22.11-7.23,7,7,0,0,1-2.77-2.73c-1.2-2.31.19-5.28,2.45-6.79a10.58,10.58,0,0,1,8.52-1.16,24.08,24.08,0,0,1,7.76,4.09,53.18,53.18,0,0,1,11.27,11.73" transform="translate(-151.95 -37.68)"/><path class="cls-6" d="M219.16,435.78c-9.06,1.21-17.69-1.3-26.14-4.57-1.85-.74-3.88-1.82-4.09-3.74a3.59,3.59,0,0,1,1.52-3.16,7.85,7.85,0,0,1,3.42-1.44,28.08,28.08,0,0,1,29.06,10.84" transform="translate(-151.95 -37.68)"/><path class="cls-6" d="M207,443.34a71.11,71.11,0,0,0-13.6,3.34,25.21,25.21,0,0,0-11.37,8,10.07,10.07,0,0,0-2.33,5.49,6,6,0,0,0,2.32,5.33,6.44,6.44,0,0,0,5.37.59,17.34,17.34,0,0,0,4.83-2.84c7-5.57,14.25-13.59,14.78-20" transform="translate(-151.95 -37.68)"/><path class="cls-7" d="M800.85,240.64a6.38,6.38,0,0,0-.8,1.4l-2.1,4.1c-.9,1.8-2,4-3.4,6.5s-2.9,5.4-4.7,8.5c-3.5,6.2-8,13.5-13.2,21.4s-11.4,16.3-18.2,24.8-13.8,16.3-20.3,23.1-12.7,12.7-18,17.5c-2.6,2.5-5.1,4.5-7.3,6.4s-4,3.5-5.6,4.7l-3.5,3a12,12,0,0,0-1.2,1.1,14.63,14.63,0,0,0,1.3-.9l3.7-2.8c1.6-1.2,3.5-2.7,5.7-4.6s4.7-3.9,7.4-6.3c5.4-4.7,11.6-10.6,18.3-17.4s13.6-14.6,20.5-23.1,12.9-17.1,18.2-25,9.6-15.3,13-21.6c1.8-3.1,3.2-6,4.5-8.5s2.4-4.7,3.2-6.6l1.9-4.2A9.38,9.38,0,0,0,800.85,240.64Z" transform="translate(-151.95 -37.68)"/><path class="cls-6" d="M774.35,284.24a26.68,26.68,0,0,0,1.9-18c-.5-2-1.5-4.3-3.5-4.9-2.7-.9-5.3,1.5-6.6,3.9a19.77,19.77,0,0,0-2,13.7c1,4.6,2.8,8,6.6,10.8" transform="translate(-151.95 -37.68)"/><path class="cls-6" d="M753.75,312.54c3.6-6.3,6.6-17.4,5.5-24.6a7.9,7.9,0,0,0-1-3.3,3.62,3.62,0,0,0-2.8-1.8c-1.7,0-2.9,1.4-3.8,2.8a28.49,28.49,0,0,0,.2,29.9" transform="translate(-151.95 -37.68)"/><path class="cls-6" d="M732.15,336a42.57,42.57,0,0,0,2.3-21.5c-.3-1.7-.8-3.5-2.2-4.5-2.1-1.5-5.2,0-6.8,2-3.4,4.1-3.5,10-2.8,15.3.7,5.7,4.4,13.3,4.4,13.3" transform="translate(-151.95 -37.68)"/><path class="cls-6" d="M716.55,350.94c1.4-5.6,2.1-11.6,1-17.3a8.33,8.33,0,0,0-1.4-3.5,3.52,3.52,0,0,0-3.3-1.5c-2,.4-2.8,2.8-3.1,4.8a32.37,32.37,0,0,0,3.3,20" transform="translate(-151.95 -37.68)"/><path class="cls-6" d="M726.25,344.24a121.11,121.11,0,0,1,23.3-.4c1.2.1,2.6.3,3.2,1.4a2.3,2.3,0,0,1-.5,2.6,6.08,6.08,0,0,1-2.4,1.5c-8.6,3.7-19.4,2.6-27.5-2.1" transform="translate(-151.95 -37.68)"/><path class="cls-6" d="M745.65,323.84l20.2-2.2a15.61,15.61,0,0,1,5.7.1,5.33,5.33,0,0,1,4,3.8,5,5,0,0,1-2.4,4.9,13,13,0,0,1-5.4,1.9,37.12,37.12,0,0,1-13.7.5c-4.5-.8-8.1-2-10.9-5.6" transform="translate(-151.95 -37.68)"/><path class="cls-6" d="M766.45,299.94a45.13,45.13,0,0,1,22.8-4.8,7.46,7.46,0,0,1,3.8,1c2.2,1.5,2.5,4.7,1.3,7.1a11,11,0,0,1-6.8,5.3,21.77,21.77,0,0,1-8.8.3,50.09,50.09,0,0,1-15.6-4.6" transform="translate(-151.95 -37.68)"/><path class="cls-6" d="M781.85,276.44c7.3-5.6,15.9-7.7,25-9.1,1.9-.3,4.2-.3,5.4,1.2a3.66,3.66,0,0,1,.3,3.5,8.93,8.93,0,0,1-2.2,2.9,28,28,0,0,1-30.6,5.1" transform="translate(-151.95 -37.68)"/><path class="cls-6" d="M788.65,263.84a78,78,0,0,0,10.2-9.7,24.79,24.79,0,0,0,5.8-12.6,10.75,10.75,0,0,0-.7-5.9,5.94,5.94,0,0,0-4.6-3.5,6.44,6.44,0,0,0-4.9,2.2,14.65,14.65,0,0,0-2.7,4.9c-3.5,8.3-5.8,18.8-3.1,24.6" transform="translate(-151.95 -37.68)"/><path class="cls-6" d="M784.15,400.44c6.3,3.5,10.8,9.6,13.8,16.2,1.6,3.5,2.8,7.5,1.9,11.3s-4.9,7-8.6,5.8c-2.2-.7-3.8-2.6-5-4.6-3-4.7-5.6-10.4-10.9-12.3-3-1.1-6.6-.7-9.1-2.7s-2.8-5.8-1.4-8.5a12.4,12.4,0,0,1,7.1-5.8A13.8,13.8,0,0,1,784.15,400.44Z" transform="translate(-151.95 -37.68)"/><path class="cls-6" d="M799.75,372.54c-2.5,6.4,3.3,11.7,8.1,12.8s9.8-.4,14.5-1.9c10.7-3.4,21.9-7,29.9-15a17.9,17.9,0,0,0,5.2-8.5,9.62,9.62,0,0,0-2.5-9.3c-3-2.7-7.4-2.6-11.4-2a79.21,79.21,0,0,0-32.6,12.2c-4.7,3-9.2,6.7-11.2,11.7" transform="translate(-151.95 -37.68)"/><path class="cls-6" d="M787.05,367.94c6.6.8,13.2-2.6,17.4-7.7s6.4-11.6,7.3-18.2a59.89,59.89,0,0,0-1.2-23.1,21.42,21.42,0,0,0-3.7-8.3,9.41,9.41,0,0,0-8-3.8c-4.5.5-7.4,4.8-9.5,8.8a150.43,150.43,0,0,0-9.4,21.9c-2,6.1-3.7,12.6-2.3,18.8s5,11.3,10.3,11.6" transform="translate(-151.95 -37.68)"/><path class="cls-7" d="M729,419a16.27,16.27,0,0,0,2.3-1.1l6.2-3.3a79.77,79.77,0,0,1,9.4-4.3,84.16,84.16,0,0,1,12.1-3.6,43.71,43.71,0,0,1,12.5-.9,21.82,21.82,0,0,1,15,7.2,15.37,15.37,0,0,0,1.7,1.9,16.44,16.44,0,0,0-1.4-2.2,18.32,18.32,0,0,0-5.3-4.7,23.67,23.67,0,0,0-10-3.3,42.3,42.3,0,0,0-12.8.8,75.68,75.68,0,0,0-12.3,3.7,81.72,81.72,0,0,0-9.4,4.6q-3.9,2.25-6,3.6A15.58,15.58,0,0,0,729,419Z" transform="translate(-151.95 -37.68)"/><path class="cls-7" d="M733.65,420.34a8.79,8.79,0,0,0,1-.6l2.8-1.9c2.4-1.6,6-4,10.5-6.7,8.9-5.6,18.8-11.1,33.1-18.4,13.4-6.9,29.2-14.6,39.9-19,2.4-1,4.6-1.9,6.6-2.6s3.6-1.4,5-1.9l3.2-1.2a5.36,5.36,0,0,0,1.1-.5,2.66,2.66,0,0,0-1.2.3l-3.2,1c-1.4.4-3.1,1-5.1,1.7s-4.2,1.5-6.7,2.5a371.36,371.36,0,0,0-37.5,17c-14.3,7.4-26.8,14.7-35.7,20.5-4.4,2.8-7.9,5.3-10.3,7-1.1.8-2,1.5-2.7,2Z" transform="translate(-151.95 -37.68)"/><path class="cls-7" d="M757.05,404.94a29.77,29.77,0,0,0,2.9-2,86.75,86.75,0,0,0,7.4-6.2,135.55,135.55,0,0,0,20.5-24.3c6.9-10.4,11.1-21,12.8-29a50.67,50.67,0,0,0,.9-5.4c.1-.8.2-1.5.3-2.2a12,12,0,0,0,0-1.9,20.44,20.44,0,0,0,0-3.5c-.3,0,0,5.1-1.9,12.9a93.76,93.76,0,0,1-13,28.6,117,117,0,0,1-10.4,13.9,128.89,128.89,0,0,1-9.7,10.4c-2.9,2.8-5.4,5-7.1,6.4A27.55,27.55,0,0,0,757.05,404.94Z" transform="translate(-151.95 -37.68)"/><path class="cls-6" d="M718.75,415.64c-3.7,1.7-7.1-1.6-7.8-4.4s0-5.8.7-8.7c1.7-6.5,3.5-13.2,8-18.2a11,11,0,0,1,4.9-3.3,5.74,5.74,0,0,1,5.6,1.2c1.7,1.7,1.8,4.3,1.5,6.7a45.69,45.69,0,0,1-6.3,19.7c-1.6,2.8-3.7,5.6-6.6,7" transform="translate(-151.95 -37.68)"/><path class="cls-6" d="M721.85,422.94c-.7-3.9,1.2-7.9,4-10.6a21.14,21.14,0,0,1,10.6-4.9,35.6,35.6,0,0,1,13.8,0,12.68,12.68,0,0,1,5,1.9,5.69,5.69,0,0,1,2.5,4.6c-.1,2.7-2.6,4.6-4.9,5.9a100,100,0,0,1-12.7,6.3c-3.5,1.4-7.3,2.6-11.1,2s-6.8-2.7-7.2-5.7" transform="translate(-151.95 -37.68)"/><path class="cls-7" d="M694.65,459.94l.3-.6,1-1.7c.9-1.5,2.2-3.7,3.7-6.4,3-5.5,6-11.5,9.9-20.2,3.7-8.2,7.8-17.8,10-24.3.5-1.5,1-2.8,1.3-4a26.16,26.16,0,0,1,1-3c.3-.8.4-1.4.6-1.9a3.63,3.63,0,0,1,.3-.7c0,.2-.1.5-.1.7-.1.5-.3,1.2-.5,2s-.5,1.9-.8,3.1-.8,2.5-1.3,4a244.27,244.27,0,0,1-8.9,22.8c-3.9,8.7-7.9,16.4-11,21.8-1.6,2.7-2.9,4.9-3.9,6.3l-1.1,1.7C695,459.64,694.85,459.84,694.65,459.94Z" transform="translate(-151.95 -37.68)"/><path class="cls-7" d="M705.35,445a17.39,17.39,0,0,1,1.1-1.8c.8-1.1,1.9-2.7,3.5-4.6,1.8-2.2,3.8-4.2,5.8-6.2a72.79,72.79,0,0,1,8-6.7,54.34,54.34,0,0,1,16.8-8.5,30.05,30.05,0,0,1,3.2-.7,6.88,6.88,0,0,1,1.3-.2l1.1-.1a14.77,14.77,0,0,1,2.1-.1,63.83,63.83,0,0,0-7.6,1.5,54.67,54.67,0,0,0-16.6,8.6,71.88,71.88,0,0,0-8,6.6c-2.3,2.2-4.3,4.3-5.9,6.1s-2.8,3.3-3.6,4.4A6.57,6.57,0,0,1,705.35,445Z" transform="translate(-151.95 -37.68)"/><circle class="cls-8" cx="467.28" cy="168.88" r="52.71" transform="translate(-134.51 342.2) rotate(-45)"/><g class="cls-9"><path class="cls-10" d="M470.91,221.47a52.7,52.7,0,0,0,43.5-29,52.7,52.7,0,0,1-77-67,52.7,52.7,0,0,0,33.48,96Z" transform="translate(-151.95 -37.68)"/></g><path class="cls-11" d="M463.64,116.3a53.37,53.37,0,0,0-8,1.16A57.54,57.54,0,0,0,520,170.64c.06-1.78,0-3.58-.1-5.39A52.72,52.72,0,0,0,463.64,116.3Z" transform="translate(-151.95 -37.68)"/><path class="cls-12" d="M416.33,182.37c-21.94-.67-36.34-3.2-36.61-7.17-.46-6.6,38.34-14.65,86.64-18s87.84-.7,88.3,5.9c.27,3.95-13.55,8.43-35.06,12.1" transform="translate(-151.95 -37.68)"/><path class="cls-6" d="M400.21,333.92h0a3,3,0,0,1-3.68-2l-48.06-161,9.07-2.51L402.3,330.22A3,3,0,0,1,400.21,333.92Z" transform="translate(-151.95 -37.68)"/><path class="cls-13" d="M347.46,171.05c-.31-1.11-2.82-26.12-2.82-26.12l2.82-.78,11.1,24.26Z" transform="translate(-151.95 -37.68)"/><polyline class="cls-5" points="195.51 106.47 193.71 85.95 186.64 87.64 189.89 99.37 185.4 87.98 184.09 88.34 192.69 107.25 194.48 106.75"/><path class="cls-14" d="M712.91,319.87,687.72,503.23a28.82,28.82,0,0,1-32.48,24.63L343.7,485.07a28.83,28.83,0,0,1-24.64-32.49l25.19-183.35a28.51,28.51,0,0,1,3.27-9.92,28.8,28.8,0,0,1,29.21-14.72l311.54,42.8a28.8,28.8,0,0,1,24.64,32.48Z" transform="translate(-151.95 -37.68)"/><rect class="cls-15" x="370.15" y="284.96" width="310.98" height="205.35" transform="translate(-94.31 -105.61) rotate(7.82)"/><path class="cls-15" d="M385.64,264.26l-.5-.07-28,203.93-.07.5.85.12,135.23,18.57L665.64,511l.5.07,28-203.94.07-.49ZM358.47,467.8l-.29,0L386,265.32,693.09,307.5,665.28,510l-172.51-23.7Z" transform="translate(-151.95 -37.68)"/><path class="cls-16" d="M365.1,361.77a24.61,24.61,0,0,0-.07-3.32,13.42,13.42,0,0,0-3.89-7.91,13.17,13.17,0,0,0-5.22-3.21,13.4,13.4,0,0,0-7-.36,12.7,12.7,0,0,0-3.57,1.34,12.17,12.17,0,0,0-3.16,2.41,13.21,13.21,0,0,0-2.13,15.51,12.58,12.58,0,0,0,2.39,3.18,12.81,12.81,0,0,0,3.08,2.25,13.41,13.41,0,0,0,18.59-6.72,25.73,25.73,0,0,0,1-3.17,6.76,6.76,0,0,1-.11.85,5.78,5.78,0,0,1-.23,1,7.86,7.86,0,0,1-.44,1.36,13.36,13.36,0,0,1-5.88,6.82,13.56,13.56,0,0,1-6.05,1.8,13.77,13.77,0,0,1-7.07-1.55,13.77,13.77,0,0,1-5.69-5.6,13.67,13.67,0,0,1,2.22-16.12,13.05,13.05,0,0,1,3.28-2.49,12.9,12.9,0,0,1,3.71-1.37,13.77,13.77,0,0,1,7.22.42,13.64,13.64,0,0,1,9.17,11.51,9,9,0,0,1,0,1.43,5.39,5.39,0,0,1-.06,1.05A6.51,6.51,0,0,1,365.1,361.77Z" transform="translate(-151.95 -37.68)"/><g class="cls-17"><path class="cls-18" d="M651.3,175c14.5-17.5,29.8-19.3,44.6-26.1,9.2,11.9,10.9,27.7,3,39.9-10.3,15.8-32.8,19.3-50.3,7.9a41.23,41.23,0,0,1-6.9-5.6A58.26,58.26,0,0,1,651.3,175Z" transform="translate(-151.95 -37.68)"/></g><path class="cls-19" d="M651.3,175c17.1-20.6,35.2-19.4,52.3-30.3,11.1,14.8,13,34.3,3.2,49.3-12.9,19.7-41.1,24.1-63,9.9a48.23,48.23,0,0,1-5.1-3.8A60.81,60.81,0,0,1,651.3,175Z" transform="translate(-151.95 -37.68)"/><path class="cls-20" d="M607.2,111.39l8.6-13.8L611.6,95a4,4,0,0,1-1.8-3.6,21.41,21.41,0,0,0,.1-2.4,3.83,3.83,0,0,1,2-3.5l4.4-2.4-7.7-14.3-4.4,2.4a3.64,3.64,0,0,1-4-.3c-.68-.47-1.38-.9-2.1-1.3a3.82,3.82,0,0,1-2-3.5l.2-5-16.3-.5-.2,5a3.86,3.86,0,0,1-2.3,3.4c-.4.2-.7.3-1.1.5a9.12,9.12,0,0,0-1,.6,4.07,4.07,0,0,1-4,0l-4.3-2.6-8.6,13.8,4.2,2.6a4,4,0,0,1,1.8,3.6,17.52,17.52,0,0,0-.1,2.4,3.86,3.86,0,0,1-2,3.5l-4.4,2.4,7.7,14.3,4.4-2.4a3.64,3.64,0,0,1,4,.3,22.34,22.34,0,0,0,2.1,1.3,4,4,0,0,1,2,3.5l-.2,5,16.2.5.2-5a3.84,3.84,0,0,1,2.3-3.4,5.22,5.22,0,0,1,1.1-.5,3.41,3.41,0,0,0,1-.6,3.8,3.8,0,0,1,4.1,0Zm-13.7-10.3a13.29,13.29,0,1,1,5.39-18h0A13.3,13.3,0,0,1,593.5,101.09Z" transform="translate(-151.95 -37.68)"/><path class="cls-20" d="M458.75,580.56l7.1-11.4-3.5-2.2a3.23,3.23,0,0,1-1.5-3,13.34,13.34,0,0,0,.1-2,3.24,3.24,0,0,1,1.7-2.9l3.6-1.9-6.3-11.8-3.6,1.9a3,3,0,0,1-3.3-.2c-.5-.4-1.1-.7-1.7-1.1a3.24,3.24,0,0,1-1.7-2.9l.1-4.1-13.4-.4-.07,4.14a3.35,3.35,0,0,1-1.9,2.8l-.9.4c-.3.2-.6.3-.9.5a3.25,3.25,0,0,1-3.3,0l-3.5-2.2-7.1,11.4,3.5,2.2a3.23,3.23,0,0,1,1.5,3,13.34,13.34,0,0,0-.1,2,3.24,3.24,0,0,1-1.7,2.9l-3.6,1.9,6.3,11.8,3.6-1.9a3,3,0,0,1,3.3.2,9.36,9.36,0,0,0,1.7,1,3.24,3.24,0,0,1,1.7,2.9l-.1,4.1,13.4.4.1-4.1a3.35,3.35,0,0,1,1.9-2.8l.9-.4c.3-.2.6-.3.9-.5a3.25,3.25,0,0,1,3.3,0Zm-11.3-8.4a11,11,0,1,1,4.39-14.92v.12A10.73,10.73,0,0,1,447.78,572Z" transform="translate(-151.95 -37.68)"/><path class="cls-21" d="M466.69,72.73a20.66,20.66,0,0,1-.35,3.8,20.83,20.83,0,0,1-1.3,4.92,24.22,24.22,0,0,1-4.5,7.27,23.84,23.84,0,0,1-39-5.16,22.67,22.67,0,0,1-2-5.76,22.13,22.13,0,0,1-.58-5.07,20.33,20.33,0,0,1,.23-3,15.18,15.18,0,0,1,.54-2.92,23.76,23.76,0,0,1,2.46-6,23,23,0,0,1,5.35-6.34A23.86,23.86,0,0,1,462.31,59a22.7,22.7,0,0,1,3.27,6.57,23.21,23.21,0,0,1,1,4.88A21.77,21.77,0,0,1,466.69,72.73Z" transform="translate(-151.95 -37.68)"/><path class="cls-22" d="M465.58,65.54c-1.31.19-3.23.27-6.39.65-4.88.62-5.53,1.08-9.45,1.27a36.12,36.12,0,0,1-5.42,0,31.85,31.85,0,0,1-9.84-2.54c-5.46-2.15-9.53-3.3-12.34-4.15a23,23,0,0,1,5.35-6.34c4.53,1.54,6.53,6.5,11.18,6,2.65-.31,4.31-2.19,6.5-1.23,1.49.69,1.53,1.88,2.53,2.77,2.85,2.61,9.46-1,14.61-3A22.7,22.7,0,0,1,465.58,65.54Z" transform="translate(-151.95 -37.68)"/><path class="cls-22" d="M466.69,72.73a20.66,20.66,0,0,1-.35,3.8c-.76.39-2,.85-8.61,1.65-4.84.62-5.53,1-9.45,1.23a30.07,30.07,0,0,1-5.38,0,31,31,0,0,1-9.84-2.49,91.69,91.69,0,0,1-13.92-7.23,15.18,15.18,0,0,1,.54-2.92H420A19.64,19.64,0,0,0,424,66c5.34-.73,7.72,7,13.22,6.38,2.65-.31,4.26-2.15,6.49-1.19,1.46.65,1.81,1.92,2.5,2.77,3.08,3.53,13.57-1.08,20.33-3.5A21.77,21.77,0,0,1,466.69,72.73Z" transform="translate(-151.95 -37.68)"/><path class="cls-22" d="M465,81.45a24.22,24.22,0,0,1-4.5,7.27c-1.15.19-2.73.38-4.88.65-4.84.61-5.54,1.07-9.46,1.27a37,37,0,0,1-5.38,0A31,31,0,0,1,431,88.1a92.64,92.64,0,0,1-9.45-4.54,22.67,22.67,0,0,1-2-5.76c1-.19,1.62-.5,2.46-.62,5.3-.73,7.69,7,13.22,6.38,2.65-.3,4.27-2.19,6.5-1.19,1.46.66,1.77,1.92,2.5,2.73C447.32,88.75,458.27,83.8,465,81.45Z" transform="translate(-151.95 -37.68)"/><circle class="cls-15" cx="582.95" cy="588.35" r="52.71" transform="translate(-332.05 872.76) rotate(-68.15)"/><path class="cls-23" d="M597.12,639.12a52.68,52.68,0,0,1-50.69-12.78,52.7,52.7,0,0,0,50.12-88.91,52.71,52.71,0,0,1,.57,101.69Z" transform="translate(-151.95 -37.68)"/><path class="cls-11" d="M568.79,537.58a53.59,53.59,0,0,1,7.88-1.57,57.5,57.5,0,0,1-42.78,71.61,52.72,52.72,0,0,1,34.9-70Z" transform="translate(-151.95 -37.68)"/><path class="cls-12" d="M635.48,584c20.45-8,33.17-15.17,32.1-19-1.78-6.37-41-1-87.67,12s-83,28.73-81.24,35.1c1.07,3.81,15.59,3.41,37.09-.33" transform="translate(-151.95 -37.68)"/><rect class="cls-16" x="352.33" y="304.86" width="14.29" height="14.29" rx="5.7" transform="translate(-106.14 -83.7) rotate(7.82)"/><rect class="cls-16" x="349.74" y="323.7" width="14.29" height="14.29" rx="5.7" transform="translate(-103.61 -83.17) rotate(7.82)"/><rect class="cls-16" x="339.74" y="382.08" width="14.29" height="14.29" rx="5.7" transform="translate(-95.75 -81.27) rotate(7.82)"/><rect class="cls-16" x="337.15" y="400.92" width="14.29" height="14.29" rx="5.7" transform="translate(-93.21 -80.74) rotate(7.82)"/><path class="cls-24" d="M569.61,331.77s27.95-28.2,23.95,5.37-40.71,145.92-40.71,145.92L434.93,454.42S511.21,340.23,569.61,331.77Z" transform="translate(-151.95 -37.68)"/><path class="cls-24" d="M587.15,321.88,443.41,439.77a5.6,5.6,0,0,1-.07-.59c0-.2,0-.41,0-.62-.54-12.18,16.57-24.51,16.57-24.51s-15.62.16-13-18.37,21.85-29.86,37-22.63c-6.22-8.81,9.72-26.76,19.93-22.43-5.35-7.57-6.74-18.44,6.16-29.68.86-.75,1.77-1.5,2.76-2.25,15.84-12,29.56-4.76,34.53,14.43,11.78-18.49,32.11-13.8,38.81-11.63a5.3,5.3,0,0,0,.56.19Z" transform="translate(-151.95 -37.68)"/><path class="cls-24" d="M594.54,332.84,556.68,464l.54-.06a5.17,5.17,0,0,0,.55-.07c10.65-1.87,13.71-17.17,13.71-17.17s6.7,11.89,21.39,6.42,16-22.17,3.16-32.29c10.26,3.07,18.63-12.38,10.45-19.32,8.83,2.64,18.73,1.67,22.7-10.23.26-.79.5-1.63.71-2.52,3.34-14.27-8.88-23.32-27.47-23.5,10.65-12.4-2.26-27-7.06-31.63l-.41-.39C594.81,333.08,594.67,333,594.54,332.84Z" transform="translate(-151.95 -37.68)"/><path class="cls-3" d="M661.83,286.43s32.4,30.3,12.3,85.5a7,7,0,0,1-9.1,4.2,7.11,7.11,0,0,1-3-2.1l-22.2-27a19.66,19.66,0,0,1-4.3-15.5l4.2-28.4Z" transform="translate(-151.95 -37.68)"/><path class="cls-3" d="M591.53,240.53s-40.8-17.4-83.2,23.3a7.05,7.05,0,0,0,3,11.9l33.6,9.4a19.75,19.75,0,0,0,15.9-2.3l24.3-15.3Z" transform="translate(-151.95 -37.68)"/><path class="cls-25" d="M664.33,282.53s32.4,30.3,12.3,85.6a7,7,0,0,1-9.1,4.2,7.39,7.39,0,0,1-3.1-2.2l-22.2-27a19.77,19.77,0,0,1-4.3-15.5l4.2-28.4Z" transform="translate(-151.95 -37.68)"/><path class="cls-25" d="M594,236.63s-40.8-17.4-83.2,23.3a7.05,7.05,0,0,0,3,11.9l33.6,9.4a19.75,19.75,0,0,0,15.9-2.3l24.3-15.3Z" transform="translate(-151.95 -37.68)"/><path class="cls-6" d="M617,150.83c37.3-45.4,107.5-36.6,107-36.6.1,0,36.1,60.2,9.7,112.6-24,47.6-83.6,86-95,93.1-1.2.8-3.3,1.8-4.1.7-17.2-22.4-38.6-35.6-63.4-41.3-1.4-.3-1.2-2.6-1-4C571.93,262.23,583.13,192,617,150.83Z" transform="translate(-151.95 -37.68)"/><path class="cls-7" d="M649.33,211.23c20.9-25.2,43.4-17.7,63.8-39.9,7.5-8.1,15.2-20.8,18.3-41.8,8.9,21.2,20.4,61.1,2.2,97.3-24,47.6-83.6,86-95,93.1-1.2.8-3.3,1.8-4.1.7a110.88,110.88,0,0,0-29.2-27.1,74.1,74.1,0,0,0,18-18.2C639.73,251.43,630.33,234.23,649.33,211.23Z" transform="translate(-151.95 -37.68)"/><ellipse class="cls-25" cx="602.55" cy="300.05" rx="11.6" ry="39.4" transform="translate(-129.82 603.27) rotate(-56.9)"/><path class="cls-3" d="M598.73,290.73l14.2,9.2a22.14,22.14,0,0,1,9.6,22.7l-1.6,8.4a4.54,4.54,0,0,1-6.8,2.9l-47-30.6a4.48,4.48,0,0,1-1.3-6.1A3.45,3.45,0,0,1,567,296l7-4.9A22,22,0,0,1,598.73,290.73Z" transform="translate(-151.95 -37.68)"/><ellipse class="cls-25" cx="591.87" cy="316.84" rx="11" ry="32.5" transform="translate(-148.77 601.86) rotate(-56.89)"/><path class="cls-26" d="M571.23,303.33c-2.5,3.9,4.7,13,16.1,20.5s22.8,10.4,25.3,6.5-4.7-13-16.1-20.5S573.73,299.43,571.23,303.33Z" transform="translate(-151.95 -37.68)"/><path class="cls-3" d="M635.83,133.73s86.3,19.8,105.2,72.3c0,0,11.5-43.1-17.4-91.7C723.73,114.23,674.23,107.63,635.83,133.73Z" transform="translate(-151.95 -37.68)"/><path class="cls-26" d="M625.43,178.43c12.9-19.7,41.1-24.2,63-9.9s29.3,41.9,16.4,61.6-41.1,24.2-63,9.9S612.63,198.23,625.43,178.43Z" transform="translate(-151.95 -37.68)"/><ellipse class="cls-3" cx="665.16" cy="204.07" rx="39.7" ry="44.1" transform="translate(-21.06 612.08) rotate(-56.89)"/><path class="cls-27" d="M696.86,225.1c-10.29,15.77-32.8,19.32-50.29,7.92a40.21,40.21,0,0,1-4.49-3.38c-13.93-12-17.89-31.5-8.55-45.83,10.29-15.78,32.8-19.32,50.29-7.92a41.32,41.32,0,0,1,10.09,9.25C703.13,197,704.8,212.92,696.86,225.1Z" transform="translate(-151.95 -37.68)"/><path class="cls-25" d="M696.86,225.1c-10.29,15.77-32.8,19.32-50.29,7.92a40.21,40.21,0,0,1-4.49-3.38l-2.35-2.31s3-24.8,29.59-32.09c0,0,19.29-7.35,24.59-10.1C703.13,197,704.8,212.92,696.86,225.1Z" transform="translate(-151.95 -37.68)"/><path class="cls-24" d="M571.23,303.33s.44,6.1-31.56,17.78c-34.66,12.65,29.26,42,29.26,42L610.77,366s-8.31-21.38,1.86-35.65C612.63,330.33,599.1,308.44,571.23,303.33Z" transform="translate(-151.95 -37.68)"/><path class="cls-28" d="M567.28,341s24.11-24.32,20.66,4.64S553,478.16,553,478.16L446.33,453.07S516.89,348.25,567.28,341Z" transform="translate(-151.95 -37.68)"/><path class="cls-28" d="M582.4,332.42l-124,101.7a2.73,2.73,0,0,1-.07-.51c0-.17,0-.35,0-.53-.47-10.51,14.3-21.15,14.3-21.15s-13.48.14-11.2-15.84,18.85-25.77,31.89-19.52c-5.37-7.61,8.39-23.09,17.2-19.35-4.62-6.54-5.82-15.92,5.31-25.61.74-.65,1.53-1.29,2.38-1.94,13.66-10.37,25.5-4.11,29.79,12.45,10.16-15.95,27.7-11.91,33.48-10l.48.16Z" transform="translate(-151.95 -37.68)"/><path class="cls-28" d="M588.78,341.87,556.12,455a3.75,3.75,0,0,0,.47-.05l.47-.06c9.19-1.62,11.82-14.81,11.82-14.81s5.79,10.26,18.46,5.53,13.78-19.12,2.73-27.86c8.85,2.66,16.07-10.67,9-16.66,7.62,2.28,16.16,1.44,19.58-8.82.23-.69.44-1.41.62-2.18,2.88-12.31-7.66-20.12-23.7-20.28,9.19-10.69-2-23.25-6.09-27.28l-.35-.34Z" transform="translate(-151.95 -37.68)"/><path class="cls-28" d="M575.25,304.21s-6.2,17.47-33.81,27.55C511.55,342.67,566.69,368,566.69,368l36.1,2.45S600,334.65,608.59,325C608.59,325,599.22,309.37,575.25,304.21Z" transform="translate(-151.95 -37.68)"/><circle class="cls-20" cx="263.32" cy="253.65" r="1.44"/><path class="cls-20" d="M410.25,297.1a1,1,0,1,1-1-1A1,1,0,0,1,410.25,297.1Z" transform="translate(-151.95 -37.68)"/><path class="cls-20" d="M399.76,303.66a.64.64,0,0,1-.64.64.64.64,0,0,1-.64-.64.64.64,0,0,1,1.28,0Z" transform="translate(-151.95 -37.68)"/><path class="cls-20" d="M408.71,279a1.74,1.74,0,1,1-1.74-1.73A1.74,1.74,0,0,1,408.71,279Z" transform="translate(-151.95 -37.68)"/><path class="cls-20" d="M393.12,353.5a.89.89,0,1,1-.89-.89A.88.88,0,0,1,393.12,353.5Z" transform="translate(-151.95 -37.68)"/><path class="cls-20" d="M389.18,356.21a.77.77,0,1,1-.77-.77A.77.77,0,0,1,389.18,356.21Z" transform="translate(-151.95 -37.68)"/><path class="cls-20" d="M384.48,361.79a.8.8,0,1,1-.79-.8A.79.79,0,0,1,384.48,361.79Z" transform="translate(-151.95 -37.68)"/><path class="cls-20" d="M384.06,352.29a1.21,1.21,0,1,1-1.21-1.22A1.21,1.21,0,0,1,384.06,352.29Z" transform="translate(-151.95 -37.68)"/><path class="cls-20" d="M390.35,360.82a1,1,0,1,1-1.94,0,1,1,0,1,1,1.94,0Z" transform="translate(-151.95 -37.68)"/><path class="cls-20" d="M432.64,326.36a1,1,0,1,1-1.05-1A1,1,0,0,1,432.64,326.36Z" transform="translate(-151.95 -37.68)"/><path class="cls-20" d="M424.63,328.44a.62.62,0,0,1-.62.62.62.62,0,0,1,0-1.24A.62.62,0,0,1,424.63,328.44Z" transform="translate(-151.95 -37.68)"/><path class="cls-20" d="M431.47,321.24a1.09,1.09,0,1,1-1.08-1.09A1.09,1.09,0,0,1,431.47,321.24Z" transform="translate(-151.95 -37.68)"/><path class="cls-20" d="M427.51,324a.65.65,0,1,1-.64-.64A.65.65,0,0,1,427.51,324Z" transform="translate(-151.95 -37.68)"/><path class="cls-20" d="M433.39,312.19a.71.71,0,1,1-.71-.7A.71.71,0,0,1,433.39,312.19Z" transform="translate(-151.95 -37.68)"/><circle class="cls-20" cx="275.6" cy="335.39" r="0.75"/><circle class="cls-20" cx="269.21" cy="333.97" r="0.5"/><circle class="cls-20" cx="260.68" cy="335.64" r="1"/><circle class="cls-20" cx="275.23" cy="327.62" r="0.37"/><circle class="cls-20" cx="281.88" cy="355.13" r="1.2"/><path class="cls-20" d="M423.79,395a.39.39,0,0,1-.39.39A.4.4,0,0,1,423,395a.39.39,0,0,1,.39-.39A.38.38,0,0,1,423.79,395Z" transform="translate(-151.95 -37.68)"/><path class="cls-20" d="M417.62,402.24a.94.94,0,1,1-.94-.94A.94.94,0,0,1,417.62,402.24Z" transform="translate(-151.95 -37.68)"/><path class="cls-20" d="M411.23,424.7a.42.42,0,1,1-.42-.42A.42.42,0,0,1,411.23,424.7Z" transform="translate(-151.95 -37.68)"/><path class="cls-20" d="M419.35,430a.42.42,0,1,1-.42-.42A.42.42,0,0,1,419.35,430Z" transform="translate(-151.95 -37.68)"/><path class="cls-20" d="M416.1,421.47a.48.48,0,1,1-.48-.48A.47.47,0,0,1,416.1,421.47Z" transform="translate(-151.95 -37.68)"/><circle class="cls-20" cx="276.01" cy="393.11" r="0.76"/><path class="cls-20" d="M474.91,339.92a.33.33,0,0,1-.44.05.31.31,0,0,1,.39-.49A.32.32,0,0,1,474.91,339.92Z" transform="translate(-151.95 -37.68)"/><path class="cls-20" d="M473.28,340.17a.71.71,0,0,1-1,.11.69.69,0,0,1,.85-1.08A.7.7,0,0,1,473.28,340.17Z" transform="translate(-151.95 -37.68)"/><circle class="cls-20" cx="314.78" cy="294.49" r="0.23"/><path class="cls-20" d="M464.74,338.8a.58.58,0,0,1-.82.1.58.58,0,1,1,.82-.1Z" transform="translate(-151.95 -37.68)"/><path class="cls-20" d="M468.79,337.61a.52.52,0,0,1-.72.09.51.51,0,1,1,.72-.09Z" transform="translate(-151.95 -37.68)"/><path class="cls-20" d="M462.88,334.51a.34.34,0,1,1-.06-.46A.32.32,0,0,1,462.88,334.51Z" transform="translate(-151.95 -37.68)"/><circle class="cls-20" cx="306.73" cy="296.55" r="0.75"/><path class="cls-20" d="M470.27,332.25a.35.35,0,1,1-.06-.49A.36.36,0,0,1,470.27,332.25Z" transform="translate(-151.95 -37.68)"/><circle class="cls-20" cx="312.56" cy="288.79" r="1.47"/><path class="cls-20" d="M458.74,326.74a.93.93,0,1,1-.15-1.3A.92.92,0,0,1,458.74,326.74Z" transform="translate(-151.95 -37.68)"/><path class="cls-20" d="M448.41,325.54a.86.86,0,0,1-1.2.14.85.85,0,1,1,1.2-.14Z" transform="translate(-151.95 -37.68)"/><path class="cls-20" d="M468.43,350.48a.72.72,0,0,1-1,.12.74.74,0,1,1,.91-1.16A.74.74,0,0,1,468.43,350.48Z" transform="translate(-151.95 -37.68)"/><path class="cls-20" d="M461.93,348.25l-.28.36.28-.36.29-.36Z" transform="translate(-151.95 -37.68)"/><path class="cls-20" d="M457.17,297.54a.54.54,0,0,1-.76.08.53.53,0,0,1-.09-.76.55.55,0,0,1,.76-.09A.56.56,0,0,1,457.17,297.54Z" transform="translate(-151.95 -37.68)"/><path class="cls-20" d="M453.54,300.13a1,1,0,1,1-.16-1.39A1,1,0,0,1,453.54,300.13Z" transform="translate(-151.95 -37.68)"/><path class="cls-20" d="M466.21,303.44a1,1,0,1,1-.16-1.38A1,1,0,0,1,466.21,303.44Z" transform="translate(-151.95 -37.68)"/><path class="cls-20" d="M462.74,306.24a.57.57,0,1,1-.09-.81A.57.57,0,0,1,462.74,306.24Z" transform="translate(-151.95 -37.68)"/><path class="cls-20" d="M459.31,303.44a.5.5,0,0,1-.71.08.51.51,0,1,1,.63-.79A.5.5,0,0,1,459.31,303.44Z" transform="translate(-151.95 -37.68)"/><circle class="cls-20" cx="301.68" cy="275.31" r="1.44"/><path class="cls-20" d="M647.62,387.05a.77.77,0,1,1-.77-.77A.77.77,0,0,1,647.62,387.05Z" transform="translate(-151.95 -37.68)"/><path class="cls-20" d="M643.7,387.43a.39.39,0,1,1-.77,0,.39.39,0,0,1,.77,0Z" transform="translate(-151.95 -37.68)"/><path class="cls-20" d="M638.39,388.3a.49.49,0,0,1-.48.48.48.48,0,0,1-.48-.48.47.47,0,0,1,.48-.48A.48.48,0,0,1,638.39,388.3Z" transform="translate(-151.95 -37.68)"/><path class="cls-20" d="M645.93,383.84a.4.4,0,0,1-.4.4.4.4,0,0,1,0-.8A.4.4,0,0,1,645.93,383.84Z" transform="translate(-151.95 -37.68)"/><path class="cls-20" d="M643.5,385a.68.68,0,1,1-1.36,0,.68.68,0,0,1,1.36,0Z" transform="translate(-151.95 -37.68)"/><circle class="cls-20" cx="504.46" cy="355.63" r="0.32"/><path class="cls-20" d="M651.36,393.58a.28.28,0,1,1-.28-.27A.28.28,0,0,1,651.36,393.58Z" transform="translate(-151.95 -37.68)"/><path class="cls-20" d="M644.53,394.06a.2.2,0,1,1-.19-.2A.2.2,0,0,1,644.53,394.06Z" transform="translate(-151.95 -37.68)"/><circle class="cls-20" cx="484.12" cy="353.45" r="0.44"/><path class="cls-20" d="M643.18,391.13a.44.44,0,1,1-.44-.44A.44.44,0,0,1,643.18,391.13Z" transform="translate(-151.95 -37.68)"/><path class="cls-20" d="M651.36,389.22a.45.45,0,1,1-.45-.44A.45.45,0,0,1,651.36,389.22Z" transform="translate(-151.95 -37.68)"/><path class="cls-20" d="M655.14,384.24a.8.8,0,1,1-.79-.8A.8.8,0,0,1,655.14,384.24Z" transform="translate(-151.95 -37.68)"/><path class="cls-20" d="M655.63,427.05a1,1,0,1,1-1-1A1,1,0,0,1,655.63,427.05Z" transform="translate(-151.95 -37.68)"/><path class="cls-20" d="M650.42,430a1.12,1.12,0,1,1-1.11-1.11A1.12,1.12,0,0,1,650.42,430Z" transform="translate(-151.95 -37.68)"/><path class="cls-20" d="M659.16,438.18a1,1,0,1,1-1-1A1,1,0,0,1,659.16,438.18Z" transform="translate(-151.95 -37.68)"/><path class="cls-20" d="M646.16,438.72a.54.54,0,1,1-.54-.54A.54.54,0,0,1,646.16,438.72Z" transform="translate(-151.95 -37.68)"/><path class="cls-20" d="M632.72,439.44a.73.73,0,1,1-.72-.72A.72.72,0,0,1,632.72,439.44Z" transform="translate(-151.95 -37.68)"/><path class="cls-20" d="M661.23,406.18a1,1,0,1,1-1-1A1,1,0,0,1,661.23,406.18Z" transform="translate(-151.95 -37.68)"/><path class="cls-20" d="M656.31,408.9a1.69,1.69,0,1,1-1.69-1.69A1.69,1.69,0,0,1,656.31,408.9Z" transform="translate(-151.95 -37.68)"/><path class="cls-20" d="M480.61,303.08l1,1.43a10.19,10.19,0,0,0,4.4,3.61l1.59.68-1.43,1a10.4,10.4,0,0,0-3.61,4.4l-.67,1.59-1-1.43a10.34,10.34,0,0,0-4.4-3.61l-1.59-.67,1.43-1a10.21,10.21,0,0,0,3.61-4.4Z" transform="translate(-151.95 -37.68)"/><path class="cls-20" d="M412.11,343.55l.32,1.06a6.46,6.46,0,0,0,1.94,3.05l.83.73-1.06.31a6.46,6.46,0,0,0-3.06,1.95l-.72.82-.32-1.06a6.62,6.62,0,0,0-1.94-3.06l-.83-.72,1.06-.31a6.64,6.64,0,0,0,3.06-1.95Z" transform="translate(-151.95 -37.68)"/><path class="cls-20" d="M629.83,416.64l.31,1.06a6.56,6.56,0,0,0,2,3.06l.82.72-1.06.32a6.54,6.54,0,0,0-3.06,1.94l-.72.82-.32-1.06a6.46,6.46,0,0,0-1.94-3.05l-.82-.73,1.06-.31a6.48,6.48,0,0,0,3.05-2Z" transform="translate(-151.95 -37.68)"/><path class="cls-20" d="M655.5,456l.31,1.06a6.56,6.56,0,0,0,2,3.06l.82.72-1.06.32a6.54,6.54,0,0,0-3.06,1.94l-.72.82-.31-1.06a6.56,6.56,0,0,0-1.95-3l-.82-.73,1.06-.31a6.48,6.48,0,0,0,3-1.95Z" transform="translate(-151.95 -37.68)"/><path class="cls-20" d="M388.74,396.83l1,1.43a10.21,10.21,0,0,0,4.4,3.61l1.59.68-1.43,1a10.19,10.19,0,0,0-3.61,4.4l-.68,1.59-1-1.43a10.4,10.4,0,0,0-4.4-3.61l-1.59-.67,1.43-1a10.34,10.34,0,0,0,3.61-4.4Z" transform="translate(-151.95 -37.68)"/><path class="cls-29" d="M562.37,351.92s19-19.22,16.32,3.66-27.6,104.75-27.6,104.75l-84.28-19.82S522.56,357.69,562.37,351.92Z" transform="translate(-151.95 -37.68)"/><path class="cls-29" d="M574.32,345.18l-98,80.36a2.71,2.71,0,0,1,0-.41c0-.13,0-.28,0-.41-.37-8.31,11.3-16.72,11.3-16.72s-10.65.12-8.85-12.52,14.89-20.35,25.2-15.42c-4.24-6,6.62-18.24,13.59-15.29-3.65-5.16-4.6-12.57,4.19-20.24.59-.51,1.21-1,1.89-1.53,10.79-8.19,20.14-3.24,23.53,9.84,8-12.6,21.89-9.41,26.46-7.93a2.14,2.14,0,0,0,.38.13Z" transform="translate(-151.95 -37.68)"/><path class="cls-29" d="M579.36,352.65,553.56,442a2.2,2.2,0,0,0,.36,0l.38-.05c7.26-1.27,9.34-11.7,9.34-11.7s4.57,8.11,14.59,4.38,10.88-15.12,2.15-22c7,2.1,12.7-8.44,7.12-13.17,6,1.8,12.77,1.14,15.47-7,.18-.54.35-1.11.49-1.71,2.28-9.73-6.05-15.9-18.72-16,7.26-8.45-1.55-18.37-4.82-21.56l-.28-.27A3.15,3.15,0,0,0,579.36,352.65Z" transform="translate(-151.95 -37.68)"/><path class="cls-29" d="M580.49,305.42S563.77,336.69,542,344.65c-23.62,8.63,19.95,28.65,19.95,28.65l28.52,1.94S599,331.16,606,321.43C606,321.43,598,310.33,580.49,305.42Z" transform="translate(-151.95 -37.68)"/><polyline class="cls-29" points="326.54 379.85 291.32 428.79 406.08 455.1 399.39 418.3"/><path class="cls-30" d="M583.12,499.76,446.63,480.87a3.72,3.72,0,0,1,.27-.48c.09-.16.19-.33.29-.48,6.09-9.13,21.45-5.67,21.45-5.67s-8.22-11.13,2.84-22.54,27-5.7,31.09,10.39c1.36-10.81,19-12.22,22.1-1.75,1.17-9.3,6.13-18.11,18.73-16.89.83.08,1.7.21,2.61.38,14.53,2.78,17.89,17.87,10.45,35.24,15.79-4.8,23.94,13.22,26.29,19.61.06.19.13.37.19.54S583.07,499.59,583.12,499.76Z" transform="translate(-151.95 -37.68)"/><path class="cls-31" d="M665.07,510.79,529.84,492.22a4.39,4.39,0,0,1,.27-.47c.09-.16.19-.32.29-.47,6-9,21.25-5.57,21.25-5.57s-8.15-10.95,2.81-22.16,26.74-5.61,30.8,10.21c1.35-10.63,18.87-12,21.9-1.72,1.16-9.14,6.07-17.8,18.55-16.6.83.08,1.69.2,2.59.37,14.4,2.73,17.72,17.57,10.35,34.64,15.65-4.71,23.72,13,26.05,19.28.06.19.13.37.19.53S665,510.63,665.07,510.79Z" transform="translate(-151.95 -37.68)"/><rect class="cls-28" x="458.13" y="429.39" width="7.03" height="9.47" transform="translate(-48.5 -126.32) rotate(12.34)"/><path class="cls-31" d="M492.67,487,357.44,468.45a4.39,4.39,0,0,1,.27-.47c.09-.16.19-.32.29-.47,6-9,21.25-5.57,21.25-5.57s-8.15-10.95,2.81-22.16,26.74-5.61,30.8,10.21c1.35-10.63,18.87-12,21.9-1.72,1.16-9.14,6.07-17.8,18.55-16.6.83.08,1.69.2,2.59.37,14.4,2.73,17.72,17.57,10.35,34.64C481.9,462,490,479.68,492.3,486c.06.19.13.37.19.53S492.62,486.86,492.67,487Z" transform="translate(-151.95 -37.68)"/><rect class="cls-6" x="486.03" y="396.48" width="68.64" height="26.01" rx="11.71" transform="matrix(0.99, 0.13, -0.13, 0.99, -92.7, -103.41)"/><path class="cls-32" d="M508.35,405.94a5.28,5.28,0,0,0-.91-.52,3.5,3.5,0,0,0-1-.31,1.73,1.73,0,0,0-1.14.18,1,1,0,0,0-.53.8,1,1,0,0,0,.18.72,2.29,2.29,0,0,0,.62.57c.27.17.55.34.85.5a6.36,6.36,0,0,1,.74.45,3.18,3.18,0,0,1,.64.57,2.12,2.12,0,0,1,.41.77,2.58,2.58,0,0,1,0,1.05,2.39,2.39,0,0,1-.5,1.2,2.28,2.28,0,0,1-1.09.75,3.27,3.27,0,0,1-1.55.12,4.78,4.78,0,0,1-2-.74,7.49,7.49,0,0,1-.72-.54l.63-.84a6.3,6.3,0,0,0,.6.48,4.73,4.73,0,0,0,.74.39,3.32,3.32,0,0,0,.77.22,2.58,2.58,0,0,0,.83,0,1.55,1.55,0,0,0,.71-.36,1.25,1.25,0,0,0,.37-.79,1.12,1.12,0,0,0-.13-.75,2,2,0,0,0-.54-.59,6.21,6.21,0,0,0-.76-.49,8.78,8.78,0,0,1-.79-.44,3.76,3.76,0,0,1-.69-.56,2.17,2.17,0,0,1-.49-.74,2,2,0,0,1-.09-1,2.11,2.11,0,0,1,.49-1.14,2.24,2.24,0,0,1,1-.67,3,3,0,0,1,1.35-.14,4.71,4.71,0,0,1,1.44.4,5.14,5.14,0,0,1,1.06.64Z" transform="translate(-151.95 -37.68)"/><path class="cls-32" d="M510.33,404.64l5.72.77-.15,1.11-2.3-.31-1,7.49-1.16-.15,1-7.5-2.26-.3Z" transform="translate(-151.95 -37.68)"/><path class="cls-32" d="M515.26,414.06l5-8.45h.08l2.55,9.46-1.32-.18-1.85-7.52.9-.43-4.16,7.26Zm2.64-3,3.2.43.25,1.05-3.92-.53Z" transform="translate(-151.95 -37.68)"/><path class="cls-32" d="M527.9,407a4.26,4.26,0,0,1,1.18.33,3.12,3.12,0,0,1,.9.64,2.43,2.43,0,0,1,.52.93,2.65,2.65,0,0,1,.08,1.17,3.34,3.34,0,0,1-.28,1,2.42,2.42,0,0,1-1.59,1.34,3.52,3.52,0,0,1-1.4.06l-1.27-.17-.43,3.16-1.15-.15,1.15-8.6Zm-.47,4.33a2.08,2.08,0,0,0,.88,0,1.32,1.32,0,0,0,.58-.33,1.45,1.45,0,0,0,.34-.48,2.07,2.07,0,0,0,.16-.52,1.7,1.7,0,0,0,0-.55,1.63,1.63,0,0,0-.22-.55,1.34,1.34,0,0,0-.45-.47,1.8,1.8,0,0,0-.75-.26l-1.33-.18-.43,3.21Zm1.33.86,1.76,3.91-1.33-.18-1.81-3.88Z" transform="translate(-151.95 -37.68)"/><path class="cls-32" d="M531.71,407.52l5.73.77-.15,1.11-2.31-.31-1,7.49-1.15-.16,1-7.49-2.26-.3Z" transform="translate(-151.95 -37.68)"/><polyline class="cls-2" points="161.86 115.13 165.27 128.06 161.05 115.47"/><path class="cls-20" d="M765.12,546.1l11.83-19-5.83-3.67a5.35,5.35,0,0,1-2.5-5,23.29,23.29,0,0,0,.17-3.34,5.4,5.4,0,0,1,2.83-4.83l6-3.16-10.5-19.66-6,3.16a5,5,0,0,1-5.5-.33c-.83-.67-1.83-1.17-2.83-1.83a5.41,5.41,0,0,1-2.83-4.84l.17-6.83-22.33-.66-.12,6.89a5.59,5.59,0,0,1-3.16,4.67l-1.5.67c-.5.33-1,.5-1.5.83a5.42,5.42,0,0,1-5.5,0l-5.83-3.67-11.83,19,5.83,3.66a5.4,5.4,0,0,1,2.5,5,23.22,23.22,0,0,0-.17,3.33,5.41,5.41,0,0,1-2.83,4.84l-6,3.16,10.5,19.66,6-3.16a5,5,0,0,1,5.5.33,15.43,15.43,0,0,0,2.83,1.66,5.41,5.41,0,0,1,2.83,4.84l-.17,6.83,22.33.66.17-6.83a5.57,5.57,0,0,1,3.16-4.66l1.5-.67c.5-.33,1-.5,1.5-.83a5.42,5.42,0,0,1,5.5,0Zm-18.83-14a18.33,18.33,0,1,1,7.31-24.87l0,0v.17a17.87,17.87,0,0,1-6.77,24.36Z" transform="translate(-151.95 -37.68)"/><path class="cls-33" d="M290,281.33l1.22-5.72a25.77,25.77,0,0,0-18.67,4.58l2.79,5.18A20,20,0,0,1,290,281.33Z" transform="translate(-151.95 -37.68)"/><path class="cls-34" d="M307.11,305.37a20,20,0,0,1-.78,2.7l5.74,1.22a24,24,0,0,0,.73-2.71,25.86,25.86,0,0,0-18.14-30.22l-1.22,5.71A20,20,0,0,1,307.11,305.37Z" transform="translate(-151.95 -37.68)"/><path class="cls-3" d="M283.36,320.76a20,20,0,0,1-10.76-32.88l-2.89-5.38a25.83,25.83,0,1,0,41,30.14l-5.94-1.27A20,20,0,0,1,283.36,320.76Z" transform="translate(-151.95 -37.68)"/><rect class="cls-20" x="245.33" y="353.11" width="60.43" height="4.71" rx="1.1" transform="translate(-71.67 -87.37) rotate(12.05)"/><path class="cls-34" d="M271.26,357l-23.91-5.1a2.36,2.36,0,0,1-1.82-2.8h0a2.37,2.37,0,0,1,2.8-1.81l23.91,5.1a2.37,2.37,0,0,1,1.81,2.8h0A2.35,2.35,0,0,1,271.26,357Z" transform="translate(-151.95 -37.68)"/><rect class="cls-20" x="248.82" y="336.78" width="60.43" height="4.71" rx="1.1" transform="translate(-75 -88.46) rotate(12.05)"/><path class="cls-33" d="M266.26,338.82l-15.43-3.3a2.35,2.35,0,0,1-1.81-2.79h0a2.36,2.36,0,0,1,2.8-1.81l15.42,3.29a2.35,2.35,0,0,1,1.81,2.79h0A2.35,2.35,0,0,1,266.26,338.82Z" transform="translate(-151.95 -37.68)"/><rect class="cls-3" x="247.07" y="344.95" width="60.43" height="4.71" rx="1.1" transform="translate(-73.33 -87.92) rotate(12.05)"/><path class="cls-3" d="M279.41,350.16l-30.32-6.47a2.35,2.35,0,0,1-1.81-2.79h0a2.35,2.35,0,0,1,2.79-1.82l30.33,6.48a2.35,2.35,0,0,1,1.81,2.79h0A2.35,2.35,0,0,1,279.41,350.16Z" transform="translate(-151.95 -37.68)"/></g></g></svg>