<svg id="Layer_1" data-name="Layer 1" xmlns="http://www.w3.org/2000/svg" viewBox="0 0 71 71.05"><defs><style>.cls-1{fill:#fff;}</style></defs><title>shop</title><path class="cls-1" d="M68.33,11.09h-45A5.93,5.93,0,0,0,17.41,17V46.59h2.45V17a3.55,3.55,0,0,1,3.55-3.55h45A3.56,3.56,0,0,1,71.86,17V54.87a3.55,3.55,0,0,1-3.55,3.55H38.74v2.37H68.33a5.92,5.92,0,0,0,5.91-5.92V17A5.93,5.93,0,0,0,68.33,11.09Z" transform="translate(-3.24 -11.09)"/><rect class="cls-1" x="18.94" y="4.73" width="2.37" height="2.37"/><rect class="cls-1" x="23.67" y="4.73" width="2.37" height="2.37"/><rect class="cls-1" x="28.41" y="4.73" width="2.37" height="2.37"/><rect class="cls-1" x="18.94" y="9.47" width="47.33" height="2.37"/><path class="cls-1" d="M22.18,38.31a1.18,1.18,0,0,0,1.18,1.18H35.19a1.18,1.18,0,0,0,1.19-1.17h0V26.47a1.18,1.18,0,0,0-1.18-1.18H23.36a1.18,1.18,0,0,0-1.18,1.18h0Zm2.36-10.65H34v9.46H24.54Z" transform="translate(-3.24 -11.09)"/><path class="cls-1" d="M52.94,26.47a1.18,1.18,0,0,0-1.18-1.18H39.93a1.18,1.18,0,0,0-1.19,1.17h0V38.31a1.18,1.18,0,0,0,1.18,1.18H51.76a1.18,1.18,0,0,0,1.18-1.18h0ZM50.58,37.12H41.11V27.66h9.47Z" transform="translate(-3.24 -11.09)"/><path class="cls-1" d="M69.51,26.47a1.18,1.18,0,0,0-1.18-1.18H56.49a1.18,1.18,0,0,0-1.18,1.18h0V38.31a1.18,1.18,0,0,0,1.18,1.18H68.33a1.18,1.18,0,0,0,1.18-1.18h0ZM67.14,37.12H57.68V27.66h9.46Z" transform="translate(-3.24 -11.09)"/><path class="cls-1" d="M22.18,46.59h2.36V44.22H36.38V43a1.18,1.18,0,0,0-1.18-1.18H23.36A1.18,1.18,0,0,0,22.18,43h0Z" transform="translate(-3.24 -11.09)"/><path class="cls-1" d="M51.76,41.86H50.58V53.69H41.11v2.37H51.76a1.18,1.18,0,0,0,1.18-1.18h0V43a1.18,1.18,0,0,0-1.18-1.18Z" transform="translate(-3.24 -11.09)"/><path class="cls-1" d="M68.33,41.86H56.49A1.18,1.18,0,0,0,55.31,43h0V54.87a1.17,1.17,0,0,0,1.17,1.19H68.33a1.18,1.18,0,0,0,1.18-1.18h0V43a1.18,1.18,0,0,0-1.18-1.18ZM67.14,53.69H57.68V44.22h9.46Z" transform="translate(-3.24 -11.09)"/><path class="cls-1" d="M3.5,49.4a1.2,1.2,0,0,0-.23,1L8,71.7a1.15,1.15,0,0,0,1.16.89h26A1.19,1.19,0,0,1,35.38,75a.81.81,0,0,1-.22,0H8a3.55,3.55,0,1,0,3.55,3.63,3.68,3.68,0,0,0-.22-1.18h17a3.68,3.68,0,0,0-.22,1.18,3.55,3.55,0,1,0,7.1,0h0A3.41,3.41,0,0,0,35,77.41h.21a3.55,3.55,0,1,0,0-7.1H34.3l4.38-19.72,2-4h.67a3.55,3.55,0,1,0,0-2.37H40a1.21,1.21,0,0,0-1.07.66l-2,4.08H4.43A1.2,1.2,0,0,0,3.5,49.4ZM8,79.72a1.18,1.18,0,1,1,1.18-1.18v0A1.18,1.18,0,0,1,8,79.72Zm23.66,0A1.18,1.18,0,0,1,30.5,78.5a1.18,1.18,0,0,1,2.36.09h0A1.17,1.17,0,0,1,31.64,79.72Zm13-35.5a1.2,1.2,0,0,1,1.2,1.18,1.19,1.19,0,1,1-2.38,0h0a1.18,1.18,0,0,1,1.17-1.19h0Zm-24.78,26h-4.8l-.26-4.74h5.06Zm0-7.1H14.62l-.27-4.74h5.51ZM30.4,51.32h5.68l-1,4.74h-4.9Zm-.4,7.1h4.51l-1.06,4.74H29.74Zm-.39,7.1h3.32l-1,4.74H29.34Zm-7.43-14.2H28l-.27,4.74H22.18Zm0,7.1h5.45l-.26,4.74H22.18Zm0,7.1h5.06L27,70.26H22.18Zm-2.32-14.2v4.74H14.22L14,51.32ZM12.64,70.26H10.11L9.05,65.52h3.33Zm-.39-7.1H8.53l-1-4.74H12Zm-.66-11.84.27,4.74H7l-1.1-4.74Z" transform="translate(-3.24 -11.09)"/></svg>