<svg id="Layer_1" data-name="Layer 1" xmlns="http://www.w3.org/2000/svg" xmlns:xlink="http://www.w3.org/1999/xlink" viewBox="0 0 1057.13 739.5"><defs><style>.cls-1{fill:#ff4e6c;}.cls-2{fill:#e23359;}.cls-3{fill:#c0e5c0;}.cls-4{fill:#b4b4ef;}.cls-5{fill:#eef;}.cls-6{fill:#fff;}.cls-7{fill:#1a2e36;}.cls-8{fill:#f4f8fc;}.cls-9{fill:#5252ba;}.cls-10{fill:#7676c4;}.cls-11{fill:#8a8adb;}.cls-12{fill:#7474af;}.cls-13{opacity:0.3;}.cls-14{fill:url(#linear-gradient);}.cls-15{fill:#ffa800;opacity:0.35;isolation:isolate;}.cls-16{fill:#ffbf9d;}.cls-17{fill:#4d4d4d;}.cls-18{fill:#1a2e35;}.cls-19{fill:#ffaba1;}.cls-20{opacity:0.1;}.cls-21{fill:#6666c9;}.cls-22{fill:#2d2d2d;}.cls-23{fill:#260e08;}.cls-24{fill:#dd9373;}.cls-25{fill:#c17e67;}.cls-26{fill:#89705d;}.cls-27{fill:#d1945d;}.cls-28{fill:#c18859;}.cls-29{fill:#16282d;}.cls-30{fill:#8f8fcc;}</style><linearGradient id="linear-gradient" x1="-2935.82" y1="-696.65" x2="-2865.28" y2="-799.59" gradientTransform="matrix(-0.84, -0.55, -0.55, 0.84, -1931.69, -758.71)" gradientUnits="userSpaceOnUse"><stop offset="0" stop-color="#444b8c"/><stop offset="1" stop-color="#26264f"/></linearGradient></defs><title>shopillusztracio2</title><path class="cls-1" d="M85.6,531.7c-2.1-6.9-1.2-14.4,1.3-21.3,1.3-3.7,3.2-7.4,6.5-9.4s8.4-1.6,10.3,1.8c1.1,2,.9,4.5.4,6.8C103,515,101,521,103.5,526c1.4,2.8,4.2,5.1,4.6,8.3s-2,6.1-4.9,7.2a12.48,12.48,0,0,1-9.1-.8A13.64,13.64,0,0,1,85.6,531.7Z" transform="translate(0.03)"/><path class="cls-1" d="M55,541c6.2-2.8,5.8-10.7,3-14.8s-7.3-6.5-11.8-8.7c-10.1-5-20.7-10.2-32-9.9a17.91,17.91,0,0,0-9.6,2.5c-2.8,1.8-4.9,5.1-4.6,8.4.3,4,3.6,7,6.8,9.4a79.61,79.61,0,0,0,32,13.8c5.3,1.2,11.1,1.6,16.2-.7" transform="translate(0.03)"/><path class="cls-1" d="M61,553.1c-4.2-5.1-11.3-7.2-17.9-6.5s-12.7,4-17.9,8A60.61,60.61,0,0,0,10,572.1a21.82,21.82,0,0,0-3.1,8.5,9.34,9.34,0,0,0,3.1,8.2c3.6,2.8,8.7,1.7,13,.3a146.53,146.53,0,0,0,22-9.3c5.7-3,11.4-6.5,14.7-12s4.2-11.6.7-15.5" transform="translate(0.03)"/><path class="cls-1" d="M138.2,556.6a11.28,11.28,0,0,0-2.4-.8l-6.7-1.9c-3.3-1-6.6-2.1-9.8-3.4a79.18,79.18,0,0,1-11.2-5.8,43.48,43.48,0,0,1-9.6-8,22.67,22.67,0,0,1-5-8.8,22.24,22.24,0,0,1-.8-6.8,11.11,11.11,0,0,0,.1-2.6,11.08,11.08,0,0,0-.5,2.5,20.72,20.72,0,0,0,.5,7,23.83,23.83,0,0,0,4.9,9.3,43.58,43.58,0,0,0,9.8,8.3,77.86,77.86,0,0,0,11.5,5.9,87.79,87.79,0,0,0,9.9,3.2c2.9.8,5.2,1.3,6.8,1.6A21.3,21.3,0,0,0,138.2,556.6Z" transform="translate(0.03)"/><path class="cls-2" d="M133,559c-.4-.1-.8-.2-1.1-.3l-3.3-.6c-2.9-.5-7.1-1.3-12.2-2.4-10.3-2.2-21.2-5.1-36.6-9.7-14.4-4.3-31.2-9.7-41.9-14-2.4-1-4.6-1.9-6.5-2.7s-3.6-1.5-4.9-2.1l-3.1-1.4a4.87,4.87,0,0,0-1.1-.4,8.79,8.79,0,0,0,1,.6l3,1.5c1.3.7,2.9,1.4,4.8,2.3s4.1,1.9,6.5,2.9a387.54,387.54,0,0,0,38.7,13.8c15.4,4.6,29.5,8,39.9,10,5.2,1,9.4,1.7,12.3,2.1l3.4.4A2,2,0,0,0,133,559Z" transform="translate(0.03)"/><path class="cls-2" d="M105.5,553.9a19.68,19.68,0,0,0-3.5-.6,94,94,0,0,0-9.6-.7,136.67,136.67,0,0,0-14.3.5,113.37,113.37,0,0,0-17.3,2.8c-12.2,2.7-22.6,7.5-29.3,12a45.87,45.87,0,0,0-4.4,3.3c-.6.5-1.2,1-1.7,1.4L24.1,574a19.47,19.47,0,0,0-2.4,2.6c.2.2,3.5-3.7,10.3-8a93.66,93.66,0,0,1,29.2-11.7,125.79,125.79,0,0,1,17.2-2.8c5.3-.6,10.1-.7,14.2-.8s7.3.2,9.6.3A11.25,11.25,0,0,0,105.5,553.9Z" transform="translate(0.03)"/><path class="cls-1" d="M143.2,566.2c3.8,1.4,4,6,2.6,8.6s-4,4.2-6.5,5.8c-5.7,3.5-11.7,7.1-18.4,7.5a10.54,10.54,0,0,1-5.8-1,5.7,5.7,0,0,1-3.2-4.7c0-2.4,1.8-4.3,3.5-5.9a46.91,46.91,0,0,1,18.2-9.9c3.2-1,6.5-1.5,9.6-.4" transform="translate(0.03)"/><path class="cls-1" d="M146.1,558.7c-2.2,3.3-6.3,4.9-10.3,4.8a20.81,20.81,0,0,1-11-3.8,34.49,34.49,0,0,1-9.9-9.5,12.3,12.3,0,0,1-2.3-4.9,5.4,5.4,0,0,1,1.4-5c2-1.8,5.1-1.5,7.7-.8a92.09,92.09,0,0,1,13.5,4.3c3.5,1.4,7.1,3.2,9.4,6.3s3.1,6.7,1.2,9.1" transform="translate(0.03)"/><path class="cls-2" d="M188.6,557.5a1.45,1.45,0,0,1-.7.2l-1.9.5c-1.7.5-4.1,1.2-7.1,2.1-6,1.8-12.3,4.2-21.1,7.7-8.3,3.3-17.9,7.4-24,10.5-1.4.7-2.6,1.4-3.7,2s-2,1.1-2.8,1.5l-1.8,1-.6.3a2.09,2.09,0,0,1,.6-.4,17.09,17.09,0,0,1,1.7-1.1c.7-.4,1.7-1,2.7-1.6s2.3-1.3,3.7-2A222.73,222.73,0,0,1,155.8,568c8.9-3.5,17.1-6.3,23.1-8,3-.9,5.4-1.5,7.2-1.9l2-.4A1.69,1.69,0,0,0,188.6,557.5Z" transform="translate(0.03)"/><path class="cls-2" d="M170.6,560.9a14.62,14.62,0,0,1-2,.5c-1.3.3-3.3.6-5.6.9a60.48,60.48,0,0,1-8.5.4,72.69,72.69,0,0,1-10.4-.7,51.58,51.58,0,0,1-18-5.5,26.06,26.06,0,0,1-2.8-1.7,10.47,10.47,0,0,1-1.1-.8l-.9-.7a10.7,10.7,0,0,1-1.6-1.4c2.1,1.5,4.3,2.9,6.5,4.2a53.6,53.6,0,0,0,17.9,5.3,89.28,89.28,0,0,0,10.3.8,70.57,70.57,0,0,0,8.4-.3c2.3-.2,4.3-.5,5.7-.7Z" transform="translate(0.03)"/><path class="cls-1" d="M61.8,468.2a8.6,8.6,0,0,0,1.6-.1l4.6-.4c2-.2,4.4-.4,7.3-.6s6.1-.5,9.7-.6c7.1-.4,15.7-.6,25.1-.4s19.9.8,30.7,1.9,21.1,2.9,30.4,4.6a249.13,249.13,0,0,1,24.5,5.8c3.5.9,6.6,1.9,9.3,2.6s5.1,1.5,7,2.1l4.4,1.4a7.49,7.49,0,0,0,1.6.4,4.71,4.71,0,0,0-1.5-.6l-4.3-1.6q-2.85-1.05-6.9-2.4c-2.7-.9-5.8-1.9-9.3-2.8-6.9-2-15.2-4.1-24.5-6s-19.7-3.5-30.5-4.8a282.66,282.66,0,0,0-30.8-1.8c-9.5-.1-18.1.2-25.2.7-3.6.2-6.8.5-9.7.8s-5.3.6-7.3.8l-4.6.6A7.49,7.49,0,0,0,61.8,468.2Z" transform="translate(0.03)"/><path class="cls-1" d="M112.8,467a26.53,26.53,0,0,0-16.2,8.1c-1.4,1.5-2.8,3.5-2.3,5.6.7,2.7,4.1,3.6,6.9,3.5a20.11,20.11,0,0,0,12.6-5.7c3.3-3.3,5.3-6.7,5.5-11.4" transform="translate(0.03)"/><path class="cls-1" d="M147.7,473c-7.3.4-18.3,3.8-23.7,8.6a7.84,7.84,0,0,0-2.2,2.6,3.25,3.25,0,0,0,0,3.3c.9,1.4,2.8,1.7,4.4,1.7a28.27,28.27,0,0,0,25.1-16.3" transform="translate(0.03)"/><path class="cls-1" d="M179.2,474.6a41.63,41.63,0,0,0-19.3,9.7c-1.3,1.1-2.6,2.5-2.6,4.3-.1,2.6,2.7,4.4,5.3,4.7,5.3.6,10.3-2.5,14.4-5.9,4.4-3.7,8.8-10.9,8.8-10.9" transform="translate(0.03)"/><path class="cls-1" d="M161.6,469.8c-4.2-5.3-8.5-10.5-12.7-15.8a15.41,15.41,0,0,1-3-4.9,5.14,5.14,0,0,1,1.1-5.4,5.27,5.27,0,0,1,5.4-.7,12.76,12.76,0,0,1,4.5,3.5,36.42,36.42,0,0,1,7.8,11.2c1.8,4.2,2.7,7.9,1.1,12.2" transform="translate(0.03)"/><path class="cls-1" d="M130.3,465.1A45.51,45.51,0,0,1,114,448.5a7.07,7.07,0,0,1-1.2-3.7c0-2.6,2.6-4.6,5.3-4.9a10.59,10.59,0,0,1,8.1,2.9,23.89,23.89,0,0,1,5,7.2,52.92,52.92,0,0,1,4.6,15.6" transform="translate(0.03)"/><path class="cls-1" d="M102.2,464.9c-8.6-3.1-15.1-9.3-21.1-16.1-1.3-1.5-2.6-3.4-1.9-5.2a3.58,3.58,0,0,1,2.8-2.1,7.79,7.79,0,0,1,3.7.3,28.07,28.07,0,0,1,20.8,23" transform="translate(0.03)"/><path class="cls-1" d="M87.9,466a71,71,0,0,0-13.6-3.3,25.21,25.21,0,0,0-13.8,1.9,10.09,10.09,0,0,0-4.6,3.8,6,6,0,0,0-.4,5.8,6.46,6.46,0,0,0,4.5,3,17.61,17.61,0,0,0,5.6-.3c8.8-1.7,18.9-5.5,22.3-10.9" transform="translate(0.03)"/><path class="cls-2" d="M124.2,362.6a5.73,5.73,0,0,0,1.1,1.1l3.4,3.1c1.5,1.3,3.3,3,5.4,4.9s4.5,4.1,7,6.7c5.1,5,11,11.1,17.4,18.2s12.9,15.1,19.4,23.9S190.1,438,195.1,446s9.1,15.5,12.4,21.9c1.7,3.1,3.1,6.1,4.4,8.6s2.3,4.8,3.2,6.6,1.5,3.1,2,4.2a6.38,6.38,0,0,0,.8,1.4,4.71,4.71,0,0,0-.6-1.5l-1.8-4.3c-.8-1.9-1.8-4.1-3-6.7s-2.5-5.5-4.2-8.7c-3.2-6.4-7.3-13.9-12.2-22.1s-10.7-16.8-17.2-25.7a299.1,299.1,0,0,0-19.6-23.9c-6.4-7.1-12.4-13.2-17.6-18.1-2.6-2.5-5-4.6-7.1-6.6s-4-3.5-5.5-4.8l-3.6-2.9C125.1,363.2,124.7,362.9,124.2,362.6Z" transform="translate(0.03)"/><path class="cls-1" d="M159.7,395.5a26.84,26.84,0,0,0-16.9-6.4c-2.1,0-4.5.4-5.7,2.1-1.5,2.3.1,5.5,2.1,7.4a19.73,19.73,0,0,0,12.7,5.4c4.7.2,8.5-.7,12.1-3.6" transform="translate(0.03)"/><path class="cls-1" d="M181.8,422.6c-5.2-5.1-15.2-10.8-22.4-11.6a7.84,7.84,0,0,0-3.4.2,3.67,3.67,0,0,0-2.4,2.3c-.4,1.6.6,3.2,1.8,4.4a28.43,28.43,0,0,0,29,7.4" transform="translate(0.03)"/><path class="cls-3" d="M190.7,433.3l3-20a15.16,15.16,0,0,1,1.6-5.5,5.22,5.22,0,0,1,4.7-2.9,5.39,5.39,0,0,1,4.2,3.5,13.7,13.7,0,0,1,.5,5.7,41.25,41.25,0,0,1-2.9,13.4c-1.9,4.2-4,7.4-8.2,9.1" transform="translate(0.03)"/><path class="cls-1" d="M154,386.3c-3.6-8.4-3.4-17.4-2.5-26.5.2-1.9.7-4.2,2.5-4.9a3.68,3.68,0,0,1,3.5.6,9.23,9.23,0,0,1,2.3,2.9,28.11,28.11,0,0,1-2.8,30.9" transform="translate(0.03)"/><path class="cls-1" d="M143.6,376.6a73.85,73.85,0,0,0-6.8-12.3,24.74,24.74,0,0,0-10.7-8.8,10.92,10.92,0,0,0-5.9-.8,5.91,5.91,0,0,0-4.5,3.6,6.22,6.22,0,0,0,.9,5.3,16.49,16.49,0,0,0,4,3.9c7.1,5.2,16.6,10.1,23,9.1" transform="translate(0.03)"/><path class="cls-2" d="M1000.2,357.4a6.38,6.38,0,0,0-.8,1.4l-2.1,4.1c-.9,1.8-2,4-3.4,6.5s-2.9,5.4-4.7,8.5c-3.5,6.2-8,13.5-13.2,21.4s-11.4,16.3-18.2,24.8-13.8,16.3-20.3,23.1-12.7,12.7-18,17.5c-2.6,2.5-5.1,4.5-7.3,6.4s-4,3.5-5.6,4.7l-3.5,3a12,12,0,0,0-1.2,1.1,14.63,14.63,0,0,0,1.3-.9l3.7-2.8c1.6-1.2,3.5-2.7,5.7-4.6s4.7-3.9,7.4-6.3c5.4-4.7,11.6-10.6,18.3-17.4s13.6-14.6,20.5-23.1,12.9-17.1,18.2-25,9.6-15.3,13-21.6c1.8-3.1,3.2-6,4.5-8.5s2.4-4.7,3.2-6.6l1.9-4.2A9.38,9.38,0,0,0,1000.2,357.4Z" transform="translate(0.03)"/><path class="cls-1" d="M973.7,401a26.68,26.68,0,0,0,1.9-18c-.5-2-1.5-4.3-3.5-4.9-2.7-.9-5.3,1.5-6.6,3.9a19.77,19.77,0,0,0-2,13.7c1,4.6,2.8,8,6.6,10.8" transform="translate(0.03)"/><path class="cls-1" d="M953.1,429.3c3.6-6.3,6.6-17.4,5.5-24.6a7.9,7.9,0,0,0-1-3.3,3.62,3.62,0,0,0-2.8-1.8c-1.7,0-2.9,1.4-3.8,2.8a28.49,28.49,0,0,0,.2,29.9" transform="translate(0.03)"/><path class="cls-1" d="M931.5,452.8a42.57,42.57,0,0,0,2.3-21.5c-.3-1.7-.8-3.5-2.2-4.5-2.1-1.5-5.2,0-6.8,2-3.4,4.1-3.5,10-2.8,15.3.7,5.7,4.4,13.3,4.4,13.3" transform="translate(0.03)"/><path class="cls-1" d="M915.9,467.7c1.4-5.6,2.1-11.6,1-17.3a8.33,8.33,0,0,0-1.4-3.5,3.52,3.52,0,0,0-3.3-1.5c-2,.4-2.8,2.8-3.1,4.8a32.37,32.37,0,0,0,3.3,20" transform="translate(0.03)"/><path class="cls-1" d="M925.6,461a121.11,121.11,0,0,1,23.3-.4c1.2.1,2.6.3,3.2,1.4a2.3,2.3,0,0,1-.5,2.6,6.08,6.08,0,0,1-2.4,1.5c-8.6,3.7-19.4,2.6-27.5-2.1" transform="translate(0.03)"/><path class="cls-1" d="M945,440.6l20.2-2.2a15.61,15.61,0,0,1,5.7.1,5.33,5.33,0,0,1,4,3.8,5,5,0,0,1-2.4,4.9,13,13,0,0,1-5.4,1.9,37.12,37.12,0,0,1-13.7.5c-4.5-.8-8.1-2-10.9-5.6" transform="translate(0.03)"/><path class="cls-1" d="M965.8,416.7a45.13,45.13,0,0,1,22.8-4.8,7.46,7.46,0,0,1,3.8,1c2.2,1.5,2.5,4.7,1.3,7.1a11,11,0,0,1-6.8,5.3,21.77,21.77,0,0,1-8.8.3,50.09,50.09,0,0,1-15.6-4.6" transform="translate(0.03)"/><path class="cls-1" d="M981.2,393.2c7.3-5.6,15.9-7.7,25-9.1,1.9-.3,4.2-.3,5.4,1.2a3.66,3.66,0,0,1,.3,3.5,8.93,8.93,0,0,1-2.2,2.9,28,28,0,0,1-30.6,5.1" transform="translate(0.03)"/><path class="cls-1" d="M988,380.6a78,78,0,0,0,10.2-9.7,24.79,24.79,0,0,0,5.8-12.6,10.75,10.75,0,0,0-.7-5.9,5.94,5.94,0,0,0-4.6-3.5,6.44,6.44,0,0,0-4.9,2.2,14.65,14.65,0,0,0-2.7,4.9c-3.5,8.3-5.8,18.8-3.1,24.6" transform="translate(0.03)"/><path class="cls-1" d="M983.5,517.2c6.3,3.5,10.8,9.6,13.8,16.2,1.6,3.5,2.8,7.5,1.9,11.3s-4.9,7-8.6,5.8c-2.2-.7-3.8-2.6-5-4.6-3-4.7-5.6-10.4-10.9-12.3-3-1.1-6.6-.7-9.1-2.7s-2.8-5.8-1.4-8.5a12.4,12.4,0,0,1,7.1-5.8A13.8,13.8,0,0,1,983.5,517.2Z" transform="translate(0.03)"/><path class="cls-1" d="M999.1,489.3c-2.5,6.4,3.3,11.7,8.1,12.8s9.8-.4,14.5-1.9c10.7-3.4,21.9-7,29.9-15a17.9,17.9,0,0,0,5.2-8.5,9.62,9.62,0,0,0-2.5-9.3c-3-2.7-7.4-2.6-11.4-2a79.21,79.21,0,0,0-32.6,12.2c-4.7,3-9.2,6.7-11.2,11.7" transform="translate(0.03)"/><path class="cls-1" d="M986.4,484.7c6.6.8,13.2-2.6,17.4-7.7s6.4-11.6,7.3-18.2a59.89,59.89,0,0,0-1.2-23.1,21.42,21.42,0,0,0-3.7-8.3,9.41,9.41,0,0,0-8-3.8c-4.5.5-7.4,4.8-9.5,8.8a150.43,150.43,0,0,0-9.4,21.9c-2,6.1-3.7,12.6-2.3,18.8s5,11.3,10.3,11.6" transform="translate(0.03)"/><path class="cls-1" d="M928.3,535.8a16.27,16.27,0,0,0,2.3-1.1l6.2-3.3a79.77,79.77,0,0,1,9.4-4.3,84.16,84.16,0,0,1,12.1-3.6,43.71,43.71,0,0,1,12.5-.9,21.82,21.82,0,0,1,15,7.2,15.37,15.37,0,0,0,1.7,1.9,16.44,16.44,0,0,0-1.4-2.2,18.32,18.32,0,0,0-5.3-4.7,23.67,23.67,0,0,0-10-3.3,42.3,42.3,0,0,0-12.8.8,75.68,75.68,0,0,0-12.3,3.7,81.72,81.72,0,0,0-9.4,4.6q-3.9,2.25-6,3.6A15.58,15.58,0,0,0,928.3,535.8Z" transform="translate(0.03)"/><path class="cls-2" d="M933,537.1a8.79,8.79,0,0,0,1-.6l2.8-1.9c2.4-1.6,6-4,10.5-6.7,8.9-5.6,18.8-11.1,33.1-18.4,13.4-6.9,29.2-14.6,39.9-19,2.4-1,4.6-1.9,6.6-2.6s3.6-1.4,5-1.9l3.2-1.2a5.36,5.36,0,0,0,1.1-.5,2.66,2.66,0,0,0-1.2.3l-3.2,1c-1.4.4-3.1,1-5.1,1.7s-4.2,1.5-6.7,2.5a371.36,371.36,0,0,0-37.5,17c-14.3,7.4-26.8,14.7-35.7,20.5-4.4,2.8-7.9,5.3-10.3,7-1.1.8-2,1.5-2.7,2Z" transform="translate(0.03)"/><path class="cls-2" d="M956.4,521.7a29.77,29.77,0,0,0,2.9-2,86.75,86.75,0,0,0,7.4-6.2,135.55,135.55,0,0,0,20.5-24.3c6.9-10.4,11.1-21,12.8-29a50.67,50.67,0,0,0,.9-5.4c.1-.8.2-1.5.3-2.2a12,12,0,0,0,0-1.9,20.44,20.44,0,0,0,0-3.5c-.3,0,0,5.1-1.9,12.9a93.76,93.76,0,0,1-13,28.6,117,117,0,0,1-10.4,13.9,128.89,128.89,0,0,1-9.7,10.4c-2.9,2.8-5.4,5-7.1,6.4A27.55,27.55,0,0,0,956.4,521.7Z" transform="translate(0.03)"/><path class="cls-1" d="M918.1,532.4c-3.7,1.7-7.1-1.6-7.8-4.4s0-5.8.7-8.7c1.7-6.5,3.5-13.2,8-18.2a11,11,0,0,1,4.9-3.3,5.74,5.74,0,0,1,5.6,1.2c1.7,1.7,1.8,4.3,1.5,6.7a45.69,45.69,0,0,1-6.3,19.7c-1.6,2.8-3.7,5.6-6.6,7" transform="translate(0.03)"/><path class="cls-1" d="M921.2,539.7c-.7-3.9,1.2-7.9,4-10.6a21.14,21.14,0,0,1,10.6-4.9,35.6,35.6,0,0,1,13.8,0,12.68,12.68,0,0,1,5,1.9,5.69,5.69,0,0,1,2.5,4.6c-.1,2.7-2.6,4.6-4.9,5.9a100,100,0,0,1-12.7,6.3c-3.5,1.4-7.3,2.6-11.1,2s-6.8-2.7-7.2-5.7" transform="translate(0.03)"/><path class="cls-2" d="M894,576.7l.3-.6,1-1.7c.9-1.5,2.2-3.7,3.7-6.4,3-5.5,6-11.5,9.9-20.2,3.7-8.2,7.8-17.8,10-24.3.5-1.5,1-2.8,1.3-4a26.16,26.16,0,0,1,1-3c.3-.8.4-1.4.6-1.9a3.63,3.63,0,0,1,.3-.7c0,.2-.1.5-.1.7-.1.5-.3,1.2-.5,2s-.5,1.9-.8,3.1-.8,2.5-1.3,4a244.27,244.27,0,0,1-8.9,22.8c-3.9,8.7-7.9,16.4-11,21.8-1.6,2.7-2.9,4.9-3.9,6.3l-1.1,1.7C894.3,576.4,894.2,576.6,894,576.7Z" transform="translate(0.03)"/><path class="cls-2" d="M904.7,561.8a17.39,17.39,0,0,1,1.1-1.8c.8-1.1,1.9-2.7,3.5-4.6,1.8-2.2,3.8-4.2,5.8-6.2a72.79,72.79,0,0,1,8-6.7,54.34,54.34,0,0,1,16.8-8.5,30.05,30.05,0,0,1,3.2-.7,6.88,6.88,0,0,1,1.3-.2l1.1-.1a14.77,14.77,0,0,1,2.1-.1,63.83,63.83,0,0,0-7.6,1.5,54.67,54.67,0,0,0-16.6,8.6,71.88,71.88,0,0,0-8,6.6c-2.3,2.2-4.3,4.3-5.9,6.1s-2.8,3.3-3.6,4.4A6.57,6.57,0,0,1,904.7,561.8Z" transform="translate(0.03)"/><ellipse class="cls-4" cx="667.83" cy="699.1" rx="180.9" ry="40.4"/><path class="cls-4" d="M212.38,0,882.7,25.23a32.25,32.25,0,0,1,31.14,32.21V581.12a33.32,33.32,0,0,1-32.46,33.23L212.17,632.64a33.27,33.27,0,0,1-34.3-32.31v-567A33.32,33.32,0,0,1,211.25.13,2.17,2.17,0,0,1,212.38,0Z" transform="translate(0.03)"/><path class="cls-5" d="M226.7,0,883.2,24.8a31.67,31.67,0,0,1,30.5,31.7V571.8a32.73,32.73,0,0,1-31.8,32.7l-655.5,18a32.73,32.73,0,0,1-33.6-31.8V32.8A32.73,32.73,0,0,1,225.6.1,3.75,3.75,0,0,1,226.7,0Z" transform="translate(0.03)"/><rect class="cls-4" x="659.93" y="347.3" width="104.6" height="83.2"/><polygon class="cls-6" points="662.92 430.5 703.73 372.4 747.96 430.5 662.92 430.5"/><polyline class="cls-6" points="764.53 430.5 716.82 430.5 739.73 397.7"/><circle class="cls-6" cx="733.63" cy="368.8" r="9"/><rect class="cls-4" x="516.62" y="439.31" width="104.9" height="6.3" transform="translate(-3.58 4.68) rotate(-0.47)"/><rect class="cls-4" x="516.52" y="451.82" width="104.9" height="6.3" transform="translate(-3.68 4.68) rotate(-0.47)"/><rect class="cls-4" x="227.61" y="443.72" width="104.9" height="6.3" transform="translate(-3.63 2.31) rotate(-0.47)"/><rect class="cls-4" x="227.51" y="456.22" width="104.9" height="6.3" transform="translate(-3.73 2.31) rotate(-0.47)"/><rect class="cls-4" x="372.51" y="440.32" width="104.9" height="6.3" transform="translate(-3.59 3.5) rotate(-0.47)"/><rect class="cls-4" x="372.41" y="452.82" width="104.9" height="6.3" transform="translate(-3.7 3.5) rotate(-0.47)"/><rect class="cls-4" x="659.82" y="441.31" width="104.9" height="6.3" transform="translate(-3.59 5.86) rotate(-0.47)"/><rect class="cls-4" x="659.62" y="453.82" width="104.9" height="6.3" transform="translate(-3.7 5.86) rotate(-0.47)"/><polygon class="cls-7" points="892.83 90.8 211.13 70.8 211.33 37.8 893.03 61.5 892.83 90.8"/><path class="cls-8" d="M841.1,74.5a3.74,3.74,0,0,1-3.6,3.7h-.1a3.87,3.87,0,0,1-3.7-3.9,3.74,3.74,0,0,1,3.6-3.7h.1A3.73,3.73,0,0,1,841.1,74.5Z" transform="translate(0.03)"/><path class="cls-8" d="M856.2,75a3.65,3.65,0,0,1-3.5,3.7h-.2a3.85,3.85,0,0,1-3.6-3.9,3.58,3.58,0,0,1,3.5-3.7h.1A3.68,3.68,0,0,1,856.2,75Z" transform="translate(0.03)"/><path class="cls-8" d="M871.2,75.4a3.65,3.65,0,0,1-3.5,3.7h-.1a3.72,3.72,0,0,1-3.6-3.9,3.65,3.65,0,0,1,3.5-3.7h.1A3.84,3.84,0,0,1,871.2,75.4Z" transform="translate(0.03)"/><polygon class="cls-4" points="802.73 226.6 815.33 226.8 818.33 124 805.73 123.5 802.73 226.6"/><polygon class="cls-4" points="780.03 226.3 792.83 226.5 794.33 174.8 781.53 174.4 780.03 226.3"/><polygon class="cls-4" points="757.13 225.9 770.03 226.1 773.33 112.4 760.43 111.8 757.13 225.9"/><polygon class="cls-4" points="734.03 225.5 747.03 225.7 749.83 128.4 736.83 127.9 734.03 225.5"/><polygon class="cls-4" points="710.63 225.1 723.83 225.4 724.53 199.1 711.33 198.8 710.63 225.1"/><polygon class="cls-4" points="687.03 224.8 700.33 225 702.13 163 688.83 162.6 687.03 224.8"/><polygon class="cls-4" points="663.13 224.4 676.53 224.6 679.23 134.8 665.73 134.3 663.13 224.4"/><polygon class="cls-4" points="638.93 224 652.53 224.2 654.53 158.3 640.93 157.9 638.93 224"/><polygon class="cls-4" points="614.53 223.6 628.33 223.8 631.33 121.1 617.53 120.5 614.53 223.6"/><polygon class="cls-4" points="589.93 223.2 603.83 223.4 607.13 108.6 593.23 108 589.93 223.2"/><polygon class="cls-4" points="589.43 240.8 814.83 243.6 815.13 232.6 589.73 229.3 589.43 240.8"/><polygon class="cls-4" points="588.93 256.8 746.13 258.2 746.23 253.3 589.03 251.7 588.93 256.8"/><polygon class="cls-4" points="228.93 225.6 462.53 227.7 462.63 214.5 229.03 212.1 228.93 225.6"/><polygon class="cls-4" points="228.83 252.5 462.43 254.1 462.53 240.9 228.83 239.1 228.83 252.5"/><polygon class="cls-4" points="439.53 198.5 462.73 198.8 462.93 178.8 439.63 178.5 439.53 198.5"/><polygon class="cls-4" points="398.13 198.1 421.43 198.3 421.73 151.1 398.43 150.7 398.13 198.1"/><polygon class="cls-4" points="356.33 197.6 379.83 197.9 380.23 129.5 356.73 129.1 356.33 197.6"/><polygon class="cls-4" points="314.23 197.1 337.93 197.4 338.23 147.3 314.53 146.9 314.23 197.1"/><polygon class="cls-4" points="271.83 196.6 295.73 196.9 296.23 119 272.33 118.5 271.83 196.6"/><polygon class="cls-4" points="229.13 196.1 253.23 196.4 253.73 109.4 229.63 109 229.13 196.1"/><circle class="cls-9" cx="238.93" cy="55.6" r="11.5"/><path class="cls-10" d="M907.1,271.5s32.4,30.3,12.3,85.5a7,7,0,0,1-9.1,4.2,7.11,7.11,0,0,1-3-2.1l-22.2-27a19.66,19.66,0,0,1-4.3-15.5l4.2-28.4Z" transform="translate(0.03)"/><path class="cls-10" d="M836.8,225.6s-40.8-17.4-83.2,23.3a7.05,7.05,0,0,0,3,11.9l33.6,9.4a19.75,19.75,0,0,0,15.9-2.3l24.3-15.3Z" transform="translate(0.03)"/><path class="cls-11" d="M909.6,267.6s32.4,30.3,12.3,85.6a7,7,0,0,1-9.1,4.2,7.39,7.39,0,0,1-3.1-2.2l-22.2-27a19.77,19.77,0,0,1-4.3-15.5l4.2-28.4Z" transform="translate(0.03)"/><path class="cls-11" d="M839.3,221.7s-40.8-17.4-83.2,23.3a7.05,7.05,0,0,0,3,11.9l33.6,9.4a19.75,19.75,0,0,0,15.9-2.3l24.3-15.3Z" transform="translate(0.03)"/><path class="cls-1" d="M862.3,135.9c37.3-45.4,107.5-36.6,107-36.6.1,0,36.1,60.2,9.7,112.6-24,47.6-83.6,86-95,93.1-1.2.8-3.3,1.8-4.1.7-17.2-22.4-38.6-35.6-63.4-41.3-1.4-.3-1.2-2.6-1-4C817.2,247.3,828.4,177.1,862.3,135.9Z" transform="translate(0.03)"/><path class="cls-2" d="M894.6,196.3c20.9-25.2,43.4-17.7,63.8-39.9,7.5-8.1,15.2-20.8,18.3-41.8,8.9,21.2,20.4,61.1,2.2,97.3-24,47.6-83.6,86-95,93.1-1.2.8-3.3,1.8-4.1.7a110.88,110.88,0,0,0-29.2-27.1,74.1,74.1,0,0,0,18-18.2C885,236.5,875.6,219.3,894.6,196.3Z" transform="translate(0.03)"/><ellipse class="cls-11" cx="847.82" cy="285.12" rx="11.6" ry="39.4" transform="translate(146 839.64) rotate(-56.9)"/><path class="cls-10" d="M844,275.8l14.2,9.2a22.14,22.14,0,0,1,9.6,22.7l-1.6,8.4a4.54,4.54,0,0,1-6.8,2.9l-47-30.6a4.48,4.48,0,0,1-1.3-6.1,3.45,3.45,0,0,1,1.2-1.2l7-4.9A22,22,0,0,1,844,275.8Z" transform="translate(0.03)"/><ellipse class="cls-11" cx="837.14" cy="301.91" rx="11" ry="32.5" transform="translate(127.01 838.22) rotate(-56.89)"/><path class="cls-12" d="M816.5,288.4c-2.5,3.9,4.7,13,16.1,20.5s22.8,10.4,25.3,6.5-4.7-13-16.1-20.5S819,284.5,816.5,288.4Z" transform="translate(0.03)"/><g class="cls-13"><path class="cls-14" d="M894.6,196.3c14.5-17.5,29.8-19.3,44.6-26.1,9.2,11.9,10.9,27.7,3,39.9-10.3,15.8-32.8,19.3-50.3,7.9a41.23,41.23,0,0,1-6.9-5.6A58.26,58.26,0,0,1,894.6,196.3Z" transform="translate(0.03)"/></g><path class="cls-15" d="M894.6,196.3c17.1-20.6,35.2-19.4,52.3-30.3,11.1,14.8,13,34.3,3.2,49.3-12.9,19.7-41.1,24.1-63,9.9a48.23,48.23,0,0,1-5.1-3.8A60.81,60.81,0,0,1,894.6,196.3Z" transform="translate(0.03)"/><path class="cls-10" d="M881.1,118.8s86.3,19.8,105.2,72.3c0,0,11.5-43.1-17.4-91.7C969,99.3,919.5,92.7,881.1,118.8Z" transform="translate(0.03)"/><rect class="cls-4" x="239.01" y="333.26" width="83.2" height="104.6" transform="translate(-106.29 664.29) rotate(-89.72)"/><rect class="cls-4" x="372.43" y="344" width="104.6" height="82.4"/><path class="cls-16" d="M570.3,710.5c2.3.8,68.5.2,71-1.4,1-.6,1.4-10.3,1.7-21.9,0-2.5.1-5.1.1-7.8.2-17.2,0-35.4,0-35.4l-44.3.3,1.2,35.4.3,7.8s-25.2,11.6-27.8,13.6S568,709.8,570.3,710.5Z" transform="translate(0.03)"/><path class="cls-6" d="M570.3,710.5c2.3.8,68.5.2,71-1.4,1.2-.7,1.6-14.8,1.8-29.7l-43.1.3.3,7.8s-25.2,11.6-27.8,13.6S568,709.8,570.3,710.5Z" transform="translate(0.03)"/><path class="cls-17" d="M567.1,710.4c2.4.8,72.5,1.7,75.2,0,1-.6,1.7-10.8,2.3-23.2l-45.2-.7s-27,11.7-29.7,13.8S564.6,709.5,567.1,710.4Z" transform="translate(0.03)"/><path class="cls-18" d="M574.4,697.3a9.6,9.6,0,0,1,7,3,9.1,9.1,0,0,1,2.5,6.3c0,.1-.1.1-.1,0a10.93,10.93,0,0,0-9.4-9.1s-.1,0,0-.2Z" transform="translate(0.03)"/><path class="cls-18" d="M595,687c4.7,0,10.1,1.7,13,5.6.1.2-.1.3-.2.2a65.7,65.7,0,0,0-12.9-5.2.32.32,0,0,1-.3-.3A.54.54,0,0,1,595,687Z" transform="translate(0.03)"/><path class="cls-18" d="M591.4,688.4c4.7,0,10.1,1.7,13,5.6.1.2-.1.3-.2.2a67.38,67.38,0,0,0-12.8-5.2.3.3,0,0,1,0-.6Z" transform="translate(0.03)"/><path class="cls-18" d="M587.8,689.8c4.7,0,10.1,1.7,13,5.6.1.2-.1.3-.2.2a67.78,67.78,0,0,0-12.8-5.3c-.2,0-.2-.2-.2-.4C587.5,689.9,587.6,689.8,587.8,689.8Z" transform="translate(0.03)"/><path class="cls-18" d="M584.1,691.2c4.7,0,10.1,1.7,13,5.6.1.2-.1.3-.2.2a61.41,61.41,0,0,0-12.8-5.2c-.2-.1-.2-.2-.2-.4A.22.22,0,0,1,584.1,691.2Z" transform="translate(0.03)"/><path class="cls-18" d="M642.1,710.4s2.3-3.9,1.7-11.3c0,0-50,7.4-77.6,6.5,0,0-.7,3.1.2,4.5S625.7,711.7,642.1,710.4Z" transform="translate(0.03)"/><path class="cls-18" d="M574.5,697.6s7.6,1.7,7.3,8.4l1.9-.1C583.7,705.8,582.6,697,574.5,697.6Z" transform="translate(0.03)"/><path class="cls-16" d="M689.2,710.3c2.4-.2,62.8-27.4,64.5-29.9.6-.9-2.8-10-7.3-20.7q-1.5-3.45-3-7.2c-6.7-15.8-14.2-32.4-14.2-32.4l-40.4,18L704,670l3.4,7s-18.5,20.7-20,23.7S686.7,710.6,689.2,710.3Z" transform="translate(0.03)"/><path class="cls-6" d="M689.2,710.3c2.4-.2,62.8-27.4,64.5-29.9.8-1.2-4.5-14.2-10.3-27.9L704,670l3.4,7s-18.5,20.7-20,23.7S686.7,710.6,689.2,710.3Z" transform="translate(0.03)"/><path class="cls-17" d="M686.2,711.5c2.6-.2,67-27.6,68.8-30.2.7-1-2.8-10.6-7.3-22.1l-41.6,17.5s-20,21.5-21.7,24.6S683.6,711.7,686.2,711.5Z" transform="translate(0.03)"/><path class="cls-18" d="M687.6,696.6a9.56,9.56,0,0,1,7.6-.1,9.37,9.37,0,0,1,4.9,4.7c0,.1-.1.1-.1,0a10.82,10.82,0,0,0-12.3-4.5.1.1,0,0,1-.1-.1Z" transform="translate(0.03)"/><path class="cls-18" d="M702.4,678.9c4.3-1.9,10-2.5,14.2-.1.2.1,0,.3-.1.3a64.67,64.67,0,0,0-13.9.4c-.2,0-.3-.1-.3-.2S702.2,678.9,702.4,678.9Z" transform="translate(0.03)"/><path class="cls-18" d="M699.6,681.6c4.3-1.9,10-2.5,14.2-.1.2.1,0,.3-.1.3a64.67,64.67,0,0,0-13.9.4.27.27,0,0,1-.3-.3C699.4,681.8,699.5,681.7,699.6,681.6Z" transform="translate(0.03)"/><path class="cls-18" d="M696.8,684.3c4.3-1.9,10-2.5,14.2-.1.2.1,0,.3-.1.3a64.67,64.67,0,0,0-13.9.4.27.27,0,0,1-.3-.3C696.6,684.5,696.7,684.4,696.8,684.3Z" transform="translate(0.03)"/><path class="cls-18" d="M694,687c4.3-1.9,10-2.5,14.2-.1.2.1,0,.3-.1.3a64.67,64.67,0,0,0-13.9.4.27.27,0,0,1-.3-.3A.37.37,0,0,1,694,687Z" transform="translate(0.03)"/><path class="cls-18" d="M754.9,681.4s.5-4.5-3-11.1c0,0-42.8,26.8-68.5,37.1,0,0,.6,3.1,2,4S740.3,689.1,754.9,681.4Z" transform="translate(0.03)"/><path class="cls-18" d="M687.8,696.8s7.6-1.5,10.1,4.7l1.7-.9S695,693,687.8,696.8Z" transform="translate(0.03)"/><path class="cls-19" d="M638.1,406.7c-7.3,3.5-32.7,10-43.3,3-9.5-6.3-10.3-51.8-6.3-66.4,1.4-5.1,21.6,4.7,23.7,9,1.8,3.7-1.2,38,.3,38.8,2.5,1.3,10.5,2.2,23.3,4C647.8,396.8,643.2,404.3,638.1,406.7Z" transform="translate(0.03)"/><path class="cls-18" d="M612.7,367.3l-27-12.8s-4.7,46.3,8.5,56c3,2.3,23.3,6,42.4-2.2,5.9-2.5,15.1-11.3-2.5-14s-20.7-3.8-21.1-4.2S612.7,367.3,612.7,367.3Z" transform="translate(0.03)"/><g class="cls-20"><path class="cls-18" d="M599.7,377.4a2.24,2.24,0,0,0,3.2-.3c1.5-1.8.8-4.7,0-6.7s-2.2-4.1-4.5-4.5a2,2,0,0,0-2.1,1.6,2.2,2.2,0,0,0,.1.8c.3,1.5,1.1,2.9,1.5,4.5S598.2,376.3,599.7,377.4Z" transform="translate(0.03)"/><path class="cls-18" d="M602.4,386.7c1.3-.7,1.6-2.7,1.6-4.1a3.94,3.94,0,0,0-.6-2.1,2,2,0,0,0-2.7-.7h0a2.75,2.75,0,0,0-1,1.6,3.4,3.4,0,0,0-.1,1v.2a6.46,6.46,0,0,0-.2,3.1,2,2,0,0,0,2.6,1.2C602.1,386.9,602.2,386.8,602.4,386.7Z" transform="translate(0.03)"/><path class="cls-18" d="M609.7,383.6a12.39,12.39,0,0,0,.6-7.6c-.4-2-1.2-5.3-3.5-5.8a1.37,1.37,0,0,0-1.3.6c-.9,1.5,0,4.1.2,5.8.2,2.1,0,4.2.2,6.3a2,2,0,0,0,2.2,1.8A2.27,2.27,0,0,0,609.7,383.6Z" transform="translate(0.03)"/><path class="cls-18" d="M596.8,394a3.7,3.7,0,0,0,1.1.5,2.09,2.09,0,0,0,1.7-.4,5.26,5.26,0,0,0,1.2-1.4,2.49,2.49,0,0,0,.3-1.7,4.33,4.33,0,0,0-.1-.5l-.3-.5a2.1,2.1,0,0,0-1.1-.8,2.22,2.22,0,0,0-2.3.6l-1.2,1.5-.2.6a1.39,1.39,0,0,0,0,.9A5.38,5.38,0,0,0,596.8,394Z" transform="translate(0.03)"/><path class="cls-18" d="M604,393.3a2,2,0,0,0,2.2-.5,4.4,4.4,0,0,0,1-2.3,3.63,3.63,0,0,0-.1-2.3,1.45,1.45,0,0,0-1.9-.9,2.09,2.09,0,0,0-.6.4,12.9,12.9,0,0,0-.9,1.6,2.51,2.51,0,0,1-.4.7,4.87,4.87,0,0,0-.4,1.1A2.08,2.08,0,0,0,604,393.3Z" transform="translate(0.03)"/></g><path class="cls-18" d="M586.4,361.5a61.09,61.09,0,0,1,6.6,2.7c2.2,1,4.3,1.8,6.4,2.8,4.3,1.9,8.6,3.7,12.8,5.9.1,0,0,.2-.1.2-4.5-1.5-8.8-3.5-13.1-5.3-2.2-.9-4.3-1.9-6.5-2.9a50,50,0,0,1-6.1-3.1Q586.25,361.5,586.4,361.5Z" transform="translate(0.03)"/><path class="cls-21" d="M636.6,408.4c-19.1,8.2-39.3,4.4-42.4,2.2-6.1-4.5-8.4-16.9-9.1-28.9L613,388a8.2,8.2,0,0,0,.2,2.2c.3.4,3.5,1.4,21,4.2S642.5,405.9,636.6,408.4Z" transform="translate(0.03)"/><path class="cls-22" d="M658,471s-11.5,113.8-11.8,115.2c0,.2-.1,2.4-.2,6-.6,19.6-2.2,80.7-2.2,80.7H597s3.1-72.3,4.8-89.2C604,562,618.1,471,618.1,471Z" transform="translate(0.03)"/><path class="cls-23" d="M658,471s-11.5,113.8-11.8,115.2c0,.2-.1,2.4-.2,6L623.9,471Z" transform="translate(0.03)"/><path class="cls-22" d="M618.1,471s3.1,16.4,14.6,24.8c0,0,25.3,84.6,28.6,94.3,5.7,16.7,36.1,73.4,36.1,73.4l47-20.2s-35.8-63.1-39.7-68c-2.6-3.2-21.6-71.8-21.6-73.6-.4-20.1-7.2-30.9-7.2-30.9Z" transform="translate(0.03)"/><path class="cls-23" d="M656.1,476.9a15.56,15.56,0,0,0,5.8,8.2,19.74,19.74,0,0,0,10.4,3.6c.6,0,.7,1,0,1-7.7,0-15.4-4.9-16.5-12.8a.35.35,0,0,1,.1-.2S656.1,476.8,656.1,476.9Z" transform="translate(0.03)"/><path class="cls-18" d="M625.3,490.6a39.92,39.92,0,0,1,7.9,4.2c2.6,1.6,5,3.5,7.6,5.3.1.1,0,.2-.1.2-2.7-1.5-5.4-2.9-8.1-4.4a51.49,51.49,0,0,1-7.5-5C625.1,490.7,625.2,490.5,625.3,490.6Z" transform="translate(0.03)"/><path class="cls-23" d="M624.2,474.6c.4,1.8.9,3.5,1.4,5.2s.8,3.3,1.3,4.9a7.63,7.63,0,0,0,2.5,4c.7.6,1.4,1.1,2.1,1.6.4.3.8.5,1.2.8-.1-.2-.1-.5-.2-.7a14.16,14.16,0,0,1-.4-2c-.3-1.5-.6-3-.9-4.4-.6-2.9-1.1-5.9-1.9-8.7a.1.1,0,0,1,.1-.1c.1,0,.1,0,.1.1h0c.9,2.9,1.8,5.7,2.6,8.5.4,1.4,1.8,8.4,1.9,8.9s.1,1,.2,1.5a8.6,8.6,0,0,1,.1,1.6.1.1,0,1,1-.2,0h0a8.8,8.8,0,0,1-.5-1.5,8.33,8.33,0,0,1-.4-1.5c0-.2-.1-.4-.1-.6a14.29,14.29,0,0,1-2-1.4c-.6-.5-1.5-.9-2.1-1.5a7.87,7.87,0,0,1-2.7-3.8,27.84,27.84,0,0,1-1.1-5l-.9-6C624,474.5,624.2,474.5,624.2,474.6Z" transform="translate(0.03)"/><path class="cls-23" d="M672.8,472.9a38.37,38.37,0,0,1,4.8,10,40.19,40.19,0,0,1,1.8,11,35.17,35.17,0,0,1-.4,5.6c-.1.5-.1.9-.2,1.4l-.2.7a1.27,1.27,0,0,0-.1.6c.1.8.3,1.8.5,2.7.8,3.6,1.8,7.1,2.7,10.7,3.8,14.2,7.7,28.5,11.8,42.7l3.1,10.6c.5,1.8,1,3.5,1.6,5.3.3.9.6,1.8.9,2.6s.8,1.6,1.2,2.4c3.5,6.5,7.2,12.8,10.9,19.3,0,0,18.5,31.1,22.3,38.3.2.3.1.5-.3.1-3.3-4.3-15.4-25.2-22.9-37.9-3.8-6.3-7.5-12.7-11-19.2-.5-.8-.9-1.7-1.3-2.5a12.24,12.24,0,0,1-.9-2.7c-.6-1.8-1.1-3.5-1.7-5.3-1.1-3.5-2.1-7.1-3.1-10.6-4-14.2-7.9-28.4-11.5-42.8-.9-3.6-1.8-7.2-2.6-10.8a23.25,23.25,0,0,1-.5-2.8,2.2,2.2,0,0,1,.1-.8l.2-.7c.1-.5.2-.9.3-1.3a33.08,33.08,0,0,0,.5-5.5A39.83,39.83,0,0,0,672.8,472.9Z" transform="translate(0.03)"/><path class="cls-21" d="M679.6,477.4l-65.3.4c0,1.3,3.3-51.2,20.1-82.2,1.1-2.1,11.4-4.4,16-.3C670.3,413.5,679.6,478.2,679.6,477.4Z" transform="translate(0.03)"/><path class="cls-16" d="M640.1,404.9c2.6-.3,7-6,8.4-10.4.1-.3-.9-3.1-1.9-6.5-.6-2.1-1.3-4.4-1.7-6.6l-12.9,6a39.46,39.46,0,0,1,3,8.1,2.77,2.77,0,0,1,.1.9v.1C635.1,398.4,636.1,405.5,640.1,404.9Z" transform="translate(0.03)"/><path class="cls-24" d="M635,396.5v.2a5.9,5.9,0,0,0,1.4-.2c7.8-1.8,7.9-11.9,7.7-14.6l-12.2,5.7a39.46,39.46,0,0,1,3,8.1C635,395.8,635,396.1,635,396.5Z" transform="translate(0.03)"/><path class="cls-16" d="M646.1,366.8c1.6,4.9-.6,19.2-4,22.4-5,4.7-13.2,5.4-17.3-.6-3.9-5.8-.7-24.4,3.1-27.4C633.5,356.9,643.6,359.6,646.1,366.8Z" transform="translate(0.03)"/><path class="cls-18" d="M633.3,375.8l.1.1c-.2,1-.3,2.1.5,2.6h0C632.8,378.1,633,376.6,633.3,375.8Z" transform="translate(0.03)"/><path class="cls-18" d="M634.3,375c1.6.2,1.1,3.3-.4,3.1S633,374.8,634.3,375Z" transform="translate(0.03)"/><path class="cls-18" d="M628,374.8h0c-.2,1.1-.5,2.1-1.4,2.3v.1C627.6,377.1,628,375.7,628,374.8Z" transform="translate(0.03)"/><path class="cls-18" d="M627.2,373.6c-1.5-.4-2.1,2.7-.7,3.1S628.5,373.9,627.2,373.6Z" transform="translate(0.03)"/><path class="cls-18" d="M632.8,385.3c-.3.2-.5.4-.8.4a3,3,0,0,1-1-.4h0a1.23,1.23,0,0,0,1.1.7.84.84,0,0,0,.7-.7Z" transform="translate(0.03)"/><path class="cls-16" d="M643.3,378.5s3.2-4.6,5.3-3.5-.3,7.8-2.7,8.7a2.52,2.52,0,0,1-3.3-1.2v-.1Z" transform="translate(0.03)"/><path class="cls-25" d="M647.9,376.3h0a6.29,6.29,0,0,0-3.2,4.1,1.34,1.34,0,0,1,1.9-.5c.1,0,.1.1.2.1v.1h0a1.57,1.57,0,0,0-1.7.5,6.38,6.38,0,0,0-.8,1.4c-.1.2-.3.1-.3-.1h0C643.9,379.6,645.5,376.5,647.9,376.3Z" transform="translate(0.03)"/><path class="cls-26" d="M638,371.9a4.11,4.11,0,0,0-2.6-.9,3.92,3.92,0,0,1-2.6-.9s0,1.8.9,1.8S636.2,371,638,371.9Z" transform="translate(0.03)"/><path class="cls-27" d="M643.6,380.4s-.1-.5-2.2,1.9c-1,1.1-2.1,2.9-3.5,2.4-1.6-.5-3.6-2-6-1.4-4.1,1-8.1-2.9-8.9-.5-.6,1.9,1.9,7.1,3.4,9.4a3.59,3.59,0,0,0,3.1,1.6c2.2-.1,5.8-.3,7.5-1,2.7-1,6.1-2.1,7.5-5.3S643.6,384.6,643.6,380.4Z" transform="translate(0.03)"/><path class="cls-16" d="M626,387.2a1.16,1.16,0,0,1,1.1-1.3h2.7c1.9,0,5.4.5,5.5.9.2,1,.2,4.8-7.4,2.9A2.67,2.67,0,0,1,626,387.2Z" transform="translate(0.03)"/><path class="cls-18" d="M627.6,385.6a7.4,7.4,0,0,0,6,.4S630.4,389.2,627.6,385.6Z" transform="translate(0.03)"/><path class="cls-25" d="M629.1,377.7s-2.3,3.4-1.5,4.1,4.9,0,4.9,0,1.1-.8-1.9-.4-2.6-.4-2.6-.4A8.06,8.06,0,0,1,629.1,377.7Z" transform="translate(0.03)"/><path class="cls-28" d="M643.6,380.4s-.7-.7-3.8,3.7-1.8,5-3.7,7.5c-1.3,1.8-.6,1.3-5.3,2.2a19.93,19.93,0,0,0,12.2-4.1s2.6-2.5,1.9-4.4S643.6,382.8,643.6,380.4Z" transform="translate(0.03)"/><path class="cls-26" d="M632.8,370.8s0,1.4,1,1.1a17,17,0,0,1,2.2-.4S633.8,371.8,632.8,370.8Z" transform="translate(0.03)"/><path class="cls-26" d="M624.2,371.9a4.11,4.11,0,0,1,2.6-.9,3.92,3.92,0,0,0,2.6-.9s0,1.8-.9,1.8S626,371,624.2,371.9Z" transform="translate(0.03)"/><path class="cls-26" d="M629.4,370.8s0,1.4-1,1.1a17,17,0,0,0-2.2-.4S628.4,371.7,629.4,370.8Z" transform="translate(0.03)"/><path class="cls-9" d="M617.2,454.4a147.2,147.2,0,0,0,30.7-34.7s-.4,14.6-31.8,41.8Z" transform="translate(0.03)"/><path class="cls-9" d="M608,408.4v5.1s16.3-1,19.4-2c0,0,3.1-6.1,6.2-8.2,0,0-16.3,4.1-25.6,1v4.1Z" transform="translate(0.03)"/><path class="cls-29" d="M627.4,412.6s10.2-7.3,18.4-7.3c0,0-8.3,1.8-23.1,10.6Z" transform="translate(0.03)"/><path class="cls-29" d="M604.6,427.6s9.5,2.3,9.5,8.5a13.64,13.64,0,0,0-4-11.3S607.4,427.3,604.6,427.6Z" transform="translate(0.03)"/><polyline class="cls-23" points="642.83 570.2 637.83 672.8 643.83 672.6 646.43 584.4"/><path class="cls-16" d="M648.1,411.9c-4.1,8.7-22.8,42-35.4,43.3-15.3,1.6-34.8-1.8-43.4-6-4.8-2.3,7.6-25.6,12.2-24.1,7.2,2.4,21.1,3.6,23.9,3.9s22.2-14.5,32.9-22.6C648,399.1,650.5,406.7,648.1,411.9Z" transform="translate(0.03)"/><path class="cls-21" d="M587.3,425.2l-10.4,28.9s27.3,5.7,38.2,1.6,25.3-25.6,32.2-38.1,3.2-23.1-14.3-9.1-26.1,19.4-27.3,19.6S587.3,425.2,587.3,425.2Z" transform="translate(0.03)"/><path class="cls-9" d="M583.1,454.1a59.7,59.7,0,0,1,2.2-6.8c.8-2.2,1.5-4.4,2.3-6.6,1.6-4.4,3.1-8.9,4.9-13.2l.1-.1.1.1c-1.2,4.6-2.8,9-4.3,13.5-.8,2.2-1.6,4.5-2.5,6.7a59.32,59.32,0,0,1-2.6,6.3C583.2,454.3,583,454.2,583.1,454.1Z" transform="translate(0.03)"/><path class="cls-9" d="M587.2,424.9c2.7.3,13.5,2.4,16.2,2.7a6.15,6.15,0,0,0,3.5-.7c1.2-.7,20.7-14.2,22.8-15.8.1-.1.2.1.1.1-2.3,1.6-17.4,13.1-19.7,14.7a22,22,0,0,1-3.2,2.1,5.75,5.75,0,0,1-3.4.4c-2.6-.5-12.5-2.4-16.1-3a7.54,7.54,0,0,0-.6,1.3h-.1A3.45,3.45,0,0,1,587.2,424.9Z" transform="translate(0.03)"/><path class="cls-9" d="M627.4,412.6s10.2-6.3,18.4-7.3c0,0-15.4,5.9-24.6,11.6Z" transform="translate(0.03)"/><path class="cls-6" d="M834.58,332.83c-1.64,1.72-3.43,3.81-5.08,5.83s-3.36,4-5,6.13c-3.29,4.18-6.43,8.44-9.34,12.78a174.71,174.71,0,0,0-15.47,27.27c-8.15,18.9-11.73,40.43-6.5,60.45a72.49,72.49,0,0,0,14.12,27.5,97.3,97.3,0,0,0,23.91,20.85,157.36,157.36,0,0,0,29.14,14.2A252.73,252.73,0,0,0,891.75,517a248.36,248.36,0,0,1-32.13-7,157.83,157.83,0,0,1-30.71-12.4c-9.72-5.38-19.06-11.88-26.76-20.33a80.85,80.85,0,0,1-17.63-29.36,91.76,91.76,0,0,1-4.33-34.3,130,130,0,0,1,2.24-17.11,139.86,139.86,0,0,1,4.63-16.67A186,186,0,0,1,801.78,349c2.84-4.93,5.9-9.64,9-14.35,1.57-2.31,3.22-4.63,4.86-6.94s3.29-4.49,5.23-6.95Z" transform="translate(0.03)"/><path class="cls-6" d="M806.94,385.59c-1.87,6.42-3.52,12.77-4.86,19.2-.6,3.21-1.27,6.43-1.72,9.64a85.28,85.28,0,0,0-1.05,9.64,74.62,74.62,0,0,0,.9,19.13,50.82,50.82,0,0,0,2.69,9.26,54.22,54.22,0,0,0,4.56,8.75,36.08,36.08,0,0,1-6.58-7.7,39.64,39.64,0,0,1-4.11-9.41,58.41,58.41,0,0,1-2-20.33,85.57,85.57,0,0,1,4-19.88A78.51,78.51,0,0,1,806.94,385.59Z" transform="translate(0.03)"/><path class="cls-6" d="M807.31,331.93c-4,6.13-7.7,12.41-11.13,18.76a186.77,186.77,0,0,0-9,19.65c-1.42,3.29-2.46,6.73-3.73,10.09-1,3.44-2.17,6.88-3,10.39-1.94,6.95-3.06,14.12-4.41,21.37a84.5,84.5,0,0,1,.9-22.12l.45-2.76c.15-.9.44-1.8.59-2.69l1.35-5.46c1.12-3.51,2.17-7.1,3.59-10.54s3-6.8,4.63-10.16l2.69-4.86,2.91-4.7A91.33,91.33,0,0,1,807.31,331.93Z" transform="translate(0.03)"/><path class="cls-6" d="M786.5,522.46l1,1.5a10.85,10.85,0,0,0,4.5,3.7l1.6.7-1.4,1a10.85,10.85,0,0,0-3.7,4.5l-.7,1.6-1-1.5a10.85,10.85,0,0,0-4.5-3.7l-1.6-.7,1.5-1a10.85,10.85,0,0,0,3.7-4.5Z" transform="translate(0.03)"/><path class="cls-6" d="M836.75,381l1.8,2.7a18.52,18.52,0,0,0,8.2,6.7l3,1.3-2.7,1.8a18.52,18.52,0,0,0-6.7,8.2l-1.3,3-1.8-2.7a18.52,18.52,0,0,0-8.2-6.7l-3-1.3,2.7-1.8a19.08,19.08,0,0,0,6.7-8.2Z" transform="translate(0.03)"/><path class="cls-6" d="M841.6,441.79l2.5,3.6a25.92,25.92,0,0,0,11.1,9.1l4,1.7-3.6,2.5a25.92,25.92,0,0,0-9.1,11.1l-1.7,4-2.5-3.6a25.92,25.92,0,0,0-11.1-9.1l-4-1.7,3.6-2.5a25.92,25.92,0,0,0,9.1-11.1Z" transform="translate(0.03)"/><rect class="cls-4" x="229.8" y="482.3" width="104.6" height="82.96" transform="matrix(1, 0, 0, 1, -2.43, 1.33)"/><rect class="cls-4" x="373.92" y="480.92" width="104.6" height="82.4" transform="translate(-4.96 4.12) rotate(-0.55)"/><rect class="cls-4" x="229.6" y="579.21" width="104.9" height="6.3" transform="translate(-12.11 6.03) rotate(-1.2)"/><rect class="cls-4" x="229.6" y="591.71" width="104.9" height="6.3" transform="translate(-12.37 6.04) rotate(-1.2)"/><rect class="cls-4" x="374.49" y="576.29" width="104.9" height="6.3" transform="translate(-10.82 8.15) rotate(-1.08)"/><rect class="cls-4" x="374.59" y="588.79" width="104.9" height="6.3" transform="translate(-11.05 8.15) rotate(-1.08)"/><polygon class="cls-6" points="227.83 427.7 268.43 369.8 312.53 427.7 227.83 427.7"/><polyline class="cls-6" points="332.33 427.7 284.83 427.7 307.63 395.2"/><circle class="cls-6" cx="298.33" cy="366.2" r="9"/><polygon class="cls-6" points="373.03 426.7 413.63 368.9 457.63 426.7 373.03 426.7"/><polyline class="cls-6" points="477.53 426.7 430.03 426.7 452.83 394.3"/><circle class="cls-6" cx="443.53" cy="365.3" r="9"/><polygon class="cls-6" points="229.83 565.96 270.03 507.6 314.86 565.61 229.83 565.96"/><polyline class="cls-6" points="334.95 565.46 286.56 565.73 309.63 532.8"/><ellipse class="cls-6" cx="300.08" cy="503.55" rx="9.04" ry="9.11"/><polygon class="cls-6" points="374.45 564.4 414.04 505.81 459.13 562.93 374.45 564.4"/><polyline class="cls-6" points="478.94 562.82 431.44 563.41 453.67 530.52"/><circle class="cls-6" cx="443.87" cy="501.69" r="9"/><rect class="cls-4" x="508.43" y="344.4" width="104.6" height="82.4"/><polygon class="cls-6" points="509.13 427.2 549.73 369.3 593.73 427.2 509.13 427.2"/><polyline class="cls-6" points="613.03 427.3 565.53 427.3 588.23 394.8"/><circle class="cls-6" cx="579.63" cy="365.7" r="9"/><path class="cls-16" d="M566.3,424.6c1.7-.1,1.7-1-.8-2.7S552,415.2,554,411.5s17.7,3.4,21.5,6.7a87.91,87.91,0,0,1,8.9,9.9C581,427.2,572.8,426.1,566.3,424.6Z" transform="translate(0.03)"/><path class="cls-16" d="M576.4,451.7c-9.5-2.4-21.4-5.1-29-12.9a5.48,5.48,0,0,1-1.6-3.1c-3.4-3.4-2.9-6.1-2.9-6.1-2.2-4.2-1.3-6.8-1.3-6.8s-4-4.1-1.9-6.9c2.3-3.2,7.5,3.2,12.4,4.9,11.4,4,28.7,6.5,32.1,7.3Z" transform="translate(0.03)"/><path class="cls-16" d="M561.2,433.3a55.72,55.72,0,0,1-19.4-10.6c-.1-.1-.2,0-.1.1a40.79,40.79,0,0,0,19.4,10.6C561.3,433.5,561.4,433.4,561.2,433.3Z" transform="translate(0.03)"/><path class="cls-16" d="M559.8,440.5c-3.2-1.4-8.7-3.9-16.8-11.1h0a36.7,36.7,0,0,0,16.7,11.2C560,440.7,560,440.6,559.8,440.5Z" transform="translate(0.03)"/><path class="cls-16" d="M559,444.4c-5.3-2.6-8.3-4.9-13.1-8.8h0c5,5,7.3,6.3,13.1,9C559.1,444.7,559.2,444.5,559,444.4Z" transform="translate(0.03)"/><path class="cls-24" d="M540.9,421.6s7.7,7.2,18,7.2c0,0-8,1.4-17.3-4.9" transform="translate(0.03)"/><path class="cls-24" d="M542.7,429s5.9,6,14.1,4c0,0-5.1,4.1-13.8-2.6" transform="translate(0.03)"/><path class="cls-24" d="M545.3,435s3.3,5.1,11.5,3C556.8,438.1,549.3,442.3,545.3,435Z" transform="translate(0.03)"/><path class="cls-16" d="M614.3,364.2c.8-4.4,4.1-10.6,3.6-13.9a3.82,3.82,0,0,0-3.1-3.3s2.8-2.5,1.8-5.4c-.5-1.5-3.3-2-3.3-2s2.1-2.1,1.1-4.6c-.8-2-3.5-2.3-3.5-2.3s1.1-2.9-.4-4.7c-3-3.7-21,1.3-22,8.7-.5,3.5,3.9,2,3.9,2s-5.7,3.6-4.8,7.4,6.5,1.5,6.5,1.5-5.5,3.5-4.2,7.3c1.4,4,6.6.8,6.6.8s-3.3,3.8-1.6,6.5c2.8,4.4,8.8-3.7,13-3.9l4,5.9Z" transform="translate(0.03)"/><path class="cls-16" d="M616.4,357.5c-.4,4.3,5.7,7.7,5.9,11.8.3,5.6-7,2-10.4-5.2l-1.7-6.1Z" transform="translate(0.03)"/><path class="cls-16" d="M610.5,332.5c.1,0,.1-.1,0-.1a32.47,32.47,0,0,0-18.3,6.2c-.2.1,0,.5.2.4A62.3,62.3,0,0,1,610.5,332.5Z" transform="translate(0.03)"/><path class="cls-16" d="M613.4,339.5c.1,0,0-.1,0-.1a30.6,30.6,0,0,0-19.5,8c-.2.2-.2.5.1.3C597.7,344.5,607.4,340.6,613.4,339.5Z" transform="translate(0.03)"/><path class="cls-16" d="M596.2,356.1c5.3-4.8,11.5-7.4,18.3-9.1.1,0,0-.1,0-.1-3.6-.1-7.8,1.5-11,3a18.38,18.38,0,0,0-7.5,6C596,356,596.1,356.2,596.2,356.1Z" transform="translate(0.03)"/><path class="cls-24" d="M612,332.9s-8.1.8-12.2,3.8c0,0,2.3-3.8,11.4-5" transform="translate(0.03)"/><path class="cls-24" d="M614.5,339.9s-8.5,2-11.6,5a22.09,22.09,0,0,1,11-6" transform="translate(0.03)"/><path class="cls-24" d="M615.9,347.4s-5.8.6-10,3.7c0,0,2.9-3.6,9.6-4.9" transform="translate(0.03)"/><path class="cls-24" d="M617,355.6s-6,3.6-9,2.6l.5.9s4.8,1.4,7.8-.8Z" transform="translate(0.03)"/><circle class="cls-30" cx="602.93" cy="448.7" r="2.3"/><circle class="cls-30" cx="637.93" cy="417.3" r="2.5"/><circle class="cls-30" cx="614.33" cy="437.9" r="4.8"/><circle class="cls-30" cx="632.13" cy="464" r="3.3"/><circle class="cls-30" cx="661.43" cy="447" r="4"/><circle class="cls-30" cx="627.23" cy="427.6" r="2.9"/><path class="cls-30" d="M664.3,418.8a5.33,5.33,0,0,1-2.8-.1,4.71,4.71,0,0,1-2.8-6,4.35,4.35,0,0,1,1.9-2.3C661.9,413,663.1,415.8,664.3,418.8Z" transform="translate(0.03)"/><path class="cls-30" d="M662.5,429.5a4.12,4.12,0,0,1,1.8-5.5,3.17,3.17,0,0,1,1.6-.4c.8,2.5,1.7,5,2.5,7.6-.1.1-.2.1-.4.2A4.25,4.25,0,0,1,662.5,429.5Z" transform="translate(0.03)"/><circle class="cls-30" cx="654.83" cy="434.3" r="2.9"/><circle class="cls-30" cx="643.93" cy="449.9" r="3.6"/><circle class="cls-30" cx="662.13" cy="467.3" r="3"/><path class="cls-6" d="M824.45,523.31a5.25,5.25,0,1,1-5.25-5.25A5.26,5.26,0,0,1,824.45,523.31Z" transform="translate(0.03)"/><path class="cls-6" d="M802.71,505.26a8.41,8.41,0,1,1-8.41-8.41A8.41,8.41,0,0,1,802.71,505.26Z" transform="translate(0.03)"/><path class="cls-12" d="M870.7,163.5c12.9-19.7,41.1-24.2,63-9.9s29.3,41.9,16.4,61.6-41.1,24.2-63,9.9S857.9,183.3,870.7,163.5Z" transform="translate(0.03)"/><ellipse class="cls-10" cx="910.43" cy="189.15" rx="39.7" ry="44.1" transform="translate(254.72 848.44) rotate(-56.89)"/><path class="cls-4" d="M942.13,210.17c-10.29,15.77-32.8,19.32-50.29,7.92a40.21,40.21,0,0,1-4.49-3.38c-13.93-12-17.89-31.5-8.55-45.83,10.29-15.78,32.8-19.32,50.29-7.92a41.32,41.32,0,0,1,10.09,9.25C948.4,182.08,950.07,198,942.13,210.17Z" transform="translate(0.03)"/><path class="cls-11" d="M942.13,210.17c-10.29,15.77-32.8,19.32-50.29,7.92a40.21,40.21,0,0,1-4.49-3.38L885,212.4s3-24.8,29.59-32.09c0,0,19.29-7.35,24.59-10.1C948.4,182.08,950.07,198,942.13,210.17Z" transform="translate(0.03)"/></svg>