<svg id="Layer_1" data-name="Layer 1" xmlns="http://www.w3.org/2000/svg" viewBox="0 0 336 532"><title>tel</title><path d="M440.89,14H259.12A77.16,77.16,0,0,0,182,91.11V468.88A77.16,77.16,0,0,0,259.12,546H440.89A77.16,77.16,0,0,0,518,468.88V91.11A77.16,77.16,0,0,0,440.89,14ZM490,468.89A49.2,49.2,0,0,1,440.89,518H259.12A49.2,49.2,0,0,1,210,468.89V91.12A49.22,49.22,0,0,1,259.12,42H440.89A49.22,49.22,0,0,1,490,91.12Z" transform="translate(-182.01 -14)"/><path d="M378,462a28,28,0,1,1-28-28,28,28,0,0,1,28,28" transform="translate(-182.01 -14)"/></svg>