<svg id="Layer_1" data-name="Layer 1" xmlns="http://www.w3.org/2000/svg" viewBox="0 0 62 62.41"><defs><style>.cls-1{fill:#fff;}</style></defs><title>tervezes</title><path class="cls-1" d="M58,40H55.41l3-2.94A15.84,15.84,0,0,0,51,10.49V7h2V1H47V7h2v3.12A16.11,16.11,0,0,0,47.15,10a15.78,15.78,0,0,0-11.21,4.64L32,18.59l-3.94-3.95A15.85,15.85,0,0,0,5.64,37.06l3.73,3.72L2,45l8.75,5h7.86L32,63.41,45.41,50H58a5,5,0,0,0,0-10ZM49,3h2V5H49ZM13,42H49v6H13Zm38,0h2v6H51ZM3,25.85a13.85,13.85,0,0,1,23.64-9.79L32,21.41l5.36-5.35A13.73,13.73,0,0,1,47.15,12a14.13,14.13,0,0,1,1.85.14V29a8,8,0,0,1-15.55,2.61,3,3,0,0,0-.9-5.55A10,10,0,0,0,13,29v3H11v6h6V32H15V29a8,8,0,0,1,15.55-2.61,3,3,0,0,0,.9,5.55A10,10,0,0,0,51,29V12.56a13.83,13.83,0,0,1,5.94,23.08L52.59,40H11.41L7.06,35.64A13.73,13.73,0,0,1,3,25.85ZM32,28a1,1,0,1,1-1,1A1,1,0,0,1,32,28ZM15,34v2H13V34ZM6,45l5-2.85v5.7ZM32,60.59,21.41,50H42.59ZM58,48H55V42h3a3,3,0,0,1,0,6Z" transform="translate(-1 -1)"/><rect class="cls-1" x="36" y="27" width="2" height="2"/><rect class="cls-1" x="40" y="27" width="2" height="2"/><rect class="cls-1" x="44" y="27" width="2" height="2"/><rect class="cls-1" x="24" y="27" width="2" height="2"/><rect class="cls-1" x="20" y="27" width="2" height="2"/><rect class="cls-1" x="16" y="27" width="2" height="2"/></svg>