<svg id="Layer_1" data-name="Layer 1" xmlns="http://www.w3.org/2000/svg" viewBox="0 0 102 82.91"><defs><style>.cls-1{fill:#fff;}</style></defs><title>webdesignicon</title><path class="cls-1" d="M3.17,92.32H98.83a3.19,3.19,0,0,0,2-5.65l-9.66-8a2,2,0,0,0-.39-.26,1.85,1.85,0,0,0,0-.47V73.27a23.58,23.58,0,0,1-3.19,1.22v3.45H14.33V38.13h3.19V73.19a1.6,1.6,0,0,0,3.19.25,1,1,0,0,0,0-.25V25.38H81.27v.82a24.25,24.25,0,0,1,3.19.3V14.22a4.79,4.79,0,0,0-4.79-4.78H22.3a4.79,4.79,0,0,0-4.78,4.78V34.94H14.33a3.19,3.19,0,0,0-3.19,3.19h0V78c0,.16,0,.31,0,.47a4.4,4.4,0,0,0-.39.26l-9.65,8a3.19,3.19,0,0,0-.42,4.49,3.15,3.15,0,0,0,2.42,1.16Zm17.54-78.1a1.59,1.59,0,0,1,1.59-1.59H79.67a1.6,1.6,0,0,1,1.6,1.59v8H20.71ZM12.83,81.16H89.14l9.66,8H3.17Z" transform="translate(0 -9.44)"/><path class="cls-1" d="M76.49,15.82H73.3a1.6,1.6,0,0,0,0,3.19h3.19a1.6,1.6,0,0,0,0-3.19Z" transform="translate(0 -9.44)"/><path class="cls-1" d="M66.92,15.82H63.74A1.6,1.6,0,1,0,63.49,19h3.43a1.6,1.6,0,1,0,.26-3.19Z" transform="translate(0 -9.44)"/><path class="cls-1" d="M25.49,31.76h9.56a1.6,1.6,0,0,0,0-3.19H25.49a1.6,1.6,0,0,0-.25,3.19Z" transform="translate(0 -9.44)"/><path class="cls-1" d="M25.49,38.13H54.17a1.6,1.6,0,1,0,.26-3.19H25.49a1.6,1.6,0,1,0-.25,3.19Z" transform="translate(0 -9.44)"/><path class="cls-1" d="M25.49,44.51H38.24a1.6,1.6,0,0,0,0-3.19H25.49a1.6,1.6,0,0,0-.25,3.19A1,1,0,0,0,25.49,44.51Z" transform="translate(0 -9.44)"/><path class="cls-1" d="M25.49,50.88H54.17a1.6,1.6,0,1,0,.26-3.19H25.49a1.6,1.6,0,0,0-.25,3.19Z" transform="translate(0 -9.44)"/><path class="cls-1" d="M25.49,63.63H46.21a1.6,1.6,0,0,0,0-3.19H25.49a1.6,1.6,0,0,0-.25,3.19Z" transform="translate(0 -9.44)"/><path class="cls-1" d="M25.49,70H62.14a1.6,1.6,0,1,0,.26-3.19,1.13,1.13,0,0,0-.26,0H25.49A1.6,1.6,0,1,0,25.24,70,1,1,0,0,0,25.49,70Z" transform="translate(0 -9.44)"/><path class="cls-1" d="M25.49,54a1.6,1.6,0,1,0-.25,3.19H56.61A28.55,28.55,0,0,1,56,54Z" transform="translate(0 -9.44)"/><path class="cls-1" d="M80.47,29.36A21.52,21.52,0,1,0,102,50.88,21.52,21.52,0,0,0,80.47,29.36Zm0,39.85A18.33,18.33,0,1,1,98.83,50.88,18.34,18.34,0,0,1,80.47,69.21Z" transform="translate(0 -9.44)"/><path class="cls-1" d="M88.77,46.57a1.59,1.59,0,0,0-2.25,2.25l2.06,2.06-2.06,2.06a1.59,1.59,0,0,0,2.25,2.25L92,52a1.61,1.61,0,0,0,0-2.26h0Z" transform="translate(0 -9.44)"/><path class="cls-1" d="M74.43,46.57a1.58,1.58,0,0,0-2.24,0h0L69,49.75A1.62,1.62,0,0,0,69,52h0l3.19,3.18a1.59,1.59,0,1,0,2.26-2.25l-2.06-2.06,2.06-2.06a1.58,1.58,0,0,0,0-2.25Z" transform="translate(0 -9.44)"/><path class="cls-1" d="M82.57,44.59a1.59,1.59,0,0,0-2,1l-3.19,9.56a1.6,1.6,0,0,0,3,1l3.19-9.57A1.59,1.59,0,0,0,82.57,44.59Z" transform="translate(0 -9.44)"/></svg>