<svg id="Layer_1" data-name="Layer 1" xmlns="http://www.w3.org/2000/svg" viewBox="0 0 898.27 876.04"><defs><style>.cls-1{fill:#eef;}.cls-2{fill:#b4b4ef;}.cls-3,.cls-5{fill:#8f8fcc;}.cls-32,.cls-39,.cls-4,.cls-50,.cls-52{isolation:isolate;}.cls-4{font-size:78.71px;font-family:CambriaMath, Cambria Math;}.cls-11,.cls-4,.cls-52{fill:#fff;}.cls-5{fill-rule:evenodd;}.cls-6{fill:#ffaba1;}.cls-7{fill:#ffbf9d;}.cls-8{fill:#c17e67;}.cls-9{fill:#385b64;}.cls-10{fill:#2b444e;}.cls-12{fill:#333;}.cls-13{fill:#1a2e35;}.cls-14{fill:#d1945d;}.cls-15{fill:#c18859;}.cls-16{fill:#ffc800;}.cls-17{fill:#4d4d4d;}.cls-18{fill:#2d2d2d;}.cls-19{fill:#6666c9;}.cls-20{fill:#dd9373;}.cls-21{fill:#89705d;}.cls-22{fill:#412d70;}.cls-23{fill:#b7845e;}.cls-24{fill:#5252ba;}.cls-25{fill:#260e08;}.cls-26{fill:#ff4e6c;}.cls-27{fill:#ea476a;}.cls-28{fill:#16282d;}.cls-29{fill:#203391;}.cls-30{fill:#385962;}.cls-31,.cls-32{fill:#152428;}.cls-32{opacity:0.74;}.cls-33{fill:#c6c1df;}.cls-34{fill:#9a97bf;}.cls-35,.cls-40,.cls-50{fill:#fafafa;}.cls-36,.cls-37,.cls-38,.cls-41,.cls-42,.cls-47,.cls-48{fill:none;}.cls-36{stroke:#fafafa;}.cls-36,.cls-37,.cls-38,.cls-40,.cls-41,.cls-42,.cls-47,.cls-48,.cls-50{stroke-miterlimit:10;}.cls-37{stroke:#c8c8c8;}.cls-38{stroke:#ccc;}.cls-39{opacity:0.1;}.cls-40,.cls-50{stroke:#fff;}.cls-41,.cls-42{stroke:#1a2e35;stroke-width:0.75px;}.cls-42{stroke-dasharray:4.1 5.12;}.cls-43{fill:#e23359;}.cls-44{fill:#f5f5f5;}.cls-45{fill:#dd194c;}.cls-46{fill:#9696d6;}.cls-47{stroke:#b4b4ef;}.cls-48{stroke:#f4f4f4;stroke-width:2px;}.cls-49{fill:#263238;}.cls-50{opacity:0.67;}.cls-51{fill:#1a2e36;}.cls-53{fill:#ff8772;}</style></defs><title>webdesignillusztracio2</title><path class="cls-1" d="M794.7,755.2c17.5-12.8,49.4-36.7,53.8-73,4.3-35.8-22.6-47-25.4-87-3.8-54,42.5-67.3,54.8-130.1,12.3-63.5-21.4-119.9-32.3-138.1-34-56.9-68.1-55.9-139.8-116.1-92.4-77.5-9.1-130.1-77.2-174.7s-239.8-50-314.9-4.5c-46.2,28.1-27,52.1-110.5,159.1-60.7,77.8-88.7,88-103.7,143.1-3.9,14.2-23,84.4,11.7,138.1,30.6,47.3,74.3,37.5,90,79,16.4,43.4-24.4,72.4-16.6,122.1,8.6,55.2,69.4,88,111.5,110C490.9,885.2,709.1,817.7,794.7,755.2Z" transform="translate(-23.49 -0.06)"/><ellipse class="cls-2" cx="473.01" cy="823.04" rx="305" ry="53"/><path class="cls-3" d="M145,246.1h73.1A7.92,7.92,0,0,1,226,254v73.1a7.92,7.92,0,0,1-7.9,7.9H145a7.92,7.92,0,0,1-7.9-7.9V254A7.85,7.85,0,0,1,145,246.1Z" transform="translate(-23.49 -0.06)"/><text class="cls-4" transform="translate(135.51 320.13)">T</text><polygon class="cls-5" points="477.41 477.74 479.61 426.24 412.11 426.24 414.91 477.54 477.41 477.74"/><path class="cls-6" d="M259.7,462.3c6.1,8.9,32.1,37.3,42.4,36.4,16.1-1.4,32.9-9.4,42.3-13.5,3-1.3-10.5-29.7-16-26.5-7,4.1-21.4,10-25.6,10.7-2.9.5-21.9-10.4-35.2-17.8C256.6,445.3,252,451,259.7,462.3Z" transform="translate(-23.49 -0.06)"/><path class="cls-7" d="M323.6,461.7l4.8-3.2a18,18,0,0,0,4-3.8,36.42,36.42,0,0,1,38.6-8.2c7.2,2.7,8.5,8.9.5,7.5-5.6-1-9.4-2.2-11.4-2,0,0,5.8,6.6,4.6,11.5a98.22,98.22,0,0,1-4,12.7,20.48,20.48,0,0,1-2.4-.5,10.61,10.61,0,0,1-8.8,7.2l-7.6,3.4Z" transform="translate(-23.49 -0.06)"/><path class="cls-7" d="M337.8,450.5c3.7-.5,11.6-1.3,18.3.3,7.5,1.7,21.3,7.1,20,12.5-1,4-6.5,2.5-6.5,2.5s5.3,3.4,3.6,6.9c-1.5,3.1-5.7,1.7-5.7,1.7s2.8,2.6.8,5.4c-2.5,3.3-8-2.7-13.4-1.6C353.8,478.3,337.8,450.5,337.8,450.5Z" transform="translate(-23.49 -0.06)"/><path class="cls-7" d="M353,458.3a29.88,29.88,0,0,1,16.6,7.3c.1.1.1.3,0,.2a72.91,72.91,0,0,0-16.6-7.5Z" transform="translate(-23.49 -0.06)"/><path class="cls-7" d="M351.5,465.9c3.1.4,11.2,3.3,16.2,8.3.1.1.1.3,0,.2a80.9,80.9,0,0,0-16.2-8.5Z" transform="translate(-23.49 -0.06)"/><path class="cls-8" d="M370.4,466.3a24.89,24.89,0,0,0-16.3-2.1C354.1,464.1,364.7,460.4,370.4,466.3Z" transform="translate(-23.49 -0.06)"/><path class="cls-8" d="M368.2,474.9a17.3,17.3,0,0,0-13.1-3.8C355,471.1,364.3,468.8,368.2,474.9Z" transform="translate(-23.49 -0.06)"/><path class="cls-8" d="M361.9,452.4s-6.8-1.3-12.8.7A12.28,12.28,0,0,1,361.9,452.4Z" transform="translate(-23.49 -0.06)"/><polygon class="cls-9" points="227.81 648.54 224.51 669.04 192.81 838.04 183.51 838.04 208.51 670.04 211.21 648.54 227.81 648.54"/><path class="cls-9" d="M339,838.1h-9.3L298,672.6c-.4-2.3-.7-5.1-1-7.4l-2.3-16.6h16.7l2.7,20.5Z" transform="translate(-23.49 -0.06)"/><rect class="cls-10" x="205.51" y="701.24" width="86" height="6.3"/><polygon class="cls-10" points="207.51 677.04 222.51 679.04 228.01 648.54 211.51 648.04 207.51 677.04"/><polygon class="cls-10" points="291.51 677.04 275.51 677.04 271.11 648.54 287.51 648.04 291.51 677.04"/><rect class="cls-9" x="200.61" y="627.64" width="101.8" height="21.1"/><path class="cls-7" d="M494.8,791.7c-3.2,1.4-97.1,9.6-100.9,7.6-1.4-.7-3.4-14.3-5.4-30.9-.4-3.6-.8-7.3-1.2-11-2.6-24.3-4.8-50.2-4.8-50.2l62.9-5.7,3,50.3.7,11s37.4,13,41.3,15.5S498,790.3,494.8,791.7Z" transform="translate(-23.49 -0.06)"/><path class="cls-11" d="M494.8,791.7c-3.2,1.4-97.1,9.6-100.9,7.6-1.7-.9-4.3-20.8-6.6-41.9l61.1-5.5.7,11s37.4,13,41.3,15.5S498,790.3,494.8,791.7Z" transform="translate(-23.49 -0.06)"/><path class="cls-12" d="M494.8,791.7c-3.2,1.4-98,8.3-101.8,6.4-1.4-.7-2.5-13.1-4.5-29.6L449,763s37.4,13,41.3,15.5S498,790.3,494.8,791.7Z" transform="translate(-23.49 -0.06)"/><path class="cls-13" d="M493.2,788.1c-15.8,1-79.3,6.4-94.9,8.6-.1,0-.1.1,0,.1,15.7-.6,79.2-6.6,94.9-8.5C493.5,788.3,493.5,788.1,493.2,788.1Z" transform="translate(-23.49 -0.06)"/><path class="cls-11" d="M484.1,775.7a12.76,12.76,0,0,0-9.1,4.7,12.49,12.49,0,0,0-2.8,8.7c0,.1.2.1.2,0a14.66,14.66,0,0,1,11.7-13.2.1.1,0,0,0,.1-.1Z" transform="translate(-23.49 -0.06)"/><path class="cls-11" d="M455.4,764.1c-6.3.5-13.4,3.3-16.9,8.8-.1.2.2.4.4.3a83.86,83.86,0,0,1,16.7-8.3.37.37,0,0,0,.2-.5C455.7,764.1,455.5,764,455.4,764.1Z" transform="translate(-23.49 -0.06)"/><path class="cls-11" d="M460.4,765.6c-6.3.5-13.4,3.3-16.9,8.8-.1.2.2.4.4.3a83.86,83.86,0,0,1,16.7-8.3.37.37,0,0,0,.2-.5C460.7,765.6,460.6,765.6,460.4,765.6Z" transform="translate(-23.49 -0.06)"/><path class="cls-11" d="M465.4,767c-6.3.5-13.4,3.3-16.9,8.8-.1.2.2.4.4.3a83.86,83.86,0,0,1,16.7-8.3.37.37,0,0,0,.2-.5C465.8,767.1,465.6,767,465.4,767Z" transform="translate(-23.49 -0.06)"/><path class="cls-11" d="M470.4,768.5c-6.3.5-13.4,3.3-16.9,8.8-.1.2.2.4.4.3a83.86,83.86,0,0,1,16.7-8.3.37.37,0,0,0,.2-.5C470.8,768.6,470.6,768.5,470.4,768.5Z" transform="translate(-23.49 -0.06)"/><path class="cls-7" d="M379.8,835.2c-3.5.2-94.5-24.3-97.4-27.4-1.1-1.2,1.7-14.7,5.5-30.8.8-3.5,1.7-7.1,2.6-10.8,5.9-23.7,12.7-48.8,12.7-48.8l61,16.2L349.8,782l-3.1,10.6s30.7,25,33.5,28.7S383.3,835,379.8,835.2Z" transform="translate(-23.49 -0.06)"/><path class="cls-11" d="M379.8,835.2c-3.5.2-94.5-24.3-97.4-27.4-1.3-1.5,3.1-21,8.1-41.6L349.8,782l-3.1,10.6s30.7,25,33.5,28.7S383.3,835,379.8,835.2Z" transform="translate(-23.49 -0.06)"/><path class="cls-14" d="M243,360.3s-20-3.8-24.8,15.2-26.6,57.1-26.6,57.1l23.8-19" transform="translate(-23.49 -0.06)"/><path class="cls-14" d="M240.1,361.2s12.4-3.8,19,1.9,12.7,19.5,9.2,43.1" transform="translate(-23.49 -0.06)"/><path class="cls-14" d="M261.9,375.1s4.8,30.9,20,48.9,8.7,35.8,8.7,35.8l-1.1-1.2s5.8-16.6-8.5-33.7-18.3-44.3-18.3-44.3" transform="translate(-23.49 -0.06)"/><path class="cls-15" d="M259.2,469.7s9.5,4.8,24.7-9.5-35.1-13-35.1-13Z" transform="translate(-23.49 -0.06)"/><polygon class="cls-14" points="199.51 381.14 186.21 424.94 246.11 437.24 247.11 414.44 244.21 395.44 239.51 371.64 229.01 365.94 222.31 363.04 200.41 375.44 199.51 381.14"/><rect class="cls-16" x="606.31" y="568.34" width="101.8" height="21.1"/><polygon class="cls-9" points="633.61 589.24 630.81 616.24 595.61 838.04 585.51 838.04 613.31 616.24 615.51 589.24 633.61 589.24"/><polygon class="cls-9" points="728.91 838.04 718.81 838.04 683.71 616.24 680.81 589.24 698.91 589.24 701.11 616.24 728.91 838.04"/><rect class="cls-10" x="599.61" y="768.04" width="112.3" height="6.3"/><polygon class="cls-10" points="613.31 615.24 630.81 615.24 633.61 589.24 615.51 589.24 613.31 615.24"/><polygon class="cls-10" points="701.11 615.24 683.71 615.24 680.81 589.24 698.91 589.24 701.11 615.24"/><path class="cls-7" d="M522,604.3c1.1-3.4,60.8-82.2,64.8-83.7.5-.2,27.1,18.8,27.1,18.8,1.1,1.5,51.8-9.2,51.8-9.2l.5,61.2-92.3-2s-12.5,7.3-23.9,13.3h0c-7,3.7-13.2,6.8-15,7.3C530.4,611.1,520.9,607.7,522,604.3Z" transform="translate(-23.49 -0.06)"/><path class="cls-11" d="M535,609.9c1.8-.5,8-3.6,15-7.3h0c11.4-6,23.9-13.3,23.9-13.3l20.5.4,32.2-51.9c-7.1,1.3-12.3,2-12.7,1.5,0,0-26.7-19-27.1-18.8-4.1,1.5-63.7,80.3-64.8,83.7S530.4,611.1,535,609.9Z" transform="translate(-23.49 -0.06)"/><path class="cls-17" d="M521.5,604.4c1.2-3.5,61.1-82.2,65.3-83.8,1.6-.6,14.6,7.5,27.2,18.8l-38.7,50.7s-35.7,18.9-40.5,20.1S520.3,607.9,521.5,604.4Z" transform="translate(-23.49 -0.06)"/><path class="cls-13" d="M525.5,605.7c10.4-13,51-66.2,60.2-79.8.1-.1,0-.2-.1-.1-10.6,12.6-50.7,66.2-60.4,79.7C525.1,605.8,525.3,606,525.5,605.7Z" transform="translate(-23.49 -0.06)"/><path class="cls-13" d="M541.5,607.3a13.7,13.7,0,0,0,2.8-10.3,12.88,12.88,0,0,0-4.8-8.3c-.1-.1-.2.1-.1.2a15.39,15.39,0,0,1,2,18.4Z" transform="translate(-23.49 -0.06)"/><path class="cls-13" d="M570.9,593.3c4.1-5.2,6.9-12.8,5.1-19.3-.1-.3-.4-.2-.5.1a94.71,94.71,0,0,1-5.3,18.9.38.38,0,0,0,.3.5C570.6,593.4,570.8,593.4,570.9,593.3Z" transform="translate(-23.49 -0.06)"/><path class="cls-13" d="M566.2,596.1c4.1-5.2,6.9-12.8,5.1-19.3-.1-.3-.4-.2-.5.1a94.71,94.71,0,0,1-5.3,18.9.48.48,0,0,0,.2.6C565.9,596.5,566,596.3,566.2,596.1Z" transform="translate(-23.49 -0.06)"/><path class="cls-13" d="M561.5,599c4.1-5.2,6.9-12.8,5.1-19.3-.1-.3-.4-.2-.5.1a94.71,94.71,0,0,1-5.3,18.9.38.38,0,0,0,.3.5A.76.76,0,0,0,561.5,599Z" transform="translate(-23.49 -0.06)"/><path class="cls-13" d="M556.8,601.9c4.1-5.2,6.9-12.8,5.1-19.3-.1-.3-.4-.2-.5.1a94.71,94.71,0,0,1-5.3,18.9.38.38,0,0,0,.3.5A.76.76,0,0,0,556.8,601.9Z" transform="translate(-23.49 -0.06)"/><path class="cls-13" d="M595.7,538.8c4.5-6-4.7-12.9-9.2-7S591.2,544.8,595.7,538.8Z" transform="translate(-23.49 -0.06)"/><path class="cls-13" d="M580.6,609.7c4.3-1,4.7-6,3.6-9.4a34.66,34.66,0,0,0-9.9-15.1c-.1-.1-.2,0-.3,0a.84.84,0,0,0-1.1.4.35.35,0,0,1-.1.2c-.3,5.8-1.3,11.8.3,17.5C574.1,606.7,576.6,610.7,580.6,609.7Zm-6.3-15c0-2.8.3-5.6.2-8.5,2,2.9,3.9,5.9,5.6,8.9a39.58,39.58,0,0,1,2.1,4.7c.9,2.5,1.3,11-4.8,7.2-3.4-2.2-3.1-9-3.1-12.3Z" transform="translate(-23.49 -0.06)"/><path class="cls-13" d="M582.4,570.6c-4.2,4.1-6.5,9.8-9.3,14.9a.84.84,0,0,0,.4,1.1.35.35,0,0,1,.2.1.22.22,0,0,0,.2.2h.1a34.07,34.07,0,0,0,16.2-7.8c2.7-2.4,4.9-6.9,1.8-9.9S584.8,568.2,582.4,570.6Zm5.4-.9c7.3-.1,2.5,7,.4,8.6a31.26,31.26,0,0,1-4.2,2.9,103.75,103.75,0,0,1-9.4,4.8c1.5-2.4,2.8-4.9,4.2-7.4,1.7-2.9,5-8.8,9-8.9Z" transform="translate(-23.49 -0.06)"/><path class="cls-18" d="M668.6,511.4h41.5s43.4-20.8,78.3-12.5c40,9.6,45.2,59.9,15.2,77.7C765.7,599.1,597,594.8,597,594.8L633.5,533s56.1-11.8,107-10.1l-71.8,9.8Z" transform="translate(-23.49 -0.06)"/><path class="cls-7" d="M600.6,805.5c3.6-.4,94-41,96.5-44.7.9-1.4-4.2-14.9-10.9-31.1-1.5-3.5-3-7.1-4.5-10.7-10.1-23.6-21.3-48.5-21.3-48.5l-60.5,27,23,47.7,5,10.5s-27.7,31-29.9,35.4S597,805.8,600.6,805.5Z" transform="translate(-23.49 -0.06)"/><path class="cls-11" d="M600.6,805.5c3.6-.4,94-41,96.5-44.7,1.1-1.7-6.7-21.3-15.4-41.8l-58.9,26.3,5,10.5s-27.7,31-29.9,35.4S597,805.8,600.6,805.5Z" transform="translate(-23.49 -0.06)"/><path class="cls-18" d="M680.3,713.4l-68.1,30.8S531.2,588.7,529,541c-1.8-40.5,26.4-56.2,117.6-30l22.3.3v15.4c-9.8,1.3-36,5.4-36,5.4-19,7.2-25.2,10.2-24.8,10.8C655.7,638.8,680.3,713.4,680.3,713.4Z" transform="translate(-23.49 -0.06)"/><path class="cls-6" d="M640.5,403.9c-30.5,23.5-58.2,50.4-61.4,66.2-2,10,5.6,25.9,11.2,35.4,2.7,4.6,45.7-22.9,41.1-26.3-11.4-8.4-13.6-12.1-13-14.4.4-1.4,31.4-40,39.1-56.2C668.3,385.9,653.8,393.6,640.5,403.9Z" transform="translate(-23.49 -0.06)"/><path class="cls-19" d="M726,510.1c-.2.3-96.2,3.2-97.2,2.3-.7-.7,1.2-23.3,4.9-48.8.7-4.5,1.4-9.1,2.2-13.6,3.7-22,8.8-43.6,14.7-53.1,3.5-5.7,20.1-9.9,27.6-2.2C706.9,424.4,726.8,509.1,726,510.1Z" transform="translate(-23.49 -0.06)"/><path class="cls-6" d="M657.1,521.6c-3.9,3.3-11.1-7.2-11.1-7.2a9.74,9.74,0,0,1-1.5,6.2c-2.3,3.1-8.2.8-8.2.8a11.51,11.51,0,0,1-2.7,6.3c-2.5,2.8-8.8,1.3-8.8,1.3a10.26,10.26,0,0,1-5.8,4c-6.4,1.4-13.4-5.8-17.8-10.4S588.3,501,586.4,498l28.8-28.9s25.8,14.6,30.3,20.7C649.1,495,663.1,516.6,657.1,521.6Z" transform="translate(-23.49 -0.06)"/><path class="cls-13" d="M646,514.2c-2.7-6.4-7-12.1-11.1-17.6-.1-.1-.3,0-.2.1,4.2,5.4,7,12.1,11,17.7,0,.1.2.1.2.1s.2-.2.1-.3Z" transform="translate(-23.49 -0.06)"/><path class="cls-13" d="M636.5,521a17.78,17.78,0,0,0-2.8-3.8c-1.1-1.3-2.2-2.6-3.3-3.8-2.2-2.5-4.6-5-6.9-7.3-.1-.1-.3,0-.2.2,2.2,2.5,4.4,5,6.5,7.6,1.1,1.3,2.1,2.6,3.2,3.9a26.73,26.73,0,0,0,3.1,3.6.19.19,0,0,0,.3-.1C636.5,521.1,636.5,521.1,636.5,521Z" transform="translate(-23.49 -0.06)"/><path class="cls-13" d="M624.6,529a12.22,12.22,0,0,0-2.7-3.3c-1-1.1-2.1-2.2-3.1-3.4-2.1-2.3-4.1-4.5-6.1-6.9-.1-.1-.3,0-.2.2l6,7.2c1,1.2,2,2.3,3,3.5a11.84,11.84,0,0,0,3,2.9A.31.31,0,0,0,624.6,529Z" transform="translate(-23.49 -0.06)"/><path class="cls-6" d="M684.2,397.1c47,23.6,90.5,60.4,89.6,74.6-1,15.1-31.2,30.8-55.8,38.7-5,1.6-23.5-27.8-18.5-30.5,3.9-2.1,21.7-10.8,23.5-13.8,1.2-2.1-35.3-37.8-48.6-57.5C660.3,387.9,671.6,390.7,684.2,397.1Z" transform="translate(-23.49 -0.06)"/><path class="cls-7" d="M709.9,476.8s-15.5,4.4-25.5,7.8c-5.6,1.9-14.9,6-18.3,9.2-5.2,4.9-23.8,28.6-18.1,33.2,5.1,4.2,10.1-4.8,10.1-4.8s-6.3,9.3,0,11.9,11.7-9.7,11.7-9.7-7.4,9.4-.4,11.5c6.1,1.8,13.8-11.7,13.8-11.7s-8.9,9-2.8,11.5c4.6,1.9,12.7-6.4,17.3-11.8a33.47,33.47,0,0,1,8.9-7.4c10.8-6.4,19.1-12.2,24.9-18C732.7,497.2,709.9,476.8,709.9,476.8Z" transform="translate(-23.49 -0.06)"/><path class="cls-7" d="M658.5,411.6c4.1-.5,11.3-9.7,13.5-16.7.2-.5-1.4-4.9-3.1-10.4-1-3.3-2-7.1-2.7-10.6l-20.8,9.7a59.66,59.66,0,0,1,4.8,13,7.57,7.57,0,0,1,.1,1.5v.2C650.4,401,652,412.4,658.5,411.6Z" transform="translate(-23.49 -0.06)"/><path class="cls-20" d="M650.3,398v.3l2.3-.3c12.6-2.8,12.6-19,12.4-23.5l-19.6,9.1a59.66,59.66,0,0,1,4.8,13C650.2,397,650.3,397.5,650.3,398Z" transform="translate(-23.49 -0.06)"/><path class="cls-7" d="M668,350.4c2.6,7.8-.9,30.8-6.4,36-7.9,7.6-21.3,8.7-27.8-1-6.3-9.3-1.2-39.1,5-43.9C647.8,334.5,664.1,338.8,668,350.4Z" transform="translate(-23.49 -0.06)"/><path class="cls-13" d="M647.5,364.8c0-.1.1.1.1.2-.3,1.5-.5,3.3.8,4.1v.1C646.7,368.6,646.9,366.2,647.5,364.8Z" transform="translate(-23.49 -0.06)"/><path class="cls-13" d="M649.1,363.4c2.5.3,1.7,5.3-.6,5S647,363.2,649.1,363.4Z" transform="translate(-23.49 -0.06)"/><path class="cls-13" d="M638.8,363.2c0-.1-.1,0-.1.1-.2,1.6-.7,3.3-2.2,3.6v.1C638.3,367,638.9,364.7,638.8,363.2Z" transform="translate(-23.49 -0.06)"/><path class="cls-13" d="M637.7,361.3c-2.5-.6-3.4,4.4-1.2,4.9S639.8,361.8,637.7,361.3Z" transform="translate(-23.49 -0.06)"/><path class="cls-13" d="M646.7,379.5a2.67,2.67,0,0,1-1.4.7,4.42,4.42,0,0,1-1.6-.6.1.1,0,0,0-.1.1,2.11,2.11,0,0,0,1.8,1.1,1.6,1.6,0,0,0,1.4-1.2C646.8,379.5,646.7,379.4,646.7,379.5Z" transform="translate(-23.49 -0.06)"/><path class="cls-7" d="M663.6,369.1s5.1-7.4,8.5-5.6-.4,12.5-4.4,14a4,4,0,0,1-5.3-1.9c0-.1,0-.1-.1-.2Z" transform="translate(-23.49 -0.06)"/><path class="cls-8" d="M671,365.6c.1,0,.1.1,0,.1-2.8,1.1-4.2,3.7-5.2,6.4.8-1,1.9-1.6,3.3-.6.1,0,0,.2-.1.1a2.37,2.37,0,0,0-2.7.9,15.92,15.92,0,0,0-1.3,2.2c-.1.3-.6.1-.5-.2v-.1C664.5,370.9,667.2,366,671,365.6Z" transform="translate(-23.49 -0.06)"/><path class="cls-19" d="M672,391.1s-3-1.1-3,9c0,14.5,50.6,61.3,50.6,61.3s7.6,6.3-25.3,18.6c0,0,5.9,23.4,22.4,30.3,12.8,5.3,42.3-16,54.7-25.7a18.1,18.1,0,0,0,3.7-24.8,22,22,0,0,0-1.4-1.8C763.5,446.2,689.5,393.7,672,391.1Z" transform="translate(-23.49 -0.06)"/><path class="cls-19" d="M650.3,397.2c-6.9,17.4-11.8,43.7-11.8,43.7l-20.8,25.9-38.3.8c2.5-7.3,8.2-15.4,15.5-23.4,3.5-3.9,7.3-7.8,11.3-11.5,3.3-3.1,6.6-6.1,9.9-8.9s6.4-5.4,9.4-7.8C638.9,405,650,397.5,650.3,397.2Z" transform="translate(-23.49 -0.06)"/><path class="cls-21" d="M655,358.6a6,6,0,0,0-4.2-1.4,6,6,0,0,1-4.2-1.4s0,2.8,1.4,2.8S652.2,357.1,655,358.6Z" transform="translate(-23.49 -0.06)"/><path class="cls-14" d="M664,372.1s-.2-.8-3.5,3.1c-1.5,1.8-3.4,4.6-5.6,3.9-2.5-.8-5.8-3.2-9.6-2.2-6.5,1.7-13-4.6-14.3-.8-1,3,3,11.4,5.4,15.1a5.64,5.64,0,0,0,5,2.6c3.6-.1,9.2-.5,12.1-1.6,4.4-1.7,9.8-3.4,12-8.4S664,378.9,664,372.1Z" transform="translate(-23.49 -0.06)"/><path class="cls-22" d="M850,53.1" transform="translate(-23.49 -0.06)"/><path class="cls-7" d="M635.1,382.7a2.13,2.13,0,0,1,1.9-2.3h4.6c3.2,0,9.1.9,9.3,1.5.3,1.6.3,8.1-12.5,4.9A4.74,4.74,0,0,1,635.1,382.7Z" transform="translate(-23.49 -0.06)"/><path class="cls-13" d="M638.4,380.6a11.92,11.92,0,0,0,9.6.6C648,381.1,642.8,386.4,638.4,380.6Z" transform="translate(-23.49 -0.06)"/><path class="cls-8" d="M640.7,367.9s-3.6,5.4-2.4,6.6,7.8,0,7.8,0,1.8-1.2-3-.6-4.2-.6-4.2-.6S638.9,371.5,640.7,367.9Z" transform="translate(-23.49 -0.06)"/><path class="cls-15" d="M664,372.1s-1.1-1.1-6.1,6-2.9,8-5.9,12c-2.2,2.9-1,2.1-8.5,3.5a32.71,32.71,0,0,0,19.6-6.5s4.1-4.1,3-7S664,376.1,664,372.1Z" transform="translate(-23.49 -0.06)"/><path class="cls-23" d="M635.5,389.6s8.7,4.9,17.1-.3c0,0,.7,4.9-10.5,4.4C642.2,393.7,638,395,635.5,389.6Z" transform="translate(-23.49 -0.06)"/><path class="cls-21" d="M646.7,356.7s0,2.2,1.7,1.8a22.54,22.54,0,0,1,3.6-.6S648.3,358.3,646.7,356.7Z" transform="translate(-23.49 -0.06)"/><path class="cls-21" d="M633,358.6a6,6,0,0,1,4.2-1.4,6,6,0,0,0,4.2-1.4s0,2.8-1.4,2.8S635.8,357.1,633,358.6Z" transform="translate(-23.49 -0.06)"/><path class="cls-21" d="M641.3,356.7s0,2.2-1.7,1.8a22.54,22.54,0,0,0-3.6-.6S639.7,358.3,641.3,356.7Z" transform="translate(-23.49 -0.06)"/><path class="cls-24" d="M715.8,457.8s11.2,6.3,18.2,4.3a13.9,13.9,0,0,1-15.6,5S722.6,462.6,715.8,457.8Z" transform="translate(-23.49 -0.06)"/><path class="cls-24" d="M709.6,451.9s-18.5-16.8-24.5-30.8Z" transform="translate(-23.49 -0.06)"/><path class="cls-24" d="M671,390.1s-5.9,9.4,3,22.2,10.4,13,9.2,11.9-12.6-19.3-8.2-32.1l-4-2" transform="translate(-23.49 -0.06)"/><path class="cls-24" d="M688,426.8s20,32.3,6,53.3c0,0,17.6-7.5,21.8-10.7L710,452.1Z" transform="translate(-23.49 -0.06)"/><path class="cls-24" d="M755.9,442.9S782,466.1,767,487.8c0,0,19-10.7,9.9-25C777,462.8,774.8,456.7,755.9,442.9Z" transform="translate(-23.49 -0.06)"/><path class="cls-24" d="M770.3,481.4s-8.3,12.7-36.3-.3c0,0,13.2,11.7,30.1,8.9l7.9-6.9Z" transform="translate(-23.49 -0.06)"/><path class="cls-24" d="M621.9,461.6s-11.5,7.7-25.8-1.6l7.8,7.1,13.6.1Z" transform="translate(-23.49 -0.06)"/><path class="cls-24" d="M650.3,398c-7.7,12.9-12.8,43.1-12.8,43.1s-14.6,19.4-15.6,20.4-8.8,3.6-8.8,3.6c5.4-9.9,26.3-33.8,26.3-33.8" transform="translate(-23.49 -0.06)"/><path class="cls-25" d="M715,537.1s31-10,53-10" transform="translate(-23.49 -0.06)"/><path class="cls-25" d="M715,532.1s35-1,51-17c0,0-20.9,14-56.5,17" transform="translate(-23.49 -0.06)"/><path class="cls-25" d="M608,542.1l27.4,58.6S607,565.1,608,542.1Z" transform="translate(-23.49 -0.06)"/><path class="cls-25" d="M608,542.1l12-4.8h-9.7A7.08,7.08,0,0,0,608,542.1Z" transform="translate(-23.49 -0.06)"/><path class="cls-25" d="M610.7,571.4S662,674.1,655,715.1C655,715.1,675.4,683.7,610.7,571.4Z" transform="translate(-23.49 -0.06)"/><path class="cls-25" d="M567,537.1s37.3,8.1,48.7,32.6L608.2,547s-1.2-8.9,2.8-9.9Z" transform="translate(-23.49 -0.06)"/><path class="cls-18" d="M192.8,545.7c-10.8,23.4-6.2,51.2,12.5,69l1.7,1.6c34.3,31.4,110.4,21.9,110.4,21.9s-2.8,20.9-4.7,37.1S283.2,758,283.2,758l75.2,13.3s39-79.9,22.8-121.8-102.8-65.7-102.8-65.7,3.8-20.9-4.8-37.1c0,0-29.5,9.5-78-9.5A31.43,31.43,0,0,1,192.8,545.7Z" transform="translate(-23.49 -0.06)"/><path class="cls-18" d="M273.7,546.8l104.3,25a44,44,0,0,1,21,11.5,31.74,31.74,0,0,1,8.9,14.9c3.8,16.2,53.3,148.5,53.3,148.5l-76.1,6.7s-23.8-77.1-20.9-119L278.6,584C278.4,583.9,262.3,562,273.7,546.8Z" transform="translate(-23.49 -0.06)"/><path class="cls-25" d="M385,753.3s-29.5-98-23.8-124.7c0,0-106.6,32.4-151.4-9.5,0,0,48.5,39,155.2,1.9,0,0-5.8,35.1,31.4,131.3Z" transform="translate(-23.49 -0.06)"/><path class="cls-13" d="M394.5,779" transform="translate(-23.49 -0.06)"/><path class="cls-25" d="M396.4,738.1s20.9,4.8,51.4-1.9c0,0-20,10.5-48.5,7.6Z" transform="translate(-23.49 -0.06)"/><path class="cls-13" d="M415.4,774.2" transform="translate(-23.49 -0.06)"/><path class="cls-25" d="M317.4,638.1s-18.1,79-34.3,119.9l10.5,1.9S322,687.2,323,637Z" transform="translate(-23.49 -0.06)"/><path class="cls-25" d="M356.6,629.9s4.6,86.3-29.7,133.8l-1,1.9,32.4,5.8s15.7-35.8,18.3-47.9c0,0-18.3-62.5-15.5-94.8Z" transform="translate(-23.49 -0.06)"/><path class="cls-25" d="M294.7,740.2s18.2,11.3,49.2,15c0,0-22.3,3.4-48.4-8.6Z" transform="translate(-23.49 -0.06)"/><path class="cls-13" d="M566.4,533.8s-1.8-22.2-21.1-29.5c0,0,8.9-5.4,16.8-5.3Z" transform="translate(-23.49 -0.06)"/><path class="cls-6" d="M255.4,427.4c29,22.4,55.4,48,58.5,63,2,9.5-5.3,24.7-10.6,33.7-2.6,4.4-43.5-21.8-39.1-25,10.8-8,13-11.6,12.3-13.7-.4-1.4-29.9-38-37.3-53.5C228.9,410.3,242.7,417.6,255.4,427.4Z" transform="translate(-23.49 -0.06)"/><path class="cls-26" d="M189.7,518.2c5.7-1.9,75.8,13.3,76.8,12.5,1.3-1.2-7.3-88.4-20.7-110-3.4-5.4-19.1-9.4-26.2-2.1C192.2,447,188.6,518.6,189.7,518.2Z" transform="translate(-23.49 -0.06)"/><path class="cls-6" d="M239.6,539.4c3.7,3.1,10.6-6.8,10.6-6.8a8.76,8.76,0,0,0,1.5,5.9c2.2,3,7.8.8,7.8.8a10.5,10.5,0,0,0,2.6,6c2.4,2.6,8.4,1.2,8.4,1.2a9.78,9.78,0,0,0,5.6,3.9c6.1,1.3,12.7-5.6,17-9.9s12.3-20.5,14.1-23.4l-27.4-27.5s-24.6,13.9-28.8,19.7C247.2,514.2,233.8,534.7,239.6,539.4Z" transform="translate(-23.49 -0.06)"/><path class="cls-13" d="M250.1,532.4c2.6-6.1,6.6-11.6,10.6-16.8.1-.1.3,0,.2.1-4,5.2-6.7,11.5-10.5,16.8C250.3,532.7,250.1,532.6,250.1,532.4Z" transform="translate(-23.49 -0.06)"/><path class="cls-13" d="M259.2,538.9a19,19,0,0,1,2.6-3.7c1-1.2,2.1-2.4,3.1-3.6,2.1-2.4,4.3-4.7,6.6-7,.1-.1.3,0,.2.1-2.1,2.4-4.2,4.8-6.2,7.3-1,1.2-2,2.5-3,3.7a24.33,24.33,0,0,1-3,3.4.19.19,0,0,1-.3-.1Z" transform="translate(-23.49 -0.06)"/><path class="cls-13" d="M270.5,546.5a11.44,11.44,0,0,1,2.6-3.2l3-3.2c2-2.2,3.9-4.3,5.8-6.5.1-.1.3,0,.2.1-1.9,2.3-3.8,4.6-5.7,6.8l-2.9,3.3a12.85,12.85,0,0,1-2.9,2.8A.1.1,0,0,1,270.5,546.5Z" transform="translate(-23.49 -0.06)"/><path class="cls-6" d="M213.8,421c-44.7,22.5-86.2,57.5-85.2,71,1,14.4,29.6,29.3,53.1,36.8,4.8,1.5,22.3-26.5,17.6-29-3.7-2-20.6-10.3-22.4-13.1-1.2-2,33.6-36,46.3-54.7C236.5,412.3,225.8,414.9,213.8,421Z" transform="translate(-23.49 -0.06)"/><path class="cls-7" d="M189.3,496.8s14.8,4.2,24.3,7.4c5.3,1.8,14.1,5.7,17.4,8.8,4.9,4.6,22.6,27.2,17.2,31.6-4.9,4-9.6-4.6-9.6-4.6s6,8.8,0,11.3-11.2-9.2-11.2-9.2,7.1,9,.4,11c-5.8,1.8-13.1-11.1-13.1-11.1s8.4,8.6,2.7,11c-4.4,1.8-12.1-6.1-16.5-11.2a35.61,35.61,0,0,0-8.4-7.1c-10.2-6.2-18.1-11.7-23.7-17.2C167.6,516.3,189.3,496.8,189.3,496.8Z" transform="translate(-23.49 -0.06)"/><path class="cls-26" d="M204.3,499.8s-5.6,22.3-21.3,28.8c-2.3,1-5.2,1-8.4.3-4.8-1-10.3-3.4-16-6.5-11.1-6-22.4-14.5-28.8-19.5-7.3-5.7-7.8-15-2.4-22.4a19.23,19.23,0,0,1,1.3-1.7c9.6-11.3,80-61.1,96.7-63.6,0,0,2.9-1.1,2.9,8.6,0,13.8-48.1,58.3-48.1,58.3S172.9,488.1,204.3,499.8Z" transform="translate(-23.49 -0.06)"/><path class="cls-26" d="M312.4,486.1l-35.9-.7-19.5-24s-4.6-24.3-11-40.3c.4.3,11.8,7.9,25.1,18.7,4.6,3.7,9.5,7.8,14.2,12.2C297.5,463.1,308.8,475.5,312.4,486.1Z" transform="translate(-23.49 -0.06)"/><path class="cls-27" d="M183.7,478.8s-10.7,6-17.4,4.1a13.55,13.55,0,0,0,14.9,4.8C181.3,487.6,177.3,483.3,183.7,478.8Z" transform="translate(-23.49 -0.06)"/><path class="cls-27" d="M189.6,473.1s17.7-10.7,23.4-24Z" transform="translate(-23.49 -0.06)"/><path class="cls-27" d="M226.3,414.4s5.6,8.9-2.9,21.1-9.9,12.3-8.7,11.3,12-18.4,7.8-30.5l3.8-1.9" transform="translate(-23.49 -0.06)"/><path class="cls-27" d="M213,449.1S191.1,480,204.4,500c0,0-8.9-2.5-12.9-5.6l-2.4-21.1Z" transform="translate(-23.49 -0.06)"/><path class="cls-27" d="M132.9,504.2c3.2,2.3,12.7,6.4,33.4-3.2,0,0-9.1,13.3-25.2,10.6l-13.3-10.5.8.4A31.21,31.21,0,0,1,132.9,504.2Z" transform="translate(-23.49 -0.06)"/><path class="cls-27" d="M276.3,478.3s7.1,9.4,20.5.8l-7.3,6.6-12.7.1Z" transform="translate(-23.49 -0.06)"/><path class="cls-27" d="M246.1,421.8c7.4,12.2,12.2,41,12.2,41S272,480,273,480.9s6.3,2,6.3,2c-5.2-9.4-22.8-29.4-22.8-29.4" transform="translate(-23.49 -0.06)"/><path class="cls-28" d="M255.5,443.9" transform="translate(-23.49 -0.06)"/><path class="cls-27" d="M206.8,464s9.5,11.4,22.8,2.9c0,0-6.6,13.1-26.6-1l-1.9-1,4.7-7.1S204.9,462.1,206.8,464Z" transform="translate(-23.49 -0.06)"/><path class="cls-27" d="M201.8,469s18.4,12.1,27.9-2.2c0,0-9.6,12.3-26.6-1.9Z" transform="translate(-23.49 -0.06)"/><path class="cls-7" d="M238.1,432.1c-3.9-.5-10.8-9.2-12.9-15.9-.1-.5,1.4-4.7,3-9.9.9-3.2,1.9-6.8,2.6-10.1l19.8,9.2a60.81,60.81,0,0,0-4.6,12.3,6.6,6.6,0,0,0-.1,1.4v.2C245.7,422.1,244.2,432.9,238.1,432.1Z" transform="translate(-23.49 -0.06)"/><path class="cls-20" d="M245.9,419.2v.2l-2.2-.3c-12-2.7-12-18.1-11.8-22.3l18.7,8.7a53.59,53.59,0,0,0-4.6,12.3A6.15,6.15,0,0,0,245.9,419.2Z" transform="translate(-23.49 -0.06)"/><path class="cls-7" d="M229,373.9c-2.5,7.5.9,29.3,6.1,34.3,7.6,7.2,20.3,8.3,26.5-.9,6-8.9,1.1-37.3-4.7-41.8C248.2,358.7,232.7,362.9,229,373.9Z" transform="translate(-23.49 -0.06)"/><path class="cls-13" d="M248.6,387.6a.35.35,0,0,0-.1.2c.3,1.5.5,3.2-.8,3.9v.1C249.3,391.2,249.1,388.9,248.6,387.6Z" transform="translate(-23.49 -0.06)"/><path class="cls-13" d="M246.9,386.3c-2.4.3-1.6,5,.6,4.8S248.9,386.1,246.9,386.3Z" transform="translate(-23.49 -0.06)"/><path class="cls-13" d="M256.8,386c0-.1.1,0,.1.1.2,1.5.6,3.1,2,3.4v.1C257.3,389.7,256.7,387.5,256.8,386Z" transform="translate(-23.49 -0.06)"/><path class="cls-13" d="M257.9,384.3c2.3-.5,3.3,4.2,1.1,4.7S255.9,384.8,257.9,384.3Z" transform="translate(-23.49 -0.06)"/><path class="cls-7" d="M233.2,391.7c.1,0-4.4-7.2-8.1-5.3-3.2,1.7.4,11.9,4.2,13.4a3.66,3.66,0,0,0,5-1.9.1.1,0,0,1,.1-.1Z" transform="translate(-23.49 -0.06)"/><path class="cls-20" d="M226.2,388.4h0c-.1.1,0,.1,0,.1h0c2.6,1.1,4,3.5,4.9,6.1a2.14,2.14,0,0,0-2.9-.8c-.1.1-.2.1-.3.2v.1h.1a2.33,2.33,0,0,1,2.6.8,11.25,11.25,0,0,1,1.2,2.1.22.22,0,0,0,.4-.2v-.1C232.4,393.4,229.8,388.7,226.2,388.4Z" transform="translate(-23.49 -0.06)"/><path class="cls-7" d="M260.3,404.6a2,2,0,0,0-1.8-2.2h-4.4c-3,0-8.7.8-8.8,1.5-.3,1.6-.3,7.7,11.9,4.6A4.43,4.43,0,0,0,260.3,404.6Z" transform="translate(-23.49 -0.06)"/><path class="cls-13" d="M256,402.6a9,9,0,0,1-8,.6C248,403.1,252.4,408.1,256,402.6Z" transform="translate(-23.49 -0.06)"/><path class="cls-14" d="M229,387.1l4.4,4.5s-2.6-19.1,10.5-23.3a9.48,9.48,0,0,0,3.8-2.4h0a22.62,22.62,0,0,0,6.5,4.6,17.45,17.45,0,0,1,9.4,11.3c3,12,6.8,33.7.7,52.6l16.3,13.7,7,5.9s-2.7-21.5-11.3-34.8c-4.3-6.7-9.1-30.2-10.1-40.4a21.83,21.83,0,0,0-6.7-13.9,18.73,18.73,0,0,0-16.6-4.8s-23.8,0-23.8,23.8-27.9,48.7-27.9,48.7,19.6-12.5,29.9-16.3c0,0,3.3-.6,4.4-2.2s4-14,4-14a14.79,14.79,0,0,1-5.8-11.5s.2-3.4,3.2-2.6A5.2,5.2,0,0,1,229,387.1Z" transform="translate(-23.49 -0.06)"/><path class="cls-29" d="M299.9,386.9" transform="translate(-23.49 -0.06)"/><path class="cls-29" d="M261.1,372.6" transform="translate(-23.49 -0.06)"/><path class="cls-15" d="M247,413.9a31.43,31.43,0,0,0-1.3,6.8s20.2,14.9,24.4,18.6c0,0-11.2-18.2-6.8-36.3C263.3,403.1,261.6,414.2,247,413.9Z" transform="translate(-23.49 -0.06)"/><path class="cls-21" d="M248.4,382.3a1.93,1.93,0,0,1,1,2.6.1.1,0,0,1-.1.1s-5.6-1.9-8.4.9l-1.9.9a11,11,0,0,1,4.6-3.7A20.93,20.93,0,0,1,248.4,382.3Z" transform="translate(-23.49 -0.06)"/><path class="cls-21" d="M254.9,381.4a1.69,1.69,0,0,0,0,2.3h.1s3.6-3,6.5-1.6l1.6.2a8.94,8.94,0,0,0-4.5-1.5A11.93,11.93,0,0,0,254.9,381.4Z" transform="translate(-23.49 -0.06)"/><path class="cls-21" d="M253.4,389.8s2.9,3.8,2.9,6.7-4.8,1.9-4.8,1.9,4.8,0,3.8-2.9Z" transform="translate(-23.49 -0.06)"/><path class="cls-14" d="M247.7,366a55.73,55.73,0,0,1-10.5,9.5c-5.7,3.8-3.9,15.6-3.9,15.6l-1.6-20Z" transform="translate(-23.49 -0.06)"/><path class="cls-15" d="M223.9,389.8s1.7,20.6-15.6,33c0,0,10.9-4.8,16.8-6.6l4.9-16.1C229.9,400,225,398.1,223.9,389.8Z" transform="translate(-23.49 -0.06)"/><path class="cls-8" d="M219.3,548.4S215,537.1,209,532.1c0,0,8.6,13.8,10.3,17.4Z" transform="translate(-23.49 -0.06)"/><path class="cls-8" d="M231,547.7s-4.3-11.3-10.3-16.3c0,0,8.6,13.8,10.3,17.4Z" transform="translate(-23.49 -0.06)"/><path class="cls-8" d="M238,539.7s-4.3-11.3-10.3-16.3c0,0,8.6,13.8,10.3,17.4Z" transform="translate(-23.49 -0.06)"/><rect class="cls-30" x="171.11" y="550.94" width="108" height="4.8"/><polygon class="cls-30" points="214.11 555.74 319.31 555.74 328.01 484.34 222.81 484.34 214.11 555.74"/><path class="cls-31" d="M246.7,515.9c-2.4,18.9-5.3,40.1-5.3,40.1l-6.6-.1,6.5-41.2a1.7,1.7,0,0,0,.6.6A5,5,0,0,0,246.7,515.9Z" transform="translate(-23.49 -0.06)"/><path class="cls-31" d="M248.9,496.7a8.7,8.7,0,0,0-1.4-.8,34.84,34.84,0,0,0-3.1-1.7l1.6-10a3.63,3.63,0,0,1,3.5,2.8C249.8,487.6,249.5,491.3,248.9,496.7Z" transform="translate(-23.49 -0.06)"/><path class="cls-27" d="M204.2,499.8s-4.5-24.4,12.2-26c0,0-6.3-.7-14.3-5.7C202,468.1,195.4,485.6,204.2,499.8Z" transform="translate(-23.49 -0.06)"/><path class="cls-8" d="M677.8,531.8s7.3-9.7,14.5-12.8c0,0-12.1,10.9-14.8,13.8Z" transform="translate(-23.49 -0.06)"/><path class="cls-8" d="M667.7,526.8s7.3-9.7,14.4-12.8c0,0-12.1,10.9-14.8,13.8Z" transform="translate(-23.49 -0.06)"/><path class="cls-31" d="M663,465.1s-2,0-3,3,8.2,69,8.2,69l6.6-.2" transform="translate(-23.49 -0.06)"/><rect class="cls-31" x="583.51" y="532.14" width="108" height="4.8"/><polygon class="cls-30" points="648.51 536.94 543.31 536.94 534.51 465.44 639.81 465.44 648.51 536.94"/><path class="cls-26" d="M346,484.1l-38.1.3-8.3-18c.4.6,2.6,3.7,9.4,1.2.9-.3,1.9-.8,3-1.3l17.3-8.3.1-.1.3.5,1.7,2.7Z" transform="translate(-23.49 -0.06)"/><path class="cls-27" d="M300.5,467.3s6.5,3.8,6.5,9.8c0,0,3.1-3.5,1-9.2C308.1,467.9,303,469.6,300.5,467.3Z" transform="translate(-23.49 -0.06)"/><polygon class="cls-27" points="252.31 484.34 248.41 479.74 251.51 480.04 255.11 482.74 256.11 484.34 252.31 484.34"/><path class="cls-13" d="M245.9,386.7a4.13,4.13,0,0,1-1.1.7c-.4.1-.8-.4-1.2-.8h-.1c0,.8.3,1.5,1.1,1.6a1.34,1.34,0,0,0,1.4-1.3C246.2,386.8,246.1,386.6,245.9,386.7Z" transform="translate(-23.49 -0.06)"/><path class="cls-13" d="M258.8,384.7a4.13,4.13,0,0,0,1.1.7c.4.1.9-.4,1.2-.8h.1c0,.8-.3,1.5-1.1,1.6a1.34,1.34,0,0,1-1.4-1.3C258.6,384.8,258.7,384.6,258.8,384.7Z" transform="translate(-23.49 -0.06)"/><polygon class="cls-32" points="319.51 556.04 327.91 485.64 290.71 555.74 319.51 556.04"/><polygon class="cls-32" points="543.31 537.34 534.91 466.94 572.21 537.04 543.31 537.34"/><polygon class="cls-31" points="319.51 551.04 319.51 555.74 205.71 555.74 211.41 550.94 319.51 551.04"/><polygon class="cls-31" points="542.91 532.14 542.91 536.94 656.91 536.94 651.11 532.14 542.91 532.14"/><polyline class="cls-33" points="285.11 384.14 276.11 400.84 293.11 397.54"/><circle class="cls-34" cx="323.91" cy="370.84" r="44"/><path class="cls-29" d="M342,362.8" transform="translate(-23.49 -0.06)"/><circle class="cls-11" cx="324.31" cy="367.14" r="44"/><polyline class="cls-35" points="286.11 382.54 277.11 399.34 294.11 396.04"/><polygon class="cls-19" points="324.31 354.44 337.21 375.04 331.11 384.74 317.71 384.74 311.61 375.04 324.31 354.44"/><rect class="cls-24" x="317.71" y="384.74" width="13.4" height="3.7"/><rect class="cls-24" x="322.61" y="372.54" width="3.7" height="3.7"/><line class="cls-36" x1="324.31" y1="372.54" x2="324.31" y2="345.84"/><path class="cls-37" d="M321.1,374.8a26.77,26.77,0,0,1,53.5,1.5" transform="translate(-23.49 -0.06)"/><rect class="cls-24" x="295.91" y="372.64" width="3.7" height="3.7"/><rect class="cls-24" x="349.11" y="373.84" width="3.7" height="3.7"/><line class="cls-38" x1="298.81" y1="349.54" x2="349.11" y2="349.54"/><rect class="cls-24" x="347.91" y="348.54" width="2.5" height="2.5"/><rect class="cls-24" x="297.51" y="348.24" width="2.5" height="2.5"/><polyline class="cls-33" points="566.81 383.54 574.51 397.84 559.91 395.04"/><circle class="cls-34" cx="533.51" cy="372.04" r="37.8"/><path class="cls-29" d="M561.7,365.2" transform="translate(-23.49 -0.06)"/><circle class="cls-35" cx="533.11" cy="368.94" r="37.8"/><polyline class="cls-35" points="565.91 382.14 573.71 396.54 559.01 393.74"/><path class="cls-19" d="M573.9,362.7a17.2,17.2,0,1,0-24.5,15.6v4.3h15.1s.1-2.4.1-4.6A17.35,17.35,0,0,0,573.9,362.7Z" transform="translate(-23.49 -0.06)"/><path class="cls-19" d="M563.2,386.4h-13a.94.94,0,0,1-1-1h0a.94.94,0,0,1,1-1h13a.94.94,0,0,1,1,1h0A1,1,0,0,1,563.2,386.4Z" transform="translate(-23.49 -0.06)"/><path class="cls-19" d="M563.2,388.2h-13a1.1,1.1,0,0,0-.8,1.2,1.09,1.09,0,0,0,.8.8h1.4l1.9,3.6a1.23,1.23,0,0,0,1.1.7h4.6a1.23,1.23,0,0,0,1.1-.7l1.8-3.6h1a1.1,1.1,0,0,0,.8-1.2.85.85,0,0,0-.7-.8Z" transform="translate(-23.49 -0.06)"/><path class="cls-35" d="M545.6,351.7a14.15,14.15,0,0,1,3.5-2.3,7.73,7.73,0,0,1,2.7-.8c.7-.1,1,0,1.1.1.1.3-1.2.8-3,2a14.31,14.31,0,0,0-6.5,13.9c.2,2.1.7,3.4.4,3.5-.1.1-.4-.2-.8-.7a8,8,0,0,1-1.1-2.5,14,14,0,0,1-.5-4.1,14.64,14.64,0,0,1,1.2-5" transform="translate(-23.49 -0.06)"/><path class="cls-35" d="M556.9,349.6c-1.1,0-2.1-.3-2.2-.9a1,1,0,0,1,.5-.8,3.17,3.17,0,0,1,1.6-.4,2.93,2.93,0,0,1,1.6.4c.4.2.6.5.5.8" transform="translate(-23.49 -0.06)"/><polygon class="cls-39" points="528.21 390.24 528.81 391.34 538.21 391.34 538.81 390.14 528.21 390.24"/><polygon class="cls-39" points="529.31 392.14 529.71 393.04 537.31 393.04 537.81 392.14 529.31 392.14"/><path class="cls-40" d="M559.2,378.1v-.2a1.49,1.49,0,0,1,.1-.6c.1-.6.2-1.4.3-2.5s.4-2.4.7-3.9a22.7,22.7,0,0,1,1.7-5,14.28,14.28,0,0,1,1.5-2.7,2.54,2.54,0,0,1,1.2-1.1,1.72,1.72,0,0,1,1.7,0,1.19,1.19,0,0,1,.5,1.6,2.36,2.36,0,0,1-1.4,1.2,5,5,0,0,1-3.8-.3,5.14,5.14,0,0,1-2.6-3,3.76,3.76,0,0,1-.1-2.1,1.71,1.71,0,0,1,1.7-1.3,1.15,1.15,0,0,1,.9.6,2,2,0,0,1,.2,1.1,3.38,3.38,0,0,1-1.3,1.8,5.38,5.38,0,0,1-4.2,1.2,4.67,4.67,0,0,1-3.5-2.6,2.81,2.81,0,0,1-.1-2.2,1.09,1.09,0,0,1,.8-.8,1.38,1.38,0,0,1,1.1.1,3,3,0,0,1,.8.8c.1.3.2.7.3,1a5.37,5.37,0,0,1-6.6,5.6,2.6,2.6,0,0,1-1.6-.9,1.36,1.36,0,0,1-.1-1.7,1.23,1.23,0,0,1,.8-.4,1.49,1.49,0,0,1,.9.2,2.54,2.54,0,0,1,1.1,1.2c.5,1,.8,1.9,1.2,2.9,1.5,3.6,2.5,6.7,3.2,8.8.3,1,.6,1.9.8,2.4a3.93,3.93,0,0,1,.2.6l.1.2-.1-.2-.2-.6c-.2-.5-.5-1.4-.8-2.4-.7-2.1-1.8-5.1-3.2-8.7-.4-.9-.8-1.9-1.2-2.8a2.34,2.34,0,0,0-1-1.2,1.07,1.07,0,0,0-1.3,1.7,2.75,2.75,0,0,0,1.5.8,5,5,0,0,0,3.6-.5,5.47,5.47,0,0,0,2.5-2.9,6.45,6.45,0,0,0,.3-2,2.23,2.23,0,0,0-.9-1.7,1.13,1.13,0,0,0-1.5.4c0,.1-.1.1-.1.2a2.74,2.74,0,0,0,.1,2,4.46,4.46,0,0,0,3.3,2.5,5.48,5.48,0,0,0,4.1-1.1,3,3,0,0,0,1.2-1.7,1.73,1.73,0,0,0-.1-1,.79.79,0,0,0-.8-.5,1.61,1.61,0,0,0-.9.3,1.37,1.37,0,0,0-.5.8,3.38,3.38,0,0,0,.1,2,4.8,4.8,0,0,0,2.5,2.9,4.73,4.73,0,0,0,3.5.2,2.37,2.37,0,0,0,1.3-1.1,1,1,0,0,0-.4-1.4,2,2,0,0,0-1.5,0,2.94,2.94,0,0,0-1.2,1,11.74,11.74,0,0,0-1.5,2.7,29.46,29.46,0,0,0-1.7,5c-.3,1.5-.6,2.9-.8,3.9s-.3,1.9-.4,2.5l-.1.6C559.2,378,559.2,378.1,559.2,378.1Z" transform="translate(-23.49 -0.06)"/><rect class="cls-24" x="322.61" y="347.94" width="3.7" height="3.7"/><polygon class="cls-5" points="784.31 391.24 786.51 339.74 719.01 339.74 721.81 391.04 784.31 391.24"/><path class="cls-11" d="M784,350.1s7.4-.3,8.7.3-.3,12.7-.3,12.7l3,2.7-2.8,2.7s.2,12.2-1.6,13.2-7.7,0-7.7,0v-3s4.9.3,5.7-.3.7-11.3.7-11.3l1.3-1.4-1.3-1.5s.2-7.6.1-9.7c-.1-1.4-5.8-1.5-5.8-1.5Z" transform="translate(-23.49 -0.06)"/><path class="cls-11" d="M767.1,350.1s-7.4-.3-8.7.3.3,12.7.3,12.7l-2.9,2.7,2.8,2.7s-.1,12.2,1.6,13.2,7.7,0,7.7,0v-3s-4.8.3-5.7-.3-.7-11.3-.7-11.3l-1.3-1.4,1.3-1.5s-.2-7.6-.1-9.7c.1-1.4,5.8-1.5,5.8-1.5v-2.9Z" transform="translate(-23.49 -0.06)"/><polygon class="cls-11" points="435.31 439.44 423.31 453.44 435.51 463.84 435.51 458.44 428.41 452.34 435.01 444.84 435.31 439.44"/><polygon class="cls-11" points="456.41 440.14 468.51 454.04 456.21 464.44 456.21 459.04 463.31 452.94 455.41 444.54 456.41 440.14"/><polygon class="cls-11" points="437.91 463.84 448.41 440.74 453.31 440.74 441.41 463.84 437.91 463.84"/><path class="cls-41" d="M393.8,429.6c.6-.2,1.3-.3,1.9-.5" transform="translate(-23.49 -0.06)"/><path class="cls-42" d="M400.6,427.4c43.8-17.2,56.8-87.3,118.5-108.4" transform="translate(-23.49 -0.06)"/><path class="cls-41" d="M521.5,318.2l1.9-.6" transform="translate(-23.49 -0.06)"/><path class="cls-11" d="M712.2,315.5l8.6-13.8-4.2-2.6a4,4,0,0,1-1.8-3.6,19.27,19.27,0,0,0,.1-2.4,3.84,3.84,0,0,1,2-3.5l4.4-2.4-7.7-14.3-4.4,2.4a3.65,3.65,0,0,1-4-.3,23.92,23.92,0,0,0-2.1-1.3,3.84,3.84,0,0,1-2-3.5l.2-5-16.3-.5-.2,5a3.85,3.85,0,0,1-2.3,3.4c-.4.2-.7.3-1.1.5a8.79,8.79,0,0,0-1,.6,4.07,4.07,0,0,1-4,0l-4.3-2.6-8.6,13.8,4.2,2.6a4,4,0,0,1,1.8,3.6,19.27,19.27,0,0,0-.1,2.4,3.84,3.84,0,0,1-2,3.5l-4.4,2.4,7.7,14.3,4.4-2.4a3.65,3.65,0,0,1,4,.3,23.92,23.92,0,0,0,2.1,1.3,4,4,0,0,1,2,3.5l-.2,5,16.2.5.2-5a3.85,3.85,0,0,1,2.3-3.4,5.36,5.36,0,0,1,1.1-.5,3.33,3.33,0,0,0,1-.6,3.8,3.8,0,0,1,4.1,0Zm-13.7-10.3a13.29,13.29,0,1,1,5.4-18h0A13.29,13.29,0,0,1,698.5,305.2Z" transform="translate(-23.49 -0.06)"/><path class="cls-11" d="M285.47,313.86l7.1-11.4-3.5-2.2a3.23,3.23,0,0,1-1.5-3,13.4,13.4,0,0,0,.1-2,3.24,3.24,0,0,1,1.7-2.9l3.6-1.9-6.3-11.8-3.6,1.9a3,3,0,0,1-3.3-.2c-.5-.4-1.1-.7-1.7-1.1a3.24,3.24,0,0,1-1.7-2.9l.1-4.1-13.4-.4L263,276a3.36,3.36,0,0,1-1.9,2.8l-.9.4c-.3.2-.6.3-.9.5a3.25,3.25,0,0,1-3.3,0l-3.5-2.2-7.1,11.4,3.5,2.2a3.23,3.23,0,0,1,1.5,3,13.4,13.4,0,0,0-.1,2,3.24,3.24,0,0,1-1.7,2.9l-3.6,1.9,6.3,11.8,3.6-1.9a3,3,0,0,1,3.3.2,9.5,9.5,0,0,0,1.7,1,3.24,3.24,0,0,1,1.7,2.9l-.1,4.1,13.4.4.1-4.1a3.36,3.36,0,0,1,1.9-2.8l.9-.4c.3-.2.6-.3.9-.5a3.25,3.25,0,0,1,3.3,0Zm-11.3-8.4a11,11,0,1,1,4.4-14.9v.1a10.73,10.73,0,0,1-4.4,14.8Z" transform="translate(-23.49 -0.06)"/><polygon class="cls-26" points="500.41 735.14 498.41 762.84 462.71 762.84 460.71 735.14 500.41 735.14"/><rect class="cls-43" x="456.51" y="724.24" width="47.4" height="10.9"/><polygon class="cls-43" points="503.91 761.84 503.91 764.84 501.61 764.84 457.31 764.84 457.31 761.84 503.91 761.84"/><polygon class="cls-43" points="499.51 770.14 501.61 764.84 458.91 764.84 461.51 770.14 499.51 770.14"/><path class="cls-44" d="M483.7,735c0,.1,8.9.2,20,.2s20-.1,20-.2-8.9-.2-20-.2S483.7,734.9,483.7,735Z" transform="translate(-23.49 -0.06)"/><path class="cls-44" d="M481.9,765.2c0,.1,9.7.2,21.7.2s21.7-.1,21.7-.2-9.7-.2-21.7-.2S481.9,765.1,481.9,765.2Z" transform="translate(-23.49 -0.06)"/><polygon class="cls-26" points="494.11 297.44 506.41 304.34 507.31 314.54 515.11 308.14 525.61 312.94 556.11 284.34 494.11 297.44"/><polygon class="cls-27" points="506.41 304.34 555.11 284.54 512.21 306.74 507.31 314.54 507.31 314.54 506.41 304.34"/><polygon class="cls-45" points="512.21 306.74 515.11 308.14 507.31 314.54 512.21 306.74"/><path class="cls-46" d="M300.5,21.1H636.6a19.53,19.53,0,0,1,19.5,19.5V237.7a19.44,19.44,0,0,1-19.5,19.4H300.5A19.5,19.5,0,0,1,281,237.7V40.6A19.46,19.46,0,0,1,300.5,21.1Z" transform="translate(-23.49 -0.06)"/><path class="cls-2" d="M296.5,17.1H632.6a19.53,19.53,0,0,1,19.5,19.5V233.7a19.44,19.44,0,0,1-19.5,19.4H296.5A19.5,19.5,0,0,1,277,233.7V36.6A19.46,19.46,0,0,1,296.5,17.1Z" transform="translate(-23.49 -0.06)"/><rect class="cls-35" x="292.71" y="73.14" width="63.3" height="63.3"/><polygon class="cls-2" points="297.61 131.54 318.31 102.04 340.91 131.54 297.61 131.54"/><polyline class="cls-2" points="351.01 131.54 326.71 131.54 338.41 114.94"/><rect class="cls-47" x="297.41" y="77.74" width="54" height="54.1"/><circle class="cls-2" cx="333.61" cy="100.14" r="4.6"/><rect class="cls-48" x="287.61" y="67.84" width="73.6" height="73.8"/><rect class="cls-49" x="322.01" y="65.04" width="4.9" height="4.8"/><rect class="cls-49" x="285.01" y="65.54" width="4.9" height="4.8"/><rect class="cls-49" x="358.51" y="65.34" width="4.9" height="4.8"/><rect class="cls-49" x="321.71" y="138.74" width="4.9" height="4.9"/><rect class="cls-49" x="284.81" y="139.24" width="4.9" height="4.9"/><rect class="cls-49" x="358.21" y="139.04" width="4.9" height="4.9"/><rect class="cls-49" x="285.21" y="102.24" width="4.9" height="4.8"/><rect class="cls-49" x="358.71" y="102.04" width="4.9" height="4.8"/><rect class="cls-35" x="523.31" y="168.74" width="63.3" height="63.3"/><polygon class="cls-2" points="528.21 227.14 548.91 197.64 571.51 227.14 528.21 227.14"/><polyline class="cls-2" points="581.61 227.14 557.31 227.14 569.01 210.54"/><rect class="cls-47" x="528.01" y="173.34" width="54" height="54.1"/><circle class="cls-2" cx="564.21" cy="195.74" r="4.6"/><rect class="cls-48" x="518.21" y="163.44" width="73.6" height="73.8"/><rect class="cls-49" x="552.61" y="160.64" width="4.8" height="4.9"/><rect class="cls-49" x="515.61" y="161.14" width="4.8" height="4.9"/><rect class="cls-49" x="589.11" y="161.04" width="4.8" height="4.9"/><rect class="cls-49" x="552.31" y="234.34" width="4.8" height="4.9"/><rect class="cls-49" x="515.41" y="234.84" width="4.8" height="4.9"/><rect class="cls-49" x="588.81" y="234.74" width="4.8" height="4.9"/><rect class="cls-49" x="515.81" y="197.84" width="4.8" height="4.9"/><rect class="cls-49" x="589.31" y="197.74" width="4.8" height="4.9"/><rect class="cls-50" x="381.71" y="65.34" width="204.9" height="7.7"/><rect class="cls-50" x="381.71" y="84.74" width="204.9" height="4.8"/><rect class="cls-50" x="381.91" y="94.89" width="216.6" height="4.8"/><rect class="cls-50" x="380.91" y="105.81" width="216.6" height="4.8"/><rect class="cls-50" x="285.31" y="168.04" width="204.9" height="7.7"/><rect class="cls-50" x="285.31" y="186.09" width="204.9" height="4.8"/><rect class="cls-50" x="284.61" y="197.59" width="216.6" height="4.8"/><rect class="cls-50" x="284.61" y="209.49" width="216.6" height="4.8"/><path class="cls-51" d="M309.8,33H617.2a3.8,3.8,0,0,1,3.8,3.8V50a3.8,3.8,0,0,1-3.8,3.8H309.8a3.88,3.88,0,0,1-3.9-3.8V36.9A3.9,3.9,0,0,1,309.8,33Z" transform="translate(-23.49 -0.06)"/><path class="cls-52" d="M589.1,43.5a4,4,0,1,1-4-4.1A4.17,4.17,0,0,1,589.1,43.5Z" transform="translate(-23.49 -0.06)"/><path class="cls-52" d="M601.7,43.5a4,4,0,1,1-4-4.1A4.17,4.17,0,0,1,601.7,43.5Z" transform="translate(-23.49 -0.06)"/><path class="cls-52" d="M614.3,43.5a4,4,0,1,1-4-4.1A4.17,4.17,0,0,1,614.3,43.5Z" transform="translate(-23.49 -0.06)"/><circle class="cls-24" cx="295.51" cy="43.04" r="7"/><path class="cls-11" d="M393,799.1s-3-4-3-14c0,0,69,5,106,1,0,0,1.1,3,0,5S415.3,799.1,393,799.1Z" transform="translate(-23.49 -0.06)"/><path class="cls-11" d="M484,776.1s-10,3-9,12h-2.6C472.5,788.1,473,776.1,484,776.1Z" transform="translate(-23.49 -0.06)"/><path class="cls-12" d="M379.9,835.2c-3.5.2-94.5-24.5-97.4-27.6-1.1-1.2,1.7-14.7,5.6-30.8l58.7,15.8s30.6,25,33.4,28.8S383.4,835,379.9,835.2Z" transform="translate(-23.49 -0.06)"/><path class="cls-11" d="M375.3,816.5a12.36,12.36,0,0,0-10.1,1.3,12.59,12.59,0,0,0-5.6,7.2c0,.1.1.1.2,0a14.63,14.63,0,0,1,15.5-8.3v-.2Z" transform="translate(-23.49 -0.06)"/><path class="cls-11" d="M352.4,795.6c-6.1-1.7-13.8-1.5-18.9,2.5-.2.2,0,.4.2.4a89.11,89.11,0,0,1,18.6-2.1.43.43,0,0,0,.4-.4A1.38,1.38,0,0,0,352.4,795.6Z" transform="translate(-23.49 -0.06)"/><path class="cls-11" d="M356.6,798.7c-6.1-1.8-13.8-1.5-18.9,2.5-.2.2,0,.4.2.4a89,89,0,0,1,18.6-2,.51.51,0,0,0,.5-.4A.66.66,0,0,0,356.6,798.7Z" transform="translate(-23.49 -0.06)"/><path class="cls-11" d="M360.8,801.8c-6.1-1.7-13.8-1.5-18.9,2.5-.2.2,0,.4.2.4a96.36,96.36,0,0,1,18.6-2.1.43.43,0,0,0,.4-.4C361.1,802,360.9,801.9,360.8,801.8Z" transform="translate(-23.49 -0.06)"/><path class="cls-11" d="M365,805c-6.1-1.7-13.8-1.5-18.9,2.5-.2.2,0,.4.2.4a89.11,89.11,0,0,1,18.6-2.1.43.43,0,0,0,.4-.4C365.3,805.2,365.2,805,365,805Z" transform="translate(-23.49 -0.06)"/><path class="cls-11" d="M282,808.1s-.8-5.5,2.7-14.9c0,0,62.2,27.9,98.3,36.9,0,0-.3,3.5-2,5S302.9,815.8,282,808.1Z" transform="translate(-23.49 -0.06)"/><path class="cls-11" d="M375.1,816.8s-10.4-.6-12.6,8.2l-2.4-.9S364.8,813,375.1,816.8Z" transform="translate(-23.49 -0.06)"/><path class="cls-17" d="M596.1,807.2c3.8-.3,100.3-41.3,103-45.2,1-1.5-4.1-15.9-10.9-33.1L626,755.2s-29.9,32.2-32.4,36.8S592.3,807.6,596.1,807.2Z" transform="translate(-23.49 -0.06)"/><path class="cls-13" d="M598.3,784.9a14.55,14.55,0,0,1,11.4-.2c2.9,1.3,6,3.7,7.3,7.1,0,.1-.1.2-.2.1a16.42,16.42,0,0,0-18.4-6.8c-.1,0-.1,0-.1-.1Z" transform="translate(-23.49 -0.06)"/><path class="cls-13" d="M620.4,758.4c6.4-2.8,14.9-3.8,21.2-.2.2.1,0,.5-.2.5a96.51,96.51,0,0,0-20.8.5c-.2,0-.5-.1-.5-.4A.54.54,0,0,1,620.4,758.4Z" transform="translate(-23.49 -0.06)"/><path class="cls-13" d="M616.3,762.6c6.4-2.8,14.9-3.8,21.2-.2.2.1,0,.5-.2.5a96.51,96.51,0,0,0-20.8.5c-.2,0-.5-.2-.5-.4S616.1,762.6,616.3,762.6Z" transform="translate(-23.49 -0.06)"/><path class="cls-13" d="M612.1,766.6c6.4-2.8,14.9-3.8,21.2-.2.2.1,0,.5-.2.5a96.51,96.51,0,0,0-20.8.5c-.2,0-.5-.1-.5-.4S611.9,766.6,612.1,766.6Z" transform="translate(-23.49 -0.06)"/><path class="cls-13" d="M607.9,770.7c6.4-2.8,14.9-3.8,21.2-.2.2.1,0,.5-.2.5a96.51,96.51,0,0,0-20.8.5c-.2,0-.5-.1-.5-.4A.45.45,0,0,1,607.9,770.7Z" transform="translate(-23.49 -0.06)"/><path class="cls-13" d="M699,762.1s.8-6.8-4.5-16.6c0,0-64.1,40.2-102.5,55.6,0,0,.9,4.6,3,6S677.2,773.7,699,762.1Z" transform="translate(-23.49 -0.06)"/><path class="cls-13" d="M598.6,785.3s11.4-2.3,15.1,7.1l2.5-1.3C616.2,791,609.4,779.6,598.6,785.3Z" transform="translate(-23.49 -0.06)"/><path class="cls-13" d="M538.6,580.7l-16.4,22.5s-2.9,3.1,2,5l16.4-22Z" transform="translate(-23.49 -0.06)"/><path class="cls-26" d="M494,683c-4.6-2.4-10.1-2.7-15.2-1.8-2.8.5-5.6,1.3-7.5,3.4s-2.2,5.7-.1,7.5a7.24,7.24,0,0,0,4.7,1.2c4,0,8.5-.8,11.7,1.7,1.8,1.4,3.1,3.7,5.3,4.4a5.18,5.18,0,0,0,5.7-2.5,8.66,8.66,0,0,0,.6-6.5A10.15,10.15,0,0,0,494,683Z" transform="translate(-23.49 -0.06)"/><path class="cls-26" d="M504.6,662.6c-2.8,4-8.3,2.7-10.9.2s-3.6-6-4.6-9.5c-2.3-7.8-4.5-16-2.8-23.9a13.14,13.14,0,0,1,3.1-6.5,6.85,6.85,0,0,1,6.6-2.2c2.8.7,4.5,3.5,5.7,6a56,56,0,0,1,5.6,24.5c0,3.9-.5,8.1-2.7,11.4" transform="translate(-23.49 -0.06)"/><path class="cls-26" d="M512.4,668.3c-3.1-3.7-3.7-9-2.3-13.5s4.5-8.5,8-11.7a44.58,44.58,0,0,1,14.4-8.5,16.19,16.19,0,0,1,6.5-1.1,6.72,6.72,0,0,1,5.4,3.3c1.5,2.9.1,6.4-1.5,9.2a111.87,111.87,0,0,1-9.5,14.4c-2.8,3.7-6.1,7.3-10.4,8.9s-8.8,1.5-11.1-1.5" transform="translate(-23.49 -0.06)"/><path class="cls-43" d="M504.8,723.6l-.3-1.8c-.1-1.3-.3-3-.5-5a54.15,54.15,0,0,0-3.8-16.1,34,34,0,0,0-4.4-7.9,17,17,0,0,0-5.6-4.7,19.79,19.79,0,0,0-4.7-1.5,5.66,5.66,0,0,1-1.8-.3,6,6,0,0,1,1.9,0,13.69,13.69,0,0,1,4.9,1.3,16.85,16.85,0,0,1,5.9,4.7,30.29,30.29,0,0,1,4.6,8,68.67,68.67,0,0,1,2.7,8.8,61.5,61.5,0,0,1,1,7.5c.2,2.1.2,3.9.3,5C504.9,722.3,504.9,722.9,504.8,723.6Z" transform="translate(-23.49 -0.06)"/><path class="cls-43" d="M504.4,719.7v-3.3c0-2.1,0-5.2-.1-9-.2-7.6-.8-15.7-2.1-27.2-1.2-10.8-2.8-23.4-4.5-31.5-.4-1.8-.7-3.5-1.1-5s-.6-2.7-.9-3.8l-.6-2.4a2.49,2.49,0,0,1-.1-.8c.1.3.2.5.3.8.2.6.4,1.4.7,2.3s.6,2.3,1,3.7.8,3.1,1.2,5a262.8,262.8,0,0,1,4.7,29.3c1.3,11.5,1.8,22,1.9,29.6,0,3.8,0,6.9-.1,9-.1,1-.1,1.8-.2,2.4A2.22,2.22,0,0,1,504.4,719.7Z" transform="translate(-23.49 -0.06)"/><path class="cls-43" d="M504.4,699.6a10.45,10.45,0,0,1,0-2.5,54,54,0,0,1,.8-6.9,86.5,86.5,0,0,1,2.2-10.1,79.87,79.87,0,0,1,4.2-11.9A62.06,62.06,0,0,1,524,649a24.43,24.43,0,0,1,2.9-2.7,9,9,0,0,1,1.2-1l1.1-.8a16.44,16.44,0,0,1,2.2-1.4c.1.2-3,2-7,6.3a64,64,0,0,0-12,19.2,82.82,82.82,0,0,0-4.2,11.8,85.58,85.58,0,0,0-2.4,10c-.5,2.9-.8,5.2-1,6.8C504.7,697.9,504.6,698.7,504.4,699.6Z" transform="translate(-23.49 -0.06)"/><path class="cls-25" d="M632.6,594.5s104.6,3.9,159-12.7c0,0-93.9,15.2-161.8,7.8Z" transform="translate(-23.49 -0.06)"/><path class="cls-53" d="M145.5,472.1c0-.2.6-4.2,3.3-5.4,3.4-1.5,5.7,3.4,12.5,3.8,3.8.3,5.6-1,7.9.5,1.7,1.1,3.1,3.3,2.6,4.9-.8,2.2-5.1.6-7.7,3.3-2.3,2.5-.3,5.4-2.8,8.2-1.6,1.8-4.5,2.8-6.6,2-1.7-.6-1.9-2-4.3-6.6C146.7,475.8,145.2,474.9,145.5,472.1Z" transform="translate(-23.49 -0.06)"/><path class="cls-53" d="M175.9,464c-4.3-.3-6.1-1.9-6.6-2.4s-2.4-2.3-2.2-4.3,1.9-2.1,4.8-5.4c2.3-2.7,1.9-3.3,3.4-4.4,2.6-1.8,6.8-2.2,8.7-.3,1.4,1.4.2,3,1.5,6.6,1.4,4,3.6,4.4,3.2,6.1C188.1,463,180.9,464.4,175.9,464Z" transform="translate(-23.49 -0.06)"/><path class="cls-53" d="M230,444.2a5.62,5.62,0,0,1,4.1-3.2c1.7-.3,3.3.6,6.6,2.6,3.5,2,3.5,2.7,5.8,3.4,1.5.4,2.3.4,3.2,1.2s2,2.6,1.5,3.9c-.6,1.7-2.9,1-5.4,3.4a27.38,27.38,0,0,0-2.7,3.9c-1.8,2.9-1.8,3.4-2.7,3.9a5,5,0,0,1-5.4-.3c-1.4-1.2-.6-2.5-2-4.3-1.4-1.6-2.5-1.1-4.9-2.9-.6-.4-3.7-2.8-3.2-4.6.4-1.6,3.4-1,4.6-3.2C230.1,446.5,229.2,445.9,230,444.2Z" transform="translate(-23.49 -0.06)"/><circle class="cls-3" cx="652.81" cy="439.84" r="4"/><circle class="cls-3" cx="631.71" cy="444.14" r="4.3"/><circle class="cls-3" cx="655.91" cy="468.34" r="8.4"/><circle class="cls-3" cx="682.51" cy="420.54" r="5.7"/><circle class="cls-3" cx="711.91" cy="439.44" r="7"/><circle class="cls-3" cx="594.81" cy="441.54" r="5.1"/><path class="cls-3" d="M628.7,421.4a6.49,6.49,0,0,1-12.6,2.2c3.2-2.8,6.4-5.4,9.4-7.8A6.38,6.38,0,0,1,628.7,421.4Z" transform="translate(-23.49 -0.06)"/><path class="cls-3" d="M608,437.7a8.07,8.07,0,0,1-8.1,8.1,8,8,0,0,1-5-1.7c3.5-3.9,7.3-7.8,11.3-11.5A8.32,8.32,0,0,1,608,437.7Z" transform="translate(-23.49 -0.06)"/><path class="cls-3" d="M643.8,457a7.14,7.14,0,0,1-10,6.5c.7-4.5,1.4-9.1,2.2-13.6h.7A7.13,7.13,0,0,1,643.8,457Z" transform="translate(-23.49 -0.06)"/><circle class="cls-3" cx="724.21" cy="467.04" r="5.1"/><circle class="cls-3" cx="697.21" cy="483.34" r="6.2"/><circle class="cls-3" cx="715.71" cy="492.94" r="5.2"/><circle class="cls-3" cx="630.51" cy="420.54" r="5.7"/><path class="cls-53" d="M285.3,451.9c-1.7,2.4-7.9,3.5-12.4,3.2-4.3-.3-6.1-1.9-6.6-2.4s-2.4-2.3-2.2-4.3,1.9-2.1,4.8-5.4a18.17,18.17,0,0,0,2.2-3.2C275.7,443.5,280.6,447.6,285.3,451.9Z" transform="translate(-23.49 -0.06)"/><path class="cls-31" d="M248.9,496.7c-.5,5.2-1.3,12-2.2,19.2a4.8,4.8,0,0,1-4.9-.6l-.6-.6,3.2-20.5a34.84,34.84,0,0,1,3.1,1.7A8.7,8.7,0,0,1,248.9,496.7Z" transform="translate(-23.49 -0.06)"/><path class="cls-53" d="M244.5,494.1l-3.2,20.5c-.6-1-.3-2.2-1.5-3.6-1.3-1.7-2.5-1-4.9-2.9-.5-.4-3.7-2.8-3.2-4.6.5-1.6,3.4-1,4.6-3.2.8-1.4-.1-2.1.7-3.7a5.62,5.62,0,0,1,4.1-3.2C242,493.1,243,493.4,244.5,494.1Z" transform="translate(-23.49 -0.06)"/><path class="cls-53" d="M331.4,462.4c-.8,2.2-5.1.5-7.7,3.3-2.3,2.5-.3,5.4-2.8,8.2-1.6,1.8-4.5,2.8-6.6,2-1.7-.6-1.9-2-4.3-6.6l-.9-1.8c.9-.3,1.9-.8,3-1.3l17.3-8.3c.1.1.3.2.4.4a6.14,6.14,0,0,1,1.7,2.7A2.2,2.2,0,0,1,331.4,462.4Z" transform="translate(-23.49 -0.06)"/><path class="cls-53" d="M183.6,520.2c-.6,1.7-2.9,1.1-5.4,3.4a27.38,27.38,0,0,0-2.7,3.9,8.51,8.51,0,0,1-.9,1.4c-4.8-1-10.3-3.4-16-6.5-.9-.9-1.8-2.1-1.5-3.1.4-1.6,3.4-1,4.6-3.2.8-1.4-.1-2.1.7-3.8a5.62,5.62,0,0,1,4.1-3.2c1.7-.3,3.3.6,6.6,2.5,3.5,2,3.5,2.8,5.8,3.4,1.5.4,2.3.4,3.2,1.2C183.1,517.2,184.1,518.9,183.6,520.2Z" transform="translate(-23.49 -0.06)"/><path class="cls-26" d="M92.34,776.25a32.76,32.76,0,0,0-21.75,3.18c-2.22,1.17-4.55,3-4.79,5.63-.25,3.39,3.32,5.75,6.61,6.6A24,24,0,0,0,89,789.81c5.14-2.63,8.58-5.68,10.66-11" transform="translate(-23.49 -0.06)"/><path class="cls-26" d="M131.71,791.94c-8.57-2.32-22.47-2.53-30.62,1a10.1,10.1,0,0,0-3.53,2.24A4.14,4.14,0,0,0,96.3,799c.47,2,2.55,3,4.45,3.57a34.45,34.45,0,0,0,35-9.28" transform="translate(-23.49 -0.06)"/><path class="cls-26" d="M165.94,810.16a50.24,50.24,0,0,0-26,3.91c-1.91.87-3.93,1.94-4.66,3.93-1,3,1.51,6,4.39,7.37,5.86,2.78,12.78,1.09,18.82-1.32,6.44-2.61,14.24-9.19,14.24-9.19" transform="translate(-23.49 -0.06)"/><path class="cls-26" d="M188.24,824c-7.11.1-14.32,1.09-20.67,4.09a11,11,0,0,0-3.74,2.65,4.19,4.19,0,0,0-.66,4.29c1.07,2.22,4.16,2.46,6.57,2.2,8.51-1.08,16.16-4.06,22.55-9.87" transform="translate(-23.49 -0.06)"/><path class="cls-26" d="M177.38,814.53a151.25,151.25,0,0,1-7.6-27.32c-.27-1.5-.45-3.2.67-4.19a3.08,3.08,0,0,1,3.2-.25,6.93,6.93,0,0,1,2.47,2.34c6.86,9,9,21.93,5.8,32.89" transform="translate(-23.49 -0.06)"/><path class="cls-26" d="M147.52,798.08c-2.89-7.64-5.77-15.39-8.66-23a17.58,17.58,0,0,1-1.6-6.83c0-2.3,1.18-4.78,3.29-5.75a6.26,6.26,0,0,1,6.48,1.3,16.34,16.34,0,0,1,3.92,5.76c2.32,5,4.34,10.36,4.76,15.87s.15,10.21-3.32,14.55" transform="translate(-23.49 -0.06)"/><path class="cls-26" d="M113.17,780.77a53.9,53.9,0,0,1-12.52-25.39,9.39,9.39,0,0,1,0-4.71c1-3,4.77-4.33,8-3.68a12.6,12.6,0,0,1,8.2,6.43,28.35,28.35,0,0,1,3,10.24,62.34,62.34,0,0,1-.59,19.7" transform="translate(-23.49 -0.06)"/><path class="cls-26" d="M80.83,769.88C72,763.05,67,753.47,62.53,743.3c-1-2.11-1.73-4.82-.2-6.7a4.64,4.64,0,0,1,4-1.44,10.73,10.73,0,0,1,4.18,1.66,34,34,0,0,1,15.28,34.34" transform="translate(-23.49 -0.06)"/><path class="cls-26" d="M64,765.73c-4.65-3.27-9.3-6.64-14.46-9S38.58,753,33,753.66a12.94,12.94,0,0,0-6.74,2.7,7.34,7.34,0,0,0-2.7,6.46A8,8,0,0,0,27.66,768a18.65,18.65,0,0,0,6.57,1.69c10.68,1.36,23.69,1,29.76-3.95" transform="translate(-23.49 -0.06)"/><path class="cls-26" d="M173.41,711.66a31.84,31.84,0,0,0-17.09-13.76c-2.39-.83-5.28-1.28-7.31.29-2.63,2.16-2,6.37-.34,9.4a24.32,24.32,0,0,0,12.64,11c5.37,2,10,2.45,15.39.43" transform="translate(-23.49 -0.06)"/><path class="cls-26" d="M188.62,751.19c-4.08-7.86-13.43-18.2-21.47-21.82a11.2,11.2,0,0,0-4-1.06,4,4,0,0,0-3.62,1.74c-1.13,1.69-.46,3.9.41,5.71a34.52,34.52,0,0,0,30.61,19.46" transform="translate(-23.49 -0.06)"/><path class="cls-26" d="M198.47,788.64A49.74,49.74,0,0,0,178,772.23c-1.89-.82-4.08-1.56-6-.69-2.92,1.26-3.48,5.25-2.53,8.27,2,6.13,7.95,10.12,13.71,12.9,6.26,3,16.44,4.25,16.44,4.25" transform="translate(-23.49 -0.06)"/><path class="cls-26" d="M203.38,814.42c-4.82-5.17-10.45-9.76-17-12.36a9.81,9.81,0,0,0-4.48-.87,4,4,0,0,0-3.64,2.45c-.94,2.29,1,4.72,2.9,6.34,6.52,5.5,14,9.11,22.56,9.84" transform="translate(-23.49 -0.06)"/><path class="cls-26" d="M203,800.11A153.36,153.36,0,0,1,218,776c.91-1.19,2-2.47,3.53-2.35a2.89,2.89,0,0,1,2.37,2.24,6.64,6.64,0,0,1-.05,3.4c-2,11.17-10.12,21.45-20.2,26.6" transform="translate(-23.49 -0.06)"/><path class="cls-26" d="M194.79,767l11-21.93a17.73,17.73,0,0,1,3.88-5.75c1.73-1.57,4.34-2.43,6.43-1.5a6.41,6.41,0,0,1,3.41,5.65,16,16,0,0,1-1.6,6.78c-2.08,5.17-4.65,10.23-8.41,14.27s-7.41,7-12.91,7.41" transform="translate(-23.49 -0.06)"/><path class="cls-26" d="M184.24,729.92a53.65,53.65,0,0,1,10.2-26.45,9,9,0,0,1,3.45-3.25c2.92-1.25,6.39.6,8.05,3.32a13,13,0,0,1,.84,10.42,28.4,28.4,0,0,1-5.34,9.22,63.75,63.75,0,0,1-14.89,13" transform="translate(-23.49 -0.06)"/><path class="cls-26" d="M170.41,698.81c-.94-11.11,2.61-21.26,7.17-31.49.93-2.19,2.46-4.47,4.77-4.73a4.43,4.43,0,0,1,3.77,2,10.36,10.36,0,0,1,1.54,4.13,34.07,34.07,0,0,1-14.92,34.48" transform="translate(-23.49 -0.06)"/><path class="cls-26" d="M162,683.68c-.72-5.61-1.43-11.32-3.15-16.74a30.48,30.48,0,0,0-9-14.24,13.46,13.46,0,0,0-6.55-3.2,7.2,7.2,0,0,0-6.64,2.4,7.47,7.47,0,0,0-1,6.49,17.62,17.62,0,0,0,3.11,6c6.27,8.89,15.53,18.13,23.21,19.34" transform="translate(-23.49 -0.06)"/><path class="cls-43" d="M33,758.26a10.67,10.67,0,0,0,1.89.53l5.48,1.28c2.4.54,5.29,1.18,8.58,2s7.17,1.71,11.35,3c8.37,2.23,18.33,5.28,29.17,9s22.58,8.44,34.7,13.82,23.33,11.25,33.35,16.9,18.84,11.08,26.06,15.89c3.67,2.36,6.84,4.61,9.71,6.55s5.24,3.68,7.22,5.11l4.55,3.27a10.11,10.11,0,0,0,1.69,1,17.57,17.57,0,0,0-1.48-1.32l-4.45-3.47c-1.88-1.53-4.25-3.36-7.12-5.31s-5.94-4.38-9.6-6.74c-7.23-4.91-15.95-10.44-26-16.19s-21.33-11.52-33.45-17-24-10.06-34.9-13.83-20.9-6.61-29.27-8.73c-4.19-1.17-8.07-1.92-11.46-2.78s-6.28-1.39-8.68-1.83l-5.48-1C34.3,758.38,33.6,758.37,33,758.26Z" transform="translate(-23.49 -0.06)"/><path class="cls-43" d="M146.45,655.85a5.53,5.53,0,0,0,.87,1.71c.68,1.21,1.66,2.83,2.73,4.84s2.73,4.64,4.38,7.77,3.61,6.45,5.55,10.38c4,7.66,8.54,17,13.09,27.6s9.16,22.34,13.38,34.91,7.53,24.81,10.16,36,4.58,21.37,5.95,29.89c.74,4.32,1.28,8.22,1.73,11.63s.91,6.32,1.17,8.82.54,4.11.72,5.51a10.1,10.1,0,0,0,.37,1.91,13.38,13.38,0,0,0-.07-2l-.42-5.61c-.16-2.4-.42-5.41-.87-8.81s-.79-7.32-1.52-11.63c-1.28-8.62-3.12-18.85-5.65-30.09s-6-23.49-10.17-36.15-8.93-24.44-13.47-35S165.07,687.63,161,680c-2.05-3.83-4-7.26-5.75-10.29s-3.22-5.55-4.59-7.57l-3-4.74A4.42,4.42,0,0,0,146.45,655.85Z" transform="translate(-23.49 -0.06)"/><path class="cls-26" d="M832.15,735.15c8.7,1.6,16.3,6.7,22.3,13.1,3.2,3.4,6.3,7.5,6.7,12.2s-2.8,10-7.6,10.1c-2.8.1-5.4-1.5-7.6-3.2-5.3-4.2-10.6-9.7-17.4-9.7-3.9,0-7.8,1.8-11.5.5s-5.5-5.5-5.1-9.2,2.9-7,5.8-9.4A16.89,16.89,0,0,1,832.15,735.15Z" transform="translate(-23.49 -0.06)"/><path class="cls-26" d="M860.85,677.85c-.3,8.3,8.4,12.1,14.3,11.4s11-4.4,15.8-8c11-8.2,22.3-16.8,28.2-29.2,1.8-3.7,3-7.8,2.5-11.8s-2.8-8.1-6.6-9.6c-4.5-1.8-9.6,0-13.9,2.2a96.41,96.41,0,0,0-32.5,27c-3.8,5.3-7.4,11.3-7.8,18" transform="translate(-23.49 -0.06)"/><path class="cls-26" d="M844.55,677.75c7.8-1.8,14.1-8.3,16.9-15.8s2.7-15.9,1.1-23.8a72.16,72.16,0,0,0-10.6-26,26.42,26.42,0,0,0-7.5-8.1c-3.1-2-7.3-2.7-10.6-1.1-5,2.3-6.6,8.5-7.4,13.9a186.36,186.36,0,0,0-2,28.9c.1,7.8.8,15.9,4.8,22.5s10.3,10.9,16.4,9.2" transform="translate(-23.49 -0.06)"/><path class="cls-26" d="M748.85,796.65c-4.1-3.3-9.4-4.6-14.6-4.8-2.8-.1-5.8.2-8,1.8s-3.3,5.2-1.5,7.4a7.3,7.3,0,0,0,4.4,2.1c4,.7,8.5.9,11.2,3.9,1.5,1.7,2.3,4.2,4.3,5.3a5.24,5.24,0,0,0,6.1-1.4,8.92,8.92,0,0,0,1.9-6.3A10.25,10.25,0,0,0,748.85,796.65Z" transform="translate(-23.49 -0.06)"/><path class="cls-26" d="M763.25,778.65c-3.6,3.4-8.7,1-10.7-1.9s-2.4-6.7-2.7-10.2c-.7-8.1-1.3-16.6,1.9-24a13,13,0,0,1,4.3-5.8,6.86,6.86,0,0,1,6.9-.8c2.6,1.3,3.7,4.3,4.5,7a56,56,0,0,1,.7,25.1c-.8,3.9-2,7.9-4.9,10.6" transform="translate(-23.49 -0.06)"/><path class="cls-26" d="M769.75,785.85c-2.3-4.2-1.8-9.5.4-13.7s6-7.4,10.2-9.8a43.76,43.76,0,0,1,15.8-5.5,16.32,16.32,0,0,1,6.6.2,7,7,0,0,1,4.7,4.3c.9,3.1-1.2,6.3-3.3,8.8a108.06,108.06,0,0,1-12.1,12.3c-3.5,3-7.4,5.9-11.9,6.7s-8.9-.3-10.6-3.7" transform="translate(-23.49 -0.06)"/><path class="cls-43" d="M776.35,778.45a15.25,15.25,0,0,0,2.2-2.2l5.8-6.2a105.37,105.37,0,0,1,9-8.7,97,97,0,0,1,12.4-8.9,52.4,52.4,0,0,1,14-6,26.92,26.92,0,0,1,20.1,2.3,18.21,18.21,0,0,0,2.7,1.5,15,15,0,0,0-2.5-1.9,22.89,22.89,0,0,0-7.9-3.3,27.25,27.25,0,0,0-12.7.3,49,49,0,0,0-14.3,6.1,93.77,93.77,0,0,0-12.6,9.1,108.07,108.07,0,0,0-8.9,9c-2.4,2.7-4.2,4.9-5.5,6.5A10.77,10.77,0,0,0,776.35,778.45Z" transform="translate(-23.49 -0.06)"/><path class="cls-43" d="M802.75,754.65a4.81,4.81,0,0,0,.9-1.1c.7-.9,1.5-1.9,2.5-3.3,2.2-2.8,5.3-7,9.3-11.9,8-10,17.2-20.2,30.5-34.3,12.6-13.3,27.6-28.5,38.2-37.7,2.4-2.1,4.6-4,6.5-5.6s3.6-3,5-4.1l3.2-2.6a10,10,0,0,0,1.1-1,8.34,8.34,0,0,0-1.2.8l-3.3,2.4c-1.5,1-3.2,2.4-5.2,4s-4.2,3.4-6.7,5.5a468.89,468.89,0,0,0-36.1,34.4c-13.4,14.1-24.9,27.6-32.7,37.7-3.9,5-7,9.2-9,12.2l-2.3,3.4A3.46,3.46,0,0,0,802.75,754.65Z" transform="translate(-23.49 -0.06)"/><path class="cls-43" d="M823.45,727.65a27.85,27.85,0,0,0,2.6-3.4c1.5-2.3,3.7-5.7,6-10,2.7-5.1,5.1-10.4,7.3-15.8a144,144,0,0,0,6.5-20.2c3.8-14.7,4.3-28.6,3.1-38.4a50.48,50.48,0,0,0-1.1-6.6q-.3-1.5-.6-2.7c-.2-.8-.5-1.5-.7-2.2a27.4,27.4,0,0,0-1.5-4c-.3.1,2,5.8,3,15.6s.3,23.4-3.4,38a156.54,156.54,0,0,1-6.4,20.1c-2.1,5.4-4.4,10.6-7,15.8-2.2,4.4-4.2,7.8-5.6,10.2A16.54,16.54,0,0,0,823.45,727.65Z" transform="translate(-23.49 -0.06)"/><path class="cls-43" d="M751.45,838.55a12.75,12.75,0,0,1,.1-1.9c.1-1.3.3-3,.5-5a61.88,61.88,0,0,0,.3-7.4,68.59,68.59,0,0,0-.9-9,32.1,32.1,0,0,0-2.8-8.6,16.11,16.11,0,0,0-8.9-8.1,8.51,8.51,0,0,1-1.7-.6,11.27,11.27,0,0,1,1.8.3,15.12,15.12,0,0,1,9.5,8,30.34,30.34,0,0,1,2.9,8.8,47,47,0,0,1,.9,9.2,63,63,0,0,1-.5,7.5c-.3,2.1-.5,3.8-.7,5C751.75,837.35,751.65,838,751.45,838.55Z" transform="translate(-23.49 -0.06)"/><path class="cls-43" d="M751.85,834.75c0-.3.1-.6.1-.8l.5-2.4c.4-2.1,1-5.1,1.7-8.8,1.3-7.5,2.3-15.6,3.3-27.1,1-10.8,1.8-23.5,1.8-31.8,0-1.9,0-3.6-.1-5.1s-.1-2.8-.1-3.9-.1-1.8-.1-2.4v-.8a2.49,2.49,0,0,1,.1.8c.1.6.1,1.4.2,2.4s.2,2.3.3,3.9.2,3.2.2,5.1a265.36,265.36,0,0,1-1.1,29.6,281.06,281.06,0,0,1-4,29.4c-.7,3.7-1.4,6.7-1.9,8.8a16.67,16.67,0,0,0-.6,2.4C752.05,834.15,752.05,834.45,751.85,834.75Z" transform="translate(-23.49 -0.06)"/><path class="cls-43" d="M758.15,813.25a22.11,22.11,0,0,1,.5-2.5,66,66,0,0,1,2.1-6.6,79.17,79.17,0,0,1,4.2-9.4,80.38,80.38,0,0,1,6.5-10.9,64,64,0,0,1,15.9-16.5,23.94,23.94,0,0,1,3.4-2.1c.5-.3,1-.6,1.4-.8l1.3-.5a11.72,11.72,0,0,1,2.4-.9c.1.2-3.4,1.4-8.1,4.8a67.49,67.49,0,0,0-15.6,16.4,105.09,105.09,0,0,0-6.5,10.7,98.3,98.3,0,0,0-4.3,9.3c-1.1,2.7-1.8,5-2.3,6.5A14.54,14.54,0,0,1,758.15,813.25Z" transform="translate(-23.49 -0.06)"/></svg>