<svg id="Layer_1" data-name="Layer 1" xmlns="http://www.w3.org/2000/svg" viewBox="0 0 102.05 82.89"><defs><style>.cls-1{fill:#fff;}.cls-2{fill:none;stroke:#fff;stroke-miterlimit:10;stroke-width:3px;}</style></defs><title>webicon</title><path class="cls-1" d="M3.23,82.86H98.89a3.19,3.19,0,0,0,2-5.65l-9.66-8a2,2,0,0,0-.39-.26,3.69,3.69,0,0,0,0-.47v-4.7A24.1,24.1,0,0,1,87.65,65v3.48H14.39V28.67h3.19V63.78a1.6,1.6,0,0,0,3.19.25,1,1,0,0,0,0-.25V15.92H81.33v.86a24.41,24.41,0,0,1,3.19.3V4.78A4.8,4.8,0,0,0,79.73,0H22.36a4.79,4.79,0,0,0-4.78,4.78v20.7H14.39a3.19,3.19,0,0,0-3.19,3.19h0V68.51a3.69,3.69,0,0,0,0,.47l-.39.26-9.65,8a3.19,3.19,0,0,0,2,5.65ZM20.77,4.78a1.59,1.59,0,0,1,1.59-1.59H79.73a1.6,1.6,0,0,1,1.6,1.59v8H20.77ZM12.89,71.7H89.2l9.66,8H3.23Z" transform="translate(0)"/><path class="cls-1" d="M76.55,6.35H73.36a1.6,1.6,0,0,0,0,3.19h3.19a1.6,1.6,0,0,0,0-3.19Z" transform="translate(0)"/><path class="cls-1" d="M67,6.35H63.8a1.61,1.61,0,1,0-.3,3.2h3.43a1.61,1.61,0,0,0,.3-3.2Z" transform="translate(0)"/><path class="cls-1" d="M25.55,22.35h9.56a1.6,1.6,0,0,0,0-3.19H25.55a1.6,1.6,0,1,0-.28,3.19Z" transform="translate(0)"/><path class="cls-1" d="M25.55,28.67H54.23a1.6,1.6,0,1,0,.27-3.19,1,1,0,0,0-.25,0H25.55a1.6,1.6,0,0,0-.28,3.19Z" transform="translate(0)"/><path class="cls-1" d="M25.55,35.05H38.3a1.6,1.6,0,0,0,0-3.19H25.55a1.6,1.6,0,0,0-.25,3.19Z" transform="translate(0)"/><path class="cls-1" d="M25.55,41.42H54.23a1.6,1.6,0,1,0,.27-3.19H25.55a1.6,1.6,0,0,0-.28,3.19h.28Z" transform="translate(0)"/><path class="cls-1" d="M25.55,54.17H46.27a1.6,1.6,0,0,0,0-3.19H25.55a1.6,1.6,0,0,0-.28,3.19h.28Z" transform="translate(0)"/><path class="cls-1" d="M25.55,60.57H62.2a1.62,1.62,0,1,0,.3-3.22H25.55a1.6,1.6,0,0,0-.25,3.19Z" transform="translate(0)"/><path class="cls-1" d="M25.55,44.57a1.61,1.61,0,0,0-.29,3.21H56.67a27.13,27.13,0,0,1-.62-3.21Z" transform="translate(0)"/><path class="cls-1" d="M88.83,37.11a1.59,1.59,0,0,0-2.25,2.24l2.06,2.06-2.06,2.06a1.61,1.61,0,0,0,2.25,2.3h0l3.22-3.21a1.61,1.61,0,0,0,0-2.26h0Z" transform="translate(0)"/><path class="cls-1" d="M74.5,37.11a1.59,1.59,0,0,0-2.25,0h0l-3.19,3.18a1.61,1.61,0,0,0,0,2.26h0l3.18,3.23a1.59,1.59,0,1,0,2.26-2.25l-2.06-2.06,2.06-2.06a1.59,1.59,0,0,0,0-2.25h0Z" transform="translate(0)"/><path class="cls-1" d="M82.63,35.13a1.59,1.59,0,0,0-2,1l-3.19,9.56a1.6,1.6,0,0,0,3,1l3.19-9.57A1.6,1.6,0,0,0,82.63,35.13Z" transform="translate(0)"/><circle class="cls-2" cx="81.33" cy="41.3" r="18.34"/></svg>