<svg id="Layer_1" data-name="Layer 1" xmlns="http://www.w3.org/2000/svg" viewBox="0 0 158.39 81.07"><defs><style>.cls-1{fill:#fff;}</style></defs><title>whitelogo</title><path class="cls-1" d="M14.66,140.66h2.59l4.43,12.54-.39-.13,3.25-8.43,1,3L21.2,157.79Zm7.92,0h2.19L29.61,153l-.48-.09,4.22-12.29h2.37l-6.46,17.09Z" transform="translate(-14.66 -76.72)"/><path class="cls-1" d="M43.56,140.59H54.24v2.11H45.76v5h7.57v2.14H45.76v5.07h8.79V157h-11Z" transform="translate(-14.66 -76.72)"/><path class="cls-1" d="M67.14,140.59a6.66,6.66,0,0,1,3.9,1,3.61,3.61,0,0,1,1.42,3.13,4.26,4.26,0,0,1-.59,2.27,4.2,4.2,0,0,1-1.65,1.5,6.25,6.25,0,0,1-2.49.63L67.41,148a8.19,8.19,0,0,1,3,.59,5,5,0,0,1,2.09,1.52,3.59,3.59,0,0,1,.77,2.32,4.55,4.55,0,0,1-.44,2.1,3.87,3.87,0,0,1-1.23,1.43,5.52,5.52,0,0,1-1.75.82,7.9,7.9,0,0,1-2,.26H62.91V140.59Zm.46,7.18a2.41,2.41,0,0,0,2-.75,2.77,2.77,0,0,0,.62-1.82,2.21,2.21,0,0,0-.8-1.9,3.46,3.46,0,0,0-2.14-.6H65.12v5.07Zm.09,7.2a4.93,4.93,0,0,0,1.68-.27,2.49,2.49,0,0,0,1.19-.85,2.25,2.25,0,0,0,.44-1.42,2.1,2.1,0,0,0-.51-1.5,2.81,2.81,0,0,0-1.3-.78,5.66,5.66,0,0,0-1.64-.24H65.12V155Z" transform="translate(-14.66 -76.72)"/><path class="cls-1" d="M94.41,140.59l5.4,13.59-1.25-.25,5.12-13.34h2.61L99,157.79l-7.27-17.2Z" transform="translate(-14.66 -76.72)"/><path class="cls-1" d="M114.11,140.59h2.2V157h-2.2Z" transform="translate(-14.66 -76.72)"/><path class="cls-1" d="M129.81,140.59a6.61,6.61,0,0,1,3.89,1,3.58,3.58,0,0,1,1.42,3.13,4.17,4.17,0,0,1-.59,2.27,4.11,4.11,0,0,1-1.64,1.5,6.34,6.34,0,0,1-2.49.63l-.32-1.15a8.24,8.24,0,0,1,3,.59,5.13,5.13,0,0,1,2.09,1.52,3.64,3.64,0,0,1,.77,2.32,4.68,4.68,0,0,1-.44,2.1,4,4,0,0,1-1.23,1.43,5.62,5.62,0,0,1-1.75.82,8,8,0,0,1-2,.26h-4.89V140.59Zm.45,7.18a2.42,2.42,0,0,0,2-.75,2.76,2.76,0,0,0,.61-1.82,2.21,2.21,0,0,0-.79-1.9,3.48,3.48,0,0,0-2.14-.6h-2.14v5.07Zm.09,7.2a4.93,4.93,0,0,0,1.68-.27,2.56,2.56,0,0,0,1.2-.85,2.31,2.31,0,0,0,.44-1.42,2.1,2.1,0,0,0-.51-1.5,2.84,2.84,0,0,0-1.31-.78,5.59,5.59,0,0,0-1.63-.24h-2.44V155Z" transform="translate(-14.66 -76.72)"/><path class="cls-1" d="M144.17,140.59h10.68v2.11h-8.48v5h7.57v2.14h-7.57v5.07h8.79V157h-11Z" transform="translate(-14.66 -76.72)"/><path class="cls-1" d="M172,143.52a13.56,13.56,0,0,0-1.84-.75,6.52,6.52,0,0,0-2-.32,3.3,3.3,0,0,0-2.1.62,2,2,0,0,0-.79,1.63,1.83,1.83,0,0,0,.51,1.31,4.42,4.42,0,0,0,1.32.92c.54.26,1.11.5,1.72.73a13.88,13.88,0,0,1,1.5.65,5.75,5.75,0,0,1,1.35.92,3.84,3.84,0,0,1,.95,1.34,4.72,4.72,0,0,1,.35,2,4.41,4.41,0,0,1-2.49,4.07,6.32,6.32,0,0,1-2.89.61,8.73,8.73,0,0,1-2.06-.24,8.6,8.6,0,0,1-1.83-.65,12.94,12.94,0,0,1-1.5-.84l1-1.72a10.32,10.32,0,0,0,1.25.74A7.5,7.5,0,0,0,166,155a5.65,5.65,0,0,0,1.5.21A4.28,4.28,0,0,0,169,155a2.82,2.82,0,0,0,1.25-.86,2.31,2.31,0,0,0,.5-1.57,2.21,2.21,0,0,0-.44-1.38,3.85,3.85,0,0,0-1.16-1,12.46,12.46,0,0,0-1.56-.71c-.53-.19-1.05-.4-1.58-.64a7.38,7.38,0,0,1-1.45-.88,4,4,0,0,1-1.09-1.26,3.64,3.64,0,0,1-.42-1.81,4.09,4.09,0,0,1,.62-2.26,4.33,4.33,0,0,1,1.72-1.53,5.87,5.87,0,0,1,2.5-.6,9.22,9.22,0,0,1,2.81.39,10.29,10.29,0,0,1,2.14.93Z" transform="translate(-14.66 -76.72)"/><path class="cls-1" d="M74.9,108.86a6.27,6.27,0,0,0-1.48-4.07,6.25,6.25,0,1,0,1.48,4.07Z" transform="translate(-14.66 -76.72)"/><path class="cls-1" d="M74.91,101.19V90.57l-12.28-.16a13.17,13.17,0,0,1,.75,4.46,12.62,12.62,0,0,1-.6,3.86A8.2,8.2,0,0,0,62.4,101v.09Z" transform="translate(-14.66 -76.72)"/><polygon class="cls-1" points="60.24 24.94 60.28 16.09 57.53 21.63 60.24 24.94"/><rect class="cls-1" x="47.75" y="16.37" width="12.49" height="15.88"/><path class="cls-1" d="M97.14,85" transform="translate(-14.66 -76.72)"/><path class="cls-1" d="M62.4,87.55V76.93a16.14,16.14,0,0,1,5.86.18A8.71,8.71,0,0,1,75,85.74l0,3.14Z" transform="translate(-14.66 -76.72)"/><path class="cls-1" d="M130,100.54l.22,10.71-12.35.26a13.11,13.11,0,0,0,0-8.32,15.19,15.19,0,0,1-.21-3.31l0,9.19Z" transform="translate(-14.66 -76.72)"/><path class="cls-1" d="M130.24,111.11c0,.19,0,.61,0,.8-.16,7-4.6,11.07-11.62,11.21-3.72.08-7.83-.81-10.66-3a13,13,0,0,0,10-8.63,11.12,11.12,0,0,0,.48-4.14,14.92,14.92,0,0,0-.43-4.1,3.56,3.56,0,0,1-.27-1.61l.26-1a5.53,5.53,0,0,1,.21-2.74,13,13,0,0,1,10.46,6.7A14.91,14.91,0,0,1,130.24,111.11Z" transform="translate(-14.66 -76.72)"/><path class="cls-1" d="M117.71,100.07s1.91,14.47-5.14,18.26C112.57,118.33,126.55,112.74,117.71,100.07Z" transform="translate(-14.66 -76.72)"/><polygon class="cls-1" points="115.38 23.35 115.56 32.2 112.72 26.7 115.38 23.35"/><path class="cls-1" d="M111.61,109a6.29,6.29,0,0,0-1.42-4.1,6.24,6.24,0,0,0-11.07,3.84,6,6,0,0,0,.63,2.87A6.25,6.25,0,0,0,111.61,109Z" transform="translate(-14.66 -76.72)"/><path class="cls-1" d="M111.74,99.31l.21-10-12.33-1a13.2,13.2,0,0,1,0,8.26,6.64,6.64,0,0,0-.37,2.11l0,.53c0,.05,0-.19.06-.19Z" transform="translate(-14.66 -76.72)"/><path class="cls-1" d="M112,89.16c0-.19,0-1,0-1.22-.15-7-4.59-11.07-11.61-11.22-3.72-.07-7.83.82-10.66,3a13.08,13.08,0,0,1,10,8.64,11.33,11.33,0,0,1,.48,4.14,15.31,15.31,0,0,1-.43,4.1,6.83,6.83,0,0,0-.24,2.21l-.11.66a4.59,4.59,0,0,0,.55,2.47A13,13,0,0,0,112,89.16Z" transform="translate(-14.66 -76.72)"/><path class="cls-1" d="M99.32,98.4s2-13.09-5.06-16.88C94.26,81.52,107.71,85.91,99.32,98.4Z" transform="translate(-14.66 -76.72)"/><polygon class="cls-1" points="97.06 23.06 97.24 14.21 94.4 19.71 97.06 23.06"/><rect class="cls-1" x="99.26" y="89.78" width="12.49" height="18.91" transform="translate(-13.12 -78.33) rotate(0.88)"/><path class="cls-1" d="M114.91,114.75" transform="translate(-14.66 -76.72)"/><rect class="cls-1" x="47.75" y="8.65" width="12.54" height="9.99"/><path class="cls-1" d="M130.2,109.14a6.25,6.25,0,1,0-12.49-.07,6.12,6.12,0,0,0,.67,2.86,6.25,6.25,0,0,0,11.82-2.79Z" transform="translate(-14.66 -76.72)"/><path class="cls-1" d="M130.22,101.19l0-10.62-12.28-.16a13.11,13.11,0,0,1,.16,8.32,7.54,7.54,0,0,0-.37,2.31v.09Z" transform="translate(-14.66 -76.72)"/><polygon class="cls-1" points="115.54 24.94 115.59 16.09 112.83 21.63 115.54 24.94"/><polygon class="cls-1" points="115.57 34.99 103.05 32.25 103.05 16.38 115.57 16.52 115.57 34.99"/><path class="cls-1" d="M117.71,87.55V76.93a16.08,16.08,0,0,1,5.85.18,8.71,8.71,0,0,1,6.71,8.63l0,3.14Z" transform="translate(-14.66 -76.72)"/><rect class="cls-1" x="103.05" y="8.65" width="12.54" height="9.99"/><path class="cls-1" d="M93.2,92a5.89,5.89,0,0,1-1.41,3.93,6.32,6.32,0,0,1-4.71,2.2,6.13,6.13,0,0,1-6.37-5.89,5.68,5.68,0,0,1,.63-2.75,6.26,6.26,0,0,1,5.49-3.38A6.14,6.14,0,0,1,93.2,92Z" transform="translate(-14.66 -76.72)"/><path class="cls-1" d="M93.34,101.22l.21,9.6-12.34.94a12.14,12.14,0,0,0,.05-7.94,5.84,5.84,0,0,1-.37-2l0-.5c0-.05,0,.18.06.18Z" transform="translate(-14.66 -76.72)"/><path class="cls-1" d="M93.55,111c0,.18,0,1,0,1.17-.15,6.68-4.6,10.64-11.61,10.77-3.73.08-7.84-.78-10.67-2.86a12.91,12.91,0,0,0,10-8.29,10.31,10.31,0,0,0,.48-4,13.82,13.82,0,0,0-.43-3.94,6.31,6.31,0,0,1-.23-2.12l-.11-.64a4.28,4.28,0,0,1,.54-2.37,13.36,13.36,0,0,1,7.05,2.61,12.61,12.61,0,0,1,3.41,3.83A12.24,12.24,0,0,1,93.55,111Z" transform="translate(-14.66 -76.72)"/><path class="cls-1" d="M80.91,102.1s2,12.57-5.06,16.21C75.85,118.31,89.76,114.26,80.91,102.1Z" transform="translate(-14.66 -76.72)"/><polygon class="cls-1" points="78.66 24.05 78.84 32.55 76 27.27 78.66 24.05"/><polygon class="cls-1" points="78.55 15.4 66.06 15.58 66.35 33.74 78.84 33.56 78.55 15.4"/></svg>